<svg xmlns="http://www.w3.org/2000/svg" viewBox="0 0 168.33 377.25"><defs><style>.cls-1,.cls-2{fill:none;stroke-linecap:round;stroke-linejoin:round;stroke-width:0.43px;}.cls-1{stroke:#000;}.cls-2{stroke:gray;}</style></defs><title>资源 1</title><g id="图层_2" data-name="图层 2"><g id="_0" data-name="0"><g id="LINE"><line class="cls-1" x1="149.37" y1="283.54" x2="149.37" y2="283.69"/></g><g id="LINE-2" data-name="LINE"><line class="cls-1" x1="149.96" y1="284.72" x2="150.09" y2="284.79"/></g><g id="LINE-3" data-name="LINE"><line class="cls-1" x1="150.91" y1="282.31" x2="149.58" y2="283.08"/></g><g id="LINE-4" data-name="LINE"><line class="cls-1" x1="150.59" y1="284.84" x2="151.93" y2="284.07"/></g><g id="LINE-5" data-name="LINE"><line class="cls-1" x1="16.46" y1="322.75" x2="16.7" y2="322.61"/></g><g id="LINE-6" data-name="LINE"><line class="cls-1" x1="14.77" y1="319.26" x2="14.53" y2="319.4"/></g><g id="LINE-7" data-name="LINE"><line class="cls-1" x1="149.37" y1="233.86" x2="149.37" y2="234"/></g><g id="LINE-8" data-name="LINE"><line class="cls-1" x1="149.96" y1="235.03" x2="150.09" y2="235.1"/></g><g id="LINE-9" data-name="LINE"><line class="cls-1" x1="150.91" y1="232.62" x2="149.58" y2="233.39"/></g><g id="LINE-10" data-name="LINE"><line class="cls-1" x1="150.59" y1="235.15" x2="151.93" y2="234.38"/></g><g id="LINE-11" data-name="LINE"><line class="cls-1" x1="149.37" y1="258.7" x2="149.37" y2="258.84"/></g><g id="LINE-12" data-name="LINE"><line class="cls-1" x1="149.96" y1="259.87" x2="150.09" y2="259.94"/></g><g id="LINE-13" data-name="LINE"><line class="cls-1" x1="150.91" y1="257.47" x2="149.58" y2="258.24"/></g><g id="LINE-14" data-name="LINE"><line class="cls-1" x1="150.59" y1="259.99" x2="151.93" y2="259.22"/></g><g id="LINE-15" data-name="LINE"><line class="cls-1" x1="157.26" y1="288.1" x2="157.26" y2="288.24"/></g><g id="LINE-16" data-name="LINE"><line class="cls-1" x1="157.85" y1="289.27" x2="157.98" y2="289.34"/></g><g id="LINE-17" data-name="LINE"><line class="cls-1" x1="158.8" y1="286.87" x2="157.47" y2="287.63"/></g><g id="LINE-18" data-name="LINE"><line class="cls-1" x1="158.48" y1="289.39" x2="159.82" y2="288.62"/></g><g id="LINE-19" data-name="LINE"><line class="cls-1" x1="8.57" y1="367.88" x2="8.81" y2="367.75"/></g><g id="LINE-20" data-name="LINE"><line class="cls-1" x1="6.88" y1="364.4" x2="6.64" y2="364.54"/></g><g id="LINE-21" data-name="LINE"><line class="cls-1" x1="16.46" y1="347.59" x2="16.7" y2="347.45"/></g><g id="LINE-22" data-name="LINE"><line class="cls-1" x1="14.77" y1="344.11" x2="14.53" y2="344.25"/></g><g id="LINE-23" data-name="LINE"><line class="cls-1" x1="16.46" y1="372.44" x2="16.7" y2="372.3"/></g><g id="LINE-24" data-name="LINE"><line class="cls-1" x1="14.77" y1="368.95" x2="14.53" y2="369.09"/></g><g id="LINE-25" data-name="LINE"><line class="cls-1" x1="8.57" y1="318.2" x2="8.81" y2="318.06"/></g><g id="LINE-26" data-name="LINE"><line class="cls-1" x1="6.88" y1="314.71" x2="6.64" y2="314.85"/></g><g id="LINE-27" data-name="LINE"><line class="cls-1" x1="157.26" y1="238.41" x2="157.26" y2="238.55"/></g><g id="LINE-28" data-name="LINE"><line class="cls-1" x1="157.85" y1="239.58" x2="157.98" y2="239.65"/></g><g id="LINE-29" data-name="LINE"><line class="cls-1" x1="158.8" y1="237.18" x2="157.47" y2="237.95"/></g><g id="LINE-30" data-name="LINE"><line class="cls-1" x1="158.48" y1="239.7" x2="159.82" y2="238.93"/></g><g id="LINE-31" data-name="LINE"><line class="cls-1" x1="141.43" y1="182.11" x2="143.61" y2="185.89"/></g><g id="SPLINE"><path class="cls-1" d="M143.61,185.89l.11.2a3.94,3.94,0,0,1,.18.39,3,3,0,0,1,.1.29,1.62,1.62,0,0,1,0,.21s0,.08,0,.11"/></g><g id="ARC"><path class="cls-1" d="M141.36,181.85a.51.51,0,0,0,.07.25"/></g><g id="LINE-32" data-name="LINE"><line class="cls-1" x1="156.81" y1="223.27" x2="159.97" y2="223.27"/></g><g id="ARC-2" data-name="ARC"><path class="cls-1" d="M156.55,223.2a.51.51,0,0,0,.25.07"/></g><g id="ARC-3" data-name="ARC"><path class="cls-1" d="M160,223.27a.51.51,0,0,0,.25-.07"/></g><g id="LINE-33" data-name="LINE"><line class="cls-1" x1="144.3" y1="216.13" x2="149.03" y2="218.86"/></g><g id="LINE-34" data-name="LINE"><line class="cls-1" x1="149.03" y1="218.86" x2="156.55" y2="223.2"/></g><g id="LINE-35" data-name="LINE"><line class="cls-1" x1="160.23" y1="223.2" x2="162.77" y2="221.74"/></g><g id="ARC-4" data-name="ARC"><path class="cls-1" d="M144,215.69a.51.51,0,0,0,.25.44"/></g><g id="ARC-5" data-name="ARC"><path class="cls-1" d="M26.72,269.27a.51.51,0,0,0,.25-.44"/></g><g id="LINE-36" data-name="LINE"><line class="cls-1" x1="21.41" y1="303.34" x2="24.03" y2="301.83"/></g><g id="ARC-6" data-name="ARC"><path class="cls-1" d="M24,301.83a.51.51,0,0,0,.25-.44"/></g><g id="LINE-37" data-name="LINE"><line class="cls-1" x1="163.2" y1="15.75" x2="161.61" y2="14.83"/></g><g id="LINE-38" data-name="LINE"><line class="cls-1" x1="0.21" y1="98.82" x2="0.21" y2="256.98"/></g><g id="LINE-39" data-name="LINE"><line class="cls-1" x1="0.68" y1="258.6" x2="3.81" y2="264.02"/></g><g id="SPLINE-2" data-name="SPLINE"><path class="cls-1" d="M.21,257c0,.08,0,.16,0,.23a2.75,2.75,0,0,0,.07.42,3.6,3.6,0,0,0,.31.83l.07.13"/></g><g id="LINE-40" data-name="LINE"><line class="cls-1" x1="3.8" y1="264" x2="3.8" y2="365.83"/></g><g id="LINE-41" data-name="LINE"><line class="cls-1" x1="7.29" y1="371.88" x2="16.13" y2="376.98"/></g><g id="LINE-42" data-name="LINE"><line class="cls-1" x1="3.81" y1="365.87" x2="7.26" y2="371.85"/></g><g id="LINE-43" data-name="LINE"><line class="cls-1" x1="168.11" y1="186.6" x2="168.11" y2="28.44"/></g><g id="SPLINE-3" data-name="SPLINE"><path class="cls-1" d="M167.37,188.07l.21-.15a1.3,1.3,0,0,0,.22-.24,1.58,1.58,0,0,0,.16-.28,1.77,1.77,0,0,0,.11-.32,2,2,0,0,0,0-.36s0-.08,0-.12"/></g><g id="LINE-44" data-name="LINE"><line class="cls-1" x1="164.53" y1="291.3" x2="164.53" y2="189.71"/></g><g id="SPLINE-4" data-name="SPLINE"><path class="cls-1" d="M15.29,68.56l-.5.3c-.31.19-.63.4-.94.61s-.62.44-.93.67-.62.48-.92.73-.61.52-.91.79-.6.55-.89.84-.58.59-.87.89-.57.62-.84.94-.55.65-.82,1-.53.68-.79,1-.51.7-.76,1.06-.49.72-.72,1.09-.46.74-.68,1.12-.44.76-.64,1.14-.41.77-.6,1.16-.38.78-.56,1.18-.35.79-.51,1.19-.31.8-.46,1.2-.28.8-.41,1.2-.25.8-.36,1.2S1,88.7.89,89.1s-.18.79-.25,1.18-.14.78-.19,1.17-.1.77-.14,1.15-.06.76-.08,1.13,0,.63,0,.95"/></g><g id="LINE-45" data-name="LINE"><line class="cls-1" x1="0.21" y1="94.68" x2="0.21" y2="98.82"/></g><g id="LINE-46" data-name="LINE"><line class="cls-1" x1="18.88" y1="66.49" x2="15.29" y2="68.56"/></g><g id="SPLINE-5" data-name="SPLINE"><path class="cls-1" d="M168.11,24.3c0-.19,0-.38,0-.57,0-.36,0-.71-.06-1.06s-.07-.69-.12-1-.11-.66-.18-1-.15-.63-.24-.94-.19-.6-.29-.89-.22-.57-.35-.84-.26-.53-.41-.78-.3-.49-.46-.72-.33-.45-.51-.66-.36-.41-.56-.59-.39-.36-.6-.52a6,6,0,0,0-.64-.46l-.32-.18"/></g><g id="LINE-47" data-name="LINE"><line class="cls-1" x1="163.43" y1="14.12" x2="141.2" y2="1.29"/></g><g id="LINE-48" data-name="LINE"><line class="cls-1" x1="130.04" y1="2.32" x2="126.45" y2="4.39"/></g><g id="SPLINE-6" data-name="SPLINE"><path class="cls-1" d="M141.21,1.31l-.44-.25a6.44,6.44,0,0,0-.72-.31c-.25-.09-.5-.17-.76-.24s-.52-.13-.79-.17-.54-.08-.82-.1-.56,0-.85,0-.58,0-.87,0-.59.07-.89.12-.6.12-.91.2-.61.17-.92.27-.62.22-.93.34-.63.27-.94.41-.63.31-.94.48l-.39.22"/></g><g id="LINE-49" data-name="LINE"><line class="cls-1" x1="168.11" y1="28.44" x2="168.11" y2="24.3"/></g><g id="LINE-50" data-name="LINE"><line class="cls-1" x1="126.45" y1="4.39" x2="89.01" y2="26"/></g><g id="LINE-51" data-name="LINE"><line class="cls-1" x1="72.28" y1="35.66" x2="18.88" y2="66.49"/></g><g id="LINE-52" data-name="LINE"><line class="cls-1" x1="96.04" y1="34.88" x2="95.63" y2="31.68"/></g><g id="LINE-53" data-name="LINE"><line class="cls-1" x1="72.7" y1="31.68" x2="72.29" y2="34.88"/></g><g id="SPLINE-7" data-name="SPLINE"><path class="cls-1" d="M95.63,31.75c0-.18-.05-.36-.09-.54a4.08,4.08,0,0,0-.19-.6,5.12,5.12,0,0,0-.25-.53,5.43,5.43,0,0,0-.32-.51,6.16,6.16,0,0,0-.38-.49q-.21-.24-.44-.47t-.5-.45q-.27-.22-.56-.42t-.61-.39L91.62,27l-.7-.33-.74-.29-.77-.26-.79-.22-.81-.18-.8-.14-.75-.1-.61-.06-.55,0-.94,0"/></g><g id="SPLINE-8" data-name="SPLINE"><path class="cls-1" d="M84.16,25.37l-1,0-.4,0-.65.06-.67.08-.7.11-.72.15-.72.18-.71.21-.69.24-.67.28-.64.31-.61.34-.57.37-.53.39q-.25.2-.48.42T74,29q-.2.23-.38.46a5.69,5.69,0,0,0-.32.49,4.91,4.91,0,0,0-.26.51,5.4,5.4,0,0,0-.2.53,2.92,2.92,0,0,0-.13.54v.08"/></g><g id="LINE-54" data-name="LINE"><line class="cls-1" x1="73.42" y1="38.38" x2="76.08" y2="42.77"/></g><g id="LINE-55" data-name="LINE"><line class="cls-1" x1="92.25" y1="42.77" x2="94.9" y2="38.38"/></g><g id="LINE-56" data-name="LINE"><line class="cls-1" x1="89.25" y1="28.73" x2="89.01" y2="28.59"/></g><g id="LINE-57" data-name="LINE"><line class="cls-1" x1="79.32" y1="28.59" x2="79.08" y2="28.73"/></g><g id="LINE-58" data-name="LINE"><line class="cls-1" x1="94.67" y1="41.67" x2="94.67" y2="41.65"/></g><g id="LINE-59" data-name="LINE"><line class="cls-1" x1="92.73" y1="42.23" x2="92.73" y2="41.98"/></g><g id="LINE-60" data-name="LINE"><line class="cls-1" x1="75.6" y1="41.98" x2="75.6" y2="42.23"/></g><g id="LINE-61" data-name="LINE"><line class="cls-1" x1="80.8" y1="47.4" x2="80.8" y2="47.66"/></g><g id="LINE-62" data-name="LINE"><line class="cls-1" x1="82.19" y1="47.58" x2="82.19" y2="47.4"/></g><g id="LINE-63" data-name="LINE"><line class="cls-1" x1="73.64" y1="41.66" x2="73.64" y2="41.67"/></g><g id="LINE-64" data-name="LINE"><line class="cls-1" x1="94.83" y1="40.41" x2="94.83" y2="40.1"/></g><g id="LWPOLYLINE"><polyline class="cls-1" points="149.37 283.69 149.4 283.48 149.5 283.34 149.64 283.27 149.82 283.28 150.01 283.38 150.2 283.54 150.37 283.76 150.49 284 150.55 284.25 150.55 284.48 150.49 284.66 150.37 284.77 150.2 284.8 150.01 284.74 149.82 284.61 149.64 284.42 149.5 284.18 149.4 283.93 149.37 283.69"/></g><g id="LWPOLYLINE-2" data-name="LWPOLYLINE"><polyline class="cls-1" points="149.37 283.55 149.4 283.32 149.49 283.15 149.64 283.05 149.82 283.04 150.03 283.1 150.25 283.24 150.45 283.45 150.61 283.7 150.73 283.97 150.8 284.25 150.8 284.49 150.73 284.69 150.61 284.83 150.45 284.88 150.25 284.86 150.09 284.79"/></g><g id="LINE-65" data-name="LINE"><line class="cls-1" x1="15.94" y1="321.04" x2="15.94" y2="321.63"/></g><g id="LINE-66" data-name="LINE"><line class="cls-1" x1="15.5" y1="320.48" x2="15.94" y2="321.04"/></g><g id="LINE-67" data-name="LINE"><line class="cls-1" x1="15.05" y1="320.52" x2="15.5" y2="320.48"/></g><g id="LINE-68" data-name="LINE"><line class="cls-1" x1="15.05" y1="321.12" x2="15.05" y2="320.52"/></g><g id="LINE-69" data-name="LINE"><line class="cls-1" x1="15.5" y1="321.67" x2="15.05" y2="321.12"/></g><g id="LINE-70" data-name="LINE"><line class="cls-1" x1="15.94" y1="321.63" x2="15.5" y2="321.67"/></g><g id="LWPOLYLINE-3" data-name="LWPOLYLINE"><polyline class="cls-1" points="16.86 321.87 16.83 321.51 16.74 321.13 16.58 320.75 16.38 320.38 16.14 320.05 15.86 319.77 15.57 319.54 15.28 319.39 14.99 319.32 14.73 319.33 14.5 319.42 14.32 319.59 14.2 319.82 14.14 320.12 14.14 320.46 14.2 320.83 14.32 321.21 14.5 321.59 14.73 321.94 14.99 322.25 15.28 322.5 15.57 322.69 15.86 322.81 16.14 322.84 16.38 322.79 16.58 322.66 16.74 322.45 16.83 322.19 16.86 321.87"/></g><g id="ARC-7" data-name="ARC"><path class="cls-1" d="M15.62,319.3a.94.94,0,0,0-.85,0"/></g><g id="ARC-8" data-name="ARC"><path class="cls-1" d="M16.7,322.61a.91.91,0,0,0,.4-.75"/></g><g id="ARC-9" data-name="ARC"><path class="cls-1" d="M15.81,321.08l.13.14"/></g><g id="ARC-10" data-name="ARC"><path class="cls-1" d="M15.59,320.6a1,1,0,0,0,.22.49"/></g><g id="LINE-71" data-name="LINE"><line class="cls-1" x1="15.94" y1="321.41" x2="15.5" y2="321.67"/></g><g id="LINE-72" data-name="LINE"><line class="cls-1" x1="15.59" y1="320.81" x2="15.59" y2="320.59"/></g><g id="LINE-73" data-name="LINE"><line class="cls-1" x1="15.59" y1="320.81" x2="15.05" y2="321.12"/></g><g id="LINE-74" data-name="LINE"><line class="cls-1" x1="15.81" y1="321.08" x2="15.59" y2="320.81"/></g><g id="LINE-75" data-name="LINE"><line class="cls-1" x1="15.94" y1="321.25" x2="15.81" y2="321.08"/></g><g id="LWPOLYLINE-4" data-name="LWPOLYLINE"><polyline class="cls-1" points="149.37 234 149.4 233.79 149.5 233.65 149.64 233.58 149.82 233.59 150.01 233.69 150.2 233.85 150.37 234.07 150.49 234.32 150.55 234.57 150.55 234.79 150.49 234.97 150.37 235.08 150.2 235.11 150.01 235.05 149.82 234.92 149.64 234.73 149.5 234.49 149.4 234.24 149.37 234"/></g><g id="LWPOLYLINE-5" data-name="LWPOLYLINE"><polyline class="cls-1" points="149.37 233.86 149.4 233.63 149.49 233.46 149.64 233.36 149.82 233.35 150.03 233.41 150.25 233.56 150.45 233.76 150.61 234.01 150.73 234.28 150.8 234.56 150.8 234.8 150.73 235 150.61 235.14 150.45 235.19 150.25 235.17 150.09 235.1"/></g><g id="LWPOLYLINE-6" data-name="LWPOLYLINE"><polyline class="cls-1" points="149.37 258.84 149.4 258.64 149.5 258.5 149.64 258.43 149.82 258.44 150.01 258.53 150.2 258.7 150.37 258.91 150.49 259.16 150.55 259.41 150.55 259.64 150.49 259.81 150.37 259.92 150.2 259.95 150.01 259.9 149.82 259.77 149.64 259.57 149.5 259.34 149.4 259.08 149.37 258.84"/></g><g id="LWPOLYLINE-7" data-name="LWPOLYLINE"><polyline class="cls-1" points="149.37 258.7 149.4 258.48 149.49 258.31 149.64 258.21 149.82 258.19 150.03 258.26 150.25 258.4 150.45 258.6 150.61 258.85 150.73 259.13 150.8 259.4 150.8 259.65 150.73 259.85 150.61 259.98 150.45 260.04 150.25 260.01 150.09 259.94"/></g><g id="LWPOLYLINE-8" data-name="LWPOLYLINE"><polyline class="cls-1" points="157.26 288.24 157.29 288.04 157.38 287.89 157.53 287.82 157.71 287.84 157.9 287.93 158.09 288.09 158.25 288.31 158.37 288.56 158.44 288.81 158.44 289.04 158.37 289.21 158.25 289.32 158.09 289.35 157.9 289.3 157.71 289.16 157.53 288.97 157.38 288.74 157.29 288.48 157.26 288.24"/></g><g id="LWPOLYLINE-9" data-name="LWPOLYLINE"><polyline class="cls-1" points="157.26 288.1 157.29 287.87 157.38 287.7 157.53 287.61 157.71 287.59 157.92 287.66 158.13 287.8 158.33 288 158.5 288.25 158.62 288.53 158.69 288.8 158.69 289.05 158.62 289.25 158.5 289.38 158.33 289.44 158.13 289.41 157.98 289.34"/></g><g id="LINE-76" data-name="LINE"><line class="cls-1" x1="8.06" y1="366.17" x2="8.06" y2="366.77"/></g><g id="LINE-77" data-name="LINE"><line class="cls-1" x1="7.61" y1="365.61" x2="8.06" y2="366.17"/></g><g id="LINE-78" data-name="LINE"><line class="cls-1" x1="7.16" y1="365.65" x2="7.61" y2="365.61"/></g><g id="LINE-79" data-name="LINE"><line class="cls-1" x1="7.16" y1="366.25" x2="7.16" y2="365.65"/></g><g id="LINE-80" data-name="LINE"><line class="cls-1" x1="7.61" y1="366.81" x2="7.16" y2="366.25"/></g><g id="LINE-81" data-name="LINE"><line class="cls-1" x1="8.06" y1="366.77" x2="7.61" y2="366.81"/></g><g id="LWPOLYLINE-10" data-name="LWPOLYLINE"><polyline class="cls-1" points="8.97 367 8.94 366.64 8.85 366.26 8.7 365.88 8.49 365.52 8.25 365.19 7.97 364.9 7.68 364.68 7.39 364.53 7.1 364.45 6.84 364.46 6.62 364.55 6.44 364.72 6.31 364.96 6.25 365.26 6.25 365.6 6.31 365.97 6.44 366.35 6.62 366.72 6.84 367.07 7.1 367.38 7.39 367.64 7.68 367.83 7.97 367.94 8.25 367.97 8.49 367.92 8.7 367.79 8.85 367.59 8.94 367.32 8.97 367"/></g><g id="ARC-11" data-name="ARC"><path class="cls-1" d="M7.73,364.43a.94.94,0,0,0-.85,0"/></g><g id="ARC-12" data-name="ARC"><path class="cls-1" d="M8.81,367.75a.91.91,0,0,0,.4-.75"/></g><g id="ARC-13" data-name="ARC"><path class="cls-1" d="M7.92,366.22l.13.14"/></g><g id="ARC-14" data-name="ARC"><path class="cls-1" d="M7.7,365.73a1,1,0,0,0,.22.49"/></g><g id="LINE-82" data-name="LINE"><line class="cls-1" x1="8.06" y1="366.55" x2="7.61" y2="366.81"/></g><g id="LINE-83" data-name="LINE"><line class="cls-1" x1="7.7" y1="365.94" x2="7.7" y2="365.72"/></g><g id="LINE-84" data-name="LINE"><line class="cls-1" x1="7.7" y1="365.94" x2="7.16" y2="366.25"/></g><g id="LINE-85" data-name="LINE"><line class="cls-1" x1="7.92" y1="366.22" x2="7.7" y2="365.94"/></g><g id="LINE-86" data-name="LINE"><line class="cls-1" x1="8.06" y1="366.39" x2="7.92" y2="366.22"/></g><g id="LWPOLYLINE-11" data-name="LWPOLYLINE"><polyline class="cls-1" points="16.86 346.71 16.83 346.35 16.74 345.97 16.58 345.59 16.38 345.23 16.14 344.9 15.86 344.61 15.57 344.39 15.28 344.24 14.99 344.16 14.73 344.17 14.5 344.26 14.32 344.43 14.2 344.67 14.14 344.97 14.14 345.31 14.2 345.68 14.32 346.06 14.5 346.43 14.73 346.78 14.99 347.09 15.28 347.35 15.57 347.54 15.86 347.65 16.14 347.68 16.38 347.63 16.58 347.5 16.74 347.3 16.83 347.03 16.86 346.71"/></g><g id="ARC-15" data-name="ARC"><path class="cls-1" d="M15.62,344.14a.94.94,0,0,0-.85,0"/></g><g id="ARC-16" data-name="ARC"><path class="cls-1" d="M16.7,347.45a.91.91,0,0,0,.4-.75"/></g><g id="LINE-87" data-name="LINE"><line class="cls-1" x1="15.94" y1="345.88" x2="15.94" y2="346.48"/></g><g id="LINE-88" data-name="LINE"><line class="cls-1" x1="15.5" y1="345.32" x2="15.94" y2="345.88"/></g><g id="LINE-89" data-name="LINE"><line class="cls-1" x1="15.05" y1="345.36" x2="15.5" y2="345.32"/></g><g id="LINE-90" data-name="LINE"><line class="cls-1" x1="15.05" y1="345.96" x2="15.05" y2="345.36"/></g><g id="LINE-91" data-name="LINE"><line class="cls-1" x1="15.5" y1="346.52" x2="15.05" y2="345.96"/></g><g id="LINE-92" data-name="LINE"><line class="cls-1" x1="15.94" y1="346.48" x2="15.5" y2="346.52"/></g><g id="ARC-17" data-name="ARC"><path class="cls-1" d="M15.81,345.93l.13.14"/></g><g id="ARC-18" data-name="ARC"><path class="cls-1" d="M15.59,345.44a1,1,0,0,0,.22.49"/></g><g id="LINE-93" data-name="LINE"><line class="cls-1" x1="15.94" y1="346.26" x2="15.5" y2="346.52"/></g><g id="LINE-94" data-name="LINE"><line class="cls-1" x1="15.59" y1="345.65" x2="15.59" y2="345.43"/></g><g id="LINE-95" data-name="LINE"><line class="cls-1" x1="15.59" y1="345.65" x2="15.05" y2="345.96"/></g><g id="LINE-96" data-name="LINE"><line class="cls-1" x1="15.81" y1="345.93" x2="15.59" y2="345.65"/></g><g id="LINE-97" data-name="LINE"><line class="cls-1" x1="15.94" y1="346.1" x2="15.81" y2="345.93"/></g><g id="LINE-98" data-name="LINE"><line class="cls-1" x1="15.94" y1="370.72" x2="15.94" y2="371.32"/></g><g id="LINE-99" data-name="LINE"><line class="cls-1" x1="15.5" y1="370.17" x2="15.94" y2="370.72"/></g><g id="LINE-100" data-name="LINE"><line class="cls-1" x1="15.05" y1="370.21" x2="15.5" y2="370.17"/></g><g id="LINE-101" data-name="LINE"><line class="cls-1" x1="15.05" y1="370.8" x2="15.05" y2="370.21"/></g><g id="LINE-102" data-name="LINE"><line class="cls-1" x1="15.5" y1="371.36" x2="15.05" y2="370.8"/></g><g id="LINE-103" data-name="LINE"><line class="cls-1" x1="15.94" y1="371.32" x2="15.5" y2="371.36"/></g><g id="LWPOLYLINE-12" data-name="LWPOLYLINE"><polyline class="cls-1" points="16.86 371.55 16.83 371.2 16.74 370.82 16.58 370.44 16.38 370.07 16.14 369.74 15.86 369.46 15.57 369.23 15.28 369.08 14.99 369.01 14.73 369.02 14.5 369.11 14.32 369.28 14.2 369.51 14.14 369.81 14.14 370.15 14.2 370.52 14.32 370.9 14.5 371.28 14.73 371.63 14.99 371.94 15.28 372.19 15.57 372.38 15.86 372.5 16.14 372.53 16.38 372.48 16.58 372.35 16.74 372.14 16.83 371.87 16.86 371.55"/></g><g id="ARC-19" data-name="ARC"><path class="cls-1" d="M15.62,369a.94.94,0,0,0-.85,0"/></g><g id="ARC-20" data-name="ARC"><path class="cls-1" d="M16.7,372.3a.91.91,0,0,0,.4-.75"/></g><g id="ARC-21" data-name="ARC"><path class="cls-1" d="M15.81,370.77l.13.14"/></g><g id="ARC-22" data-name="ARC"><path class="cls-1" d="M15.59,370.29a1,1,0,0,0,.22.49"/></g><g id="LINE-104" data-name="LINE"><line class="cls-1" x1="15.94" y1="371.1" x2="15.5" y2="371.36"/></g><g id="LINE-105" data-name="LINE"><line class="cls-1" x1="15.59" y1="370.49" x2="15.59" y2="370.28"/></g><g id="LINE-106" data-name="LINE"><line class="cls-1" x1="15.59" y1="370.49" x2="15.05" y2="370.8"/></g><g id="LINE-107" data-name="LINE"><line class="cls-1" x1="15.81" y1="370.77" x2="15.59" y2="370.49"/></g><g id="LINE-108" data-name="LINE"><line class="cls-1" x1="15.94" y1="370.94" x2="15.81" y2="370.77"/></g><g id="LWPOLYLINE-13" data-name="LWPOLYLINE"><polyline class="cls-1" points="8.97 317.31 8.94 316.95 8.85 316.57 8.7 316.19 8.49 315.83 8.25 315.5 7.97 315.21 7.68 314.99 7.39 314.84 7.1 314.76 6.84 314.77 6.62 314.86 6.44 315.03 6.31 315.27 6.25 315.57 6.25 315.91 6.31 316.28 6.44 316.66 6.62 317.03 6.84 317.38 7.1 317.69 7.39 317.95 7.68 318.14 7.97 318.25 8.25 318.29 8.49 318.24 8.7 318.1 8.85 317.9 8.94 317.63 8.97 317.31"/></g><g id="ARC-23" data-name="ARC"><path class="cls-1" d="M7.73,314.74a.94.94,0,0,0-.85,0"/></g><g id="ARC-24" data-name="ARC"><path class="cls-1" d="M8.81,318.06a.91.91,0,0,0,.4-.75"/></g><g id="LINE-109" data-name="LINE"><line class="cls-1" x1="8.06" y1="316.48" x2="8.06" y2="317.08"/></g><g id="LINE-110" data-name="LINE"><line class="cls-1" x1="7.61" y1="315.92" x2="8.06" y2="316.48"/></g><g id="LINE-111" data-name="LINE"><line class="cls-1" x1="7.16" y1="315.96" x2="7.61" y2="315.92"/></g><g id="LINE-112" data-name="LINE"><line class="cls-1" x1="7.16" y1="316.56" x2="7.16" y2="315.96"/></g><g id="LINE-113" data-name="LINE"><line class="cls-1" x1="7.61" y1="317.12" x2="7.16" y2="316.56"/></g><g id="LINE-114" data-name="LINE"><line class="cls-1" x1="8.06" y1="317.08" x2="7.61" y2="317.12"/></g><g id="ARC-25" data-name="ARC"><path class="cls-1" d="M7.92,316.53l.13.14"/></g><g id="ARC-26" data-name="ARC"><path class="cls-1" d="M7.7,316a1,1,0,0,0,.22.49"/></g><g id="LINE-115" data-name="LINE"><line class="cls-1" x1="8.06" y1="316.86" x2="7.61" y2="317.12"/></g><g id="LINE-116" data-name="LINE"><line class="cls-1" x1="7.7" y1="316.25" x2="7.7" y2="316.04"/></g><g id="LINE-117" data-name="LINE"><line class="cls-1" x1="7.7" y1="316.25" x2="7.16" y2="316.56"/></g><g id="LINE-118" data-name="LINE"><line class="cls-1" x1="7.92" y1="316.53" x2="7.7" y2="316.25"/></g><g id="LINE-119" data-name="LINE"><line class="cls-1" x1="8.06" y1="316.7" x2="7.92" y2="316.53"/></g><g id="LWPOLYLINE-14" data-name="LWPOLYLINE"><polyline class="cls-1" points="157.26 238.55 157.29 238.35 157.38 238.2 157.53 238.13 157.71 238.15 157.9 238.24 158.09 238.41 158.25 238.62 158.37 238.87 158.44 239.12 158.44 239.35 158.37 239.52 158.25 239.63 158.09 239.66 157.9 239.61 157.71 239.47 157.53 239.28 157.38 239.05 157.29 238.79 157.26 238.55"/></g><g id="LWPOLYLINE-15" data-name="LWPOLYLINE"><polyline class="cls-1" points="157.26 238.41 157.29 238.18 157.38 238.01 157.53 237.92 157.71 237.9 157.92 237.97 158.13 238.11 158.33 238.31 158.5 238.56 158.62 238.84 158.69 239.11 158.69 239.36 158.62 239.56 158.5 239.69 158.33 239.75 158.13 239.72 157.98 239.65"/></g><g id="ELLIPSE"><path class="cls-1" d="M163.61,189.95a1.43,1.43,0,0,0,.84-1.17"/></g><g id="LINE-120" data-name="LINE"><line class="cls-1" x1="159.5" y1="192.32" x2="163.61" y2="189.95"/></g><g id="LINE-121" data-name="LINE"><line class="cls-1" x1="164.45" y1="188.77" x2="164.45" y2="41.38"/></g><g id="ARC-27" data-name="ARC"><path class="cls-1" d="M164.45,41.38a.73.73,0,0,0,.36-.09"/></g><g id="LWPOLYLINE-16" data-name="LWPOLYLINE"><polyline class="cls-1" points="166.53 39.89 166.58 39.98 166.61 40.07 166.63 40.16 166.64 40.24"/></g><g id="LINE-122" data-name="LINE"><line class="cls-1" x1="166.64" y1="40.24" x2="164.81" y2="41.3"/></g><g id="ARC-28" data-name="ARC"><path class="cls-1" d="M159.14,192.24a.73.73,0,0,0,.36.09"/></g><g id="ARC-29" data-name="ARC"><path class="cls-1" d="M164.45,188.77a.73.73,0,0,0,.36-.09"/></g><g id="LINE-123" data-name="LINE"><line class="cls-1" x1="164.81" y1="41.3" x2="164.81" y2="188.69"/></g><g id="LINE-124" data-name="LINE"><line class="cls-1" x1="156.96" y1="193.5" x2="159.14" y2="192.24"/></g><g id="ELLIPSE-2" data-name="ELLIPSE"><path class="cls-1" d="M157,193.5a1,1,0,0,0-.51.88"/></g><g id="LINE-125" data-name="LINE"><line class="cls-1" x1="156.45" y1="222.97" x2="156.45" y2="194.38"/></g><g id="LINE-126" data-name="LINE"><line class="cls-1" x1="144.2" y1="187.3" x2="144.2" y2="215.9"/></g><g id="ELLIPSE-3" data-name="ELLIPSE"><path class="cls-1" d="M144.2,187.3a3.36,3.36,0,0,0-.51-1.46"/></g><g id="LINE-127" data-name="LINE"><line class="cls-1" x1="141.51" y1="182.06" x2="143.69" y2="185.84"/></g><g id="LINE-128" data-name="LINE"><line class="cls-1" x1="149.6" y1="216.22" x2="149.6" y2="217.26"/></g><g id="LWPOLYLINE-17" data-name="LWPOLYLINE"><polyline class="cls-1" points="149.6 217.26 149.64 217.54 149.74 217.83 149.9 218.1 150.1 218.33 150.32 218.5 150.54 218.59 150.74 218.59 150.9 218.5 151 218.32 151.04 218.09"/></g><g id="LINE-129" data-name="LINE"><line class="cls-1" x1="151.04" y1="218.09" x2="151.04" y2="217.05"/></g><g id="LWPOLYLINE-18" data-name="LWPOLYLINE"><polyline class="cls-1" points="151.04 217.05 151 216.78 150.9 216.49 150.74 216.21 150.54 215.98 150.32 215.81 150.1 215.72 149.9 215.73 149.74 215.82 149.64 215.99 149.6 216.22"/></g><g id="LINE-130" data-name="LINE"><line class="cls-1" x1="149.6" y1="207.94" x2="149.6" y2="208.98"/></g><g id="LWPOLYLINE-19" data-name="LWPOLYLINE"><polyline class="cls-1" points="149.6 208.98 149.64 209.25 149.74 209.54 149.9 209.82 150.1 210.05 150.32 210.22 150.54 210.31 150.74 210.31 150.9 210.21 151 210.04 151.04 209.81"/></g><g id="LINE-131" data-name="LINE"><line class="cls-1" x1="151.04" y1="209.81" x2="151.04" y2="208.77"/></g><g id="LWPOLYLINE-20" data-name="LWPOLYLINE"><polyline class="cls-1" points="151.04 208.77 151 208.5 150.9 208.21 150.74 207.93 150.54 207.7 150.32 207.53 150.1 207.44 149.9 207.44 149.74 207.54 149.64 207.71 149.6 207.94"/></g><g id="LINE-132" data-name="LINE"><line class="cls-1" x1="151.04" y1="101.94" x2="151.04" y2="100.9"/></g><g id="LWPOLYLINE-21" data-name="LWPOLYLINE"><polyline class="cls-1" points="151.04 100.91 151 100.63 150.9 100.34 150.74 100.06 150.54 99.83 150.32 99.66 150.1 99.58 149.9 99.58 149.74 99.67 149.64 99.84 149.6 100.08"/></g><g id="LINE-133" data-name="LINE"><line class="cls-1" x1="149.6" y1="100.08" x2="149.6" y2="101.11"/></g><g id="LWPOLYLINE-22" data-name="LWPOLYLINE"><polyline class="cls-1" points="149.6 101.11 149.64 101.39 149.74 101.68 149.9 101.95 150.1 102.19 150.32 102.35 150.54 102.44 150.74 102.44 150.9 102.35 151 102.18 151.04 101.94"/></g><g id="LINE-134" data-name="LINE"><line class="cls-1" x1="151.04" y1="110.22" x2="151.04" y2="109.19"/></g><g id="LWPOLYLINE-23" data-name="LWPOLYLINE"><polyline class="cls-1" points="151.04 109.19 151 108.91 150.9 108.62 150.74 108.35 150.54 108.11 150.32 107.94 150.1 107.86 149.9 107.86 149.74 107.95 149.64 108.12 149.6 108.36"/></g><g id="LINE-135" data-name="LINE"><line class="cls-1" x1="149.6" y1="108.36" x2="149.6" y2="109.39"/></g><g id="LWPOLYLINE-24" data-name="LWPOLYLINE"><polyline class="cls-1" points="149.6 109.39 149.64 109.67 149.74 109.96 149.9 110.23 150.1 110.47 150.32 110.64 150.54 110.72 150.74 110.72 150.9 110.63 151 110.46 151.04 110.22"/></g><g id="LINE-136" data-name="LINE"><line class="cls-1" x1="151.04" y1="158.46" x2="151.04" y2="157.43"/></g><g id="LWPOLYLINE-25" data-name="LWPOLYLINE"><polyline class="cls-1" points="151.04 157.43 151 157.15 150.9 156.86 150.74 156.59 150.54 156.35 150.32 156.18 150.1 156.1 149.9 156.1 149.74 156.19 149.64 156.36 149.6 156.6"/></g><g id="LINE-137" data-name="LINE"><line class="cls-1" x1="149.6" y1="156.6" x2="149.6" y2="157.63"/></g><g id="LWPOLYLINE-26" data-name="LWPOLYLINE"><polyline class="cls-1" points="149.6 157.63 149.64 157.91 149.74 158.2 149.9 158.47 150.1 158.71 150.32 158.88 150.54 158.96 150.74 158.96 150.9 158.87 151 158.7 151.04 158.46"/></g><g id="LINE-138" data-name="LINE"><line class="cls-1" x1="151.04" y1="166.74" x2="151.04" y2="165.71"/></g><g id="LWPOLYLINE-27" data-name="LWPOLYLINE"><polyline class="cls-1" points="151.04 165.71 151 165.43 150.9 165.14 150.74 164.87 150.54 164.63 150.32 164.47 150.1 164.38 149.9 164.38 149.74 164.47 149.64 164.64 149.6 164.88"/></g><g id="LINE-139" data-name="LINE"><line class="cls-1" x1="149.6" y1="164.88" x2="149.6" y2="165.91"/></g><g id="LWPOLYLINE-28" data-name="LWPOLYLINE"><polyline class="cls-1" points="149.6 165.91 149.64 166.19 149.74 166.48 149.9 166.75 150.1 166.99 150.32 167.16 150.54 167.24 150.74 167.24 150.9 167.15 151 166.98 151.04 166.74"/></g><g id="LINE-140" data-name="LINE"><line class="cls-1" x1="151.04" y1="191.95" x2="151.04" y2="191.02"/></g><g id="LWPOLYLINE-29" data-name="LWPOLYLINE"><polyline class="cls-1" points="151.04 191.02 151 190.74 150.9 190.45 150.74 190.18 150.54 189.94 150.32 189.78 150.1 189.69 149.9 189.69 149.74 189.78 149.64 189.95 149.6 190.19"/></g><g id="LINE-141" data-name="LINE"><line class="cls-1" x1="149.6" y1="190.19" x2="149.6" y2="191.12"/></g><g id="LWPOLYLINE-30" data-name="LWPOLYLINE"><polyline class="cls-1" points="149.6 191.12 149.64 191.4 149.74 191.69 149.9 191.96 150.1 192.19 150.32 192.36 150.54 192.45 150.74 192.45 150.9 192.36 151 192.19 151.04 191.95"/></g><g id="LINE-142" data-name="LINE"><line class="cls-1" x1="151.04" y1="200.28" x2="151.04" y2="199.25"/></g><g id="LWPOLYLINE-31" data-name="LWPOLYLINE"><polyline class="cls-1" points="151.04 199.25 151 198.97 150.9 198.68 150.74 198.41 150.54 198.17 150.32 198.01 150.1 197.92 149.9 197.92 149.74 198.01 149.64 198.18 149.6 198.42"/></g><g id="LINE-143" data-name="LINE"><line class="cls-1" x1="149.6" y1="198.42" x2="149.6" y2="199.45"/></g><g id="LWPOLYLINE-32" data-name="LWPOLYLINE"><polyline class="cls-1" points="149.6 199.46 149.64 199.73 149.74 200.02 149.9 200.29 150.1 200.53 150.32 200.7 150.54 200.78 150.74 200.78 150.9 200.69 151 200.52 151.04 200.28"/></g><g id="LINE-144" data-name="LINE"><line class="cls-1" x1="164.81" y1="188.69" x2="166.64" y2="187.64"/></g><g id="LINE-145" data-name="LINE"><line class="cls-1" x1="166.64" y1="187.64" x2="166.64" y2="40.24"/></g><g id="ARC-30" data-name="ARC"><path class="cls-1" d="M141.36,181.85a.26.26,0,0,0,.15.21"/></g><g id="LINE-146" data-name="LINE"><line class="cls-1" x1="141.36" y1="181.85" x2="141.36" y2="54.42"/></g><g id="LINE-147" data-name="LINE"><line class="cls-1" x1="163.87" y1="190.09" x2="159.75" y2="192.47"/></g><g id="LWPOLYLINE-33" data-name="LWPOLYLINE"><polyline class="cls-1" points="159.75 192.47 159.73 192.48 159.7 192.48 159.68 192.47 159.64 192.45 159.61 192.43 159.57 192.4 159.53 192.37 159.5 192.32"/></g><g id="LWPOLYLINE-34" data-name="LWPOLYLINE"><polyline class="cls-1" points="163.87 190.09 163.85 190.1 163.82 190.1 163.79 190.09 163.76 190.07 163.73 190.05 163.69 190.02 163.65 189.99 163.62 189.94"/></g><g id="LINE-148" data-name="LINE"><line class="cls-1" x1="160.44" y1="192.07" x2="163.16" y2="190.5"/></g><g id="ELLIPSE-4" data-name="ELLIPSE"><path class="cls-1" d="M160.44,192.07l-.72.41"/></g><g id="LINE-149" data-name="LINE"><line class="cls-1" x1="157.57" y1="193.73" x2="159.72" y2="192.49"/></g><g id="LINE-150" data-name="LINE"><line class="cls-1" x1="159.75" y1="192.47" x2="157.57" y2="193.73"/></g><g id="LINE-151" data-name="LINE"><line class="cls-1" x1="163.87" y1="190.09" x2="166.11" y2="188.8"/></g><g id="LINE-152" data-name="LINE"><line class="cls-1" x1="166.11" y1="188.8" x2="163.16" y2="190.5"/></g><g id="ELLIPSE-5" data-name="ELLIPSE"><path class="cls-1" d="M163.87,190.09a1.66,1.66,0,0,0,.95-1.4"/></g><g id="ARC-31" data-name="ARC"><path class="cls-1" d="M166.11,188.8a1.28,1.28,0,0,0,.53-1.16"/></g><g id="ARC-32" data-name="ARC"><path class="cls-1" d="M159.14,192.24a.47.47,0,0,0,.61.23"/></g><g id="ARC-33" data-name="ARC"><path class="cls-1" d="M157,193.5a.47.47,0,0,0,.61.23"/></g><g id="LWPOLYLINE-35" data-name="LWPOLYLINE"><polyline class="cls-1" points="159.72 192.49 159.74 192.48 159.77 192.48 159.79 192.49 159.83 192.5 159.86 192.53 159.9 192.56 159.93 192.59 159.97 192.63"/></g><g id="LINE-153" data-name="LINE"><line class="cls-1" x1="159.97" y1="192.63" x2="156.81" y2="194.46"/></g><g id="ELLIPSE-6" data-name="ELLIPSE"><path class="cls-1" d="M157.57,193.73a1.84,1.84,0,0,0-.76.73"/></g><g id="LINE-154" data-name="LINE"><line class="cls-1" x1="156.81" y1="194.46" x2="156.81" y2="223.06"/></g><g id="LINE-155" data-name="LINE"><line class="cls-1" x1="159.97" y1="223.06" x2="159.97" y2="192.63"/></g><g id="LINE-156" data-name="LINE"><line class="cls-1" x1="156.81" y1="223.06" x2="159.97" y2="223.06"/></g><g id="ARC-34" data-name="ARC"><path class="cls-1" d="M160.44,192.07a.26.26,0,0,0-.11.23"/></g><g id="ELLIPSE-7" data-name="ELLIPSE"><path class="cls-1" d="M160.33,192.31a1.63,1.63,0,0,0-.36.33"/></g><g id="LINE-157" data-name="LINE"><line class="cls-1" x1="163.05" y1="190.74" x2="160.33" y2="192.31"/></g><g id="ARC-35" data-name="ARC"><path class="cls-1" d="M163.16,190.5a.26.26,0,0,0-.11.23"/></g><g id="LINE-158" data-name="LINE"><line class="cls-1" x1="160.33" y1="192.31" x2="160.33" y2="222.97"/></g><g id="ARC-36" data-name="ARC"><path class="cls-1" d="M160,223.06a.73.73,0,0,0,.36-.09"/></g><g id="LINE-159" data-name="LINE"><line class="cls-1" x1="160.33" y1="222.97" x2="163.05" y2="221.4"/></g><g id="LINE-160" data-name="LINE"><line class="cls-1" x1="163.05" y1="190.74" x2="163.05" y2="221.4"/></g><g id="ARC-37" data-name="ARC"><path class="cls-1" d="M156.45,194.38a.73.73,0,0,0,.36.09"/></g><g id="ARC-38" data-name="ARC"><path class="cls-1" d="M156.45,223a.73.73,0,0,0,.36.09"/></g><g id="ARC-39" data-name="ARC"><path class="cls-1" d="M144,187.1a.26.26,0,0,0,.15.21"/></g><g id="ARC-40" data-name="ARC"><path class="cls-1" d="M144,215.69a.26.26,0,0,0,.15.21"/></g><g id="LINE-161" data-name="LINE"><line class="cls-1" x1="144.05" y1="215.69" x2="144.05" y2="187.1"/></g><g id="LINE-162" data-name="LINE"><line class="cls-1" x1="26.82" y1="120.96" x2="25" y2="122.01"/></g><g id="LINE-163" data-name="LINE"><line class="cls-1" x1="25" y1="122.01" x2="25" y2="269.4"/></g><g id="ARC-41" data-name="ARC"><path class="cls-1" d="M24.47,270.56A1.28,1.28,0,0,0,25,269.4"/></g><g id="ARC-42" data-name="ARC"><path class="cls-1" d="M21.52,272.27a.26.26,0,0,0-.11.23"/></g><g id="LINE-164" data-name="LINE"><line class="cls-1" x1="21.41" y1="303.17" x2="21.41" y2="272.5"/></g><g id="LINE-165" data-name="LINE"><line class="cls-1" x1="26.82" y1="268.35" x2="25" y2="269.4"/></g><g id="LINE-166" data-name="LINE"><line class="cls-1" x1="26.82" y1="268.35" x2="26.82" y2="120.96"/></g><g id="ARC-43" data-name="ARC"><path class="cls-1" d="M26.82,121a.26.26,0,0,0,.15-.21"/></g><g id="LINE-167" data-name="LINE"><line class="cls-1" x1="26.97" y1="120.46" x2="26.97" y2="120.75"/></g><g id="ARC-44" data-name="ARC"><path class="cls-1" d="M26.82,268.35a.26.26,0,0,0,.15-.21"/></g><g id="LINE-168" data-name="LINE"><line class="cls-1" x1="26.97" y1="120.75" x2="26.97" y2="268.14"/></g><g id="ELLIPSE-8" data-name="ELLIPSE"><path class="cls-1" d="M26.72,269.27c.07,0,.11-.37.11-.92"/></g><g id="LINE-169" data-name="LINE"><line class="cls-1" x1="26.72" y1="269.27" x2="24.47" y2="270.56"/></g><g id="LINE-170" data-name="LINE"><line class="cls-1" x1="26.72" y1="269.27" x2="26.72" y2="269.27"/></g><g id="LINE-171" data-name="LINE"><line class="cls-1" x1="24.53" y1="270.53" x2="26.72" y2="269.27"/></g><g id="LINE-172" data-name="LINE"><line class="cls-1" x1="24.53" y1="270.53" x2="24.53" y2="270.53"/></g><g id="LINE-173" data-name="LINE"><line class="cls-1" x1="24.53" y1="270.53" x2="24.24" y2="270.7"/></g><g id="ARC-45" data-name="ARC"><path class="cls-1" d="M26.72,269.27a.51.51,0,0,0,.25-.44"/></g><g id="LWPOLYLINE-36" data-name="LWPOLYLINE"><polyline class="cls-1" points="26.97 268.14 26.97 268.43 26.97 268.65 26.97 268.78 26.97 268.83"/></g><g id="ARC-46" data-name="ARC"><path class="cls-1" d="M26.72,269.27a.51.51,0,0,0,.25-.44"/></g><g id="LINE-174" data-name="LINE"><line class="cls-1" x1="26.97" y1="268.83" x2="26.97" y2="268.83"/></g><g id="ARC-47" data-name="ARC"><path class="cls-1" d="M24.24,270.7a.26.26,0,0,0-.11.23"/></g><g id="LINE-175" data-name="LINE"><line class="cls-1" x1="24.13" y1="270.93" x2="21.41" y2="272.5"/></g><g id="LINE-176" data-name="LINE"><line class="cls-1" x1="24.13" y1="301.6" x2="24.13" y2="270.93"/></g><g id="LINE-177" data-name="LINE"><line class="cls-1" x1="21.41" y1="303.17" x2="24.13" y2="301.6"/></g><g id="ARC-48" data-name="ARC"><path class="cls-1" d="M24.53,270.53a.51.51,0,0,0-.25.44"/></g><g id="ELLIPSE-9" data-name="ELLIPSE"><path class="cls-1" d="M24.28,271c0-.08-.05-.09-.15,0"/></g><g id="LINE-178" data-name="LINE"><line class="cls-1" x1="24.28" y1="270.97" x2="24.28" y2="301.39"/></g><g id="ARC-49" data-name="ARC"><path class="cls-1" d="M24.13,301.6a.26.26,0,0,0,.15-.21"/></g><g id="ELLIPSE-10" data-name="ELLIPSE"><path class="cls-1" d="M24.53,270.53a.51.51,0,0,0-.25.44"/></g><g id="LINE-179" data-name="LINE"><line class="cls-1" x1="24.28" y1="122.01" x2="167.35" y2="39.41"/></g><g id="LINE-180" data-name="LINE"><line class="cls-1" x1="24.28" y1="107.52" x2="24.28" y2="122.01"/></g><g id="LWPOLYLINE-37" data-name="LWPOLYLINE"><polyline class="cls-1" points="38.45 82.98 37.48 83.58 36.52 84.25 35.56 84.99 34.62 85.8 33.7 86.67 32.8 87.59 31.93 88.58 31.09 89.61 30.28 90.69 29.51 91.81 28.78 92.97 28.09 94.15 27.46 95.36 26.87 96.59 26.34 97.83 25.87 99.08 25.45 100.32 25.1 101.57 24.81 102.8 24.58 104.02 24.41 105.21 24.31 106.38 24.28 107.52"/></g><g id="LINE-181" data-name="LINE"><line class="cls-1" x1="153.19" y1="16.74" x2="38.44" y2="82.98"/></g><g id="LWPOLYLINE-38" data-name="LWPOLYLINE"><polyline class="cls-1" points="167.35 24.92 167.32 23.82 167.22 22.77 167.06 21.77 166.83 20.81 166.54 19.92 166.18 19.08 165.77 18.31 165.29 17.61 164.76 16.99 164.18 16.43 163.54 15.96 162.86 15.56 162.13 15.25 161.36 15.02 160.55 14.88 159.71 14.81 158.83 14.84 157.93 14.95 157.01 15.14 156.07 15.42 155.12 15.78 154.16 16.22 153.19 16.74"/></g><g id="LINE-182" data-name="LINE"><line class="cls-1" x1="167.35" y1="39.41" x2="167.35" y2="24.92"/></g><g id="LINE-183" data-name="LINE"><line class="cls-1" x1="24.28" y1="122.01" x2="24.1" y2="121.91"/></g><g id="LINE-184" data-name="LINE"><line class="cls-1" x1="163.05" y1="190.74" x2="163.05" y2="224.52"/></g><g id="LINE-185" data-name="LINE"><line class="cls-1" x1="150.71" y1="157.69" x2="151.04" y2="157.88"/></g><g id="LINE-186" data-name="LINE"><line class="cls-1" x1="24.1" y1="111.76" x2="23.74" y2="111.97"/></g><g id="ARC-50" data-name="ARC"><path class="cls-1" d="M22.67,112a1.17,1.17,0,0,0,1.08,0"/></g><g id="LINE-187" data-name="LINE"><line class="cls-1" x1="0.44" y1="99.13" x2="22.67" y2="111.97"/></g><g id="ARC-51" data-name="ARC"><path class="cls-1" d="M.21,98.82a.38.38,0,0,0,.22.31"/></g><g id="LINE-188" data-name="LINE"><line class="cls-1" x1="23.74" y1="111.97" x2="23.74" y2="270.13"/></g><g id="ARC-52" data-name="ARC"><path class="cls-1" d="M22.67,270.13a1.17,1.17,0,0,0,1.08,0"/></g><g id="LINE-189" data-name="LINE"><line class="cls-1" x1="22.67" y1="270.13" x2="22.67" y2="111.97"/></g><g id="LINE-190" data-name="LINE"><line class="cls-1" x1="19.08" y1="272.8" x2="22.3" y2="270.94"/></g><g id="LINE-191" data-name="LINE"><line class="cls-1" x1="19.08" y1="374.65" x2="19.08" y2="272.8"/></g><g id="LINE-192" data-name="LINE"><line class="cls-1" x1="15.81" y1="376.54" x2="19.08" y2="374.65"/></g><g id="LINE-193" data-name="LINE"><line class="cls-1" x1="7.29" y1="371.62" x2="15.81" y2="376.54"/></g><g id="LINE-194" data-name="LINE"><line class="cls-1" x1="4.02" y1="365.95" x2="7.29" y2="371.62"/></g><g id="LINE-195" data-name="LINE"><line class="cls-1" x1="4.02" y1="264.1" x2="4.02" y2="365.95"/></g><g id="LINE-196" data-name="LINE"><line class="cls-1" x1="0.8" y1="258.53" x2="4.02" y2="264.1"/></g><g id="ARC-53" data-name="ARC"><path class="cls-1" d="M.44,257.29a2.56,2.56,0,0,0,.37,1.24"/></g><g id="LINE-197" data-name="LINE"><line class="cls-1" x1="0.44" y1="99.13" x2="0.44" y2="257.29"/></g><g id="ARC-54" data-name="ARC"><path class="cls-1" d="M22.3,270.94a.89.89,0,0,0,.37-.81"/></g><g id="LWPOLYLINE-39" data-name="LWPOLYLINE"><polyline class="cls-1" points="9.21 367.14 9.18 366.75 9.08 366.33 8.93 365.91 8.71 365.5 8.46 365.13 8.16 364.79 7.85 364.52 7.53 364.31 7.2 364.18 6.9 364.14 6.62 364.18 6.39 364.3 6.2 364.5 6.07 364.77 6.01 365.1 6.01 365.48 6.07 365.88 6.2 366.3 6.39 366.71 6.62 367.11 6.9 367.47 7.2 367.77 7.53 368.02 7.85 368.19 8.16 368.27 8.46 368.28 8.71 368.19 8.93 368.03 9.08 367.79 9.18 367.49 9.21 367.14"/></g><g id="LWPOLYLINE-40" data-name="LWPOLYLINE"><polyline class="cls-1" points="17.1 371.69 17.07 371.3 16.97 370.88 16.81 370.47 16.6 370.06 16.34 369.68 16.05 369.35 15.74 369.07 15.41 368.87 15.09 368.74 14.79 368.69 14.51 368.73 14.28 368.85 14.09 369.05 13.96 369.32 13.9 369.65 13.9 370.03 13.96 370.44 14.09 370.85 14.28 371.27 14.51 371.66 14.79 372.02 15.09 372.33 15.41 372.57 15.74 372.74 16.05 372.83 16.34 372.83 16.6 372.75 16.81 372.59 16.97 372.35 17.07 372.05 17.1 371.69"/></g><g id="LWPOLYLINE-41" data-name="LWPOLYLINE"><polyline class="cls-1" points="9.21 317.45 9.18 317.06 9.08 316.64 8.93 316.22 8.71 315.82 8.46 315.44 8.16 315.1 7.85 314.83 7.53 314.62 7.2 314.49 6.9 314.45 6.62 314.49 6.39 314.61 6.2 314.81 6.07 315.08 6.01 315.41 6.01 315.79 6.07 316.19 6.2 316.61 6.39 317.03 6.62 317.42 6.9 317.78 7.2 318.08 7.53 318.33 7.85 318.5 8.16 318.58 8.46 318.59 8.71 318.5 8.93 318.34 9.08 318.11 9.18 317.8 9.21 317.45"/></g><g id="LWPOLYLINE-42" data-name="LWPOLYLINE"><polyline class="cls-1" points="17.1 322 17.07 321.61 16.97 321.2 16.81 320.78 16.6 320.37 16.34 319.99 16.05 319.66 15.74 319.38 15.41 319.18 15.09 319.05 14.79 319 14.51 319.04 14.28 319.16 14.09 319.37 13.96 319.64 13.9 319.97 13.9 320.34 13.96 320.75 14.09 321.17 14.28 321.58 14.51 321.98 14.79 322.33 15.09 322.64 15.41 322.88 15.74 323.05 16.05 323.14 16.34 323.14 16.6 323.06 16.81 322.9 16.97 322.66 17.07 322.36 17.1 322"/></g><g id="LWPOLYLINE-43" data-name="LWPOLYLINE"><polyline class="cls-1" points="17.1 346.85 17.07 346.45 16.97 346.04 16.81 345.62 16.6 345.21 16.34 344.84 16.05 344.5 15.74 344.23 15.41 344.02 15.09 343.89 14.79 343.85 14.51 343.89 14.28 344.01 14.09 344.21 13.96 344.48 13.9 344.81 13.9 345.19 13.96 345.59 14.09 346.01 14.28 346.43 14.51 346.82 14.79 347.18 15.09 347.48 15.41 347.73 15.74 347.89 16.05 347.98 16.34 347.99 16.6 347.9 16.81 347.74 16.97 347.5 17.07 347.2 17.1 346.85"/></g><g id="LINE-198" data-name="LINE"><line class="cls-1" x1="24.1" y1="111.76" x2="24.1" y2="122.11"/></g><g id="LINE-199" data-name="LINE"><line class="cls-1" x1="24.1" y1="122.11" x2="25" y2="121.59"/></g><g id="LINE-200" data-name="LINE"><line class="cls-1" x1="23.74" y1="270.13" x2="25" y2="269.4"/></g><g id="LINE-201" data-name="LINE"><line class="cls-1" x1="25" y1="121.59" x2="25" y2="269.4"/></g><g id="ARC-55" data-name="ARC"><path class="cls-1" d="M23.22,271.29a1.28,1.28,0,0,0,.53-1.16"/></g><g id="ARC-56" data-name="ARC"><path class="cls-1" d="M22.3,270.94a.7.7,0,0,0,.92.35"/></g><g id="LINE-202" data-name="LINE"><line class="cls-1" x1="24.47" y1="270.56" x2="23.22" y2="271.29"/></g><g id="ARC-57" data-name="ARC"><path class="cls-1" d="M24.47,270.56A1.28,1.28,0,0,0,25,269.4"/></g><g id="ELLIPSE-11" data-name="ELLIPSE"><path class="cls-1" d="M19.08,272.8a1,1,0,0,0,1.08.26"/></g><g id="LINE-203" data-name="LINE"><line class="cls-1" x1="23.22" y1="271.29" x2="20.16" y2="273.05"/></g><g id="LINE-204" data-name="LINE"><line class="cls-1" x1="20.16" y1="273.05" x2="21.41" y2="272.33"/></g><g id="LINE-205" data-name="LINE"><line class="cls-1" x1="24.47" y1="270.56" x2="21.41" y2="272.33"/></g><g id="LINE-206" data-name="LINE"><line class="cls-1" x1="20.16" y1="273.05" x2="20.16" y2="374.91"/></g><g id="ELLIPSE-12" data-name="ELLIPSE"><path class="cls-1" d="M19.08,374.65a1,1,0,0,0,1.08.26"/></g><g id="LINE-207" data-name="LINE"><line class="cls-1" x1="20.16" y1="374.91" x2="21.41" y2="374.18"/></g><g id="LINE-208" data-name="LINE"><line class="cls-1" x1="21.41" y1="374.18" x2="21.41" y2="272.33"/></g><g id="ELLIPSE-13" data-name="ELLIPSE"><path class="cls-1" d="M3.81,264s.1.08.21.09"/></g><g id="ELLIPSE-14" data-name="ELLIPSE"><path class="cls-1" d="M3.8,365.83c0,.07.08.11.22.13"/></g><g id="LINE-209" data-name="LINE"><line class="cls-1" x1="20.16" y1="374.91" x2="16.57" y2="376.98"/></g><g id="ELLIPSE-15" data-name="ELLIPSE"><path class="cls-1" d="M15.81,376.54c.12.41.46.61.76.44"/></g><g id="LINE-210" data-name="LINE"><line class="cls-1" x1="17.83" y1="376.25" x2="16.57" y2="376.98"/></g><g id="LINE-211" data-name="LINE"><line class="cls-1" x1="21.41" y1="374.18" x2="17.83" y2="376.25"/></g><g id="ELLIPSE-16" data-name="ELLIPSE"><path class="cls-1" d="M7.29,371.62c-.06.13-.06.22,0,.26"/></g><g id="LINE-212" data-name="LINE"><line class="cls-1" x1="163.05" y1="292.41" x2="163.05" y2="190.74"/></g><g id="LINE-213" data-name="LINE"><line class="cls-1" x1="159.47" y1="294.48" x2="163.05" y2="292.41"/></g><g id="LINE-214" data-name="LINE"><line class="cls-1" x1="150.5" y1="289.31" x2="159.47" y2="294.48"/></g><g id="LINE-215" data-name="LINE"><line class="cls-1" x1="146.92" y1="283.1" x2="150.5" y2="289.31"/></g><g id="LINE-216" data-name="LINE"><line class="cls-1" x1="146.92" y1="283.1" x2="146.91" y2="217.64"/></g><g id="LINE-217" data-name="LINE"><line class="cls-1" x1="166.64" y1="187.64" x2="166.64" y2="39.83"/></g><g id="LWPOLYLINE-44" data-name="LWPOLYLINE"><polyline class="cls-1" points="159.82 288.48 159.79 288.18 159.69 287.87 159.54 287.56 159.34 287.28 159.11 287.06 158.87 286.89 158.63 286.81 158.41 286.82 158.23 286.91 158.1 287.08 158.04 287.31"/></g><g id="LWPOLYLINE-45" data-name="LWPOLYLINE"><polyline class="cls-1" points="159.05 289.06 159.11 289.08 159.34 289.12 159.54 289.07 159.69 288.94 159.79 288.74 159.82 288.48"/></g><g id="LWPOLYLINE-46" data-name="LWPOLYLINE"><polyline class="cls-1" points="151.94 283.93 151.9 283.63 151.81 283.31 151.65 283.01 151.45 282.73 151.22 282.5 150.98 282.34 150.74 282.26 150.52 282.26 150.34 282.35 150.22 282.52 150.15 282.75"/></g><g id="LWPOLYLINE-47" data-name="LWPOLYLINE"><polyline class="cls-1" points="151.17 284.51 151.22 284.53 151.45 284.57 151.65 284.52 151.81 284.39 151.9 284.19 151.94 283.93"/></g><g id="LWPOLYLINE-48" data-name="LWPOLYLINE"><polyline class="cls-1" points="159.82 238.79 159.79 238.49 159.69 238.18 159.54 237.87 159.34 237.59 159.11 237.37 158.87 237.21 158.63 237.13 158.41 237.13 158.23 237.22 158.1 237.39 158.04 237.62"/></g><g id="LWPOLYLINE-49" data-name="LWPOLYLINE"><polyline class="cls-1" points="159.05 239.37 159.11 239.39 159.34 239.43 159.54 239.38 159.69 239.25 159.79 239.05 159.82 238.79"/></g><g id="LWPOLYLINE-50" data-name="LWPOLYLINE"><polyline class="cls-1" points="151.94 234.24 151.9 233.94 151.81 233.63 151.65 233.32 151.45 233.04 151.22 232.81 150.98 232.65 150.74 232.57 150.52 232.58 150.34 232.67 150.22 232.83 150.15 233.06"/></g><g id="LWPOLYLINE-51" data-name="LWPOLYLINE"><polyline class="cls-1" points="151.17 234.82 151.22 234.84 151.45 234.88 151.65 234.83 151.81 234.7 151.9 234.5 151.94 234.24"/></g><g id="LWPOLYLINE-52" data-name="LWPOLYLINE"><polyline class="cls-1" points="151.94 259.08 151.9 258.78 151.81 258.47 151.65 258.16 151.45 257.88 151.22 257.66 150.98 257.5 150.74 257.42 150.52 257.42 150.34 257.51 150.22 257.68 150.15 257.91"/></g><g id="LWPOLYLINE-53" data-name="LWPOLYLINE"><polyline class="cls-1" points="151.17 259.66 151.22 259.68 151.45 259.72 151.65 259.68 151.81 259.55 151.9 259.34 151.94 259.08"/></g><g id="LINE-218" data-name="LINE"><line class="cls-1" x1="166.64" y1="39.83" x2="167.53" y2="39.31"/></g><g id="LINE-219" data-name="LINE"><line class="cls-1" x1="167.53" y1="39.31" x2="167.53" y2="28.96"/></g><g id="LINE-220" data-name="LINE"><line class="cls-1" x1="167.53" y1="28.96" x2="167.89" y2="28.75"/></g><g id="LINE-221" data-name="LINE"><line class="cls-1" x1="167.89" y1="186.91" x2="167.89" y2="28.75"/></g><g id="LINE-222" data-name="LINE"><line class="cls-1" x1="166.64" y1="187.64" x2="167.89" y2="186.91"/></g><g id="LINE-223" data-name="LINE"><line class="cls-1" x1="167.53" y1="28.96" x2="167.35" y2="28.86"/></g><g id="LINE-224" data-name="LINE"><line class="cls-1" x1="167.35" y1="39.21" x2="167.53" y2="39.31"/></g><g id="ARC-58" data-name="ARC"><path class="cls-1" d="M167.89,28.75a.38.38,0,0,0,.22-.31"/></g><g id="ARC-59" data-name="ARC"><path class="cls-1" d="M167.37,188.07a1.28,1.28,0,0,0,.53-1.16"/></g><g id="LINE-225" data-name="LINE"><line class="cls-1" x1="167.37" y1="188.07" x2="166.11" y2="188.8"/></g><g id="LINE-226" data-name="LINE"><line class="cls-1" x1="164.31" y1="189.84" x2="163.15" y2="190.5"/></g><g id="LINE-227" data-name="LINE"><line class="cls-1" x1="164.31" y1="189.84" x2="167.37" y2="188.07"/></g><g id="LINE-228" data-name="LINE"><line class="cls-1" x1="164.31" y1="291.69" x2="164.31" y2="189.84"/></g><g id="LINE-229" data-name="LINE"><line class="cls-1" x1="163.05" y1="292.41" x2="164.31" y2="291.69"/></g><g id="ELLIPSE-17" data-name="ELLIPSE"><path class="cls-1" d="M164.31,291.69a.43.43,0,0,0,.22-.39"/></g><g id="LINE-230" data-name="LINE"><line class="cls-1" x1="160.72" y1="293.76" x2="164.31" y2="291.69"/></g><g id="LINE-231" data-name="LINE"><line class="cls-1" x1="160.72" y1="293.76" x2="159.47" y2="294.48"/></g><g id="LWPOLYLINE-54" data-name="LWPOLYLINE"><polyline class="cls-1" points="38.45 82.36 37.48 82.95 36.53 83.61 35.58 84.34 34.64 85.14 33.72 85.99 32.82 86.9 31.94 87.87 31.09 88.88 30.28 89.94 29.5 91.04 28.75 92.17 28.05 93.34 27.39 94.53 26.78 95.74 26.22 96.96 25.71 98.2 25.26 99.44 24.86 100.68 24.52 101.92 24.24 103.14 24.03 104.35 23.87 105.54 23.77 106.7 23.74 107.83"/></g><g id="ARC-60" data-name="ARC"><path class="cls-1" d="M22.67,107.83a1.17,1.17,0,0,0,1.08,0"/></g><g id="LWPOLYLINE-55" data-name="LWPOLYLINE"><polyline class="cls-1" points="22.67 107.83 22.7 106.66 22.8 105.45 22.96 104.22 23.19 102.97 23.48 101.7 23.83 100.42 24.24 99.14 24.71 97.85 25.24 96.57 25.82 95.3 26.45 94.04 27.13 92.81 27.86 91.6 28.63 90.42 29.44 89.28 30.29 88.19 31.17 87.14 32.08 86.14 33.01 85.19 33.96 84.31 34.93 83.48 35.92 82.73 36.91 82.04 37.91 81.43"/></g><g id="ARC-61" data-name="ARC"><path class="cls-1" d="M38.44,82.36a1.17,1.17,0,0,0-.54-.93"/></g><g id="LINE-232" data-name="LINE"><line class="cls-1" x1="0.44" y1="94.99" x2="22.67" y2="107.83"/></g><g id="LWPOLYLINE-56" data-name="LWPOLYLINE"><polyline class="cls-1" points="15.68 68.6 14.68 69.21 13.69 69.89 12.7 70.65 11.73 71.47 10.78 72.36 9.84 73.3 8.94 74.3 8.05 75.35 7.21 76.45 6.4 77.59 5.63 78.76 4.9 79.97 4.22 81.21 3.58 82.46 3 83.73 2.48 85.02 2.01 86.3 1.59 87.59 1.24 88.87 0.95 90.14 0.73 91.39 0.57 92.62 0.47 93.82 0.43 94.99"/></g><g id="LINE-233" data-name="LINE"><line class="cls-1" x1="37.91" y1="81.43" x2="15.68" y2="68.6"/></g><g id="LINE-234" data-name="LINE"><line class="cls-1" x1="42.03" y1="80.29" x2="38.44" y2="82.36"/></g><g id="LINE-235" data-name="LINE"><line class="cls-1" x1="42.03" y1="80.29" x2="42.03" y2="80.71"/></g><g id="LINE-236" data-name="LINE"><line class="cls-1" x1="42.03" y1="80.71" x2="38.44" y2="82.78"/></g><g id="LWPOLYLINE-57" data-name="LWPOLYLINE"><polyline class="cls-1" points="38.45 82.78 37.47 83.38 36.49 84.06 35.53 84.81 34.58 85.63 33.64 86.51 32.73 87.45 31.85 88.44 30.99 89.49 30.17 90.58 29.39 91.72 28.66 92.89 27.96 94.09 27.32 95.31 26.73 96.55 26.19 97.81 25.71 99.07 25.29 100.33 24.93 101.59 24.63 102.84 24.4 104.08 24.23 105.29 24.14 106.47 24.1 107.62"/></g><g id="LINE-237" data-name="LINE"><line class="cls-1" x1="24.1" y1="111.76" x2="24.1" y2="107.62"/></g><g id="LINE-238" data-name="LINE"><line class="cls-1" x1="23.74" y1="107.83" x2="23.74" y2="111.97"/></g><g id="LINE-239" data-name="LINE"><line class="cls-1" x1="22.67" y1="111.97" x2="22.67" y2="107.83"/></g><g id="LINE-240" data-name="LINE"><line class="cls-1" x1="37.91" y1="81.43" x2="41.49" y2="79.36"/></g><g id="ARC-62" data-name="ARC"><path class="cls-1" d="M42,80.29a1.17,1.17,0,0,0-.54-.93"/></g><g id="LINE-241" data-name="LINE"><line class="cls-1" x1="0.44" y1="94.99" x2="0.44" y2="99.13"/></g><g id="LINE-242" data-name="LINE"><line class="cls-1" x1="19.26" y1="66.53" x2="15.68" y2="68.6"/></g><g id="LINE-243" data-name="LINE"><line class="cls-1" x1="19.26" y1="66.53" x2="41.49" y2="79.36"/></g><g id="ARC-63" data-name="ARC"><path class="cls-1" d="M19.26,66.53a.38.38,0,0,0-.38,0"/></g><g id="LINE-244" data-name="LINE"><line class="cls-1" x1="153.19" y1="16.12" x2="149.6" y2="18.19"/></g><g id="ARC-64" data-name="ARC"><path class="cls-1" d="M149.6,18.19a1.17,1.17,0,0,0-.54-.93"/></g><g id="LINE-245" data-name="LINE"><line class="cls-1" x1="149.07" y1="17.26" x2="152.65" y2="15.19"/></g><g id="ARC-65" data-name="ARC"><path class="cls-1" d="M153.19,16.12a1.17,1.17,0,0,0-.54-.93"/></g><g id="ARC-66" data-name="ARC"><path class="cls-1" d="M126.83,4.43a.38.38,0,0,0-.38,0"/></g><g id="LINE-246" data-name="LINE"><line class="cls-1" x1="149.07" y1="17.26" x2="126.83" y2="4.43"/></g><g id="LINE-247" data-name="LINE"><line class="cls-1" x1="149.6" y1="18.19" x2="149.6" y2="18.61"/></g><g id="LINE-248" data-name="LINE"><line class="cls-1" x1="167.89" y1="28.75" x2="167.89" y2="24.61"/></g><g id="LINE-249" data-name="LINE"><line class="cls-1" x1="167.53" y1="28.96" x2="167.53" y2="24.82"/></g><g id="LWPOLYLINE-58" data-name="LWPOLYLINE"><polyline class="cls-1" points="153.19 16.54 154.17 16.01 155.14 15.56 156.11 15.2 157.06 14.92 157.99 14.72 158.91 14.61 159.79 14.58 160.64 14.64 161.46 14.79 162.24 15.03 162.98 15.34 163.67 15.74 164.32 16.22 164.91 16.78 165.45 17.42 165.93 18.13 166.35 18.91 166.71 19.75 167 20.66 167.23 21.62 167.4 22.64 167.5 23.71 167.53 24.82"/></g><g id="LINE-250" data-name="LINE"><line class="cls-1" x1="149.6" y1="18.61" x2="153.19" y2="16.54"/></g><g id="LWPOLYLINE-59" data-name="LWPOLYLINE"><polyline class="cls-1" points="167.89 24.61 167.86 23.52 167.77 22.47 167.61 21.46 167.39 20.51 167.11 19.6 166.77 18.76 166.38 17.98 165.92 17.26 165.41 16.61 164.85 16.03 164.24 15.52 163.59 15.09 162.88 14.74 162.14 14.46 161.36 14.27 160.54 14.15 159.69 14.12 158.82 14.17 157.92 14.29 157 14.5 156.06 14.79 155.11 15.16 154.15 15.6 153.19 16.12"/></g><g id="LINE-251" data-name="LINE"><line class="cls-1" x1="130.42" y1="2.36" x2="126.83" y2="4.43"/></g><g id="LINE-252" data-name="LINE"><line class="cls-1" x1="130.42" y1="2.36" x2="152.65" y2="15.19"/></g><g id="LINE-253" data-name="LINE"><line class="cls-1" x1="163.38" y1="14.1" x2="163.43" y2="14.12"/></g><g id="LWPOLYLINE-60" data-name="LWPOLYLINE"><polyline class="cls-1" points="162.3 15.04 162.34 15.08 162.83 15.54"/></g><g id="LINE-254" data-name="LINE"><line class="cls-1" x1="149.6" y1="18.19" x2="42.03" y2="80.29"/></g><g id="LINE-255" data-name="LINE"><line class="cls-1" x1="41.49" y1="79.36" x2="149.07" y2="17.26"/></g><g id="LINE-256" data-name="LINE"><line class="cls-1" x1="42.03" y1="80.71" x2="149.6" y2="18.61"/></g><g id="LWPOLYLINE-61" data-name="LWPOLYLINE"><polyline class="cls-1" points="75.65 46.81 76.41 47.21 77.23 47.58 78.11 47.9 79.02 48.18 79.98 48.41 80.96 48.6 81.97 48.73 83 48.81 84.03 48.84 85.07 48.83 86.1 48.76 87.11 48.63 88.11 48.46 89.07 48.24 90 47.98 90.88 47.66 91.72 47.31 92.5 46.91 93.21 46.48 93.86 46.02 94.44 45.52 94.94 45 95.36 44.45 95.7 43.88 95.96 43.3 96.12 42.71 96.2 42.12 96.19 41.52 96.09 40.92 95.9 40.34 95.63 39.76 95.27 39.2 94.82 38.66 94.79 38.62"/></g><g id="LWPOLYLINE-62" data-name="LWPOLYLINE"><polyline class="cls-1" points="73.55 38.61 73.17 39.06 72.78 39.62 72.49 40.19 72.28 40.78 72.15 41.37 72.12 41.97 72.18 42.56 72.32 43.16 72.55 43.74 72.87 44.31 73.27 44.86 73.75 45.39 74.31 45.9 74.95 46.37 75.65 46.81"/></g><g id="LINE-257" data-name="LINE"><line class="cls-1" x1="72.7" y1="31.68" x2="72.73" y2="31.49"/></g><g id="LINE-258" data-name="LINE"><line class="cls-1" x1="95.63" y1="31.68" x2="95.64" y2="31.74"/></g><g id="SPLINE-9" data-name="SPLINE"><path class="cls-1" d="M92.59,40.26c-.38.2-.76.41-1.17.59a13.32,13.32,0,0,1-1.3.5q-.68.22-1.4.4c-.48.11-1,.21-1.48.29s-1,.14-1.53.18-1,.06-1.55.06-1,0-1.55-.06-1-.1-1.53-.18-1-.17-1.48-.29-.95-.25-1.4-.4a13.32,13.32,0,0,1-1.3-.5c-.41-.18-.79-.39-1.17-.59"/></g><g id="SPLINE-10" data-name="SPLINE"><path class="cls-1" d="M75.74,40.26c-.35-.22-.71-.44-1-.68a7.44,7.44,0,0,1-.87-.75,6.71,6.71,0,0,1-.69-.81,5.15,5.15,0,0,1-.5-.85,4.74,4.74,0,0,1-.3-.88,3.27,3.27,0,0,1-.1-.9,4.88,4.88,0,0,1,.06-.51"/></g><g id="SPLINE-11" data-name="SPLINE"><path class="cls-1" d="M96,34.88a4.88,4.88,0,0,1,.06.51,3.27,3.27,0,0,1-.1.9,4.74,4.74,0,0,1-.3.88,5.15,5.15,0,0,1-.5.85,6.71,6.71,0,0,1-.69.81,7.44,7.44,0,0,1-.87.75c-.32.24-.67.46-1,.68"/></g><g id="LWPOLYLINE-63" data-name="LWPOLYLINE"><polyline class="cls-1" points="91.94 36.3 91.2 36.69 90.4 37.03 89.55 37.34 88.66 37.6 87.73 37.81 86.77 37.97 85.78 38.09 84.79 38.14 83.79 38.15 82.79 38.1 81.8 38.01 80.84 37.86 79.9 37.66 78.99 37.41 78.13 37.11 77.32 36.78 76.57 36.4 75.88 35.98 75.25 35.53 74.7 35.04 74.23 34.53 73.85 34 73.54 33.45 73.33 32.88 73.2 32.31 73.17 31.73 73.23 31.16 73.37 30.59 73.61 30.02 73.94 29.48 74.34 28.95 74.83 28.45 75.4 27.97 76.04 27.53 76.75 27.12 77.52 26.75 78.34 26.42 79.22 26.14 80.13 25.9 81.08 25.71 82.05 25.58 83.04 25.49 84.04 25.46 85.04 25.48 86.03 25.55 87.01 25.68 87.96 25.85 88.89 26.07 89.77 26.35 90.61 26.66 91.39 27.02 92.11 27.42 92.77 27.86 93.36 28.32 93.87 28.82 94.3 29.34 94.64 29.89 94.9 30.44 95.07 31.01 95.15 31.59 95.14 32.17 95.04 32.74 94.85 33.31 94.57 33.86 94.2 34.4 93.75 34.92 93.22 35.41 92.61 35.87 91.94 36.3"/></g><g id="LWPOLYLINE-64" data-name="LWPOLYLINE"><polyline class="cls-1" points="78.83 34.87 78.28 34.51 77.8 34.12 77.39 33.7 77.07 33.26 76.83 32.8 76.68 32.33 76.62 31.85 76.66 31.37 76.78 30.89 77 30.43 77.3 29.98 77.69 29.56 78.15 29.16 78.69 28.8 79.29 28.46 79.95 28.18 80.67 27.93 81.42 27.73 82.21 27.58 83.03 27.48 83.85 27.44 84.68 27.44 85.51 27.5 86.31 27.61 87.1 27.78 87.84 27.99 88.55 28.24 89.19 28.54 89.78 28.88 90.3 29.26 90.75 29.66 91.11 30.09 91.39 30.55 91.58 31.01 91.69 31.49 91.7 31.97 91.62 32.44 91.45 32.91 91.19 33.37 90.84 33.81 90.42 34.22 89.92 34.6 89.35 34.95 88.71 35.26 88.02 35.53 87.29 35.75 86.51 35.92 85.71 36.05 84.89 36.12 84.06 36.14 83.23 36.11 82.41 36.02 81.62 35.88 80.85 35.7 80.13 35.46 79.45 35.19 78.83 34.87"/></g><g id="LWPOLYLINE-65" data-name="LWPOLYLINE"><polyline class="cls-1" points="76.12 40.86 76.86 41.25 77.66 41.6 78.51 41.91 79.41 42.18 80.34 42.4 81.3 42.57 82.28 42.69 83.28 42.76 84.29 42.78 85.29 42.75 86.29 42.67 87.27 42.53 88.22 42.35 89.15 42.12 90.03 41.84 90.87 41.52 91.66 41.16 92.38 40.76 93.05 40.32 93.64 39.85 94.16 39.35 94.6 38.83 94.9 38.38"/></g><g id="ARC-67" data-name="ARC"><path class="cls-1" d="M73.42,38.38a7.27,7.27,0,0,0,2.7,2.48"/></g><g id="LWPOLYLINE-66" data-name="LWPOLYLINE"><polyline class="cls-1" points="90.22 44.63 89.56 44.98 88.85 45.28 88.09 45.53 87.29 45.74 86.45 45.9 85.59 46.01 84.72 46.07 83.83 46.08 82.96 46.03 82.09 45.94 81.25 45.79 80.44 45.59 79.66 45.34 78.94 45.06 78.27 44.73 77.66 44.36 77.12 43.95 76.66 43.52 76.27 43.06 76.08 42.77"/></g><g id="ARC-68" data-name="ARC"><path class="cls-1" d="M90.22,44.63a5.55,5.55,0,0,0,2-1.86"/></g><g id="ARC-69" data-name="ARC"><path class="cls-1" d="M90.53,29.75a5.26,5.26,0,0,0-1.29-1"/></g><g id="ARC-70" data-name="ARC"><path class="cls-1" d="M79.08,28.73a5.23,5.23,0,0,0-1.32,1"/></g><g id="LWPOLYLINE-67" data-name="LWPOLYLINE"><polyline class="cls-1" points="78.37 29.29 78.57 29.11 79.05 28.76 79.61 28.44 80.22 28.16 80.88 27.92 81.59 27.73 82.33 27.58 83.09 27.48 83.87 27.44 84.65 27.45 85.43 27.5 86.19 27.61 86.92 27.77 87.62 27.98 88.27 28.23 88.87 28.52 89.4 28.84 89.87 29.2 90.22 29.54"/></g><g id="SPLINE-12" data-name="SPLINE"><path class="cls-1" d="M88.77,33.93c-.32.16-.64.33-1,.47a8.1,8.1,0,0,1-1.13.35,10.57,10.57,0,0,1-1.22.21,11.2,11.2,0,0,1-2.54,0,10.57,10.57,0,0,1-1.22-.21,8.09,8.09,0,0,1-1.13-.35c-.35-.14-.67-.3-1-.47"/></g><g id="SPLINE-13" data-name="SPLINE"><path class="cls-1" d="M88.77,28.61a8.29,8.29,0,0,1,.81.57,3.45,3.45,0,0,1,.6.65,2.81,2.81,0,0,1,.37.7,2.21,2.21,0,0,1,0,1.47,2.81,2.81,0,0,1-.37.7,3.45,3.45,0,0,1-.6.65,8.29,8.29,0,0,1-.81.57"/></g><g id="SPLINE-14" data-name="SPLINE"><path class="cls-1" d="M79.56,28.61c.32-.16.64-.33,1-.47a8.09,8.09,0,0,1,1.13-.35,10.57,10.57,0,0,1,1.22-.21,11.2,11.2,0,0,1,2.54,0,10.57,10.57,0,0,1,1.22.21,8.09,8.09,0,0,1,1.13.35c.35.14.67.3,1,.47"/></g><g id="SPLINE-15" data-name="SPLINE"><path class="cls-1" d="M79.56,33.93a8.29,8.29,0,0,1-.81-.57,3.45,3.45,0,0,1-.6-.65,2.81,2.81,0,0,1-.37-.7,2.21,2.21,0,0,1,0-1.47,2.81,2.81,0,0,1,.37-.7,3.45,3.45,0,0,1,.6-.65,8.29,8.29,0,0,1,.81-.57"/></g><g id="SPLINE-16" data-name="SPLINE"><path class="cls-1" d="M83.81,31,84,30.9l.19,0,.19,0,.16.06a.35.35,0,0,1,.11.09.19.19,0,0,1,0,.11.18.18,0,0,1,0,.11.54.54,0,0,1-.11.09"/></g><g id="SPLINE-17" data-name="SPLINE"><path class="cls-1" d="M84.52,31.38l-.16.06-.19,0-.19,0-.16-.06a.35.35,0,0,1-.11-.09.19.19,0,0,1,0-.11.18.18,0,0,1,0-.11.54.54,0,0,1,.11-.09"/></g><g id="SPLINE-18" data-name="SPLINE"><path class="cls-1" d="M94.83,40.1a.23.23,0,0,1,0,.09.27.27,0,0,1,0,.08.18.18,0,0,1,0,.07l0,.06a.39.39,0,0,1-.17.08.86.86,0,0,1-.25,0l-.29,0a1.26,1.26,0,0,1-.29-.1l-.1-.06"/></g><g id="LINE-259" data-name="LINE"><line class="cls-1" x1="94.11" y1="39.7" x2="94.16" y2="39.71"/></g><g id="SPLINE-19" data-name="SPLINE"><path class="cls-1" d="M81,47.86a.94.94,0,0,1-.13-.13.47.47,0,0,1-.08-.15.51.51,0,0,1,0-.17.55.55,0,0,1,0-.17.64.64,0,0,1,.09-.16.78.78,0,0,1,.13-.14.79.79,0,0,1,.17-.11l.2-.07"/></g><g id="SPLINE-20" data-name="SPLINE"><path class="cls-1" d="M82,46.9a.94.94,0,0,1,.16.2.48.48,0,0,1,.06.23.57.57,0,0,1-.05.24.68.68,0,0,1-.16.21.85.85,0,0,1-.24.15l-.14,0-.15,0h-.15l-.15,0-.13,0L81,47.86"/></g><g id="SPLINE-21" data-name="SPLINE"><path class="cls-1" d="M81.36,46.77l.18,0h.18l.17.05.14.08"/></g><g id="LINE-260" data-name="LINE"><line class="cls-1" x1="93.6" y1="40.53" x2="93.87" y2="40.66"/></g><g id="LWPOLYLINE-68" data-name="LWPOLYLINE"><polyline class="cls-1" points="79.24 47.04 78.36 46.74 77.54 46.39 76.78 46 76.09 45.57 75.48 45.1 74.95 44.6 74.5 44.08 74.14 43.53 73.88 42.96 73.71 42.38 73.64 41.8 73.67 41.21 73.8 40.63 74.02 40.05 74.2 39.72"/></g><g id="SPLINE-22" data-name="SPLINE"><path class="cls-1" d="M80.54,46.76a2.11,2.11,0,0,1-.29.18,1.4,1.4,0,0,1-.33.12,1.37,1.37,0,0,1-.35,0,2,2,0,0,1-.34-.05"/></g><g id="SPLINE-23" data-name="SPLINE"><path class="cls-1" d="M81.11,46.45a2.25,2.25,0,0,0-.31.13,2,2,0,0,0-.26.18"/></g><g id="ARC-71" data-name="ARC"><path class="cls-1" d="M81.11,46.45q.64.13,1.29.2"/></g><g id="LINE-261" data-name="LINE"><line class="cls-1" x1="82.41" y1="46.66" x2="82.4" y2="46.65"/></g><g id="SPLINE-24" data-name="SPLINE"><path class="cls-1" d="M82.74,47.09a1.29,1.29,0,0,0-.13-.24,1.49,1.49,0,0,0-.2-.2"/></g><g id="SPLINE-25" data-name="SPLINE"><path class="cls-1" d="M83.78,47.73a2.17,2.17,0,0,1-.35-.05,1.15,1.15,0,0,1-.31-.13,1,1,0,0,1-.24-.2,1.33,1.33,0,0,1-.15-.25"/></g><g id="LWPOLYLINE-69" data-name="LWPOLYLINE"><polyline class="cls-1" points="94.67 41.45 94.66 42.03 94.55 42.62 94.34 43.19 94.04 43.75 93.64 44.29 93.16 44.81 92.59 45.29 91.95 45.75 91.23 46.16 90.44 46.53 89.6 46.86 88.71 47.14 87.77 47.37 86.8 47.54 85.81 47.66 84.8 47.73 83.78 47.73"/></g><g id="SPLINE-26" data-name="SPLINE"><path class="cls-1" d="M93.87,40.66l.31.16a1.48,1.48,0,0,1,.25.2.88.88,0,0,1,.17.21.8.8,0,0,1,.07.21"/></g><g id="LINE-262" data-name="LINE"><line class="cls-1" x1="94.79" y1="38.62" x2="94.83" y2="38.66"/></g><g id="LINE-263" data-name="LINE"><line class="cls-1" x1="73.48" y1="38.68" x2="73.55" y2="38.62"/></g><g id="LINE-264" data-name="LINE"><line class="cls-1" x1="93.87" y1="40.65" x2="93.58" y2="40.49"/></g><g id="SPLINE-27" data-name="SPLINE"><path class="cls-1" d="M93.87,40.65a3.22,3.22,0,0,1,.32.17,1.45,1.45,0,0,1,.24.19.88.88,0,0,1,.17.22.79.79,0,0,1,.07.21"/></g><g id="LWPOLYLINE-70" data-name="LWPOLYLINE"><polyline class="cls-1" points="94.67 41.43 94.66 42.02 94.55 42.6 94.34 43.17 94.04 43.73 93.64 44.27 93.16 44.79 92.59 45.28 91.95 45.73 91.23 46.15 90.44 46.52 89.6 46.85 88.71 47.13 87.77 47.35 86.8 47.53 85.81 47.65 84.8 47.71 83.78 47.72"/></g><g id="SPLINE-28" data-name="SPLINE"><path class="cls-1" d="M83.78,47.72a2.18,2.18,0,0,1-.34-.05,1.15,1.15,0,0,1-.31-.14,1,1,0,0,1-.23-.19,1.33,1.33,0,0,1-.16-.26"/></g><g id="SPLINE-29" data-name="SPLINE"><path class="cls-1" d="M82.41,46.64a1.5,1.5,0,0,1,.19.19,1.3,1.3,0,0,1,.14.25"/></g><g id="SPLINE-30" data-name="SPLINE"><path class="cls-1" d="M80.54,46.75a1.34,1.34,0,0,1,.43-.26l.15,0"/></g><g id="SPLINE-31" data-name="SPLINE"><path class="cls-1" d="M80.54,46.75a2.11,2.11,0,0,1-.3.19,1.39,1.39,0,0,1-.32.11,1.37,1.37,0,0,1-.36,0,2,2,0,0,1-.33-.05"/></g><g id="LWPOLYLINE-71" data-name="LWPOLYLINE"><polyline class="cls-1" points="79.24 47.02 78.36 46.73 77.54 46.38 76.78 45.99 76.09 45.56 75.48 45.09 74.95 44.59 74.5 44.06 74.14 43.51 73.88 42.95 73.71 42.37 73.64 41.78 73.67 41.19 73.8 40.61 74.02 40.04 74.2 39.71"/></g><g id="SPLINE-32" data-name="SPLINE"><path class="cls-1" d="M77.77,45a11.7,11.7,0,0,1-1.12-.79,4.64,4.64,0,0,1-.84-.9,4.57,4.57,0,0,1-.51-1,2,2,0,0,1-.17-1v-.06"/></g><g id="SPLINE-33" data-name="SPLINE"><path class="cls-1" d="M93.19,41.21v.06a2,2,0,0,1-.17,1,4.44,4.44,0,0,1-.51,1,5.06,5.06,0,0,1-.83.9,7.36,7.36,0,0,1-1.12.79,9.77,9.77,0,0,1-1.37.65,12.3,12.3,0,0,1-1.56.48,14.34,14.34,0,0,1-1.7.3,15.55,15.55,0,0,1-3.53,0,14.69,14.69,0,0,1-1.7-.3,11.24,11.24,0,0,1-1.56-.48c-.49-.19-.93-.42-1.37-.65"/></g><g id="SPLINE-34" data-name="SPLINE"><path class="cls-1" d="M75.19,41.3a4.73,4.73,0,0,0,.17,1,3.52,3.52,0,0,0,.51,1,4.87,4.87,0,0,0,.83.9,11.3,11.3,0,0,0,1.12.79"/></g><g id="SPLINE-35" data-name="SPLINE"><path class="cls-1" d="M77.82,44.94c.44.23.88.45,1.36.64a11.16,11.16,0,0,0,1.55.48,14.59,14.59,0,0,0,1.68.29,15.45,15.45,0,0,0,3.5,0,14.24,14.24,0,0,0,1.68-.3,12.21,12.21,0,0,0,1.55-.48,9.74,9.74,0,0,0,1.36-.64,7.21,7.21,0,0,0,1.12-.79,5.33,5.33,0,0,0,.83-.9,3.44,3.44,0,0,0,.51-1,4.78,4.78,0,0,0,.17-1"/></g><g id="ARC-72" data-name="ARC"><path class="cls-1" d="M91.23,44.47A3.9,3.9,0,0,0,92.77,42"/></g><g id="ARC-73" data-name="ARC"><path class="cls-1" d="M75.56,42a3.89,3.89,0,0,0,1.36,2.33"/></g><g id="LINE-265" data-name="LINE"><line class="cls-1" x1="83.78" y1="47.73" x2="83.78" y2="47.72"/></g><g id="LINE-266" data-name="LINE"><line class="cls-1" x1="82.74" y1="47.08" x2="82.74" y2="47.09"/></g><g id="LINE-267" data-name="LINE"><line class="cls-1" x1="81.85" y1="47.35" x2="81.59" y2="47.2"/></g><g id="LINE-268" data-name="LINE"><line class="cls-1" x1="81.59" y1="47.2" x2="81.24" y2="47.25"/></g><g id="LINE-269" data-name="LINE"><line class="cls-1" x1="81.24" y1="47.25" x2="81.14" y2="47.46"/></g><g id="LINE-270" data-name="LINE"><line class="cls-1" x1="81.14" y1="47.46" x2="81.4" y2="47.61"/></g><g id="LINE-271" data-name="LINE"><line class="cls-1" x1="81.4" y1="47.61" x2="81.75" y2="47.55"/></g><g id="LINE-272" data-name="LINE"><line class="cls-1" x1="81.75" y1="47.55" x2="81.85" y2="47.35"/></g><g id="SPLINE-36" data-name="SPLINE"><path class="cls-1" d="M80.82,47.51a.37.37,0,0,1,0-.16.29.29,0,0,1,.09-.15.6.6,0,0,1,.18-.12,1,1,0,0,1,.24-.07,1.2,1.2,0,0,1,.27,0,1.1,1.1,0,0,1,.26.05.67.67,0,0,1,.2.1.6.6,0,0,1,.12.14"/></g><g id="SPLINE-37" data-name="SPLINE"><path class="cls-1" d="M82.17,47.3a.37.37,0,0,1,0,.16.29.29,0,0,1-.09.15.6.6,0,0,1-.18.12,1,1,0,0,1-.24.07,1.2,1.2,0,0,1-.27,0,1.1,1.1,0,0,1-.26-.05.67.67,0,0,1-.2-.1.6.6,0,0,1-.12-.14"/></g><g id="LINE-273" data-name="LINE"><line class="cls-1" x1="80.54" y1="46.76" x2="80.54" y2="46.75"/></g><g id="LINE-274" data-name="LINE"><line class="cls-1" x1="81.59" y1="47.47" x2="81.25" y2="47.52"/></g><g id="LINE-275" data-name="LINE"><line class="cls-1" x1="81.74" y1="47.55" x2="81.59" y2="47.47"/></g><g id="LINE-276" data-name="LINE"><line class="cls-1" x1="79.24" y1="47.04" x2="79.24" y2="47.02"/></g><g id="LINE-277" data-name="LINE"><line class="cls-1" x1="81.24" y1="47.25" x2="81.24" y2="47.51"/></g><g id="LINE-278" data-name="LINE"><line class="cls-1" x1="81.59" y1="47.47" x2="81.59" y2="47.2"/></g><g id="SPLINE-38" data-name="SPLINE"><path class="cls-1" d="M83.9,31.12l-.08.07a.14.14,0,0,0,0,.17l.08.07"/></g><g id="SPLINE-39" data-name="SPLINE"><path class="cls-1" d="M84.43,31.43l.08-.07a.13.13,0,0,0,0-.08.15.15,0,0,0,0-.08.26.26,0,0,0-.08-.07l-.12,0-.14,0-.14,0-.12,0"/></g><g id="SPLINE-40" data-name="SPLINE"><path class="cls-1" d="M94.62,40.39a.89.89,0,0,1-.23.09l-.14,0"/></g><g id="SPLINE-41" data-name="SPLINE"><path class="cls-1" d="M94.1,39.71h0a.78.78,0,0,1,.27,0,1,1,0,0,1,.23.09.47.47,0,0,1,.15.13.27.27,0,0,1,.05.15.24.24,0,0,1-.05.15.75.75,0,0,1-.15.13"/></g><g id="LINE-279" data-name="LINE"><line class="cls-1" x1="93.81" y1="40.18" x2="94.04" y2="40.31"/></g><g id="LINE-280" data-name="LINE"><line class="cls-1" x1="94.04" y1="40.31" x2="94.39" y2="40.25"/></g><g id="LINE-281" data-name="LINE"><line class="cls-1" x1="94.39" y1="40.25" x2="94.48" y2="40.05"/></g><g id="LINE-282" data-name="LINE"><line class="cls-1" x1="94.48" y1="40.05" x2="94.23" y2="39.9"/></g><g id="LINE-283" data-name="LINE"><line class="cls-1" x1="94.23" y1="39.9" x2="93.96" y2="39.94"/></g><g id="LINE-284" data-name="LINE"><line class="cls-1" x1="94.23" y1="40.17" x2="93.89" y2="40.22"/></g><g id="LINE-285" data-name="LINE"><line class="cls-1" x1="94.38" y1="40.26" x2="94.23" y2="40.17"/></g><g id="LINE-286" data-name="LINE"><line class="cls-1" x1="93.87" y1="40.08" x2="93.87" y2="40.21"/></g><g id="LINE-287" data-name="LINE"><line class="cls-1" x1="94.23" y1="39.9" x2="94.23" y2="40.17"/></g><g id="LWPOLYLINE-72" data-name="LWPOLYLINE"><polyline class="cls-2" points="164.46 41.38 164.46 41.29 164.46 41.2 164.46 41.1 164.46 41.09"/></g><g id="LINE-288" data-name="LINE"><line class="cls-2" x1="164.45" y1="41.38" x2="163.95" y2="41.38"/></g><g id="LINE-289" data-name="LINE"><line class="cls-2" x1="159.5" y1="43.95" x2="159.5" y2="192.32"/></g><g id="LWPOLYLINE-73" data-name="LWPOLYLINE"><polyline class="cls-2" points="164.81 41.3 164.81 41.21 164.79 41.12 164.75 41.03 164.71 40.94"/></g><g id="LINE-290" data-name="LINE"><line class="cls-2" x1="159.14" y1="192.24" x2="159.14" y2="44.16"/></g><g id="LINE-291" data-name="LINE"><line class="cls-2" x1="144.2" y1="215.9" x2="150.22" y2="219.38"/></g><g id="LINE-292" data-name="LINE"><line class="cls-2" x1="150.42" y1="219.49" x2="156.45" y2="222.97"/></g><g id="LINE-293" data-name="LINE"><line class="cls-2" x1="141.51" y1="54.34" x2="141.51" y2="182.06"/></g><g id="LINE-294" data-name="LINE"><line class="cls-2" x1="150.32" y1="99.66" x2="149.6" y2="100.08"/></g><g id="LINE-295" data-name="LINE"><line class="cls-2" x1="150.91" y1="100.36" x2="149.6" y2="101.11"/></g><g id="LINE-296" data-name="LINE"><line class="cls-2" x1="150.32" y1="107.94" x2="149.6" y2="108.36"/></g><g id="LINE-297" data-name="LINE"><line class="cls-2" x1="150.91" y1="108.64" x2="149.6" y2="109.39"/></g><g id="LINE-298" data-name="LINE"><line class="cls-2" x1="150.32" y1="156.18" x2="149.6" y2="156.6"/></g><g id="LINE-299" data-name="LINE"><line class="cls-2" x1="150.91" y1="156.88" x2="149.6" y2="157.63"/></g><g id="LINE-300" data-name="LINE"><line class="cls-2" x1="150.32" y1="164.47" x2="149.6" y2="164.88"/></g><g id="LINE-301" data-name="LINE"><line class="cls-2" x1="150.91" y1="165.16" x2="149.6" y2="165.91"/></g><g id="LINE-302" data-name="LINE"><line class="cls-2" x1="149.63" y1="190.17" x2="149.6" y2="190.19"/></g><g id="LINE-303" data-name="LINE"><line class="cls-2" x1="149.63" y1="191.11" x2="149.6" y2="191.12"/></g><g id="LWPOLYLINE-74" data-name="LWPOLYLINE"><polyline class="cls-2" points="143.69 185.84 143.65 185.86 143.62 185.88 143.61 185.88"/></g><g id="LWPOLYLINE-75" data-name="LWPOLYLINE"><polyline class="cls-2" points="141.51 182.06 141.46 182.08 141.44 182.1 141.43 182.1"/></g><g id="LINE-304" data-name="LINE"><line class="cls-2" x1="149.63" y1="198.4" x2="149.6" y2="198.42"/></g><g id="LINE-305" data-name="LINE"><line class="cls-2" x1="149.63" y1="199.44" x2="149.6" y2="199.45"/></g><g id="LINE-306" data-name="LINE"><line class="cls-2" x1="149.63" y1="207.93" x2="149.6" y2="207.94"/></g><g id="LINE-307" data-name="LINE"><line class="cls-2" x1="149.63" y1="208.96" x2="149.6" y2="208.98"/></g><g id="LWPOLYLINE-76" data-name="LWPOLYLINE"><path class="cls-2" d="M156.81,223.06v.21"/></g><g id="LWPOLYLINE-77" data-name="LWPOLYLINE"><path class="cls-2" d="M160,223.27v-.21"/></g><g id="ARC-74" data-name="ARC"><path class="cls-2" d="M156.45,223a.24.24,0,0,0,.11.23"/></g><g id="ARC-75" data-name="ARC"><path class="cls-2" d="M160.23,223.2a.25.25,0,0,0,.11-.23"/></g><g id="ARC-76" data-name="ARC"><path class="cls-2" d="M144.2,215.9a.24.24,0,0,0,.11.23"/></g><g id="LINE-308" data-name="LINE"><line class="cls-2" x1="149.63" y1="216.21" x2="149.6" y2="216.22"/></g><g id="LINE-309" data-name="LINE"><line class="cls-2" x1="149.63" y1="217.24" x2="149.6" y2="217.26"/></g><g id="LWPOLYLINE-78" data-name="LWPOLYLINE"><polyline class="cls-2" points="26.82 120.96 26.82 120.87 26.79 120.78 26.76 120.69 26.72 120.6"/></g><g id="ARC-77" data-name="ARC"><path class="cls-2" d="M27,120.75a.37.37,0,0,0-.09-.24"/></g><g id="LINE-310" data-name="LINE"><line class="cls-2" x1="21.53" y1="272.27" x2="24.24" y2="270.7"/></g><g id="ARC-78" data-name="ARC"><path class="cls-2" d="M24,301.83a.24.24,0,0,0,.11-.23"/></g><g id="LINE-311" data-name="LINE"><line class="cls-2" x1="38.44" y1="82.98" x2="38.27" y2="82.88"/></g><g id="LINE-312" data-name="LINE"><line class="cls-2" x1="24.28" y1="107.52" x2="24.1" y2="107.41"/></g><g id="LINE-313" data-name="LINE"><line class="cls-2" x1="153.19" y1="16.74" x2="153.01" y2="16.64"/></g><g id="ARC-79" data-name="ARC"><path class="cls-2" d="M.21,257a.38.38,0,0,0,.22.31"/></g><g id="LWPOLYLINE-79" data-name="LWPOLYLINE"><polyline class="cls-2" points="0.8 258.53 0.74 258.57 0.7 258.59 0.68 258.6"/></g><g id="ARC-80" data-name="ARC"><path class="cls-2" d="M167.89,186.91a.38.38,0,0,0,.22-.31"/></g><g id="ARC-81" data-name="ARC"><path class="cls-2" d="M15.68,68.6a.38.38,0,0,0-.38,0"/></g><g id="ARC-82" data-name="ARC"><path class="cls-2" d="M.21,94.68A.38.38,0,0,0,.44,95"/></g><g id="LWPOLYLINE-80" data-name="LWPOLYLINE"><polyline class="cls-2" points="152.65 15.19 153.65 14.65 154.64 14.19 155.63 13.81 156.6 13.51 157.55 13.3 158.48 13.16 159.39 13.11 160.27 13.15 161.12 13.27 161.93 13.47 162.7 13.76 163.38 14.1"/></g><g id="ARC-83" data-name="ARC"><path class="cls-2" d="M167.89,24.61a.38.38,0,0,0,.22-.31"/></g><g id="LWPOLYLINE-81" data-name="LWPOLYLINE"><polyline class="cls-2" points="141.2 1.29 140.47 0.92 139.7 0.64 138.89 0.43 138.04 0.31 137.16 0.28 136.25 0.33 135.32 0.46 134.37 0.68 133.39 0.98 132.41 1.36 131.42 1.82 130.42 2.35"/></g><g id="LINE-314" data-name="LINE"><line class="cls-2" x1="167.35" y1="24.71" x2="167.53" y2="24.82"/></g><g id="ARC-84" data-name="ARC"><path class="cls-2" d="M130.42,2.36a.38.38,0,0,0-.38,0"/></g><g id="LINE-315" data-name="LINE"><line class="cls-2" x1="126.83" y1="4.43" x2="89.31" y2="26.09"/></g><g id="LINE-316" data-name="LINE"><line class="cls-2" x1="72.31" y1="35.9" x2="19.26" y2="66.53"/></g><g id="LWPOLYLINE-82" data-name="LWPOLYLINE"><polyline class="cls-2" points="92.29 36.87 91.54 37.27 90.73 37.62 89.88 37.94 88.97 38.21 88.03 38.43 87.06 38.6 86.06 38.72 85.05 38.79 84.04 38.81 83.02 38.78 82.02 38.7 81.03 38.56 80.06 38.38 79.13 38.14 78.23 37.86 77.39 37.54 76.59 37.17 75.86 36.77 75.19 36.32 74.59 35.85 74.06 35.35 73.62 34.82 73.25 34.27 72.98 33.7 72.79 33.13 72.69 32.54 72.67 31.96 72.7 31.68"/></g><g id="LWPOLYLINE-83" data-name="LWPOLYLINE"><polyline class="cls-2" points="95.64 31.74 95.66 32.1 95.63 32.69 95.5 33.27 95.29 33.85 94.99 34.41 94.61 34.95 94.14 35.47 93.6 35.97 92.98 36.44 92.29 36.87"/></g><g id="LWPOLYLINE-84" data-name="LWPOLYLINE"><polyline class="cls-2" points="89.25 34.6 89.78 34.25 90.25 33.87 90.64 33.47 90.95 33.04 91.17 32.59 91.3 32.13 91.35 31.66 91.3 31.2 91.17 30.74 90.95 30.3 90.64 29.87 90.53 29.75"/></g><g id="LWPOLYLINE-85" data-name="LWPOLYLINE"><polyline class="cls-2" points="77.76 29.78 77.69 29.87 77.38 30.3 77.16 30.74 77.02 31.2 76.98 31.66 77.02 32.13 77.16 32.59 77.38 33.04 77.69 33.47 78.08 33.87 78.55 34.25 79.08 34.6 79.68 34.91 80.34 35.18 81.05 35.4 81.79 35.58 82.56 35.71 83.36 35.79 84.16 35.81 84.97 35.79 85.76 35.71 86.54 35.58 87.28 35.4 87.99 35.18 88.64 34.91 89.25 34.6"/></g><g id="LWPOLYLINE-86" data-name="LWPOLYLINE"><polyline class="cls-2" points="89.01 34.19 88.42 34.49 87.78 34.75 87.1 34.96 86.37 35.13 85.62 35.25 84.85 35.32 84.07 35.34 83.29 35.31 82.52 35.23 81.77 35.09 81.06 34.91 80.38 34.69 79.75 34.41 79.19 34.1 78.68 33.76 78.25 33.38 77.89 32.98 77.62 32.56 77.43 32.12 77.33 31.67 77.32 31.22 77.4 30.77 77.57 30.33 77.82 29.9 78.15 29.5 78.37 29.29"/></g><g id="LWPOLYLINE-87" data-name="LWPOLYLINE"><polyline class="cls-2" points="90.22 29.54 90.27 29.59 90.58 30.01 90.81 30.44 90.96 30.88 91.01 31.33 90.98 31.78 90.86 32.23 90.65 32.66 90.35 33.08 89.98 33.48 89.53 33.85 89.01 34.19"/></g><g id="ARC-85" data-name="ARC"><path class="cls-2" d="M73.57,38.65a6.36,6.36,0,0,0-.86,1.1"/></g><g id="ARC-86" data-name="ARC"><path class="cls-2" d="M95.62,39.75a6.44,6.44,0,0,0-.86-1.1"/></g></g></g></svg>