<svg xmlns="http://www.w3.org/2000/svg" viewBox="0 0 575.41 423"><defs><style>.cls-1,.cls-2{fill:none;stroke-linecap:round;stroke-linejoin:round;stroke-width:0.43px;}.cls-1{stroke:#000;}.cls-2{stroke:gray;}</style></defs><title>资源 1</title><g id="图层_2" data-name="图层 2"><g id="_0" data-name="0"><g id="LINE"><line class="cls-1" x1="575.2" y1="353.17" x2="575.2" y2="146.61"/></g><g id="LINE-2" data-name="LINE"><line class="cls-1" x1="424.48" y1="2.59" x2="357.13" y2="41.46"/></g><g id="SPLINE"><path class="cls-1" d="M368.45,82.47l-.7.4c-.42.25-.82.51-1.22.79s-.8.56-1.18.86-.77.61-1.14.93-.74.66-1.09,1-.7.7-1,1.07-.67.75-1,1.14-.63.8-.93,1.21-.59.84-.87,1.27-.55.88-.8,1.34-.5.93-.73,1.4-.45,1-.66,1.46-.4,1-.57,1.52-.34,1-.48,1.57-.25,1-.35,1.44-.19,1-.27,1.45-.13,1-.18,1.46-.09,1-.1,1.46c0,.23,0,.46,0,.69"/></g><g id="SPLINE-2" data-name="SPLINE"><path class="cls-1" d="M405.68,103.94c0-.05,0-.1,0-.15,0-.49,0-1-.07-1.46s-.09-1-.15-1.45-.14-1-.23-1.44-.2-.95-.32-1.42-.25-.93-.4-1.4-.3-.92-.48-1.37-.36-.9-.55-1.34-.45-1-.7-1.45-.51-.94-.79-1.39-.57-.9-.88-1.33-.62-.85-1-1.27-.67-.81-1-1.2l-.58-.6"/></g><g id="LINE-3" data-name="LINE"><line class="cls-1" x1="367.25" y1="86.66" x2="366.77" y2="86.94"/></g><g id="LINE-4" data-name="LINE"><line class="cls-1" x1="376.46" y1="11.97" x2="215.14" y2="105.1"/></g><g id="LINE-5" data-name="LINE"><line class="cls-1" x1="211.2" y1="108.36" x2="211.2" y2="321.61"/></g><g id="LINE-6" data-name="LINE"><line class="cls-1" x1="349.96" y1="390.17" x2="352.09" y2="388.94"/></g><g id="LINE-7" data-name="LINE"><line class="cls-1" x1="365.69" y1="381.09" x2="365.75" y2="381.06"/></g><g id="LINE-8" data-name="LINE"><line class="cls-1" x1="442.23" y1="49.94" x2="428.9" y2="42.24"/></g><g id="LINE-9" data-name="LINE"><line class="cls-1" x1="392.34" y1="21.14" x2="376.46" y2="11.97"/></g><g id="LINE-10" data-name="LINE"><line class="cls-1" x1="458.15" y1="59.13" x2="447.17" y2="52.79"/></g><g id="LINE-11" data-name="LINE"><line class="cls-1" x1="500.43" y1="303.3" x2="512.03" y2="296.61"/></g><g id="LWPOLYLINE"><polyline class="cls-1" points="343.66 390.48 342.65 390.19 341.65 390 340.69 389.91 339.76 389.92 338.86 390.03 338.01 390.24 337.21 390.54 336.46 390.95 335.76 391.45 335.13 392.04 334.56 392.72 334.05 393.49"/></g><g id="LINE-12" data-name="LINE"><line class="cls-1" x1="334.05" y1="393.49" x2="299.27" y2="373.41"/></g><g id="LINE-13" data-name="LINE"><line class="cls-1" x1="299.27" y1="373.41" x2="287.99" y2="359.64"/></g><g id="LINE-14" data-name="LINE"><line class="cls-1" x1="287.99" y1="359.64" x2="283.38" y2="356.97"/></g><g id="LINE-15" data-name="LINE"><line class="cls-1" x1="283.38" y1="154.21" x2="283.38" y2="356.97"/></g><g id="LINE-16" data-name="LINE"><line class="cls-1" x1="312.06" y1="170.77" x2="283.38" y2="154.21"/></g><g id="ARC"><path class="cls-1" d="M318.6,180.36a26.3,26.3,0,0,0-6.55-9.59"/></g><g id="LWPOLYLINE-2" data-name="LWPOLYLINE"><polyline class="cls-1" points="327.82 215.77 327.54 213.15 327.18 210.5 326.75 207.83 326.25 205.14 325.68 202.42 325.03 199.69 324.32 196.94 323.53 194.18 322.68 191.42 321.76 188.65 320.77 185.88 319.72 183.12 318.6 180.36"/></g><g id="LWPOLYLINE-3" data-name="LWPOLYLINE"><polyline class="cls-1" points="330.08 334.56 330.51 326.99 330.86 319.35 331.13 311.67 331.31 303.93 331.41 296.14 331.43 288.31 331.36 280.42 331.21 272.49 330.98 264.51 330.66 256.49 330.26 248.43 329.77 240.32 329.2 232.18 328.55 223.99 327.82 215.77"/></g><g id="LINE-17" data-name="LINE"><line class="cls-1" x1="330.08" y1="334.57" x2="339.02" y2="348.22"/></g><g id="LINE-18" data-name="LINE"><line class="cls-1" x1="339.02" y1="348.22" x2="352.09" y2="372.68"/></g><g id="ARC-2" data-name="ARC"><path class="cls-1" d="M353.69,381.45a28,28,0,0,0-1.6-8.78"/></g><g id="LINE-19" data-name="LINE"><line class="cls-1" x1="353.69" y1="381.45" x2="389.16" y2="401.93"/></g><g id="LINE-20" data-name="LINE"><line class="cls-1" x1="389.16" y1="411.65" x2="389.16" y2="401.93"/></g><g id="LINE-21" data-name="LINE"><line class="cls-1" x1="352.09" y1="390.25" x2="389.16" y2="411.65"/></g><g id="LINE-22" data-name="LINE"><line class="cls-1" x1="352.09" y1="390.25" x2="352.09" y2="388.13"/></g><g id="LWPOLYLINE-4" data-name="LWPOLYLINE"><polyline class="cls-1" points="352.09 388.13 351.58 388.81 351.01 389.4 350.38 389.9 349.69 390.32 348.95 390.63 348.16 390.86 347.32 390.98 346.45 391 345.55 390.93 344.61 390.75 343.66 390.48"/></g><g id="LWPOLYLINE-5" data-name="LWPOLYLINE"><polyline class="cls-1" points="380.2 50.99 379.18 49.62 378.12 48.31 377.02 47.05 375.89 45.87 374.73 44.76 373.54 43.73 372.34 42.79 371.12 41.93 369.9 41.16 368.68 40.49 367.46 39.92 366.25 39.45 365.06 39.09"/></g><g id="LWPOLYLINE-6" data-name="LWPOLYLINE"><polyline class="cls-1" points="381.81 58.1 382.04 57.64 382.19 57.1 382.27 56.5 382.27 55.85 382.18 55.16 382.02 54.44 381.78 53.71 381.48 52.99 381.1 52.28 380.68 51.61 380.2 50.99"/></g><g id="LWPOLYLINE-7" data-name="LWPOLYLINE"><polyline class="cls-1" points="361.28 81.64 362.62 79.2 364.03 76.84 365.51 74.56 367.05 72.37 368.67 70.27 370.36 68.26 372.11 66.33 373.92 64.5 375.8 62.76 377.74 61.11 379.75 59.56 381.81 58.1"/></g><g id="LWPOLYLINE-8" data-name="LWPOLYLINE"><polyline class="cls-1" points="346.77 71.6 347.37 72.72 348.02 73.81 348.73 74.86 349.49 75.86 350.28 76.81 351.11 77.69 351.96 78.51 352.84 79.25 353.73 79.92 354.63 80.49 355.53 80.98 356.42 81.37 357.3 81.67 358.16 81.86 359 81.96 359.8 81.95 360.56 81.84 361.28 81.64"/></g><g id="LWPOLYLINE-9" data-name="LWPOLYLINE"><polyline class="cls-1" points="365.06 39.09 363.6 39.25 362.19 39.51 360.81 39.87 359.49 40.33 358.21 40.89 356.99 41.55 355.82 42.3 354.72 43.15 353.67 44.09 352.69 45.12 351.77 46.23 350.92 47.44 350.13 48.73 349.42 50.1 348.78 51.54 348.21 53.06 347.72 54.66 347.3 56.32 346.96 58.04 346.7 59.83 346.52 61.67 346.41 63.57 346.38 65.51 346.43 67.5 346.56 69.53 346.77 71.6"/></g><g id="LWPOLYLINE-10" data-name="LWPOLYLINE"><polyline class="cls-1" points="447.54 12.12 446.53 10.74 445.46 9.43 444.37 8.18 443.23 7 442.07 5.89 440.88 4.86 439.68 3.91 438.46 3.05 437.24 2.29 436.02 1.62 434.8 1.05 433.6 0.58 432.41 0.21"/></g><g id="LINE-23" data-name="LINE"><line class="cls-1" x1="447.54" y1="12.11" x2="380.2" y2="50.99"/></g><g id="LINE-24" data-name="LINE"><line class="cls-1" x1="432.41" y1="0.21" x2="365.06" y2="39.09"/></g><g id="LWPOLYLINE-11" data-name="LWPOLYLINE"><polyline class="cls-1" points="449.15 19.22 449.38 18.76 449.54 18.23 449.62 17.62 449.61 16.97 449.53 16.28 449.37 15.56 449.13 14.84 448.82 14.11 448.45 13.41 448.02 12.74 447.54 12.12"/></g><g id="LINE-25" data-name="LINE"><line class="cls-1" x1="449.15" y1="19.22" x2="381.81" y2="58.1"/></g><g id="LWPOLYLINE-12" data-name="LWPOLYLINE"><polyline class="cls-1" points="428.63 42.76 429.96 40.32 431.37 37.96 432.85 35.69 434.4 33.5 436.01 31.39 437.7 29.38 439.45 27.46 441.26 25.62 443.14 23.88 445.08 22.23 447.09 20.68 449.15 19.22"/></g><g id="LINE-26" data-name="LINE"><line class="cls-1" x1="428.63" y1="42.76" x2="403.37" y2="57.34"/></g><g id="LINE-27" data-name="LINE"><line class="cls-1" x1="403.37" y1="57.34" x2="386.54" y2="67.06"/></g><g id="LINE-28" data-name="LINE"><line class="cls-1" x1="386.54" y1="67.06" x2="361.28" y2="81.64"/></g><g id="LINE-29" data-name="LINE"><line class="cls-1" x1="566.15" y1="143.67" x2="575.14" y2="148.85"/></g><g id="SPLINE-3" data-name="SPLINE"><path class="cls-1" d="M575.14,148.85q-.1,1.83-.37,3.8t-.69,4.07q-.42,2.11-1,4.39-.29,1.14-.62,2.33l-.34,1.2-.35,1.22q-.72,2.45-1.55,5t-1.74,5.26q-.91,2.7-1.89,5.54l-.49,1.43-.5,1.45-1,2.92q-1,2.93-2,5.9t-1.89,6q-.46,1.51-.9,3l-.43,1.53-.42,1.52q-.82,3-1.52,6t-1.24,5.92q-.27,1.47-.51,2.93-.12.73-.22,1.45t-.2,1.44q-.38,2.86-.57,5.59t-.19,5.34"/></g><g id="LINE-30" data-name="LINE"><line class="cls-1" x1="554.55" y1="234.17" x2="548.11" y2="230.45"/></g><g id="SPLINE-4" data-name="SPLINE"><path class="cls-1" d="M548.11,230.45q0-2.65.19-5.42t.57-5.66q.38-2.89.93-5.91.14-.76.29-1.51t.3-1.52q.31-1.52.66-3,.69-3,1.51-6.12t1.72-6.18l.46-1.55.46-1.54q.46-1.54.93-3.06.94-3,1.89-6t1.86-5.88l.45-1.45.44-1.43q.43-1.42.85-2.79.82-2.76,1.53-5.37.35-1.31.67-2.58l.31-1.27q.15-.63.29-1.25.57-2.48,1-4.78t.62-4.44q.22-2.14.26-4.15,0-1,0-2t-.1-1.9"/></g><g id="LWPOLYLINE-13" data-name="LWPOLYLINE"><polyline class="cls-1" points="575.2 353.17 575.17 354.77 575.03 356.86 574.78 358.94 574.43 361.03 573.97 363.1 573.39 365.17 572.72 367.22 571.93 369.26 571.04 371.29 570.04 373.3 568.95 375.3 567.74 377.27 566.44 379.22 565.03 381.15 563.52 383.05 561.92 384.93 560.22 386.78 558.42 388.59 556.53 390.38 554.55 392.13"/></g><g id="LINE-31" data-name="LINE"><line class="cls-1" x1="554.55" y1="392.13" x2="554.55" y2="382.41"/></g><g id="LINE-32" data-name="LINE"><line class="cls-1" x1="554.55" y1="234.17" x2="554.55" y2="382.41"/></g><g id="LWPOLYLINE-14" data-name="LWPOLYLINE"><polyline class="cls-1" points="575.13 148.85 575.2 146.72 575.15 144.6 574.99 142.47 574.71 140.35 574.32 138.24 573.83 136.13 573.22 134.04 572.5 131.95 571.67 129.88 570.73 127.83 569.68 125.79 568.52 123.77 567.26 121.77 565.9 119.8 564.43 117.85 562.86 115.92 561.18 114.03 559.41 112.17 557.54 110.34"/></g><g id="LINE-33" data-name="LINE"><line class="cls-1" x1="550.46" y1="210.18" x2="550.46" y2="113.54"/></g><g id="LWPOLYLINE-15" data-name="LWPOLYLINE"><polyline class="cls-1" points="550.46 113.54 552.18 115.26 553.8 117.01 555.34 118.79 556.77 120.59 558.11 122.42 559.35 124.27 560.5 126.15 561.54 128.04 562.48 129.95 563.32 131.88 564.05 133.82 564.68 135.77 565.21 137.73 565.63 139.71 565.94 141.68 566.15 143.67"/></g><g id="LINE-34" data-name="LINE"><line class="cls-1" x1="548.11" y1="230.45" x2="548.11" y2="378.69"/></g><g id="ARC-3" data-name="ARC"><path class="cls-1" d="M432.41.21a18.45,18.45,0,0,0-7.93,2.37"/></g><g id="SPLINE-5" data-name="SPLINE"><path class="cls-1" d="M334.18,174.53q-.83.48-1.78,1l-1,.49-.51.24-.51.24q-1,.48-2.11.93l-.54.22-.55.22-1.08.42q-1.08.4-2.13.75l-.52.17-.51.16-1,.29-.94.25-.45.11-.44.1-.82.16-.38.07-.18,0-.18,0"/></g><g id="LWPOLYLINE-16" data-name="LWPOLYLINE"><polyline class="cls-1" points="334.18 174.53 335.44 177.65 336.63 180.78 337.75 183.91 338.79 187.05 339.75 190.18 340.64 193.3 341.45 196.41 342.18 199.51 342.83 202.58 343.39 205.64 343.88 208.66 344.28 211.66 344.6 214.63"/></g><g id="LWPOLYLINE-17" data-name="LWPOLYLINE"><polyline class="cls-1" points="327.82 215.77 328.68 216.11 329.61 216.4 330.61 216.64 331.66 216.82 332.75 216.95 333.88 217.01 335.03 217.02 336.2 216.97 337.36 216.86 338.51 216.7 339.64 216.48 340.74 216.2 341.8 215.88 342.8 215.5 343.73 215.08 344.6 214.63"/></g><g id="SPLINE-6" data-name="SPLINE"><path class="cls-1" d="M321.49,156.78a14.57,14.57,0,0,0-1.66,1.13q-.41.32-.82.68l-.41.37-.4.39a21.86,21.86,0,0,0-1.54,1.69l-.36.46-.36.47q-.35.47-.67,1-.65,1-1.19,2l-.26.51-.25.51q-.24.51-.44,1t-.37,1l-.16.49-.14.49q-.13.48-.23.95,0,.23-.09.46l0,.23,0,.11,0,.11"/></g><g id="ARC-4" data-name="ARC"><path class="cls-1" d="M334.18,174.53a45.38,45.38,0,0,0-12.69-17.75"/></g><g id="LINE-35" data-name="LINE"><line class="cls-1" x1="483.6" y1="88.27" x2="334.18" y2="174.53"/></g><g id="LWPOLYLINE-18" data-name="LWPOLYLINE"><polyline class="cls-1" points="494.02 128.37 493.7 125.4 493.3 122.41 492.81 119.38 492.24 116.33 491.6 113.25 490.87 110.16 490.06 107.04 489.17 103.92 488.21 100.79 487.17 97.66 486.05 94.52 484.86 91.39 483.6 88.27"/></g><g id="LINE-36" data-name="LINE"><line class="cls-1" x1="494.02" y1="128.37" x2="344.6" y2="214.63"/></g><g id="LINE-37" data-name="LINE"><line class="cls-1" x1="388.37" y1="118.17" x2="321.49" y2="156.78"/></g><g id="SPLINE-7" data-name="SPLINE"><path class="cls-1" d="M397.65,114.91a18,18,0,0,1-2,1.15q-.54.26-1.1.49t-1.15.43a24.83,24.83,0,0,1-2.42.7q-1.25.29-2.56.48"/></g><g id="SPLINE-8" data-name="SPLINE"><path class="cls-1" d="M397.65,114.91a17.69,17.69,0,0,0,2-1.18q.47-.32.91-.67t.84-.72a14.63,14.63,0,0,0,1.46-1.55,13.61,13.61,0,0,0,1.17-1.67"/></g><g id="LINE-38" data-name="LINE"><line class="cls-1" x1="470.91" y1="70.52" x2="404.03" y2="109.13"/></g><g id="ARC-5" data-name="ARC"><path class="cls-1" d="M483.6,88.27a45.28,45.28,0,0,0-12.69-17.75"/></g><g id="LINE-39" data-name="LINE"><line class="cls-1" x1="548.11" y1="378.69" x2="554.55" y2="382.41"/></g><g id="ELLIPSE"><path class="cls-1" d="M227,102.25c-5.21,0-10.12,1.39-13.31,3.77"/></g><g id="LINE-40" data-name="LINE"><line class="cls-1" x1="227.04" y1="102.25" x2="321.49" y2="156.78"/></g><g id="LWPOLYLINE-19" data-name="LWPOLYLINE"><polyline class="cls-1" points="283.38 154.22 283.42 153.27 283.53 152.29 283.72 151.28 283.98 150.25 284.31 149.22 284.71 148.19 285.18 147.17 285.7 146.16 286.28 145.19 286.91 144.26 287.59 143.37"/></g><g id="LINE-41" data-name="LINE"><line class="cls-1" x1="287.59" y1="143.37" x2="282.65" y2="140.52"/></g><g id="LWPOLYLINE-20" data-name="LWPOLYLINE"><polyline class="cls-1" points="282.65 140.52 281.98 141.41 281.35 142.34 280.77 143.31 280.24 144.32 279.78 145.34 279.38 146.37 279.05 147.41 278.78 148.43 278.6 149.44 278.48 150.42 278.44 151.37"/></g><g id="LINE-42" data-name="LINE"><line class="cls-1" x1="278.44" y1="151.37" x2="213.82" y2="114.06"/></g><g id="SPLINE-9" data-name="SPLINE"><path class="cls-1" d="M211.54,107.69q.16.84.39,1.65t.51,1.61q.29.79.63,1.57.17.39.36.77l.19.38.1.19,0,.1,0,.09"/></g><g id="ELLIPSE-2" data-name="ELLIPSE"><path class="cls-1" d="M213.73,106c-.76.56-1.49,1.13-2.19,1.67"/></g><g id="SPLINE-10" data-name="SPLINE"><path class="cls-1" d="M404,109.13c.27-.45.55-.9.77-1.35a8.25,8.25,0,0,0,.54-1.4,10.4,10.4,0,0,0,.25-1.16,5.25,5.25,0,0,0,.09-1.18v-.1"/></g><g id="SPLINE-11" data-name="SPLINE"><path class="cls-1" d="M355.15,104.92c0,.26,0,.52,0,.78a6.89,6.89,0,0,0,.18,1.16,9.4,9.4,0,0,0,.35,1.16,9.63,9.63,0,0,0,.53,1.16,11.09,11.09,0,0,0,.7,1.14,12.65,12.65,0,0,0,.84,1.06q.46.52,1,1t1.16,1q.62.49,1.32.94t1.4.84q.73.41,1.53.78t1.67.72q.87.34,1.78.64t1.8.53q.93.24,1.89.44t2,.36q1,.16,2,.26t2,.15q1,.05,2,.06t2.08,0q1,0,2.08-.15c.82-.08,1.64-.18,2.44-.31s1.6-.29,2.4-.46"/></g><g id="LINE-43" data-name="LINE"><line class="cls-1" x1="376.46" y1="15.99" x2="227.04" y2="102.25"/></g><g id="LWPOLYLINE-21" data-name="LWPOLYLINE"><polyline class="cls-1" points="344.6 214.63 345.3 222.42 345.92 230.18 346.47 237.9 346.95 245.59 347.36 253.24 347.69 260.86 347.94 268.43 348.13 275.97 348.23 283.46 348.27 290.91 348.23 298.32 348.12 305.69 347.93 313.01 347.67 320.29 347.33 327.52 346.92 334.7 346.44 341.83"/></g><g id="SPLINE-12" data-name="SPLINE"><path class="cls-1" d="M346.44,341.84a6.87,6.87,0,0,1-2,.76l-.54.1-.56.06a8.84,8.84,0,0,1-1.14,0,10,10,0,0,1-1.16-.14l-.59-.12-.58-.15a13.57,13.57,0,0,1-2.29-.9l-.56-.29-.55-.31q-.54-.33-1.06-.69t-1-.77c-.33-.27-.66-.56-1-.85a21,21,0,0,1-1.78-1.88q-.42-.5-.81-1c-.26-.35-.51-.71-.75-1.07"/></g><g id="LWPOLYLINE-22" data-name="LWPOLYLINE"><polyline class="cls-1" points="495.86 255.58 496.34 248.44 496.75 241.26 497.09 234.03 497.35 226.76 497.53 219.43 497.65 212.07 497.69 204.66 497.65 197.2 497.54 189.71 497.36 182.17 497.11 174.6 496.77 166.98 496.37 159.33 495.89 151.64 495.34 143.92 494.71 136.16 494.02 128.37"/></g><g id="LINE-44" data-name="LINE"><line class="cls-1" x1="495.86" y1="255.58" x2="346.44" y2="341.84"/></g><g id="LINE-45" data-name="LINE"><line class="cls-1" x1="457.18" y1="59.69" x2="550.46" y2="113.54"/></g><g id="LINE-46" data-name="LINE"><line class="cls-1" x1="457.18" y1="59.69" x2="463.49" y2="56.04"/></g><g id="LINE-47" data-name="LINE"><line class="cls-1" x1="557.54" y1="110.34" x2="463.49" y2="56.04"/></g><g id="LWPOLYLINE-23" data-name="LWPOLYLINE"><polyline class="cls-1" points="522.08 401.15 519.06 402.29 515.98 403.38 512.85 404.41 509.66 405.39 506.42 406.31 503.14 407.18 499.81 407.99 496.45 408.75 493.05 409.44 489.61 410.07 486.14 410.65 482.64 411.16 479.12 411.62 475.57 412.01 472.01 412.34 468.43 412.61 464.83 412.82 461.23 412.96 457.63 413.05 454.02 413.07 450.41 413.03 446.8 412.93 443.2 412.76 439.62 412.53 436.04 412.24 432.48 411.89 428.94 411.48 425.43 411 421.94 410.47 418.48 409.88 415.05 409.22 411.66 408.51 408.31 407.74 405 406.91 401.73 406.02 398.51 405.08 395.34 404.08 392.22 403.03 389.16 401.93"/></g><g id="LINE-48" data-name="LINE"><line class="cls-1" x1="353.69" y1="381.45" x2="360" y2="377.81"/></g><g id="LINE-49" data-name="LINE"><line class="cls-1" x1="360" y1="377.81" x2="394.79" y2="397.89"/></g><g id="LWPOLYLINE-24" data-name="LWPOLYLINE"><polyline class="cls-1" points="515.64 397.43 512.72 398.5 509.75 399.51 506.72 400.46 503.64 401.37 500.52 402.21 497.35 403 494.14 403.74 490.9 404.42 487.62 405.03 484.31 405.59 480.96 406.09 477.6 406.53 474.21 406.91 470.81 407.23 467.38 407.49 463.95 407.69 460.5 407.83 457.06 407.9 453.61 407.91 450.15 407.87 446.71 407.75 443.27 407.58 439.84 407.35 436.43 407.06 433.03 406.7 429.66 406.29 426.31 405.81 422.98 405.28 419.69 404.69 416.43 404.03 413.2 403.32 410.02 402.56 406.87 401.73 403.78 400.85 400.73 399.92 397.73 398.93 394.79 397.89"/></g><g id="LINE-50" data-name="LINE"><line class="cls-1" x1="548.11" y1="378.69" x2="515.64" y2="397.43"/></g><g id="LINE-51" data-name="LINE"><line class="cls-1" x1="554.55" y1="382.41" x2="522.08" y2="401.15"/></g><g id="LWPOLYLINE-25" data-name="LWPOLYLINE"><polyline class="cls-1" points="522.08 410.87 519.06 412.01 515.98 413.1 512.85 414.13 509.66 415.11 506.42 416.04 503.14 416.9 499.81 417.71 496.45 418.46 493.05 419.16 489.61 419.79 486.14 420.37 482.64 420.88 479.12 421.34 475.57 421.73 472.01 422.06 468.43 422.33 464.83 422.54 461.23 422.69 457.63 422.77 454.02 422.79 450.41 422.75 446.8 422.65 443.2 422.48 439.62 422.25 436.04 421.96 432.48 421.61 428.94 421.2 425.43 420.72 421.94 420.19 418.48 419.6 415.05 418.94 411.66 418.23 408.31 417.46 405 416.63 401.73 415.74 398.51 414.8 395.34 413.81 392.22 412.75 389.16 411.65"/></g><g id="LINE-52" data-name="LINE"><line class="cls-1" x1="522.08" y1="410.87" x2="522.08" y2="401.15"/></g><g id="LWPOLYLINE-26" data-name="LWPOLYLINE"><polyline class="cls-1" points="381.73 97.77 381.66 95.1 381.66 92.47 381.74 89.88 381.89 87.34 382.11 84.86 382.41 82.42 382.78 80.04 383.23 77.72 383.75 75.46 384.34 73.26 385 71.12 385.73 69.06 386.54 67.06"/></g><g id="ARC-6" data-name="ARC"><path class="cls-1" d="M383,102.78a18.78,18.78,0,0,0-1.26-5"/></g><g id="SPLINE-13" data-name="SPLINE"><path class="cls-1" d="M383,102.78q-.85-1.5-1.85-2.94-.5-.72-1-1.4l-.53-.67-.55-.66a32.23,32.23,0,0,0-2.26-2.4,27.74,27.74,0,0,0-2.37-2l-.61-.45-.62-.43q-.62-.41-1.23-.76a17.88,17.88,0,0,0-2.44-1.17q-.61-.23-1.21-.41t-1.19-.28a10.42,10.42,0,0,0-2.25-.19"/></g><g id="ARC-7" data-name="ARC"><path class="cls-1" d="M367.24,86.7A4.87,4.87,0,0,0,364.86,89"/></g><g id="ARC-8" data-name="ARC"><path class="cls-1" d="M367.24,86.7a90.61,90.61,0,0,0,2.62-10"/></g><g id="LWPOLYLINE-27" data-name="LWPOLYLINE"><polyline class="cls-1" points="398.57 88.05 398.49 85.38 398.5 82.75 398.57 80.16 398.72 77.63 398.95 75.14 399.25 72.7 399.62 70.32 400.06 68 400.58 65.74 401.17 63.54 401.84 61.4 402.57 59.34 403.37 57.34"/></g><g id="LINE-53" data-name="LINE"><line class="cls-1" x1="398.57" y1="88.05" x2="390.15" y2="92.91"/></g><g id="LINE-54" data-name="LINE"><line class="cls-1" x1="390.15" y1="92.91" x2="381.73" y2="97.77"/></g><g id="LINE-55" data-name="LINE"><line class="cls-1" x1="282.65" y1="351.7" x2="283.38" y2="352.11"/></g><g id="LINE-56" data-name="LINE"><line class="cls-1" x1="282.65" y1="351.7" x2="282.65" y2="140.52"/></g><g id="LINE-57" data-name="LINE"><line class="cls-1" x1="282.65" y1="351.7" x2="278.44" y2="354.12"/></g><g id="LINE-58" data-name="LINE"><line class="cls-1" x1="278.44" y1="354.12" x2="278.44" y2="151.37"/></g><g id="LINE-59" data-name="LINE"><line class="cls-1" x1="278.44" y1="354.12" x2="255.39" y2="340.82"/></g><g id="LINE-60" data-name="LINE"><line class="cls-1" x1="255.39" y1="340.82" x2="236.7" y2="338.46"/></g><g id="LINE-61" data-name="LINE"><line class="cls-1" x1="236.7" y1="338.46" x2="213.82" y2="325.25"/></g><g id="LINE-62" data-name="LINE"><line class="cls-1" x1="213.82" y1="114.06" x2="213.82" y2="325.25"/></g><g id="SPLINE-14" data-name="SPLINE"><path class="cls-1" d="M390.15,92.91a8.07,8.07,0,0,0-1.13.79,10.18,10.18,0,0,0-1,1,14.5,14.5,0,0,0-.94,1.16c-.3.41-.58.83-.86,1.27s-.55.89-.81,1.35-.53.93-.79,1.41c-.53,1-1,1.92-1.59,2.9"/></g><g id="SPLINE-15" data-name="SPLINE"><path class="cls-1" d="M399.82,93.06a17.28,17.28,0,0,0-2.15-.73c-.38-.1-.77-.19-1.18-.26s-.81-.13-1.23-.17a11.09,11.09,0,0,0-1.29,0l-.65,0-.65.09a7.92,7.92,0,0,0-1.28.34q-.32.11-.63.26t-.61.32"/></g><g id="ARC-9" data-name="ARC"><path class="cls-1" d="M399.82,93.06a18.78,18.78,0,0,0-1.26-5"/></g><g id="LINE-63" data-name="LINE"><line class="cls-1" x1="498.96" y1="255.89" x2="512.03" y2="280.35"/></g><g id="LINE-64" data-name="LINE"><line class="cls-1" x1="497.71" y1="253.98" x2="498.96" y2="255.89"/></g><g id="LWPOLYLINE-28" data-name="LWPOLYLINE"><polyline class="cls-1" points="497.71 253.98 498.22 246.41 498.64 238.79 498.99 231.12 499.24 223.39 499.42 215.62 499.51 207.79 499.52 199.91 499.44 191.99 499.29 184.02 499.04 176 498.72 167.95 498.31 159.84 497.82 151.7 497.25 143.52 496.59 135.29 495.86 127.03"/></g><g id="LWPOLYLINE-29" data-name="LWPOLYLINE"><polyline class="cls-1" points="495.86 127.03 495.54 124.08 495.14 121.1 494.65 118.08 494.09 115.04 493.44 111.97 492.72 108.89 491.91 105.79 491.03 102.68 490.07 99.56 489.03 96.44 487.92 93.32 486.74 90.2 485.48 87.08"/></g><g id="ARC-10" data-name="ARC"><path class="cls-1" d="M485.48,87.09A44.68,44.68,0,0,0,473,69.6"/></g><g id="LINE-65" data-name="LINE"><line class="cls-1" x1="472.99" y1="69.6" x2="457.18" y2="60.47"/></g><g id="LINE-66" data-name="LINE"><line class="cls-1" x1="457.18" y1="59.69" x2="457.18" y2="60.47"/></g><g id="LINE-67" data-name="LINE"><line class="cls-1" x1="512.03" y1="297.92" x2="512.03" y2="295.79"/></g><g id="ARC-11" data-name="ARC"><path class="cls-1" d="M512,295.79a10,10,0,0,0,1.46-4.3"/></g><g id="ARC-12" data-name="ARC"><path class="cls-1" d="M513.5,291.49A25.72,25.72,0,0,0,512,280.35"/></g><g id="LINE-68" data-name="LINE"><line class="cls-1" x1="512.03" y1="297.92" x2="548.11" y2="318.75"/></g><g id="LINE-69" data-name="LINE"><line class="cls-1" x1="554.55" y1="392.13" x2="522.08" y2="410.87"/></g><g id="LINE-70" data-name="LINE"><line class="cls-1" x1="376.46" y1="15.99" x2="376.46" y2="11.97"/></g><g id="ELLIPSE-3" data-name="ELLIPSE"><path class="cls-1" d="M211.54,107.69a1.4,1.4,0,0,0-.34.67"/></g><g id="LWPOLYLINE-30" data-name="LWPOLYLINE"><polyline class="cls-1" points="213.82 325.25 213.15 324.82 212.57 324.35 212.09 323.84 211.7 323.31 211.43 322.75 211.26 322.18 211.2 321.61"/></g><g id="LINE-71" data-name="LINE"><line class="cls-1" x1="354.81" y1="339.11" x2="339.02" y2="348.22"/></g><g id="LINE-72" data-name="LINE"><line class="cls-1" x1="367.88" y1="363.57" x2="354.81" y2="339.11"/></g><g id="LINE-73" data-name="LINE"><line class="cls-1" x1="367.88" y1="363.57" x2="352.09" y2="372.68"/></g><g id="LINE-74" data-name="LINE"><line class="cls-1" x1="498.96" y1="255.89" x2="489.49" y2="261.36"/></g><g id="LINE-75" data-name="LINE"><line class="cls-1" x1="489" y1="260.61" x2="489.49" y2="261.36"/></g><g id="LINE-76" data-name="LINE"><line class="cls-1" x1="489" y1="260.61" x2="354.32" y2="338.36"/></g><g id="LINE-77" data-name="LINE"><line class="cls-1" x1="354.81" y1="339.11" x2="354.32" y2="338.36"/></g><g id="SPLINE-16" data-name="SPLINE"><path class="cls-1" d="M497.71,254q-.19.24-.4.46c-.14.15-.29.29-.45.42a6.49,6.49,0,0,1-1,.71"/></g><g id="ARC-13" data-name="ARC"><path class="cls-1" d="M369.34,374.71a25.72,25.72,0,0,0-1.46-11.15"/></g><g id="LWPOLYLINE-31" data-name="LWPOLYLINE"><polyline class="cls-1" points="365.75 381.06 366.09 380.84 366.73 380.35 367.3 379.78 367.81 379.12 368.25 378.38 368.63 377.56 368.94 376.68 369.18 375.72 369.34 374.71"/></g><g id="LINE-78" data-name="LINE"><line class="cls-1" x1="484.52" y1="263.19" x2="484.52" y2="306.62"/></g><g id="LINE-79" data-name="LINE"><line class="cls-1" x1="369.46" y1="373.04" x2="484.52" y2="306.62"/></g><g id="SPLINE-17" data-name="SPLINE"><path class="cls-1" d="M483.6,88.27l1-.61q.47-.3.87-.58"/></g><g id="ARC-14" data-name="ARC"><path class="cls-1" d="M494,128.37a10.15,10.15,0,0,0,1.84-1.33"/></g><g id="SPLINE-18" data-name="SPLINE"><path class="cls-1" d="M470.91,70.52A11.24,11.24,0,0,1,472,70a8.84,8.84,0,0,1,1-.38"/></g><g id="LINE-80" data-name="LINE"><line class="cls-1" x1="340.26" y1="389.9" x2="334.05" y2="393.49"/></g><g id="ARC-15" data-name="ARC"><path class="cls-1" d="M443.57,51.18a4.15,4.15,0,0,0-3.08-1.78"/></g><g id="LINE-81" data-name="LINE"><line class="cls-1" x1="440.49" y1="49.4" x2="445.42" y2="52.25"/></g><g id="ARC-16" data-name="ARC"><path class="cls-1" d="M447.17,52.79a4.2,4.2,0,0,0-1.74-.54"/></g><g id="LINE-82" data-name="LINE"><line class="cls-1" x1="489.49" y1="261.36" x2="502.56" y2="285.81"/></g><g id="ARC-17" data-name="ARC"><path class="cls-1" d="M504,297a25.72,25.72,0,0,0-1.46-11.15"/></g><g id="LWPOLYLINE-32" data-name="LWPOLYLINE"><polyline class="cls-1" points="504.02 296.96 503.86 297.97 503.63 298.92 503.32 299.81 502.94 300.62 502.5 301.36 501.98 302.02 501.41 302.6 500.78 303.09 500.09 303.48 499.36 303.79 498.57 304 497.75 304.12 496.89 304.13 495.99 304.06 495.07 303.88 494.13 303.62"/></g><g id="LWPOLYLINE-33" data-name="LWPOLYLINE"><polyline class="cls-1" points="494.13 303.62 493.12 303.32 492.12 303.13 491.16 303.04 490.23 303.05 489.33 303.16 488.48 303.37 487.68 303.68 486.93 304.08 486.23 304.58 485.6 305.18 485.02 305.86 484.52 306.62"/></g><g id="LINE-83" data-name="LINE"><line class="cls-1" x1="512.03" y1="280.35" x2="502.56" y2="285.81"/></g><g id="LINE-84" data-name="LINE"><line class="cls-1" x1="513.5" y1="291.49" x2="504.03" y2="296.96"/></g><g id="LINE-85" data-name="LINE"><line class="cls-1" x1="490.74" y1="303.03" x2="484.52" y2="306.62"/></g><g id="LINE-86" data-name="LINE"><line class="cls-1" x1="14.05" y1="166.19" x2="211.2" y2="280"/></g><g id="LINE-87" data-name="LINE"><line class="cls-1" x1="14.05" y1="179.56" x2="14.05" y2="166.19"/></g><g id="LINE-88" data-name="LINE"><line class="cls-1" x1="14.05" y1="179.56" x2="211.2" y2="293.37"/></g><g id="LINE-89" data-name="LINE"><line class="cls-1" x1="0.21" y1="148.48" x2="18.1" y2="138.16"/></g><g id="LINE-90" data-name="LINE"><line class="cls-1" x1="18.1" y1="138.16" x2="48.78" y2="146.15"/></g><g id="LINE-91" data-name="LINE"><line class="cls-1" x1="48.78" y1="146.15" x2="211.2" y2="239.91"/></g><g id="LINE-92" data-name="LINE"><line class="cls-1" x1="0.21" y1="148.48" x2="14.05" y2="166.19"/></g><g id="LINE-93" data-name="LINE"><line class="cls-1" x1="92.97" y1="120.63" x2="211.2" y2="188.89"/></g><g id="LINE-94" data-name="LINE"><line class="cls-1" x1="79.13" y1="102.92" x2="92.97" y2="120.63"/></g><g id="LINE-95" data-name="LINE"><line class="cls-1" x1="79.13" y1="102.92" x2="97.02" y2="92.6"/></g><g id="LINE-96" data-name="LINE"><line class="cls-1" x1="97.02" y1="92.6" x2="127.7" y2="100.59"/></g><g id="LINE-97" data-name="LINE"><line class="cls-1" x1="127.7" y1="100.59" x2="211.2" y2="148.8"/></g><g id="LINE-98" data-name="LINE"><line class="cls-1" x1="92.97" y1="134" x2="92.97" y2="120.63"/></g><g id="LINE-99" data-name="LINE"><line class="cls-1" x1="92.97" y1="134" x2="211.2" y2="202.25"/></g><g id="LINE-100" data-name="LINE"><line class="cls-1" x1="0.21" y1="148.48" x2="0.21" y2="161.85"/></g><g id="LINE-101" data-name="LINE"><line class="cls-1" x1="0.21" y1="161.85" x2="14.05" y2="179.56"/></g><g id="LINE-102" data-name="LINE"><line class="cls-1" x1="79.13" y1="102.92" x2="79.13" y2="116.29"/></g><g id="LINE-103" data-name="LINE"><line class="cls-1" x1="79.13" y1="116.29" x2="92.97" y2="134"/></g><g id="LINE-104" data-name="LINE"><line class="cls-2" x1="470.91" y1="70.52" x2="425.73" y2="44.44"/></g><g id="LINE-105" data-name="LINE"><line class="cls-2" x1="388.85" y1="23.15" x2="376.46" y2="15.99"/></g><g id="LINE-106" data-name="LINE"><line class="cls-2" x1="369.34" y1="374.71" x2="361.99" y2="378.96"/></g></g></g></svg>