<?xml version="1.0" encoding="utf-8"?>
<!-- Generator: Adobe Illustrator 21.1.0, SVG Export Plug-In . SVG Version: 6.00 Build 0)  -->
<svg version="1.1" id="图层_1" xmlns="http://www.w3.org/2000/svg" xmlns:xlink="http://www.w3.org/1999/xlink" x="0px" y="0px"
	 viewBox="0 0 168 169.4" style="enable-background:new 0 0 168 169.4;" xml:space="preserve">
<style type="text/css">
	.st0{fill:none;stroke:#000000;stroke-width:0.43;stroke-linecap:round;stroke-linejoin:round;}
</style>
<title>资源 1</title>
<g id="图层_2">
	<g id="_0">
		<g id="LINE">
			<line class="st0" x1="167.8" y1="62.3" x2="102.8" y2="99.8"/>
		</g>
		<g id="LINE-2">
			<line class="st0" x1="162.8" y1="53.6" x2="167.8" y2="62.3"/>
		</g>
		<g id="LINE-3">
			<line class="st0" x1="97.8" y1="91.2" x2="162.8" y2="53.6"/>
		</g>
		<g id="LINE-4">
			<line class="st0" x1="102.8" y1="99.8" x2="97.8" y2="91.2"/>
		</g>
		<g id="LINE-5">
			<line class="st0" x1="101.1" y1="168.2" x2="102.8" y2="169.2"/>
		</g>
		<g id="LINE-6">
			<line class="st0" x1="102.8" y1="169.2" x2="102.8" y2="99.8"/>
		</g>
		<g id="LINE-7">
			<line class="st0" x1="97.8" y1="91.2" x2="5.2" y2="37.8"/>
		</g>
		<g id="LINE-8">
			<line class="st0" x1="5.2" y1="37.8" x2="0.2" y2="40.6"/>
		</g>
		<g id="LINE-9">
			<line class="st0" x1="0.2" y1="40.6" x2="0.2" y2="110"/>
		</g>
		<g id="LINE-10">
			<line class="st0" x1="0.2" y1="110" x2="1.8" y2="110.9"/>
		</g>
		<g id="LINE-11">
			<line class="st0" x1="1.8" y1="110.9" x2="1.8" y2="105.7"/>
		</g>
		<g id="LINE-12">
			<line class="st0" x1="1.8" y1="105.7" x2="101.1" y2="163"/>
		</g>
		<g id="LINE-13">
			<line class="st0" x1="101.1" y1="163" x2="101.1" y2="168.2"/>
		</g>
		<g id="LINE-14">
			<line class="st0" x1="167.8" y1="131.6" x2="102.8" y2="169.2"/>
		</g>
		<g id="LINE-15">
			<line class="st0" x1="167.8" y1="131.6" x2="167.8" y2="62.3"/>
		</g>
		<g id="LINE-16">
			<line class="st0" x1="70.3" y1="0.2" x2="5.2" y2="37.8"/>
		</g>
		<g id="LINE-17">
			<line class="st0" x1="162.8" y1="53.6" x2="70.3" y2="0.2"/>
		</g>
		<g id="LINE-18">
			<line class="st0" x1="6.3" y1="108.3" x2="1.8" y2="110.9"/>
		</g>
	</g>
</g>
</svg>
