<?xml version="1.0" encoding="utf-8"?>
<!-- Generator: Adobe Illustrator 21.1.0, SVG Export Plug-In . SVG Version: 6.00 Build 0)  -->
<svg version="1.1" id="图层_1" xmlns="http://www.w3.org/2000/svg" xmlns:xlink="http://www.w3.org/1999/xlink" x="0px" y="0px"
	 viewBox="0 0 595 840.9" style="enable-background:new 0 0 595 840.9;" xml:space="preserve">
<style type="text/css">
	.st0{fill:#0F3567;}
	.st1{fill:#FFFFFF;}
	.st2{fill:#10386C;}
	.st3{fill:#5A5858;}
	.st4{fill:none;stroke:#000000;stroke-width:0.42;stroke-linecap:round;stroke-linejoin:round;}
	.st5{fill:none;stroke:#808080;stroke-width:0.42;stroke-linecap:round;stroke-linejoin:round;}
</style>
<title>资源 1</title>
<g id="图层_2">
	<g id="图层_1-2">
		<g>
			<defs>
				<rect id="SVGID_1_" y="0" width="595" height="840.9"/>
			</defs>
			<clipPath id="SVGID_2_">
				<use xlink:href="#SVGID_1_"  style="overflow:visible;"/>
			</clipPath>
		</g>
		<polyline class="st0" points="247.1,262.6 227.5,262.5 225.1,267 237,267 241.2,275.6 214.9,275.5 228.1,249.2 231.5,256 
			243.9,256.1 234.4,237 220.8,237 199.9,278.5 191,260.8 205.3,260.9 217.3,237 174.9,236.8 165.1,256.2 151.7,256.2 161.5,236.7 
			148.1,236.7 126.3,279.8 139.7,279.9 149.4,260.6 162.8,260.7 153.1,279.9 166.4,279.9 186,241.4 202.6,241.4 194.8,256.3 
			181.8,256.3 178.9,262.1 187.7,280.1 255.8,280.2 		"/>
		<path class="st1" d="M136,273.9l2.6-1.9c1.1,1.4,0.8,3.5-0.6,4.5c-1,0.7-2.3,0.9-3.4,0.3c-1.3-0.7-2-2.2-1.7-3.6
			c0.3-1.5,1.6-2.5,3.1-2.5"/>
		<path class="st1" d="M138.2,269.6c0.2,0.1,0.2,0.4,0.1,0.6c-0.1,0.2-0.4,0.3-0.7,0.2c0,0,0,0,0,0c-0.2-0.2-0.2-0.4-0.1-0.7
			C137.7,269.5,138,269.5,138.2,269.6C138.2,269.6,138.2,269.6,138.2,269.6"/>
		<path class="st1" d="M142.1,261.8c0.2,0.1,0.3,0.4,0.2,0.7c-0.1,0.2-0.4,0.3-0.6,0.2c0,0-0.1,0-0.1-0.1c-0.2-0.1-0.3-0.3-0.2-0.5
			c0,0,0-0.1,0.1-0.1C141.6,261.8,141.8,261.7,142.1,261.8C142.1,261.8,142.1,261.8,142.1,261.8"/>
		<path class="st1" d="M140.2,265.7c0.2,0.1,0.3,0.4,0.2,0.6c0,0,0,0.1-0.1,0.1c-0.1,0.2-0.4,0.2-0.6,0.1c-0.2-0.1-0.3-0.4-0.2-0.7
			c0,0,0,0,0,0C139.7,265.7,139.9,265.6,140.2,265.7"/>
		<path class="st1" d="M170.9,258c0.2,0.1,0.3,0.4,0.2,0.7c0,0,0,0,0,0c-0.2,0.2-0.4,0.2-0.7,0.1c-0.2-0.2-0.2-0.4-0.1-0.7
			C170.5,257.9,170.7,257.9,170.9,258"/>
		<path class="st1" d="M180.7,238.6c0.2,0.1,0.3,0.4,0.2,0.7c-0.1,0.2-0.4,0.3-0.6,0.2c0,0,0,0-0.1,0c-0.2-0.1-0.3-0.3-0.2-0.5
			c0,0,0-0.1,0.1-0.1C180.2,238.6,180.5,238.5,180.7,238.6C180.7,238.6,180.7,238.6,180.7,238.6"/>
		<path class="st1" d="M186.6,238.7c0.2,0.1,0.3,0.4,0.2,0.6c0,0,0,0.1-0.1,0.1c-0.1,0.2-0.4,0.2-0.6,0.1c-0.2-0.1-0.3-0.4-0.2-0.7
			C186.1,238.6,186.4,238.5,186.6,238.7"/>
		<path class="st1" d="M192.5,238.7c0.2,0.1,0.3,0.4,0.2,0.6c0,0,0,0.1-0.1,0.1c-0.1,0.2-0.3,0.3-0.5,0.2c0,0-0.1,0-0.1-0.1
			c-0.2-0.1-0.3-0.4-0.2-0.6c0,0,0,0,0,0C192,238.6,192.2,238.5,192.5,238.7"/>
		<path class="st1" d="M198.4,238.7c0.2,0.1,0.2,0.4,0.1,0.6c-0.1,0.2-0.4,0.3-0.6,0.2c0,0-0.1,0-0.1-0.1c-0.2-0.1-0.2-0.4-0.1-0.6
			C197.8,238.6,198.1,238.6,198.4,238.7C198.3,238.7,198.3,238.7,198.4,238.7"/>
		<path class="st1" d="M204.2,238.7c0.2,0.1,0.3,0.4,0.2,0.7c0,0,0,0,0,0c-0.2,0.2-0.4,0.2-0.7,0.1c-0.2-0.2-0.2-0.4-0.1-0.7
			C203.7,238.7,204,238.6,204.2,238.7"/>
		<path class="st1" d="M178.8,242.5c0.2,0.2,0.2,0.4,0.1,0.7c-0.2,0.2-0.4,0.2-0.7,0.1c-0.2-0.1-0.2-0.4-0.1-0.6
			C178.3,242.4,178.6,242.4,178.8,242.5C178.8,242.5,178.8,242.5,178.8,242.5"/>
		<path class="st1" d="M176.8,246.4c0.2,0.1,0.3,0.4,0.2,0.6c0,0,0,0.1-0.1,0.1c-0.1,0.2-0.4,0.2-0.6,0.1c-0.2-0.1-0.3-0.4-0.2-0.6
			c0,0,0-0.1,0.1-0.1C176.4,246.3,176.6,246.3,176.8,246.4"/>
		<path class="st1" d="M174.9,250.3c0.2,0.1,0.2,0.4,0.1,0.6c-0.1,0.2-0.4,0.3-0.7,0.2c0,0,0,0,0,0c-0.2-0.2-0.2-0.4-0.1-0.7
			C174.4,250.2,174.6,250.1,174.9,250.3C174.9,250.3,174.9,250.3,174.9,250.3"/>
		<path class="st1" d="M172.9,254.1c0.2,0.1,0.3,0.4,0.2,0.6c0,0,0,0.1-0.1,0.1c-0.1,0.2-0.3,0.3-0.5,0.2c0,0-0.1,0-0.1-0.1
			c-0.2-0.1-0.3-0.4-0.2-0.6c0,0,0,0,0,0C172.4,254.1,172.7,254,172.9,254.1"/>
		<path class="st1" d="M210.1,238.7c0.2,0.1,0.3,0.4,0.2,0.6c0,0,0,0.1-0.1,0.1c-0.1,0.2-0.4,0.2-0.6,0.1c-0.2-0.1-0.3-0.4-0.2-0.6
			c0,0,0-0.1,0.1-0.1C209.6,238.7,209.9,238.6,210.1,238.7"/>
		<path class="st1" d="M205.8,246.3c0.2,0.1,0.3,0.4,0.2,0.6c0,0,0,0.1-0.1,0.1c-0.1,0.2-0.4,0.2-0.6,0.1c-0.2-0.1-0.3-0.4-0.2-0.6
			c0,0,0-0.1,0.1-0.1C205.3,246.2,205.6,246.2,205.8,246.3"/>
		<path class="st1" d="M204.2,250.4c0.2,0.1,0.3,0.4,0.2,0.6c0,0,0,0.1-0.1,0.1c-0.1,0.2-0.4,0.2-0.6,0.1c-0.2-0.1-0.3-0.4-0.2-0.6
			c0,0,0-0.1,0.1-0.1C203.8,250.3,204,250.2,204.2,250.4"/>
		<path class="st1" d="M208.1,242.6c0.2,0.2,0.2,0.4,0.1,0.7c-0.1,0.2-0.4,0.2-0.6,0.1c-0.2-0.1-0.3-0.4-0.2-0.7c0,0,0,0,0,0
			C207.6,242.6,207.9,242.5,208.1,242.6"/>
		<path class="st1" d="M202.3,254.3c0.2,0.1,0.3,0.4,0.1,0.7c-0.1,0.2-0.4,0.3-0.7,0.1c-0.2-0.2-0.2-0.4-0.1-0.7
			C201.8,254.2,202.1,254.1,202.3,254.3"/>
		<path class="st1" d="M200.3,258.2c0.2,0.1,0.3,0.4,0.2,0.6c0,0,0,0,0,0c-0.1,0.2-0.4,0.3-0.6,0.2c0,0-0.1,0-0.1-0.1
			c-0.2-0.1-0.3-0.4-0.1-0.6C199.9,258.1,200.1,258,200.3,258.2"/>
		<path class="st1" d="M194.2,258.1c0.2,0.2,0.2,0.4,0.1,0.7c-0.1,0.2-0.4,0.3-0.7,0.1s-0.3-0.4-0.1-0.7
			C193.7,258,194,258,194.2,258.1"/>
		<path class="st1" d="M188,258.1c0.2,0.1,0.3,0.4,0.2,0.6c0,0,0,0.1-0.1,0.1c-0.1,0.2-0.4,0.2-0.6,0.1c-0.2-0.1-0.3-0.4-0.2-0.7
			c0,0,0,0,0,0C187.5,258,187.8,258,188,258.1"/>
		<path class="st1" d="M186.1,262.1c0.2,0.1,0.3,0.4,0.2,0.6c0,0,0,0.1-0.1,0.1c-0.1,0.2-0.4,0.2-0.6,0.1c-0.2-0.1-0.3-0.4-0.2-0.7
			c0,0,0,0,0,0C185.6,262.1,185.8,262,186.1,262.1"/>
		<path class="st1" d="M188.2,266.2c0.2,0.2,0.2,0.4,0.1,0.7c-0.1,0.2-0.4,0.3-0.6,0.2c0,0-0.1,0-0.1-0.1c-0.2-0.1-0.2-0.4-0.1-0.6
			C187.6,266.1,187.9,266.1,188.2,266.2C188.2,266.2,188.2,266.2,188.2,266.2"/>
		<path class="st1" d="M190.2,270.3c0.2,0.2,0.2,0.4,0.1,0.7c-0.1,0.2-0.3,0.3-0.5,0.2c0,0-0.1,0-0.1-0.1c-0.2-0.1-0.3-0.4-0.2-0.6
			c0,0,0,0,0,0C189.7,270.2,190,270.2,190.2,270.3"/>
		<path class="st1" d="M192.2,274.4c0.2,0.1,0.3,0.4,0.2,0.6c0,0,0,0,0,0c-0.1,0.2-0.4,0.3-0.6,0.2c0,0,0,0-0.1,0
			c-0.2-0.1-0.3-0.4-0.1-0.6C191.8,274.3,192,274.3,192.2,274.4"/>
		<path class="st1" d="M194.3,278.5c0.2,0.1,0.2,0.4,0.1,0.6c-0.1,0.2-0.4,0.3-0.6,0.2c0,0-0.1,0-0.1-0.1c-0.2-0.1-0.2-0.4-0.1-0.6
			C193.8,278.4,194.1,278.3,194.3,278.5C194.3,278.5,194.3,278.5,194.3,278.5"/>
		<path class="st1" d="M198.5,278.5c0.2,0.1,0.2,0.4,0.1,0.6c-0.1,0.2-0.4,0.3-0.6,0.2c0,0,0,0,0,0c-0.2-0.1-0.3-0.4-0.2-0.7
			c0,0,0,0,0,0C198,278.4,198.3,278.4,198.5,278.5"/>
		<path class="st1" d="M203.2,278.3c0.2,0.1,0.3,0.4,0.2,0.7c-0.1,0.2-0.4,0.3-0.7,0.2c-0.2-0.1-0.3-0.4-0.2-0.6
			C202.7,278.3,203,278.2,203.2,278.3"/>
		<path class="st1" d="M207.4,278.2c0.2,0.1,0.3,0.4,0.1,0.6c0,0,0,0,0,0c-0.1,0.2-0.4,0.3-0.6,0.2c0,0,0,0,0,0
			c-0.2-0.1-0.3-0.4-0.2-0.7c0,0,0,0,0,0C206.9,278.1,207.1,278.1,207.4,278.2"/>
		<path class="st1" d="M226.4,238.8c0.2,0.1,0.3,0.4,0.2,0.7c0,0,0,0,0,0c-0.2,0.2-0.4,0.2-0.7,0.1c-0.2-0.1-0.2-0.4-0.1-0.6
			C225.9,238.7,226.1,238.7,226.4,238.8C226.4,238.8,226.4,238.8,226.4,238.8"/>
		<path class="st1" d="M224.5,242.7c0.2,0.1,0.3,0.4,0.2,0.6c0,0,0,0.1-0.1,0.1c-0.1,0.2-0.3,0.3-0.5,0.2c0,0,0,0-0.1,0
			c-0.2-0.1-0.3-0.4-0.2-0.6c0,0,0,0,0,0C223.9,242.7,224.2,242.6,224.5,242.7"/>
		<path class="st1" d="M222.5,246.7c0.2,0.1,0.3,0.4,0.2,0.7c-0.1,0.2-0.4,0.3-0.7,0.2c0,0,0,0,0,0c-0.2-0.2-0.2-0.4-0.1-0.7
			C222,246.7,222.2,246.6,222.5,246.7C222.5,246.7,222.5,246.7,222.5,246.7"/>
		<path class="st1" d="M219.1,254.9c0.2,0.2,0.2,0.4,0.1,0.7c-0.2,0.2-0.4,0.2-0.6,0.1c-0.2-0.1-0.2-0.4-0.1-0.6
			C218.5,254.8,218.8,254.7,219.1,254.9C219.1,254.9,219.1,254.9,219.1,254.9"/>
		<path class="st1" d="M217.1,258.9c0.2,0.1,0.3,0.4,0.2,0.7c0,0,0,0,0,0c-0.2,0.2-0.4,0.2-0.7,0.1c-0.2-0.1-0.3-0.4-0.1-0.6
			c0,0,0,0,0,0C216.6,258.8,216.8,258.8,217.1,258.9C217.1,258.9,217.1,258.9,217.1,258.9"/>
		<path class="st1" d="M214.7,262.7c0.2,0.1,0.2,0.4,0.1,0.6c-0.1,0.2-0.4,0.3-0.6,0.2c0,0,0,0,0,0c-0.2-0.1-0.3-0.4-0.2-0.7
			C214.2,262.6,214.5,262.5,214.7,262.7C214.7,262.6,214.7,262.6,214.7,262.7"/>
		<path class="st1" d="M210.8,270.6c0.2,0.1,0.3,0.4,0.2,0.6c0,0,0,0,0,0c-0.1,0.2-0.4,0.3-0.7,0.2c0,0,0,0,0,0
			c-0.2-0.2-0.2-0.4-0.1-0.7C210.3,270.5,210.6,270.5,210.8,270.6"/>
		<path class="st1" d="M208.9,274.5c0.2,0.1,0.3,0.4,0.2,0.7c0,0,0,0,0,0c-0.2,0.2-0.4,0.2-0.7,0.1c-0.2-0.1-0.3-0.4-0.2-0.7
			c0,0,0,0,0,0C208.4,274.5,208.6,274.4,208.9,274.5"/>
		<path class="st1" d="M212.8,266.6c0.2,0.1,0.3,0.4,0.2,0.6c0,0,0,0,0,0c-0.1,0.2-0.4,0.3-0.7,0.2c-0.2-0.1-0.3-0.4-0.2-0.6
			c0,0,0-0.1,0.1-0.1C212.3,266.5,212.5,266.5,212.8,266.6C212.7,266.6,212.7,266.6,212.8,266.6"/>
		<path class="st1" d="M221,250.9c0.2,0.1,0.3,0.4,0.2,0.6c0,0,0,0,0,0c-0.1,0.2-0.4,0.3-0.7,0.2c0,0,0,0,0,0
			c-0.2-0.2-0.2-0.4-0.1-0.6C220.6,250.9,220.8,250.8,221,250.9"/>
		<path class="st1" d="M230.2,238.8c0.2,0.2,0.2,0.4,0.1,0.7c-0.1,0.2-0.4,0.3-0.6,0.1c0,0,0,0,0,0c-0.2-0.1-0.3-0.3-0.2-0.6
			c0,0,0,0,0,0C229.6,238.7,229.9,238.6,230.2,238.8C230.2,238.8,230.2,238.8,230.2,238.8"/>
		<path class="st1" d="M232,242.8c0.2,0.1,0.3,0.3,0.2,0.5c0,0,0,0,0,0.1c-0.1,0.2-0.3,0.3-0.6,0.2c0,0,0,0,0,0
			c-0.2-0.1-0.3-0.4-0.2-0.6c0,0,0,0,0,0C231.5,242.7,231.8,242.7,232,242.8C232,242.8,232,242.8,232,242.8"/>
		<path class="st1" d="M234.9,247.2c1.8,0,3.2,1.5,3.2,3.2s-1.5,3.2-3.2,3.2c-1.8,0-3.2-1.5-3.2-3.2
			C231.7,248.6,233.1,247.2,234.9,247.2"/>
		<polyline class="st1" points="231.9,248.1 232.4,244.8 235.2,246.6 233.2,246.4 		"/>
		<path class="st1" d="M144.1,258c0.2,0.1,0.2,0.4,0.1,0.6c-0.1,0.2-0.4,0.3-0.6,0.2c0,0-0.1,0-0.1-0.1c-0.2-0.1-0.2-0.4-0.1-0.6
			C143.5,257.9,143.8,257.8,144.1,258C144,258,144,258,144.1,258"/>
		<path class="st1" d="M149.4,258c0.2,0.1,0.3,0.4,0.2,0.7c0,0,0,0,0,0c-0.2,0.2-0.4,0.2-0.7,0.1c-0.2-0.2-0.2-0.4-0.1-0.7
			C148.9,257.9,149.2,257.9,149.4,258"/>
		<path class="st1" d="M160.2,258c0.2,0.1,0.3,0.4,0.1,0.6c-0.1,0.2-0.4,0.3-0.6,0.1c-0.2-0.1-0.3-0.4-0.2-0.6c0,0,0,0,0,0
			C159.7,257.9,159.9,257.8,160.2,258C160.2,258,160.2,258,160.2,258"/>
		<path class="st1" d="M165.6,258c0.2,0.1,0.3,0.4,0.1,0.7c-0.1,0.2-0.4,0.3-0.7,0.1c-0.2-0.1-0.3-0.4-0.1-0.6
			C165.1,257.9,165.4,257.9,165.6,258"/>
		<path class="st1" d="M154.8,258c0.2,0.1,0.3,0.4,0.2,0.6c0,0,0,0.1-0.1,0.1c-0.1,0.2-0.4,0.2-0.6,0.1c-0.2-0.1-0.3-0.3-0.2-0.5
			c0,0,0-0.1,0.1-0.1C154.3,258,154.6,257.9,154.8,258C154.8,258,154.8,258,154.8,258"/>
		<path class="st2" d="M286.1,256.7l0.1-4.9h-7.3v4.9 M278,245.7h9.1v1.6H278L278,245.7z M277.1,250.2l10.7,0.1v9.4h-1.7v-1.4h-7.3
			v1.4h-1.7L277.1,250.2z M284,237.3l-0.4,0.7c1.4,2.9,3.7,5.3,6.6,6.9c-0.4,0.5-0.8,1.1-1.2,1.6c-2.6-1.8-4.8-4.2-6.4-7
			c-1.6,2.8-3.8,5.2-6.4,7.1c-0.3-0.5-0.7-1-1.1-1.4c3-1.9,5.3-4.6,6.8-7.8L284,237.3z M273.2,252.9v-11.4h-2.7l-0.1,11.4H273.2z
			 M268.8,239.9h6.1l-0.1,16.1h-1.7v-1.6h-2.7v2h-1.6V239.9z"/>
		<polyline class="st2" points="293.5,256.1 303.4,256.1 303.5,241 294.8,241 294.8,239.2 314.2,239.3 314.2,241.1 305.5,241.1 
			305.4,256.2 315.4,256.2 315.4,258 293.5,257.9 		"/>
		<path class="st2" d="M318.7,257.8c6.3-2.8,9.7-6.9,10.1-12.5h-9.7v-1.8h9.7c0.1-2,0.1-4.1,0.1-6.1h1.9c0,2,0,4.1-0.1,6.1l10,0.1
			v1.8l-10-0.1c1.1,6.1,4.6,10,10.6,12c-0.6,0.5-1.2,1.1-1.7,1.8c-4.7-1.8-8.3-5.7-9.7-10.6c-1.1,4.6-4.5,8.2-9.9,11
			C319.7,259,319.2,258.4,318.7,257.8"/>
		<path class="st2" d="M356.2,240.6v7.5c0,5.5-1.4,9.4-4.1,11.8c-0.4-0.5-0.9-1-1.3-1.6c2.4-2,3.6-5.3,3.6-9.8l0.1-9.7h8.4
			l-0.1,17.1c0,0.7,0.3,1.1,0.8,1.1h0.5c0.5,0,0.8-0.4,1-1.3c0.1-1.2,0.2-2.5,0.3-3.8c0.6,0.3,1.1,0.5,1.7,0.7
			c-0.2,1.5-0.3,2.8-0.4,3.7c-0.2,1.6-1,2.4-2.3,2.4h-1.2c-1.4,0-2.2-0.9-2.2-2.6l0.1-15.7 M344.3,251.5c1.7-2.5,2.9-5.3,3.7-8.2
			h-3.4v-1.5h3.5v-4.4h1.7v4.4h3.2v1.6h-3.2v3.7l0.9-0.8c1.1,1,2,1.9,2.7,2.6l-1.2,1.3c-0.9-1.1-1.7-1.9-2.4-2.6l-0.1,12H348v-12.2
			c-0.7,2.2-1.7,4.3-3,6.2C344.8,252.9,344.5,252.2,344.3,251.5L344.3,251.5z"/>
		<path class="st2" d="M388.7,253.9h-4.9v3h4.9V253.9z M388.7,240.2h-4.9v3.1h4.9V240.2z M382.3,238.7h8v6.7h-1.6v-0.8h-4.9v0.7
			h-1.6L382.3,238.7z M378.3,253.8h-4.8v3h4.8V253.8z M378.3,240.2h-4.8v3.1h4.8V240.2z M371.8,238.7h8v6.6h-1.6v-0.7h-4.8v0.9h-1.6
			L371.8,238.7z M370.6,246.9h9.1c0.3-0.6,0.4-1.3,0.5-1.9l1.6,0.2c-0.1,0.6-0.2,1.2-0.4,1.7h5c-0.6-0.4-1.3-0.8-1.9-1.3l1-1
			c1,0.6,1.9,1.2,2.6,1.8l-0.5,0.5h4.2v1.6h-8.7c1.7,1.7,4.8,2.5,9.2,2.5c-0.3,0.6-0.6,1.1-0.9,1.7c-0.4,0-0.8,0-1.1-0.1v7h-1.6
			v-1.3h-4.9v1.3h-1.6v-7.1h7.2c-4.3-0.6-7.1-1.9-8.3-4h-0.4c-0.8,1.8-3.6,3.1-8.2,4h7.3v7h-1.6v-1.2h-4.7v1.3h-1.6v-6.9l-1.3,0.2
			c-0.2-0.6-0.5-1.1-0.8-1.6c5-0.7,8-1.5,9.1-2.7h-8.2V246.9z"/>
		<path class="st2" d="M395.4,257.9c6.6-3.8,10.1-10.4,10.5-20h2c-0.1,1.5-0.2,3.1-0.5,4.6c1.9,7.6,5.3,12.6,10.6,15
			c-0.7,0.7-1.2,1.3-1.7,1.9c-4.5-2.5-7.7-7-9.6-13.4c-1.7,6.2-5,10.7-9.9,13.7C396.4,259.1,395.9,258.5,395.4,257.9"/>
		<path class="st2" d="M426,249.3h6.2v-1.6H426V249.3z M426,246.4h6.2v-1.6H426V246.4z M426,243.5h6.2v-1.6H426V243.5z M431.7,238.3
			l1.4-0.8c0.7,0.7,1.2,1.5,1.7,2.3l-1,0.7h8.7v1.4h-8.6v1.6h7.6v1.3h-7.6v1.6h7.6v1.3h-7.6v1.6h8.7v1.4l-16.6-0.1v0.8h-1.6v-8
			c-0.8,0.9-1.6,1.7-2.4,2.4c-0.3-0.5-0.7-1.1-1.1-1.5c2.3-1.9,4.1-4.2,5.6-6.8l1.6,0.7c-0.4,0.7-0.8,1.4-1.3,2h6.4
			C432.7,239.7,432.2,239,431.7,238.3L431.7,238.3z M421.6,252.8l9.8,0.1v-1.6h1.6v1.6h9.8v1.4h-8c2.6,1.9,5.6,3.2,8.8,3.8
			c-0.4,0.6-0.8,1.2-1.1,1.7c-3.5-1-6.8-2.7-9.5-5.1v5.3h-1.6v-5.3c-2.8,2.3-6,4.1-9.5,5.1c-0.3-0.5-0.7-1-1.1-1.4
			c3.2-0.7,6.1-2.1,8.8-4h-7.9L421.6,252.8z"/>
		<path class="st2" d="M450.7,244.5h8.5v-3.2h1.7v3.2h4.4v1.5h-4.4v6.9c0,2.2-1,3.3-3.1,3.2h-2.6c-0.1-0.5-0.2-1.1-0.4-1.8
			c0.9,0.1,1.7,0.2,2.6,0.2c1.3,0,1.9-0.7,1.9-2.1v-5.3c-2.1,3.1-4.9,5.7-8.2,7.6c-0.3-0.5-0.7-1.1-1.1-1.6c3.3-1.7,6.1-4.1,8.2-7.1
			h-7.4 M466,240.5l-16.4-0.1l-0.1,16.9l16.4,0.1L466,240.5z M447.9,238.8l19.9,0.1l-0.1,21.1H466v-1.1h-16.5v1.1h-1.7L447.9,238.8z
			"/>
		<polyline class="st2" points="276.5,269.4 277.6,269.4 277.6,280.2 276.4,280.2 276.4,275.2 270.4,275.2 270.4,280.2 269.2,280.2 
			269.2,269.4 270.5,269.4 270.5,274.1 276.5,274.1 		"/>
		<polyline class="st2" points="284.6,269.5 285.8,269.5 285.7,280.2 284.6,280.2 		"/>
		<polyline class="st2" points="300.4,269.6 300.4,270.6 296.8,270.6 296.8,280.2 295.5,280.2 295.6,270.6 291.9,270.6 291.9,269.5 
					"/>
		<path class="st2" d="M315.7,270.6v3.7h3.5c1.7,0,2.6-0.7,2.6-1.9s-0.9-1.7-2.6-1.8 M323.9,280.4h-1.7l-3.7-4.9h-2.9v4.8h-1.2
			v-10.7h5c2.3,0.1,3.5,1.1,3.7,2.9s-1.1,2.9-3.2,3L323.9,280.4z"/>
		<path class="st2" d="M334.3,270.6c-2.3,0.2-3.7,1.7-3.9,4.5c0.2,2.8,1.4,4.3,3.8,4.5c2.5-0.1,3.8-1.6,4-4.4
			C338,272.3,336.8,270.8,334.3,270.6 M334.3,280.6c-3.2-0.2-4.9-2-5.1-5.3c0.2-3.7,1.9-5.5,5.3-5.7c3.2,0.2,4.9,2.1,5.1,5.6
			C339.4,278.6,337.6,280.4,334.3,280.6L334.3,280.6z"/>
		<path class="st2" d="M349.7,275.4h-3v4h3.2c1.7,0,2.5-0.7,2.5-2.1C352.3,276.1,351.4,275.5,349.7,275.4 M349.6,270.7h-2.8v3.6h2.8
			c1.5-0.1,2.3-0.7,2.4-1.9C351.9,271.4,351.1,270.8,349.6,270.7L349.6,270.7z M350.1,280.4h-4.5l0.1-10.7h4.2
			c2.2,0.1,3.3,1,3.4,2.7c0,1.2-0.9,2.3-2.2,2.4c1.4,0.1,2.6,1.3,2.5,2.8C353.6,279.4,352.4,280.4,350.1,280.4L350.1,280.4z"/>
		<path class="st2" d="M364.8,270.6c-2.4,0.2-3.7,1.7-3.9,4.6c0.1,2.8,1.4,4.3,3.8,4.5c2.5-0.2,3.8-1.6,4-4.4
			C368.5,272.4,367.2,270.9,364.8,270.6 M364.7,280.6c-3.2-0.2-4.9-2-5-5.3c0.1-3.7,1.9-5.6,5.3-5.7c3.2,0.2,4.9,2.1,5,5.6
			C369.8,278.7,368,280.5,364.7,280.6L364.7,280.6z"/>
		<polyline class="st2" points="383.9,269.8 383.9,270.8 380.2,270.8 380.2,280.5 379,280.5 379,270.8 375.4,270.8 375.4,269.8 		
			"/>
		<path class="st2" d="M402.8,275.1h4.6v3.9c-0.9,1.2-2.5,1.7-4.6,1.7c-3.4-0.2-5.2-2-5.3-5.3c0.1-3.7,1.9-5.6,5.1-5.7
			c2.1-0.1,4,1.2,4.7,3.2l-1.3,0.3c-0.5-1.5-1.9-2.5-3.5-2.4c-2.3,0.2-3.5,1.7-3.8,4.6c0.2,2.8,1.5,4.3,4,4.4
			c1.3,0.1,2.6-0.3,3.5-1.3v-2.4h-3.4"/>
		<path class="st2" d="M415.1,271v3.8h3.5c1.7-0.1,2.6-0.7,2.6-2s-0.9-1.7-2.6-1.7 M423.3,280.6h-1.7l-3.7-4.8h-2.8v4.8h-1.3
			l0.1-10.7h5c2.3,0.1,3.5,1.1,3.6,2.9s-1.1,2.8-3.2,3L423.3,280.6z"/>
		<path class="st2" d="M433.8,270.9c-2.4,0.2-3.7,1.7-3.9,4.6c0.1,2.8,1.4,4.3,3.8,4.5c2.5-0.2,3.8-1.6,4-4.4
			C437.5,272.7,436.2,271.1,433.8,270.9 M433.7,280.9c-3.2-0.2-4.9-2-5-5.3c0.1-3.7,1.9-5.6,5.3-5.7c3.2,0.2,4.9,2.1,5,5.6
			C438.8,279,437,280.8,433.7,280.9L433.7,280.9z"/>
		<path class="st2" d="M453.6,270v6.3c0.1,3.1-1.4,4.6-4.3,4.6s-4.3-1.6-4.2-4.7V270h1.3v6.2c-0.1,2.5,0.9,3.7,2.9,3.7
			c2.2,0.1,3.2-1.1,3.1-3.7V270"/>
		<path class="st2" d="M464.7,271.2h-3.1v4.2h3.1c1.7,0,2.6-0.7,2.6-2.2S466.3,271.2,464.7,271.2 M464.9,276.5h-3.4v4.4h-1.2
			l0.1-10.7h4.6c2.2,0.1,3.4,1.2,3.6,3.2C468.6,275.4,467.3,276.5,464.9,276.5L464.9,276.5z"/>
		<polyline class="st2" points="267.8,264.4 267.8,264 468.6,264.6 468.6,265.1 		"/>
		<path class="st3" d="M139.4,293.6h-4.9v4h4.9V293.6z M128.4,297.6h4.8v-4h-4.8V297.6z M127,292.4h6.1v-3.5h1.3v3.5h6.2v7.2h-1.3
			v-0.8h-4.9v5.9h-1.3v-5.9h-4.8v0.8H127V292.4z"/>
		<path class="st3" d="M170.7,291h-8.9v2.1h8.9V291z M161.6,300.9l0.8-0.8c1.1,0.9,2,1.6,2.6,2.2l-0.9,1
			C163.1,302.2,162.3,301.5,161.6,300.9L161.6,300.9z M162.8,296.2h8.3c0.8,0,1.3-0.2,1.4-0.8c0.2-0.6,0.3-1.2,0.4-1.8
			c0.4,0.2,0.8,0.4,1.3,0.5c-0.2,0.7-0.3,1.3-0.4,1.7c-0.3,1-1.3,1.6-2.3,1.4h-8.9c-1,0.1-2-0.6-2.1-1.6c0-0.2,0-0.3,0-0.5v-5.3
			h11.4v4.9h-1.3v-0.5h-8.9v0.9C161.8,295.8,162.1,296.1,162.8,296.2L162.8,296.2z M158.6,298.9l11,0.1v-1.1h1.4v1.1h3.4v1.1H171
			v2.6c0,1.3-0.7,1.9-2,1.9h-2.6c0-0.4-0.1-0.8-0.2-1.4c0.8,0.1,1.6,0.1,2.4,0.1c0.7,0,1.1-0.3,1.1-1V300l-11-0.1L158.6,298.9z"/>
		<path class="st3" d="M199.7,291.5v5.2c0,3.8-1,6.5-2.8,8.2c-0.3-0.4-0.6-0.7-1-1.1c1.7-1.5,2.5-3.8,2.5-6.8v-6.7h5.9l-0.1,11.9
			c0,0.5,0.2,0.8,0.5,0.8h0.4c0.4,0,0.6-0.3,0.7-0.8c0.1-0.8,0.2-1.7,0.2-2.6c0.4,0.2,0.8,0.4,1.2,0.5c-0.1,1-0.2,1.9-0.3,2.6
			c-0.2,1.1-0.7,1.7-1.6,1.7h-0.8c-1,0-1.5-0.7-1.5-1.9l0.1-10.9 M191.4,299.1c1.2-1.7,2-3.7,2.5-5.7h-2.3v-1.1h2.5v-3.1h1.1v3.1
			h2.2v1.1h-2.2v2.6l0.7-0.7c0.8,0.7,1.4,1.3,1.9,1.8l-0.8,0.8c-0.7-0.7-1.2-1.3-1.7-1.7v8.3H194v-8.5c-0.5,1.6-1.2,3-2.1,4.4
			C191.8,300,191.6,299.6,191.4,299.1L191.4,299.1z"/>
		<path class="st3" d="M237.4,300.8h-3.4v2.1h3.4V300.8z M237.4,291.3h-3.4v2.2h3.4V291.3z M232.9,290.3h5.6v4.7h-1.1v-0.5h-3.4v0.5
			h-1.1L232.9,290.3z M230,300.8h-3.4v2h3.4V300.8z M230,291.2h-3.4v2.2h3.4V291.2z M225.5,290.2h5.6v4.6H230v-0.5h-3.4v0.7h-1.1
			V290.2z M224.7,296h6.4c0.2-0.4,0.3-0.9,0.4-1.4l1.1,0.1c-0.1,0.4-0.2,0.8-0.3,1.3h3.4c-0.4-0.3-0.9-0.6-1.3-0.9l0.7-0.7
			c0.6,0.4,1.3,0.8,1.9,1.2l-0.4,0.4h3v1h-6.1c1.2,1.2,3.4,1.8,6.5,1.7c-0.2,0.4-0.5,0.8-0.7,1.2l-0.8-0.1v4.8h-1.1v-0.8h-3.4v0.8
			h-1.1v-4.9h5c-3-0.5-4.9-1.4-5.8-2.8h-0.3c-0.6,1.3-2.5,2.2-5.8,2.8h5.1v4.9H230v-0.8h-3.3v0.9h-1.1v-4.9l-0.8,0.2
			c-0.2-0.4-0.4-0.8-0.7-1.1c3.5-0.4,5.7-1,6.4-1.9h-5.7L224.7,296z"/>
		<path class="st3" d="M256.9,303.7c4.6-2.6,7-7.3,7.3-14h1.4c-0.1,1.1-0.2,2.2-0.3,3.2c1.3,5.3,3.7,8.8,7.3,10.4l-1.2,1.4
			c-3.1-1.8-5.3-4.9-6.7-9.4c-0.9,4-3.4,7.4-6.9,9.5C257.6,304.5,257.2,304.1,256.9,303.7"/>
		<path class="st3" d="M297.2,292.1l0.7-0.8c1,0.7,1.9,1.5,2.8,2.4l-0.8,0.9C299.1,293.8,298.2,293,297.2,292.1 M296.2,296l0.7-0.8
			c1.2,1,2.1,1.7,2.8,2.3l-0.8,1C298.1,297.6,297.2,296.8,296.2,296L296.2,296z M295.2,300l6.2-0.5l0.1-9.8h1.2v9.7l2.5-0.2l0.1,1.1
			l-2.6,0.2v4.7h-1.2v-4.6l-6.1,0.5L295.2,300z M289.5,300.8c1.2-1.6,2.2-3.4,2.8-5.4h-2.5v-1.1h2.6V292l-2.3,0.2
			c0-0.4-0.1-0.8-0.3-1.1c2-0.2,4.1-0.4,6.1-0.7l0.4,1.2c-1,0.1-1.9,0.2-2.7,0.3v2.5h2.5v1.1h-2.5v1.8l0.7-0.7
			c0.8,0.7,1.5,1.3,2.1,1.9l-0.9,0.9c-0.7-0.7-1.3-1.4-1.9-2v7.7h-1.2V298c-0.5,1.5-1.3,2.9-2.2,4.1
			C290,301.7,289.8,301.3,289.5,300.8L289.5,300.8z"/>
		<path class="st3" d="M335.6,296.9h-5.1c0.4,1.6,1.3,3.1,2.4,4.3C334.1,300,335,298.5,335.6,296.9 M328.2,296.9v-1.1h4.1v-2.4h-4.1
			v-1.1h4.1v-2.5h1.3v2.5h4.3v1.1h-4.3v2.5h3.4v0.9c-0.6,1.9-1.7,3.7-3.2,5.2c1.3,1,2.8,1.7,4.4,2.2c-0.4,0.4-0.7,0.8-1,1.2
			c-1.6-0.6-3-1.5-4.3-2.6c-1.5,1.1-3.2,2-4.9,2.6c-0.2-0.4-0.5-0.7-0.8-1.1c1.7-0.5,3.3-1.3,4.8-2.4c-1.2-1.4-2.1-3.2-2.6-5
			L328.2,296.9z M322.3,298.1l2.3-0.7V294h-2.1v-1.1h2.1v-3.1h1.2v3.1h1.9v1.1h-1.9v3l1.8-0.5v1.2l-1.8,0.6v5.1
			c0.1,0.8-0.4,1.6-1.3,1.7c-0.1,0-0.2,0-0.4,0h-1.5c-0.1-0.4-0.1-0.9-0.2-1.4c0.5,0.1,0.9,0.1,1.4,0.1c0.4,0,0.7-0.2,0.7-0.7v-4.4
			l-2.1,0.7L322.3,298.1z"/>
		<path class="st3" d="M359.6,300.7h8v-1.9h-8V300.7z M367.6,295.8h-8v1.9h8V295.8z M359.6,305.3h-1.3v-8.2
			c-0.8,0.9-1.6,1.8-2.5,2.6c-0.2-0.4-0.5-0.8-0.8-1.2c1.9-1.6,3.6-3.5,4.8-5.6h-4.3v-1.1h4.9c0.3-0.7,0.5-1.4,0.8-2l1.3,0.3
			c-0.2,0.6-0.5,1.1-0.7,1.7h8.9v1.1h-9.5c-0.3,0.6-0.7,1.2-1.1,1.8h8.7v8.5c0.1,0.9-0.6,1.8-1.5,1.9c-0.2,0-0.3,0-0.5,0h-2.5
			c-0.1-0.4-0.1-0.8-0.2-1.3c0.8,0.1,1.6,0.1,2.3,0.1c0.5,0.1,1-0.2,1.1-0.7c0-0.1,0-0.2,0-0.3v-1.1h-8L359.6,305.3z"/>
		<path class="st3" d="M395.6,297.2h5.2v-2.1h-5.2V297.2z M400.8,291.9h-5.2v2.1h5.2V291.9z M394.4,290.7h7.5v7.9h-1.1v-0.4h-2.7
			c0.3,0.9,0.8,1.8,1.3,2.6c1.1-0.7,2.1-1.4,3-2.3l0.8,1c-1.1,0.8-2.2,1.5-3.1,2.1c1,1,2.2,1.7,3.5,2.2c-0.4,0.4-0.7,0.7-1,1.1
			c-2.8-1.4-4.8-3.9-5.6-6.8h-1.4v5.4c0.7-0.3,1.7-0.8,2.8-1.4c0,0.4,0,0.8,0.1,1.3c-1,0.4-1.9,0.9-2.8,1.4
			c-0.3,0.2-0.6,0.4-0.8,0.7l-1-1.1c0.3-0.2,0.5-0.7,0.5-1.1L394.4,290.7z M393.4,299.3c0.3,2-0.2,3.2-1.5,3.4
			c-0.5,0.1-1.1,0.1-1.6,0c-0.1-0.4-0.2-0.9-0.4-1.3c0.5,0.1,1,0.2,1.4,0.1c0.7-0.1,1-0.9,0.8-2.3c-0.3-1-0.8-2-1.4-2.8
			c0.4-1.1,0.9-2.7,1.5-4.6h-2.3l-0.1,13.9h-1.2l0.1-14.9h4.8v1.1c-0.5,1.5-1,2.9-1.5,4.4C392.7,297.1,393.2,298.2,393.4,299.3
			L393.4,299.3z"/>
		<path class="st3" d="M429.5,291l1.2-0.5c1,2.8,3.1,5.2,5.7,6.6c-0.4,0.4-0.7,0.8-1,1.2C432.7,296.6,430.7,294,429.5,291
			 M430.9,299.5c1.4,1.7,2.7,3.5,3.8,5.4l-1.2,0.8c-0.3-0.5-0.6-1-0.9-1.5c-3.5,0.2-6.3,0.3-8.5,0.5c-0.5,0.1-1,0.2-1.4,0.3
			l-0.7-1.4c0.5-0.2,0.9-0.5,1.3-0.8c1.6-2,2.9-4.1,4-6.3l1.4,0.7c-1.3,2.2-2.7,4.2-4.2,6.2c2.2-0.1,4.6-0.1,7.4-0.2
			c-0.6-0.9-1.3-1.9-1.9-2.9L430.9,299.5z M420.6,297.5c2.3-1.8,4.1-4.1,5.3-6.8l1.3,0.5c-1.3,2.8-3.2,5.3-5.5,7.3
			C421.3,298.2,421,297.8,420.6,297.5L420.6,297.5z"/>
		<path class="st3" d="M456.4,301.6h5.8v-3.4h-5.8V301.6z M455.2,297.1h8.3v5.6h-7.1v1.2h-1.3V297.1z M454.5,292.1v-1.2l13.7,0.1
			v12.4c0,1.5-0.7,2.2-2,2.2H463c-0.1-0.4-0.2-0.9-0.3-1.4c1.3,0.1,2.3,0.1,3.1,0.2s1.1-0.4,1.1-1.3l0.1-10.9L454.5,292.1z
			 M453.6,294l12.1,0.1v1.2l-12.1-0.1V294z"/>
		<line class="st4" x1="300.6" y1="515.7" x2="300.7" y2="515.7"/>
		<line class="st4" x1="300.1" y1="514.7" x2="300.1" y2="514.8"/>
		<line class="st4" x1="298.3" y1="514.4" x2="298.4" y2="514.4"/>
		<line class="st4" x1="297.8" y1="513.3" x2="297.7" y2="513.4"/>
		<line class="st4" x1="300.6" y1="523.1" x2="300.7" y2="523.1"/>
		<line class="st4" x1="300.1" y1="522.1" x2="300.1" y2="522.1"/>
		<line class="st4" x1="298.3" y1="529.1" x2="298.4" y2="529.1"/>
		<line class="st4" x1="297.8" y1="528.1" x2="297.7" y2="528.2"/>
		<line class="st4" x1="300.6" y1="530.4" x2="300.7" y2="530.4"/>
		<line class="st4" x1="300.1" y1="529.4" x2="300.1" y2="529.5"/>
		<path class="st4" d="M303.7,499.9c0.1-0.1,0.1-0.1,0.1-0.1"/>
		<path class="st4" d="M302.1,510l0.8-0.4c0.1-0.1,0.1-0.1,0.1-0.1"/>
		<line class="st4" x1="338.3" y1="475.2" x2="338.3" y2="475.5"/>
		<polyline class="st4" points="342.2,486.3 343.1,486.3 343.2,486.3 		"/>
		<line class="st4" x1="342.1" y1="486.2" x2="342.2" y2="486.2"/>
		<line class="st4" x1="343.2" y1="486.2" x2="344" y2="485.8"/>
		<line class="st4" x1="338.5" y1="484.2" x2="342.1" y2="486.2"/>
		<path class="st4" d="M338.5,484c0,0.1,0,0.1,0.1,0.1"/>
		<line class="st4" x1="358.2" y1="564.6" x2="358" y2="564.8"/>
		<line class="st4" x1="358.1" y1="568.5" x2="357.9" y2="568.4"/>
		<line class="st4" x1="353" y1="567.6" x2="352.7" y2="567.8"/>
		<line class="st4" x1="353.1" y1="566.4" x2="351.9" y2="567.1"/>
		<line class="st4" x1="360.6" y1="566.7" x2="360.6" y2="566.5"/>
		<line class="st4" x1="352.4" y1="569.4" x2="352.7" y2="569.5"/>
		<line class="st4" x1="356.8" y1="564.3" x2="355.7" y2="564.9"/>
		<line class="st4" x1="360.1" y1="572.9" x2="360.1" y2="572.6"/>
		<line class="st4" x1="361.6" y1="566.6" x2="356.4" y2="569.5"/>
		<line class="st4" x1="363.8" y1="567.8" x2="361.6" y2="566.6"/>
		<line class="st4" x1="359.5" y1="562.4" x2="359.2" y2="562.6"/>
		<line class="st4" x1="349.1" y1="568.4" x2="348.8" y2="568.5"/>
		<line class="st4" x1="353.6" y1="570.2" x2="353.6" y2="570.3"/>
		<line class="st4" x1="354.1" y1="570.8" x2="354.2" y2="570.8"/>
		<line class="st4" x1="354.1" y1="570.7" x2="354.1" y2="570.8"/>
		<line class="st4" x1="353.8" y1="570.6" x2="353.8" y2="570.6"/>
		<line class="st4" x1="353.6" y1="570.3" x2="353.6" y2="570.5"/>
		<line class="st4" x1="353.8" y1="570.6" x2="353.8" y2="570.5"/>
		<line class="st4" x1="353.7" y1="570.5" x2="353.8" y2="570.6"/>
		<line class="st4" x1="353.7" y1="570.5" x2="353.7" y2="570.5"/>
		<line class="st4" x1="353.6" y1="570.5" x2="353.7" y2="570.5"/>
		<line class="st4" x1="356.8" y1="565.9" x2="356.8" y2="566.1"/>
		<line class="st4" x1="344.1" y1="424.8" x2="343.6" y2="424.5"/>
		<line class="st4" x1="302.2" y1="510.3" x2="302.2" y2="509.9"/>
		<line class="st4" x1="295.8" y1="449.4" x2="295.8" y2="496.2"/>
		<line class="st4" x1="296" y1="496.7" x2="296.9" y2="498.3"/>
		<path class="st4" d="M295.8,496.2v0.3l0.1,0.1"/>
		<line class="st4" x1="296.9" y1="498.3" x2="296.9" y2="528.5"/>
		<line class="st4" x1="297.9" y1="530.3" x2="300.5" y2="531.8"/>
		<line class="st4" x1="296.9" y1="528.5" x2="297.9" y2="530.3"/>
		<line class="st4" x1="345.5" y1="475.4" x2="345.5" y2="428.6"/>
		<path class="st4" d="M345.4,475.8L345.4,475.8l0.1-0.1v-0.3"/>
		<line class="st4" x1="344.5" y1="486.2" x2="344.5" y2="476.3"/>
		<path class="st4" d="M300.3,440.4l-0.2,0.1c-2,1.3-3.4,3.3-4,5.6l-0.1,0.4c0,0.1-0.1,0.2-0.1,0.4s-0.1,0.2-0.1,0.3v1"/>
		<line class="st4" x1="295.8" y1="448.2" x2="295.8" y2="449.4"/>
		<line class="st4" x1="301.3" y1="439.8" x2="300.3" y2="440.4"/>
		<path class="st4" d="M345.5,427.3v-1.1c0-0.1,0-0.2-0.1-0.2c0-0.1-0.1-0.2-0.1-0.3l-0.1-0.2c-0.4-0.2-0.4-0.7-1.1-1.1h-0.1"/>
		<line class="st4" x1="344.2" y1="424.3" x2="337.6" y2="420.5"/>
		<line class="st4" x1="334.3" y1="420.8" x2="333.2" y2="421.4"/>
		<path class="st4" d="M337.6,420.5l-0.2-0.1c-1-0.3-2.1-0.2-3.1,0.4l-0.1,0.1"/>
		<line class="st4" x1="345.5" y1="428.6" x2="345.5" y2="427.3"/>
		<line class="st4" x1="333.2" y1="421.4" x2="322.1" y2="427.8"/>
		<line class="st4" x1="317.2" y1="430.7" x2="301.3" y2="439.8"/>
		<line class="st4" x1="370" y1="559.7" x2="370" y2="507.5"/>
		<line class="st4" x1="332" y1="471.2" x2="315" y2="480.9"/>
		<path class="st4" d="M317.9,491.3l-0.2,0.1c-1.1,0.7-2,1.7-2.5,2.8l-0.2,0.4l-0.2,0.4c0,0.1-0.1,0.3-0.1,0.4c0,0.1,0,0.2-0.1,0.4
			s-0.1,0.2-0.1,0.4v0.9"/>
		<path class="st4" d="M327.2,496.7V496c0-0.1,0-0.2-0.1-0.4c-0.1-0.1,0-0.2-0.1-0.4s-0.1-0.2-0.1-0.4c0-0.1-0.1-0.3-0.1-0.4
			l-0.1-0.3c-0.3-0.7-0.7-1.3-1.2-1.7l-0.1-0.1"/>
		<line class="st4" x1="317.6" y1="492.4" x2="317.5" y2="492.5"/>
		<line class="st4" x1="319.9" y1="473.5" x2="303.7" y2="482.9"/>
		<line class="st4" x1="295.8" y1="487.4" x2="279.2" y2="497"/>
		<line class="st4" x1="278.2" y1="497.9" x2="278.2" y2="551.7"/>
		<line class="st4" x1="313.2" y1="569" x2="313.7" y2="568.7"/>
		<line class="st4" x1="317.2" y1="566.7" x2="317.2" y2="566.7"/>
		<line class="st4" x1="336.5" y1="483.1" x2="333.1" y2="481.2"/>
		<line class="st4" x1="323.9" y1="475.8" x2="319.9" y2="473.5"/>
		<line class="st4" x1="340.5" y1="485.4" x2="337.7" y2="483.8"/>
		<line class="st4" x1="351.2" y1="547.1" x2="354.1" y2="545.4"/>
		<line class="st4" x1="324.2" y1="430.5" x2="324.1" y2="429.5"/>
		<line class="st4" x1="317.3" y1="429.5" x2="317.2" y2="430.5"/>
		<path class="st4" d="M324.1,429.5v-0.2c0-0.1,0-0.1-0.1-0.2l-0.1-0.1c-0.2-0.6-1.3-1.1-1.9-1.3h-1.3"/>
		<path class="st4" d="M320.7,427.6h-1.5l-0.2,0.1l-0.2,0.1l-0.2,0.1l-0.2,0.1l-0.2,0.1l-0.2,0.1l-0.1,0.3l-0.2,0.2l-0.1,0.2
			l-0.1,0.1l-0.1,0.2l-0.1,0.1v0.2"/>
		<line class="st4" x1="317.5" y1="431.5" x2="318.3" y2="432.8"/>
		<line class="st4" x1="323.1" y1="432.8" x2="323.9" y2="431.5"/>
		<line class="st4" x1="322.2" y1="428.6" x2="322.1" y2="428.6"/>
		<line class="st4" x1="319.3" y1="428.6" x2="319.2" y2="428.6"/>
		<line class="st4" x1="323.2" y1="432.6" x2="323.2" y2="432.6"/>
		<line class="st4" x1="318.1" y1="432.6" x2="318.1" y2="432.6"/>
		<line class="st4" x1="322.5" y1="433.8" x2="322.5" y2="433.8"/>
		<line class="st4" x1="323" y1="433.8" x2="323" y2="433.7"/>
		<line class="st4" x1="323.8" y1="432.5" x2="323.8" y2="432.5"/>
		<line class="st4" x1="317.5" y1="432.9" x2="317.5" y2="433"/>
		<line class="st4" x1="317.6" y1="432.5" x2="317.6" y2="432.5"/>
		<line class="st4" x1="300.5" y1="515.3" x2="300.5" y2="515.4"/>
		<line class="st4" x1="300.4" y1="515.1" x2="300.5" y2="515.3"/>
		<line class="st4" x1="300.2" y1="515.1" x2="300.4" y2="515.1"/>
		<line class="st4" x1="300.2" y1="515.3" x2="300.2" y2="515.1"/>
		<line class="st4" x1="300.4" y1="515.4" x2="300.2" y2="515.3"/>
		<line class="st4" x1="300.5" y1="515.4" x2="300.4" y2="515.4"/>
		<polyline class="st4" points="300.7,515.5 300.7,515.3 300.7,515.1 300.6,515 300.4,514.8 300.3,514.8 300.2,514.7 300.1,514.7 
			300.1,514.8 300,514.8 299.9,514.9 299.9,515.2 300,515.3 300.1,515.4 300.2,515.6 300.3,515.7 300.4,515.7 300.4,515.7 
			300.5,515.8 300.6,515.7 300.7,515.7 300.7,515.7 300.7,515.5 		"/>
		<path class="st4" d="M300.4,514.7c-0.1-0.1-0.2-0.1-0.2,0"/>
		<path class="st4" d="M300.7,515.7c0.1,0,0.1-0.1,0.1-0.2"/>
		<line class="st4" x1="300.4" y1="515.3" x2="300.4" y2="515.3"/>
		<path class="st4" d="M300.4,515.1c0,0,0.1,0.1,0.1,0.1"/>
		<line class="st4" x1="300.5" y1="515.3" x2="300.4" y2="515.4"/>
		<line class="st4" x1="300.4" y1="515.1" x2="300.4" y2="515.1"/>
		<line class="st4" x1="300.4" y1="515.1" x2="300.2" y2="515.3"/>
		<line class="st4" x1="300.4" y1="515.3" x2="300.4" y2="515.1"/>
		<line class="st4" x1="300.5" y1="515.3" x2="300.4" y2="515.3"/>
		<polyline class="st4" points="298.4,514.1 298.4,513.9 298.2,513.6 298.1,513.5 298,513.4 297.7,513.4 297.6,513.5 297.6,513.8 
			297.8,514.2 297.8,514.2 298,514.3 298.1,514.4 298.3,514.4 298.4,514.3 298.4,514.1 		"/>
		<path class="st4" d="M298,513.4c-0.1-0.1-0.2-0.1-0.2,0"/>
		<path class="st4" d="M298.4,514.4c0.1-0.1,0.1-0.1,0.1-0.2"/>
		<line class="st4" x1="298.1" y1="513.9" x2="298.1" y2="514.1"/>
		<line class="st4" x1="298" y1="513.7" x2="298.1" y2="513.9"/>
		<line class="st4" x1="297.8" y1="513.8" x2="298" y2="513.7"/>
		<line class="st4" x1="297.8" y1="513.9" x2="297.8" y2="513.8"/>
		<line class="st4" x1="298" y1="514.1" x2="297.8" y2="513.9"/>
		<line class="st4" x1="298.1" y1="514.1" x2="298" y2="514.1"/>
		<line class="st4" x1="298.1" y1="513.9" x2="298.1" y2="513.9"/>
		<path class="st4" d="M298,513.8c0,0.1,0.1,0.1,0.1,0.2"/>
		<line class="st4" x1="298.1" y1="514" x2="298" y2="514.1"/>
		<line class="st4" x1="298" y1="513.8" x2="298" y2="513.8"/>
		<line class="st4" x1="298" y1="513.8" x2="297.8" y2="513.9"/>
		<line class="st4" x1="298.1" y1="513.9" x2="298" y2="513.8"/>
		<line class="st4" x1="298.1" y1="513.9" x2="298.1" y2="513.9"/>
		<line class="st4" x1="300.5" y1="522.6" x2="300.5" y2="522.8"/>
		<line class="st4" x1="300.4" y1="522.4" x2="300.5" y2="522.6"/>
		<line class="st4" x1="300.2" y1="522.5" x2="300.4" y2="522.4"/>
		<line class="st4" x1="300.2" y1="522.6" x2="300.2" y2="522.5"/>
		<line class="st4" x1="300.4" y1="522.8" x2="300.2" y2="522.6"/>
		<line class="st4" x1="300.5" y1="522.8" x2="300.4" y2="522.8"/>
		<polyline class="st4" points="300.7,522.8 300.7,522.6 300.7,522.5 300.6,522.4 300.3,522.1 300.1,522.1 299.9,522.2 299.9,522.5 
			300,522.6 300.1,522.9 300.3,523.1 300.4,523.1 300.4,523.1 300.6,523.1 300.7,523 300.7,522.8 		"/>
		<path class="st4" d="M300.4,522.1c-0.1-0.1-0.2-0.1-0.2,0"/>
		<path class="st4" d="M300.7,523.1c0.1-0.1,0.1-0.1,0.1-0.2"/>
		<line class="st4" x1="300.4" y1="522.6" x2="300.4" y2="522.6"/>
		<path class="st4" d="M300.4,522.5c0,0.1,0.1,0.1,0.1,0.2"/>
		<line class="st4" x1="300.5" y1="522.7" x2="300.4" y2="522.8"/>
		<line class="st4" x1="300.4" y1="522.5" x2="300.4" y2="522.5"/>
		<line class="st4" x1="300.4" y1="522.5" x2="300.2" y2="522.6"/>
		<line class="st4" x1="300.4" y1="522.6" x2="300.4" y2="522.5"/>
		<line class="st4" x1="300.5" y1="522.6" x2="300.4" y2="522.6"/>
		<path class="st4" d="M298.4,528.9v-0.2c-0.1-0.2-0.4-0.7-0.7-0.5h-0.1l-0.1,0.1v0.4l0.1,0.1l0.2,0.4l0.1,0.1l0.1,0.1h0.1l0.1,0.1
			l0.1-0.1h0.1l0.1-0.1L298.4,528.9"/>
		<path class="st4" d="M298,528.1c-0.1-0.1-0.2-0.1-0.2,0"/>
		<path class="st4" d="M298.4,529.1c0,0,0.1-0.1,0.1-0.2"/>
		<line class="st4" x1="298.1" y1="528.6" x2="298.1" y2="528.8"/>
		<line class="st4" x1="298" y1="528.5" x2="298.1" y2="528.6"/>
		<line class="st4" x1="297.8" y1="528.5" x2="298" y2="528.5"/>
		<line class="st4" x1="297.8" y1="528.6" x2="297.8" y2="528.5"/>
		<line class="st4" x1="298" y1="528.8" x2="297.8" y2="528.6"/>
		<line class="st4" x1="298.1" y1="528.8" x2="298" y2="528.8"/>
		<line class="st4" x1="298.1" y1="528.6" x2="298.1" y2="528.6"/>
		<path class="st4" d="M298,528.5c0,0.1,0.1,0.1,0.1,0.2"/>
		<line class="st4" x1="298.1" y1="528.7" x2="298" y2="528.8"/>
		<line class="st4" x1="298" y1="528.5" x2="298" y2="528.5"/>
		<line class="st4" x1="298" y1="528.5" x2="297.8" y2="528.6"/>
		<line class="st4" x1="298.1" y1="528.6" x2="298" y2="528.5"/>
		<line class="st4" x1="298.1" y1="528.7" x2="298.1" y2="528.6"/>
		<polyline class="st4" points="300.7,530.2 300.7,530 300.5,529.7 300.4,529.6 300.4,529.5 300.3,529.5 300.2,529.4 300.1,529.5 
			300.1,529.5 300,529.5 299.9,529.6 299.9,529.9 300,530 300.1,530.1 300.1,530.2 300.2,530.3 300.3,530.4 300.4,530.5 
			300.6,530.5 300.7,530.4 300.7,530.2 		"/>
		<path class="st4" d="M300.4,529.4h-0.2"/>
		<path class="st4" d="M300.7,530.4c0.1-0.1,0.1-0.1,0.1-0.2"/>
		<line class="st4" x1="300.5" y1="530" x2="300.5" y2="530.1"/>
		<line class="st4" x1="300.4" y1="529.8" x2="300.5" y2="530"/>
		<line class="st4" x1="300.2" y1="529.8" x2="300.4" y2="529.8"/>
		<line class="st4" x1="300.2" y1="530" x2="300.2" y2="529.8"/>
		<line class="st4" x1="300.4" y1="530.1" x2="300.2" y2="530"/>
		<line class="st4" x1="300.5" y1="530.1" x2="300.4" y2="530.1"/>
		<line class="st4" x1="300.4" y1="530" x2="300.4" y2="530"/>
		<path class="st4" d="M300.4,529.8c0,0,0,0.1,0.1,0.1"/>
		<line class="st4" x1="300.5" y1="530.1" x2="300.4" y2="530.1"/>
		<line class="st4" x1="300.4" y1="529.9" x2="300.4" y2="529.8"/>
		<line class="st4" x1="300.4" y1="529.9" x2="300.2" y2="530"/>
		<line class="st4" x1="300.4" y1="530" x2="300.4" y2="529.9"/>
		<line class="st4" x1="300.5" y1="530" x2="300.4" y2="530"/>
		<polyline class="st4" points="303.7,456 303.2,456.3 303.2,500 		"/>
		<path class="st4" d="M303,500.3c0.1-0.1,0.2-0.2,0.2-0.3"/>
		<line class="st4" x1="302.1" y1="500.8" x2="303" y2="500.3"/>
		<line class="st4" x1="302.1" y1="500.8" x2="302.1" y2="500.9"/>
		<line class="st4" x1="302.1" y1="509.9" x2="302.1" y2="500.9"/>
		<line class="st4" x1="301.6" y1="509.7" x2="301.7" y2="509.9"/>
		<line class="st4" x1="303.7" y1="499.6" x2="303.2" y2="500"/>
		<path class="st4" d="M303.7,499.6v-43.7"/>
		<line class="st4" x1="303.7" y1="455.8" x2="303.7" y2="455.9"/>
		<line class="st4" x1="303.7" y1="499.6" x2="303.7" y2="499.5"/>
		<line class="st4" x1="303.7" y1="455.9" x2="303.7" y2="499.5"/>
		<path class="st4" d="M303.7,499.9v-0.3"/>
		<line class="st4" x1="303.7" y1="499.9" x2="303" y2="500.3"/>
		<line class="st4" x1="303.7" y1="499.9" x2="303.7" y2="499.9"/>
		<line class="st4" x1="303" y1="500.3" x2="303.7" y2="499.9"/>
		<polyline class="st4" points="303,500.3 303,500.3 302.9,500.3 		"/>
		<line class="st4" x1="302.1" y1="500.8" x2="302.9" y2="500.3"/>
		<path class="st4" d="M303.7,499.9c0.1-0.1,0.1-0.1,0.1-0.1"/>
		<line class="st4" x1="303.7" y1="499.5" x2="303.7" y2="499.8"/>
		<path class="st4" d="M303.7,499.9c0.1-0.1,0.1-0.1,0.1-0.1"/>
		<line class="st4" x1="303.7" y1="499.8" x2="303.7" y2="499.8"/>
		<line class="st4" x1="302.9" y1="500.3" x2="302.9" y2="500.4"/>
		<line class="st4" x1="302.9" y1="500.4" x2="302.1" y2="500.9"/>
		<line class="st4" x1="302.9" y1="509.5" x2="302.9" y2="500.4"/>
		<line class="st4" x1="302.1" y1="509.9" x2="302.9" y2="509.5"/>
		<path class="st4" d="M303,500.3c0,0-0.1,0.1-0.1,0.1v9.1"/>
		<path class="st4" d="M302.9,509.5L302.9,509.5"/>
		<path class="st4" d="M303,500.3c0,0-0.1,0.1-0.1,0.1"/>
		<path class="st4" d="M344.2,476.4c0.1-0.1,0.2-0.2,0.2-0.4"/>
		<line class="st4" x1="343" y1="477.1" x2="344.2" y2="476.4"/>
		<polyline class="st4" points="344.5,476 344.5,432.4 344.6,432.4 		"/>
		<path class="st4" d="M345.1,432v-0.1"/>
		<line class="st4" x1="345.1" y1="432" x2="344.6" y2="432.3"/>
		<line class="st4" x1="342.9" y1="477.1" x2="343" y2="477.1"/>
		<line class="st4" x1="344.5" y1="476" x2="344.6" y2="476"/>
		<line class="st4" x1="344.6" y1="432.3" x2="344.6" y2="476"/>
		<line class="st4" x1="342.2" y1="477.5" x2="342.9" y2="477.1"/>
		<path class="st4" d="M342.2,477.5c-0.1,0.1-0.1,0.1-0.1,0.2"/>
		<line class="st4" x1="342.1" y1="486.2" x2="342.1" y2="477.7"/>
		<line class="st4" x1="338.5" y1="484.1" x2="342.1" y2="486.2"/>
		<line class="st4" x1="338.5" y1="475.6" x2="338.5" y2="484.1"/>
		<path class="st4" d="M338.5,475.6c0-0.2-0.1-0.3-0.2-0.4"/>
		<path class="st4" d="M340.1,484.2v0.4c0.1,0.1,0,0.2,0.3,0.3h0.1v-0.1l0.1-0.1v-0.4l-0.1-0.1v-0.1l-0.1-0.1l-0.1-0.1l-0.1-0.1
			h-0.1v0.1L340.1,484.2L340.1,484.2"/>
		<polyline class="st4" points="340.1,481.7 340.1,482 340.1,482.1 340.1,482.2 340.1,482.3 340.2,482.4 340.3,482.4 340.4,482.4 
			340.4,482.4 340.4,482.4 340.5,482.4 340.5,482.3 340.5,482 340.5,481.9 340.4,481.8 340.4,481.7 340.4,481.7 340.3,481.6 
			340.1,481.6 340.1,481.7 340.1,481.7 		"/>
		<polyline class="st4" points="340.5,450.3 340.5,450 340.5,449.9 340.4,449.9 340.4,449.7 340.4,449.7 340.3,449.6 340.1,449.6 
			340.1,449.7 340.1,449.8 340.1,450.1 340.1,450.2 340.1,450.2 340.1,450.3 340.3,450.5 340.4,450.5 340.5,450.4 340.5,450.3 		"/>
		<polyline class="st4" points="340.5,452.8 340.5,452.4 340.5,452.4 340.4,452.3 340.4,452.2 340.4,452.1 340.3,452.1 340.1,452.1 
			340.1,452.1 340.1,452.2 340.1,452.6 340.1,452.6 340.1,452.7 340.1,452.8 340.3,452.9 340.4,452.9 340.5,452.9 340.5,452.8 		"/>
		<polyline class="st4" points="340.5,467.1 340.5,466.8 340.5,466.7 340.4,466.6 340.4,466.5 340.4,466.4 340.3,466.4 340.1,466.4 
			340.1,466.4 340.1,466.5 340.1,466.8 340.1,466.9 340.1,467 340.1,467.1 340.3,467.2 340.4,467.2 340.5,467.1 340.5,467.1 		"/>
		<polyline class="st4" points="340.5,469.5 340.5,469.2 340.5,469.1 340.4,469.1 340.4,468.9 340.4,468.9 340.3,468.8 340.1,468.8 
			340.1,468.9 340.1,469 340.1,469.3 340.1,469.4 340.1,469.4 340.1,469.5 340.3,469.7 340.4,469.7 340.5,469.6 340.5,469.5 		"/>
		<path class="st4" d="M340.5,477v-0.4l-0.1-0.1v-0.1l-0.1-0.1l-0.1-0.1h-0.1v0.1h-0.1v0.4c0.1,0.2,0,0.2,0.3,0.4h0.1v-0.1
			L340.5,477L340.5,477"/>
		<path class="st4" d="M340.5,479.4v-0.4l-0.1-0.1v-0.1l-0.1-0.1l-0.1-0.1h-0.1l-0.1,0.1v0.5c0.1,0.1,0,0.2,0.3,0.3h0.1v-0.1
			L340.5,479.4L340.5,479.4"/>
		<polyline class="st4" points="344.6,476 345.1,475.7 345.1,432 		"/>
		<line class="st4" x1="337.6" y1="473.3" x2="337.6" y2="436.2"/>
		<polyline class="st4" points="344.3,476.4 343.1,477.2 343,477.1 		"/>
		<line class="st4" x1="344.3" y1="476.4" x2="344.2" y2="476.4"/>
		<line class="st4" x1="343.3" y1="477" x2="344.1" y2="476.6"/>
		<line class="st4" x1="343.3" y1="477" x2="343.1" y2="477.2"/>
		<polyline class="st4" points="342.4,477.5 343.1,477.2 342.4,477.5 		"/>
		<polyline class="st4" points="344.3,476.4 344.9,476.1 344.1,476.6 		"/>
		<path class="st4" d="M344.3,476.4c0.2-0.1,0.3-0.2,0.3-0.4"/>
		<path class="st4" d="M344.9,476.1c0.1-0.1,0.2-0.2,0.2-0.4"/>
		<path class="st4" d="M342.9,477.1c0,0,0.1,0.1,0.2,0.1"/>
		<path class="st4" d="M342.2,477.5c0,0,0.1,0.1,0.2,0.1"/>
		<polyline class="st4" points="343.1,477.2 343.1,477.2 343.1,477.2 342.2,477.8 		"/>
		<path class="st4" d="M342.4,477.5c-0.1,0.1-0.2,0.1-0.2,0.2v8.5"/>
		<line class="st4" x1="343.1" y1="486.2" x2="343.1" y2="477.2"/>
		<line class="st4" x1="342.2" y1="486.2" x2="343.1" y2="486.2"/>
		<polyline class="st4" points="343.3,477 343.3,477.1 343.1,477.2 		"/>
		<line class="st4" x1="344" y1="476.6" x2="343.3" y2="477.1"/>
		<line class="st4" x1="344.1" y1="476.6" x2="344.1" y2="476.6"/>
		<line class="st4" x1="343.3" y1="477.1" x2="343.3" y2="486.2"/>
		<line class="st4" x1="343.1" y1="486.2" x2="343.3" y2="486.2"/>
		<line class="st4" x1="343.3" y1="486.2" x2="344" y2="485.7"/>
		<line class="st4" x1="344" y1="476.6" x2="344" y2="485.7"/>
		<line class="st4" x1="342.1" y1="477.7" x2="342.2" y2="477.7"/>
		<line class="st4" x1="342.1" y1="486.2" x2="342.2" y2="486.2"/>
		<path class="st4" d="M338.5,475.5C338.4,475.6,338.4,475.6,338.5,475.5"/>
		<path class="st4" d="M338.5,484C338.4,484.1,338.4,484.1,338.5,484"/>
		<line class="st4" x1="338.5" y1="484" x2="338.5" y2="475.5"/>
		<line class="st4" x1="344" y1="485.8" x2="344" y2="485.7"/>
		<path class="st4" d="M359.3,567.6c-0.1,0-0.1,0.1-0.1,0.2v0.1"/>
		<line class="st4" x1="361.6" y1="566.6" x2="361.6" y2="566.5"/>
		<polyline class="st4" points="359.3,567.5 361,566.6 358,564.8 358.3,564.6 		"/>
		<path class="st4" d="M361.6,566.5l-3.2-1.9h-0.1"/>
		<path class="st4" d="M356,569.7c0,0,0.1,0.1,0.2,0c0,0,0,0,0,0"/>
		<line class="st4" x1="353.1" y1="567.6" x2="352.8" y2="567.8"/>
		<line class="st4" x1="356.1" y1="569.4" x2="353.1" y2="567.6"/>
		<line class="st4" x1="357.8" y1="568.4" x2="356.1" y2="569.4"/>
		<line class="st4" x1="356.2" y1="569.7" x2="356.2" y2="569.7"/>
		<line class="st4" x1="356" y1="569.7" x2="352.8" y2="567.8"/>
		<path class="st4" d="M352.7,569.5c0,0.1,0.1,0.1,0.1,0.2"/>
		<line class="st4" x1="352.7" y1="567.9" x2="352.7" y2="569.5"/>
		<path class="st4" d="M352.8,567.8h-0.1v0.1"/>
		<line class="st4" x1="352.8" y1="569.7" x2="354.9" y2="570.9"/>
		<polyline class="st4" points="353,568.7 353,568.6 353,568.5 352.9,568.5 352.9,568.5 352.8,568.5 352.9,568.6 352.9,568.7 
			352.9,568.7 352.9,568.8 353,568.8 353,568.7 		"/>
		<path class="st4" d="M355.1,570.3c0.1-0.3,0.1-0.6,0-0.9v-0.1l-0.1-0.1v-0.1H355l-0.1,0.1v0.1"/>
		<path class="st4" d="M354.9,570.2c0.1-0.3,0.1-0.5,0-0.8"/>
		<polyline class="st4" points="354.9,570.2 354.9,570.2 355,570.3 355,570.3 355,570.4 355.1,570.4 355.1,570.3 		"/>
		<path class="st4" d="M357.9,568.4C357.9,568.4,357.8,568.4,357.9,568.4"/>
		<line class="st4" x1="353.1" y1="567.6" x2="353" y2="567.6"/>
		<polyline class="st4" points="358.1,565.2 358.4,565.2 358.4,565.3 358.4,565.4 358.1,565.4 358.1,565.4 358,565.4 358.1,565.3 
			358.1,565.2 		"/>
		<polyline class="st4" points="353.9,567.7 353.9,567.7 354,567.6 354.1,567.7 354.1,567.7 354.2,567.8 354.2,567.9 353.8,567.9 
			353.8,567.8 353.9,567.7 		"/>
		<path class="st4" d="M354.1,566.9c0.5,0.2,1.1,0.2,1.6,0"/>
		<line class="st4" x1="356.6" y1="566.3" x2="355.6" y2="566.9"/>
		<polyline class="st4" points="356.6,565.4 356.7,565.4 356.8,565.5 356.9,565.6 356.9,566 356.7,566.2 356.6,566.3 		"/>
		<polyline class="st4" points="356.6,565.4 355.9,565 357.1,564.3 		"/>
		<line class="st4" x1="360.4" y1="566.2" x2="357.1" y2="564.3"/>
		<path class="st4" d="M360.4,566.8l0.1-0.1c0.1-0.1,0.2-0.3,0.1-0.4c0,0,0,0-0.1-0.1l-0.1-0.1"/>
		<line class="st4" x1="356.5" y1="569" x2="360.4" y2="566.8"/>
		<path class="st4" d="M355.5,569c0.3,0.2,0.7,0.2,1,0"/>
		<line class="st4" x1="352.2" y1="567.1" x2="355.5" y2="569"/>
		<polyline class="st4" points="352.2,567.1 353.3,566.4 354.1,566.9 		"/>
		<polyline class="st4" points="358.8,566 358.9,566 358.9,566 359,566 359,566.1 359,566.1 358.9,566.1 358.9,566.1 358.8,566.1 
			358.8,566 		"/>
		<polyline class="st4" points="355.1,568.1 355.4,568.1 355.4,568.2 355.3,568.2 355.1,568.2 355.1,568.1 		"/>
		<line class="st4" x1="351.8" y1="569.9" x2="351.8" y2="567.3"/>
		<path class="st4" d="M352.2,567.1c-0.1-0.1-0.2-0.1-0.2,0c-0.1,0.1-0.1,0.1-0.1,0.2"/>
		<path class="st4" d="M352.2,567.3h-0.1c-0.1,0-0.1,0.1-0.1,0.1"/>
		<line class="st4" x1="352" y1="570" x2="352" y2="567.5"/>
		<line class="st4" x1="352.9" y1="567.8" x2="352.2" y2="567.3"/>
		<line class="st4" x1="359.2" y1="567.8" x2="358" y2="568.4"/>
		<path class="st4" d="M353.3,566.4c-0.1-0.1-0.2-0.1-0.2,0"/>
		<line class="st4" x1="360.6" y1="566.8" x2="360.6" y2="566.7"/>
		<polyline class="st4" points="352.6,568.8 352.4,569 352.4,569 352.4,569.1 352.4,569.3 352.4,569.3 352.4,569.4 		"/>
		<path class="st4" d="M352.7,568.6c-0.1,0-0.2,0.2-0.1,0.3c0,0,0,0,0,0"/>
		<polyline class="st4" points="352.4,568.2 352.3,568.2 352.2,568.4 352.2,568.5 352.3,568.5 352.4,568.5 352.4,568.5 352.4,568.4 
			352.5,568.4 352.5,568.2 352.4,568.2 352.4,568.2 352.4,568.2 		"/>
		<polyline class="st4" points="353.8,571.2 353.9,571.2 353.8,570.6 		"/>
		<line class="st4" x1="353.3" y1="570" x2="352.4" y2="570.2"/>
		<path class="st4" d="M355.6,566.9c0.1-0.2,0.1-0.4,0.1-0.7v-0.9"/>
		<polyline class="st4" points="356.6,565.8 356.5,565.9 356.5,566 356.5,566.1 356.6,566.1 356.7,566 356.7,566 356.8,565.9 
			356.8,565.8 356.7,565.7 356.6,565.7 356.6,565.8 		"/>
		<path class="st4" d="M355,575.1c0.2,0.1,0.5,0.2,0.7,0.1"/>
		<line class="st4" x1="354.7" y1="575" x2="355" y2="575.1"/>
		<polyline class="st4" points="360.1,572.7 360.1,572.7 360.1,572.6 360.1,572.5 359.9,572.3 		"/>
		<path class="st4" d="M355.8,575.3l0.4-0.1c1.5-0.2,2.8-1,3.8-2.1l0.1-0.3"/>
		<line class="st4" x1="356.6" y1="565.6" x2="356.6" y2="565.4"/>
		<path class="st4" d="M356.9,566c0-0.2-0.2-0.3-0.3-0.4"/>
		<path class="st4" d="M352.7,568.7c-0.1,0.1-0.1,0.1-0.1,0.1"/>
		<line class="st4" x1="360.1" y1="572.7" x2="360.1" y2="573"/>
		<path class="st4" d="M355.8,575.3v0.2l0.4-0.1c1.5-0.3,2.8-1.1,3.8-2.2l0.1-0.2"/>
		<polyline class="st4" points="355,575.1 355,575.4 354.4,575 		"/>
		<path class="st4" d="M355,575.4c0.2,0.1,0.5,0.2,0.7,0.1"/>
		<line class="st4" x1="352.6" y1="568.8" x2="352.6" y2="568.8"/>
		<line class="st4" x1="352.7" y1="568.6" x2="352.6" y2="568.6"/>
		<path class="st4" d="M355.9,565c-0.1,0-0.2-0.1-0.2-0.1c-0.1,0.1-0.2,0.2-0.1,0.2"/>
		<path class="st4" d="M355.9,565.2c-0.1-0.1-0.1-0.1-0.1-0.1s-0.1,0.1-0.1,0.1"/>
		<line class="st4" x1="355.6" y1="566.1" x2="355.7" y2="566.2"/>
		<line class="st4" x1="355.6" y1="566.1" x2="355.6" y2="565.2"/>
		<line class="st4" x1="355.9" y1="565.2" x2="356.6" y2="565.6"/>
		<path class="st4" d="M357.1,564.3c-0.1-0.1-0.2-0.1-0.2,0"/>
		<path class="st4" d="M355.3,567c0.1-0.3,0.2-0.6,0.2-0.9"/>
		<polyline class="st4" points="353.9,571.2 353.6,571 353.6,570.2 		"/>
		<path class="st4" d="M353.6,571.4c0-0.1,0.1-0.2,0.1-0.3"/>
		<path class="st4" d="M360.1,573v-0.2"/>
		<polyline class="st4" points="358.7,571.2 356.5,569.9 356.2,569.7 		"/>
		<path class="st4" d="M356.9,569.4c-0.4,0-0.7,0.2-0.7,0.4"/>
		<polyline class="st4" points="356.9,569.4 358.7,570.5 358.7,571.2 		"/>
		<line class="st4" x1="358.7" y1="570.5" x2="363.4" y2="567.8"/>
		<path class="st4" d="M364,568.1c0-0.2-0.3-0.4-0.7-0.4"/>
		<line class="st4" x1="364" y1="568.1" x2="358.7" y2="571.2"/>
		<line class="st4" x1="361.6" y1="566.7" x2="356.9" y2="569.4"/>
		<line class="st4" x1="363.4" y1="567.8" x2="361.6" y2="566.7"/>
		<polyline class="st4" points="358.9,569.4 358.6,569.4 358.5,569.5 358.4,569.5 358.4,569.6 358.5,569.7 358.9,569.7 358.9,569.6 
			358.9,569.6 358.9,569.5 358.9,569.4 		"/>
		<polyline class="st4" points="361.7,567.8 361.6,567.8 361.6,567.7 361.7,567.6 361.8,567.6 361.9,567.6 362,567.6 362,567.6 
			362.1,567.7 362.1,567.8 362,567.8 362,567.8 361.9,567.9 361.7,567.9 361.7,567.8 		"/>
		<polyline class="st4" points="360.5,568.5 360.5,568.5 360.4,568.4 360.2,568.4 360.1,568.5 360,568.5 359.9,568.5 359.9,568.6 
			359.9,568.7 359.9,568.7 359.9,568.8 360.1,568.8 360.5,568.8 360.7,568.7 360.7,568.6 360.6,568.5 360.5,568.5 		"/>
		<line class="st4" x1="361.6" y1="566.6" x2="361.6" y2="566.7"/>
		<line class="st4" x1="356.2" y1="570.1" x2="356.2" y2="569.7"/>
		<polyline class="st4" points="360.5,568.5 360.1,568.5 359.9,568.7 359.9,568.8 360,568.8 360,568.8 		"/>
		<polyline class="st4" points="360.5,568.8 360.5,568.8 360.6,568.7 360.6,568.7 360.5,568.5 		"/>
		<path class="st4" d="M360.4,568.8h-0.3"/>
		<polyline class="st4" points="363.2,564.8 363.2,564.8 359.3,562.6 359.6,562.4 		"/>
		<line class="st4" x1="363.2" y1="564.5" x2="359.6" y2="562.4"/>
		<line class="st4" x1="363.2" y1="564.5" x2="363.2" y2="564.5"/>
		<line class="st4" x1="363.2" y1="564.8" x2="363.2" y2="566.1"/>
		<path class="st4" d="M361.9,565.1c0-0.3,0-0.6-0.1-0.9l-0.1-0.1v-0.1l-0.1-0.1h-0.1l-0.1,0.1v0.1"/>
		<path class="st4" d="M361.7,564.9c0.1-0.2,0.1-0.5,0-0.7"/>
		<polyline class="st4" points="361.6,564.9 361.6,565.1 361.7,565.1 361.7,565.2 361.8,565.2 361.9,565.1 		"/>
		<path class="st4" d="M359,564c0,0.2,0.1,0.4,0.3,0.5"/>
		<line class="st4" x1="359" y1="562.8" x2="359" y2="564"/>
		<path class="st4" d="M359.3,562.6c-0.1,0-0.1-0.1-0.2,0s-0.1,0.1-0.1,0.2"/>
		<line class="st4" x1="359.3" y1="564.5" x2="362.7" y2="566.4"/>
		<polyline class="st4" points="360.8,564.2 360.8,564.2 360.8,564.1 360.8,564 360.7,564 360.6,564 360.6,564.2 360.7,564.3 
			360.8,564.3 360.8,564.2 		"/>
		<path class="st4" d="M359.6,562.4h-0.2"/>
		<path class="st4" d="M351.8,571.4c-0.2,0.1-0.3,0.3-0.3,0.5"/>
		<polyline class="st4" points="351.8,571.4 353.2,570.6 353.2,571.5 		"/>
		<line class="st4" x1="351.5" y1="571.8" x2="351.5" y2="572"/>
		<polyline class="st4" points="352.3,571.6 352.3,571.5 352.2,571.5 352.2,571.4 352.1,571.5 352,571.5 352,571.5 352,571.7 
			351.9,571.7 351.9,571.8 		"/>
		<line class="st4" x1="351.9" y1="571.8" x2="351.9" y2="571.8"/>
		<line class="st4" x1="352.3" y1="571.7" x2="352.3" y2="571.6"/>
		<line class="st4" x1="351.5" y1="571.2" x2="351.8" y2="571.4"/>
		<line class="st4" x1="351.5" y1="571.8" x2="351.2" y2="571.7"/>
		<path class="st4" d="M351.5,571.2c-0.1,0.1-0.2,0.3-0.2,0.5"/>
		<line class="st4" x1="351.2" y1="572" x2="351.2" y2="571.7"/>
		<line class="st4" x1="352.5" y1="570.6" x2="349" y2="568.6"/>
		<line class="st4" x1="349.3" y1="568.4" x2="349" y2="568.6"/>
		<line class="st4" x1="353.2" y1="570.6" x2="349.3" y2="568.4"/>
		<line class="st4" x1="351.5" y1="571.2" x2="352.5" y2="570.6"/>
		<line class="st4" x1="352" y1="571.8" x2="352" y2="571.6"/>
		<polyline class="st4" points="351.5,570.2 351.4,570.1 351.4,570 351.2,570 351.2,570.2 		"/>
		<path class="st4" d="M351.3,570.9c0.1-0.2,0.1-0.5,0-0.7"/>
		<path class="st4" d="M351.3,570.9v0.1l0.1,0.1v0.1h0.1l0.1,0.1v-0.1h0.1c0-0.3,0-0.7-0.1-1"/>
		<polyline class="st4" points="350.5,570.2 350.5,570.1 350.5,570 350.5,570 350.4,570 350.3,569.9 350.3,570 350.3,570.2 
			350.3,570.2 350.5,570.2 350.5,570.2 		"/>
		<path class="st4" d="M349,568.6c-0.1,0-0.1-0.1-0.2,0c0,0-0.1,0.1-0.1,0.2"/>
		<line class="st4" x1="349" y1="570.4" x2="351.2" y2="571.7"/>
		<path class="st4" d="M348.7,570c0,0.2,0.1,0.4,0.3,0.4"/>
		<line class="st4" x1="348.7" y1="568.7" x2="348.7" y2="570"/>
		<path class="st4" d="M349.3,568.4c0,0-0.1-0.1-0.2,0c0,0,0,0,0,0"/>
		<line class="st4" x1="354.7" y1="570.9" x2="353.7" y2="570.3"/>
		<line class="st4" x1="354.1" y1="570.8" x2="354.2" y2="570.8"/>
		<polyline class="st4" points="354.1,570.8 354.1,570.8 353.7,570.5 353.7,570.3 		"/>
		<line class="st4" x1="354.2" y1="570.8" x2="354.5" y2="571"/>
		<line class="st4" x1="354.2" y1="570.8" x2="354.2" y2="570.8"/>
		<line class="st4" x1="353.7" y1="570.3" x2="353.6" y2="570.3"/>
		<line class="st4" x1="354.2" y1="570.8" x2="354.2" y2="570.8"/>
		<line class="st4" x1="354.2" y1="570.8" x2="354.2" y2="570.8"/>
		<line class="st4" x1="354.2" y1="570.8" x2="354.2" y2="570.8"/>
		<line class="st4" x1="354.2" y1="570.8" x2="354.2" y2="570.8"/>
		<line class="st4" x1="354.2" y1="570.8" x2="354.2" y2="570.8"/>
		<line class="st4" x1="354.2" y1="570.8" x2="354.2" y2="570.8"/>
		<line class="st4" x1="354.2" y1="570.8" x2="354.2" y2="570.8"/>
		<line class="st4" x1="354.1" y1="570.8" x2="354.1" y2="570.8"/>
		<line class="st4" x1="353.9" y1="570.6" x2="354" y2="570.7"/>
		<polyline class="st4" points="353.8,570.6 353.9,570.6 353.9,570.6 		"/>
		<path class="st4" d="M353.8,570.6l0.1,0.1h0.2"/>
		<line class="st4" x1="353.6" y1="570.5" x2="353.7" y2="570.5"/>
		<line class="st4" x1="353.6" y1="570.5" x2="353.7" y2="570.5"/>
		<line class="st4" x1="353.8" y1="570.5" x2="353.8" y2="570.5"/>
		<line class="st4" x1="353.7" y1="570.5" x2="353.7" y2="570.5"/>
		<line class="st4" x1="353.8" y1="570.6" x2="353.8" y2="570.6"/>
		<line class="st4" x1="353.7" y1="570.5" x2="353.7" y2="570.5"/>
		<line class="st4" x1="353.8" y1="570.6" x2="353.8" y2="570.6"/>
		<line class="st4" x1="353.7" y1="570.5" x2="353.7" y2="570.5"/>
		<line class="st4" x1="356.9" y1="566" x2="356.9" y2="566"/>
		<polyline class="st4" points="356.9,565.8 356.9,565.9 356.8,565.9 356.8,566 356.9,566 		"/>
		<line class="st4" x1="302.9" y1="456.3" x2="345.4" y2="431.8"/>
		<line class="st4" x1="302.9" y1="452" x2="302.9" y2="456.3"/>
		<path class="st4" d="M307.1,444.7l-0.3,0.2c-2.2,1.6-3.6,4.1-3.9,6.8v0.3"/>
		<line class="st4" x1="341.2" y1="425.1" x2="307.1" y2="444.7"/>
		<path class="st4" d="M345.4,427.5l-0.1-0.3c-0.1-2.4-1.8-3.3-3.9-2.3l-0.2,0.2"/>
		<line class="st4" x1="345.4" y1="431.8" x2="345.4" y2="427.5"/>
		<line class="st4" x1="302.9" y1="456.3" x2="302.9" y2="456.2"/>
		<line class="st4" x1="302.1" y1="500.8" x2="302.1" y2="510.9"/>
		<path class="st4" d="M301.8,500.1c0-0.2-0.1-0.4-0.2-0.6"/>
		<path class="st4" d="M302.1,510.9c0.1-0.2,0.1-0.4,0.1-0.6"/>
		<line class="st4" x1="301.4" y1="509.4" x2="301.6" y2="509.6"/>
		<line class="st4" x1="302.9" y1="453.2" x2="302.8" y2="453.3"/>
		<path class="st4" d="M302.5,453.3c0.1,0.1,0.2,0.1,0.3,0"/>
		<line class="st4" x1="295.9" y1="449.5" x2="302.5" y2="453.3"/>
		<path class="st4" d="M295.8,449.4c0,0,0,0.1,0.1,0.1"/>
		<line class="st4" x1="302.8" y1="453.3" x2="302.8" y2="500.1"/>
		<path class="st4" d="M302.5,500.1c0.1,0.1,0.2,0.1,0.3,0"/>
		<line class="st4" x1="302.5" y1="500.1" x2="302.5" y2="453.3"/>
		<polyline class="st4" points="302.9,453.2 302.9,456.3 303.2,456.2 		"/>
		<line class="st4" x1="302.8" y1="500.1" x2="303.2" y2="500"/>
		<line class="st4" x1="303.2" y1="456.2" x2="303.2" y2="500"/>
		<line class="st4" x1="301.4" y1="500.9" x2="302.3" y2="500.4"/>
		<line class="st4" x1="301.4" y1="531.1" x2="301.4" y2="500.9"/>
		<line class="st4" x1="300.4" y1="531.7" x2="301.4" y2="531.1"/>
		<line class="st4" x1="297.9" y1="530.2" x2="300.4" y2="531.7"/>
		<line class="st4" x1="296.9" y1="528.5" x2="297.9" y2="530.2"/>
		<line class="st4" x1="296.9" y1="498.3" x2="296.9" y2="528.5"/>
		<line class="st4" x1="296" y1="496.7" x2="296.9" y2="498.3"/>
		<path class="st4" d="M295.8,496.4c0,0.1,0.1,0.3,0.1,0.4"/>
		<line class="st4" x1="295.9" y1="449.5" x2="295.9" y2="496.4"/>
		<path class="st4" d="M302.3,500.4c0.1-0.1,0.1-0.1,0.1-0.2"/>
		<polyline class="st4" points="298.5,528.9 298.4,528.8 298.4,528.6 298.4,528.5 298.3,528.3 298.1,528.2 298.1,528.1 298,528 
			297.9,528 297.8,528 297.7,528 297.7,528 297.6,528.1 297.5,528.2 297.5,528.5 297.6,528.6 297.8,529 297.9,529.1 298,529.2 
			298.1,529.2 298.1,529.2 298.3,529.2 298.4,529.1 298.4,529 298.5,528.9 		"/>
		<polyline class="st4" points="300.8,530.3 300.8,530.1 300.8,530 300.6,529.7 300.5,529.5 300.4,529.5 300.3,529.4 300.2,529.4 
			300.1,529.4 299.9,529.5 299.9,529.5 299.9,529.9 299.9,530 300,530.1 300.1,530.3 300.3,530.5 300.4,530.6 300.7,530.6 
			300.8,530.4 300.8,530.4 300.8,530.3 		"/>
		<path class="st4" d="M298.5,514.2l-0.1-0.1v-0.1l-0.2-0.4l-0.2-0.2l-0.1-0.1l-0.1-0.1h-0.2l-0.2,0.2c0,0.4,0.2,0.8,0.5,1h0.1
			l0.1,0.1l0.1-0.1l0.1-0.1v-0.1L298.5,514.2"/>
		<polyline class="st4" points="300.8,515.5 300.8,515.4 300.8,515.3 300.7,515.1 300.7,515 300.3,514.7 300,514.7 299.9,514.7 
			299.9,514.8 299.9,515.1 300.1,515.6 300.3,515.8 300.4,515.9 300.7,515.9 300.8,515.7 300.8,515.6 300.8,515.5 		"/>
		<path class="st4" d="M300.8,522.9l-0.1-0.1v-0.1l-0.1-0.1l-0.1-0.2l-0.1-0.1l-0.1-0.1l-0.1-0.1h-0.1l-0.1-0.1h-0.1l-0.1,0
			c-0.3,0.2,0,0.7,0.1,1l0.1,0.1l0.1,0.1h0.1l0.1,0.1h0.1l0.1-0.1h0.1l0.1-0.1V523L300.8,522.9"/>
		<path class="st4" d="M302.6,500.5c0.1-0.1,0.1-0.2,0.1-0.4"/>
		<path class="st4" d="M302.3,500.4c0,0.1,0.2,0.2,0.3,0.1c0,0,0,0,0,0"/>
		<line class="st4" x1="303" y1="500.3" x2="302.6" y2="500.5"/>
		<path class="st4" d="M301.4,500.9c0.1,0.1,0.2,0.1,0.4,0.1"/>
		<polyline class="st4" points="302.6,500.5 301.7,501 302.1,500.8 		"/>
		<line class="st4" x1="303" y1="500.3" x2="302.1" y2="500.8"/>
		<line class="st4" x1="301.7" y1="501" x2="301.7" y2="531.2"/>
		<path class="st4" d="M301.4,531.1c0.1,0.1,0.2,0.1,0.4,0.1l0.4-0.2v-30.2"/>
		<line class="st4" x1="296.9" y1="498.3" x2="296.9" y2="498.3"/>
		<path class="st4" d="M296.9,528.5L296.9,528.5"/>
		<line class="st4" x1="301.7" y1="531.2" x2="300.7" y2="531.8"/>
		<path class="st4" d="M300.4,531.7c0,0.1,0.1,0.2,0.2,0.1c0,0,0,0,0.1,0"/>
		<line class="st4" x1="301" y1="531.6" x2="300.7" y2="531.8"/>
		<line class="st4" x1="302.1" y1="531" x2="301" y2="531.6"/>
		<path class="st4" d="M298,530.2v0.1"/>
		<line class="st4" x1="344" y1="486" x2="344" y2="476.6"/>
		<line class="st4" x1="339.3" y1="484.7" x2="339.3" y2="484.6"/>
		<polyline class="st4" points="345.1,475.7 345.1,431.9 345.4,431.7 345.4,428.7 345.5,428.6 		"/>
		<line class="st4" x1="345.5" y1="475.5" x2="345.5" y2="428.6"/>
		<line class="st4" x1="345.1" y1="475.7" x2="345.5" y2="475.5"/>
		<line class="st4" x1="345.4" y1="428.7" x2="345.4" y2="428.7"/>
		<line class="st4" x1="345.4" y1="431.7" x2="345.4" y2="431.7"/>
		<path class="st4" d="M345.5,428.6C345.5,428.6,345.5,428.6,345.5,428.6"/>
		<path class="st4" d="M345.4,475.8c0.1-0.1,0.1-0.2,0.1-0.4"/>
		<line class="st4" x1="345.4" y1="475.8" x2="344.9" y2="476.1"/>
		<line class="st4" x1="344.5" y1="476.4" x2="344.1" y2="476.6"/>
		<line class="st4" x1="344.5" y1="476.4" x2="345.4" y2="475.8"/>
		<path class="st4" d="M307.1,444.5l-0.3,0.2c-2.3,1.6-3.8,4.2-4,7l-0.1,0.4"/>
		<path class="st4" d="M302.5,452.1c0.1,0.1,0.2,0.1,0.3,0"/>
		<path class="st4" d="M302.5,452.1v-0.4c0.3-2.9,1.8-5.6,4.2-7.3l0.3-0.2"/>
		<path class="st4" d="M307.1,444.5c0-0.1-0.1-0.2-0.2-0.3"/>
		<line class="st4" x1="295.9" y1="448.2" x2="302.5" y2="452.1"/>
		<path class="st4" d="M300.4,440.4l-0.3,0.2c-2.4,1.7-4,4.4-4.3,7.3v0.3"/>
		<line class="st4" x1="307" y1="444.2" x2="300.4" y2="440.4"/>
		<line class="st4" x1="308.2" y1="443.9" x2="307.1" y2="444.5"/>
		<path class="st4" d="M308.2,443.9L308.2,443.9l-1.1,0.7l-0.3,0.2c-2.3,1.6-3.7,4.1-4,6.8v0.4"/>
		<line class="st4" x1="302.9" y1="453.2" x2="302.9" y2="452"/>
		<line class="st4" x1="302.8" y1="452.1" x2="302.8" y2="453.3"/>
		<line class="st4" x1="302.5" y1="453.3" x2="302.5" y2="452.1"/>
		<line class="st4" x1="307" y1="444.2" x2="308" y2="443.6"/>
		<path class="st4" d="M308.2,443.9c0-0.1-0.1-0.2-0.2-0.3"/>
		<line class="st4" x1="295.9" y1="448.2" x2="295.9" y2="449.5"/>
		<line class="st4" x1="301.4" y1="439.8" x2="300.4" y2="440.4"/>
		<line class="st4" x1="301.4" y1="439.8" x2="308" y2="443.6"/>
		<path class="st4" d="M301.4,439.8c0-0.1-0.1-0.1-0.1,0"/>
		<path class="st4" d="M341.2,424.9l-1.1,0.6c0-0.1-0.1-0.2-0.2-0.3l1.1-0.6"/>
		<path class="st4" d="M341.2,424.9c0-0.1-0.1-0.2-0.2-0.3"/>
		<path class="st4" d="M333.3,421.4h-0.1"/>
		<line class="st4" x1="339.9" y1="425.2" x2="333.3" y2="421.4"/>
		<line class="st4" x1="340.1" y1="425.5" x2="340.1" y2="425.6"/>
		<line class="st4" x1="345.5" y1="428.6" x2="345.5" y2="427.4"/>
		<line class="st4" x1="345.4" y1="428.7" x2="345.4" y2="427.5"/>
		<path class="st4" d="M341.2,425l0.2-0.2c2.2-1,3.8-0.1,4,2.3v0.4"/>
		<line class="st4" x1="340.1" y1="425.6" x2="341.2" y2="425"/>
		<path class="st4" d="M345.5,427.4v-0.4c-0.1-2.5-1.9-3.4-4.1-2.3l-0.2,0.2"/>
		<line class="st4" x1="334.4" y1="420.8" x2="333.3" y2="421.4"/>
		<line class="st4" x1="334.4" y1="420.8" x2="341" y2="424.6"/>
		<line class="st4" x1="344.2" y1="424.3" x2="344.2" y2="424.3"/>
		<polyline class="st4" points="343.9,424.5 343.9,424.6 344,424.7 		"/>
		<line class="st4" x1="340.1" y1="425.5" x2="308.2" y2="443.9"/>
		<line class="st4" x1="308" y1="443.6" x2="339.9" y2="425.2"/>
		<line class="st4" x1="340.1" y1="425.6" x2="308.2" y2="444"/>
		<path class="st4" d="M317.5,431.6l-0.2,0.2l-0.1,0.2c-0.3,0.4-0.2,1,0.1,1.4l0.1,0.2l0.2,0.2c0.6,0.5,1.4,0.8,2.2,0.9h1
			c1.4,0.1,4.3-1,3.2-2.8l-0.1-0.2l-0.1-0.1"/>
		<path class="st4" d="M311.6,569.1l-0.2-0.1c-0.7-0.2-1.5,0-2,0.6l-0.1,0.2l-8.8-5l-2.9-3.5l-1.1-0.7"/>
		<line class="st4" x1="296.4" y1="509.4" x2="296.4" y2="560.6"/>
		<path class="st4" d="M305.3,516c-0.4-0.9-0.9-1.8-1.7-2.5"/>
		<path class="st4" d="M307.6,525l-0.1-0.7c-0.3-2.6-1-5.2-1.9-7.6l-0.3-0.7"/>
		<path class="st4" d="M308.2,555l0.1-1.9c0.4-8.7,0.3-17.4-0.5-26l-0.2-2"/>
		<polyline class="st4" points="308.2,555 310.4,558.4 313.7,564.6 		"/>
		<path class="st4" d="M314.2,566.8c0-0.8-0.2-1.5-0.4-2.2"/>
		<line class="st4" x1="314.2" y1="566.8" x2="323.1" y2="572"/>
		<line class="st4" x1="323.1" y1="574.4" x2="323.1" y2="572"/>
		<line class="st4" x1="313.7" y1="569" x2="323.1" y2="574.4"/>
		<line class="st4" x1="313.7" y1="569" x2="313.7" y2="568.5"/>
		<path class="st4" d="M313.7,568.5l-0.1,0.2c-0.5,0.5-1.2,0.7-1.8,0.5l-0.2-0.1"/>
		<path class="st4" d="M320.8,483.4l-0.2-0.4c-0.8-1.2-2-2.1-3.3-2.6l-0.3-0.1"/>
		<polyline class="st4" points="321.2,485.1 321.3,485 321.3,484.9 321.4,484.8 321.4,484.6 321.3,484.4 321.3,484.2 321.2,484.1 
			321.1,483.9 321.1,483.7 320.9,483.5 320.8,483.4 		"/>
		<path class="st4" d="M316,491.1l0.4-0.6c1.1-1.9,2.6-3.6,4.3-4.9l0.5-0.4"/>
		<path class="st4" d="M312.4,488.6l0.2,0.3c0.6,1,2,2.6,3.3,2.3l0.2-0.1"/>
		<path class="st4" d="M317,480.3l-0.4,0.1c-3.7,0.6-4.5,4.5-4.3,7.7l0.1,0.5"/>
		<path class="st4" d="M337.8,473.6l-0.2-0.4c-0.8-1.1-2-2-3.2-2.6l-0.3-0.1"/>
		<line class="st4" x1="337.8" y1="473.6" x2="320.8" y2="483.4"/>
		<line class="st4" x1="334" y1="470.6" x2="317" y2="480.3"/>
		<path class="st4" d="M338.2,475.4l0.1-0.1c0.1-0.5,0-1.1-0.4-1.5l-0.1-0.2"/>
		<line class="st4" x1="338.2" y1="475.4" x2="321.2" y2="485.1"/>
		<path class="st4" d="M333.1,481.3l0.3-0.6c1.1-1.9,2.6-3.6,4.3-5l0.5-0.4"/>
		<polyline class="st4" points="333.1,481.3 326.7,485 322.4,487.4 316,491.1 		"/>
		<line class="st4" x1="367.7" y1="506.7" x2="370" y2="508.1"/>
		<path class="st4" d="M363.6,524.4l0.2-0.9c0.1-0.3,0.1-0.7,0.2-1c0.1-0.3,0.1-0.6,0.2-0.9c0-0.3,0.1-0.7,0.2-1l0.2-1
			c0.6-1.8,1.2-3.7,1.7-5.6l0.3-1.1c0.1-0.3,0.2-0.7,0.3-1l0.2-0.9c0.1-0.3,0.2-0.7,0.2-1c0.1-0.3,0.1-0.6,0.1-0.9s0.1-0.5,0.1-0.8
			v-1.7"/>
		<path class="st4" d="M370,508.1c0,0.2,0,0.4-0.1,0.7c-0.1,0.2-0.1,0.5-0.1,0.7c0,0.3-0.1,0.6-0.1,0.8c-0.1,0.2-0.1,0.5-0.2,0.8
			s-0.2,0.6-0.2,0.9c-0.1,0.3-0.2,0.6-0.3,0.9l-0.3,1c-0.7,2.3-1.6,4.6-2.3,6.9l-0.3,1c-0.1,0.4-0.2,0.8-0.3,1.1
			c-0.1,0.4-0.2,0.8-0.2,1.1c-0.1,0.4-0.2,0.8-0.2,1.1c-0.1,0.3-0.2,0.7-0.2,1c0,0.3-0.1,0.6-0.1,0.9c0,0.3-0.1,0.6-0.1,0.9
			c0,0.3,0,0.6-0.1,0.8c0,0.3,0,0.5,0,0.8l-1.7-0.9v-0.8c0-0.3,0-0.6,0.1-0.8c0.1-0.3,0.3-2.6,0.4-2.9"/>
		<path class="st4" d="M370,559.7v0.4c-0.1,3.5-2.1,6.7-4.7,8.9l-0.5,0.5V567"/>
		<line class="st4" x1="364.9" y1="529.6" x2="364.9" y2="567"/>
		<path class="st4" d="M370,508.1v-0.5c0.1-3.3-1.7-6.4-4-8.7l-0.5-0.5"/>
		<path class="st4" d="M363.8,523.5v-24.4l0.5,0.4c1.8,1.8,3,4.1,3.4,6.7l0.1,0.5"/>
		<line class="st4" x1="363.2" y1="528.7" x2="363.2" y2="566.1"/>
		<path class="st4" d="M334,470.6c-0.7,0-1.4,0.3-2,0.6"/>
		<path class="st4" d="M305.3,516h0.4c1.1-0.3,2.1-0.7,3.1-1.2l0.4-0.2"/>
		<path class="st4" d="M309.2,514.5l0.4,0.8c1.1,2.8,1.8,5.6,2.2,8.6l0.1,0.8"/>
		<path class="st4" d="M307.6,525l0.2,0.1c1.3,0.4,2.6,0.3,3.8-0.2l0.2-0.1"/>
		<path class="st4" d="M303.6,513.6v-0.2c0-0.1,0-0.2,0.1-0.3c0.1-0.1,0.1-0.2,0.1-0.4s0.1-0.3,0.2-0.4c0.1-0.1,0.2-0.3,0.2-0.4
			c0.1-0.1,0.2-0.3,0.3-0.4c0.1-0.2,0.2-0.3,0.4-0.4l0.3-0.3c0.1-0.1,0.2-0.2,0.4-0.3l0.4-0.2"/>
		<path class="st4" d="M309.2,514.5c-0.7-1.7-1.8-3.2-3.2-4.4"/>
		<line class="st4" x1="346.9" y1="492.8" x2="309.2" y2="514.5"/>
		<path class="st4" d="M349.6,502.9l-0.1-0.7c-0.4-3-1.2-5.9-2.3-8.6l-0.3-0.8"/>
		<line class="st4" x1="349.6" y1="502.9" x2="311.8" y2="524.7"/>
		<line class="st4" x1="322.9" y1="500.3" x2="306" y2="510.1"/>
		<path class="st4" d="M322.9,500.3l0.7-0.1l0.6-0.2l0.8-0.4l0.2-0.1"/>
		<path class="st4" d="M325.2,499.5l0.2-0.1l0.4-0.2l0.3-0.3l0.4-0.4c0.1-0.1,0.2-0.3,0.3-0.5"/>
		<line class="st4" x1="343.7" y1="488.3" x2="326.8" y2="498"/>
		<path class="st4" d="M346.9,492.8c-0.7-1.7-1.8-3.3-3.2-4.4"/>
		<line class="st4" x1="363.2" y1="566.1" x2="364.9" y2="567"/>
		<path class="st4" d="M282.2,496.3c-1.2,0-2.4,0.3-3.4,1"/>
		<path class="st4" d="M296.9,507.6c-0.3,0.6-0.5,1.2-0.5,1.9"/>
		<polyline class="st4" points="296.9,506.4 296.2,506 295.9,506.4 295.7,506.7 295.6,506.9 295.5,507.2 295.3,507.7 295.2,507.9 
			295.2,508.2 295.1,508.5 295.1,508.7 278.8,499.3 		"/>
		<path class="st4" d="M278.2,497.7c0,0.1,0.1,0.3,0.1,0.4c0,0.1,0.1,0.3,0.1,0.4l0.2,0.4c0.1,0.1,0.1,0.3,0.2,0.4"/>
		<line class="st4" x1="278.8" y1="497.3" x2="278.3" y2="497.7"/>
		<path class="st4" d="M326.8,498c0.1-0.1,0.2-0.2,0.2-0.4c0.1-0.1,0.1-0.2,0.2-0.3c0-0.2,0.1-0.3,0.1-0.4v-0.2"/>
		<path class="st4" d="M314.5,497v0.2c0,0.1,0,0.2,0.1,0.4c0,0.1,0.1,0.3,0.1,0.4c0.1,0.1,0.2,0.2,0.2,0.4c0.1,0.1,0.2,0.2,0.3,0.4
			l0.4,0.4c0.1,0.1,0.3,0.2,0.4,0.3c0.2,0.1,0.3,0.2,0.5,0.3l0.5,0.2c1.6,0.7,3.5,0.9,5.2,0.5l0.7-0.1"/>
		<path class="st4" d="M311.8,524.7l0.2,2c0.8,9.4,1,18.9,0.4,28.3l-0.1,1.8l-0.4,0.2c-0.1,0-0.2,0.1-0.4,0.1h-0.4l-0.4-0.1
			c-0.1,0-0.3-0.1-0.4-0.1l-0.4-0.2c-0.2-0.1-0.3-0.2-0.5-0.3c-0.2-0.1-0.3-0.2-0.4-0.3c-0.3-0.3-0.6-0.6-0.8-1l-0.1-0.2"/>
		<path class="st4" d="M350,535l0.1-1.8c0.5-9.4,0.4-18.9-0.4-28.3l-0.2-2"/>
		<line class="st4" x1="350" y1="535" x2="312.3" y2="556.8"/>
		<line class="st4" x1="340.3" y1="485.6" x2="363.8" y2="499.2"/>
		<line class="st4" x1="340.3" y1="485.6" x2="340.6" y2="485.4"/>
		<line class="st4" x1="365.6" y1="498.3" x2="344.2" y2="486"/>
		<path class="st4" d="M356.6,571.8l-0.8,0.3c-10.4,3.5-21.6,3.6-32,0.2l-0.8-0.3"/>
		<polyline class="st4" points="314.2,566.8 315.7,565.9 324.5,570.9 		"/>
		<path class="st4" d="M355,570.8l-0.7,0.2c-9.4,3.2-19.6,3.2-29,0.1l-0.8-0.2"/>
		<line class="st4" x1="363.2" y1="566.1" x2="362" y2="566.8"/>
		<line class="st4" x1="356.5" y1="569.9" x2="355" y2="570.8"/>
		<line class="st4" x1="364.9" y1="567" x2="363.6" y2="567.8"/>
		<line class="st4" x1="358.2" y1="570.9" x2="356.6" y2="571.8"/>
		<path class="st4" d="M356.6,574.2l-0.8,0.2c-10.4,3.6-21.6,3.7-32,0.2l-0.8-0.2"/>
		<line class="st4" x1="356.6" y1="574.2" x2="356.6" y2="571.8"/>
		<path class="st4" d="M321.2,495.2v-0.7c-0.1-2.2,0.3-4.5,1-6.6l0.2-0.5"/>
		<path class="st4" d="M321.5,496.4c-0.1-0.4-0.2-0.9-0.4-1.3"/>
		<path class="st4" d="M321.5,496.4l-0.7-1.1l-0.2-0.3c-0.2-0.2-0.3-0.4-0.5-0.5s-0.3-0.3-0.5-0.4s-0.4-0.3-0.5-0.4l-0.5-0.2
			l-0.8-0.4c-0.2,0-0.3-0.1-0.4-0.1H317"/>
		<path class="st4" d="M317.6,492.4c-0.3,0.1-0.5,0.3-0.7,0.5"/>
		<path class="st4" d="M317.6,492.4c0.2-0.8,0.5-1.7,0.7-2.5"/>
		<path class="st4" d="M325.4,492.7V492c-0.1-2.2,0.3-4.4,1-6.5l0.2-0.5"/>
		<polyline class="st4" points="325.4,492.7 323.3,494 321.2,495.2 		"/>
		<line class="st4" x1="296.2" y1="559.3" x2="296.4" y2="559.4"/>
		<line class="st4" x1="296.2" y1="559.3" x2="296.2" y2="506"/>
		<polyline class="st4" points="296.2,559.3 295.1,559.9 295.1,508.7 		"/>
		<polyline class="st4" points="295.1,559.9 289.3,556.5 284.6,555.9 278.8,552.6 		"/>
		<line class="st4" x1="278.8" y1="499.3" x2="278.8" y2="552.6"/>
		<path class="st4" d="M323.3,494l-0.3,0.2c-0.1,0.1-0.2,0.2-0.2,0.2l-0.2,0.2l-0.5,0.9l-0.2,0.4l-0.2,0.5"/>
		<path class="st4" d="M325.8,494l-0.7-0.2l-0.4-0.1h-0.8c-0.1,0-0.3,0.1-0.4,0.1l-0.1,0.1"/>
		<path class="st4" d="M325.8,494c-0.1-0.5-0.2-0.9-0.4-1.3"/>
		<line class="st4" x1="350.8" y1="535.1" x2="354.1" y2="541.2"/>
		<line class="st4" x1="350.5" y1="534.6" x2="350.8" y2="535.1"/>
		<path class="st4" d="M350.5,534.6l0.2-1.9c0.5-9.4,0.4-18.7-0.4-28.1l-0.2-2l-0.1-0.8c-0.4-2.9-1.1-5.8-2.2-8.6l-0.3-0.8
			c-0.7-1.7-1.8-3.2-3.2-4.4l-4-2.3"/>
		<line class="st4" x1="340.3" y1="485.6" x2="340.3" y2="485.7"/>
		<path class="st4" d="M354.1,545.7v-0.5c0.2-0.3,0.3-0.6,0.4-1"/>
		<path class="st4" d="M354.5,544.1c0.1-1-0.1-1.9-0.4-2.8"/>
		<line class="st4" x1="354.1" y1="545.7" x2="363.2" y2="551"/>
		<line class="st4" x1="364.9" y1="569.5" x2="356.6" y2="574.2"/>
		<line class="st4" x1="319.9" y1="474.5" x2="319.9" y2="473.5"/>
		<path class="st4" d="M278.2,497.7c0,0.1-0.1,0.1-0.1,0.2"/>
		<path class="st4" d="M278.8,552.6l-0.2-0.1c-0.2-0.2-0.4-0.4-0.5-0.7v-0.2"/>
		<line class="st4" x1="314.4" y1="556.1" x2="310.4" y2="558.4"/>
		<line class="st4" x1="317.7" y1="562.3" x2="314.4" y2="556.1"/>
		<line class="st4" x1="317.7" y1="562.3" x2="313.7" y2="564.6"/>
		<line class="st4" x1="350.8" y1="535.1" x2="348.4" y2="536.5"/>
		<line class="st4" x1="348.3" y1="536.3" x2="348.4" y2="536.5"/>
		<line class="st4" x1="348.3" y1="536.3" x2="314.3" y2="555.9"/>
		<line class="st4" x1="314.4" y1="556.1" x2="314.3" y2="555.9"/>
		<path class="st4" d="M350.5,534.6c-0.1,0.2-0.3,0.3-0.4,0.4"/>
		<path class="st4" d="M318.1,565.1c0.1-0.9,0-1.9-0.4-2.8"/>
		<path class="st4" d="M317.2,566.7l0.1-0.1c0.4-0.3,0.7-0.8,0.8-1.3v-0.3"/>
		<line class="st4" x1="347.2" y1="536.9" x2="347.2" y2="547.9"/>
		<line class="st4" x1="318.1" y1="564.6" x2="347.2" y2="547.9"/>
		<polyline class="st4" points="346.9,492.8 347.2,492.6 347.4,492.5 		"/>
		<path class="st4" d="M349.6,502.9c0.2-0.1,0.3-0.2,0.5-0.4"/>
		<polyline class="st4" points="343.7,488.3 344,488.1 344.2,488.1 		"/>
		<line class="st4" x1="310.7" y1="568.9" x2="309.2" y2="569.8"/>
		<path class="st4" d="M336.8,483.4c-0.2-0.3-0.5-0.4-0.8-0.4l1.2,0.7"/>
		<path class="st4" d="M337.7,483.8l-0.5-0.2"/>
		<line class="st4" x1="348.4" y1="536.5" x2="351.7" y2="542.6"/>
		<path class="st4" d="M352.1,545.4c0.1-1,0-1.9-0.4-2.8"/>
		<path class="st4" d="M352.1,545.4l-0.1,0.3c-0.1,0.9-0.9,1.6-1.8,1.5c-0.1,0-0.3,0-0.4-0.1l-0.2-0.1l-0.2-0.1
			c-0.7-0.2-1.5,0-2,0.7l-0.1,0.2"/>
		<line class="st4" x1="354.1" y1="541.2" x2="351.7" y2="542.6"/>
		<line class="st4" x1="354.5" y1="544.1" x2="352.1" y2="545.4"/>
		<line class="st4" x1="348.7" y1="547" x2="347.2" y2="547.9"/>
		<polyline class="st4" points="224.9,508 229.4,505.4 237.2,507.4 278.2,531 		"/>
		<line class="st4" x1="228.4" y1="512.4" x2="278.2" y2="541.2"/>
		<line class="st4" x1="224.9" y1="508" x2="228.4" y2="512.4"/>
		<line class="st4" x1="228.4" y1="515.8" x2="228.4" y2="512.4"/>
		<line class="st4" x1="228.4" y1="515.8" x2="278.2" y2="544.5"/>
		<line class="st4" x1="248.3" y1="500.9" x2="278.2" y2="518.2"/>
		<line class="st4" x1="244.8" y1="496.5" x2="248.3" y2="500.9"/>
		<polyline class="st4" points="244.8,496.5 249.4,493.9 257.1,495.9 278.2,508.1 		"/>
		<line class="st4" x1="248.3" y1="504.3" x2="248.3" y2="500.9"/>
		<line class="st4" x1="248.3" y1="504.3" x2="278.2" y2="521.6"/>
		<polyline class="st4" points="224.9,508 224.9,511.4 228.4,515.8 		"/>
		<polyline class="st4" points="244.8,496.5 244.8,499.8 248.3,504.3 		"/>
		<line class="st4" x1="317.3" y1="429.5" x2="317.3" y2="429.4"/>
		<path class="st4" d="M324.2,430.5v0.1c0.1,0.1,0.1,0.2,0,0.2c0,0.1,0,0.2-0.1,0.3c-0.1,0.1-0.1,0.2-0.2,0.2c0,0.1-0.1,0.2-0.2,0.2
			c-0.1,0.1-0.2,0.2-0.2,0.2l-0.3,0.2"/>
		<path class="st4" d="M323.2,432l-0.4,0.2c-1.6,0.7-3.4,0.6-4.9-0.4l-0.2-0.2c-0.1-0.1-0.2-0.1-0.2-0.2s-0.1-0.2-0.1-0.2
			c0-0.1-0.1-0.2-0.1-0.3c-0.1-0.1-0.1-0.2,0-0.2c-0.1-0.1-0.1-0.1,0-0.1"/>
		<path class="st4" d="M318.4,428.2l0.5-0.2l0.2-0.1c1.2-0.4,2.5-0.3,3.7,0.2l0.2,0.1l0.2,0.1l0.2,0.1c0.3,0.2,0.5,0.5,0.5,0.8
			l0.1,0.2v0.4l-0.1,0.1l-0.1,0.2l-0.1,0.2l-0.1,0.1l-0.1,0.2l-0.4,0.2l-0.2,0.2l-0.2,0.1l-0.2,0.1c-0.4,0.2-0.9,0.2-1.4,0.2
			l-0.3,0.1l-0.3-0.1c-0.5,0-0.9,0-1.4-0.2l-0.2-0.1l-0.5-0.2c-0.8-0.6-1.2-1.4-0.5-2.2l0.2-0.2L318.4,428.2"/>
		<path class="st4" d="M322.3,428.6l0.2,0.1l0.2,0.2c0.3,0.3,0.3,0.8,0,1.2c-0.1,0.1-0.1,0.1-0.2,0.2l-0.1,0.1l-0.2,0.1
			c-0.8,0.3-1.7,0.4-2.5,0.1l-0.2-0.1l-0.4-0.2l-0.2-0.1c-0.4-0.3-0.5-0.9-0.2-1.3c0.1-0.1,0.1-0.1,0.2-0.2l0.1-0.1l0.2-0.1
			c0.8-0.4,1.7-0.5,2.5-0.2l0.2,0.1l0.2,0.1L322.3,428.6"/>
		<path class="st4" d="M317.5,431.5L317.5,431.5c1.2,1.7,5.1,1.7,6.3,0.1l0.1-0.1"/>
		<path class="st4" d="M323.1,432.8l-0.1,0.1c-0.9,1.2-3.8,1.2-4.7-0.1v-0.1"/>
		<path class="st4" d="M322.6,428.9c-0.1-0.1-0.2-0.2-0.4-0.3"/>
		<path class="st4" d="M319.3,428.6l0.2-0.1c0.9-0.4,2-0.3,2.9,0.2l0.1,0.1"/>
		<path class="st4" d="M319.3,428.6l0.3-0.2c0.7-0.3,1.4-0.3,2.1,0l0.3,0.1"/>
		<path class="st4" d="M319.3,430.2l-0.2-0.2l-0.2-0.2c-0.1-0.1-0.1-0.1-0.1-0.2c-0.1-0.1-0.1-0.3,0-0.4c0-0.1,0.1-0.1,0.1-0.2
			l0.2-0.2l0.2-0.2"/>
		<path class="st4" d="M322,430.2l-0.3,0.1c-0.7,0.3-1.4,0.3-2.1,0l-0.3-0.1"/>
		<path class="st4" d="M322,428.6l0.2,0.1c0.1,0.1,0.2,0.1,0.2,0.2s0.1,0.1,0.1,0.2c0.1,0.1,0.1,0.3,0,0.4c0,0.1,0,0.2-0.1,0.2
			c0,0.1-0.1,0.1-0.2,0.2l-0.2,0.2"/>
		<line class="st4" x1="320.8" y1="429.4" x2="320.7" y2="429.4"/>
		<line class="st4" x1="320.6" y1="429.3" x2="320.7" y2="429.3"/>
		<line class="st4" x1="317.9" y1="432.8" x2="317.9" y2="432.8"/>
		<line class="st4" x1="317.6" y1="433.1" x2="317.6" y2="433"/>
		<line class="st4" x1="317.6" y1="432.8" x2="317.9" y2="432.8"/>
		<path class="st4" d="M317.9,432.8v0.1h-0.4"/>
		<line class="st4" x1="322.6" y1="433.6" x2="322.6" y2="433.6"/>
		<line class="st4" x1="322.7" y1="433.8" x2="322.7" y2="433.8"/>
		<line class="st4" x1="323" y1="433.8" x2="322.7" y2="433.8"/>
		<path class="st4" d="M323,433.6v0.1"/>
		<line class="st4" x1="322.7" y1="433.5" x2="323" y2="433.5"/>
		<line class="st4" x1="317.9" y1="432.7" x2="317.8" y2="432.7"/>
		<path class="st4" d="M317.9,432.7c0.1,0.1,0.1,0.1,0.1,0.2"/>
		<line class="st4" x1="318.1" y1="432.9" x2="318.1" y2="432.9"/>
		<line class="st4" x1="318" y1="433" x2="318" y2="432.9"/>
		<path class="st4" d="M317.9,433.3v-0.2l0.1-0.1"/>
		<path class="st4" d="M322.3,434l-0.2,0.1c-1.4,0.4-2.8,0.2-4-0.6l-0.1-0.2"/>
		<line class="st4" x1="322.4" y1="434" x2="322.3" y2="434"/>
		<path class="st4" d="M322.5,433.8v0.2"/>
		<path class="st4" d="M322.5,433.6v0.1"/>
		<line class="st4" x1="322.5" y1="433.6" x2="322.7" y2="433.4"/>
		<line class="st4" x1="322.8" y1="433.4" x2="322.8" y2="433.4"/>
		<line class="st4" x1="323" y1="433.4" x2="322.8" y2="433.4"/>
		<line class="st4" x1="323.3" y1="433.4" x2="323" y2="433.4"/>
		<line class="st4" x1="323.3" y1="433.4" x2="323.3" y2="433.4"/>
		<path class="st4" d="M323.6,431.9L323.6,431.9c0.3,0.5,0.2,1-0.2,1.4l-0.1,0.2"/>
		<path class="st4" d="M317.8,431.9c-0.1,0.2-0.2,0.4-0.2,0.7"/>
		<polyline class="st4" points="317.8,432.7 317.6,432.7 317.6,432.6 		"/>
		<line class="st4" x1="317.5" y1="431.6" x2="317.5" y2="431.6"/>
		<line class="st4" x1="323.8" y1="431.6" x2="323.8" y2="431.6"/>
		<polyline class="st4" points="323.3,433.4 323.3,433.4 323,433.4 		"/>
		<line class="st4" x1="322.8" y1="433.4" x2="323" y2="433.4"/>
		<path class="st4" d="M322.5,433.8v-0.2h0.2"/>
		<path class="st4" d="M322.5,433.8v0.2"/>
		<path class="st4" d="M322.4,434L322.4,434l-0.3,0.1c-1,0.4-3.3,0.1-4-0.7l-0.1-0.1v-0.2l0-0.1"/>
		<polyline class="st4" points="318.1,432.9 318.1,432.9 318,433 		"/>
		<polyline class="st4" points="317.8,432.7 318,432.7 318,432.8 		"/>
		<polyline class="st4" points="317.8,432.7 317.6,432.7 317.6,432.6 		"/>
		<path class="st4" d="M317.8,431.9c-0.1,0.2-0.2,0.4-0.2,0.7"/>
		<path class="st4" d="M323.6,431.9L323.6,431.9c0.3,0.5,0.2,1-0.2,1.4l-0.1,0.2"/>
		<path class="st4" d="M323.3,432.3c0.1,0.1,0.1,0.2,0,0.3c0,0.1-0.1,0.2-0.1,0.2c-0.1,0.1-0.1,0.2-0.2,0.3
			c-0.1,0.1-0.2,0.2-0.4,0.2l-0.4,0.2c-0.2,0.1-0.3,0.1-0.5,0.1l-0.5,0.1h-1l-0.5-0.1c-0.2,0-0.3-0.1-0.5-0.2
			c-0.1,0-0.3-0.1-0.4-0.2c-0.1-0.1-0.2-0.1-0.3-0.2c-0.1,0-0.2-0.1-0.2-0.2c-0.1-0.1-0.1-0.2-0.2-0.3v-0.3"/>
		<line class="st4" x1="322.3" y1="434" x2="322.3" y2="434"/>
		<line class="st4" x1="317.9" y1="433.3" x2="317.9" y2="433.3"/>
		<path class="st4" d="M318.8,433.4c0.1,0,0.3,0.1,0.4,0.2l0.5,0.2l0.5,0.1h1l0.5-0.1l0.4-0.2c0.1,0,0.3-0.1,0.4-0.2
			c0.1-0.1,0.3-0.1,0.4-0.2c0.1-0.1,0.1-0.2,0.2-0.2s0.1-0.2,0.1-0.3v-0.3"/>
		<path class="st4" d="M318,432.3c0.1,0.1,0.1,0.2,0.1,0.4s0.1,0.2,0.2,0.3s0.1,0.2,0.2,0.2c0.1,0.1,0.2,0.2,0.3,0.2"/>
		<path class="st4" d="M318.1,432.5c0.1,0.3,0.2,0.6,0.5,0.8"/>
		<path class="st4" d="M322.8,433.2c0.2-0.2,0.4-0.4,0.4-0.7"/>
		<line class="st4" x1="320.8" y1="429.4" x2="320.6" y2="429.4"/>
		<line class="st4" x1="320.6" y1="429.3" x2="320.6" y2="429.3"/>
		<polyline class="st4" points="322.8,433.8 322.7,433.8 322.9,433.8 		"/>
		<polyline class="st4" points="322.9,433.6 323,433.6 322.8,433.6 		"/>
		<polyline class="st4" points="322.9,433.7 322.7,433.7 322.7,433.7 322.8,433.8 322.9,433.7 322.9,433.7 322.9,433.7 		"/>
		<polyline class="st4" points="322.6,433.5 322.7,433.5 322.8,433.5 		"/>
		<line class="st4" x1="323" y1="433.4" x2="323" y2="433.4"/>
		<line class="st4" x1="322.9" y1="433.7" x2="322.8" y2="433.7"/>
		<line class="st4" x1="322.9" y1="433.7" x2="322.9" y2="433.7"/>
		<line class="st4" x1="322.7" y1="433.7" x2="322.7" y2="433.7"/>
		<line class="st4" x1="322.9" y1="433.7" x2="322.9" y2="433.7"/>
		<line class="st4" x1="323.3" y1="433.4" x2="323.3" y2="433.4"/>
		<line class="st4" x1="323.3" y1="432.6" x2="323.3" y2="432.3"/>
		<line class="st4" x1="317.8" y1="432.6" x2="317.8" y2="432.6"/>
		<polyline class="st4" points="318.1,432.9 318.1,432.8 317.9,432.7 		"/>
		<line class="st4" x1="317.6" y1="432.8" x2="317.9" y2="432.8"/>
		<line class="st4" x1="317.8" y1="433" x2="317.6" y2="433"/>
		<polyline class="st4" points="317.8,432.9 317.8,432.9 317.8,432.9 317.6,432.9 317.6,432.9 317.7,432.9 317.8,432.9 317.8,432.9 
			317.6,432.9 		"/>
		<line class="st4" x1="317.6" y1="432.9" x2="317.6" y2="432.9"/>
		<line class="st4" x1="317.8" y1="432.9" x2="317.8" y2="432.9"/>
		<line class="st4" x1="317.6" y1="432.5" x2="317.6" y2="432.5"/>
		<path class="st5" d="M303.7,456v-0.2"/>
		<path class="st5" d="M302.9,509.6L302.9,509.6"/>
		<line class="st5" x1="344.5" y1="432.4" x2="344.5" y2="432.3"/>
		<line class="st5" x1="344.5" y1="432.4" x2="344.3" y2="432.4"/>
		<line class="st5" x1="343" y1="433.1" x2="343" y2="477.1"/>
		<path class="st5" d="M344.6,432.3v-0.1"/>
		<line class="st5" x1="342.9" y1="477.1" x2="342.9" y2="433.2"/>
		<line class="st5" x1="338.3" y1="475.2" x2="338.3" y2="475.2"/>
		<line class="st5" x1="337.7" y1="436.2" x2="337.7" y2="473.4"/>
		<line class="st5" x1="340.3" y1="449.6" x2="340.1" y2="449.8"/>
		<line class="st5" x1="340.4" y1="449.9" x2="340.1" y2="450.1"/>
		<line class="st5" x1="340.3" y1="452.1" x2="340.1" y2="452.2"/>
		<line class="st5" x1="340.4" y1="452.3" x2="340.1" y2="452.6"/>
		<line class="st5" x1="340.3" y1="466.4" x2="340.1" y2="466.5"/>
		<line class="st5" x1="340.4" y1="466.6" x2="340.1" y2="466.8"/>
		<line class="st5" x1="340.3" y1="468.8" x2="340.1" y2="469"/>
		<line class="st5" x1="340.4" y1="469.1" x2="340.1" y2="469.3"/>
		<line class="st5" x1="340.3" y1="476.3" x2="340.1" y2="476.4"/>
		<line class="st5" x1="340.4" y1="476.6" x2="340.1" y2="476.7"/>
		<line class="st5" x1="338.3" y1="475.2" x2="338.3" y2="475.2"/>
		<line class="st5" x1="340.3" y1="478.8" x2="340.1" y2="478.9"/>
		<line class="st5" x1="340.4" y1="479" x2="340.1" y2="479.2"/>
		<line class="st5" x1="340.3" y1="481.6" x2="340.1" y2="481.7"/>
		<line class="st5" x1="340.4" y1="481.8" x2="340.1" y2="482"/>
		<line class="st5" x1="342.2" y1="486.2" x2="342.2" y2="486.3"/>
		<line class="st5" x1="343.1" y1="486.3" x2="343.1" y2="486.2"/>
		<path class="st5" d="M343.2,486.2L343.2,486.2"/>
		<path class="st5" d="M342.1,486.2L342.1,486.2"/>
		<path class="st5" d="M338.5,484.1L338.5,484.1"/>
		<line class="st5" x1="340.3" y1="484.1" x2="340.1" y2="484.2"/>
		<line class="st5" x1="340.4" y1="484.2" x2="340.1" y2="484.5"/>
		<line class="st5" x1="359.2" y1="567.8" x2="359.3" y2="567.8"/>
		<line class="st5" x1="359.6" y1="567.7" x2="359.3" y2="567.5"/>
		<line class="st5" x1="356" y1="570.2" x2="356" y2="569.7"/>
		<line class="st5" x1="356.2" y1="569.7" x2="356.2" y2="570.1"/>
		<line class="st5" x1="358.1" y1="568.5" x2="357.8" y2="568.4"/>
		<line class="st5" x1="355" y1="569.3" x2="354.9" y2="569.3"/>
		<line class="st5" x1="355.2" y1="570" x2="354.9" y2="570.2"/>
		<line class="st5" x1="356.5" y1="569.1" x2="356.5" y2="569"/>
		<line class="st5" x1="360.4" y1="566.8" x2="360.4" y2="566.9"/>
		<line class="st5" x1="352" y1="567.5" x2="352.2" y2="567.3"/>
		<line class="st5" x1="355.7" y1="565.3" x2="355.9" y2="565.2"/>
		<line class="st5" x1="361.7" y1="564.1" x2="361.6" y2="564.2"/>
		<line class="st5" x1="361.9" y1="564.8" x2="361.6" y2="564.9"/>
		<line class="st5" x1="352.1" y1="571.5" x2="352.3" y2="571.6"/>
		<line class="st5" x1="351.2" y1="570.2" x2="351.4" y2="570"/>
		<line class="st5" x1="351.3" y1="570.9" x2="351.5" y2="570.8"/>
		<line class="st5" x1="353.7" y1="570.2" x2="353.7" y2="570.3"/>
		<line class="st5" x1="354.2" y1="570.8" x2="354.2" y2="570.8"/>
		<line class="st5" x1="354.1" y1="570.8" x2="354.1" y2="570.8"/>
		<line class="st5" x1="353.8" y1="570.5" x2="353.8" y2="570.5"/>
		<line class="st5" x1="353.8" y1="570.6" x2="353.8" y2="570.6"/>
		<line class="st5" x1="353.7" y1="570.5" x2="353.7" y2="570.5"/>
		<line class="st5" x1="356.9" y1="566" x2="356.9" y2="566"/>
		<line class="st5" x1="307.1" y1="444.7" x2="307.1" y2="444.7"/>
		<line class="st5" x1="302.9" y1="452" x2="302.9" y2="452"/>
		<line class="st5" x1="341.2" y1="425.1" x2="341.1" y2="425"/>
		<path class="st5" d="M295.8,496.2c0,0,0,0.1,0.1,0.1"/>
		<line class="st5" x1="296" y1="496.7" x2="296" y2="496.7"/>
		<path class="st5" d="M345.5,475.5C345.5,475.5,345.5,475.5,345.5,475.5"/>
		<line class="st5" x1="344.5" y1="486.2" x2="344.5" y2="476.4"/>
		<path class="st5" d="M300.4,440.4h-0.1"/>
		<line class="st5" x1="295.8" y1="448.2" x2="295.9" y2="448.2"/>
		<path class="st5" d="M341,424.6l0.3-0.1c0.8-0.5,1.8-0.6,2.7-0.3l0.2,0.1"/>
		<path class="st5" d="M345.5,427.4C345.5,427.4,345.5,427.3,345.5,427.4"/>
		<path class="st5" d="M337.6,420.5l-0.2-0.1c-0.9-0.3-1.9-0.2-2.7,0.2l-0.3,0.2"/>
		<line class="st5" x1="345.4" y1="427.4" x2="345.4" y2="427.5"/>
		<path class="st5" d="M334.4,420.8c0-0.1-0.1-0.1-0.1,0"/>
		<line class="st5" x1="333.3" y1="421.4" x2="322.2" y2="427.8"/>
		<line class="st5" x1="317.2" y1="430.8" x2="301.4" y2="439.8"/>
		<line class="st5" x1="303.6" y1="513.6" x2="302.1" y2="512.7"/>
		<line class="st5" x1="296.9" y1="509.7" x2="296.4" y2="509.4"/>
		<line class="st5" x1="282.2" y1="496.3" x2="296.9" y2="504.8"/>
		<line class="st5" x1="302.9" y1="508.3" x2="306" y2="510.1"/>
		<line class="st5" x1="319.9" y1="474.5" x2="303.7" y2="483.9"/>
		<line class="st5" x1="295.8" y1="488.4" x2="282.2" y2="496.3"/>
		<line class="st5" x1="343.7" y1="488.3" x2="332.3" y2="481.7"/>
		<line class="st5" x1="323" y1="476.3" x2="319.9" y2="474.5"/>
		<line class="st5" x1="318.1" y1="565.1" x2="316.2" y2="566.1"/>
		<path class="st5" d="M324.1,429.5v0.2c-0.2,2.5-6.6,2.5-6.8-0.1v-0.1"/>
		<path class="st5" d="M319.2,428.6l-0.2,0.1l-0.4,0.4l-0.1,0.1v0.1l-0.1,0.2l0.1,0.1v0.1l0.1,0.1l0.1,0.1c0.3,0.4,0.7,0.6,1.2,0.7
			l0.2,0.1h0.5c0.8,0.1,2.6-0.6,2-1.6l-0.1-0.1l-0.1-0.1"/>
		<path class="st5" d="M322.4,428.8l0.1,0.1l0.1,0.2l0.1,0.1v0.1l0.1,0.1l-0.1,0.1c-0.4,1.7-5.5,1-3.6-0.9l0.2-0.1"/>
		<path class="st5" d="M324.1,431.9c-0.1-0.1-0.1-0.2-0.2-0.3"/>
		<path class="st5" d="M317.5,431.6c-0.1,0.1-0.2,0.2-0.2,0.4"/>
	</g>
</g>
</svg>
