<svg xmlns="http://www.w3.org/2000/svg" viewBox="0 0 56.31 22.03"><defs><style>.cls-1,.cls-2{fill:none;stroke-linecap:round;stroke-linejoin:round;stroke-width:0.43px;}.cls-1{stroke:#000;}.cls-2{stroke:gray;}</style></defs><title>资源 1</title><g id="图层_2" data-name="图层 2"><g id="_0" data-name="0"><g id="LINE"><line class="cls-1" x1="26.49" y1="17.59" x2="26.89" y2="19.89"/></g><g id="LINE-2" data-name="LINE"><line class="cls-1" x1="29.47" y1="19.89" x2="29.87" y2="17.59"/></g><g id="SPLINE"><path class="cls-1" d="M30.35,15.66h0"/></g><g id="SPLINE-2" data-name="SPLINE"><polyline class="cls-1" points="26.06 17.53 26.06 17.54 26.07 17.54 26.07 17.55 26.08 17.55"/></g><g id="ARC"><path class="cls-1" d="M26.36,17.68l.12-.06"/></g><g id="ARC-2" data-name="ARC"><path class="cls-1" d="M26.06,17.62l.11.06"/></g><g id="ARC-3" data-name="ARC"><path class="cls-1" d="M30.18,17.68l.12-.06"/></g><g id="ARC-4" data-name="ARC"><path class="cls-1" d="M29.88,17.62l.11.06"/></g><g id="LINE-3" data-name="LINE"><line class="cls-1" x1="26.06" y1="17.52" x2="26.06" y2="17.62"/></g><g id="LINE-4" data-name="LINE"><line class="cls-1" x1="26.48" y1="17.62" x2="26.48" y2="17.59"/></g><g id="LINE-5" data-name="LINE"><line class="cls-1" x1="29.88" y1="17.59" x2="29.88" y2="17.62"/></g><g id="LINE-6" data-name="LINE"><line class="cls-1" x1="30.3" y1="17.62" x2="30.3" y2="17.52"/></g><g id="LINE-7" data-name="LINE"><line class="cls-1" x1="26.31" y1="17.68" x2="26.31" y2="17.69"/></g><g id="LINE-8" data-name="LINE"><line class="cls-1" x1="30.13" y1="17.68" x2="30.13" y2="17.69"/></g><g id="LINE-9" data-name="LINE"><line class="cls-1" x1="26.22" y1="17.69" x2="26.22" y2="17.68"/></g><g id="LINE-10" data-name="LINE"><line class="cls-1" x1="30.04" y1="17.69" x2="30.04" y2="17.68"/></g><g id="LINE-11" data-name="LINE"><line class="cls-1" x1="26.89" y1="19.89" x2="26.92" y2="20.44"/></g><g id="LINE-12" data-name="LINE"><line class="cls-1" x1="29.44" y1="20.44" x2="29.47" y2="19.89"/></g><g id="LINE-13" data-name="LINE"><line class="cls-1" x1="26.23" y1="17.69" x2="26.23" y2="17.68"/></g><g id="LINE-14" data-name="LINE"><line class="cls-1" x1="30.05" y1="17.69" x2="30.05" y2="17.68"/></g><g id="ARC-5" data-name="ARC"><path class="cls-1" d="M26.92,20.44a0,0,0,0,0,0,0"/></g><g id="ARC-6" data-name="ARC"><path class="cls-1" d="M29.4,20.48a0,0,0,0,0,0,0"/></g><g id="ARC-7" data-name="ARC"><path class="cls-1" d="M28.38,20.55a9.9,9.9,0,0,0,1-.07"/></g><g id="ARC-8" data-name="ARC"><path class="cls-1" d="M27,20.48a9.9,9.9,0,0,0,1,.07"/></g><g id="SPLINE-3" data-name="SPLINE"><polyline class="cls-1" points="30.02 14.48 30.03 14.48 30.04 14.49"/></g><g id="LWPOLYLINE"><path class="cls-1" d="M28.38,20.55"/></g><g id="ARC-9" data-name="ARC"><path class="cls-1" d="M28,20.55"/></g><g id="LINE-15" data-name="LINE"><line class="cls-1" x1="27.98" y1="20.55" x2="28.38" y2="20.55"/></g><g id="ARC-10" data-name="ARC"><path class="cls-1" d="M29.88,17.62l.11.06"/></g><g id="LINE-16" data-name="LINE"><line class="cls-1" x1="26.48" y1="17.62" x2="26.48" y2="17.59"/></g><g id="LINE-17" data-name="LINE"><line class="cls-1" x1="29.88" y1="17.59" x2="29.88" y2="17.62"/></g><g id="LINE-18" data-name="LINE"><line class="cls-1" x1="30.13" y1="17.68" x2="30.13" y2="17.69"/></g><g id="LINE-19" data-name="LINE"><line class="cls-1" x1="26.23" y1="17.69" x2="26.23" y2="17.68"/></g><g id="LINE-20" data-name="LINE"><line class="cls-1" x1="48.14" y1="21.82" x2="50.27" y2="21.82"/></g><g id="LINE-21" data-name="LINE"><line class="cls-1" x1="6.05" y1="21.82" x2="8.17" y2="21.82"/></g><g id="LINE-22" data-name="LINE"><line class="cls-1" x1="5.87" y1="11.96" x2="5.87" y2="0.21"/></g><g id="LINE-23" data-name="LINE"><line class="cls-1" x1="50.44" y1="0.21" x2="50.44" y2="11.96"/></g><g id="LINE-24" data-name="LINE"><line class="cls-1" x1="50.27" y1="15.42" x2="31.69" y2="15.42"/></g><g id="ARC-11" data-name="ARC"><path class="cls-1" d="M31.69,15.42a3.54,3.54,0,0,0-7.07,0"/></g><g id="LINE-25" data-name="LINE"><line class="cls-1" x1="24.62" y1="15.42" x2="6.05" y2="15.42"/></g><g id="LINE-26" data-name="LINE"><line class="cls-1" x1="26.06" y1="15.4" x2="25.85" y2="15.4"/></g><g id="LINE-27" data-name="LINE"><line class="cls-1" x1="25.85" y1="15.05" x2="26.06" y2="15.05"/></g><g id="LINE-28" data-name="LINE"><line class="cls-1" x1="26.06" y1="15.05" x2="26.06" y2="15.39"/></g><g id="LINE-29" data-name="LINE"><line class="cls-1" x1="25.85" y1="15.4" x2="25.85" y2="15.05"/></g><g id="LINE-30" data-name="LINE"><line class="cls-1" x1="26.06" y1="13.77" x2="25.85" y2="13.77"/></g><g id="LINE-31" data-name="LINE"><line class="cls-1" x1="26.06" y1="13.77" x2="26.06" y2="15.05"/></g><g id="LINE-32" data-name="LINE"><line class="cls-1" x1="25.85" y1="13.77" x2="25.85" y2="15.05"/></g><g id="LINE-33" data-name="LINE"><line class="cls-1" x1="25.85" y1="13.42" x2="26.06" y2="13.42"/></g><g id="LINE-34" data-name="LINE"><line class="cls-1" x1="26.06" y1="13.42" x2="26.06" y2="13.77"/></g><g id="LINE-35" data-name="LINE"><line class="cls-1" x1="25.85" y1="13.77" x2="25.85" y2="13.42"/></g><g id="LINE-36" data-name="LINE"><line class="cls-1" x1="25.85" y1="13.42" x2="25.79" y2="13.42"/></g><g id="LINE-37" data-name="LINE"><line class="cls-1" x1="25.79" y1="13.42" x2="25.79" y2="15.4"/></g><g id="LINE-38" data-name="LINE"><line class="cls-1" x1="25.79" y1="15.4" x2="25.85" y2="15.4"/></g><g id="LINE-39" data-name="LINE"><line class="cls-1" x1="23.88" y1="15.42" x2="23.88" y2="17.67"/></g><g id="ARC-12" data-name="ARC"><path class="cls-1" d="M23.88,17.67a.19.19,0,0,0,.39,0"/></g><g id="LINE-40" data-name="LINE"><line class="cls-1" x1="24.27" y1="17.67" x2="24.27" y2="15.42"/></g><g id="LINE-41" data-name="LINE"><line class="cls-1" x1="25.7" y1="15.4" x2="25.7" y2="18.02"/></g><g id="ARC-13" data-name="ARC"><path class="cls-1" d="M25.35,18.37A.35.35,0,0,0,25.7,18"/></g><g id="LINE-42" data-name="LINE"><line class="cls-1" x1="25.35" y1="18.37" x2="23.72" y2="18.37"/></g><g id="ARC-14" data-name="ARC"><path class="cls-1" d="M23.37,18a.35.35,0,0,0,.35.35"/></g><g id="LINE-43" data-name="LINE"><line class="cls-1" x1="23.37" y1="15.42" x2="23.37" y2="18.02"/></g><g id="LINE-44" data-name="LINE"><line class="cls-1" x1="25.79" y1="13.42" x2="25.24" y2="13.42"/></g><g id="LINE-45" data-name="LINE"><line class="cls-1" x1="25.79" y1="15.4" x2="25.7" y2="15.4"/></g><g id="LINE-46" data-name="LINE"><line class="cls-1" x1="30.52" y1="15.05" x2="30.3" y2="15.05"/></g><g id="LINE-47" data-name="LINE"><line class="cls-1" x1="30.52" y1="15.4" x2="30.52" y2="15.05"/></g><g id="LINE-48" data-name="LINE"><line class="cls-1" x1="30.3" y1="15.4" x2="30.52" y2="15.4"/></g><g id="LINE-49" data-name="LINE"><line class="cls-1" x1="30.3" y1="15.05" x2="30.3" y2="15.39"/></g><g id="LINE-50" data-name="LINE"><line class="cls-1" x1="30.3" y1="13.77" x2="30.52" y2="13.77"/></g><g id="LINE-51" data-name="LINE"><line class="cls-1" x1="30.3" y1="13.77" x2="30.3" y2="15.05"/></g><g id="LINE-52" data-name="LINE"><line class="cls-1" x1="30.52" y1="13.77" x2="30.52" y2="15.05"/></g><g id="LINE-53" data-name="LINE"><line class="cls-1" x1="30.52" y1="13.42" x2="30.3" y2="13.42"/></g><g id="LINE-54" data-name="LINE"><line class="cls-1" x1="30.3" y1="13.42" x2="30.3" y2="13.77"/></g><g id="LINE-55" data-name="LINE"><line class="cls-1" x1="30.52" y1="13.77" x2="30.52" y2="13.42"/></g><g id="LINE-56" data-name="LINE"><line class="cls-1" x1="30.52" y1="13.42" x2="30.57" y2="13.42"/></g><g id="LINE-57" data-name="LINE"><line class="cls-1" x1="30.57" y1="13.42" x2="30.57" y2="15.4"/></g><g id="LINE-58" data-name="LINE"><line class="cls-1" x1="30.57" y1="15.4" x2="30.52" y2="15.4"/></g><g id="LINE-59" data-name="LINE"><line class="cls-1" x1="32.09" y1="17.67" x2="32.09" y2="15.42"/></g><g id="ARC-15" data-name="ARC"><path class="cls-1" d="M32.09,17.67a.19.19,0,0,0,.39,0"/></g><g id="LINE-60" data-name="LINE"><line class="cls-1" x1="32.48" y1="15.42" x2="32.48" y2="17.67"/></g><g id="LINE-61" data-name="LINE"><line class="cls-1" x1="32.99" y1="15.42" x2="32.99" y2="18.02"/></g><g id="ARC-16" data-name="ARC"><path class="cls-1" d="M30.66,18a.35.35,0,0,0,.35.35"/></g><g id="LINE-62" data-name="LINE"><line class="cls-1" x1="30.66" y1="15.4" x2="30.66" y2="18.02"/></g><g id="LINE-63" data-name="LINE"><line class="cls-1" x1="30.57" y1="13.42" x2="31.07" y2="13.42"/></g><g id="LINE-64" data-name="LINE"><line class="cls-1" x1="31.01" y1="18.37" x2="32.64" y2="18.37"/></g><g id="ARC-17" data-name="ARC"><path class="cls-1" d="M32.64,18.37A.35.35,0,0,0,33,18"/></g><g id="LINE-65" data-name="LINE"><line class="cls-1" x1="30.57" y1="15.4" x2="30.66" y2="15.4"/></g><g id="LINE-66" data-name="LINE"><line class="cls-1" x1="30.3" y1="16.72" x2="30.3" y2="16.68"/></g><g id="LINE-67" data-name="LINE"><line class="cls-1" x1="30.3" y1="15.54" x2="30.3" y2="15.5"/></g><g id="LINE-68" data-name="LINE"><line class="cls-1" x1="30.3" y1="13.99" x2="26.06" y2="13.99"/></g><g id="LINE-69" data-name="LINE"><line class="cls-1" x1="26.06" y1="14.48" x2="30.3" y2="14.48"/></g><g id="LINE-70" data-name="LINE"><line class="cls-1" x1="26.06" y1="13.77" x2="30.3" y2="13.77"/></g><g id="SPLINE-4" data-name="SPLINE"><path class="cls-1" d="M27.55,16.26a.32.32,0,0,1,0,.07l0,.06-.05,0-.07,0h-.08l-.08,0-.07,0,0-.06a.2.2,0,0,1,0-.07h0"/></g><g id="SPLINE-5" data-name="SPLINE"><path class="cls-1" d="M27.1,16.26a.32.32,0,0,1,0-.07l0-.06.05,0,.07,0h.08l.08,0,.07,0,0,.06a.2.2,0,0,1,0,.07h0"/></g><g id="LINE-71" data-name="LINE"><line class="cls-1" x1="26.92" y1="15.66" x2="26.8" y2="17.34"/></g><g id="SPLINE-6" data-name="SPLINE"><path class="cls-1" d="M27,15.56h0l0,0,0,0v0"/></g><g id="SPLINE-7" data-name="SPLINE"><path class="cls-1" d="M29.35,15.56l-.35,0-.35,0h-.74l-.45,0-.45.06"/></g><g id="SPLINE-8" data-name="SPLINE"><path class="cls-1" d="M29.44,15.66v0l0,0,0,0h0"/></g><g id="LINE-72" data-name="LINE"><line class="cls-1" x1="29.45" y1="15.71" x2="29.44" y2="15.66"/></g><g id="LINE-73" data-name="LINE"><line class="cls-1" x1="30.25" y1="15.71" x2="29.45" y2="15.71"/></g><g id="LINE-74" data-name="LINE"><line class="cls-1" x1="30.25" y1="16.51" x2="30.25" y2="15.71"/></g><g id="LINE-75" data-name="LINE"><line class="cls-1" x1="29.5" y1="16.51" x2="30.25" y2="16.51"/></g><g id="LINE-76" data-name="LINE"><line class="cls-1" x1="29.56" y1="17.34" x2="29.5" y2="16.51"/></g><g id="LINE-77" data-name="LINE"><line class="cls-1" x1="29.56" y1="17.34" x2="26.8" y2="17.34"/></g><g id="SPLINE-9" data-name="SPLINE"><path class="cls-1" d="M26.11,14.66h0v0"/></g><g id="SPLINE-10" data-name="SPLINE"><path class="cls-1" d="M26.11,14.66"/></g><g id="LINE-78" data-name="LINE"><line class="cls-1" x1="30.25" y1="14.66" x2="26.11" y2="14.66"/></g><g id="SPLINE-11" data-name="SPLINE"><polyline class="cls-1" points="30.26 14.7 30.26 14.69 30.26 14.68 30.25 14.67 30.25 14.66"/></g><g id="LINE-79" data-name="LINE"><line class="cls-1" x1="30.26" y1="14.7" x2="26.1" y2="14.7"/></g><g id="ELLIPSE"><path class="cls-1" d="M30.23,15.7h-.77"/></g><g id="LINE-80" data-name="LINE"><line class="cls-1" x1="29.46" y1="15.66" x2="29.46" y2="15.69"/></g><g id="SPLINE-12" data-name="SPLINE"><path class="cls-1" d="M29.36,15.55h0l0,0,0,0v0"/></g><g id="SPLINE-13" data-name="SPLINE"><path class="cls-1" d="M27,15.55l.35-.05.35,0,.37,0h.37l.46,0,.46.06"/></g><g id="SPLINE-14" data-name="SPLINE"><path class="cls-1" d="M26.9,15.66v0l0,0,0,0h0"/></g><g id="LINE-81" data-name="LINE"><line class="cls-1" x1="26.79" y1="17.34" x2="26.9" y2="15.66"/></g><g id="LINE-82" data-name="LINE"><line class="cls-1" x1="26.79" y1="17.34" x2="26.1" y2="17.34"/></g><g id="LINE-83" data-name="LINE"><line class="cls-1" x1="26.1" y1="14.7" x2="26.1" y2="17.34"/></g><g id="LINE-84" data-name="LINE"><line class="cls-1" x1="30.26" y1="15.5" x2="30.26" y2="14.7"/></g><g id="SPLINE-15" data-name="SPLINE"><path class="cls-1" d="M30.32,15.7a.46.46,0,0,1,0-.09.48.48,0,0,1,0-.1"/></g><g id="LINE-85" data-name="LINE"><line class="cls-1" x1="30.23" y1="15.7" x2="30.32" y2="15.7"/></g><g id="LINE-86" data-name="LINE"><line class="cls-1" x1="30.23" y1="15.7" x2="30.23" y2="15.7"/></g><g id="LINE-87" data-name="LINE"><line class="cls-1" x1="29.36" y1="15.55" x2="29.36" y2="15.55"/></g><g id="SPLINE-16" data-name="SPLINE"><path class="cls-1" d="M29.36,15.55,29,15.5l-.35,0-.36,0h-.37l-.46,0-.46.06"/></g><g id="LINE-88" data-name="LINE"><line class="cls-1" x1="27" y1="15.55" x2="27" y2="15.55"/></g><g id="LINE-89" data-name="LINE"><line class="cls-1" x1="29.57" y1="17.34" x2="29.56" y2="17.34"/></g><g id="LINE-90" data-name="LINE"><line class="cls-1" x1="30.26" y1="17.34" x2="29.57" y2="17.34"/></g><g id="LINE-91" data-name="LINE"><line class="cls-1" x1="30.26" y1="17.53" x2="30.26" y2="17.34"/></g><g id="LINE-92" data-name="LINE"><line class="cls-1" x1="30.26" y1="17.53" x2="29.98" y2="17.56"/></g><g id="ELLIPSE-2" data-name="ELLIPSE"><path class="cls-1" d="M30,17.56v0"/></g><g id="LINE-93" data-name="LINE"><line class="cls-1" x1="26.39" y1="17.52" x2="29.97" y2="17.52"/></g><g id="ELLIPSE-3" data-name="ELLIPSE"><path class="cls-1" d="M26.39,17.52v0"/></g><g id="LINE-94" data-name="LINE"><line class="cls-1" x1="26.39" y1="17.56" x2="26.1" y2="17.53"/></g><g id="LINE-95" data-name="LINE"><line class="cls-1" x1="26.1" y1="17.34" x2="26.1" y2="17.53"/></g><g id="LINE-96" data-name="LINE"><line class="cls-1" x1="26.8" y1="17.34" x2="26.79" y2="17.34"/></g><g id="LINE-97" data-name="LINE"><line class="cls-1" x1="29.99" y1="14.48" x2="26.37" y2="14.48"/></g><g id="LINE-98" data-name="LINE"><line class="cls-1" x1="30.25" y1="14.66" x2="29.99" y2="14.48"/></g><g id="LINE-99" data-name="LINE"><line class="cls-1" x1="26.37" y1="14.48" x2="26.11" y2="14.66"/></g><g id="LINE-100" data-name="LINE"><line class="cls-1" x1="26.79" y1="17.34" x2="26.9" y2="15.66"/></g><g id="SPLINE-17" data-name="SPLINE"><path class="cls-1" d="M26.9,15.66v0l0,0,0,0h0"/></g><g id="SPLINE-18" data-name="SPLINE"><path class="cls-1" d="M29.46,15.66v0l0,0,0,0h0"/></g><g id="LINE-101" data-name="LINE"><line class="cls-1" x1="29.46" y1="15.66" x2="29.46" y2="15.69"/></g><g id="ELLIPSE-4" data-name="ELLIPSE"><path class="cls-1" d="M30.23,15.7h-.77"/></g><g id="LINE-102" data-name="LINE"><line class="cls-1" x1="30.23" y1="15.7" x2="30.23" y2="15.71"/></g><g id="LINE-103" data-name="LINE"><line class="cls-1" x1="29.46" y1="15.66" x2="29.46" y2="15.66"/></g><g id="SPLINE-19" data-name="SPLINE"><path class="cls-1" d="M26.9,15.66"/></g><g id="SPLINE-20" data-name="SPLINE"><path class="cls-1" d="M26.56,17.57l.54,0,.54,0h1.1l.54,0,.54,0"/></g><g id="ELLIPSE-5" data-name="ELLIPSE"><path class="cls-1" d="M26.57,17.52v.05"/></g><g id="ELLIPSE-6" data-name="ELLIPSE"><path class="cls-1" d="M29.8,17.57v-.05"/></g><g id="SPLINE-21" data-name="SPLINE"><path class="cls-1" d="M29.81,17.59l-.53,0-.54,0h-1.1l-.54,0-.53,0"/></g><g id="LWPOLYLINE-2" data-name="LWPOLYLINE"><path class="cls-1" d="M26.55,17.59h0"/></g><g id="LINE-104" data-name="LINE"><line class="cls-1" x1="26.56" y1="17.57" x2="26.56" y2="17.57"/></g><g id="LINE-105" data-name="LINE"><line class="cls-1" x1="29.8" y1="17.57" x2="29.8" y2="17.57"/></g><g id="LWPOLYLINE-3" data-name="LWPOLYLINE"><path class="cls-1" d="M29.8,17.57h0"/></g><g id="LINE-106" data-name="LINE"><line class="cls-1" x1="29.46" y1="15.69" x2="29.46" y2="15.69"/></g><g id="ELLIPSE-7" data-name="ELLIPSE"><path class="cls-1" d="M29.57,17.34l-.06-.81"/></g><g id="LINE-107" data-name="LINE"><line class="cls-1" x1="29.52" y1="16.53" x2="29.52" y2="16.53"/></g><g id="ELLIPSE-8" data-name="ELLIPSE"><path class="cls-1" d="M29.57,17.34l-.06-.81"/></g><g id="LINE-108" data-name="LINE"><line class="cls-1" x1="30.26" y1="17.34" x2="30.26" y2="16.72"/></g><g id="ELLIPSE-9" data-name="ELLIPSE"><path class="cls-1" d="M29.52,16.53h.71"/></g><g id="LINE-109" data-name="LINE"><line class="cls-1" x1="30.23" y1="16.52" x2="30.23" y2="16.53"/></g><g id="LINE-110" data-name="LINE"><line class="cls-1" x1="30.32" y1="16.53" x2="30.23" y2="16.52"/></g><g id="LINE-111" data-name="LINE"><line class="cls-1" x1="30.32" y1="16.53" x2="30.32" y2="16.53"/></g><g id="SPLINE-22" data-name="SPLINE"><path class="cls-1" d="M30.26,16.72a.48.48,0,0,1,0-.1.46.46,0,0,1,0-.09"/></g><g id="ELLIPSE-10" data-name="ELLIPSE"><path class="cls-1" d="M29.52,16.53h.71"/></g><g id="LINE-112" data-name="LINE"><line class="cls-1" x1="30.23" y1="16.51" x2="30.23" y2="16.52"/></g><g id="LINE-113" data-name="LINE"><line class="cls-1" x1="26.89" y1="19.89" x2="29.47" y2="19.89"/></g><g id="LINE-114" data-name="LINE"><line class="cls-1" x1="26.56" y1="17.57" x2="26.39" y2="17.56"/></g><g id="LINE-115" data-name="LINE"><line class="cls-1" x1="26.39" y1="17.56" x2="26.39" y2="17.56"/></g><g id="LINE-116" data-name="LINE"><line class="cls-1" x1="29.98" y1="17.56" x2="29.8" y2="17.57"/></g><g id="LINE-117" data-name="LINE"><line class="cls-1" x1="29.98" y1="17.56" x2="29.98" y2="17.56"/></g><g id="LWPOLYLINE-4" data-name="LWPOLYLINE"><path class="cls-1" d="M26.38,17.58h0"/></g><g id="SPLINE-23" data-name="SPLINE"><path class="cls-1" d="M26.11,17.55h0"/></g><g id="LINE-118" data-name="LINE"><line class="cls-1" x1="26.38" y1="17.58" x2="26.11" y2="17.55"/></g><g id="SPLINE-24" data-name="SPLINE"><path class="cls-1" d="M30.25,17.55h0"/></g><g id="LWPOLYLINE-5" data-name="LWPOLYLINE"><path class="cls-1" d="M30,17.58h0"/></g><g id="LINE-119" data-name="LINE"><line class="cls-1" x1="30.25" y1="17.55" x2="29.98" y2="17.58"/></g><g id="LINE-120" data-name="LINE"><line class="cls-1" x1="26.55" y1="17.59" x2="26.38" y2="17.58"/></g><g id="LINE-121" data-name="LINE"><line class="cls-1" x1="29.98" y1="17.58" x2="29.81" y2="17.59"/></g><g id="SPLINE-25" data-name="SPLINE"><path class="cls-1" d="M26.37,14.48h0"/></g><g id="SPLINE-26" data-name="SPLINE"><path class="cls-1" d="M26.37,14.48h1.81"/></g><g id="SPLINE-27" data-name="SPLINE"><path class="cls-1" d="M30,14.48h0"/></g><g id="LINE-122" data-name="LINE"><line class="cls-1" x1="30.35" y1="16.51" x2="30.35" y2="15.71"/></g><g id="LINE-123" data-name="LINE"><line class="cls-1" x1="30.25" y1="16.51" x2="30.35" y2="16.51"/></g><g id="LINE-124" data-name="LINE"><line class="cls-1" x1="30.25" y1="15.71" x2="30.35" y2="15.71"/></g><g id="LINE-125" data-name="LINE"><line class="cls-1" x1="30.26" y1="16.72" x2="30.3" y2="16.72"/></g><g id="LINE-126" data-name="LINE"><line class="cls-1" x1="30.3" y1="16.72" x2="30.3" y2="17.34"/></g><g id="SPLINE-28" data-name="SPLINE"><path class="cls-1" d="M30.3,17.34h0"/></g><g id="SPLINE-29" data-name="SPLINE"><path class="cls-1" d="M30.25,14.66h0"/></g><g id="SPLINE-30" data-name="SPLINE"><path class="cls-1" d="M30.3,14.69v0h0"/></g><g id="SPLINE-31" data-name="SPLINE"><path class="cls-1" d="M30.3,14.69h0"/></g><g id="SPLINE-32" data-name="SPLINE"><path class="cls-1" d="M26.1,17.34h0"/></g><g id="SPLINE-33" data-name="SPLINE"><path class="cls-1" d="M26.06,17.53h0"/></g><g id="SPLINE-34" data-name="SPLINE"><path class="cls-1" d="M26.06,17.34v.19"/></g><g id="SPLINE-35" data-name="SPLINE"><path class="cls-1" d="M30.26,17.53h0"/></g><g id="LWPOLYLINE-6" data-name="LWPOLYLINE"><polyline class="cls-1" points="30.3 17.53 30.3 17.46 30.3 17.42 30.3 17.38 30.3 17.34"/></g><g id="SPLINE-36" data-name="SPLINE"><path class="cls-1" d="M26.06,14.69h0"/></g><g id="LINE-127" data-name="LINE"><line class="cls-1" x1="26.06" y1="17.34" x2="26.06" y2="15.39"/></g><g id="LINE-128" data-name="LINE"><line class="cls-1" x1="30.3" y1="15.5" x2="30.3" y2="15.39"/></g><g id="LINE-129" data-name="LINE"><line class="cls-1" x1="30.26" y1="15.5" x2="30.3" y2="15.5"/></g><g id="SPLINE-37" data-name="SPLINE"><path class="cls-1" d="M30.34,15.65l0-.07a.39.39,0,0,1,0-.08"/></g><g id="SPLINE-38" data-name="SPLINE"><path class="cls-1" d="M30.32,15.7h0"/></g><g id="SPLINE-39" data-name="SPLINE"><path class="cls-1" d="M26.07,14.67h0"/></g><g id="SPLINE-40" data-name="SPLINE"><polyline class="cls-1" points="26.06 14.69 26.06 14.68 26.07 14.67"/></g><g id="SPLINE-41" data-name="SPLINE"><path class="cls-1" d="M30.34,16.57h0"/></g><g id="SPLINE-42" data-name="SPLINE"><path class="cls-1" d="M30.3,16.72a.39.39,0,0,1,0-.08l0-.07"/></g><g id="SPLINE-43" data-name="SPLINE"><polyline class="cls-1" points="26.08 17.55 26.07 17.55 26.07 17.54 26.06 17.54 26.06 17.53"/></g><g id="SPLINE-44" data-name="SPLINE"><path class="cls-1" d="M26.11,17.55h0"/></g><g id="SPLINE-45" data-name="SPLINE"><polyline class="cls-1" points="30.28 17.55 30.29 17.55 30.3 17.54 30.3 17.54 30.3 17.53"/></g><g id="SPLINE-46" data-name="SPLINE"><path class="cls-1" d="M30.28,17.55h0"/></g><g id="SPLINE-47" data-name="SPLINE"><path class="cls-1" d="M26.07,14.67"/></g><g id="SPLINE-48" data-name="SPLINE"><path class="cls-1" d="M26.07,14.66h0"/></g><g id="LINE-130" data-name="LINE"><line class="cls-1" x1="26.07" y1="14.66" x2="26.32" y2="14.49"/></g><g id="SPLINE-49" data-name="SPLINE"><path class="cls-1" d="M26.37,14.48h0"/></g><g id="LWPOLYLINE-7" data-name="LWPOLYLINE"><path class="cls-1" d="M30.3,16.53h0"/></g><g id="LWPOLYLINE-8" data-name="LWPOLYLINE"><polyline class="cls-1" points="30.32 15.7 30.31 15.7 30.29 15.7 30.27 15.7"/></g><g id="LINE-131" data-name="LINE"><line class="cls-1" x1="30.32" y1="16.53" x2="30.32" y2="16.51"/></g><g id="SPLINE-50" data-name="SPLINE"><path class="cls-1" d="M30,14.49h0"/></g><g id="LINE-132" data-name="LINE"><line class="cls-1" x1="30.29" y1="14.66" x2="30.04" y2="14.49"/></g><g id="ARC-18" data-name="ARC"><path class="cls-1" d="M30.35,15.68a.06.06,0,0,0,0,0"/></g><g id="SPLINE-51" data-name="SPLINE"><polyline class="cls-1" points="30.35 15.68 30.35 15.69 30.35 15.69 30.35 15.7"/></g><g id="SPLINE-52" data-name="SPLINE"><path class="cls-1" d="M30.32,15.7h0"/></g><g id="SPLINE-53" data-name="SPLINE"><path class="cls-1" d="M30.32,16.53h0"/></g><g id="SPLINE-54" data-name="SPLINE"><path class="cls-1" d="M30.35,16.53h0"/></g><g id="SPLINE-55" data-name="SPLINE"><path class="cls-1" d="M30.35,16.53h0"/></g><g id="ARC-19" data-name="ARC"><path class="cls-1" d="M30.34,16.57a.06.06,0,0,0,0,0"/></g><g id="SPLINE-56" data-name="SPLINE"><path class="cls-1" d="M26.07,14.67h0"/></g><g id="SPLINE-57" data-name="SPLINE"><path class="cls-1" d="M26.07,17.54h0"/></g><g id="SPLINE-58" data-name="SPLINE"><path class="cls-1" d="M30.29,17.54h0"/></g><g id="SPLINE-59" data-name="SPLINE"><path class="cls-1" d="M30.3,17.53h0"/></g><g id="SPLINE-60" data-name="SPLINE"><path class="cls-1" d="M26.52,17.59h0"/></g><g id="SPLINE-61" data-name="SPLINE"><path class="cls-1" d="M29.88,17.59h0"/></g><g id="SPLINE-62" data-name="SPLINE"><path class="cls-1" d="M26.23,17.69h0"/></g><g id="SPLINE-63" data-name="SPLINE"><polyline class="cls-1" points="26.31 17.68 26.3 17.69 26.29 17.69 26.28 17.69 26.27 17.69"/></g><g id="SPLINE-64" data-name="SPLINE"><path class="cls-1" d="M26.31,17.68"/></g><g id="SPLINE-65" data-name="SPLINE"><path class="cls-1" d="M26.35,17.68h0"/></g><g id="SPLINE-66" data-name="SPLINE"><path class="cls-1" d="M26.36,17.68h0"/></g><g id="SPLINE-67" data-name="SPLINE"><path class="cls-1" d="M26.35,17.68h0"/></g><g id="SPLINE-68" data-name="SPLINE"><path class="cls-1" d="M26.32,17.68h0"/></g><g id="SPLINE-69" data-name="SPLINE"><path class="cls-1" d="M26.29,17.68h0"/></g><g id="SPLINE-70" data-name="SPLINE"><path class="cls-1" d="M26.23,17.68h.06"/></g><g id="SPLINE-71" data-name="SPLINE"><path class="cls-1" d="M26.21,17.68h0"/></g><g id="SPLINE-72" data-name="SPLINE"><path class="cls-1" d="M26.19,17.68h0"/></g><g id="SPLINE-73" data-name="SPLINE"><path class="cls-1" d="M26.18,17.68h0"/></g><g id="SPLINE-74" data-name="SPLINE"><path class="cls-1" d="M26.18,17.68"/></g><g id="LINE-133" data-name="LINE"><line class="cls-1" x1="26.06" y1="17.62" x2="26.48" y2="17.62"/></g><g id="SPLINE-75" data-name="SPLINE"><path class="cls-1" d="M30.05,17.69h0"/></g><g id="SPLINE-76" data-name="SPLINE"><polyline class="cls-1" points="30.13 17.68 30.12 17.69 30.11 17.69 30.1 17.69 30.09 17.69"/></g><g id="SPLINE-77" data-name="SPLINE"><path class="cls-1" d="M30.13,17.68"/></g><g id="SPLINE-78" data-name="SPLINE"><path class="cls-1" d="M30.17,17.68h0"/></g><g id="SPLINE-79" data-name="SPLINE"><path class="cls-1" d="M30.18,17.68h0"/></g><g id="SPLINE-80" data-name="SPLINE"><path class="cls-1" d="M30.17,17.68h0"/></g><g id="SPLINE-81" data-name="SPLINE"><path class="cls-1" d="M30.14,17.68h0"/></g><g id="SPLINE-82" data-name="SPLINE"><path class="cls-1" d="M30.11,17.68h0"/></g><g id="SPLINE-83" data-name="SPLINE"><path class="cls-1" d="M30.05,17.68h.06"/></g><g id="SPLINE-84" data-name="SPLINE"><path class="cls-1" d="M30,17.68h0"/></g><g id="SPLINE-85" data-name="SPLINE"><path class="cls-1" d="M30,17.68h0"/></g><g id="SPLINE-86" data-name="SPLINE"><path class="cls-1" d="M30,17.68h0"/></g><g id="SPLINE-87" data-name="SPLINE"><path class="cls-1" d="M30,17.68"/></g><g id="LINE-134" data-name="LINE"><line class="cls-1" x1="29.88" y1="17.62" x2="30.3" y2="17.62"/></g><g id="LINE-135" data-name="LINE"><line class="cls-1" x1="26.06" y1="17.52" x2="26.06" y2="17.52"/></g><g id="LINE-136" data-name="LINE"><line class="cls-1" x1="30.35" y1="16.43" x2="30.35" y2="16.44"/></g><g id="LINE-137" data-name="LINE"><line class="cls-1" x1="30.35" y1="16.44" x2="30.35" y2="16.51"/></g><g id="LINE-138" data-name="LINE"><line class="cls-1" x1="30.35" y1="16.51" x2="30.32" y2="16.51"/></g><g id="SPLINE-88" data-name="SPLINE"><polyline class="cls-1" points="30.04 14.49 30.03 14.48 30.02 14.48"/></g><g id="SPLINE-89" data-name="SPLINE"><polyline class="cls-1" points="26.32 14.49 26.33 14.48 26.34 14.48"/></g><g id="SPLINE-90" data-name="SPLINE"><path class="cls-1" d="M26.34,14.48h0"/></g><g id="LINE-139" data-name="LINE"><line class="cls-1" x1="28.18" y1="20.55" x2="28.38" y2="20.55"/></g><g id="LINE-140" data-name="LINE"><line class="cls-1" x1="27.98" y1="20.55" x2="28.18" y2="20.55"/></g><g id="LINE-141" data-name="LINE"><line class="cls-1" x1="30.04" y1="14.49" x2="30.04" y2="14.49"/></g><g id="SPLINE-91" data-name="SPLINE"><path class="cls-1" d="M26.32,14.49h0"/></g><g id="LINE-142" data-name="LINE"><line class="cls-1" x1="26.48" y1="17.62" x2="26.48" y2="17.62"/></g><g id="LINE-143" data-name="LINE"><line class="cls-1" x1="56.1" y1="14.86" x2="52.92" y2="14.86"/></g><g id="LINE-144" data-name="LINE"><line class="cls-1" x1="56.1" y1="16.96" x2="52.92" y2="16.96"/></g><g id="LINE-145" data-name="LINE"><line class="cls-1" x1="56.1" y1="16.96" x2="56.1" y2="14.86"/></g><g id="LINE-146" data-name="LINE"><line class="cls-1" x1="56.1" y1="12.62" x2="52.92" y2="12.62"/></g><g id="LINE-147" data-name="LINE"><line class="cls-1" x1="56.1" y1="14.86" x2="56.1" y2="12.62"/></g><g id="LINE-148" data-name="LINE"><line class="cls-1" x1="52.92" y1="16.96" x2="50.27" y2="16.96"/></g><g id="LINE-149" data-name="LINE"><line class="cls-1" x1="50.27" y1="16.96" x2="50.27" y2="15.63"/></g><g id="LINE-150" data-name="LINE"><line class="cls-1" x1="50.27" y1="15.63" x2="52.92" y2="15.63"/></g><g id="LINE-151" data-name="LINE"><line class="cls-1" x1="52.92" y1="15.63" x2="52.92" y2="16.96"/></g><g id="LINE-152" data-name="LINE"><line class="cls-1" x1="52.92" y1="14.09" x2="50.27" y2="14.09"/></g><g id="LINE-153" data-name="LINE"><line class="cls-1" x1="50.27" y1="14.09" x2="50.27" y2="12.75"/></g><g id="LINE-154" data-name="LINE"><line class="cls-1" x1="50.27" y1="12.75" x2="52.92" y2="12.75"/></g><g id="LINE-155" data-name="LINE"><line class="cls-1" x1="52.92" y1="12.75" x2="52.92" y2="14.09"/></g><g id="LINE-156" data-name="LINE"><line class="cls-1" x1="50.27" y1="14.09" x2="50.27" y2="15.63"/></g><g id="LINE-157" data-name="LINE"><line class="cls-1" x1="52.92" y1="14.86" x2="52.92" y2="15.63"/></g><g id="LINE-158" data-name="LINE"><line class="cls-1" x1="52.92" y1="14.09" x2="52.92" y2="14.86"/></g><g id="LINE-159" data-name="LINE"><line class="cls-1" x1="6.05" y1="16.96" x2="3.4" y2="16.96"/></g><g id="LINE-160" data-name="LINE"><line class="cls-1" x1="3.4" y1="16.96" x2="3.4" y2="15.63"/></g><g id="LINE-161" data-name="LINE"><line class="cls-1" x1="3.4" y1="15.63" x2="6.05" y2="15.63"/></g><g id="LINE-162" data-name="LINE"><line class="cls-1" x1="6.05" y1="15.63" x2="6.05" y2="16.96"/></g><g id="LINE-163" data-name="LINE"><line class="cls-1" x1="6.05" y1="14.09" x2="3.4" y2="14.09"/></g><g id="LINE-164" data-name="LINE"><line class="cls-1" x1="3.4" y1="14.86" x2="3.4" y2="15.63"/></g><g id="LINE-165" data-name="LINE"><line class="cls-1" x1="3.4" y1="14.09" x2="3.4" y2="14.86"/></g><g id="LINE-166" data-name="LINE"><line class="cls-1" x1="6.05" y1="15.63" x2="6.05" y2="14.09"/></g><g id="LINE-167" data-name="LINE"><line class="cls-1" x1="3.4" y1="14.09" x2="3.4" y2="12.75"/></g><g id="LINE-168" data-name="LINE"><line class="cls-1" x1="3.4" y1="12.75" x2="6.05" y2="12.75"/></g><g id="LINE-169" data-name="LINE"><line class="cls-1" x1="6.05" y1="12.75" x2="6.05" y2="14.09"/></g><g id="LINE-170" data-name="LINE"><line class="cls-1" x1="0.21" y1="14.86" x2="3.4" y2="14.86"/></g><g id="LINE-171" data-name="LINE"><line class="cls-1" x1="0.21" y1="14.86" x2="0.21" y2="12.62"/></g><g id="LINE-172" data-name="LINE"><line class="cls-1" x1="0.21" y1="12.62" x2="3.4" y2="12.62"/></g><g id="LINE-173" data-name="LINE"><line class="cls-1" x1="0.21" y1="16.96" x2="3.4" y2="16.96"/></g><g id="LINE-174" data-name="LINE"><line class="cls-1" x1="0.21" y1="16.96" x2="0.21" y2="14.86"/></g><g id="LINE-175" data-name="LINE"><line class="cls-1" x1="56.1" y1="18.7" x2="52.92" y2="18.7"/></g><g id="LINE-176" data-name="LINE"><line class="cls-1" x1="56.1" y1="18.7" x2="56.1" y2="16.96"/></g><g id="LINE-177" data-name="LINE"><line class="cls-1" x1="0.21" y1="18.7" x2="3.4" y2="18.7"/></g><g id="LINE-178" data-name="LINE"><line class="cls-1" x1="0.21" y1="18.7" x2="0.21" y2="16.96"/></g><g id="LINE-179" data-name="LINE"><line class="cls-1" x1="50.27" y1="18.62" x2="52.92" y2="18.62"/></g><g id="LINE-180" data-name="LINE"><line class="cls-1" x1="52.92" y1="16.96" x2="52.92" y2="18.62"/></g><g id="LINE-181" data-name="LINE"><line class="cls-1" x1="50.27" y1="16.96" x2="50.27" y2="18.3"/></g><g id="LINE-182" data-name="LINE"><line class="cls-1" x1="3.4" y1="18.62" x2="6.05" y2="18.62"/></g><g id="LINE-183" data-name="LINE"><line class="cls-1" x1="3.4" y1="16.96" x2="3.4" y2="18.62"/></g><g id="LINE-184" data-name="LINE"><line class="cls-1" x1="6.05" y1="18.3" x2="6.05" y2="16.96"/></g><g id="LINE-185" data-name="LINE"><line class="cls-1" x1="3.4" y1="12.62" x2="3.4" y2="12.75"/></g><g id="LINE-186" data-name="LINE"><line class="cls-1" x1="6.05" y1="12.75" x2="6.05" y2="11.96"/></g><g id="LINE-187" data-name="LINE"><line class="cls-1" x1="50.27" y1="11.96" x2="50.27" y2="12.75"/></g><g id="LINE-188" data-name="LINE"><line class="cls-1" x1="52.92" y1="12.62" x2="52.92" y2="12.75"/></g><g id="LINE-189" data-name="LINE"><line class="cls-1" x1="56.1" y1="9.74" x2="52.92" y2="9.74"/></g><g id="LINE-190" data-name="LINE"><line class="cls-1" x1="52.92" y1="12.62" x2="52.92" y2="10.64"/></g><g id="LINE-191" data-name="LINE"><line class="cls-1" x1="56.1" y1="12.62" x2="56.1" y2="9.74"/></g><g id="LINE-192" data-name="LINE"><line class="cls-1" x1="0.21" y1="9.74" x2="3.4" y2="9.74"/></g><g id="LINE-193" data-name="LINE"><line class="cls-1" x1="3.4" y1="12.62" x2="3.4" y2="10.64"/></g><g id="LINE-194" data-name="LINE"><line class="cls-1" x1="0.21" y1="12.62" x2="0.21" y2="9.74"/></g><g id="LINE-195" data-name="LINE"><line class="cls-1" x1="50.27" y1="19.1" x2="50.27" y2="18.3"/></g><g id="LINE-196" data-name="LINE"><line class="cls-1" x1="50.27" y1="19.1" x2="29.61" y2="19.1"/></g><g id="LINE-197" data-name="LINE"><line class="cls-1" x1="26.75" y1="19.1" x2="6.05" y2="19.1"/></g><g id="LINE-198" data-name="LINE"><line class="cls-1" x1="6.05" y1="19.1" x2="6.05" y2="18.3"/></g><g id="ARC-20" data-name="ARC"><path class="cls-1" d="M38.75,15.42a.57.57,0,0,0,.74,0"/></g><g id="LINE-199" data-name="LINE"><line class="cls-1" x1="52.92" y1="18.7" x2="50.27" y2="18.7"/></g><g id="LINE-200" data-name="LINE"><line class="cls-1" x1="52.92" y1="18.62" x2="52.92" y2="18.7"/></g><g id="LINE-201" data-name="LINE"><line class="cls-1" x1="6.05" y1="18.7" x2="3.4" y2="18.7"/></g><g id="LINE-202" data-name="LINE"><line class="cls-1" x1="3.4" y1="18.7" x2="3.4" y2="18.62"/></g><g id="LINE-203" data-name="LINE"><line class="cls-1" x1="3.4" y1="10.64" x2="3.4" y2="8.91"/></g><g id="LINE-204" data-name="LINE"><line class="cls-1" x1="52.92" y1="8.91" x2="52.92" y2="10.64"/></g><g id="LINE-205" data-name="LINE"><line class="cls-1" x1="50.27" y1="21.82" x2="50.27" y2="19.1"/></g><g id="LINE-206" data-name="LINE"><line class="cls-1" x1="48.14" y1="21.82" x2="48.14" y2="19.1"/></g><g id="LINE-207" data-name="LINE"><line class="cls-1" x1="6.05" y1="21.82" x2="6.05" y2="19.1"/></g><g id="LINE-208" data-name="LINE"><line class="cls-1" x1="8.17" y1="21.82" x2="8.17" y2="19.1"/></g><g id="LINE-209" data-name="LINE"><line class="cls-2" x1="26.32" y1="17.68" x2="26.32" y2="17.68"/></g><g id="LINE-210" data-name="LINE"><line class="cls-2" x1="30.14" y1="17.68" x2="30.14" y2="17.68"/></g><g id="LINE-211" data-name="LINE"><line class="cls-2" x1="26.21" y1="17.68" x2="26.21" y2="17.68"/></g><g id="LINE-212" data-name="LINE"><line class="cls-2" x1="30.03" y1="17.68" x2="30.03" y2="17.68"/></g><g id="LINE-213" data-name="LINE"><line class="cls-2" x1="26.92" y1="20.44" x2="29.44" y2="20.44"/></g><g id="LINE-214" data-name="LINE"><line class="cls-2" x1="29.4" y1="20.48" x2="28.18" y2="20.48"/></g><g id="LINE-215" data-name="LINE"><line class="cls-2" x1="28.18" y1="20.48" x2="26.96" y2="20.48"/></g><g id="LINE-216" data-name="LINE"><line class="cls-2" x1="26.31" y1="17.68" x2="26.31" y2="17.68"/></g><g id="LINE-217" data-name="LINE"><line class="cls-2" x1="30.13" y1="17.68" x2="30.13" y2="17.68"/></g><g id="LINE-218" data-name="LINE"><line class="cls-2" x1="52.92" y1="10.95" x2="50.44" y2="10.95"/></g><g id="LINE-219" data-name="LINE"><line class="cls-2" x1="5.87" y1="10.95" x2="3.4" y2="10.95"/></g><g id="LINE-220" data-name="LINE"><line class="cls-2" x1="3.4" y1="8.91" x2="5.87" y2="8.91"/></g><g id="LINE-221" data-name="LINE"><line class="cls-2" x1="50.44" y1="8.91" x2="52.92" y2="8.91"/></g></g></g></svg>