<?xml version="1.0" encoding="utf-8"?>
<!DOCTYPE svg PUBLIC "-//W3C//DTD SVG 20010904//EN" "http://www.w3.org/TR/2001/REC-SVG-20010904/DTD/svg10.dtd">
<svg xmlns="http://www.w3.org/2000/svg" xml:space="preserve" xmlns:xlink="http://www.w3.org/1999/xlink" width="516" height="516" viewBox="0 0 516 516">
<desc></desc>
<rect width="516" height="516" fill="#ffffff" cx="0" cy="0" />
<defs>
<rect id="p" width="12" height="12" />
</defs>
<g fill="#000000">
<use x="12" y="12" xlink:href="#p" />
<use x="24" y="12" xlink:href="#p" />
<use x="36" y="12" xlink:href="#p" />
<use x="48" y="12" xlink:href="#p" />
<use x="60" y="12" xlink:href="#p" />
<use x="72" y="12" xlink:href="#p" />
<use x="84" y="12" xlink:href="#p" />
<use x="108" y="12" xlink:href="#p" />
<use x="144" y="12" xlink:href="#p" />
<use x="156" y="12" xlink:href="#p" />
<use x="168" y="12" xlink:href="#p" />
<use x="180" y="12" xlink:href="#p" />
<use x="228" y="12" xlink:href="#p" />
<use x="288" y="12" xlink:href="#p" />
<use x="312" y="12" xlink:href="#p" />
<use x="324" y="12" xlink:href="#p" />
<use x="336" y="12" xlink:href="#p" />
<use x="372" y="12" xlink:href="#p" />
<use x="384" y="12" xlink:href="#p" />
<use x="420" y="12" xlink:href="#p" />
<use x="432" y="12" xlink:href="#p" />
<use x="444" y="12" xlink:href="#p" />
<use x="456" y="12" xlink:href="#p" />
<use x="468" y="12" xlink:href="#p" />
<use x="480" y="12" xlink:href="#p" />
<use x="492" y="12" xlink:href="#p" />
<use x="12" y="24" xlink:href="#p" />
<use x="84" y="24" xlink:href="#p" />
<use x="120" y="24" xlink:href="#p" />
<use x="132" y="24" xlink:href="#p" />
<use x="156" y="24" xlink:href="#p" />
<use x="168" y="24" xlink:href="#p" />
<use x="192" y="24" xlink:href="#p" />
<use x="204" y="24" xlink:href="#p" />
<use x="228" y="24" xlink:href="#p" />
<use x="240" y="24" xlink:href="#p" />
<use x="264" y="24" xlink:href="#p" />
<use x="288" y="24" xlink:href="#p" />
<use x="324" y="24" xlink:href="#p" />
<use x="336" y="24" xlink:href="#p" />
<use x="360" y="24" xlink:href="#p" />
<use x="384" y="24" xlink:href="#p" />
<use x="396" y="24" xlink:href="#p" />
<use x="420" y="24" xlink:href="#p" />
<use x="492" y="24" xlink:href="#p" />
<use x="12" y="36" xlink:href="#p" />
<use x="36" y="36" xlink:href="#p" />
<use x="48" y="36" xlink:href="#p" />
<use x="60" y="36" xlink:href="#p" />
<use x="84" y="36" xlink:href="#p" />
<use x="120" y="36" xlink:href="#p" />
<use x="168" y="36" xlink:href="#p" />
<use x="216" y="36" xlink:href="#p" />
<use x="228" y="36" xlink:href="#p" />
<use x="288" y="36" xlink:href="#p" />
<use x="312" y="36" xlink:href="#p" />
<use x="324" y="36" xlink:href="#p" />
<use x="396" y="36" xlink:href="#p" />
<use x="420" y="36" xlink:href="#p" />
<use x="444" y="36" xlink:href="#p" />
<use x="456" y="36" xlink:href="#p" />
<use x="468" y="36" xlink:href="#p" />
<use x="492" y="36" xlink:href="#p" />
<use x="12" y="48" xlink:href="#p" />
<use x="36" y="48" xlink:href="#p" />
<use x="48" y="48" xlink:href="#p" />
<use x="60" y="48" xlink:href="#p" />
<use x="84" y="48" xlink:href="#p" />
<use x="108" y="48" xlink:href="#p" />
<use x="120" y="48" xlink:href="#p" />
<use x="168" y="48" xlink:href="#p" />
<use x="180" y="48" xlink:href="#p" />
<use x="216" y="48" xlink:href="#p" />
<use x="228" y="48" xlink:href="#p" />
<use x="252" y="48" xlink:href="#p" />
<use x="264" y="48" xlink:href="#p" />
<use x="276" y="48" xlink:href="#p" />
<use x="312" y="48" xlink:href="#p" />
<use x="324" y="48" xlink:href="#p" />
<use x="336" y="48" xlink:href="#p" />
<use x="360" y="48" xlink:href="#p" />
<use x="420" y="48" xlink:href="#p" />
<use x="444" y="48" xlink:href="#p" />
<use x="456" y="48" xlink:href="#p" />
<use x="468" y="48" xlink:href="#p" />
<use x="492" y="48" xlink:href="#p" />
<use x="12" y="60" xlink:href="#p" />
<use x="36" y="60" xlink:href="#p" />
<use x="48" y="60" xlink:href="#p" />
<use x="60" y="60" xlink:href="#p" />
<use x="84" y="60" xlink:href="#p" />
<use x="120" y="60" xlink:href="#p" />
<use x="132" y="60" xlink:href="#p" />
<use x="144" y="60" xlink:href="#p" />
<use x="156" y="60" xlink:href="#p" />
<use x="204" y="60" xlink:href="#p" />
<use x="228" y="60" xlink:href="#p" />
<use x="240" y="60" xlink:href="#p" />
<use x="264" y="60" xlink:href="#p" />
<use x="276" y="60" xlink:href="#p" />
<use x="288" y="60" xlink:href="#p" />
<use x="300" y="60" xlink:href="#p" />
<use x="324" y="60" xlink:href="#p" />
<use x="336" y="60" xlink:href="#p" />
<use x="348" y="60" xlink:href="#p" />
<use x="360" y="60" xlink:href="#p" />
<use x="384" y="60" xlink:href="#p" />
<use x="420" y="60" xlink:href="#p" />
<use x="444" y="60" xlink:href="#p" />
<use x="456" y="60" xlink:href="#p" />
<use x="468" y="60" xlink:href="#p" />
<use x="492" y="60" xlink:href="#p" />
<use x="12" y="72" xlink:href="#p" />
<use x="84" y="72" xlink:href="#p" />
<use x="120" y="72" xlink:href="#p" />
<use x="132" y="72" xlink:href="#p" />
<use x="156" y="72" xlink:href="#p" />
<use x="168" y="72" xlink:href="#p" />
<use x="180" y="72" xlink:href="#p" />
<use x="192" y="72" xlink:href="#p" />
<use x="204" y="72" xlink:href="#p" />
<use x="216" y="72" xlink:href="#p" />
<use x="240" y="72" xlink:href="#p" />
<use x="312" y="72" xlink:href="#p" />
<use x="324" y="72" xlink:href="#p" />
<use x="336" y="72" xlink:href="#p" />
<use x="360" y="72" xlink:href="#p" />
<use x="384" y="72" xlink:href="#p" />
<use x="396" y="72" xlink:href="#p" />
<use x="420" y="72" xlink:href="#p" />
<use x="492" y="72" xlink:href="#p" />
<use x="12" y="84" xlink:href="#p" />
<use x="24" y="84" xlink:href="#p" />
<use x="36" y="84" xlink:href="#p" />
<use x="48" y="84" xlink:href="#p" />
<use x="60" y="84" xlink:href="#p" />
<use x="72" y="84" xlink:href="#p" />
<use x="84" y="84" xlink:href="#p" />
<use x="108" y="84" xlink:href="#p" />
<use x="132" y="84" xlink:href="#p" />
<use x="156" y="84" xlink:href="#p" />
<use x="180" y="84" xlink:href="#p" />
<use x="204" y="84" xlink:href="#p" />
<use x="228" y="84" xlink:href="#p" />
<use x="252" y="84" xlink:href="#p" />
<use x="276" y="84" xlink:href="#p" />
<use x="300" y="84" xlink:href="#p" />
<use x="324" y="84" xlink:href="#p" />
<use x="348" y="84" xlink:href="#p" />
<use x="372" y="84" xlink:href="#p" />
<use x="396" y="84" xlink:href="#p" />
<use x="420" y="84" xlink:href="#p" />
<use x="432" y="84" xlink:href="#p" />
<use x="444" y="84" xlink:href="#p" />
<use x="456" y="84" xlink:href="#p" />
<use x="468" y="84" xlink:href="#p" />
<use x="480" y="84" xlink:href="#p" />
<use x="492" y="84" xlink:href="#p" />
<use x="120" y="96" xlink:href="#p" />
<use x="144" y="96" xlink:href="#p" />
<use x="156" y="96" xlink:href="#p" />
<use x="180" y="96" xlink:href="#p" />
<use x="192" y="96" xlink:href="#p" />
<use x="240" y="96" xlink:href="#p" />
<use x="276" y="96" xlink:href="#p" />
<use x="312" y="96" xlink:href="#p" />
<use x="360" y="96" xlink:href="#p" />
<use x="396" y="96" xlink:href="#p" />
<use x="36" y="108" xlink:href="#p" />
<use x="60" y="108" xlink:href="#p" />
<use x="72" y="108" xlink:href="#p" />
<use x="84" y="108" xlink:href="#p" />
<use x="108" y="108" xlink:href="#p" />
<use x="156" y="108" xlink:href="#p" />
<use x="192" y="108" xlink:href="#p" />
<use x="204" y="108" xlink:href="#p" />
<use x="240" y="108" xlink:href="#p" />
<use x="252" y="108" xlink:href="#p" />
<use x="276" y="108" xlink:href="#p" />
<use x="288" y="108" xlink:href="#p" />
<use x="300" y="108" xlink:href="#p" />
<use x="348" y="108" xlink:href="#p" />
<use x="360" y="108" xlink:href="#p" />
<use x="396" y="108" xlink:href="#p" />
<use x="408" y="108" xlink:href="#p" />
<use x="456" y="108" xlink:href="#p" />
<use x="492" y="108" xlink:href="#p" />
<use x="48" y="120" xlink:href="#p" />
<use x="60" y="120" xlink:href="#p" />
<use x="72" y="120" xlink:href="#p" />
<use x="96" y="120" xlink:href="#p" />
<use x="132" y="120" xlink:href="#p" />
<use x="144" y="120" xlink:href="#p" />
<use x="168" y="120" xlink:href="#p" />
<use x="216" y="120" xlink:href="#p" />
<use x="264" y="120" xlink:href="#p" />
<use x="288" y="120" xlink:href="#p" />
<use x="324" y="120" xlink:href="#p" />
<use x="348" y="120" xlink:href="#p" />
<use x="396" y="120" xlink:href="#p" />
<use x="420" y="120" xlink:href="#p" />
<use x="456" y="120" xlink:href="#p" />
<use x="468" y="120" xlink:href="#p" />
<use x="480" y="120" xlink:href="#p" />
<use x="12" y="132" xlink:href="#p" />
<use x="36" y="132" xlink:href="#p" />
<use x="60" y="132" xlink:href="#p" />
<use x="72" y="132" xlink:href="#p" />
<use x="84" y="132" xlink:href="#p" />
<use x="108" y="132" xlink:href="#p" />
<use x="156" y="132" xlink:href="#p" />
<use x="168" y="132" xlink:href="#p" />
<use x="180" y="132" xlink:href="#p" />
<use x="192" y="132" xlink:href="#p" />
<use x="240" y="132" xlink:href="#p" />
<use x="252" y="132" xlink:href="#p" />
<use x="264" y="132" xlink:href="#p" />
<use x="288" y="132" xlink:href="#p" />
<use x="300" y="132" xlink:href="#p" />
<use x="372" y="132" xlink:href="#p" />
<use x="420" y="132" xlink:href="#p" />
<use x="432" y="132" xlink:href="#p" />
<use x="468" y="132" xlink:href="#p" />
<use x="492" y="132" xlink:href="#p" />
<use x="48" y="144" xlink:href="#p" />
<use x="60" y="144" xlink:href="#p" />
<use x="72" y="144" xlink:href="#p" />
<use x="96" y="144" xlink:href="#p" />
<use x="108" y="144" xlink:href="#p" />
<use x="132" y="144" xlink:href="#p" />
<use x="144" y="144" xlink:href="#p" />
<use x="180" y="144" xlink:href="#p" />
<use x="204" y="144" xlink:href="#p" />
<use x="240" y="144" xlink:href="#p" />
<use x="276" y="144" xlink:href="#p" />
<use x="312" y="144" xlink:href="#p" />
<use x="348" y="144" xlink:href="#p" />
<use x="360" y="144" xlink:href="#p" />
<use x="372" y="144" xlink:href="#p" />
<use x="396" y="144" xlink:href="#p" />
<use x="444" y="144" xlink:href="#p" />
<use x="480" y="144" xlink:href="#p" />
<use x="12" y="156" xlink:href="#p" />
<use x="36" y="156" xlink:href="#p" />
<use x="60" y="156" xlink:href="#p" />
<use x="84" y="156" xlink:href="#p" />
<use x="96" y="156" xlink:href="#p" />
<use x="108" y="156" xlink:href="#p" />
<use x="132" y="156" xlink:href="#p" />
<use x="204" y="156" xlink:href="#p" />
<use x="240" y="156" xlink:href="#p" />
<use x="252" y="156" xlink:href="#p" />
<use x="264" y="156" xlink:href="#p" />
<use x="312" y="156" xlink:href="#p" />
<use x="324" y="156" xlink:href="#p" />
<use x="336" y="156" xlink:href="#p" />
<use x="360" y="156" xlink:href="#p" />
<use x="384" y="156" xlink:href="#p" />
<use x="396" y="156" xlink:href="#p" />
<use x="420" y="156" xlink:href="#p" />
<use x="432" y="156" xlink:href="#p" />
<use x="456" y="156" xlink:href="#p" />
<use x="480" y="156" xlink:href="#p" />
<use x="12" y="168" xlink:href="#p" />
<use x="36" y="168" xlink:href="#p" />
<use x="48" y="168" xlink:href="#p" />
<use x="60" y="168" xlink:href="#p" />
<use x="96" y="168" xlink:href="#p" />
<use x="108" y="168" xlink:href="#p" />
<use x="144" y="168" xlink:href="#p" />
<use x="156" y="168" xlink:href="#p" />
<use x="168" y="168" xlink:href="#p" />
<use x="180" y="168" xlink:href="#p" />
<use x="192" y="168" xlink:href="#p" />
<use x="204" y="168" xlink:href="#p" />
<use x="264" y="168" xlink:href="#p" />
<use x="276" y="168" xlink:href="#p" />
<use x="300" y="168" xlink:href="#p" />
<use x="312" y="168" xlink:href="#p" />
<use x="324" y="168" xlink:href="#p" />
<use x="336" y="168" xlink:href="#p" />
<use x="360" y="168" xlink:href="#p" />
<use x="372" y="168" xlink:href="#p" />
<use x="384" y="168" xlink:href="#p" />
<use x="396" y="168" xlink:href="#p" />
<use x="480" y="168" xlink:href="#p" />
<use x="492" y="168" xlink:href="#p" />
<use x="48" y="180" xlink:href="#p" />
<use x="72" y="180" xlink:href="#p" />
<use x="84" y="180" xlink:href="#p" />
<use x="120" y="180" xlink:href="#p" />
<use x="132" y="180" xlink:href="#p" />
<use x="168" y="180" xlink:href="#p" />
<use x="228" y="180" xlink:href="#p" />
<use x="264" y="180" xlink:href="#p" />
<use x="288" y="180" xlink:href="#p" />
<use x="312" y="180" xlink:href="#p" />
<use x="324" y="180" xlink:href="#p" />
<use x="360" y="180" xlink:href="#p" />
<use x="384" y="180" xlink:href="#p" />
<use x="396" y="180" xlink:href="#p" />
<use x="420" y="180" xlink:href="#p" />
<use x="432" y="180" xlink:href="#p" />
<use x="468" y="180" xlink:href="#p" />
<use x="480" y="180" xlink:href="#p" />
<use x="492" y="180" xlink:href="#p" />
<use x="24" y="192" xlink:href="#p" />
<use x="60" y="192" xlink:href="#p" />
<use x="120" y="192" xlink:href="#p" />
<use x="180" y="192" xlink:href="#p" />
<use x="192" y="192" xlink:href="#p" />
<use x="204" y="192" xlink:href="#p" />
<use x="240" y="192" xlink:href="#p" />
<use x="264" y="192" xlink:href="#p" />
<use x="288" y="192" xlink:href="#p" />
<use x="300" y="192" xlink:href="#p" />
<use x="312" y="192" xlink:href="#p" />
<use x="336" y="192" xlink:href="#p" />
<use x="360" y="192" xlink:href="#p" />
<use x="396" y="192" xlink:href="#p" />
<use x="420" y="192" xlink:href="#p" />
<use x="444" y="192" xlink:href="#p" />
<use x="36" y="204" xlink:href="#p" />
<use x="60" y="204" xlink:href="#p" />
<use x="84" y="204" xlink:href="#p" />
<use x="96" y="204" xlink:href="#p" />
<use x="120" y="204" xlink:href="#p" />
<use x="156" y="204" xlink:href="#p" />
<use x="168" y="204" xlink:href="#p" />
<use x="192" y="204" xlink:href="#p" />
<use x="204" y="204" xlink:href="#p" />
<use x="228" y="204" xlink:href="#p" />
<use x="240" y="204" xlink:href="#p" />
<use x="252" y="204" xlink:href="#p" />
<use x="264" y="204" xlink:href="#p" />
<use x="288" y="204" xlink:href="#p" />
<use x="324" y="204" xlink:href="#p" />
<use x="360" y="204" xlink:href="#p" />
<use x="384" y="204" xlink:href="#p" />
<use x="396" y="204" xlink:href="#p" />
<use x="420" y="204" xlink:href="#p" />
<use x="432" y="204" xlink:href="#p" />
<use x="12" y="216" xlink:href="#p" />
<use x="36" y="216" xlink:href="#p" />
<use x="48" y="216" xlink:href="#p" />
<use x="60" y="216" xlink:href="#p" />
<use x="132" y="216" xlink:href="#p" />
<use x="240" y="216" xlink:href="#p" />
<use x="276" y="216" xlink:href="#p" />
<use x="288" y="216" xlink:href="#p" />
<use x="300" y="216" xlink:href="#p" />
<use x="312" y="216" xlink:href="#p" />
<use x="348" y="216" xlink:href="#p" />
<use x="372" y="216" xlink:href="#p" />
<use x="396" y="216" xlink:href="#p" />
<use x="420" y="216" xlink:href="#p" />
<use x="468" y="216" xlink:href="#p" />
<use x="492" y="216" xlink:href="#p" />
<use x="24" y="228" xlink:href="#p" />
<use x="36" y="228" xlink:href="#p" />
<use x="48" y="228" xlink:href="#p" />
<use x="84" y="228" xlink:href="#p" />
<use x="96" y="228" xlink:href="#p" />
<use x="120" y="228" xlink:href="#p" />
<use x="144" y="228" xlink:href="#p" />
<use x="156" y="228" xlink:href="#p" />
<use x="168" y="228" xlink:href="#p" />
<use x="180" y="228" xlink:href="#p" />
<use x="192" y="228" xlink:href="#p" />
<use x="204" y="228" xlink:href="#p" />
<use x="228" y="228" xlink:href="#p" />
<use x="252" y="228" xlink:href="#p" />
<use x="288" y="228" xlink:href="#p" />
<use x="312" y="228" xlink:href="#p" />
<use x="348" y="228" xlink:href="#p" />
<use x="360" y="228" xlink:href="#p" />
<use x="396" y="228" xlink:href="#p" />
<use x="408" y="228" xlink:href="#p" />
<use x="420" y="228" xlink:href="#p" />
<use x="444" y="228" xlink:href="#p" />
<use x="456" y="228" xlink:href="#p" />
<use x="480" y="228" xlink:href="#p" />
<use x="492" y="228" xlink:href="#p" />
<use x="12" y="240" xlink:href="#p" />
<use x="24" y="240" xlink:href="#p" />
<use x="48" y="240" xlink:href="#p" />
<use x="60" y="240" xlink:href="#p" />
<use x="72" y="240" xlink:href="#p" />
<use x="108" y="240" xlink:href="#p" />
<use x="132" y="240" xlink:href="#p" />
<use x="180" y="240" xlink:href="#p" />
<use x="192" y="240" xlink:href="#p" />
<use x="204" y="240" xlink:href="#p" />
<use x="252" y="240" xlink:href="#p" />
<use x="264" y="240" xlink:href="#p" />
<use x="276" y="240" xlink:href="#p" />
<use x="288" y="240" xlink:href="#p" />
<use x="324" y="240" xlink:href="#p" />
<use x="336" y="240" xlink:href="#p" />
<use x="384" y="240" xlink:href="#p" />
<use x="396" y="240" xlink:href="#p" />
<use x="432" y="240" xlink:href="#p" />
<use x="456" y="240" xlink:href="#p" />
<use x="492" y="240" xlink:href="#p" />
<use x="24" y="252" xlink:href="#p" />
<use x="36" y="252" xlink:href="#p" />
<use x="60" y="252" xlink:href="#p" />
<use x="84" y="252" xlink:href="#p" />
<use x="96" y="252" xlink:href="#p" />
<use x="108" y="252" xlink:href="#p" />
<use x="144" y="252" xlink:href="#p" />
<use x="168" y="252" xlink:href="#p" />
<use x="192" y="252" xlink:href="#p" />
<use x="204" y="252" xlink:href="#p" />
<use x="228" y="252" xlink:href="#p" />
<use x="240" y="252" xlink:href="#p" />
<use x="264" y="252" xlink:href="#p" />
<use x="288" y="252" xlink:href="#p" />
<use x="312" y="252" xlink:href="#p" />
<use x="336" y="252" xlink:href="#p" />
<use x="348" y="252" xlink:href="#p" />
<use x="384" y="252" xlink:href="#p" />
<use x="396" y="252" xlink:href="#p" />
<use x="408" y="252" xlink:href="#p" />
<use x="420" y="252" xlink:href="#p" />
<use x="444" y="252" xlink:href="#p" />
<use x="480" y="252" xlink:href="#p" />
<use x="24" y="264" xlink:href="#p" />
<use x="108" y="264" xlink:href="#p" />
<use x="120" y="264" xlink:href="#p" />
<use x="156" y="264" xlink:href="#p" />
<use x="180" y="264" xlink:href="#p" />
<use x="204" y="264" xlink:href="#p" />
<use x="216" y="264" xlink:href="#p" />
<use x="240" y="264" xlink:href="#p" />
<use x="264" y="264" xlink:href="#p" />
<use x="288" y="264" xlink:href="#p" />
<use x="324" y="264" xlink:href="#p" />
<use x="348" y="264" xlink:href="#p" />
<use x="396" y="264" xlink:href="#p" />
<use x="420" y="264" xlink:href="#p" />
<use x="444" y="264" xlink:href="#p" />
<use x="468" y="264" xlink:href="#p" />
<use x="480" y="264" xlink:href="#p" />
<use x="492" y="264" xlink:href="#p" />
<use x="36" y="276" xlink:href="#p" />
<use x="48" y="276" xlink:href="#p" />
<use x="72" y="276" xlink:href="#p" />
<use x="84" y="276" xlink:href="#p" />
<use x="96" y="276" xlink:href="#p" />
<use x="120" y="276" xlink:href="#p" />
<use x="132" y="276" xlink:href="#p" />
<use x="180" y="276" xlink:href="#p" />
<use x="192" y="276" xlink:href="#p" />
<use x="204" y="276" xlink:href="#p" />
<use x="216" y="276" xlink:href="#p" />
<use x="228" y="276" xlink:href="#p" />
<use x="264" y="276" xlink:href="#p" />
<use x="276" y="276" xlink:href="#p" />
<use x="288" y="276" xlink:href="#p" />
<use x="300" y="276" xlink:href="#p" />
<use x="372" y="276" xlink:href="#p" />
<use x="396" y="276" xlink:href="#p" />
<use x="420" y="276" xlink:href="#p" />
<use x="480" y="276" xlink:href="#p" />
<use x="492" y="276" xlink:href="#p" />
<use x="24" y="288" xlink:href="#p" />
<use x="36" y="288" xlink:href="#p" />
<use x="48" y="288" xlink:href="#p" />
<use x="60" y="288" xlink:href="#p" />
<use x="72" y="288" xlink:href="#p" />
<use x="120" y="288" xlink:href="#p" />
<use x="132" y="288" xlink:href="#p" />
<use x="192" y="288" xlink:href="#p" />
<use x="204" y="288" xlink:href="#p" />
<use x="216" y="288" xlink:href="#p" />
<use x="228" y="288" xlink:href="#p" />
<use x="240" y="288" xlink:href="#p" />
<use x="252" y="288" xlink:href="#p" />
<use x="276" y="288" xlink:href="#p" />
<use x="288" y="288" xlink:href="#p" />
<use x="312" y="288" xlink:href="#p" />
<use x="324" y="288" xlink:href="#p" />
<use x="336" y="288" xlink:href="#p" />
<use x="348" y="288" xlink:href="#p" />
<use x="360" y="288" xlink:href="#p" />
<use x="372" y="288" xlink:href="#p" />
<use x="396" y="288" xlink:href="#p" />
<use x="408" y="288" xlink:href="#p" />
<use x="420" y="288" xlink:href="#p" />
<use x="444" y="288" xlink:href="#p" />
<use x="468" y="288" xlink:href="#p" />
<use x="36" y="300" xlink:href="#p" />
<use x="48" y="300" xlink:href="#p" />
<use x="60" y="300" xlink:href="#p" />
<use x="84" y="300" xlink:href="#p" />
<use x="96" y="300" xlink:href="#p" />
<use x="108" y="300" xlink:href="#p" />
<use x="132" y="300" xlink:href="#p" />
<use x="156" y="300" xlink:href="#p" />
<use x="180" y="300" xlink:href="#p" />
<use x="252" y="300" xlink:href="#p" />
<use x="276" y="300" xlink:href="#p" />
<use x="300" y="300" xlink:href="#p" />
<use x="324" y="300" xlink:href="#p" />
<use x="348" y="300" xlink:href="#p" />
<use x="360" y="300" xlink:href="#p" />
<use x="384" y="300" xlink:href="#p" />
<use x="396" y="300" xlink:href="#p" />
<use x="408" y="300" xlink:href="#p" />
<use x="420" y="300" xlink:href="#p" />
<use x="468" y="300" xlink:href="#p" />
<use x="480" y="300" xlink:href="#p" />
<use x="12" y="312" xlink:href="#p" />
<use x="24" y="312" xlink:href="#p" />
<use x="36" y="312" xlink:href="#p" />
<use x="48" y="312" xlink:href="#p" />
<use x="72" y="312" xlink:href="#p" />
<use x="156" y="312" xlink:href="#p" />
<use x="180" y="312" xlink:href="#p" />
<use x="204" y="312" xlink:href="#p" />
<use x="228" y="312" xlink:href="#p" />
<use x="252" y="312" xlink:href="#p" />
<use x="276" y="312" xlink:href="#p" />
<use x="300" y="312" xlink:href="#p" />
<use x="324" y="312" xlink:href="#p" />
<use x="348" y="312" xlink:href="#p" />
<use x="360" y="312" xlink:href="#p" />
<use x="372" y="312" xlink:href="#p" />
<use x="408" y="312" xlink:href="#p" />
<use x="420" y="312" xlink:href="#p" />
<use x="480" y="312" xlink:href="#p" />
<use x="492" y="312" xlink:href="#p" />
<use x="12" y="324" xlink:href="#p" />
<use x="24" y="324" xlink:href="#p" />
<use x="36" y="324" xlink:href="#p" />
<use x="48" y="324" xlink:href="#p" />
<use x="60" y="324" xlink:href="#p" />
<use x="84" y="324" xlink:href="#p" />
<use x="108" y="324" xlink:href="#p" />
<use x="132" y="324" xlink:href="#p" />
<use x="144" y="324" xlink:href="#p" />
<use x="168" y="324" xlink:href="#p" />
<use x="180" y="324" xlink:href="#p" />
<use x="204" y="324" xlink:href="#p" />
<use x="228" y="324" xlink:href="#p" />
<use x="252" y="324" xlink:href="#p" />
<use x="264" y="324" xlink:href="#p" />
<use x="276" y="324" xlink:href="#p" />
<use x="288" y="324" xlink:href="#p" />
<use x="300" y="324" xlink:href="#p" />
<use x="312" y="324" xlink:href="#p" />
<use x="348" y="324" xlink:href="#p" />
<use x="408" y="324" xlink:href="#p" />
<use x="468" y="324" xlink:href="#p" />
<use x="480" y="324" xlink:href="#p" />
<use x="492" y="324" xlink:href="#p" />
<use x="24" y="336" xlink:href="#p" />
<use x="48" y="336" xlink:href="#p" />
<use x="60" y="336" xlink:href="#p" />
<use x="72" y="336" xlink:href="#p" />
<use x="108" y="336" xlink:href="#p" />
<use x="144" y="336" xlink:href="#p" />
<use x="156" y="336" xlink:href="#p" />
<use x="180" y="336" xlink:href="#p" />
<use x="192" y="336" xlink:href="#p" />
<use x="216" y="336" xlink:href="#p" />
<use x="252" y="336" xlink:href="#p" />
<use x="288" y="336" xlink:href="#p" />
<use x="300" y="336" xlink:href="#p" />
<use x="360" y="336" xlink:href="#p" />
<use x="396" y="336" xlink:href="#p" />
<use x="408" y="336" xlink:href="#p" />
<use x="420" y="336" xlink:href="#p" />
<use x="36" y="348" xlink:href="#p" />
<use x="48" y="348" xlink:href="#p" />
<use x="60" y="348" xlink:href="#p" />
<use x="72" y="348" xlink:href="#p" />
<use x="84" y="348" xlink:href="#p" />
<use x="108" y="348" xlink:href="#p" />
<use x="120" y="348" xlink:href="#p" />
<use x="132" y="348" xlink:href="#p" />
<use x="156" y="348" xlink:href="#p" />
<use x="168" y="348" xlink:href="#p" />
<use x="216" y="348" xlink:href="#p" />
<use x="240" y="348" xlink:href="#p" />
<use x="264" y="348" xlink:href="#p" />
<use x="300" y="348" xlink:href="#p" />
<use x="348" y="348" xlink:href="#p" />
<use x="360" y="348" xlink:href="#p" />
<use x="384" y="348" xlink:href="#p" />
<use x="408" y="348" xlink:href="#p" />
<use x="456" y="348" xlink:href="#p" />
<use x="480" y="348" xlink:href="#p" />
<use x="36" y="360" xlink:href="#p" />
<use x="72" y="360" xlink:href="#p" />
<use x="96" y="360" xlink:href="#p" />
<use x="120" y="360" xlink:href="#p" />
<use x="144" y="360" xlink:href="#p" />
<use x="168" y="360" xlink:href="#p" />
<use x="192" y="360" xlink:href="#p" />
<use x="216" y="360" xlink:href="#p" />
<use x="252" y="360" xlink:href="#p" />
<use x="264" y="360" xlink:href="#p" />
<use x="288" y="360" xlink:href="#p" />
<use x="312" y="360" xlink:href="#p" />
<use x="336" y="360" xlink:href="#p" />
<use x="348" y="360" xlink:href="#p" />
<use x="360" y="360" xlink:href="#p" />
<use x="384" y="360" xlink:href="#p" />
<use x="408" y="360" xlink:href="#p" />
<use x="480" y="360" xlink:href="#p" />
<use x="492" y="360" xlink:href="#p" />
<use x="12" y="372" xlink:href="#p" />
<use x="36" y="372" xlink:href="#p" />
<use x="60" y="372" xlink:href="#p" />
<use x="84" y="372" xlink:href="#p" />
<use x="96" y="372" xlink:href="#p" />
<use x="132" y="372" xlink:href="#p" />
<use x="144" y="372" xlink:href="#p" />
<use x="156" y="372" xlink:href="#p" />
<use x="168" y="372" xlink:href="#p" />
<use x="216" y="372" xlink:href="#p" />
<use x="228" y="372" xlink:href="#p" />
<use x="324" y="372" xlink:href="#p" />
<use x="336" y="372" xlink:href="#p" />
<use x="348" y="372" xlink:href="#p" />
<use x="456" y="372" xlink:href="#p" />
<use x="480" y="372" xlink:href="#p" />
<use x="492" y="372" xlink:href="#p" />
<use x="24" y="384" xlink:href="#p" />
<use x="36" y="384" xlink:href="#p" />
<use x="48" y="384" xlink:href="#p" />
<use x="72" y="384" xlink:href="#p" />
<use x="108" y="384" xlink:href="#p" />
<use x="132" y="384" xlink:href="#p" />
<use x="156" y="384" xlink:href="#p" />
<use x="252" y="384" xlink:href="#p" />
<use x="264" y="384" xlink:href="#p" />
<use x="276" y="384" xlink:href="#p" />
<use x="288" y="384" xlink:href="#p" />
<use x="300" y="384" xlink:href="#p" />
<use x="324" y="384" xlink:href="#p" />
<use x="348" y="384" xlink:href="#p" />
<use x="360" y="384" xlink:href="#p" />
<use x="384" y="384" xlink:href="#p" />
<use x="408" y="384" xlink:href="#p" />
<use x="420" y="384" xlink:href="#p" />
<use x="432" y="384" xlink:href="#p" />
<use x="480" y="384" xlink:href="#p" />
<use x="492" y="384" xlink:href="#p" />
<use x="12" y="396" xlink:href="#p" />
<use x="48" y="396" xlink:href="#p" />
<use x="72" y="396" xlink:href="#p" />
<use x="84" y="396" xlink:href="#p" />
<use x="120" y="396" xlink:href="#p" />
<use x="144" y="396" xlink:href="#p" />
<use x="156" y="396" xlink:href="#p" />
<use x="168" y="396" xlink:href="#p" />
<use x="192" y="396" xlink:href="#p" />
<use x="240" y="396" xlink:href="#p" />
<use x="252" y="396" xlink:href="#p" />
<use x="276" y="396" xlink:href="#p" />
<use x="336" y="396" xlink:href="#p" />
<use x="348" y="396" xlink:href="#p" />
<use x="360" y="396" xlink:href="#p" />
<use x="372" y="396" xlink:href="#p" />
<use x="396" y="396" xlink:href="#p" />
<use x="408" y="396" xlink:href="#p" />
<use x="420" y="396" xlink:href="#p" />
<use x="432" y="396" xlink:href="#p" />
<use x="444" y="396" xlink:href="#p" />
<use x="456" y="396" xlink:href="#p" />
<use x="480" y="396" xlink:href="#p" />
<use x="108" y="408" xlink:href="#p" />
<use x="120" y="408" xlink:href="#p" />
<use x="132" y="408" xlink:href="#p" />
<use x="156" y="408" xlink:href="#p" />
<use x="180" y="408" xlink:href="#p" />
<use x="204" y="408" xlink:href="#p" />
<use x="216" y="408" xlink:href="#p" />
<use x="240" y="408" xlink:href="#p" />
<use x="264" y="408" xlink:href="#p" />
<use x="288" y="408" xlink:href="#p" />
<use x="312" y="408" xlink:href="#p" />
<use x="348" y="408" xlink:href="#p" />
<use x="360" y="408" xlink:href="#p" />
<use x="384" y="408" xlink:href="#p" />
<use x="396" y="408" xlink:href="#p" />
<use x="444" y="408" xlink:href="#p" />
<use x="468" y="408" xlink:href="#p" />
<use x="480" y="408" xlink:href="#p" />
<use x="492" y="408" xlink:href="#p" />
<use x="12" y="420" xlink:href="#p" />
<use x="24" y="420" xlink:href="#p" />
<use x="36" y="420" xlink:href="#p" />
<use x="48" y="420" xlink:href="#p" />
<use x="60" y="420" xlink:href="#p" />
<use x="72" y="420" xlink:href="#p" />
<use x="84" y="420" xlink:href="#p" />
<use x="120" y="420" xlink:href="#p" />
<use x="204" y="420" xlink:href="#p" />
<use x="216" y="420" xlink:href="#p" />
<use x="264" y="420" xlink:href="#p" />
<use x="288" y="420" xlink:href="#p" />
<use x="300" y="420" xlink:href="#p" />
<use x="348" y="420" xlink:href="#p" />
<use x="372" y="420" xlink:href="#p" />
<use x="384" y="420" xlink:href="#p" />
<use x="396" y="420" xlink:href="#p" />
<use x="420" y="420" xlink:href="#p" />
<use x="444" y="420" xlink:href="#p" />
<use x="456" y="420" xlink:href="#p" />
<use x="480" y="420" xlink:href="#p" />
<use x="492" y="420" xlink:href="#p" />
<use x="12" y="432" xlink:href="#p" />
<use x="84" y="432" xlink:href="#p" />
<use x="108" y="432" xlink:href="#p" />
<use x="120" y="432" xlink:href="#p" />
<use x="204" y="432" xlink:href="#p" />
<use x="216" y="432" xlink:href="#p" />
<use x="240" y="432" xlink:href="#p" />
<use x="252" y="432" xlink:href="#p" />
<use x="276" y="432" xlink:href="#p" />
<use x="300" y="432" xlink:href="#p" />
<use x="324" y="432" xlink:href="#p" />
<use x="348" y="432" xlink:href="#p" />
<use x="360" y="432" xlink:href="#p" />
<use x="372" y="432" xlink:href="#p" />
<use x="396" y="432" xlink:href="#p" />
<use x="444" y="432" xlink:href="#p" />
<use x="480" y="432" xlink:href="#p" />
<use x="492" y="432" xlink:href="#p" />
<use x="12" y="444" xlink:href="#p" />
<use x="36" y="444" xlink:href="#p" />
<use x="48" y="444" xlink:href="#p" />
<use x="60" y="444" xlink:href="#p" />
<use x="84" y="444" xlink:href="#p" />
<use x="108" y="444" xlink:href="#p" />
<use x="144" y="444" xlink:href="#p" />
<use x="192" y="444" xlink:href="#p" />
<use x="252" y="444" xlink:href="#p" />
<use x="288" y="444" xlink:href="#p" />
<use x="312" y="444" xlink:href="#p" />
<use x="324" y="444" xlink:href="#p" />
<use x="336" y="444" xlink:href="#p" />
<use x="372" y="444" xlink:href="#p" />
<use x="396" y="444" xlink:href="#p" />
<use x="408" y="444" xlink:href="#p" />
<use x="420" y="444" xlink:href="#p" />
<use x="432" y="444" xlink:href="#p" />
<use x="444" y="444" xlink:href="#p" />
<use x="468" y="444" xlink:href="#p" />
<use x="492" y="444" xlink:href="#p" />
<use x="12" y="456" xlink:href="#p" />
<use x="36" y="456" xlink:href="#p" />
<use x="48" y="456" xlink:href="#p" />
<use x="60" y="456" xlink:href="#p" />
<use x="84" y="456" xlink:href="#p" />
<use x="120" y="456" xlink:href="#p" />
<use x="132" y="456" xlink:href="#p" />
<use x="144" y="456" xlink:href="#p" />
<use x="168" y="456" xlink:href="#p" />
<use x="192" y="456" xlink:href="#p" />
<use x="204" y="456" xlink:href="#p" />
<use x="216" y="456" xlink:href="#p" />
<use x="288" y="456" xlink:href="#p" />
<use x="300" y="456" xlink:href="#p" />
<use x="312" y="456" xlink:href="#p" />
<use x="324" y="456" xlink:href="#p" />
<use x="348" y="456" xlink:href="#p" />
<use x="360" y="456" xlink:href="#p" />
<use x="372" y="456" xlink:href="#p" />
<use x="396" y="456" xlink:href="#p" />
<use x="408" y="456" xlink:href="#p" />
<use x="444" y="456" xlink:href="#p" />
<use x="456" y="456" xlink:href="#p" />
<use x="480" y="456" xlink:href="#p" />
<use x="492" y="456" xlink:href="#p" />
<use x="12" y="468" xlink:href="#p" />
<use x="36" y="468" xlink:href="#p" />
<use x="48" y="468" xlink:href="#p" />
<use x="60" y="468" xlink:href="#p" />
<use x="84" y="468" xlink:href="#p" />
<use x="108" y="468" xlink:href="#p" />
<use x="144" y="468" xlink:href="#p" />
<use x="168" y="468" xlink:href="#p" />
<use x="216" y="468" xlink:href="#p" />
<use x="252" y="468" xlink:href="#p" />
<use x="264" y="468" xlink:href="#p" />
<use x="276" y="468" xlink:href="#p" />
<use x="288" y="468" xlink:href="#p" />
<use x="300" y="468" xlink:href="#p" />
<use x="312" y="468" xlink:href="#p" />
<use x="348" y="468" xlink:href="#p" />
<use x="432" y="468" xlink:href="#p" />
<use x="444" y="468" xlink:href="#p" />
<use x="456" y="468" xlink:href="#p" />
<use x="468" y="468" xlink:href="#p" />
<use x="492" y="468" xlink:href="#p" />
<use x="12" y="480" xlink:href="#p" />
<use x="84" y="480" xlink:href="#p" />
<use x="120" y="480" xlink:href="#p" />
<use x="132" y="480" xlink:href="#p" />
<use x="156" y="480" xlink:href="#p" />
<use x="168" y="480" xlink:href="#p" />
<use x="180" y="480" xlink:href="#p" />
<use x="204" y="480" xlink:href="#p" />
<use x="228" y="480" xlink:href="#p" />
<use x="240" y="480" xlink:href="#p" />
<use x="252" y="480" xlink:href="#p" />
<use x="264" y="480" xlink:href="#p" />
<use x="288" y="480" xlink:href="#p" />
<use x="300" y="480" xlink:href="#p" />
<use x="336" y="480" xlink:href="#p" />
<use x="360" y="480" xlink:href="#p" />
<use x="384" y="480" xlink:href="#p" />
<use x="396" y="480" xlink:href="#p" />
<use x="408" y="480" xlink:href="#p" />
<use x="432" y="480" xlink:href="#p" />
<use x="456" y="480" xlink:href="#p" />
<use x="480" y="480" xlink:href="#p" />
<use x="12" y="492" xlink:href="#p" />
<use x="24" y="492" xlink:href="#p" />
<use x="36" y="492" xlink:href="#p" />
<use x="48" y="492" xlink:href="#p" />
<use x="60" y="492" xlink:href="#p" />
<use x="72" y="492" xlink:href="#p" />
<use x="84" y="492" xlink:href="#p" />
<use x="120" y="492" xlink:href="#p" />
<use x="168" y="492" xlink:href="#p" />
<use x="204" y="492" xlink:href="#p" />
<use x="216" y="492" xlink:href="#p" />
<use x="228" y="492" xlink:href="#p" />
<use x="240" y="492" xlink:href="#p" />
<use x="252" y="492" xlink:href="#p" />
<use x="300" y="492" xlink:href="#p" />
<use x="324" y="492" xlink:href="#p" />
<use x="336" y="492" xlink:href="#p" />
<use x="360" y="492" xlink:href="#p" />
<use x="396" y="492" xlink:href="#p" />
<use x="420" y="492" xlink:href="#p" />
<use x="432" y="492" xlink:href="#p" />
<use x="444" y="492" xlink:href="#p" />
<use x="456" y="492" xlink:href="#p" />
<use x="468" y="492" xlink:href="#p" />
<use x="480" y="492" xlink:href="#p" />
<use x="492" y="492" xlink:href="#p" />
</g>
</svg>