<svg xmlns="http://www.w3.org/2000/svg" xmlns:xlink="http://www.w3.org/1999/xlink" viewBox="0 0 594.96 840.94"><defs><style>.cls-1,.cls-7,.cls-8{fill:none;}.cls-2{clip-path:url(#clip-path);}.cls-3{fill:#fff;}.cls-4{fill:#0f3567;}.cls-5{fill:#10386c;}.cls-6,.cls-9{fill:#5a5858;}.cls-7{stroke:#000;}.cls-7,.cls-8{stroke-linecap:round;stroke-linejoin:round;stroke-width:0.42px;}.cls-8{stroke:gray;}.cls-9{font-size:11.76px;font-family:MicrosoftYaHei, Microsoft YaHei;}</style><clipPath id="clip-path"><rect class="cls-1" width="594.96" height="840.94"/></clipPath></defs><title>资源 1</title><g id="图层_2" data-name="图层 2"><g id="图层_1-2" data-name="图层 1"><g class="cls-2"><rect class="cls-3" width="594.96" height="840.94"/></g><polyline class="cls-4" points="247.14 262.6 227.46 262.54 225.12 266.98 237 267.04 241.2 275.62 214.92 275.5 228.12 249.16 231.48 256 243.9 256.06 234.42 237.04 220.8 236.98 199.86 278.5 191.04 260.8 205.32 260.86 217.32 236.98 174.9 236.8 165.06 256.24 151.68 256.18 161.46 236.74 148.14 236.74 126.3 279.82 139.68 279.88 149.4 260.62 162.84 260.68 153.12 279.94 166.44 279.94 186 241.36 202.56 241.42 194.76 256.3 181.8 256.3 178.92 262.06 187.74 280.06 255.84 280.24"/><path class="cls-3" d="M136,273.88l2.64-1.92a3.23,3.23,0,0,1-4.08,4.8,3.19,3.19,0,0,1-1.68-3.6,3.15,3.15,0,0,1,3.12-2.52"/><path class="cls-3" d="M138.24,269.62a.47.47,0,0,1,.12.6.48.48,0,0,1-.66.18.56.56,0,0,1-.12-.66.43.43,0,0,1,.66-.12"/><path class="cls-3" d="M142.08,261.82a.5.5,0,0,1,.18.66.43.43,0,0,1-.66.12.37.37,0,0,1-.12-.6.43.43,0,0,1,.6-.18"/><path class="cls-3" d="M140.16,265.72a.43.43,0,0,1,.12.66.47.47,0,0,1-.6.12.48.48,0,0,1-.18-.66.56.56,0,0,1,.66-.12"/><path class="cls-3" d="M170.94,258a.48.48,0,0,1,.18.66.55.55,0,0,1-.66.12.53.53,0,0,1-.12-.66.47.47,0,0,1,.6-.12"/><path class="cls-3" d="M180.72,238.6a.51.51,0,0,1,.18.66.44.44,0,0,1-.66.12.37.37,0,0,1-.12-.6.43.43,0,0,1,.6-.18"/><path class="cls-3" d="M186.6,238.66a.43.43,0,0,1,.12.66.47.47,0,0,1-.6.12.5.5,0,0,1-.18-.66.55.55,0,0,1,.66-.12"/><path class="cls-3" d="M192.48,238.66a.43.43,0,0,1,.12.66.37.37,0,0,1-.6.12.43.43,0,0,1-.18-.6.5.5,0,0,1,.66-.18"/><path class="cls-3" d="M198.36,238.72a.47.47,0,0,1,.12.6.43.43,0,0,1-.66.12.47.47,0,0,1-.12-.6.43.43,0,0,1,.66-.12"/><path class="cls-3" d="M204.18,238.72a.48.48,0,0,1,.18.66.55.55,0,0,1-.66.12.53.53,0,0,1-.12-.66.47.47,0,0,1,.6-.12"/><path class="cls-3" d="M178.8,242.5a.55.55,0,0,1,.12.66.53.53,0,0,1-.66.12.47.47,0,0,1-.12-.6.48.48,0,0,1,.66-.18"/><path class="cls-3" d="M176.82,246.4a.43.43,0,0,1,.12.66.47.47,0,0,1-.6.12.43.43,0,0,1-.12-.66.47.47,0,0,1,.6-.12"/><path class="cls-3" d="M174.9,250.3a.47.47,0,0,1,.12.6.48.48,0,0,1-.66.18.55.55,0,0,1-.12-.66.43.43,0,0,1,.66-.12"/><path class="cls-3" d="M172.92,254.14a.43.43,0,0,1,.12.66.37.37,0,0,1-.6.12.43.43,0,0,1-.18-.6.5.5,0,0,1,.66-.18"/><path class="cls-3" d="M210.06,238.72a.43.43,0,0,1,.12.66.47.47,0,0,1-.6.12.43.43,0,0,1-.12-.66.47.47,0,0,1,.6-.12"/><path class="cls-3" d="M205.8,246.28a.43.43,0,0,1,.12.66.47.47,0,0,1-.6.12.43.43,0,0,1-.12-.66.47.47,0,0,1,.6-.12"/><path class="cls-3" d="M204.24,250.36a.43.43,0,0,1,.12.66.47.47,0,0,1-.6.12.43.43,0,0,1-.12-.66.47.47,0,0,1,.6-.12"/><path class="cls-3" d="M208.14,242.62a.53.53,0,0,1,.12.66.47.47,0,0,1-.6.12.48.48,0,0,1-.18-.66.55.55,0,0,1,.66-.12"/><path class="cls-3" d="M202.32,254.26a.47.47,0,0,1-.54.78.55.55,0,0,1-.12-.66.53.53,0,0,1,.66-.12"/><path class="cls-3" d="M200.34,258.16a.43.43,0,0,1,.18.6.43.43,0,0,1-.66.12.43.43,0,0,1,.48-.72"/><path class="cls-3" d="M194.22,258.1a.55.55,0,0,1,.12.66.47.47,0,1,1-.12-.66"/><path class="cls-3" d="M188,258.1a.43.43,0,0,1,.12.66.47.47,0,0,1-.6.12.48.48,0,0,1-.18-.66.55.55,0,0,1,.66-.12"/><path class="cls-3" d="M186.06,262.12a.43.43,0,0,1,.12.66.47.47,0,0,1-.6.12.48.48,0,0,1-.18-.66.56.56,0,0,1,.66-.12"/><path class="cls-3" d="M188.16,266.2a.55.55,0,0,1,.12.66.43.43,0,0,1-.66.12.47.47,0,0,1-.12-.6.48.48,0,0,1,.66-.18"/><path class="cls-3" d="M190.2,270.28a.56.56,0,0,1,.12.66.37.37,0,0,1-.6.12.43.43,0,0,1-.18-.6.5.5,0,0,1,.66-.18"/><path class="cls-3" d="M192.24,274.42a.43.43,0,0,1,.18.6.44.44,0,0,1-.66.12.43.43,0,0,1,.48-.72"/><path class="cls-3" d="M194.34,278.5a.47.47,0,0,1,.12.6.43.43,0,0,1-.66.12.47.47,0,0,1-.12-.6.43.43,0,0,1,.66-.12"/><path class="cls-3" d="M198.54,278.5a.47.47,0,0,1,.12.6.43.43,0,0,1-.6.18.48.48,0,0,1-.18-.66.53.53,0,0,1,.66-.12"/><path class="cls-3" d="M203.22,278.32a.48.48,0,1,1-.66.18.5.5,0,0,1,.66-.18"/><path class="cls-3" d="M207.36,278.2a.41.41,0,0,1,.12.6.43.43,0,0,1-.6.18.48.48,0,0,1-.18-.66.53.53,0,0,1,.66-.12"/><path class="cls-3" d="M226.38,238.78a.48.48,0,0,1,.18.66.53.53,0,0,1-.66.12.47.47,0,0,1-.12-.6.43.43,0,0,1,.6-.18"/><path class="cls-3" d="M224.46,242.74a.43.43,0,0,1,.12.66.4.4,0,0,1-.6.12.43.43,0,0,1-.18-.6.5.5,0,0,1,.66-.18"/><path class="cls-3" d="M222.48,246.7a.5.5,0,0,1,.18.66.48.48,0,0,1-.66.18.55.55,0,0,1-.12-.66.43.43,0,0,1,.6-.18"/><path class="cls-3" d="M219.06,254.86a.53.53,0,0,1,.12.66.46.46,0,0,1-.78-.48.48.48,0,0,1,.66-.18"/><path class="cls-3" d="M217.08,258.88a.48.48,0,0,1,.18.66.55.55,0,0,1-.66.12.41.41,0,0,1-.12-.6.43.43,0,0,1,.6-.18"/><path class="cls-3" d="M214.74,262.66a.45.45,0,0,1,.12.6.43.43,0,0,1-.6.18.5.5,0,0,1-.18-.66.43.43,0,0,1,.66-.12"/><path class="cls-3" d="M210.78,270.58a.43.43,0,0,1,.18.6.48.48,0,0,1-.66.18.53.53,0,0,1-.12-.66.47.47,0,0,1,.6-.12"/><path class="cls-3" d="M208.86,274.54a.48.48,0,0,1,.18.66.55.55,0,0,1-.66.12.48.48,0,0,1-.18-.66.55.55,0,0,1,.66-.12"/><path class="cls-3" d="M212.76,266.62a.43.43,0,0,1,.18.6.5.5,0,0,1-.66.18.43.43,0,0,1-.12-.66.41.41,0,0,1,.6-.12"/><path class="cls-3" d="M221,250.9a.43.43,0,0,1,.18.6.48.48,0,0,1-.66.18.46.46,0,0,1,.48-.78"/><path class="cls-3" d="M230.16,238.78a.53.53,0,0,1,.12.66.41.41,0,0,1-.6.12.42.42,0,0,1-.18-.6.48.48,0,0,1,.66-.18"/><path class="cls-3" d="M232,242.8a.4.4,0,0,1,.12.6.42.42,0,0,1-.6.18.43.43,0,0,1-.18-.6.48.48,0,0,1,.66-.18"/><path class="cls-3" d="M234.9,247.18a3.24,3.24,0,1,1-3.24,3.24,3.27,3.27,0,0,1,3.24-3.24"/><polyline class="cls-3" points="231.9 248.14 232.44 244.84 235.2 246.58 233.16 246.4"/><path class="cls-3" d="M144.06,258a.47.47,0,0,1,.12.6.43.43,0,0,1-.66.12.47.47,0,0,1-.12-.6.43.43,0,0,1,.66-.12"/><path class="cls-3" d="M149.4,258a.48.48,0,0,1,.18.66.55.55,0,0,1-.66.12.53.53,0,0,1-.12-.66.47.47,0,0,1,.6-.12"/><path class="cls-3" d="M160.2,258a.43.43,0,0,1-.48.72.43.43,0,0,1-.18-.6.43.43,0,0,1,.66-.12"/><path class="cls-3" d="M165.6,258a.47.47,0,1,1-.66.12.53.53,0,0,1,.66-.12"/><path class="cls-3" d="M154.8,258a.43.43,0,0,1,.12.66.47.47,0,0,1-.6.12.37.37,0,0,1-.12-.6.43.43,0,0,1,.6-.18"/><path class="cls-5" d="M286.08,256.66l.06-4.86h-7.32v4.86m-.78-11h9.12v1.62H278Zm-.9,4.56,10.68.06v9.36h-1.74v-1.38h-7.26v1.38h-1.74Zm6.9-12.9-.42.66a16,16,0,0,0,6.6,6.9c-.42.54-.84,1.08-1.2,1.62a20.42,20.42,0,0,1-6.36-7,21.34,21.34,0,0,1-6.42,7.08,9.27,9.27,0,0,0-1.14-1.44,19.11,19.11,0,0,0,6.84-7.8Zm-10.86,15.6v-11.4h-2.7l-.06,11.4Zm-4.38-13h6.06l-.06,16.14h-1.68v-1.62h-2.7v2H268.8Z"/><polyline class="cls-5" points="293.46 256.12 303.42 256.12 303.48 241 294.84 241 294.84 239.2 314.16 239.26 314.16 241.06 305.46 241.06 305.4 256.18 315.36 256.24 315.36 257.98 293.46 257.92"/><path class="cls-5" d="M318.66,257.8c6.3-2.76,9.66-6.9,10.14-12.48h-9.66v-1.8h9.72c.06-2,.06-4.08.12-6.12h1.92c0,2,0,4.08-.06,6.12l10,.06v1.8l-10-.06c1.08,6.06,4.56,10,10.56,12a12.35,12.35,0,0,0-1.74,1.8A15.88,15.88,0,0,1,330,248.56c-1.14,4.56-4.5,8.22-9.9,11a19.31,19.31,0,0,0-1.44-1.74"/><path class="cls-5" d="M356.22,240.58v7.5c0,5.46-1.38,9.36-4.08,11.76-.42-.48-.9-1-1.32-1.56,2.4-2,3.6-5.34,3.6-9.78l.06-9.66h8.4l-.06,17.1c0,.72.3,1.08.78,1.08h.54c.48,0,.78-.42,1-1.26.12-1.2.24-2.46.3-3.78a10.68,10.68,0,0,0,1.74.72c-.18,1.5-.3,2.76-.42,3.72-.24,1.56-1,2.4-2.34,2.4h-1.2c-1.44,0-2.16-.9-2.16-2.64l.06-15.66m-16.86,11a26,26,0,0,0,3.66-8.22h-3.42v-1.5H348V237.4h1.68v4.44h3.18v1.56h-3.18v3.72l.9-.84c1.14,1,2,1.92,2.7,2.58l-1.2,1.26c-.9-1.08-1.74-1.92-2.4-2.64l-.06,12H348V247.3a22.18,22.18,0,0,1-3,6.24C344.76,252.88,344.52,252.22,344.22,251.56Z"/><path class="cls-5" d="M388.68,253.9h-4.86v3h4.86Zm0-13.74h-4.86v3.12h4.86Zm-6.42-1.44h8v6.72h-1.62v-.78h-4.86v.72h-1.56Zm-4,15.12h-4.8v3h4.8Zm0-13.68h-4.8v3.06h4.8Zm-6.42-1.44h8v6.6h-1.56v-.66h-4.8v.9h-1.62Zm-1.2,8.22h9.12a6.94,6.94,0,0,0,.48-1.92l1.62.24a6.14,6.14,0,0,1-.42,1.74h5c-.6-.42-1.26-.84-1.92-1.32l1-1c1,.6,1.86,1.2,2.64,1.8l-.48.54h4.2v1.56h-8.7c1.68,1.74,4.8,2.52,9.24,2.46a16.19,16.19,0,0,0-.9,1.74,6.65,6.65,0,0,1-1.14-.12v7h-1.62v-1.32h-4.86v1.26h-1.56v-7.08h7.2c-4.32-.6-7.08-1.92-8.28-4h-.42c-.84,1.8-3.6,3.12-8.22,4h7.26v7h-1.62v-1.2h-4.74v1.26h-1.62v-6.9l-1.26.24a10.57,10.57,0,0,0-.84-1.62c5-.66,8-1.5,9.06-2.7h-8.22Z"/><path class="cls-5" d="M395.4,257.92c6.6-3.78,10.08-10.44,10.5-20h2a38.86,38.86,0,0,1-.48,4.62c1.86,7.62,5.34,12.6,10.56,15-.66.72-1.2,1.32-1.68,1.92-4.5-2.52-7.74-7-9.6-13.44q-2.52,9.27-9.9,13.68a19.52,19.52,0,0,0-1.38-1.74"/><path class="cls-5" d="M426,249.34h6.24v-1.62H426Zm0-2.94h6.24v-1.62H426Zm0-2.94h6.24v-1.62H426Zm5.7-5.16,1.38-.78a15.31,15.31,0,0,1,1.74,2.28l-1,.66h8.7v1.44h-8.64v1.56h7.62v1.32h-7.62v1.62h7.62v1.32h-7.62v1.62h8.7v1.44L426,250.72v.84h-1.56v-8A31.72,31.72,0,0,1,422,246a6.83,6.83,0,0,0-1.08-1.5,24.27,24.27,0,0,0,5.58-6.78l1.56.72a16.22,16.22,0,0,1-1.32,2h6.42A16.29,16.29,0,0,0,431.7,238.3Zm-10.08,14.46,9.78.06v-1.56H433v1.56h9.78v1.44h-8a22.76,22.76,0,0,0,8.82,3.84c-.42.6-.78,1.2-1.08,1.68a25.75,25.75,0,0,1-9.54-5.1V260H431.4v-5.34a26.72,26.72,0,0,1-9.54,5.1,11.26,11.26,0,0,0-1.08-1.44,23.34,23.34,0,0,0,8.76-4h-7.92Z"/><path class="cls-5" d="M450.72,244.48h8.46v-3.24h1.68v3.24h4.38V246h-4.38v6.9c0,2.16-1,3.3-3.12,3.24H455.1c-.12-.54-.18-1.14-.36-1.8a18.65,18.65,0,0,0,2.58.18c1.26,0,1.86-.72,1.86-2.1v-5.34a24.77,24.77,0,0,1-8.16,7.62,14.86,14.86,0,0,0-1.14-1.56A23.5,23.5,0,0,0,458.1,246h-7.38m15.3-5.52-16.38-.06-.06,16.86,16.38.06Zm-18.12-1.68,19.86.12-.12,21.12H466v-1.14H449.52v1.14h-1.68Z"/><polyline class="cls-5" points="276.48 269.44 277.62 269.44 277.62 280.18 276.36 280.18 276.36 275.2 270.36 275.2 270.36 280.18 269.16 280.18 269.22 269.44 270.48 269.44 270.48 274.06 276.48 274.06"/><polyline class="cls-5" points="284.58 269.5 285.78 269.5 285.72 280.18 284.58 280.18"/><polyline class="cls-5" points="300.42 269.56 300.42 270.58 296.76 270.58 296.76 280.24 295.5 280.24 295.56 270.58 291.9 270.58 291.9 269.5"/><path class="cls-5" d="M315.66,270.64v3.72h3.54c1.74,0,2.58-.66,2.64-1.92s-.9-1.74-2.64-1.8m4.68,9.72H322.2l-3.66-4.86h-2.88v4.8h-1.2V269.62h5c2.34.12,3.54,1.08,3.66,2.88s-1.08,2.88-3.24,3Z"/><path class="cls-5" d="M334.32,270.58c-2.34.18-3.66,1.68-3.9,4.5.18,2.76,1.44,4.26,3.84,4.5,2.46-.12,3.84-1.62,4-4.44-.24-2.82-1.5-4.38-3.9-4.56m-.06,10c-3.24-.18-4.92-2-5.1-5.34.18-3.66,1.92-5.52,5.28-5.7,3.18.24,4.92,2.1,5.1,5.64C339.36,278.62,337.62,280.42,334.26,280.54Z"/><path class="cls-5" d="M349.74,275.44h-3v4h3.18c1.68,0,2.52-.72,2.52-2.1-.12-1.2-1-1.86-2.7-1.92m-.18-4.68H346.8v3.6h2.76c1.5-.06,2.28-.72,2.4-1.92C351.9,271.36,351.12,270.82,349.56,270.76Zm.54,9.66h-4.5l.06-10.74h4.2q3.24.18,3.42,2.7a2.46,2.46,0,0,1-2.16,2.4,2.71,2.71,0,0,1,2.52,2.76C353.58,279.4,352.38,280.36,350.1,280.42Z"/><path class="cls-5" d="M364.8,270.64c-2.4.24-3.66,1.74-3.9,4.56q.18,4.14,3.78,4.5c2.52-.18,3.84-1.62,4-4.44-.18-2.82-1.5-4.38-3.84-4.62m-.12,10c-3.24-.24-4.92-2-5-5.34.12-3.66,1.92-5.58,5.28-5.7,3.18.18,4.86,2.1,5,5.64C369.84,278.74,368,280.54,364.68,280.66Z"/><polyline class="cls-5" points="383.88 269.8 383.88 270.82 380.22 270.82 380.22 280.54 379.02 280.54 379.02 270.82 375.36 270.82 375.36 269.8"/><path class="cls-5" d="M402.84,275.08h4.62V279c-.9,1.2-2.46,1.74-4.62,1.74-3.36-.18-5.16-2-5.28-5.34.12-3.66,1.86-5.58,5.1-5.7a4.74,4.74,0,0,1,4.74,3.18l-1.32.3a3.5,3.5,0,0,0-3.48-2.4c-2.28.18-3.54,1.74-3.78,4.56.18,2.76,1.5,4.26,4,4.44a4.32,4.32,0,0,0,3.48-1.26v-2.4h-3.42"/><path class="cls-5" d="M415.14,271v3.78h3.48c1.74-.06,2.58-.72,2.64-2s-.9-1.74-2.64-1.74m4.68,9.6h-1.68l-3.66-4.8h-2.82v4.8h-1.26l.06-10.74h5c2.28.12,3.48,1.08,3.6,2.94s-1.08,2.82-3.24,3Z"/><path class="cls-5" d="M433.8,270.88c-2.4.24-3.66,1.74-3.9,4.56q.18,4.14,3.78,4.5c2.52-.18,3.84-1.62,4-4.44-.18-2.82-1.5-4.38-3.84-4.62m-.12,10c-3.24-.24-4.92-2-5-5.34.12-3.66,1.92-5.58,5.28-5.7,3.18.18,4.86,2.1,5,5.64C438.84,279,437,280.78,433.68,280.9Z"/><path class="cls-5" d="M453.6,270v6.3c.06,3.12-1.38,4.62-4.26,4.62s-4.26-1.56-4.2-4.68V270h1.26v6.24c-.06,2.52.9,3.72,2.94,3.66,2.16.12,3.18-1.14,3.12-3.66V270"/><path class="cls-5" d="M464.7,271.18h-3.12v4.2h3.12c1.74,0,2.64-.72,2.64-2.16s-1-2-2.64-2m.24,5.28h-3.36v4.38h-1.2l.06-10.74h4.62c2.16.12,3.36,1.2,3.6,3.18C468.6,275.38,467.34,276.46,464.94,276.46Z"/><polyline class="cls-5" points="267.84 264.4 267.84 263.98 468.6 264.64 468.6 265.12"/><path class="cls-6" d="M139.38,293.62h-4.86v4h4.86Zm-11,4h4.8v-4h-4.8ZM127,292.42h6.12v-3.48h1.32v3.48h6.18v7.2h-1.32v-.78h-4.86v5.88h-1.32v-5.88h-4.8v.84H127Z"/><path class="cls-6" d="M170.7,291h-8.94v2.1h8.94Zm-9.06,9.9.78-.84c1.14.9,2,1.62,2.58,2.16l-.9,1C163.14,302.2,162.3,301.48,161.64,300.88Zm1.2-4.74h8.34c.84,0,1.32-.24,1.44-.78a9.57,9.57,0,0,0,.36-1.8,13.21,13.21,0,0,0,1.26.54c-.18.72-.3,1.26-.42,1.74a2.14,2.14,0,0,1-2.34,1.44H162.6a1.87,1.87,0,0,1-2.1-2.1V289.9h11.4v4.86h-1.26v-.54h-8.88v.9C161.76,295.78,162.12,296.14,162.84,296.14Zm-4.2,2.7,11,.06v-1.14H171v1.14h3.42V300H171v2.58c0,1.26-.66,1.86-2,1.86h-2.58c0-.36-.12-.84-.18-1.38a18.21,18.21,0,0,0,2.4.12c.72,0,1.14-.3,1.14-1V300l-11-.06Z"/><path class="cls-6" d="M199.74,291.52v5.22c0,3.78-1,6.48-2.82,8.22-.3-.36-.6-.72-1-1.08q2.52-2.25,2.52-6.84v-6.72h5.88l-.06,11.88c0,.54.18.78.54.78h.36c.36,0,.6-.3.66-.84.12-.84.18-1.68.24-2.64a10.56,10.56,0,0,0,1.2.54c-.12,1-.18,1.92-.3,2.58-.18,1.08-.72,1.68-1.62,1.68h-.84c-1,0-1.5-.66-1.5-1.86l.06-10.92m-11.7,7.62a18,18,0,0,0,2.52-5.7h-2.34v-1.08H194v-3.12h1.14v3.12h2.22v1.08h-2.22v2.64l.66-.66c.78.72,1.44,1.32,1.86,1.8l-.84.84c-.66-.72-1.2-1.32-1.68-1.74v8.34H194v-8.52a16.39,16.39,0,0,1-2.1,4.38C191.76,300,191.58,299.62,191.4,299.14Z"/><path class="cls-6" d="M237.36,300.82h-3.42v2.1h3.42Zm0-9.54h-3.42v2.16h3.42Zm-4.5-1h5.58v4.68h-1.08v-.54h-3.42v.48H232.8ZM230,300.82h-3.36v2H230Zm0-9.6h-3.36v2.16H230Zm-4.5-1h5.58v4.56H230v-.48h-3.36V295h-1.14ZM224.7,296h6.36a6.72,6.72,0,0,0,.36-1.38l1.14.12a9.59,9.59,0,0,1-.3,1.26h3.42a10.22,10.22,0,0,0-1.32-.9l.66-.72a19.72,19.72,0,0,1,1.86,1.2l-.36.42h3v1H233.4c1.2,1.2,3.36,1.8,6.48,1.74-.24.42-.48.84-.66,1.2l-.78-.06v4.8H237.3v-.84h-3.36v.84H232.8v-4.86h5c-3-.48-4.92-1.38-5.76-2.82h-.3c-.6,1.26-2.52,2.16-5.76,2.76h5.1v4.86H230v-.84h-3.3v.9h-1.14v-4.86l-.84.18a13.13,13.13,0,0,0-.66-1.14c3.54-.42,5.7-1,6.36-1.86h-5.7Z"/><path class="cls-6" d="M256.92,303.7c4.62-2.64,7-7.32,7.32-14h1.38c-.06,1.08-.18,2.16-.3,3.24,1.26,5.28,3.72,8.76,7.32,10.44l-1.2,1.38c-3.12-1.8-5.34-4.92-6.66-9.42a15.1,15.1,0,0,1-6.9,9.54,9.36,9.36,0,0,0-1-1.2"/><path class="cls-6" d="M297.24,292.12l.72-.78a33.58,33.58,0,0,1,2.82,2.4l-.84.9q-1.26-1.26-2.7-2.52m-1,3.84.72-.84c1.2,1,2.1,1.74,2.76,2.28l-.84,1A32.61,32.61,0,0,0,296.28,296Zm-1,4,6.18-.48.06-9.84h1.2v9.72l2.46-.24.12,1.14-2.64.24v4.68h-1.2v-4.56l-6.06.48Zm-5.76.84a16.45,16.45,0,0,0,2.76-5.4h-2.46v-1.08h2.58V292l-2.34.18a4,4,0,0,0-.3-1.14c2-.18,4.08-.36,6.12-.66l.42,1.2c-1,.12-1.86.18-2.7.3v2.46h2.52v1.14h-2.52v1.8l.66-.66c.78.66,1.5,1.32,2.1,1.92l-.9.9c-.66-.72-1.26-1.38-1.86-2v7.74h-1.2v-7.14a17.16,17.16,0,0,1-2.22,4.14A14.43,14.43,0,0,0,289.56,300.82Z"/><path class="cls-6" d="M335.58,296.92h-5.1a10.06,10.06,0,0,0,2.4,4.26,10.34,10.34,0,0,0,2.7-4.26m-7.38,0v-1.08h4.08v-2.4h-4.14V292.3h4.14v-2.52h1.32v2.52h4.32v1.14H333.6v2.46H337v.9a13.1,13.1,0,0,1-3.18,5.16,13.58,13.58,0,0,0,4.38,2.16,15.68,15.68,0,0,0-1,1.2,16.5,16.5,0,0,1-4.32-2.58,21.58,21.58,0,0,1-4.92,2.64c-.24-.36-.54-.72-.78-1.08a16.37,16.37,0,0,0,4.8-2.4,12.23,12.23,0,0,1-2.58-5Zm-5.88,1.14,2.34-.66V294h-2.1V292.9h2.1v-3.06h1.2v3.06h1.86V294h-1.86v3l1.8-.54v1.2l-1.8.6v5.1a1.48,1.48,0,0,1-1.62,1.68h-1.5c-.06-.42-.12-.9-.18-1.38a6.66,6.66,0,0,0,1.38.12c.42,0,.66-.24.66-.72v-4.44l-2.1.72Z"/><path class="cls-6" d="M359.58,300.7h8v-1.86h-8Zm8-4.86h-8v1.92h8Zm-8,9.48h-1.26v-8.16a34,34,0,0,1-2.52,2.58,13.56,13.56,0,0,0-.78-1.2,19.68,19.68,0,0,0,4.8-5.64H355.5v-1.14h4.92c.3-.66.54-1.38.78-2l1.32.3c-.24.6-.48,1.14-.72,1.74h8.94v1.14H361.2a14.28,14.28,0,0,1-1.08,1.8h8.7v8.46a1.73,1.73,0,0,1-2,1.92h-2.52c-.06-.36-.12-.78-.24-1.32a17.81,17.81,0,0,0,2.34.12.89.89,0,0,0,1.08-1v-1.08h-8Z"/><path class="cls-6" d="M395.64,297.16h5.16v-2.1h-5.16Zm5.16-5.28h-5.16V294h5.16Zm-6.36-1.14h7.5v7.92H400.8v-.42h-2.7a10.48,10.48,0,0,0,1.32,2.58,22,22,0,0,0,3-2.28l.84,1c-1.14.78-2.16,1.5-3.12,2.1a10.14,10.14,0,0,0,3.48,2.22,9.22,9.22,0,0,0-1,1.14,10.75,10.75,0,0,1-5.64-6.84h-1.38v5.4c.72-.3,1.68-.78,2.82-1.38a8.86,8.86,0,0,0,.06,1.26,24.12,24.12,0,0,0-2.76,1.44,4.53,4.53,0,0,0-.84.66l-1-1.14a1.16,1.16,0,0,0,.48-1.08Zm-1,8.58c.3,2-.24,3.18-1.5,3.42a7.31,7.31,0,0,1-1.62,0,8.48,8.48,0,0,0-.36-1.32,3.91,3.91,0,0,0,1.44.12c.72-.12,1-.9.78-2.28a7.42,7.42,0,0,0-1.44-2.82c.36-1.14.9-2.7,1.5-4.62h-2.34l-.06,13.86h-1.2l.06-14.94h4.8v1.08c-.54,1.5-1,2.94-1.5,4.38A7.44,7.44,0,0,1,393.42,299.32Z"/><path class="cls-6" d="M429.54,291l1.2-.48a12.31,12.31,0,0,0,5.7,6.6,9.79,9.79,0,0,0-1,1.2,15,15,0,0,1-5.88-7.32m1.32,8.52a63,63,0,0,1,3.84,5.4l-1.2.78c-.3-.48-.6-1-.9-1.5-3.48.18-6.3.3-8.52.48a12.29,12.29,0,0,0-1.44.3l-.72-1.38a3.81,3.81,0,0,0,1.32-.84,35,35,0,0,0,4-6.3l1.38.66a63,63,0,0,1-4.2,6.24c2.16-.06,4.62-.12,7.38-.24-.6-.9-1.26-1.86-1.92-2.88Zm-10.26-2a18.74,18.74,0,0,0,5.28-6.78l1.26.48a22.06,22.06,0,0,1-5.52,7.32A5.47,5.47,0,0,0,420.6,297.52Z"/><path class="cls-6" d="M456.42,301.6h5.82v-3.36h-5.82Zm-1.26-4.5h8.34v5.58h-7.08v1.2h-1.26Zm-.66-5v-1.2l13.68.06v12.36c0,1.5-.72,2.22-2,2.22H463c-.06-.42-.18-.9-.3-1.38,1.32.12,2.34.12,3.06.18s1.08-.42,1.08-1.32l.06-10.86Zm-.9,1.92,12.06.06v1.2l-12.06-.06Z"/><line class="cls-7" x1="300.6" y1="515.74" x2="300.72" y2="515.68"/><line class="cls-7" x1="300.12" y1="514.72" x2="300.06" y2="514.78"/><line class="cls-7" x1="298.26" y1="514.42" x2="298.38" y2="514.36"/><line class="cls-7" x1="297.78" y1="513.34" x2="297.72" y2="513.4"/><line class="cls-7" x1="300.6" y1="523.12" x2="300.72" y2="523.06"/><line class="cls-7" x1="300.12" y1="522.1" x2="300.06" y2="522.1"/><line class="cls-7" x1="298.26" y1="529.12" x2="298.38" y2="529.06"/><line class="cls-7" x1="297.78" y1="528.1" x2="297.72" y2="528.16"/><line class="cls-7" x1="300.6" y1="530.44" x2="300.72" y2="530.44"/><line class="cls-7" x1="300.12" y1="529.42" x2="300.06" y2="529.48"/><path class="cls-7" d="M303.66,499.9c.06-.06.06-.06.06-.12"/><path class="cls-7" d="M302.1,510l.78-.42c.06-.06.06-.06.06-.12"/><line class="cls-7" x1="338.28" y1="475.18" x2="338.28" y2="475.54"/><polyline class="cls-7" points="342.24 486.28 343.14 486.28 343.2 486.28"/><line class="cls-7" x1="342.12" y1="486.22" x2="342.24" y2="486.22"/><line class="cls-7" x1="343.2" y1="486.22" x2="344.04" y2="485.8"/><line class="cls-7" x1="338.52" y1="484.18" x2="342.12" y2="486.22"/><path class="cls-7" d="M338.46,484c0,.06,0,.12.06.12"/><line class="cls-7" x1="358.2" y1="564.64" x2="357.96" y2="564.82"/><line class="cls-7" x1="358.08" y1="568.54" x2="357.9" y2="568.42"/><line class="cls-7" x1="353.04" y1="567.64" x2="352.68" y2="567.82"/><line class="cls-7" x1="353.1" y1="566.44" x2="351.9" y2="567.1"/><line class="cls-7" x1="360.6" y1="566.74" x2="360.6" y2="566.5"/><line class="cls-7" x1="352.44" y1="569.38" x2="352.68" y2="569.5"/><line class="cls-7" x1="356.82" y1="564.28" x2="355.68" y2="564.94"/><line class="cls-7" x1="360.12" y1="572.86" x2="360.12" y2="572.62"/><line class="cls-7" x1="361.56" y1="566.56" x2="356.4" y2="569.5"/><line class="cls-7" x1="363.78" y1="567.82" x2="361.56" y2="566.56"/><line class="cls-7" x1="359.46" y1="562.42" x2="359.16" y2="562.6"/><line class="cls-7" x1="349.14" y1="568.36" x2="348.78" y2="568.54"/><line class="cls-7" x1="353.64" y1="570.16" x2="353.64" y2="570.34"/><line class="cls-7" x1="354.12" y1="570.76" x2="354.18" y2="570.82"/><line class="cls-7" x1="354.12" y1="570.7" x2="354.12" y2="570.76"/><line class="cls-7" x1="353.82" y1="570.58" x2="353.82" y2="570.64"/><line class="cls-7" x1="353.64" y1="570.34" x2="353.64" y2="570.52"/><line class="cls-7" x1="353.76" y1="570.58" x2="353.76" y2="570.52"/><line class="cls-7" x1="353.7" y1="570.52" x2="353.76" y2="570.58"/><line class="cls-7" x1="353.7" y1="570.52" x2="353.7" y2="570.52"/><line class="cls-7" x1="353.64" y1="570.52" x2="353.7" y2="570.52"/><line class="cls-7" x1="356.82" y1="565.9" x2="356.82" y2="566.08"/><line class="cls-7" x1="344.1" y1="424.78" x2="343.62" y2="424.48"/><line class="cls-7" x1="302.22" y1="510.28" x2="302.22" y2="509.92"/><line class="cls-7" x1="295.8" y1="449.38" x2="295.8" y2="496.24"/><line class="cls-7" x1="295.98" y1="496.72" x2="296.88" y2="498.34"/><path class="cls-7" d="M295.8,496.24v.3l.06.12"/><line class="cls-7" x1="296.88" y1="498.34" x2="296.88" y2="528.52"/><line class="cls-7" x1="297.9" y1="530.32" x2="300.54" y2="531.82"/><line class="cls-7" x1="296.88" y1="528.52" x2="297.9" y2="530.32"/><line class="cls-7" x1="345.54" y1="475.42" x2="345.54" y2="428.56"/><path class="cls-7" d="M345.36,475.84h.06l.06-.06v-.3"/><line class="cls-7" x1="344.52" y1="486.16" x2="344.52" y2="476.32"/><path class="cls-7" d="M300.3,440.44l-.18.06a10,10,0,0,0-4,5.64l-.06.36c0,.12-.06.24-.06.36s-.12.18-.06.3v1"/><line class="cls-7" x1="295.8" y1="448.18" x2="295.8" y2="449.38"/><line class="cls-7" x1="301.32" y1="439.78" x2="300.3" y2="440.44"/><path class="cls-7" d="M345.54,427.3v-1.08a.36.36,0,0,0-.06-.24.54.54,0,0,1-.06-.3l-.12-.24c-.4-.24-.42-.71-1.08-1.08h-.06"/><line class="cls-7" x1="344.16" y1="424.3" x2="337.56" y2="420.52"/><line class="cls-7" x1="334.26" y1="420.82" x2="333.24" y2="421.42"/><path class="cls-7" d="M337.62,420.52l-.18-.12a3.87,3.87,0,0,0-3.06.36l-.12.06"/><line class="cls-7" x1="345.54" y1="428.56" x2="345.54" y2="427.3"/><line class="cls-7" x1="333.24" y1="421.42" x2="322.14" y2="427.84"/><line class="cls-7" x1="317.16" y1="430.66" x2="301.32" y2="439.78"/><line class="cls-7" x1="370.02" y1="559.66" x2="370.02" y2="507.52"/><line class="cls-7" x1="331.98" y1="471.16" x2="315" y2="480.94"/><path class="cls-7" d="M317.88,491.32l-.18.06a6.7,6.7,0,0,0-2.52,2.82l-.18.36-.18.36a1.11,1.11,0,0,1-.12.42.76.76,0,0,1-.06.36.76.76,0,0,0-.06.36v.9"/><path class="cls-7" d="M327.24,496.72V496a.76.76,0,0,0-.06-.36c-.06-.12,0-.24-.06-.36s-.06-.24-.12-.36a.85.85,0,0,0-.12-.36l-.12-.3a4.69,4.69,0,0,0-1.2-1.74l-.12-.12"/><line class="cls-7" x1="317.58" y1="492.4" x2="317.46" y2="492.46"/><line class="cls-7" x1="319.86" y1="473.5" x2="303.72" y2="482.86"/><line class="cls-7" x1="295.8" y1="487.42" x2="279.18" y2="497.02"/><line class="cls-7" x1="278.16" y1="497.86" x2="278.16" y2="551.68"/><line class="cls-7" x1="313.2" y1="569.02" x2="313.74" y2="568.66"/><line class="cls-7" x1="317.16" y1="566.68" x2="317.16" y2="566.68"/><line class="cls-7" x1="336.48" y1="483.1" x2="333.12" y2="481.18"/><line class="cls-7" x1="323.88" y1="475.84" x2="319.86" y2="473.5"/><line class="cls-7" x1="340.5" y1="485.44" x2="337.74" y2="483.82"/><line class="cls-7" x1="351.18" y1="547.06" x2="354.12" y2="545.38"/><line class="cls-7" x1="324.18" y1="430.48" x2="324.06" y2="429.52"/><line class="cls-7" x1="317.28" y1="429.52" x2="317.16" y2="430.48"/><path class="cls-7" d="M324.06,429.52v-.18a.22.22,0,0,0-.06-.18l-.06-.12c-.23-.64-1.29-1.13-1.92-1.26H320.7"/><path class="cls-7" d="M320.7,427.6h-1.5l-.18.12-.24.06-.18.06-.18.12-.18.06-.18.12-.12.3-.24.24-.12.18-.12.12-.06.18-.06.12v.24"/><line class="cls-7" x1="317.52" y1="431.5" x2="318.3" y2="432.76"/><line class="cls-7" x1="323.1" y1="432.76" x2="323.88" y2="431.5"/><line class="cls-7" x1="322.2" y1="428.62" x2="322.14" y2="428.56"/><line class="cls-7" x1="319.26" y1="428.56" x2="319.2" y2="428.62"/><line class="cls-7" x1="323.22" y1="432.64" x2="323.22" y2="432.58"/><line class="cls-7" x1="318.12" y1="432.58" x2="318.12" y2="432.64"/><line class="cls-7" x1="322.5" y1="433.78" x2="322.5" y2="433.78"/><line class="cls-7" x1="323.04" y1="433.78" x2="323.04" y2="433.72"/><line class="cls-7" x1="323.82" y1="432.46" x2="323.82" y2="432.46"/><line class="cls-7" x1="317.52" y1="432.88" x2="317.52" y2="433"/><line class="cls-7" x1="317.58" y1="432.46" x2="317.58" y2="432.46"/><line class="cls-7" x1="300.48" y1="515.26" x2="300.48" y2="515.44"/><line class="cls-7" x1="300.36" y1="515.08" x2="300.48" y2="515.26"/><line class="cls-7" x1="300.18" y1="515.08" x2="300.36" y2="515.08"/><line class="cls-7" x1="300.18" y1="515.26" x2="300.18" y2="515.08"/><line class="cls-7" x1="300.36" y1="515.44" x2="300.18" y2="515.26"/><line class="cls-7" x1="300.48" y1="515.44" x2="300.36" y2="515.44"/><polyline class="cls-7" points="300.72 515.5 300.72 515.26 300.66 515.14 300.6 515.02 300.36 514.78 300.3 514.78 300.18 514.72 300.12 514.72 300.06 514.78 300 514.78 299.94 514.9 299.94 515.2 300 515.32 300.06 515.38 300.18 515.62 300.3 515.68 300.36 515.74 300.42 515.74 300.54 515.8 300.6 515.74 300.66 515.74 300.72 515.68 300.72 515.5"/><path class="cls-7" d="M300.36,514.72a.18.18,0,0,0-.24,0"/><path class="cls-7" d="M300.72,515.68c.06,0,.06-.06.12-.18"/><line class="cls-7" x1="300.42" y1="515.26" x2="300.42" y2="515.26"/><path class="cls-7" d="M300.36,515.14a.21.21,0,0,1,.06.12"/><line class="cls-7" x1="300.48" y1="515.32" x2="300.36" y2="515.44"/><line class="cls-7" x1="300.36" y1="515.14" x2="300.36" y2="515.08"/><line class="cls-7" x1="300.36" y1="515.14" x2="300.18" y2="515.26"/><line class="cls-7" x1="300.42" y1="515.26" x2="300.36" y2="515.14"/><line class="cls-7" x1="300.48" y1="515.32" x2="300.42" y2="515.26"/><polyline class="cls-7" points="298.38 514.12 298.38 513.94 298.2 513.58 298.08 513.52 297.96 513.4 297.72 513.4 297.6 513.52 297.6 513.82 297.78 514.18 297.84 514.24 297.96 514.3 298.08 514.42 298.26 514.42 298.38 514.3 298.38 514.12"/><path class="cls-7" d="M298,513.4a.18.18,0,0,0-.24,0"/><path class="cls-7" d="M298.38,514.36c.06-.06.06-.12.06-.24"/><line class="cls-7" x1="298.14" y1="513.88" x2="298.14" y2="514.06"/><line class="cls-7" x1="298.02" y1="513.7" x2="298.14" y2="513.88"/><line class="cls-7" x1="297.84" y1="513.76" x2="298.02" y2="513.7"/><line class="cls-7" x1="297.84" y1="513.94" x2="297.84" y2="513.76"/><line class="cls-7" x1="298.02" y1="514.06" x2="297.84" y2="513.94"/><line class="cls-7" x1="298.14" y1="514.06" x2="298.02" y2="514.06"/><line class="cls-7" x1="298.08" y1="513.88" x2="298.08" y2="513.88"/><path class="cls-7" d="M298,513.76c0,.06.06.12.06.18"/><line class="cls-7" x1="298.14" y1="514" x2="298.02" y2="514.06"/><line class="cls-7" x1="298.02" y1="513.82" x2="298.02" y2="513.76"/><line class="cls-7" x1="298.02" y1="513.82" x2="297.84" y2="513.94"/><line class="cls-7" x1="298.08" y1="513.88" x2="298.02" y2="513.82"/><line class="cls-7" x1="298.14" y1="513.94" x2="298.08" y2="513.88"/><line class="cls-7" x1="300.48" y1="522.58" x2="300.48" y2="522.76"/><line class="cls-7" x1="300.36" y1="522.4" x2="300.48" y2="522.58"/><line class="cls-7" x1="300.18" y1="522.46" x2="300.36" y2="522.4"/><line class="cls-7" x1="300.18" y1="522.64" x2="300.18" y2="522.46"/><line class="cls-7" x1="300.36" y1="522.82" x2="300.18" y2="522.64"/><line class="cls-7" x1="300.48" y1="522.76" x2="300.36" y2="522.82"/><polyline class="cls-7" points="300.72 522.82 300.72 522.64 300.66 522.52 300.6 522.4 300.3 522.1 300.06 522.1 299.94 522.22 299.94 522.52 300 522.64 300.12 522.88 300.3 523.06 300.36 523.06 300.42 523.12 300.6 523.12 300.72 523 300.72 522.82"/><path class="cls-7" d="M300.36,522.1a.18.18,0,0,0-.24,0"/><path class="cls-7" d="M300.72,523.06a.31.31,0,0,0,.12-.24"/><line class="cls-7" x1="300.42" y1="522.64" x2="300.42" y2="522.64"/><path class="cls-7" d="M300.36,522.46c0,.06.06.12.06.18"/><line class="cls-7" x1="300.48" y1="522.7" x2="300.36" y2="522.82"/><line class="cls-7" x1="300.36" y1="522.52" x2="300.36" y2="522.46"/><line class="cls-7" x1="300.36" y1="522.52" x2="300.18" y2="522.64"/><line class="cls-7" x1="300.42" y1="522.64" x2="300.36" y2="522.52"/><line class="cls-7" x1="300.48" y1="522.64" x2="300.42" y2="522.64"/><path class="cls-7" d="M298.38,528.88v-.24c-.08-.19-.42-.74-.66-.48h-.06l-.06.06v.36l.06.06.18.36.12.06.06.06h.06l.12.06.06-.06h.06l.06-.06v-.18"/><path class="cls-7" d="M298,528.1a.18.18,0,0,0-.24,0"/><path class="cls-7" d="M298.38,529.06a.22.22,0,0,0,.06-.18"/><line class="cls-7" x1="298.14" y1="528.64" x2="298.14" y2="528.82"/><line class="cls-7" x1="298.02" y1="528.46" x2="298.14" y2="528.64"/><line class="cls-7" x1="297.84" y1="528.46" x2="298.02" y2="528.46"/><line class="cls-7" x1="297.84" y1="528.64" x2="297.84" y2="528.46"/><line class="cls-7" x1="298.02" y1="528.82" x2="297.84" y2="528.64"/><line class="cls-7" x1="298.14" y1="528.82" x2="298.02" y2="528.82"/><line class="cls-7" x1="298.08" y1="528.64" x2="298.08" y2="528.64"/><path class="cls-7" d="M298,528.46c0,.06.06.12.06.18"/><line class="cls-7" x1="298.14" y1="528.7" x2="298.02" y2="528.82"/><line class="cls-7" x1="298.02" y1="528.52" x2="298.02" y2="528.46"/><line class="cls-7" x1="298.02" y1="528.52" x2="297.84" y2="528.64"/><line class="cls-7" x1="298.08" y1="528.64" x2="298.02" y2="528.52"/><line class="cls-7" x1="298.14" y1="528.7" x2="298.08" y2="528.64"/><polyline class="cls-7" points="300.72 530.2 300.72 530.02 300.54 529.66 300.42 529.6 300.36 529.54 300.3 529.48 300.18 529.42 300.12 529.48 300.06 529.48 300 529.54 299.94 529.6 299.94 529.9 300 530.02 300.06 530.14 300.12 530.2 300.18 530.32 300.3 530.38 300.42 530.5 300.6 530.5 300.72 530.38 300.72 530.2"/><path class="cls-7" d="M300.36,529.42h-.24"/><path class="cls-7" d="M300.72,530.38c.06-.06.12-.12.12-.18"/><line class="cls-7" x1="300.48" y1="529.96" x2="300.48" y2="530.14"/><line class="cls-7" x1="300.36" y1="529.78" x2="300.48" y2="529.96"/><line class="cls-7" x1="300.18" y1="529.84" x2="300.36" y2="529.78"/><line class="cls-7" x1="300.18" y1="530.02" x2="300.18" y2="529.84"/><line class="cls-7" x1="300.36" y1="530.14" x2="300.18" y2="530.02"/><line class="cls-7" x1="300.48" y1="530.14" x2="300.36" y2="530.14"/><line class="cls-7" x1="300.42" y1="529.96" x2="300.42" y2="529.96"/><path class="cls-7" d="M300.36,529.84a.21.21,0,0,0,.06.12"/><line class="cls-7" x1="300.48" y1="530.08" x2="300.36" y2="530.14"/><line class="cls-7" x1="300.36" y1="529.9" x2="300.36" y2="529.84"/><line class="cls-7" x1="300.36" y1="529.9" x2="300.18" y2="530.02"/><line class="cls-7" x1="300.42" y1="529.96" x2="300.36" y2="529.9"/><line class="cls-7" x1="300.48" y1="530.02" x2="300.42" y2="529.96"/><polyline class="cls-7" points="303.72 455.98 303.18 456.28 303.18 499.96"/><path class="cls-7" d="M303,500.26a.33.33,0,0,0,.18-.3"/><line class="cls-7" x1="302.1" y1="500.8" x2="303" y2="500.26"/><line class="cls-7" x1="302.1" y1="500.8" x2="302.1" y2="500.86"/><line class="cls-7" x1="302.1" y1="509.92" x2="302.1" y2="500.86"/><line class="cls-7" x1="301.56" y1="509.74" x2="301.74" y2="509.86"/><line class="cls-7" x1="303.72" y1="499.6" x2="303.18" y2="499.96"/><path class="cls-7" d="M303.72,499.6V455.86"/><line class="cls-7" x1="303.72" y1="455.8" x2="303.72" y2="455.86"/><line class="cls-7" x1="303.72" y1="499.6" x2="303.72" y2="499.54"/><line class="cls-7" x1="303.72" y1="455.86" x2="303.72" y2="499.54"/><path class="cls-7" d="M303.66,499.9v-.3"/><line class="cls-7" x1="303.66" y1="499.9" x2="303" y2="500.26"/><line class="cls-7" x1="303.66" y1="499.9" x2="303.66" y2="499.9"/><line class="cls-7" x1="303" y1="500.26" x2="303.66" y2="499.9"/><polyline class="cls-7" points="303 500.26 303 500.26 302.94 500.32"/><line class="cls-7" x1="302.1" y1="500.8" x2="302.94" y2="500.32"/><path class="cls-7" d="M303.66,499.9c.06-.06.06-.06.06-.12"/><line class="cls-7" x1="303.72" y1="499.54" x2="303.72" y2="499.78"/><path class="cls-7" d="M303.66,499.9c.06-.06.06-.06.06-.12"/><line class="cls-7" x1="303.72" y1="499.78" x2="303.72" y2="499.78"/><line class="cls-7" x1="302.94" y1="500.32" x2="302.94" y2="500.38"/><line class="cls-7" x1="302.88" y1="500.38" x2="302.1" y2="500.86"/><line class="cls-7" x1="302.88" y1="509.5" x2="302.88" y2="500.38"/><line class="cls-7" x1="302.1" y1="509.92" x2="302.88" y2="509.5"/><path class="cls-7" d="M303,500.26a.19.19,0,0,0-.06.12v9.06"/><path class="cls-7" d="M302.88,509.5v-.06"/><path class="cls-7" d="M303,500.26a.19.19,0,0,0-.06.12"/><path class="cls-7" d="M344.22,476.38a.41.41,0,0,0,.24-.36"/><line class="cls-7" x1="343.02" y1="477.1" x2="344.22" y2="476.38"/><polyline class="cls-7" points="344.46 476.02 344.46 432.4 344.58 432.4"/><path class="cls-7" d="M345.12,432v-.12"/><line class="cls-7" x1="345.12" y1="432.04" x2="344.58" y2="432.34"/><line class="cls-7" x1="342.9" y1="477.1" x2="343.02" y2="477.1"/><line class="cls-7" x1="344.46" y1="476.02" x2="344.58" y2="476.02"/><line class="cls-7" x1="344.58" y1="432.34" x2="344.58" y2="476.02"/><line class="cls-7" x1="342.24" y1="477.46" x2="342.9" y2="477.1"/><path class="cls-7" d="M342.24,477.46a.31.31,0,0,0-.12.24"/><line class="cls-7" x1="342.12" y1="486.16" x2="342.12" y2="477.7"/><line class="cls-7" x1="338.46" y1="484.06" x2="342.12" y2="486.16"/><line class="cls-7" x1="338.46" y1="475.6" x2="338.46" y2="484.06"/><path class="cls-7" d="M338.46,475.6a.65.65,0,0,0-.18-.42"/><path class="cls-7" d="M340.08,484.18v.42c.11.08,0,.18.3.3h.06v-.06l.06-.06v-.42l-.06-.12v-.06l-.06-.06-.12-.06-.06-.06h-.06v.06l-.06.06v.06"/><polyline class="cls-7" points="340.08 481.72 340.08 482.02 340.08 482.14 340.14 482.2 340.14 482.26 340.2 482.38 340.26 482.38 340.38 482.44 340.44 482.44 340.44 482.38 340.5 482.38 340.5 482.26 340.5 481.96 340.5 481.9 340.44 481.78 340.44 481.72 340.38 481.66 340.26 481.6 340.14 481.6 340.08 481.66 340.08 481.72"/><polyline class="cls-7" points="340.5 450.34 340.5 450.04 340.5 449.92 340.44 449.86 340.44 449.74 340.38 449.68 340.26 449.62 340.14 449.62 340.08 449.68 340.08 449.8 340.08 450.1 340.08 450.16 340.14 450.22 340.14 450.34 340.26 450.46 340.44 450.46 340.5 450.4 340.5 450.34"/><polyline class="cls-7" points="340.5 452.8 340.5 452.44 340.5 452.38 340.44 452.32 340.44 452.2 340.38 452.14 340.26 452.08 340.14 452.08 340.08 452.14 340.08 452.2 340.08 452.56 340.08 452.62 340.14 452.68 340.14 452.8 340.26 452.92 340.44 452.92 340.5 452.86 340.5 452.8"/><polyline class="cls-7" points="340.5 467.08 340.5 466.78 340.5 466.66 340.44 466.6 340.44 466.48 340.38 466.42 340.26 466.36 340.14 466.36 340.08 466.42 340.08 466.54 340.08 466.84 340.08 466.9 340.14 466.96 340.14 467.08 340.26 467.2 340.44 467.2 340.5 467.14 340.5 467.08"/><polyline class="cls-7" points="340.5 469.54 340.5 469.24 340.5 469.12 340.44 469.06 340.44 468.94 340.38 468.88 340.26 468.82 340.14 468.82 340.08 468.88 340.08 469 340.08 469.3 340.08 469.36 340.14 469.42 340.14 469.54 340.26 469.66 340.44 469.66 340.5 469.6 340.5 469.54"/><path class="cls-7" d="M340.5,477v-.36l-.06-.06v-.12l-.06-.06-.12-.06h-.12v.06h-.06v.42c.11.2,0,.21.3.36h.06v-.06l.06-.06V477"/><path class="cls-7" d="M340.5,479.44v-.36l-.06-.12v-.06l-.06-.06-.12-.06h-.12l-.06.06v.48c.11.08,0,.18.3.3h.06v-.06l.06-.06v-.06"/><polyline class="cls-7" points="344.58 476.02 345.12 475.72 345.12 432.04"/><line class="cls-7" x1="337.62" y1="473.32" x2="337.62" y2="436.24"/><polyline class="cls-7" points="344.28 476.44 343.08 477.16 343.02 477.1"/><line class="cls-7" x1="344.28" y1="476.44" x2="344.22" y2="476.38"/><line class="cls-7" x1="343.26" y1="477.04" x2="344.1" y2="476.56"/><line class="cls-7" x1="343.26" y1="477.04" x2="343.08" y2="477.16"/><polyline class="cls-7" points="342.42 477.52 343.08 477.16 342.42 477.52"/><polyline class="cls-7" points="344.28 476.44 344.94 476.08 344.1 476.56"/><path class="cls-7" d="M344.28,476.44a.45.45,0,0,0,.3-.42"/><path class="cls-7" d="M344.94,476.08a.52.52,0,0,0,.18-.36"/><path class="cls-7" d="M342.9,477.1a.22.22,0,0,0,.18.06"/><path class="cls-7" d="M342.24,477.46a.22.22,0,0,0,.18.06"/><polyline class="cls-7" points="343.08 477.16 343.14 477.16 343.14 477.22 342.24 477.76"/><path class="cls-7" d="M342.42,477.52c-.06.06-.18.12-.18.24v8.46"/><line class="cls-7" x1="343.14" y1="486.22" x2="343.14" y2="477.22"/><line class="cls-7" x1="342.24" y1="486.22" x2="343.14" y2="486.22"/><polyline class="cls-7" points="343.26 477.04 343.26 477.1 343.14 477.22"/><line class="cls-7" x1="344.04" y1="476.62" x2="343.26" y2="477.1"/><line class="cls-7" x1="344.1" y1="476.56" x2="344.1" y2="476.62"/><line class="cls-7" x1="343.26" y1="477.1" x2="343.26" y2="486.16"/><line class="cls-7" x1="343.14" y1="486.22" x2="343.26" y2="486.22"/><line class="cls-7" x1="343.26" y1="486.16" x2="344.04" y2="485.74"/><line class="cls-7" x1="344.04" y1="476.62" x2="344.04" y2="485.74"/><line class="cls-7" x1="342.12" y1="477.7" x2="342.24" y2="477.7"/><line class="cls-7" x1="342.12" y1="486.16" x2="342.24" y2="486.16"/><path class="cls-7" d="M338.46,475.54c-.06.06-.06.06,0,.06"/><path class="cls-7" d="M338.46,484c-.06.06-.06.06,0,.06"/><line class="cls-7" x1="338.46" y1="484" x2="338.46" y2="475.54"/><line class="cls-7" x1="344.04" y1="485.8" x2="344.04" y2="485.74"/><path class="cls-7" d="M359.34,567.58c-.06,0-.12.12-.12.18v.12"/><line class="cls-7" x1="361.62" y1="566.56" x2="361.62" y2="566.5"/><polyline class="cls-7" points="359.34 567.52 361.02 566.56 357.96 564.82 358.32 564.64"/><path class="cls-7" d="M361.56,566.5l-3.24-1.86h-.12"/><path class="cls-7" d="M356,569.68a.11.11,0,0,0,.18,0"/><line class="cls-7" x1="353.1" y1="567.64" x2="352.8" y2="567.82"/><line class="cls-7" x1="356.1" y1="569.38" x2="353.1" y2="567.64"/><line class="cls-7" x1="357.84" y1="568.42" x2="356.1" y2="569.38"/><line class="cls-7" x1="356.22" y1="569.68" x2="356.22" y2="569.68"/><line class="cls-7" x1="356.04" y1="569.68" x2="352.8" y2="567.82"/><path class="cls-7" d="M352.68,569.5c0,.06.06.12.12.18"/><line class="cls-7" x1="352.68" y1="567.88" x2="352.68" y2="569.5"/><path class="cls-7" d="M352.8,567.82h-.12v.06"/><line class="cls-7" x1="352.8" y1="569.68" x2="354.9" y2="570.88"/><polyline class="cls-7" points="353.04 568.66 353.04 568.6 352.98 568.54 352.92 568.48 352.86 568.48 352.8 568.54 352.86 568.6 352.86 568.66 352.92 568.72 352.92 568.78 353.04 568.78 353.04 568.66"/><path class="cls-7" d="M355.14,570.34a2.27,2.27,0,0,0,0-.9v-.06l-.06-.06v-.06H355l-.06.06v.06"/><path class="cls-7" d="M354.9,570.16a1.71,1.71,0,0,0,0-.78"/><polyline class="cls-7" points="354.9 570.16 354.9 570.22 354.96 570.28 354.96 570.34 355.02 570.4 355.14 570.4 355.14 570.34"/><path class="cls-7" d="M357.9,568.42c0-.06-.06-.06-.06,0"/><line class="cls-7" x1="353.1" y1="567.64" x2="353.04" y2="567.64"/><polyline class="cls-7" points="358.08 565.24 358.38 565.24 358.44 565.3 358.44 565.42 358.08 565.42 358.08 565.36 358.02 565.36 358.08 565.3 358.08 565.24"/><polyline class="cls-7" points="353.88 567.7 353.94 567.7 354 567.64 354.06 567.7 354.12 567.7 354.18 567.76 354.18 567.88 353.82 567.88 353.82 567.76 353.88 567.7"/><path class="cls-7" d="M354.06,566.86a1.78,1.78,0,0,0,1.56,0"/><line class="cls-7" x1="356.58" y1="566.26" x2="355.62" y2="566.86"/><polyline class="cls-7" points="356.58 565.36 356.7 565.42 356.82 565.54 356.88 565.6 356.88 566.02 356.7 566.2 356.58 566.26"/><polyline class="cls-7" points="356.58 565.36 355.92 565 357.06 564.28"/><line class="cls-7" x1="360.36" y1="566.2" x2="357.06" y2="564.28"/><path class="cls-7" d="M360.36,566.8l.12-.06a.3.3,0,0,0,0-.48l-.12-.06"/><line class="cls-7" x1="356.52" y1="569.02" x2="360.36" y2="566.8"/><path class="cls-7" d="M355.5,569a1,1,0,0,0,1,0"/><line class="cls-7" x1="352.2" y1="567.1" x2="355.5" y2="569.02"/><polyline class="cls-7" points="352.2 567.1 353.34 566.44 354.06 566.86"/><polyline class="cls-7" points="358.8 566.02 358.92 565.96 358.92 566.02 359.04 566.02 359.04 566.08 358.98 566.08 358.92 566.14 358.86 566.14 358.8 566.08 358.8 566.02"/><polyline class="cls-7" points="355.14 568.12 355.38 568.12 355.38 568.18 355.32 568.24 355.14 568.24 355.14 568.12"/><line class="cls-7" x1="351.84" y1="569.86" x2="351.84" y2="567.34"/><path class="cls-7" d="M352.2,567.1a.18.18,0,0,0-.24,0c-.12.06-.12.12-.12.24"/><path class="cls-7" d="M352.2,567.34h-.12c-.06,0-.06.06-.06.12"/><line class="cls-7" x1="352.02" y1="569.98" x2="352.02" y2="567.46"/><line class="cls-7" x1="352.86" y1="567.76" x2="352.2" y2="567.34"/><line class="cls-7" x1="359.22" y1="567.76" x2="357.96" y2="568.42"/><path class="cls-7" d="M353.34,566.44a.18.18,0,0,0-.24,0"/><line class="cls-7" x1="360.6" y1="566.8" x2="360.6" y2="566.74"/><polyline class="cls-7" points="352.56 568.84 352.44 568.96 352.44 569.02 352.38 569.14 352.38 569.26 352.44 569.32 352.44 569.38"/><path class="cls-7" d="M352.68,568.6a.22.22,0,0,0-.12.3"/><polyline class="cls-7" points="352.38 568.24 352.32 568.24 352.2 568.36 352.2 568.48 352.26 568.54 352.38 568.54 352.44 568.48 352.44 568.42 352.5 568.36 352.5 568.24 352.44 568.18 352.38 568.18 352.38 568.24"/><polyline class="cls-7" points="353.82 571.24 353.88 571.18 353.82 570.58"/><line class="cls-7" x1="353.28" y1="569.98" x2="352.38" y2="570.16"/><path class="cls-7" d="M355.62,566.86a2.55,2.55,0,0,0,.12-.66v-.9"/><polyline class="cls-7" points="356.58 565.78 356.46 565.9 356.46 566.02 356.52 566.08 356.64 566.08 356.7 566.02 356.7 565.96 356.76 565.9 356.76 565.78 356.7 565.72 356.64 565.72 356.58 565.78"/><path class="cls-7" d="M355,575.14a1,1,0,0,0,.72.12"/><line class="cls-7" x1="354.66" y1="574.96" x2="355.02" y2="575.14"/><polyline class="cls-7" points="360.06 572.74 360.12 572.74 360.12 572.56 360.06 572.5 359.88 572.32"/><path class="cls-7" d="M355.8,575.26l.36-.12a6.36,6.36,0,0,0,3.78-2.1l.12-.3"/><line class="cls-7" x1="356.58" y1="565.6" x2="356.58" y2="565.36"/><path class="cls-7" d="M356.88,566a.61.61,0,0,0-.3-.36"/><path class="cls-7" d="M352.68,568.72c-.06.06-.12.06-.12.12"/><line class="cls-7" x1="360.06" y1="572.74" x2="360.06" y2="573.04"/><path class="cls-7" d="M355.8,575.26v.24l.36-.06a7,7,0,0,0,3.78-2.16l.12-.24"/><polyline class="cls-7" points="355.02 575.14 355.02 575.38 354.36 575.02"/><path class="cls-7" d="M355,575.38a1,1,0,0,0,.72.12"/><line class="cls-7" x1="352.56" y1="568.78" x2="352.56" y2="568.84"/><line class="cls-7" x1="352.68" y1="568.6" x2="352.62" y2="568.6"/><path class="cls-7" d="M355.92,565a.36.36,0,0,0-.24-.06c-.12.06-.18.18-.12.24"/><path class="cls-7" d="M355.92,565.24c-.06-.06-.06-.06-.12-.06s-.06.06-.06.12"/><line class="cls-7" x1="355.56" y1="566.08" x2="355.74" y2="566.2"/><line class="cls-7" x1="355.56" y1="566.08" x2="355.56" y2="565.18"/><line class="cls-7" x1="355.92" y1="565.24" x2="356.58" y2="565.6"/><path class="cls-7" d="M357.06,564.28a.18.18,0,0,0-.24,0"/><path class="cls-7" d="M355.32,567a2.22,2.22,0,0,0,.24-.9"/><polyline class="cls-7" points="353.88 571.18 353.64 571 353.58 570.16"/><path class="cls-7" d="M353.58,571.36a.65.65,0,0,0,.06-.3"/><path class="cls-7" d="M360.06,573v-.18"/><polyline class="cls-7" points="358.68 571.18 356.52 569.92 356.22 569.74"/><path class="cls-7" d="M356.88,569.38c-.36,0-.66.18-.66.36"/><polyline class="cls-7" points="356.88 569.38 358.68 570.46 358.68 571.18"/><line class="cls-7" x1="358.68" y1="570.46" x2="363.36" y2="567.76"/><path class="cls-7" d="M364,568.12c0-.24-.3-.42-.66-.42"/><line class="cls-7" x1="364.02" y1="568.12" x2="358.68" y2="571.18"/><line class="cls-7" x1="361.56" y1="566.68" x2="356.88" y2="569.38"/><line class="cls-7" x1="363.36" y1="567.76" x2="361.56" y2="566.68"/><polyline class="cls-7" points="358.86 569.44 358.56 569.44 358.5 569.5 358.44 569.5 358.44 569.62 358.5 569.68 358.86 569.68 358.86 569.62 358.92 569.62 358.92 569.5 358.86 569.44"/><polyline class="cls-7" points="361.68 567.82 361.62 567.76 361.62 567.7 361.68 567.64 361.8 567.58 361.92 567.58 361.98 567.64 362.04 567.64 362.1 567.7 362.1 567.76 362.04 567.82 361.98 567.82 361.92 567.88 361.74 567.88 361.68 567.82"/><polyline class="cls-7" points="360.54 568.48 360.48 568.48 360.36 568.42 360.18 568.42 360.06 568.48 360 568.48 359.94 568.54 359.88 568.6 359.88 568.66 359.94 568.72 359.94 568.78 360.06 568.84 360.54 568.84 360.66 568.72 360.66 568.6 360.6 568.54 360.54 568.48"/><line class="cls-7" x1="361.56" y1="566.56" x2="361.56" y2="566.68"/><line class="cls-7" x1="356.22" y1="570.1" x2="356.22" y2="569.74"/><polyline class="cls-7" points="360.48 568.54 360.06 568.54 359.94 568.66 359.94 568.78 360 568.78 360 568.84"/><polyline class="cls-7" points="360.54 568.84 360.54 568.78 360.6 568.72 360.6 568.66 360.48 568.54"/><path class="cls-7" d="M360.42,568.84h-.3"/><polyline class="cls-7" points="363.18 564.82 363.18 564.82 359.34 562.6 359.64 562.42"/><line class="cls-7" x1="363.18" y1="564.46" x2="359.64" y2="562.42"/><line class="cls-7" x1="363.18" y1="564.46" x2="363.18" y2="564.46"/><line class="cls-7" x1="363.18" y1="564.82" x2="363.18" y2="566.14"/><path class="cls-7" d="M361.86,565.12a2.29,2.29,0,0,0-.06-.9l-.06-.06v-.06l-.06-.06h-.06l-.06.06v.12"/><path class="cls-7" d="M361.68,564.94a1.46,1.46,0,0,0,0-.72"/><polyline class="cls-7" points="361.62 564.94 361.62 565.06 361.68 565.12 361.68 565.18 361.8 565.18 361.86 565.12"/><path class="cls-7" d="M359,564a.53.53,0,0,0,.3.48"/><line class="cls-7" x1="359.04" y1="562.78" x2="359.04" y2="563.98"/><path class="cls-7" d="M359.34,562.6c-.06,0-.12-.06-.18,0s-.12.12-.12.18"/><line class="cls-7" x1="359.34" y1="564.46" x2="362.7" y2="566.38"/><polyline class="cls-7" points="360.84 564.22 360.84 564.16 360.78 564.1 360.78 564.04 360.72 563.98 360.6 563.98 360.6 564.16 360.72 564.28 360.78 564.28 360.84 564.22"/><path class="cls-7" d="M359.64,562.42h-.18"/><path class="cls-7" d="M351.84,571.36a.61.61,0,0,0-.3.48"/><polyline class="cls-7" points="351.84 571.36 353.16 570.64 353.16 571.48"/><line class="cls-7" x1="351.54" y1="571.84" x2="351.54" y2="571.96"/><polyline class="cls-7" points="352.26 571.6 352.26 571.54 352.2 571.48 352.2 571.42 352.08 571.48 352.02 571.48 352.02 571.54 351.96 571.66 351.9 571.72 351.9 571.78"/><line class="cls-7" x1="351.9" y1="571.84" x2="351.9" y2="571.78"/><line class="cls-7" x1="352.26" y1="571.72" x2="352.26" y2="571.6"/><line class="cls-7" x1="351.48" y1="571.18" x2="351.84" y2="571.36"/><line class="cls-7" x1="351.54" y1="571.84" x2="351.24" y2="571.66"/><path class="cls-7" d="M351.48,571.18a.74.74,0,0,0-.24.48"/><line class="cls-7" x1="351.24" y1="572.02" x2="351.24" y2="571.66"/><line class="cls-7" x1="352.5" y1="570.64" x2="349.02" y2="568.6"/><line class="cls-7" x1="349.32" y1="568.42" x2="349.02" y2="568.6"/><line class="cls-7" x1="353.16" y1="570.64" x2="349.32" y2="568.42"/><line class="cls-7" x1="351.48" y1="571.18" x2="352.5" y2="570.64"/><line class="cls-7" x1="351.96" y1="571.84" x2="351.96" y2="571.6"/><polyline class="cls-7" points="351.48 570.16 351.42 570.1 351.42 570.04 351.24 570.04 351.24 570.16"/><path class="cls-7" d="M351.3,570.88a1.46,1.46,0,0,0,0-.72"/><path class="cls-7" d="M351.3,570.88V571l.06.06v.06h.06l.06.06v-.06h.06a2.6,2.6,0,0,0-.06-1"/><polyline class="cls-7" points="350.52 570.16 350.52 570.1 350.46 570.04 350.46 569.98 350.4 569.98 350.34 569.92 350.28 569.98 350.28 570.16 350.34 570.22 350.52 570.22 350.52 570.16"/><path class="cls-7" d="M349,568.6c-.06,0-.12-.06-.24,0a.22.22,0,0,0-.06.18"/><line class="cls-7" x1="349.02" y1="570.4" x2="351.24" y2="571.72"/><path class="cls-7" d="M348.72,570a.45.45,0,0,0,.3.42"/><line class="cls-7" x1="348.72" y1="568.72" x2="348.72" y2="569.98"/><path class="cls-7" d="M349.32,568.42a.11.11,0,0,0-.18,0"/><line class="cls-7" x1="354.66" y1="570.94" x2="353.7" y2="570.34"/><line class="cls-7" x1="354.12" y1="570.76" x2="354.18" y2="570.82"/><polyline class="cls-7" points="354.12 570.76 354.12 570.76 353.7 570.52 353.7 570.34"/><line class="cls-7" x1="354.18" y1="570.82" x2="354.54" y2="571"/><line class="cls-7" x1="354.18" y1="570.82" x2="354.18" y2="570.82"/><line class="cls-7" x1="353.7" y1="570.34" x2="353.64" y2="570.34"/><line class="cls-7" x1="354.24" y1="570.82" x2="354.24" y2="570.82"/><line class="cls-7" x1="354.18" y1="570.82" x2="354.18" y2="570.82"/><line class="cls-7" x1="354.18" y1="570.76" x2="354.18" y2="570.76"/><line class="cls-7" x1="354.24" y1="570.82" x2="354.24" y2="570.82"/><line class="cls-7" x1="354.18" y1="570.82" x2="354.18" y2="570.82"/><line class="cls-7" x1="354.18" y1="570.76" x2="354.18" y2="570.76"/><line class="cls-7" x1="354.18" y1="570.82" x2="354.18" y2="570.82"/><line class="cls-7" x1="354.12" y1="570.76" x2="354.12" y2="570.76"/><line class="cls-7" x1="353.94" y1="570.64" x2="354" y2="570.7"/><polyline class="cls-7" points="353.82 570.58 353.88 570.64 353.94 570.64"/><path class="cls-7" d="M353.82,570.64l.12.12h.18"/><line class="cls-7" x1="353.64" y1="570.52" x2="353.7" y2="570.52"/><line class="cls-7" x1="353.64" y1="570.52" x2="353.7" y2="570.52"/><line class="cls-7" x1="353.76" y1="570.52" x2="353.76" y2="570.52"/><line class="cls-7" x1="353.7" y1="570.52" x2="353.7" y2="570.52"/><line class="cls-7" x1="353.76" y1="570.58" x2="353.76" y2="570.58"/><line class="cls-7" x1="353.7" y1="570.52" x2="353.7" y2="570.52"/><line class="cls-7" x1="353.76" y1="570.58" x2="353.76" y2="570.58"/><line class="cls-7" x1="353.7" y1="570.52" x2="353.7" y2="570.52"/><line class="cls-7" x1="356.88" y1="565.96" x2="356.88" y2="565.96"/><polyline class="cls-7" points="356.88 565.84 356.88 565.9 356.82 565.9 356.82 565.96 356.88 565.96"/><line class="cls-7" x1="302.94" y1="456.28" x2="345.36" y2="431.8"/><line class="cls-7" x1="302.94" y1="451.96" x2="302.94" y2="456.28"/><path class="cls-7" d="M307.14,444.7l-.3.18a9.58,9.58,0,0,0-3.9,6.78v.3"/><line class="cls-7" x1="341.16" y1="425.08" x2="307.14" y2="444.7"/><path class="cls-7" d="M345.36,427.48l-.06-.3c-.09-2.36-1.8-3.29-3.9-2.28l-.24.18"/><line class="cls-7" x1="345.36" y1="431.8" x2="345.36" y2="427.48"/><line class="cls-7" x1="302.94" y1="456.28" x2="302.88" y2="456.22"/><line class="cls-7" x1="302.1" y1="500.8" x2="302.1" y2="510.88"/><path class="cls-7" d="M301.8,500.14a1.8,1.8,0,0,0-.24-.6"/><path class="cls-7" d="M302.1,510.88a2.13,2.13,0,0,0,.12-.6"/><line class="cls-7" x1="301.44" y1="509.44" x2="301.56" y2="509.62"/><line class="cls-7" x1="302.88" y1="453.22" x2="302.76" y2="453.28"/><path class="cls-7" d="M302.46,453.28a.27.27,0,0,0,.3,0"/><line class="cls-7" x1="295.86" y1="449.5" x2="302.46" y2="453.28"/><path class="cls-7" d="M295.8,449.38a.21.21,0,0,0,.06.12"/><line class="cls-7" x1="302.76" y1="453.28" x2="302.76" y2="500.14"/><path class="cls-7" d="M302.46,500.14a.27.27,0,0,0,.3,0"/><line class="cls-7" x1="302.46" y1="500.14" x2="302.46" y2="453.28"/><polyline class="cls-7" points="302.88 453.22 302.88 456.28 303.18 456.16"/><line class="cls-7" x1="302.76" y1="500.14" x2="303.18" y2="499.96"/><line class="cls-7" x1="303.18" y1="456.16" x2="303.18" y2="499.96"/><line class="cls-7" x1="301.38" y1="500.92" x2="302.34" y2="500.38"/><line class="cls-7" x1="301.38" y1="531.1" x2="301.38" y2="500.92"/><line class="cls-7" x1="300.42" y1="531.7" x2="301.38" y2="531.1"/><line class="cls-7" x1="297.9" y1="530.2" x2="300.42" y2="531.7"/><line class="cls-7" x1="296.94" y1="528.52" x2="297.9" y2="530.2"/><line class="cls-7" x1="296.94" y1="498.34" x2="296.94" y2="528.52"/><line class="cls-7" x1="295.98" y1="496.72" x2="296.94" y2="498.34"/><path class="cls-7" d="M295.8,496.36a.85.85,0,0,0,.12.36"/><line class="cls-7" x1="295.86" y1="449.5" x2="295.86" y2="496.36"/><path class="cls-7" d="M302.34,500.38c.12-.06.12-.12.12-.24"/><polyline class="cls-7" points="298.5 528.88 298.44 528.76 298.44 528.64 298.38 528.52 298.26 528.28 298.14 528.22 298.08 528.1 297.96 528.04 297.9 528.04 297.78 527.98 297.72 528.04 297.66 528.04 297.6 528.1 297.54 528.22 297.54 528.52 297.6 528.64 297.78 529 297.9 529.06 297.96 529.18 298.08 529.18 298.14 529.24 298.32 529.24 298.44 529.12 298.44 529 298.5 528.88"/><polyline class="cls-7" points="300.84 530.26 300.78 530.14 300.78 530.02 300.6 529.66 300.48 529.54 300.42 529.48 300.3 529.42 300.24 529.36 300.06 529.36 299.94 529.48 299.88 529.54 299.88 529.9 299.94 530.02 300 530.14 300.06 530.26 300.3 530.5 300.42 530.56 300.66 530.56 300.78 530.44 300.78 530.38 300.84 530.26"/><path class="cls-7" d="M298.5,514.18l-.06-.12v-.12l-.18-.36-.18-.18-.12-.06-.06-.06h-.18l-.18.18a1,1,0,0,0,.54,1h.06l.12.06.06-.06.12-.12v-.06l.06-.12"/><polyline class="cls-7" points="300.84 515.5 300.78 515.44 300.78 515.26 300.72 515.14 300.66 515.02 300.3 514.66 300 514.66 299.94 514.72 299.88 514.84 299.88 515.14 300.12 515.62 300.3 515.8 300.42 515.86 300.66 515.86 300.78 515.74 300.78 515.62 300.84 515.5"/><path class="cls-7" d="M300.84,522.88l-.06-.12v-.12l-.06-.12-.12-.24-.12-.06-.06-.12-.12-.06h-.06l-.12-.06h-.06L300,522c-.31.23,0,.7.12,1l.12.06.06.12h.12l.06.06h.12l.06-.06h.06l.06-.12V523l.06-.12"/><path class="cls-7" d="M302.64,500.5a.51.51,0,0,0,.12-.36"/><path class="cls-7" d="M302.34,500.38a.22.22,0,0,0,.3.12"/><line class="cls-7" x1="303" y1="500.26" x2="302.64" y2="500.5"/><path class="cls-7" d="M301.38,500.92a.44.44,0,0,0,.36.12"/><polyline class="cls-7" points="302.64 500.5 301.74 501.04 302.1 500.8"/><line class="cls-7" x1="303" y1="500.26" x2="302.1" y2="500.8"/><line class="cls-7" x1="301.74" y1="501.04" x2="301.74" y2="531.22"/><path class="cls-7" d="M301.38,531.1a.44.44,0,0,0,.36.12l.36-.24V500.8"/><line class="cls-7" x1="296.88" y1="498.34" x2="296.94" y2="498.34"/><path class="cls-7" d="M296.88,528.52h.06"/><line class="cls-7" x1="301.74" y1="531.22" x2="300.66" y2="531.82"/><path class="cls-7" d="M300.42,531.7a.16.16,0,0,0,.24.12"/><line class="cls-7" x1="301.02" y1="531.58" x2="300.66" y2="531.82"/><line class="cls-7" x1="302.1" y1="530.98" x2="301.02" y2="531.58"/><path class="cls-7" d="M298,530.2v.12"/><line class="cls-7" x1="344.04" y1="486.04" x2="344.04" y2="476.62"/><line class="cls-7" x1="339.3" y1="484.72" x2="339.3" y2="484.6"/><polyline class="cls-7" points="345.12 475.72 345.12 431.92 345.36 431.74 345.36 428.68 345.48 428.62"/><line class="cls-7" x1="345.48" y1="475.48" x2="345.48" y2="428.62"/><line class="cls-7" x1="345.12" y1="475.72" x2="345.48" y2="475.48"/><line class="cls-7" x1="345.36" y1="428.68" x2="345.36" y2="428.68"/><line class="cls-7" x1="345.36" y1="431.74" x2="345.36" y2="431.74"/><path class="cls-7" d="M345.48,428.62a.06.06,0,0,0,.06-.06"/><path class="cls-7" d="M345.36,475.84a.51.51,0,0,0,.12-.36"/><line class="cls-7" x1="345.36" y1="475.84" x2="344.94" y2="476.08"/><line class="cls-7" x1="344.46" y1="476.38" x2="344.1" y2="476.56"/><line class="cls-7" x1="344.46" y1="476.38" x2="345.36" y2="475.84"/><path class="cls-7" d="M307.14,444.52l-.3.18a9.55,9.55,0,0,0-4,7l-.06.36"/><path class="cls-7" d="M302.46,452.08a.27.27,0,0,0,.3,0"/><path class="cls-7" d="M302.46,452.08v-.36a10.5,10.5,0,0,1,4.2-7.32l.3-.18"/><path class="cls-7" d="M307.14,444.52a.33.33,0,0,0-.18-.3"/><line class="cls-7" x1="295.86" y1="448.24" x2="302.46" y2="452.08"/><path class="cls-7" d="M300.42,440.44l-.3.18a10.08,10.08,0,0,0-4.26,7.32v.3"/><line class="cls-7" x1="306.96" y1="444.22" x2="300.42" y2="440.44"/><line class="cls-7" x1="308.22" y1="443.92" x2="307.14" y2="444.52"/><path class="cls-7" d="M308.22,443.92V444l-1.08.6-.3.18a9.59,9.59,0,0,0-4,6.84V452"/><line class="cls-7" x1="302.88" y1="453.22" x2="302.88" y2="452.02"/><line class="cls-7" x1="302.76" y1="452.08" x2="302.76" y2="453.28"/><line class="cls-7" x1="302.46" y1="453.28" x2="302.46" y2="452.08"/><line class="cls-7" x1="306.96" y1="444.22" x2="308.04" y2="443.62"/><path class="cls-7" d="M308.22,443.92a.33.33,0,0,0-.18-.3"/><line class="cls-7" x1="295.86" y1="448.24" x2="295.86" y2="449.5"/><line class="cls-7" x1="301.44" y1="439.84" x2="300.42" y2="440.44"/><line class="cls-7" x1="301.44" y1="439.84" x2="308.04" y2="443.62"/><path class="cls-7" d="M301.44,439.84c0-.06-.06-.06-.12,0"/><path class="cls-7" d="M341.16,424.9l-1.08.6a.33.33,0,0,0-.18-.3l1.08-.6"/><path class="cls-7" d="M341.16,424.9a.33.33,0,0,0-.18-.3"/><path class="cls-7" d="M333.3,421.42h-.12"/><line class="cls-7" x1="339.9" y1="425.2" x2="333.3" y2="421.42"/><line class="cls-7" x1="340.08" y1="425.5" x2="340.08" y2="425.62"/><line class="cls-7" x1="345.48" y1="428.62" x2="345.48" y2="427.42"/><line class="cls-7" x1="345.36" y1="428.68" x2="345.36" y2="427.48"/><path class="cls-7" d="M341.16,425l.24-.18c2.17-1,3.82-.11,4,2.28v.36"/><line class="cls-7" x1="340.08" y1="425.62" x2="341.16" y2="425.02"/><path class="cls-7" d="M345.48,427.42v-.36c-.15-2.46-1.9-3.37-4.08-2.34l-.24.18"/><line class="cls-7" x1="334.38" y1="420.82" x2="333.3" y2="421.42"/><line class="cls-7" x1="334.38" y1="420.82" x2="340.98" y2="424.6"/><line class="cls-7" x1="344.16" y1="424.3" x2="344.16" y2="424.3"/><polyline class="cls-7" points="343.86 424.54 343.86 424.6 343.98 424.72"/><line class="cls-7" x1="340.08" y1="425.5" x2="308.22" y2="443.92"/><line class="cls-7" x1="308.04" y1="443.62" x2="339.9" y2="425.2"/><line class="cls-7" x1="340.08" y1="425.62" x2="308.22" y2="444.04"/><path class="cls-7" d="M317.52,431.56l-.18.18-.06.18a1.19,1.19,0,0,0,.12,1.38l.12.18.18.18a4.68,4.68,0,0,0,2.16.9h1c1.4.14,4.27-1,3.18-2.76l-.06-.18-.12-.06"/><path class="cls-7" d="M311.58,569.08l-.24-.06a1.89,1.89,0,0,0-2,.6l-.12.18-8.76-5-2.88-3.48-1.14-.66"/><line class="cls-7" x1="296.4" y1="509.44" x2="296.4" y2="560.62"/><path class="cls-7" d="M305.28,516a6.92,6.92,0,0,0-1.68-2.46"/><path class="cls-7" d="M307.62,525l-.12-.66a30.92,30.92,0,0,0-1.92-7.62l-.3-.66"/><path class="cls-7" d="M308.16,555l.12-1.92a193.45,193.45,0,0,0-.48-26l-.18-2"/><polyline class="cls-7" points="308.16 554.98 310.44 558.4 313.74 564.58"/><path class="cls-7" d="M314.16,566.8a9.09,9.09,0,0,0-.42-2.22"/><line class="cls-7" x1="314.16" y1="566.8" x2="323.1" y2="571.96"/><line class="cls-7" x1="323.1" y1="574.42" x2="323.1" y2="571.96"/><line class="cls-7" x1="313.74" y1="569.02" x2="323.1" y2="574.42"/><line class="cls-7" x1="313.74" y1="569.02" x2="313.74" y2="568.48"/><path class="cls-7" d="M313.74,568.48l-.12.18a1.75,1.75,0,0,1-1.8.48l-.24-.06"/><path class="cls-7" d="M320.82,483.4l-.24-.36a7.26,7.26,0,0,0-3.3-2.58l-.3-.12"/><polyline class="cls-7" points="321.24 485.14 321.3 485.02 321.3 484.9 321.36 484.78 321.36 484.6 321.3 484.42 321.3 484.24 321.24 484.06 321.12 483.88 321.06 483.7 320.94 483.52 320.82 483.4"/><path class="cls-7" d="M316,491.08l.36-.6a16.19,16.19,0,0,1,4.32-4.92l.54-.42"/><path class="cls-7" d="M312.36,488.56l.18.3c.61,1,2,2.6,3.3,2.28l.18-.06"/><path class="cls-7" d="M317,480.34l-.36.06c-3.71.63-4.52,4.47-4.32,7.68l.06.48"/><path class="cls-7" d="M337.8,473.56l-.24-.36a8.2,8.2,0,0,0-3.24-2.58l-.3-.06"/><line class="cls-7" x1="337.8" y1="473.56" x2="320.82" y2="483.4"/><line class="cls-7" x1="334.02" y1="470.56" x2="316.98" y2="480.34"/><path class="cls-7" d="M338.22,475.36l.06-.12a1.58,1.58,0,0,0-.36-1.5l-.12-.18"/><line class="cls-7" x1="338.22" y1="475.36" x2="321.24" y2="485.14"/><path class="cls-7" d="M333.06,481.3l.3-.6a17.07,17.07,0,0,1,4.32-5l.54-.36"/><polyline class="cls-7" points="333.06 481.3 326.7 484.96 322.44 487.42 316.02 491.08"/><line class="cls-7" x1="367.74" y1="506.74" x2="370.02" y2="508.06"/><path class="cls-7" d="M370,508.12a2.69,2.69,0,0,1-.06.66c-.06.24-.06.48-.12.72a4.05,4.05,0,0,1-.12.84c-.06.24-.12.54-.18.78s-.18.6-.24.9-.18.6-.3.9l-.3,1c-.69,2.32-1.59,4.58-2.28,6.9l-.3,1a8,8,0,0,1-.3,1.14c-.06.36-.18.78-.24,1.14a6.37,6.37,0,0,0-.24,1.14,8.18,8.18,0,0,0-.24,1,4.63,4.63,0,0,1-.12.9c0,.3-.06.6-.06.9a4.25,4.25,0,0,1-.06.84,3.39,3.39,0,0,0,0,.78l-1.68-.9v-.84a4,4,0,0,1,.06-.84c.06-.3.06-.6.12-.9a16256911683851.89,16256911683851.89,0,0,0,.24-1.8l.18-.9a7.46,7.46,0,0,1,.24-1,5,5,0,0,1,.24-.9,4.5,4.5,0,0,1,.24-1l.24-1c.58-1.84,1.18-3.74,1.74-5.58l.3-1.08c.12-.3.18-.66.3-1l.18-.9a7.46,7.46,0,0,0,.24-1c.06-.3.06-.6.12-.9s.06-.54.12-.84v-1.74"/><path class="cls-7" d="M370,559.66v.42c-.09,3.5-2.13,6.67-4.68,8.94l-.48.48V567"/><line class="cls-7" x1="364.86" y1="529.6" x2="364.86" y2="567.04"/><path class="cls-7" d="M370,508.06v-.54c.11-3.33-1.7-6.39-4-8.7l-.48-.48"/><path class="cls-7" d="M363.78,523.54V499.18l.48.42a11.68,11.68,0,0,1,3.42,6.66l.06.48"/><line class="cls-7" x1="363.18" y1="528.7" x2="363.18" y2="566.08"/><path class="cls-7" d="M334,470.56a4.75,4.75,0,0,0-2,.6"/><path class="cls-7" d="M305.28,516h.42a14.66,14.66,0,0,0,3.12-1.2l.36-.18"/><path class="cls-7" d="M309.18,514.54l.36.78a36.81,36.81,0,0,1,2.22,8.58l.06.78"/><path class="cls-7" d="M307.62,525l.18.06a5.44,5.44,0,0,0,3.84-.24l.18-.12"/><path class="cls-7" d="M303.6,513.58v-.24a.39.39,0,0,1,.12-.3c.06-.06.06-.24.12-.42s.12-.3.18-.42a1.5,1.5,0,0,0,.24-.42,2.54,2.54,0,0,1,.3-.42,2.61,2.61,0,0,1,.36-.42l.3-.3a1.59,1.59,0,0,1,.36-.3l.36-.24"/><path class="cls-7" d="M309.18,514.54A11.05,11.05,0,0,0,306,510.1"/><line class="cls-7" x1="346.92" y1="492.76" x2="309.18" y2="514.54"/><path class="cls-7" d="M349.56,502.9l-.06-.72a36.9,36.9,0,0,0-2.28-8.64l-.3-.78"/><line class="cls-7" x1="349.56" y1="502.9" x2="311.82" y2="524.68"/><line class="cls-7" x1="322.86" y1="500.32" x2="306" y2="510.1"/><path class="cls-7" d="M322.86,500.32l.72-.12.6-.18.84-.36.18-.12"/><path class="cls-7" d="M325.2,499.48l.24-.06.36-.24.3-.3.36-.36a2.1,2.1,0,0,0,.3-.48"/><line class="cls-7" x1="343.74" y1="488.32" x2="326.82" y2="498.04"/><path class="cls-7" d="M346.92,492.76a10.66,10.66,0,0,0-3.18-4.44"/><line class="cls-7" x1="363.18" y1="566.08" x2="364.86" y2="567.04"/><path class="cls-7" d="M282.18,496.3a5.94,5.94,0,0,0-3.36,1"/><path class="cls-7" d="M296.88,507.58a3.9,3.9,0,0,0-.48,1.86"/><polyline class="cls-7" points="296.88 506.38 296.22 505.96 295.86 506.44 295.74 506.68 295.62 506.92 295.5 507.22 295.26 507.7 295.2 507.94 295.2 508.24 295.14 508.48 295.14 508.72 278.82 499.3"/><path class="cls-7" d="M278.22,497.68c0,.12.12.3.12.42a3.82,3.82,0,0,1,.12.42l.18.36c.06.12.12.3.18.42"/><line class="cls-7" x1="278.82" y1="497.26" x2="278.28" y2="497.68"/><path class="cls-7" d="M326.82,498c.06-.12.18-.24.18-.36a1.31,1.31,0,0,0,.18-.3c0-.18.06-.3.06-.42v-.18"/><path class="cls-7" d="M314.52,497v.24a.76.76,0,0,0,.06.36,3.82,3.82,0,0,0,.12.42,1.26,1.26,0,0,1,.24.36c.12.12.18.24.3.36l.36.36a1.82,1.82,0,0,0,.42.3,3.35,3.35,0,0,1,.48.3l.54.24a9,9,0,0,0,5.22.54l.66-.06"/><path class="cls-7" d="M311.82,524.68l.18,2a189.09,189.09,0,0,1,.42,28.32l-.12,1.8-.36.18c-.12,0-.24.06-.36.06h-.36l-.42-.06a.85.85,0,0,1-.36-.12l-.42-.18a2.11,2.11,0,0,1-.48-.3,1.82,1.82,0,0,1-.42-.3,6.42,6.42,0,0,1-.84-1l-.12-.18"/><path class="cls-7" d="M350,535l.12-1.8a200.38,200.38,0,0,0-.42-28.32l-.18-2"/><line class="cls-7" x1="350.04" y1="535" x2="312.3" y2="556.78"/><line class="cls-7" x1="340.26" y1="485.56" x2="363.78" y2="499.18"/><line class="cls-7" x1="340.26" y1="485.56" x2="340.62" y2="485.38"/><line class="cls-7" x1="365.58" y1="498.34" x2="344.16" y2="485.98"/><path class="cls-7" d="M356.64,571.78l-.78.3a50.31,50.31,0,0,1-32,.18l-.78-.3"/><polyline class="cls-7" points="314.16 566.8 315.72 565.9 324.48 570.94"/><path class="cls-7" d="M355,570.82l-.72.24a46.07,46.07,0,0,1-29,.12l-.78-.24"/><line class="cls-7" x1="363.18" y1="566.08" x2="361.98" y2="566.8"/><line class="cls-7" x1="356.52" y1="569.92" x2="355.02" y2="570.82"/><line class="cls-7" x1="364.86" y1="567.04" x2="363.6" y2="567.76"/><line class="cls-7" x1="358.2" y1="570.88" x2="356.64" y2="571.78"/><path class="cls-7" d="M356.64,574.24l-.78.24a49.38,49.38,0,0,1-32,.18l-.78-.24"/><line class="cls-7" x1="356.64" y1="574.24" x2="356.64" y2="571.78"/><path class="cls-7" d="M321.18,495.16v-.66a19.13,19.13,0,0,1,1-6.6l.24-.48"/><path class="cls-7" d="M321.54,496.42a5,5,0,0,0-.36-1.26"/><path class="cls-7" d="M321.54,496.42l-.72-1.08-.24-.3c-.18-.18-.3-.36-.48-.54s-.3-.3-.48-.42-.36-.3-.48-.42l-.48-.24-.84-.36c-.18,0-.3-.06-.42-.06H317"/><path class="cls-7" d="M317.58,492.4a1.47,1.47,0,0,0-.66.54"/><path class="cls-7" d="M317.58,492.4c.24-.84.48-1.68.66-2.52"/><path class="cls-7" d="M325.44,492.7V492a18.53,18.53,0,0,1,1-6.54l.24-.54"/><polyline class="cls-7" points="325.44 492.7 323.34 493.96 321.18 495.16"/><line class="cls-7" x1="296.22" y1="559.3" x2="296.4" y2="559.36"/><line class="cls-7" x1="296.22" y1="559.3" x2="296.22" y2="505.96"/><polyline class="cls-7" points="296.22 559.3 295.14 559.9 295.14 508.72"/><polyline class="cls-7" points="295.14 559.9 289.32 556.54 284.58 555.94 278.82 552.58"/><line class="cls-7" x1="278.82" y1="499.3" x2="278.82" y2="552.58"/><path class="cls-7" d="M323.34,494l-.3.18c-.12.06-.18.18-.24.24l-.24.24-.54.9-.24.42-.24.48"/><path class="cls-7" d="M325.8,494l-.72-.24-.42-.06h-.78a1.11,1.11,0,0,0-.42.12l-.12.06"/><path class="cls-7" d="M325.8,494a4.77,4.77,0,0,0-.36-1.32"/><line class="cls-7" x1="350.82" y1="535.12" x2="354.12" y2="541.24"/><line class="cls-7" x1="350.46" y1="534.64" x2="350.82" y2="535.12"/><path class="cls-7" d="M350.46,534.64l.18-1.92a201.36,201.36,0,0,0-.42-28.08l-.18-2-.12-.78a33.19,33.19,0,0,0-2.22-8.58l-.3-.78a12.12,12.12,0,0,0-3.18-4.38l-4-2.34"/><line class="cls-7" x1="340.26" y1="485.56" x2="340.26" y2="485.74"/><path class="cls-7" d="M354.12,545.68v-.54a3,3,0,0,0,.36-1"/><path class="cls-7" d="M354.48,544.06a7.46,7.46,0,0,0-.36-2.82"/><line class="cls-7" x1="354.12" y1="545.68" x2="363.18" y2="550.96"/><line class="cls-7" x1="364.86" y1="569.5" x2="356.64" y2="574.24"/><line class="cls-7" x1="319.86" y1="474.52" x2="319.86" y2="473.5"/><path class="cls-7" d="M278.22,497.68c0,.06-.06.12-.06.18"/><path class="cls-7" d="M278.82,552.58l-.18-.06a2.59,2.59,0,0,1-.48-.66v-.18"/><line class="cls-7" x1="314.4" y1="556.12" x2="310.44" y2="558.4"/><line class="cls-7" x1="317.7" y1="562.3" x2="314.4" y2="556.12"/><line class="cls-7" x1="317.7" y1="562.3" x2="313.74" y2="564.58"/><line class="cls-7" x1="350.82" y1="535.12" x2="348.42" y2="536.5"/><line class="cls-7" x1="348.3" y1="536.26" x2="348.42" y2="536.5"/><line class="cls-7" x1="348.3" y1="536.26" x2="314.28" y2="555.94"/><line class="cls-7" x1="314.4" y1="556.12" x2="314.28" y2="555.94"/><path class="cls-7" d="M350.46,534.64a1.4,1.4,0,0,1-.42.42"/><path class="cls-7" d="M318.12,565.06a6.28,6.28,0,0,0-.36-2.76"/><path class="cls-7" d="M317.16,566.68l.12-.06a2,2,0,0,0,.78-1.26v-.3"/><line class="cls-7" x1="347.16" y1="536.92" x2="347.16" y2="547.9"/><line class="cls-7" x1="318.12" y1="564.64" x2="347.16" y2="547.9"/><polyline class="cls-7" points="346.92 492.76 347.16 492.64 347.4 492.46"/><path class="cls-7" d="M349.56,502.9a2.5,2.5,0,0,0,.48-.36"/><polyline class="cls-7" points="343.74 488.32 343.98 488.14 344.22 488.08"/><line class="cls-7" x1="310.74" y1="568.9" x2="309.18" y2="569.8"/><path class="cls-7" d="M336.84,483.4a1,1,0,0,0-.78-.42l1.2.72"/><path class="cls-7" d="M337.74,483.82l-.48-.18"/><line class="cls-7" x1="348.42" y1="536.5" x2="351.72" y2="542.62"/><path class="cls-7" d="M352.08,545.44a5.66,5.66,0,0,0-.36-2.82"/><path class="cls-7" d="M352.08,545.44l-.06.3a1.68,1.68,0,0,1-2.22,1.44l-.24-.06-.24-.06a1.83,1.83,0,0,0-2,.66l-.12.18"/><line class="cls-7" x1="354.12" y1="541.24" x2="351.72" y2="542.62"/><line class="cls-7" x1="354.48" y1="544.06" x2="352.08" y2="545.44"/><line class="cls-7" x1="348.72" y1="547" x2="347.16" y2="547.9"/><polyline class="cls-7" points="224.88 508 229.38 505.36 237.18 507.4 278.16 531.04"/><line class="cls-7" x1="228.36" y1="512.44" x2="278.16" y2="541.18"/><line class="cls-7" x1="224.88" y1="508" x2="228.36" y2="512.44"/><line class="cls-7" x1="228.36" y1="515.8" x2="228.36" y2="512.44"/><line class="cls-7" x1="228.36" y1="515.8" x2="278.16" y2="544.54"/><line class="cls-7" x1="248.34" y1="500.92" x2="278.16" y2="518.2"/><line class="cls-7" x1="244.8" y1="496.48" x2="248.34" y2="500.92"/><polyline class="cls-7" points="244.8 496.48 249.36 493.9 257.1 495.88 278.16 508.06"/><line class="cls-7" x1="248.34" y1="504.34" x2="248.34" y2="500.92"/><line class="cls-7" x1="248.34" y1="504.34" x2="278.16" y2="521.56"/><polyline class="cls-7" points="224.88 508 224.88 511.36 228.36 515.8"/><polyline class="cls-7" points="244.8 496.48 244.8 499.84 248.34 504.34"/><line class="cls-7" x1="317.28" y1="429.52" x2="317.28" y2="429.4"/><path class="cls-7" d="M324.18,430.48v.12a.18.18,0,0,1,0,.24.54.54,0,0,1-.06.3c-.06.06-.12.18-.18.24a.83.83,0,0,1-.18.24c-.06.12-.18.18-.24.24l-.3.18"/><path class="cls-7" d="M323.16,432l-.36.18a5.3,5.3,0,0,1-4.92-.36l-.24-.24c-.06-.06-.18-.12-.24-.24s-.06-.18-.12-.24a.54.54,0,0,1-.06-.3.18.18,0,0,1,0-.24c-.06-.06-.06-.12,0-.12"/><path class="cls-7" d="M318.36,428.2l.48-.24.24-.06a5.24,5.24,0,0,1,3.66.18l.18.12.24.12.18.12a1.48,1.48,0,0,1,.54.78l.06.18v.36l-.06.12-.06.18-.12.18-.12.12-.12.18-.36.24-.24.18-.24.06-.24.12a3.65,3.65,0,0,1-1.38.24l-.3.06-.3-.06a2.68,2.68,0,0,1-1.38-.24l-.24-.06-.48-.24c-.81-.56-1.22-1.41-.48-2.22l.18-.18.36-.24"/><path class="cls-7" d="M322.26,428.62l.18.12.24.24a.82.82,0,0,1-.24,1.32l-.12.12-.18.12a3.86,3.86,0,0,1-2.52.12l-.24-.06-.36-.24-.18-.06a.94.94,0,0,1,0-1.5l.12-.12.18-.06a3.49,3.49,0,0,1,2.52-.24l.24.06.18.06.18.12"/><path class="cls-7" d="M317.52,431.5l.06.06c1.13,1.66,5.06,1.61,6.24,0l.06-.06"/><path class="cls-7" d="M323.1,432.76l-.12.12c-.91,1.23-3.75,1.2-4.68-.06v-.06"/><path class="cls-7" d="M322.56,428.92a1.59,1.59,0,0,0-.36-.3"/><path class="cls-7" d="M319.26,428.56l.18-.06a3,3,0,0,1,2.88.24l.12.06"/><path class="cls-7" d="M319.32,428.62l.3-.18a2.83,2.83,0,0,1,2.1,0l.3.12"/><path class="cls-7" d="M319.32,430.18l-.24-.18-.18-.18a.45.45,0,0,1-.12-.24.51.51,0,0,1,0-.42c0-.06.06-.12.12-.24l.18-.18.24-.18"/><path class="cls-7" d="M322,430.18l-.3.12a2.87,2.87,0,0,1-2.1,0l-.3-.12"/><path class="cls-7" d="M322,428.62l.24.12c.12.06.18.12.18.24s.12.12.12.18a.51.51,0,0,1,0,.42.31.31,0,0,1-.12.24q0,.09-.18.18l-.24.18"/><line class="cls-7" x1="320.82" y1="429.4" x2="320.7" y2="429.4"/><line class="cls-7" x1="320.58" y1="429.28" x2="320.7" y2="429.28"/><line class="cls-7" x1="317.88" y1="432.76" x2="317.94" y2="432.76"/><line class="cls-7" x1="317.58" y1="433.06" x2="317.58" y2="433"/><line class="cls-7" x1="317.58" y1="432.82" x2="317.88" y2="432.82"/><path class="cls-7" d="M317.94,432.76v.12h-.36"/><line class="cls-7" x1="322.62" y1="433.6" x2="322.62" y2="433.6"/><line class="cls-7" x1="322.68" y1="433.78" x2="322.68" y2="433.78"/><line class="cls-7" x1="323.04" y1="433.84" x2="322.68" y2="433.84"/><path class="cls-7" d="M323,433.6v.12"/><line class="cls-7" x1="322.68" y1="433.54" x2="322.98" y2="433.54"/><line class="cls-7" x1="317.94" y1="432.7" x2="317.82" y2="432.7"/><path class="cls-7" d="M317.94,432.7c.06.06.06.12.12.24"/><line class="cls-7" x1="318.06" y1="432.88" x2="318.06" y2="432.88"/><line class="cls-7" x1="318" y1="433" x2="318" y2="432.88"/><path class="cls-7" d="M317.94,433.3v-.18L318,433"/><path class="cls-7" d="M322.32,434l-.24.12a4.9,4.9,0,0,1-4-.6l-.12-.18"/><line class="cls-7" x1="322.38" y1="433.96" x2="322.32" y2="433.96"/><path class="cls-7" d="M322.5,433.78V434"/><path class="cls-7" d="M322.5,433.6v.12"/><line class="cls-7" x1="322.5" y1="433.6" x2="322.74" y2="433.42"/><line class="cls-7" x1="322.8" y1="433.42" x2="322.8" y2="433.42"/><line class="cls-7" x1="322.98" y1="433.42" x2="322.8" y2="433.42"/><line class="cls-7" x1="323.28" y1="433.42" x2="322.98" y2="433.42"/><line class="cls-7" x1="323.34" y1="433.42" x2="323.28" y2="433.42"/><path class="cls-7" d="M323.64,431.86v.06a1,1,0,0,1-.18,1.32l-.12.18"/><path class="cls-7" d="M317.76,431.86a1.21,1.21,0,0,0-.18.66"/><polyline class="cls-7" points="317.82 432.7 317.64 432.7 317.64 432.64"/><line class="cls-7" x1="317.52" y1="431.56" x2="317.52" y2="431.56"/><line class="cls-7" x1="323.82" y1="431.56" x2="323.82" y2="431.56"/><polyline class="cls-7" points="323.34 433.42 323.28 433.42 322.98 433.42"/><line class="cls-7" x1="322.8" y1="433.42" x2="322.98" y2="433.42"/><path class="cls-7" d="M322.5,433.78v-.24h.18"/><path class="cls-7" d="M322.5,433.78V434"/><path class="cls-7" d="M322.38,434h-.06l-.24.12c-1,.38-3.27.15-4-.66l-.12-.12v-.24L318,433"/><polyline class="cls-7" points="318.06 432.88 318.06 432.94 318 433"/><polyline class="cls-7" points="317.82 432.7 318 432.7 318 432.76"/><polyline class="cls-7" points="317.82 432.7 317.64 432.7 317.64 432.64"/><path class="cls-7" d="M317.76,431.86a1.21,1.21,0,0,0-.18.66"/><path class="cls-7" d="M323.64,431.86v.06a1,1,0,0,1-.18,1.32l-.12.18"/><path class="cls-7" d="M323.34,432.34a.27.27,0,0,1,0,.3.45.45,0,0,1-.12.24,1.31,1.31,0,0,1-.24.3c-.12.06-.24.18-.36.24l-.36.18a1.85,1.85,0,0,1-.48.12l-.54.12h-1l-.54-.06a4.13,4.13,0,0,1-.48-.18,2.93,2.93,0,0,1-.42-.18,1.05,1.05,0,0,1-.3-.24.47.47,0,0,1-.24-.24c-.06-.12-.12-.18-.18-.3v-.3"/><line class="cls-7" x1="322.32" y1="433.96" x2="322.32" y2="433.96"/><line class="cls-7" x1="317.94" y1="433.3" x2="317.94" y2="433.3"/><path class="cls-7" d="M318.78,433.42a2.93,2.93,0,0,1,.42.18l.48.18.48.06h1l.54-.06.42-.18a2.92,2.92,0,0,0,.42-.18,1.26,1.26,0,0,0,.36-.24c.06-.06.12-.18.24-.24s.12-.18.12-.3v-.3"/><path class="cls-7" d="M318,432.34c.06.12.06.24.12.36s.12.18.18.3.12.18.24.24a.6.6,0,0,0,.3.24"/><path class="cls-7" d="M318.12,432.52a1.33,1.33,0,0,0,.48.78"/><path class="cls-7" d="M322.8,433.24a1.11,1.11,0,0,0,.42-.72"/><line class="cls-7" x1="320.76" y1="429.4" x2="320.58" y2="429.4"/><line class="cls-7" x1="320.58" y1="429.34" x2="320.58" y2="429.34"/><polyline class="cls-7" points="322.8 433.84 322.68 433.84 322.86 433.84"/><polyline class="cls-7" points="322.92 433.6 323.04 433.6 322.8 433.6"/><polyline class="cls-7" points="322.86 433.66 322.74 433.66 322.74 433.72 322.8 433.78 322.92 433.72 322.92 433.66 322.86 433.66"/><polyline class="cls-7" points="322.62 433.54 322.68 433.54 322.8 433.48"/><line class="cls-7" x1="322.98" y1="433.42" x2="322.98" y2="433.42"/><line class="cls-7" x1="322.86" y1="433.72" x2="322.8" y2="433.72"/><line class="cls-7" x1="322.92" y1="433.72" x2="322.86" y2="433.72"/><line class="cls-7" x1="322.74" y1="433.72" x2="322.74" y2="433.66"/><line class="cls-7" x1="322.86" y1="433.66" x2="322.86" y2="433.72"/><line class="cls-7" x1="323.34" y1="433.42" x2="323.34" y2="433.42"/><line class="cls-7" x1="323.34" y1="432.64" x2="323.34" y2="432.34"/><line class="cls-7" x1="317.82" y1="432.64" x2="317.82" y2="432.64"/><polyline class="cls-7" points="318.12 432.88 318.12 432.76 317.94 432.7"/><line class="cls-7" x1="317.58" y1="432.82" x2="317.88" y2="432.82"/><line class="cls-7" x1="317.82" y1="433" x2="317.58" y2="433"/><polyline class="cls-7" points="317.82 432.94 317.82 432.88 317.76 432.88 317.64 432.88 317.64 432.94 317.7 432.94 317.82 432.94 317.76 432.94 317.64 432.94"/><line class="cls-7" x1="317.64" y1="432.88" x2="317.64" y2="432.94"/><line class="cls-7" x1="317.76" y1="432.88" x2="317.76" y2="432.94"/><line class="cls-7" x1="317.58" y1="432.52" x2="317.58" y2="432.52"/><path class="cls-8" d="M303.72,456v-.18"/><path class="cls-8" d="M302.88,509.56v-.06"/><line class="cls-8" x1="344.46" y1="432.4" x2="344.46" y2="432.28"/><line class="cls-8" x1="344.46" y1="432.4" x2="344.34" y2="432.4"/><line class="cls-8" x1="343.02" y1="433.12" x2="343.02" y2="477.1"/><path class="cls-8" d="M344.58,432.34v-.12"/><line class="cls-8" x1="342.9" y1="477.1" x2="342.9" y2="433.18"/><line class="cls-8" x1="338.34" y1="475.18" x2="338.34" y2="475.18"/><line class="cls-8" x1="337.68" y1="436.18" x2="337.68" y2="473.38"/><line class="cls-8" x1="340.26" y1="449.62" x2="340.08" y2="449.8"/><line class="cls-8" x1="340.44" y1="449.86" x2="340.08" y2="450.1"/><line class="cls-8" x1="340.26" y1="452.08" x2="340.08" y2="452.2"/><line class="cls-8" x1="340.44" y1="452.32" x2="340.08" y2="452.56"/><line class="cls-8" x1="340.26" y1="466.36" x2="340.08" y2="466.54"/><line class="cls-8" x1="340.44" y1="466.6" x2="340.08" y2="466.84"/><line class="cls-8" x1="340.26" y1="468.82" x2="340.08" y2="469"/><line class="cls-8" x1="340.44" y1="469.06" x2="340.08" y2="469.3"/><line class="cls-8" x1="340.26" y1="476.32" x2="340.08" y2="476.44"/><line class="cls-8" x1="340.44" y1="476.56" x2="340.08" y2="476.74"/><line class="cls-8" x1="338.34" y1="475.18" x2="338.28" y2="475.18"/><line class="cls-8" x1="340.26" y1="478.78" x2="340.08" y2="478.9"/><line class="cls-8" x1="340.44" y1="478.96" x2="340.08" y2="479.2"/><line class="cls-8" x1="340.26" y1="481.6" x2="340.08" y2="481.72"/><line class="cls-8" x1="340.44" y1="481.78" x2="340.08" y2="482.02"/><line class="cls-8" x1="342.24" y1="486.22" x2="342.24" y2="486.28"/><line class="cls-8" x1="343.14" y1="486.28" x2="343.14" y2="486.22"/><path class="cls-8" d="M343.2,486.22v-.06"/><path class="cls-8" d="M342.12,486.16v.06"/><path class="cls-8" d="M338.46,484.06v.06"/><line class="cls-8" x1="340.26" y1="484.06" x2="340.08" y2="484.18"/><line class="cls-8" x1="340.44" y1="484.24" x2="340.08" y2="484.48"/><line class="cls-8" x1="359.22" y1="567.76" x2="359.34" y2="567.82"/><line class="cls-8" x1="359.58" y1="567.7" x2="359.34" y2="567.52"/><line class="cls-8" x1="356.04" y1="570.22" x2="356.04" y2="569.68"/><line class="cls-8" x1="356.22" y1="569.68" x2="356.22" y2="570.1"/><line class="cls-8" x1="358.08" y1="568.54" x2="357.84" y2="568.42"/><line class="cls-8" x1="355.02" y1="569.26" x2="354.9" y2="569.32"/><line class="cls-8" x1="355.2" y1="569.98" x2="354.9" y2="570.16"/><line class="cls-8" x1="356.52" y1="569.14" x2="356.52" y2="569.02"/><line class="cls-8" x1="360.36" y1="566.8" x2="360.36" y2="566.92"/><line class="cls-8" x1="352.02" y1="567.46" x2="352.2" y2="567.34"/><line class="cls-8" x1="355.74" y1="565.3" x2="355.92" y2="565.24"/><line class="cls-8" x1="361.74" y1="564.1" x2="361.56" y2="564.22"/><line class="cls-8" x1="361.86" y1="564.76" x2="361.62" y2="564.94"/><line class="cls-8" x1="352.08" y1="571.48" x2="352.26" y2="571.6"/><line class="cls-8" x1="351.24" y1="570.16" x2="351.42" y2="570.04"/><line class="cls-8" x1="351.3" y1="570.88" x2="351.54" y2="570.76"/><line class="cls-8" x1="353.7" y1="570.16" x2="353.7" y2="570.34"/><line class="cls-8" x1="354.18" y1="570.82" x2="354.18" y2="570.82"/><line class="cls-8" x1="354.12" y1="570.76" x2="354.12" y2="570.76"/><line class="cls-8" x1="353.76" y1="570.52" x2="353.76" y2="570.52"/><line class="cls-8" x1="353.76" y1="570.58" x2="353.76" y2="570.58"/><line class="cls-8" x1="353.7" y1="570.52" x2="353.7" y2="570.52"/><line class="cls-8" x1="356.88" y1="565.96" x2="356.88" y2="566.02"/><line class="cls-8" x1="307.14" y1="444.7" x2="307.08" y2="444.7"/><line class="cls-8" x1="302.94" y1="451.96" x2="302.88" y2="451.96"/><line class="cls-8" x1="341.16" y1="425.08" x2="341.1" y2="425.02"/><path class="cls-8" d="M295.8,496.24a.21.21,0,0,0,.06.12"/><line class="cls-8" x1="295.98" y1="496.72" x2="295.98" y2="496.72"/><path class="cls-8" d="M345.48,475.48a.06.06,0,0,0,.06-.06"/><line class="cls-8" x1="344.46" y1="486.16" x2="344.46" y2="476.38"/><path class="cls-8" d="M300.42,440.44h-.12"/><line class="cls-8" x1="295.8" y1="448.18" x2="295.86" y2="448.24"/><path class="cls-8" d="M341,424.6l.3-.12a3.12,3.12,0,0,1,2.7-.3l.18.12"/><path class="cls-8" d="M345.48,427.36a.06.06,0,0,0,.06-.06"/><path class="cls-8" d="M337.56,420.52l-.18-.12a3.28,3.28,0,0,0-2.7.24l-.3.18"/><line class="cls-8" x1="345.36" y1="427.42" x2="345.36" y2="427.48"/><path class="cls-8" d="M334.38,420.82c0-.06-.06-.06-.12,0"/><line class="cls-8" x1="333.3" y1="421.42" x2="322.2" y2="427.84"/><line class="cls-8" x1="317.16" y1="430.78" x2="301.44" y2="439.84"/><line class="cls-8" x1="303.6" y1="513.58" x2="302.1" y2="512.74"/><line class="cls-8" x1="296.88" y1="509.68" x2="296.4" y2="509.44"/><line class="cls-8" x1="282.18" y1="496.3" x2="296.88" y2="504.82"/><line class="cls-8" x1="302.94" y1="508.3" x2="306" y2="510.1"/><line class="cls-8" x1="319.86" y1="474.52" x2="303.72" y2="483.88"/><line class="cls-8" x1="295.8" y1="488.44" x2="282.18" y2="496.3"/><line class="cls-8" x1="343.74" y1="488.32" x2="332.34" y2="481.72"/><line class="cls-8" x1="323.04" y1="476.32" x2="319.86" y2="474.52"/><line class="cls-8" x1="318.06" y1="565.06" x2="316.2" y2="566.14"/><path class="cls-8" d="M324.06,429.52v.18c-.23,2.55-6.59,2.54-6.78-.06v-.12"/><path class="cls-8" d="M319.2,428.62l-.18.12-.36.36-.06.12v.12l-.06.18.06.12v.12l.06.12.12.12a1.93,1.93,0,0,0,1.2.66l.24.06h.48c.8.11,2.57-.56,2-1.62l-.06-.12-.06-.06"/><path class="cls-8" d="M322.44,428.8l.12.12.06.18.06.12v.12l.06.12-.06.12c-.41,1.72-5.45,1-3.6-.9l.18-.12"/><path class="cls-8" d="M324.06,431.86a1.05,1.05,0,0,0-.24-.3"/><path class="cls-8" d="M317.52,431.56c-.06.12-.18.24-.24.36"/><path class="cls-6" d="M423.36,629l1.14-1.32c1.62,1.14,3.06,2.16,4.38,3.12l-1.26,1.44a41.11,41.11,0,0,0-4.26-3.24m.6,4.32h-6v4.86h5.64Zm-16.5,4.86h8.64v-4.86h-7.2V631.6h7.2v-3.9H418v3.9h7.92l-.42,6.6h3.18c-.06,1.74-.06,3.48-.18,5.28-.06,2.52-1.26,3.78-3.54,3.72a29.1,29.1,0,0,1-3.9-.12c-.06-.72-.18-1.38-.3-2a23.41,23.41,0,0,0,4,.42c1.26,0,1.92-.72,2-2.1.06-1.08.06-2.22.12-3.42H418v10.14H416.1V639.94h-8.64Zm-17-7.14h-3.72v5.28h3.72Zm-3.72,12.3h3.72V638h-3.72Zm16.5-13h-6.48v4.32h6.48Zm-6.6,10.32h6.6v-4.38h-6.48A34,34,0,0,1,396.66,640.72ZM385,629.38h7.2V645h-5.46v1.68H385Zm6.9,20.94a17.66,17.66,0,0,0-1.5-1.44,13.15,13.15,0,0,0,3.72-4.92,22.91,22.91,0,0,0,.84-7.2v-8.1h10.08v18.6c0,1.86-.84,2.76-2.64,2.76-1.08,0-2.4-.06-3.9-.06a10.81,10.81,0,0,0-.36-1.92c1.56.12,2.76.18,3.72.18a1.24,1.24,0,0,0,1.38-1.38V642.4h-6.84A13.79,13.79,0,0,1,391.92,650.32Zm-23.16-21.84,1.32-1a37.12,37.12,0,0,1,2.82,3.3l-1.5,1.08C370.56,630.82,369.72,629.68,368.76,628.48Zm-6.06-.78c1.2,1.2,2.34,2.46,3.6,3.78l-1.56,1.32c-1.26-1.62-2.4-2.94-3.36-4Zm4.92,15.12a15,15,0,0,0,.24,1.92c-1.2,1-2.4,1.92-3.54,2.88a8.19,8.19,0,0,0-1,1L362,647.2a2.88,2.88,0,0,0,.72-2.1v-8.22h-2.64V635.2h4.38v10.2C365.46,644.62,366.54,643.72,367.62,642.82Zm11.52-9.06h-9.66v5.34h9.66Zm1.74-1.62v9.42h-1.74v-.84H377v6c0,.84.42,1.26,1.14,1.26h1.56c.66,0,1-.36,1.14-1.08s.18-1.8.24-3a16.07,16.07,0,0,0,1.86.66c-.12,1.08-.24,2.1-.42,3.12A2.16,2.16,0,0,1,380,649.6h-2.16a2.33,2.33,0,0,1-2.64-2.64v-6.24h-2.4a12.42,12.42,0,0,1-1.14,5.64c-.84,1.44-2.52,2.7-4.92,3.78-.36-.48-.72-1-1.08-1.56a8.39,8.39,0,0,0,4.38-3.06,9.27,9.27,0,0,0,1.08-4.8h-1.68v.84H367.8v-9.42h7.14c.9-1.32,1.86-2.88,2.88-4.62l1.8,1.08c-1,1.38-1.92,2.58-2.7,3.54Zm-33.3-1.5H341.1v4.26h6.48ZM341,640.84h6.54v-4.32H341.1A34.27,34.27,0,0,1,341,640.84Zm15.12-10.2h-6.72v4.26h6.72Zm-6.72,10.2h6.72v-4.32h-6.72Zm-1.86,8.94v-7.26h-6.66a14.94,14.94,0,0,1-2.82,7.92,15.66,15.66,0,0,0-1.32-1.62,11.64,11.64,0,0,0,2-4.68,34.5,34.5,0,0,0,.54-7V628.9H358v18.3c0,1.8-.9,2.7-2.58,2.7-1.08,0-2.28,0-3.6-.06-.06-.48-.18-1.14-.36-1.92q2.07.18,3.24.18a1.26,1.26,0,0,0,1.44-1.38v-4.2h-6.72v7.26Zm-21.06-10.44c.06-.72.06-1.8.06-3.18h-4.44v3.18Zm1.74,0h4.56v-3.18h-4.44C328.38,636.7,328.32,637.78,328.26,639.34Zm-15.18-.66a36.87,36.87,0,0,0,4.74-11.1l1.74.48c-.66,2-1.32,4-2.1,5.76V650.2h-1.62v-13a35.79,35.79,0,0,1-2.1,3.36C313.5,639.88,313.26,639.28,313.08,638.68Zm8,3.84,1.56-.84a11.55,11.55,0,0,0,2.64,3.06,9.41,9.41,0,0,0,1.14-3.84h-6v-6.3h6.18v-2.28h-7.32v-1.56h7.32v-3.12h1.8v3.12h7.38v1.56h-7.38v2.28h6.18v7.32h-1.74v-1h-4.68a11.19,11.19,0,0,1-1.38,4.86,20.78,20.78,0,0,0,9.18,2.46c-.42.66-.84,1.26-1.26,1.86a22.38,22.38,0,0,1-9.18-2.94,18.32,18.32,0,0,1-5.88,3.12c-.36-.48-.72-1-1.2-1.5a17,17,0,0,0,5.64-2.7A14,14,0,0,1,321.06,642.52Zm-38.22,1.2H294v-4h-8.4v-1.68c1-1.8,2-3.6,2.82-5.34h-4.74v-1.68h5.58c.6-1.26,1.14-2.46,1.68-3.66l1.68.54c-.48,1.08-1,2.1-1.44,3.12h12.9v1.68H290.34c-1,2-1.92,3.84-2.76,5.4H294V633.7h1.8v4.44h6.66v1.62H295.8v4H305v1.68H295.8v4.86H294V645.4H282.84ZM268,633.4l1.38-1c1.26,1.56,2.34,2.88,3.18,4.08L271,637.6C269.46,635.32,268.5,633.94,268,633.4Zm8.7-2.28h-12.3a18.56,18.56,0,0,0,6.06,11.46A22.53,22.53,0,0,0,276.72,631.12Zm-15.78-1.68H278.7v1.68a25.89,25.89,0,0,1-6.78,12.66,30.82,30.82,0,0,0,10,4.14c-.54.72-1.08,1.38-1.56,2a34.76,34.76,0,0,1-9.84-4.86,34,34,0,0,1-10.14,5q-.63-.81-1.26-1.8a29.43,29.43,0,0,0,9.9-4.44,22.5,22.5,0,0,1-6.48-12.72h-1.56Zm-16,3.06,1-1.2c1.2.72,2.34,1.38,3.42,2.1l-1.08,1.38C247.14,634,246.06,633.22,244.92,632.5ZM244,638l1-1.14a36.73,36.73,0,0,1,3.72,2.4l-1.08,1.32C246.66,639.82,245.46,639,244,638Zm1.32,9.78h3.36v-4.56h-3.36Zm-5,0h3.36v-4.56H240.3Zm13.5-4.56h-3.48v4.56h3.48Zm-.6-12H241.74c0,1.5,0,2.76-.06,3.72H253.2ZM235.62,647.8h2.94v-6.06h16.92v6.06h2.82v1.5H235.62Zm.3-12.84h4a44.45,44.45,0,0,0,.12-5.22h5a21.81,21.81,0,0,0,.66-2.34l2,.48c-.24.6-.48,1.2-.78,1.86h8.1V635h3.12v1.56h-3.12v1.68c0,1.74-.78,2.64-2.28,2.64-.78,0-1.8,0-2.94-.06-.12-.54-.18-1.14-.36-1.74a20.8,20.8,0,0,0,2.64.12,1.1,1.1,0,0,0,1.2-1.26v-1.38H241.44a9.26,9.26,0,0,1-4.08,5.82,16.57,16.57,0,0,0-1.26-1.5,7.81,7.81,0,0,0,3.54-4.32h-3.72ZM212,639.88c1.2-.3,2.4-.54,3.6-.84v-5.46h-3.3V632h3.3v-4.38h1.8V632h2.22v1.56h-2.22v5c.66-.12,1.38-.36,2.1-.54-.06.78-.06,1.38-.06,1.86-.66.12-1.32.3-2,.48v6.42c0,2-.9,3-2.76,3-.54,0-1.26-.06-2.1-.06-.06-.54-.18-1.14-.3-1.8.9.06,1.62.06,2.1.06.84,0,1.26-.42,1.26-1.32v-5.88c-1.08.3-2.22.66-3.48,1Zm8.1-1.56,4.5-.54v-6.24l-4,.54a10.26,10.26,0,0,0-.54-1.8,109,109,0,0,0,12.36-1.86l.48,1.8c-2.16.36-4.32.72-6.48,1v6.36l7.86-1,.12,1.74-8,1v6.9c0,1,.54,1.44,1.68,1.44h2.64a1.62,1.62,0,0,0,1.74-1.68c.12-1,.24-2.16.3-3.42a17.5,17.5,0,0,0,1.92.66c-.18,1.68-.36,2.88-.48,3.66a2.93,2.93,0,0,1-3.24,2.58h-3.18c-2.16,0-3.24-1.08-3.24-3.12v-6.78l-4.2.48Zm-31.62,9.9c6.66-3.84,10.2-10.62,10.56-20.34h2a38.38,38.38,0,0,1-.48,4.74c1.92,7.62,5.46,12.66,10.68,15.06-.6.72-1.2,1.38-1.68,2q-6.84-3.87-9.72-13.68c-1.68,6.3-5,11-10,13.92C189.54,649.42,189.06,648.82,188.52,648.22Zm-11.4-8.28H179V646c0,1.2.54,1.8,1.68,1.8h3.12c1.08,0,1.68-.42,1.8-1.32s.24-2,.3-3.42c.54.24,1.2.42,1.92.66-.18,1.56-.3,2.7-.42,3.42-.24,1.56-1.32,2.34-3.3,2.34h-4c-2,0-3-1.08-3-3.18Zm-11.76-3.42h9a34.52,34.52,0,0,0,.6-5.34H167.1v-1.8h18.66v1.8h-8.88a43.88,43.88,0,0,1-.6,5.34H187.5v1.8H175.86c-1.14,5.16-4.32,9.18-9.6,12.06a12.71,12.71,0,0,0-1.2-1.68,16.53,16.53,0,0,0,8.88-10.38h-8.58Z"/><text class="cls-9" transform="translate(185.76 674.44)">使用前请仔细阅读使用说明书，并妥善保管</text></g></g></svg>