<svg xmlns="http://www.w3.org/2000/svg" viewBox="0 0 168.01 169.38"><defs><style>.cls-1{fill:none;stroke:#000;stroke-linecap:round;stroke-linejoin:round;stroke-width:0.43px;}</style></defs><title>资源 1</title><g id="图层_2" data-name="图层 2"><g id="_0" data-name="0"><g id="LINE"><line class="cls-1" x1="65.25" y1="99.85" x2="0.21" y2="62.3"/></g><g id="LINE-2" data-name="LINE"><line class="cls-1" x1="0.21" y1="62.3" x2="5.22" y2="53.64"/></g><g id="LINE-3" data-name="LINE"><line class="cls-1" x1="5.22" y1="53.64" x2="70.25" y2="91.18"/></g><g id="LINE-4" data-name="LINE"><line class="cls-1" x1="70.25" y1="91.18" x2="65.25" y2="99.85"/></g><g id="LINE-5" data-name="LINE"><line class="cls-1" x1="65.25" y1="169.17" x2="66.87" y2="168.23"/></g><g id="LINE-6" data-name="LINE"><line class="cls-1" x1="65.25" y1="99.85" x2="65.25" y2="169.17"/></g><g id="LINE-7" data-name="LINE"><line class="cls-1" x1="162.8" y1="37.76" x2="70.25" y2="91.18"/></g><g id="LINE-8" data-name="LINE"><line class="cls-1" x1="167.8" y1="40.64" x2="162.8" y2="37.76"/></g><g id="LINE-9" data-name="LINE"><line class="cls-1" x1="167.8" y1="109.97" x2="167.8" y2="40.64"/></g><g id="LINE-10" data-name="LINE"><line class="cls-1" x1="166.17" y1="110.9" x2="167.8" y2="109.97"/></g><g id="LINE-11" data-name="LINE"><line class="cls-1" x1="166.17" y1="105.71" x2="166.17" y2="110.9"/></g><g id="LINE-12" data-name="LINE"><line class="cls-1" x1="66.87" y1="163.04" x2="166.17" y2="105.71"/></g><g id="LINE-13" data-name="LINE"><line class="cls-1" x1="66.87" y1="168.23" x2="66.87" y2="163.04"/></g><g id="LINE-14" data-name="LINE"><line class="cls-1" x1="65.25" y1="169.17" x2="0.21" y2="131.62"/></g><g id="LINE-15" data-name="LINE"><line class="cls-1" x1="0.21" y1="62.3" x2="0.21" y2="131.62"/></g><g id="LINE-16" data-name="LINE"><line class="cls-1" x1="162.8" y1="37.76" x2="97.76" y2="0.21"/></g><g id="LINE-17" data-name="LINE"><line class="cls-1" x1="97.76" y1="0.21" x2="5.22" y2="53.64"/></g><g id="LINE-18" data-name="LINE"><line class="cls-1" x1="166.17" y1="110.9" x2="161.67" y2="108.31"/></g></g></g></svg>