<svg xmlns="http://www.w3.org/2000/svg" viewBox="0 0 362.4 101.86"><defs><style>.cls-1{font-size:7.52px;font-family:FZHTJW--GB1-0, FZHTJW -GB1-0-GBpc-EUC-H;}.cls-1,.cls-3{fill:#10386b;}.cls-2{fill:#231815;font-size:9px;}</style></defs><title>hitrobot_hrg_left_and_right_combination_English</title><g id="图层_2" data-name="图层 2"><g id="图层_1-2" data-name="图层 1"><text class="cls-1" transform="translate(169.54 99.31) scale(0.95 1)">■<tspan class="cls-2" x="7.52" y="0">左右组合</tspan></text><path class="cls-3" d="M160.68,20.21h1.24V31.47h-1.24V26.23h-6.3v5.23h-1.29V20.21h1.29v4.9h6.3Z"/><path class="cls-3" d="M169.23,20.21h1.24V31.47h-1.24Z"/><path class="cls-3" d="M185.83,20.21v1.07H182V31.47h-1.3V21.28h-3.83V20.21Z"/><path class="cls-3" d="M210.48,31.47h-1.75l-3.88-5.07h-3v5.07h-1.3V20.21h5.24q3.6.17,3.83,3,0,2.93-3.37,3.15Zm-8.61-10.13v3.94h3.66q2.76-.06,2.76-2.08-.06-1.8-2.76-1.86Z"/><path class="cls-3" d="M221.39,31.64q-5.12-.28-5.35-5.57.22-5.74,5.52-6,5,.34,5.35,5.91Q226.68,31.41,221.39,31.64Zm.06-10.47C219,21.39,217.6,23,217.34,26q.23,4.34,4,4.67,3.94-.22,4.17-4.67C225.28,23,223.93,21.39,221.45,21.17Z"/><path class="cls-3" d="M238,31.47h-4.68V20.21h4.39c2.25.11,3.45,1.05,3.6,2.81a2.51,2.51,0,0,1-2.25,2.48v.06a2.86,2.86,0,0,1,2.7,2.87Q241.59,31.36,238,31.47Zm-.56-10.13H234.5v3.77h2.93c1.54-.08,2.38-.75,2.53-2Q239.85,21.39,237.43,21.34Zm.17,4.9H234.5v4.22h3.32q2.65,0,2.64-2.19Q240.3,26.35,237.6,26.23Z"/><path class="cls-3" d="M253.35,31.64q-5.12-.28-5.35-5.57.22-5.74,5.51-6,5,.34,5.35,5.91Q258.64,31.41,253.35,31.64Zm.05-10.47c-2.47.22-3.85,1.82-4.11,4.78.15,2.89,1.48,4.45,4,4.67q3.94-.22,4.16-4.67C257.23,23,255.89,21.39,253.41,21.17Z"/><path class="cls-3" d="M273.44,20.21v1.07h-3.83V31.47h-1.29V21.28h-3.83V20.21Z"/><path class="cls-3" d="M293.36,25.67h4.84v4.11q-1.41,1.86-4.84,1.86-5.29-.28-5.57-5.63.23-5.74,5.35-6a5,5,0,0,1,5,3.32l-1.41.34a3.63,3.63,0,0,0-3.66-2.53c-2.4.22-3.71,1.82-3.94,4.78q.28,4.34,4.16,4.67A4.51,4.51,0,0,0,297,29.27V26.74h-3.6Z"/><path class="cls-3" d="M314.85,31.47h-1.74l-3.88-5.07h-3v5.07h-1.29V20.21h5.23q3.6.17,3.83,3,0,2.93-3.38,3.15Zm-8.61-10.13v3.94h3.66q2.76-.06,2.76-2.08-.06-1.8-2.76-1.86Z"/><path class="cls-3" d="M325.77,31.64q-5.12-.28-5.35-5.57.23-5.74,5.52-6,5,.34,5.35,5.91Q331.06,31.41,325.77,31.64Zm.06-10.47c-2.48.22-3.85,1.82-4.11,4.78q.22,4.34,4,4.67,3.94-.22,4.17-4.67C329.65,23,328.3,21.39,325.82,21.17Z"/><path class="cls-3" d="M346.64,20.21V26.8q.05,4.9-4.5,4.84t-4.39-4.84V20.21H339v6.53q-.06,4,3.1,3.88,3.38.11,3.27-3.88V20.21Z"/><path class="cls-3" d="M358.51,26.91H355v4.56h-1.24V20.21h4.85q3.43.17,3.77,3.32C362.36,25.75,361.07,26.87,358.51,26.91Zm-.22-5.57H355v4.45h3.27q2.7-.06,2.76-2.31Q360.93,21.39,358.29,21.34Z"/><polygon class="cls-3" points="138.96 29.39 116.28 29.39 113.65 34.52 127.26 34.52 132.13 44.36 101.91 44.36 116.98 14.03 120.89 21.86 135.18 21.86 124.22 0 108.53 0 84.63 47.88 74.4 27.52 90.85 27.52 104.55 0 55.73 0 44.5 22.37 29.07 22.37 40.28 0 24.95 0 0 49.68 15.39 49.68 26.49 27.52 41.94 27.52 30.81 49.68 46.18 49.68 68.5 5.17 87.59 5.17 78.62 22.37 63.77 22.37 60.44 29.02 70.68 49.68 149.01 49.68 138.96 29.39"/></g></g></svg>