<svg xmlns="http://www.w3.org/2000/svg" viewBox="0 0 554.65 242.47"><defs><style>.cls-1{fill:#3e3a39;}.cls-12,.cls-2{fill:#595757;}.cls-3{fill:#727171;}.cls-4{fill:#898989;}.cls-5{fill:#9fa0a0;}.cls-6{fill:#b5b5b6;}.cls-7{fill:#c9caca;}.cls-8{fill:#dcdddd;}.cls-9{fill:#efefef;}.cls-10,.cls-12{font-size:8.79px;font-family:HYg2gj, HYg2gj GBpc-EUC-H;letter-spacing:-0.05em;}.cls-10,.cls-13{fill:#fff;}.cls-11{letter-spacing:0em;}.cls-14{fill:#10386b;}</style></defs><title>hitrobot_hrg_logo_blue_white</title><g id="图层_2" data-name="图层 2"><g id="图层_1-2" data-name="图层 1"><rect class="cls-1" width="184.88" height="81.51"/><rect class="cls-2" x="184.88" width="184.89" height="81.51"/><rect class="cls-3" x="369.77" width="184.88" height="81.51"/><rect class="cls-4" y="80.48" width="184.88" height="81.51"/><rect class="cls-5" x="184.88" y="80.48" width="184.89" height="81.51"/><rect class="cls-6" x="369.77" y="80.48" width="184.88" height="81.51"/><rect class="cls-7" y="160.97" width="184.88" height="81.51"/><rect class="cls-8" x="184.88" y="160.97" width="184.89" height="81.51"/><rect class="cls-9" x="369.77" y="160.97" width="184.88" height="81.51"/><text class="cls-10" transform="translate(8.03 73.68)">90<tspan class="cls-11" x="9" y="0">%</tspan></text><text class="cls-10" transform="translate(193.96 73.68)">80<tspan class="cls-11" x="9" y="0">%</tspan></text><text class="cls-10" transform="translate(379.89 73.68)">70<tspan class="cls-11" x="9" y="0">%</tspan></text><text class="cls-10" transform="translate(8.03 153.96)">60<tspan class="cls-11" x="9" y="0">%</tspan></text><text class="cls-10" transform="translate(193.96 153.96)">50<tspan class="cls-11" x="9" y="0">%</tspan></text><text class="cls-10" transform="translate(379.89 153.96)">40<tspan class="cls-11" x="9" y="0">%</tspan></text><text class="cls-12" transform="translate(8.03 235.5)">30<tspan class="cls-11" x="9" y="0">%</tspan></text><text class="cls-12" transform="translate(193.96 235.5)">20<tspan class="cls-11" x="9" y="0">%</tspan></text><text class="cls-12" transform="translate(379.89 235.5)">10<tspan class="cls-11" x="9" y="0">%</tspan></text><polygon class="cls-13" points="120.16 41.04 108.56 41.04 107.22 43.66 114.18 43.66 116.67 48.7 101.22 48.7 108.92 33.19 110.92 37.19 118.23 37.19 112.63 26.02 104.6 26.02 92.38 50.5 87.16 40.09 95.56 40.09 102.57 26.02 77.61 26.02 71.87 37.45 63.98 37.45 69.71 26.02 61.87 26.02 49.12 51.42 56.98 51.42 62.66 40.09 70.56 40.09 64.86 51.42 72.73 51.42 84.14 28.66 93.9 28.66 89.31 37.45 81.72 37.45 80.02 40.86 85.25 51.42 125.3 51.42 120.16 41.04"/><polygon class="cls-13" points="304.69 41.04 293.1 41.04 291.75 43.66 298.71 43.66 301.2 48.7 285.75 48.7 293.45 33.19 295.45 37.19 302.76 37.19 297.15 26.02 289.13 26.02 276.91 50.5 271.69 40.09 280.09 40.09 287.1 26.02 262.14 26.02 256.4 37.45 248.51 37.45 254.24 26.02 246.4 26.02 233.65 51.42 241.51 51.42 247.19 40.09 255.09 40.09 249.4 51.42 257.26 51.42 268.66 28.66 278.43 28.66 273.84 37.45 266.25 37.45 264.55 40.86 269.78 51.42 309.83 51.42 304.69 41.04"/><polygon class="cls-13" points="494.33 41.04 482.73 41.04 481.39 43.66 488.35 43.66 490.84 48.7 475.38 48.7 483.09 33.19 485.09 37.19 492.4 37.19 486.79 26.02 478.77 26.02 466.55 50.5 461.33 40.09 469.73 40.09 476.74 26.02 451.78 26.02 446.04 37.45 438.15 37.45 443.88 26.02 436.04 26.02 423.29 51.42 431.15 51.42 436.83 40.09 444.73 40.09 439.03 51.42 446.9 51.42 458.3 28.66 468.07 28.66 463.48 37.45 455.89 37.45 454.19 40.86 459.42 51.42 499.47 51.42 494.33 41.04"/><polygon class="cls-13" points="120.16 122.2 108.56 122.2 107.22 124.82 114.18 124.82 116.67 129.85 101.22 129.85 108.92 114.35 110.92 118.35 118.23 118.35 112.63 107.18 104.6 107.18 92.38 131.66 87.16 121.25 95.56 121.25 102.57 107.18 77.61 107.18 71.87 118.61 63.98 118.61 69.71 107.18 61.87 107.18 49.12 132.57 56.98 132.57 62.66 121.25 70.56 121.25 64.86 132.57 72.73 132.57 84.14 109.81 93.9 109.81 89.31 118.61 81.72 118.61 80.02 122.01 85.25 132.57 125.3 132.57 120.16 122.2"/><polygon class="cls-13" points="304.69 122.2 293.1 122.2 291.75 124.82 298.71 124.82 301.2 129.85 285.75 129.85 293.45 114.35 295.45 118.35 302.76 118.35 297.15 107.18 289.13 107.18 276.91 131.66 271.69 121.25 280.09 121.25 287.1 107.18 262.14 107.18 256.4 118.61 248.51 118.61 254.24 107.18 246.4 107.18 233.65 132.57 241.51 132.57 247.19 121.25 255.09 121.25 249.4 132.57 257.26 132.57 268.66 109.81 278.43 109.81 273.84 118.61 266.25 118.61 264.55 122.01 269.78 132.57 309.83 132.57 304.69 122.2"/><polygon class="cls-13" points="494.33 122.2 482.73 122.2 481.39 124.82 488.35 124.82 490.84 129.85 475.38 129.85 483.09 114.35 485.09 118.35 492.4 118.35 486.79 107.18 478.77 107.18 466.55 131.66 461.33 121.25 469.73 121.25 476.74 107.18 451.78 107.18 446.04 118.61 438.15 118.61 443.88 107.18 436.04 107.18 423.29 132.57 431.15 132.57 436.83 121.25 444.73 121.25 439.03 132.57 446.9 132.57 458.3 109.81 468.07 109.81 463.48 118.61 455.89 118.61 454.19 122.01 459.42 132.57 499.47 132.57 494.33 122.2"/><polygon class="cls-14" points="120.16 204.3 108.56 204.3 107.22 206.92 114.18 206.92 116.67 211.95 101.22 211.95 108.92 196.45 110.92 200.45 118.23 200.45 112.63 189.28 104.6 189.28 92.38 213.76 87.16 203.34 95.56 203.34 102.57 189.28 77.61 189.28 71.87 200.71 63.98 200.71 69.71 189.28 61.87 189.28 49.12 214.67 56.98 214.67 62.66 203.34 70.56 203.34 64.86 214.67 72.73 214.67 84.14 191.91 93.9 191.91 89.31 200.71 81.72 200.71 80.02 204.11 85.25 214.67 125.3 214.67 120.16 204.3"/><polygon class="cls-14" points="304.69 204.3 293.1 204.3 291.75 206.92 298.71 206.92 301.2 211.95 285.75 211.95 293.45 196.45 295.45 200.45 302.76 200.45 297.15 189.28 289.13 189.28 276.91 213.76 271.69 203.34 280.09 203.34 287.1 189.28 262.14 189.28 256.4 200.71 248.51 200.71 254.24 189.28 246.4 189.28 233.65 214.67 241.51 214.67 247.19 203.34 255.09 203.34 249.4 214.67 257.26 214.67 268.66 191.91 278.43 191.91 273.84 200.71 266.25 200.71 264.55 204.11 269.78 214.67 309.83 214.67 304.69 204.3"/><polygon class="cls-14" points="494.33 204.3 482.73 204.3 481.39 206.92 488.35 206.92 490.84 211.95 475.38 211.95 483.09 196.45 485.09 200.45 492.4 200.45 486.79 189.28 478.77 189.28 466.55 213.76 461.33 203.34 469.73 203.34 476.74 189.28 451.78 189.28 446.04 200.71 438.15 200.71 443.88 189.28 436.04 189.28 423.29 214.67 431.15 214.67 436.83 203.34 444.73 203.34 439.03 214.67 446.9 214.67 458.3 191.91 468.07 191.91 463.48 200.71 455.89 200.71 454.19 204.11 459.42 214.67 499.47 214.67 494.33 204.3"/></g></g></svg>