<svg xmlns="http://www.w3.org/2000/svg" viewBox="0 0 527.43 527.64"><defs><style>.cls-1{fill:#fff;}.cls-2{fill:#11376b;}</style></defs><title>hitrobot_HRG_vi-html</title><g id="图层_2" data-name="图层 2"><g id="图层_1-2" data-name="图层 1"><path class="cls-1" d="M0,527.64V0H527.43V527.64Zm427.94-37.88-.36,11.3h-23.8v12.86h23.5c0-4.65,0-8.89,0-13.11h13.38l.62-10.69h11.1v23.66h13.28V476.63l-.26.26h11.82v23.84h12.29l1-10.18h10.36l1.23,10.12h11.75V452.73H490.52l-.89,12.08h-13c0-16.59,0-32.54,0-48.5h12.73V392.66H477v23.94L465.23,416V392.06h-13V378.55h24.95V354h24.3v12.73h12.39V354.31H501.17q0-5.78,0-11.56h12.67V294.37H501.28v24.28H477v11.21l-10.91-.57-1.33-10.62-12-.57-.84-12.3-11-1.32c0-3.91,0-7.32,0-10.74h10.94l1.11-12.63h12.78v24.08l11.37-.51V269.85l12.48-1,1.17-12.89h23.24V231.52H501.25l.26.26V220.83L514,219.69V158.77H490.22c0,4.63,0,8.67,0,12.71H477v11.34l-11.61,0V171.14H441.59V158.64l10.6-1.26c0-3.92,0-7.3,0-10.68l13.46,0v10.89h10.81l.67-10.52,12.16-.73V134.14H477.42c0,4.69,0,8.91,0,13.12l-12-.32q0-12.35,0-24.71h24V109.81H465.66v12.71H441.18V133.8H428.4l-1.25-11.46-10.77.5v24.11l.26-.26-24.78.28V134.13l10.83-1v-23.8h-10.8V73.13h11.54v24h12.42V73.42H403.14q0-6.7,0-13.4h12.72V49.5H403.44V60.31H379.38l-1.21,13.44H354.46V98l-11-.56-1.05-12.35H329.85v23.55H319V73.82l11-1.27V60l-.26.26H367L368,48.47h23.83c0-5,0-9,0-13h24v-11H391.89V11.78H379V24.46H354.18V11.79h-11V24.46H330.28L329.2,11.62H318.35V34.95H305V11.72H280.65V24.41l.26-.26-11.56.31V11.78H256.46c0,4.64,0,8.65,0,12.66h-10.8v11h10.8q0,6.74,0,13.47H245.63l-1.38,11-12.07.57-.75,12.3L220.64,74c0,3.92,0,7.33,0,10.73H208V97.68h12.68q0,12.39,0,24.78H208v24.2h23.94q0,5.82,0,11.64l-36.12,0v-24H172l-1.13,12.4h-24l.26.26V134.22l10.64-1.38V122.15H134.41V109.37l11.92-.62v-24H133.62l.52-11.05,12.29-1V59.86h-23.8V48.64H158.4v24h12.55l1.15-12.69h24V72.62h11V59.95h13.22V48.61h10.8V11.09l-10.51.52c0,13.07,0,25.17,0,37.28l-13.54,0V23.84H171.8l-.8-12H122.23V35.22L110,36.07V60.24c4.78-.25,8.84-.47,12.87-.66l-.26,25.18H109.93V97.68h12.68V133.8h-13.5V109.92H85.32v11.91l12.76,1.08V133.8H60.14v-11L73,121.7v-12H49.56v23.81H60.43v12.76l12.39,1.11v24.11H60.09V158.28H48.76V147.51H35.86v10.8l-11.81-.61V134.12H11.78v48l12.81,1.12c0,4.62,0,8.65,0,12.69H11.86V219.6H24.31V195.65l11.73.63V231.5h13v13.6H24.41l.53,11.43H60.37v13H49.59l-1.41,10.92L36.23,281l-1,12.22H23.95V269.93H11.89v48.32h24l-.63,11.9H11.78v23.53l12.77,1.13v12.75H11.71V415.8H60.38v-12.7l-.26.26,12.68-.61,1.45-11.13H97.31V378.48H60.07c0-4.37,0-7.79,0-11.22H72.78V343.38l-12.69-1.09V329.53l24.76.31-.26-.26.6,12.8,12.34,1.06V353.9l-12.1.71v12.62h37.15v11.34h24.53l0,24.81H133.66V392.5H122.85L122.18,403H85.28v13.54h24.33v23.87h12.27c0-12.84,0-25.26,0-37.66l12,.32v38.12h37.66c0,8.77,0,16.56,0,24.34H158.11V452.85H109.9v24h12.66l-.26-.26.6,12.7,10.42,1.3,1.14,10.25,12,.73,1.14,12.81,10.5-.48c0-13.07,0-25.2,0-37.34h13.51v13.68h23.94v10.65l-12.08.72v12h36.41V501.78l-12.78-1.17c0-8.41,0-16.21,0-24l13.45,0v12.72h10.52V476.85H220.28l.06-11.59h36.14c0,4.81,0,8.19,0,11.57H245.62v12.38h10.57V476.54q6.88-.18,13.73-.35v13.33l10.37.78,1.24,11.09h12.59l-.26-.26.59,12.63h48.1v-12.2l-13-.62V476.48H269.67V465.76l11.16-.84V441.44h12.65l1.25,10.35h10.56V428.23h12.78l1.09,12.84h10.77l-.26-.26v10.9l-10.42,1.13v12.41h23.9v24.28l11.19.74v23.49h13c0-16.58,0-32.53,0-48.49H379v10.94l13.21,1.1c0,4.67,0,8.69,0,12.7H379.48v10.52h12.44V489.74h11.82V465.85H441.6c0,8.47,0,16.5,0,24.52L427.65,490V477.38H417.2v12.37ZM171.36,98V85.27H159V97.71h12.68v24.65l10.71-.51.78-12.25,12.06-1.06V85.18H183.29L182.18,98Zm-74.15-.63V11.9H11.77V97.37ZM428.56,11.55V97H514V11.55ZM97.23,514V428.51H11.76V514ZM513.86,402.81V379.19H501.92v23.62ZM245.38,513.74H269V501.8H245.38Z"/><path d="M330,60V72.55l-11,1.27v34.8h10.86V85.07h12.54l1.05,12.35,11,.56-.27-.3v11.59H379l-.27-.27v12.73h13.47V109l-.27.3h10.8v23.8l-10.83,1c0,4.36,0,8.6,0,12.84l.3-.27H379.41L378,158.28H367.39c0-3.63,0-7.25,0-10.86H354.44v10.86l-11.54-.33.29.29V134.34H318.13v23.24l-12.7,1.15v12.74l-11.57-.27.27.27V147H280.66l.61-13.62H305v-11H281.4V109.6l12.45-1c0-4.07,0-7.47,0-10.88h10.9V60l-10.65.51V98l-13.73-.65V73.67l-11.07-.91V48.67H256.15l.3.28q0-6.74,0-13.47l-.3.28h13.47V24.16l-.28.3,11.56-.31q0,12,0,24.06H293.4V24.41H280.65V11.72H305V34.95h13.31V11.62H329.2l1.08,12.84h12.87l-.28-.3.5,10.85h11.08V24.16l-.28.3H379l-.28-.3V35.74h13.47l-.3-.27v13H368L367,60.26H329.7c0-3.62,0-7.24,0-10.88H319.11V60Zm24.91,62.59v10.5H367V122.6Z"/><path d="M501.2,342.75l0,11.56.29-.29h-24.3v24.53H452.21l.28.29-.27-11.57h12.71V343.12l-12.12-.6-.85-12.22H441.16v24l-13.59-.61V329.59l-10.8.51-.6,12.42-12.29.7v10.55l12.79,1.15c0,8.4,0,16.16,0,23.92H403.2v24.52l.27-.27H378.68c0-4.45,0-7.87,0-11.28h12.77V379.33H378.94v12.72L368,391.39l-1.07-12.82H354.18l.28.27-.5-10.94-10.44-1.18-1.12-12.4h-24l.33-11.54-.29.29,11.06-.59c1.39-10.36-3-23.27,13.15-25l1.08-12.18h24l-.27-.27v61.79h24V354.42l-12-.56V343.42l12.2-1.09,1.07-12.2,10.19-.89V305.71l-10.7-1.25V293.74l-.28.28h11.32V280.55h13.44v37.29h11.49V294h13l-.3-.28v10.74l11,1.32.84,12.3,12,.57,1.33,10.62,10.91.57-.28-.3V343H501.5Z"/><path d="M60.09,171.51H72.82V147.4l-12.39-1.11V133.53l-.29.29H98.07l-.28-.3v12.81l-12.68,1.08v10.33h36.83V147.29l-12.56-1.12V133.5l-.27.3h13.5V97.68l-.3.28h11.59V84.48l-.28.3h12.71v24l-11.92.62v12.78h23.32v10.69l-10.64,1.38c0,4.17,0,8.44,0,12.72H134.33v10.6h12.5V146.68h24l1.13-12.4H195.8v24l.3-.27H182.89v24.78l-11.81-.7V158.57h-13v23.37H147.26l-.61-10.14H134.26l-1.22,11H122.33c0-3.62,0-7.23,0-10.89H109.87v10.63h12.72v24.9h23.82l1.15,12.79h24l-.69,11.57H133.63c0-3.6,0-7.21,0-10.94H109.75l-1.29,10.93H97.8v-11l-12.28-1V207.53l11.9-.73V196.29L84.6,195.17c0-4.59,0-8.61,0-12.63H97.36v-10.6H84.85V182.8h-11l-1.09,12.91H60.09l.27.28q0-12.39,0-24.78Z"/><path d="M416.38,146.95V122.84l10.77-.5,1.25,11.46h12.78l-.28-.3V147h11.59l-.3-.28v10.68l-10.6,1.26v12.51h23.79c0,4.47,0,8.06,0,11.64l.3-.28H452v24.14h-10.5l-.81-10.18h-13V231.8l.27-.27H403.85l-1.24,13.68H367.66c0,8.73,0,16.5,0,24.27H354.9v10.6h12.5V269.22H379v11.32h13.21L391.89,294l.28-.28H379.41L378.08,305h-10.7l.27.27-.57-11.84h-31.4V281.86l7.05-2.36V257l-7.06-1.77v-9.12l7-2.43v-11.2l-7.28-1.83.42-9.6h17.93l1.13,10.18H367l1.09-10.09H378.4l.86,10h13.15V206.94H416V183.25H403.79l-1.11,12h-10V171.73l10.18-.79V158.66l-10.71-1.2V146.7l-.3.27,24.78-.28q0,12,0,24.05h10.62v-23.8Z"/><path d="M476.68,416.32v48.5h13l.89-12.08h23.33v47.93H502.1l-1.23-10.12H490.52l-1,10.18H477.25V476.89H465.43c0-3.62,0-7.23,0-10.89H453v10.63h12.72v37.16H452.41V490.13H441.29l.31.27V465.85H403.73v23.89H391.91l.29.29v-12.7L379,476.23V465.29l-.3.28h12.73V452.09H378.69l.28.28V441.45l12.66-1.08,1-12.31,10.82-.7V403.08l-.27.27h24.52V391.77l13.46.27-.28-.28.5,10.85h11.08V391.77l-.28.29h13V416l11.73.63ZM452.2,417h-35v34.57h35Z"/><path d="M343.15,465.26h-23.9V452.85l10.42-1.13c0-3.69,0-7.3,0-10.9h12.77V428.34H329.92v12.72H319.16l-1.09-12.84H305.29v23.56H294.73l-1.25-10.35H280.84v23.48l-11.16.84q0,5.36,0,10.72l.27-.31-13.75.37.29.29V465.26H220.33l.28.3V451.81h24.77V427.56h48.48c0-4.41,0-7.84,0-11.27h36.27V378.85h24.33l-.28-.27v12.66l-10.77,1.4v10.26l11.11.82v24.21h13.1l-.29-.29v12.76l-12.52,1.05-1.21,10.21L342.87,453v12.56Z"/><path d="M501.25,231.52h12.69v24.39H490.71l-1.17,12.89-12.48,1v34.83l-11.37.51V281.1H452.92l-1.11,12.63H440.87l.3.28-.27-24.77H465V256.59l-12.06-1L451.59,245H427.71l.27-13.46-.27.27h24l1.46-11.61h36.37V206.9H465.68V182.51l-.3.28,11.61,0-.28-.3v12.74h24.07V171.2H489.92l.3.28V158.77H514v60.92l-12.52,1.13c0,3.69,0,7.32,0,10.95H466.14v12.5h35.11Z"/><path d="M122.58,367.23H85.43V354.61l12.1-.71V343.45l-12.34-1.06-.6-12.8H97.36V319H84.85v10.85l-24.76-.31.28.3-.26-11.58H73.3v-13.2l36.05.33-.29-.29v37.15H123V318.8l10.3-.8,1.16-12.93h24q0,6.72,0,13.44H147.55v11.06H158.4v13.71h23.89V367L172,367.8l-1.21,10.77H158.12l.27.28V354.78H122.31v12.75Z"/><path d="M97.22,97.37H11.77V11.9H97.22ZM84,84.45V24.9H25.1V84.45Z"/><path d="M428.56,11.55H514V97H428.56Zm13.13,13.12V83.89h59.19V24.67Z"/><path d="M97.23,514H11.76V428.51H97.23ZM84.11,500.85V441.63H24.88v59.22Z"/><path d="M60.07,367.26v11.22H97.31v13.15H74.25L72.8,402.76l-12.68.61c0-3.61,0-7.23,0-10.9H35.65l.5,10.64H60.38v12.7H11.71V367.56H24.55l-.28-.3.5,10.85H35.86V367.26l-.27.27H60.37Z"/><path d="M122.89,59.55,110,60.24V36.07l12.23-.85V11.83H171l.8,12h35.31c0,9,0,17.07,0,25.1l.3-.28H195.83l.28.27V36.19h-38V48.94l.27-.3H122.63c0,4.45,0,7.84,0,11.23Zm23.64-34.84H134.18V35.19h12.35Z"/><path d="M49.06,231.5H36V196.28l-11.73-.63.29.29V183.26l-12.81-1.12v-48H24.05V157.7l11.81.61-.28-.3c0,8,0,16,0,24.12l12.87,1.15,1,12.7H60.37l-.27-.28.5,11,12.11,1.06v13H48.78v11.1Z"/><path d="M195.8,158.28l36.12,0-.28-.3V171.2h13.44c0,3.62,0,7.24,0,10.88h10.59V171.45H244.83l.28-13.45-.28.27,24.77-.27v13.47h24.52l-.27-.27V181c-8.87,5.42-21.35-5.29-26.06,8.91H221.87l.71-2.77c-3.58-1.5-7.06-3.81-10.78-4.32-5.22-.71-10.63-.08-16,0L196.1,158Z"/><path d="M171.61,465.57V441.23H133.95V403.11l-.29.29h13.43l-.28-.3v13.47H158.4l-.28-.28.51,10.86h13V416.28l-.27.27h25v24l10.39.89v11h-24v13.09l.28-.28H171.32Z"/><path d="M122.56,476.89H109.9v-24h48.21c0,4.26,0,8.49,0,12.71l.29-.27-10.85.5v11.08H158.4l-.29-.28v37.34l-10.5.48-1.14-12.81-12-.73-1.14-10.25-10.42-1.3-.6-12.7h10.88V466H122.56Z"/><path d="M294.11,501.4H281.52l-1.24-11.09-10.37-.78c0-4.76,0-9,0-13.34l-.26.3h59.89v24.46l13,.62v12.2h-48.1l-.59-12.63h24.05V490.51h-23.8Z"/><path d="M60.09,329.53v12.76l12.69,1.09v23.88H60.07l.3.28V354.77l-10.86-1.21-1.24-10H35.59v24l.27-.27H24.28l.28.3c0-4,0-8.1,0-12.75l-12.77-1.13V330.14H35.26l.63-11.9-.3.27,13.47-.26v11.57H60.37Z"/><path d="M35.89,318.25h-24V269.93H23.95v23.34H35.27l1-12.22,11.94-.59,1.41-10.92H60.37l-.28-.3L60.37,294H49v11.32H35.59v13.2Z"/><path d="M207.11,476.6v24l12.78,1.17v11.87H183.48v-12l12.08-.72V490.28H171.61V476.6l-.29.28h11.59V465.29l-.28.28h12.7l1.36,11.31h10.72Z"/><path d="M403.16,60l0,13.4.29-.29H391.89c0,12.36,0,24.26,0,36.16l.27-.3H378.69l.27.27V85.16h-11l-1.05,12.52H354.18l.27.3c0-7.75,0-15.51,0-24.23h23.71l1.21-13.44h24.07Z"/><path d="M477,329.86V318.65h24.29V294.37h12.58v48.38H501.2l.3.28V329.56H476.72Z"/><path d="M367.35,465.29v48.49h-13V490.28l-11.19-.74c0-8.18,0-16.23,0-24.28l-.27.3h24.78Z"/><path d="M220.64,84.76V74l10.79-1.25.75-12.3,12.07-.57,1.38-11h10.82l-.3-.28v24l-11,1.33c0,8.39,0,16.17,0,23.94l-13.47-.26.28.28V84.48H220.33Z"/><path d="M60.37,269.53v-13H24.94l-.53-11.43H49.06c0-5.14,0-9.37,0-13.6l-.28.3H59.72l1.08,12.92H73.55q0,12.39,0,24.78l-13.46-.27Z"/><path d="M121.88,402.76v37.67H109.61V416.57H85.28V403h36.91Z"/><path d="M196.1,59.95h-24l-1.15,12.69H158.4q0-12,0-24l-.27.3h38l-.28-.27q0,5.79,0,11.59Z"/><path d="M147.09,403.38l0-24.81-.3.27H158.4l-.27-.28v12.84l13.2,1.19v24l.27-.27H158.12l.28.28V403.08H146.81Z"/><path d="M171.36,98h10.81l1.12-12.81H195.2v23.36l-12.06,1.06-.78,12.25-10.71.51V97.71Z"/><path d="M220.64,122.46q0-12.39,0-24.78l-.3.28h11.59l-.28-.28V109h13.47V133.5H231.65l.28.28V122.19H220.33Z"/><path d="M231.92,146.67H208v-24.2h12.65l-.3-.28v11.59h11.59l-.28-.28V147Z"/><path d="M465.37,122.23q0,12.35,0,24.71l.29-.29-13.45,0,.3.28V133.5H440.9l.28.3c0-3.42,0-6.85,0-11.28h24.48Z"/><path d="M60.43,133.53H49.56V109.72H73v12l-12.83,1.1c0,3.76,0,7.39,0,11Z"/><path d="M98.07,133.8V122.91l-12.76-1.08V109.92h23.79c0,7.83,0,15.86,0,23.89l.27-.3H97.8Z"/><path d="M122.61,84.76q.13-12.59.27-25.19l-.26.3h23.81V72.69l-12.29,1-.52,11.05.28-.3H122.31Z"/><path d="M220.65,48.9V11.61l10.51-.52V48.61h-10.8Z"/><path d="M513.86,402.81H501.92V379.19h11.94Z"/><path d="M465.66,122.52V109.81h23.73v12.42h-24Z"/><path d="M403.14,73.42h12.71V97.16H403.43c0-8,0-16,0-24Z"/><path d="M427.28,500.8v13.12h-23.5V501.06h23.81Z"/><path d="M477,416.61V392.66h12.45v23.65H476.68Z"/><path d="M24.31,195.65V219.6H11.86V195.94H24.59Z"/><path d="M245.38,513.74V501.8H269v11.94Z"/><path d="M147.12,378.57H122.58c0-4.1,0-7.72,0-11.34l-.28.3h24.51v11.31Z"/><path d="M391.89,24.46h23.93v11h-24l.3.27V24.16Z"/><path d="M477.42,147.29V134.14h11.85v12.15l-12.17.72Z"/><path d="M220.64,97.68H208V84.76h12.68l-.3-.28V98Z"/><path d="M171.65,97.71H159V85.27h12.39c0,4.28,0,8.5,0,12.73Z"/><path d="M122.61,97.68H109.93V84.76h12.68l-.3-.28V98Z"/><path d="M501.17,354.31h12.68v12.44H501.46c0-4.28,0-8.5,0-12.73Z"/><path d="M379,24.46V11.78h12.92c0,4.21,0,8.44,0,12.68l.28-.3H378.69Z"/><path d="M256.46,24.43V11.78h12.89q0,6.33,0,12.68l.28-.3H256.15Z"/><path d="M343.15,24.46V11.79h11c0,4.19,0,8.43,0,12.67l.28-.3H342.87Z"/><path d="M220.36,48.61V59.95H207.14l.28.3V48.67l-.3.28,13.54,0Z"/><path d="M403.44,60.31V49.5h12.44V60H403.16Z"/><path d="M207.14,59.95V72.62h-11c0-4.19,0-8.43,0-12.67l-.28.3h11.59Z"/><path d="M452.21,378.55q0,6.75,0,13.51l.28-.29H440.9l.28.28v-13.2h11.31Z"/><path d="M35.86,158.31v-10.8H48.76v10.78l.3-.28H35.59Z"/><path d="M231.92,158.31q0-5.82,0-11.64l-.28.3h13.2v11.31l.28-.27H231.65Z"/><path d="M48.76,158.28H60.09c0,4.67,0,8.95,0,13.22l.28-.3H49.06V158Z"/><path d="M379,465.29H367.35l.3.28v-13.2H379l-.28-.28v13.47Z"/><path d="M171.61,476.6H158.11l.29.28V465.29l-.29.27h13.51l-.29-.28v11.59Z"/><path d="M220.56,476.56l-13.45,0,.3.28V465.57h13.2l-.28-.3-.06,11.59Z"/><path d="M220.28,476.85h10.81v12.44H220.57c0-4.27,0-8.49,0-12.72Z"/><path d="M256.18,476.54v12.67H245.62V476.83h10.85Z"/><path d="M477,182.82V171.48h13.22l-.3-.28v11.31h-13.2Z"/><path d="M427.94,489.76H417.2V477.38h10.45V490Z"/><path d="M391.91,489.74v10.81H379.48V490H392.2Z"/><path d="M427.65,490l13.94.33-.3-.26c-.18,3.31-.37,6.61-.61,10.7H427.29l.3.26q.16-5.67.35-11.31Z"/><path d="M133.95,403.11l-12.06-.33.3.26c.2-3.34.41-6.68.66-10.54h10.81c0,3.72,0,7.31,0,10.89Z"/><path d="M256.46,35.47h-10.8v-11h10.8l-.3-.28V35.74Z"/><path d="M465.35,146.94l12.06.33-.3-.26c-.2,3.34-.42,6.68-.66,10.54H465.64c0-3.72,0-7.31,0-10.89Z"/><path class="cls-1" d="M220.61,465.57h-13.2v11.31H196.69l-1.36-11.31h-12.7V452.47h24v-11l-10.39-.89v-24h-25v-24l-13.2-1.19V378.57h12.64L172,367.8l10.32-.84V343.28H158.4V329.57l-.26.25h12.64V318.26H158.13l.26.25q0-6.72,0-13.44l-.26.25h23.92V293.75H158.13l.25.25V270.07l-11-1.43V256.09h23.43V244.74H133.63l.25.25V231.54l-.25.26h37.28l.69-11.57-.26.25h11.48c0,10.72-.27,20.44.21,30.11.11,2.14,2.91,4.15,4.85,6.73l8.22-74.8-.25.26c5.33-.06,10.73-.69,16,0,3.72.51,7.2,2.81,10.78,4.32l-.71,2.77h45.92c4.72-14.2,17.2-3.48,26.06-8.91V171.2l11.57.27-.25-.26.65,11.57h12.8l-.25-.25.37,8.45,11.19,5-.26-.26,4.83,10.76h19.94V195.72l-.25.25h24V171.92l-10.57-1.3V158l-.25.26H378l1.36-11.58h12.75v10.76l10.71,1.2v12.29l-10.18.79v23.55h10l1.11-12H416v23.69h-23.6v24.19H379.26l-.86-10H368.11L367,231.21H354.93L353.79,221H335.87l-.42,9.6,7.28,1.83v11.2l-7,2.43v9.12l7.06,1.77V279.5l-7.05,2.36v11.63h31.4l.57,11.84h-24l-1.08,12.18c-16.19,1.7-11.76,14.62-13.15,25l-11.06.59c0-2.35,0-4.7,0-6.93-13.09-1.34-13.09-1.34-11.63,6.64h11.92l-.33,11.54.26-.25H305.85l-1.1,13H294V336.32c-11.93-1.54-11.93-1.54-14.6,6.74h-10c0-2.35,0-4.71,0-7.08H232.51v18.09h23.95q0,24.62,0,49.24h-24v12.42h23.73V403l24.74.32-.25-.25.59,13.45h12.86l-.26-.25v11.27H245.38v24.25H220.61Zm11.28-86.66-11.73-.6V354.92h-24c0,8.43,0,16.18,0,23.92H183.45v12.92h12.68v10.81l10.69,1.3,1.12,12h12.62V392.46l11-1.27c0-4.54,0-8.55,0-12.57h12.72V368.09H231.89ZM172.1,269.84V280h10.18V269.84Zm35.6,72.58c12.39.73,12.39.73,11.61-6.62l-11.71-1.05c-.09,1.22-.27,2.44-.26,3.66S207.56,340.8,207.71,342.41Z"/><path class="cls-1" d="M244.84,158.28V147h-13.2V133.5h13.47V109l-.26.25h11l1.07,12.62H269V85.23H256.76l-1,12.46H244.85l.26.25V74l11-1.33v-24H269.3v24.1l11.07.91V97.32L294.1,98l-.26-.26v10.88l-12.45,1v12.72H305v11H281.28L280.66,147l.26-.25-11.57.64v10.93l.25-.26Z"/><path class="cls-1" d="M305.43,171.48V158.73l12.7-1.15V134.34h25.06c0,7.82,0,15.86,0,23.89H330.46v12.39H342.9V157.95l11.54.33-.25-.26q0,19,0,38l.25-.25H329.68l.26.26V182.52H318.37l.25.25L318,171.21h-12.8Z"/><path class="cls-1" d="M294.13,171.48H269.61V158l-.25.26,11.57-.64V146.71l-.26.25h13.47Z"/><path class="cls-1" d="M294.1,98V60.55L304.75,60V97.7h-10.9Z"/><path class="cls-1" d="M354.18,97.68h12.69l1.05-12.52h11v24.11H354.18Z"/><path class="cls-1" d="M280.65,24.41H293.4v23.8H280.91q0-12,0-24.06Z"/><path class="cls-1" d="M378.69,109h13.47v12.73H378.69Z"/><path class="cls-1" d="M256.15,35.74V24.16h13.47V35.74Z"/><path class="cls-1" d="M378.69,24.16h13.47V35.74H378.69Z"/><path class="cls-1" d="M354.87,122.6H367v10.5H354.87Z"/><path class="cls-1" d="M354.44,158.28V147.42h12.95c0,3.61,0,7.23,0,10.86l.25-.26H354.19Z"/><path class="cls-1" d="M330,60H319.11V49.37H329.7c0,3.64,0,7.26,0,10.88Z"/><path class="cls-1" d="M342.87,24.16h11.59V35H343.38Z"/><path class="cls-1" d="M379,452.37H367.65v13.2H342.87V453l10.73-1.35,1.21-10.21,12.52-1.05c0-4.34,0-8.55,0-12.76h10.85V417.12H367.63v10.8h-13.1V403.71l-11.11-.82V392.63l10.77-1.4V378.57h12.75L368,391.39l10.94.66-.26-.26v11.28h24.79v24.28l-10.82.7-1,12.31L379,441.45Z"/><path class="cls-1" d="M354.46,378.85H330.13v37.44H293.86l.26.25-.59-13.45H280.67l.25.25V391.73H305.4c0,3.6,0,7.2,0,10.85h12.38V392H305.11V379.21L318.63,378V354.08l-.26.25h24l1.12,12.4L354,367.91Z"/><path class="cls-1" d="M367.38,305h10.7l1.33-11.31h12.75v10.72l10.7,1.25v23.54l-10.19.89-1.07,12.2-12.2,1.09v10.44l12,.56v12.42h-24Z"/><path class="cls-1" d="M428,231.53,427.71,245l.26-.25-10.76.59v11H428l-.25-.25q0,6.73,0,13.45l.25-.25-11.57.64v10.93l.25-.26H403.21l.25.26-.64-11.57H391.9l.25.25V256.85H378.7V269.5l.25-.26H367.4l.26.26V245.21H402.6l1.24-13.68Z"/><path class="cls-1" d="M452.49,378.85H441.18V392l-13.46-.27.25.26V378.58H416.4l.26.25V354.92l-12.79-1.15V343.22l12.29-.7.6-12.42,10.8-.51v24.14l13.59.61-.25-.26v13.45h11.57l-.26-.25Z"/><path class="cls-1" d="M440.9,269.25l.27,24.77h-13v23.82H416.65V280.54l-.25.26,11.57-.64V269.24l-.25.25h13.45Z"/><path class="cls-1" d="M441.16,354.34v-24h10.79l.85,12.22,12.12.6v24.15H452.21l.26.25V354.08H440.91Z"/><path class="cls-1" d="M427.72,391.77v11.58H403.2V378.83h13.47l-.26-.25V392H428Z"/><path class="cls-1" d="M476.72,329.56H501.5V343H476.72Z"/><path class="cls-1" d="M378.94,392.05V379.33h12.51v12.47H378.68Z"/><path class="cls-1" d="M391.89,294l.27-13.46-.26.25h11.57l-.25-.26V294Z"/><path class="cls-1" d="M171.59,220.23h-24l-1.15-12.79H122.59v-24.9l-.26.26H133l1.22-11h12.38l.61,10.14h10.87V158.57h13v23.52l11.81.7-.25-.26v24.08l-11.31,1.32v12.55Z"/><path class="cls-1" d="M73.55,244.73H60.8L59.72,231.8H48.78c0-3.4,0-6.8,0-11.1H72.7v-13L60.6,206.7l-.5-11H72.78l1.09-12.91h11l-.26-.26v12.63l12.83,1.12V206.8l-11.9.73v12.24l12.28,1v11l.26-.25H73.3V245Z"/><path class="cls-1" d="M97.8,231.79h10.66l1.29-10.93h23.88c0,3.73,0,7.33,0,10.94l.25-.26-10.77.59V245h10.77l-.25-.25v24.07H108.95V244.73H97.81l.25.25q0-6.72,0-13.45Z"/><path class="cls-1" d="M49.06,158v13.2H60.37q0,12.39,0,24.78H49.49l-1-12.7-12.87-1.15c0-8.12,0-16.12,0-24.12Z"/><path class="cls-1" d="M97.8,133.5h11.59v12.67l12.56,1.12v10.42H85.12V147.39l12.68-1.08Z"/><path class="cls-1" d="M196.1,158l-.26,24.78.25-.26H182.64l.25.26c0-7.91,0-15.81,0-24.78Z"/><path class="cls-1" d="M122.31,98V84.48h11.59V98Z"/><path class="cls-1" d="M146.84,146.68v10.85h-12.5v-10.6h12.76Z"/><path class="cls-1" d="M122.59,182.54H109.87V171.91h12.46c0,3.66,0,7.27,0,10.89Z"/><path class="cls-1" d="M84.85,182.8V171.95h12.5v10.6H84.6Z"/><path class="cls-1" d="M465.68,182.51V206.9h23.89v13.29H453.2l-1.46,11.61h-24V196.47h13l.81,10.18H452V182.51Z"/><path class="cls-1" d="M416.38,146.95h10.88v23.8H416.64q0-12,0-24.05Z"/><path class="cls-1" d="M440.9,133.5h11.59V147H440.9Z"/><path class="cls-1" d="M367.4,269.22v10.85H354.9v-10.6h12.76Z"/><path class="cls-1" d="M392.16,280.56H379V269.23l-.25.26h13.45l-.25-.25q0,5.78,0,11.57Z"/><path class="cls-1" d="M452.2,417v34.57h-35V417Zm-23.82,11.22V440.3h12V428.18Z"/><path class="cls-1" d="M378.69,465.57V452.09h12.73v13.47Z"/><path class="cls-1" d="M465.69,476.63H453V466h12.46c0,3.66,0,7.27,0,10.89Z"/><path class="cls-1" d="M440.9,391.77h11.59v10.85H441.41Z"/><path class="cls-1" d="M329.92,441.07V428.34h12.51v12.47H329.67Z"/><path class="cls-1" d="M427.71,245h23.88L453,255.56l12.06,1v12.66H440.9l.26.25L440.58,256H427.71l.25.25V244.73Z"/><path class="cls-1" d="M501.25,231.52v12.76H466.14v-12.5h35.37Z"/><path class="cls-1" d="M476.72,182.51h13.2V171.2h10.87v24.05H476.72Z"/><path class="cls-1" d="M109.36,305.38l-36.05-.33.25.26q0-5.78,0-11.57l-.25.25H97.8V280.51h35.44L134.47,294h23.92l-.25-.25v11.56l.26-.25h-24L133.28,318l-10.3.8v23.45H109.07c0-12.3,0-24.72,0-37.15h12.72V294.57H109.36Z"/><path class="cls-1" d="M146.81,378.85V367.54H122.31V354.78H158.4v24.06Z"/><path class="cls-1" d="M73.3,305.05v13.2H60.11l.25.26q0-6.73,0-13.45l-.25.25H73.56Z"/><path class="cls-1" d="M84.85,329.84V319h12.5v10.6H84.6Z"/><path class="cls-1" d="M60.37,329.83H49.06c0-4.49,0-8,0-11.57l-.26.25H60.36l-.25-.26Z"/><path class="cls-1" d="M158.4,329.57H147.55V318.51H158.4l-.26-.25q0,5.78,0,11.57Z"/><path class="cls-1" d="M84,84.45H25.1V24.9H84ZM36.32,36.11V72.64H72.67V36.11Z"/><path class="cls-1" d="M441.69,24.67h59.19V83.89H441.69Zm47.6,48.23V36.12H452.94V72.9Z"/><path class="cls-1" d="M84.11,500.85H24.88V441.63H84.11ZM35.95,489.32H72.73V453H35.95Z"/><path class="cls-1" d="M35.59,367.54v-24H48.27l1.24,10,10.86,1.21v12.77Z"/><path class="cls-1" d="M60.38,403.11H36.15l-.5-10.64H60.12c0,3.67,0,7.29,0,10.9Z"/><path class="cls-1" d="M24.28,367.26H35.86v10.85H24.78Z"/><path class="cls-1" d="M196.1,48.94h-38V36.19h38Z"/><path class="cls-1" d="M146.53,24.71V35.19H134.18V24.71Z"/><path class="cls-1" d="M207.41,60.25H195.83q0-5.79,0-11.59h11.59Z"/><path class="cls-1" d="M231.65,158h13.47l-.28,13.45.26-.26H231.65Z"/><path class="cls-1" d="M244.83,171.45h10.84v10.63H245.09c0-3.64,0-7.26,0-10.88Z"/><path class="cls-1" d="M146.81,403.08H158.4v13.47H146.81Z"/><path class="cls-1" d="M158.12,416.28H171.6v10.86h-13Z"/><path class="cls-1" d="M171.32,476.88V465.29h11.59v11.59Z"/><path class="cls-1" d="M122.56,476.89V466h10.63v10.59H122.3Z"/><path class="cls-1" d="M158.4,465.29v11.59H147.55V465.79Z"/><path class="cls-1" d="M294.11,501.4V490.51h23.8v10.62H293.85Z"/><path class="cls-1" d="M35.59,318.52v-13.2H49l-.25-.26q0,6.73,0,13.45l.26-.25Z"/><path class="cls-1" d="M60.09,269.23l13.46.27-.25-.26V294l.25-.25H60.1l.26.25Z"/><path class="cls-1" d="M49,305.32V294H60.37l-.26-.25q0,5.78,0,11.57l.25-.25H48.79Z"/><path class="cls-1" d="M220.33,98V84.48h11.59V98Z"/><path class="cls-1" d="M245.11,109H231.65V97.68l13.47.26-.26-.25v11.57Z"/><path class="cls-1" d="M73.55,269.5q0-12.39,0-24.78l-.25.26H98.06l-.25-.25v11l-12.9,1.09c0,4.66,0,8.68,0,12.69l-11.6-.27Z"/><path class="cls-1" d="M231.92,133.77H220.33V122.19h11.59Z"/><path d="M305.4,391.73H280.93v11.62L256.18,403l.29.29q0-24.62,0-49.24l-.3.27,13.12.1.68,13.07,10.43-.52V354.22l-11.34.49q.3-6,.59-12l-.28.3h10c2.66-8.28,2.66-8.28,14.6-6.74V367h10.79l1.1-13h12.78V378l-13.52,1.21V392Z"/><path d="M84.9,269.51V256.82l12.9-1.09v-11h11.14v24.07h24.68V244.74h37.14v11.36H147.34v12.55l11,1.43V294H134.47l-1.23-13.49H97.8l.28.3V269.23H84.6Z"/><path d="M196.13,378.85V354.92h24V378.3l11.73.6-.29-.29v12.57l-11,1.27v23.42H207.94l-1.12-12-10.69-1.3V391.77l-.3.28,10.86-.51v-13H195.83Z"/><path d="M182.64,182.52h13.45l-8.22,74.8c-1.94-2.58-4.74-4.59-4.85-6.73-.49-9.67-.21-19.38-.21-30.11H171.33V207.93l11.31-1.32Z"/><path d="M354.19,158h13.45v12.6l10.57,1.3V196h-24Q354.19,177,354.19,158Z"/><path d="M256.46,354.07H232.51V336h36.84c0,2.37,0,4.72,0,7.08l.28-.3H256.15v11.59Z"/><path d="M256.18,403v12.71H232.45V403.31h24Z"/><path d="M158.13,305.31V293.75h23.92v11.56Z"/><path d="M329.68,195.72h24.77v10.76H334.51Z"/><path d="M280.67,403.09h12.86l.59,13.45H281.26Z"/><path d="M196.13,391.77H183.45V378.85h12.68l-.3-.28V392Z"/><path d="M133.88,245H123.11V232.13l10.77-.59Z"/><path d="M231.89,378.91V368.09h12.44v10.52H231.61Z"/><path d="M158.13,329.82q0-5.78,0-11.57h12.64v11.57Z"/><path d="M305.18,171.21H318l.65,11.57h-12.8Z"/><path d="M172.1,269.84h10.18V280H172.1Z"/><path d="M318.37,182.52h11.56V196l-11.19-5Z"/><path d="M207.71,342.41c-.15-1.61-.35-2.81-.35-4s.17-2.44.26-3.66l11.71,1.05C220.1,343.14,220.1,343.14,207.71,342.41Z"/><path d="M318.69,342.79H306.77c-1.45-8-1.45-8,11.63-6.64,0,2.23,0,4.58,0,6.93Z"/><path d="M244.85,109.26V97.69h10.89l1-12.46H269v36.64H256.92l-1.07-12.62Z"/><path d="M280.93,146.71v10.93l-11.57.64V147.34Z"/><path d="M342.9,157.95v12.68H330.46V158.24h12.73Z"/><path d="M367.63,427.92v-10.8h10.56v10.51H367.34Z"/><path d="M305.11,392h12.67v10.57H305.4c0-3.66,0-7.25,0-10.85Z"/><path d="M392.15,269.5H378.7V256.85h13.45Z"/><path d="M427.71,256h12.86l.59,13.45H427.71Q427.71,262.77,427.71,256Z"/><path d="M428,269.24v10.93l-11.57.64V269.88Z"/><path d="M428,244.73V256.3H417.2v-11Z"/><path d="M391.9,280.81q0-5.78,0-11.57h10.93l.64,11.57Z"/><path d="M440.91,354.08h11.57v13.45H440.91Z"/><path d="M428,392H416.4V378.58H428Z"/><path d="M98.06,245H73.3c0-4,0-8.07,0-13.45H98.06Q98.06,238.26,98.06,245Z"/><path d="M428.38,428.18h12V440.3h-12Z"/><path d="M73.3,269.24l11.6.27-.3-.28v11.59H98.07l-.28-.3c0,4,0,8.09,0,13.49H73.3Z"/><path d="M60.1,305.31q0-5.78,0-11.57H73.56q0,5.78,0,11.57Z"/><path d="M109.36,305.38V294.57h12.44v10.52H109.07Z"/><path d="M48.79,305.06H60.36q0,6.73,0,13.45H48.79Q48.79,311.79,48.79,305.06Z"/><path d="M36.32,36.11H72.67V72.64H36.32Z"/><path d="M489.29,72.9H452.94V36.12h36.35Z"/><path d="M35.95,489.32V453H72.73v36.31Z"/><path class="cls-1" d="M269,354.72l11.35-.5V367l-10.43.52c-.24-4.64-.46-8.86-.66-13.09Z"/><path class="cls-1" d="M256.15,354.34V342.75h13.47q-.29,6-.59,12l.24-.28Z"/><path class="cls-1" d="M98.07,280.82H84.6V269.23H98.07Z"/><path class="cls-1" d="M195.83,392V378.57h10.86v13Z"/><rect class="cls-1" x="190.88" y="190.98" width="145.67" height="145.67" rx="12" ry="12"/><polygon class="cls-2" points="309.81 267.07 293.59 267.07 291.71 270.74 301.45 270.74 304.93 277.78 283.31 277.78 294.09 256.09 296.89 261.68 307.12 261.68 299.27 246.05 288.05 246.05 270.95 280.3 263.64 265.73 275.4 265.73 285.2 246.05 250.28 246.05 242.25 262.05 231.22 262.05 239.23 246.05 228.27 246.05 210.42 281.58 221.43 281.58 229.37 265.73 240.42 265.73 232.46 281.58 243.45 281.58 259.41 249.74 273.07 249.74 266.66 262.05 256.03 262.05 253.65 266.8 260.98 281.58 317.01 281.58 309.81 267.07"/></g></g></svg>