<svg xmlns="http://www.w3.org/2000/svg" viewBox="0 0 301.73 168.12"><defs><style>.cls-1{font-size:7.52px;fill:#10386b;font-family:FZHTJW--GB1-0, FZHTJW -GB1-0-GBpc-EUC-H;}.cls-2{fill:#e60012;}.cls-2,.cls-3{font-size:9px;}.cls-3,.cls-4{fill:#231815;}.cls-3{letter-spacing:0em;}.cls-4{stroke:#fff;stroke-width:0.32px;}.cls-5{fill:#fff;}</style></defs><title>hitrobot_hrg_text_white</title><g id="图层_2" data-name="图层 2"><g id="图层_1-2" data-name="图层 1"><text class="cls-1" transform="translate(112.9 165.58) scale(0.95 1)">■<tspan class="cls-2" x="7.52" y="0"> </tspan><tspan class="cls-3" x="9.54" y="0">标准字体反白稿</tspan></text><rect class="cls-4" x="0.16" y="0.16" width="301.41" height="130.33"/><path class="cls-5" d="M44.06,44.22h6.45V61.53H48.76v-1.7H45.81v2.09H44.06Zm4.7,13.93V45.9H45.81V58.15ZM60.37,41.37,60,42a16.89,16.89,0,0,0,7.11,7.43c-.47.57-.92,1.14-1.34,1.71a21.54,21.54,0,0,1-6.79-7.5A23.16,23.16,0,0,1,52,51.28a17.56,17.56,0,0,0-1.27-1.53,19.92,19.92,0,0,0,7.3-8.37ZM53,55.22H64.51V65.3H62.66V63.84H54.85V65.3H53Zm.95-4.89h9.84V52H53.95Zm8.72,11.81V56.93H54.85v5.21Z"/><path class="cls-5" d="M70.59,61.53H81.25V45.29H72V43.34H92.72v1.95H83.39V61.53H94.08v1.9H70.59Z"/><path class="cls-5" d="M97.64,63.23q10-4.47,10.83-13.42H98.08v-1.9h10.48q.06-3.28.06-6.6h2.12q0,3.28-.06,6.6h10.8v1.9H110.65q1.73,9.73,11.35,12.83a20.45,20.45,0,0,0-1.85,2,16.87,16.87,0,0,1-10.36-11.36q-1.9,7.39-10.63,11.84Q98.67,64.45,97.64,63.23Z"/><path class="cls-5" d="M125,56.44a27.36,27.36,0,0,0,3.88-8.76h-3.64V46h3.8v-4.8h1.75V46h3.41v1.66h-3.41v4l1-1q1.87,1.7,2.95,2.77l-1.31,1.34q-1.5-1.66-2.61-2.75V65h-1.75v-13a21.79,21.79,0,0,1-3.24,6.67Q125.46,57.49,125,56.44Zm12.83-11.81v8.06q0,8.72-4.36,12.64-.68-.83-1.44-1.65,3.85-3.39,3.85-10.54V42.78H145V61.09q0,1.22.85,1.22h.56q.78,0,1-1.36.24-1.87.34-4a19.68,19.68,0,0,0,1.85.78q-.22,2.41-.44,3.94-.39,2.58-2.48,2.58h-1.29q-2.34,0-2.34-2.77V44.63Z"/><path class="cls-5" d="M153.32,51.43h9.84a7.3,7.3,0,0,0,.49-2.12l1.75.24a11.21,11.21,0,0,1-.43,1.88h5.31c-.65-.47-1.34-.93-2.06-1.39l1-1.1a34.55,34.55,0,0,1,2.9,1.9l-.55.59h4.54V53h-9.4q2.81,2.75,10,2.61c-.39.66-.72,1.29-1,1.87l-1.24-.11v7.44h-1.7V63.5h-5.21v1.32h-1.7V57.29h7.75q-7-.94-8.9-4.26h-.44q-1.37,2.9-8.84,4.26h7.79v7.52h-1.7V63.5h-5.14v1.34h-1.71v-7.4l-1.34.24c-.24-.49-.56-1.06-1-1.73q8.13-1,9.76-2.92h-8.81Zm1.31-8.86h8.55v7.08h-1.7v-.76h-5.14v1h-1.7Zm6.84,1.51h-5.14v3.31h5.14Zm0,14.73h-5.14V62h5.14Zm4.31-16.24h8.62v7.18h-1.7v-.85h-5.21v.76h-1.71Zm6.91,1.51h-5.21v3.31h5.21Zm0,14.73h-5.21V62h5.21Z"/><path class="cls-5" d="M180,63.09Q190.58,57,191.19,41.56h2.14a46.5,46.5,0,0,1-.51,5q3,12.17,11.35,16-1,1.12-1.8,2.12-7.23-4.09-10.31-14.47-2.66,10-10.55,14.74A20.6,20.6,0,0,0,180,63.09Z"/><path class="cls-5" d="M208.12,57.46h10.49V55.81h1.7v1.66h10.47V59h-8.57a24.8,24.8,0,0,0,9.47,4.07l-1.14,1.8a26.59,26.59,0,0,1-10.23-5.44v5.71h-1.7V59.42a29.51,29.51,0,0,1-10.23,5.52q-.51-.76-1.14-1.53a25.76,25.76,0,0,0,9.4-4.38h-8.52Zm10.79-15.56,1.44-.88a16.1,16.1,0,0,1,1.87,2.48l-1.12.71h9.33v1.51h-9.23v1.73h8.16v1.41h-8.16V50.6h8.16V52h-8.16v1.78h9.3V55.3H212.74v.93H211V47.55a28.64,28.64,0,0,1-2.56,2.63,9.88,9.88,0,0,0-1.17-1.61,25.94,25.94,0,0,0,6-7.26l1.68.75q-.68,1.12-1.39,2.14h6.89A26.37,26.37,0,0,0,218.91,41.91Zm-6.16,5.55h6.75V45.73h-6.75Zm0,3.14h6.75V48.87h-6.75Zm0,3.19h6.75V52h-6.75Z"/><path class="cls-5" d="M236.25,42.44h21.31V65.16H255.7V64H238.1v1.22h-1.85Zm19.45,1.7H238.1V62.26h17.6Zm-16.41,4.31h9.11V44.95h1.8v3.51h4.67v1.65H250.2v7.43q0,3.53-3.36,3.53-1.37,0-2.82,0c-.1-.57-.23-1.21-.39-1.92a24,24,0,0,0,2.78.2q2,0,2-2.27v-5.7a26.73,26.73,0,0,1-8.74,8.13,8.89,8.89,0,0,0-1.24-1.63,25.24,25.24,0,0,0,8.81-7.72h-7.94Z"/><path class="cls-5" d="M52.36,75.91h1.27V87.42H52.36V82.07H45.91v5.35H44.59V75.91h1.32v5h6.45Z"/><path class="cls-5" d="M61.1,75.91h1.27V87.42H61.1Z"/><path class="cls-5" d="M78.08,75.91V77H74.16V87.42H72.84V77H68.93V75.91Z"/><path class="cls-5" d="M103.28,87.42H101.5l-4-5.18H94.47v5.18H93.15V75.91H98.5q3.68.17,3.91,3.11,0,3-3.45,3.22ZM94.47,77.06v4h3.74Q101,81,101,79q-.06-1.84-2.82-1.9Z"/><path class="cls-5" d="M114.44,87.59q-5.24-.29-5.47-5.7.23-5.87,5.64-6.16,5.12.34,5.47,6Q119.85,87.36,114.44,87.59Zm.06-10.71q-3.8.35-4.2,4.89.23,4.43,4.09,4.78,4-.23,4.26-4.78Q118.3,77.24,114.5,76.89Z"/><path class="cls-5" d="M131.42,87.42h-4.78V75.91h4.49q3.45.17,3.68,2.88a2.57,2.57,0,0,1-2.3,2.53v.06a2.93,2.93,0,0,1,2.76,2.94Q135.1,87.31,131.42,87.42Zm-.58-10.36h-3v3.86h3q2.36-.11,2.59-2.07Q133.31,77.12,130.84,77.06Zm.17,5h-3.16v4.32h3.4q2.7,0,2.71-2.25Q133.78,82.19,131,82.07Z"/><path class="cls-5" d="M147.12,87.59q-5.24-.29-5.47-5.7.23-5.87,5.64-6.16,5.12.34,5.46,6Q152.53,87.36,147.12,87.59Zm.06-10.71q-3.8.35-4.2,4.89.23,4.43,4.09,4.78,4-.23,4.25-4.78Q151,77.24,147.18,76.89Z"/><path class="cls-5" d="M167.66,75.91V77h-3.91V87.42h-1.32V77h-3.91V75.91Z"/><path class="cls-5" d="M188,81.49h5v4.2q-1.44,1.9-5,1.9-5.41-.29-5.7-5.75.23-5.87,5.47-6.1a5.06,5.06,0,0,1,5.12,3.4l-1.44.34a3.72,3.72,0,0,0-3.74-2.59q-3.68.35-4,4.89.29,4.43,4.26,4.78a4.61,4.61,0,0,0,3.74-1.38V82.59H188Z"/><path class="cls-5" d="M210,87.42h-1.79l-4-5.18h-3.05v5.18h-1.32V75.91h5.35q3.68.17,3.91,3.11,0,3-3.45,3.22Zm-8.81-10.36v4h3.74q2.82-.06,2.82-2.13-.06-1.84-2.82-1.9Z"/><path class="cls-5" d="M221.17,87.59q-5.24-.29-5.47-5.7.23-5.87,5.64-6.16,5.12.34,5.47,6Q226.58,87.36,221.17,87.59Zm.06-10.71q-3.8.35-4.2,4.89.23,4.43,4.09,4.78,4-.23,4.26-4.78Q225,77.24,221.23,76.89Z"/><path class="cls-5" d="M242.52,75.91v6.73q.06,5-4.61,5t-4.49-5V75.91h1.32v6.68q-.06,4.09,3.16,4,3.45.11,3.34-4V75.91Z"/><path class="cls-5" d="M254.66,82.76h-3.57v4.66h-1.27V75.91h4.95q3.51.17,3.86,3.4Q258.58,82.7,254.66,82.76Zm-.23-5.7h-3.34v4.55h3.34q2.76-.06,2.82-2.36Q257.14,77.12,254.43,77.06Z"/><rect class="cls-5" x="43.1" y="70.04" width="215.47" height="0.48"/></g></g></svg>