<svg xmlns="http://www.w3.org/2000/svg" viewBox="0 0 538.92 540.84"><defs><style>.cls-1{fill:#fff;}.cls-2{fill:none;}.cls-3{fill:#11376b;}</style></defs><title>hitrobot_HRG-html</title><g id="图层_2" data-name="图层 2"><g id="图层_1-2" data-name="图层 1"><path class="cls-1" d="M.13,540.58V.26H538.79V540.58Zm123.34-246H108.59v15.13h14.88q0,7.82,0,15.64H108.55V340H123.2V325.09l46.46,0q0,7.83,0,15.67h-15.4c0,5.87,0,10.63,0,15.4H139.39v15.13h14.88v14.92H107.75c0-5.38,0-10.13,0-14.89h14.93V356.77H108v14.88H92V355.78H62.21l-1-14.38H16.05v14.87H46.49c0,10.93,0,20.81,0,30.7H16.18v14.62h30V386.68l15.65,0v14.88H77V386.71H93v15.85H138.9v60.55h15.51V449h29.8v15.09h-14.1v15.46h29.73V494.8h-29.6v30.12h75.63V494.49H231l.27.27-.31-31h15.18l.86,15.38h15v15.44h15.44v30.26H292v-30H277.18l0-15.72H322.8v15.83H308.7v29.83h45.82V510.58h14.77l.89,14.08h45.14V510.45l-15-.9V494.49l31,.32-.27-.27v30.18h15.81v-14.8H476.8V479.66l-14.3-.9V433.42l14.54-.79.91-15.13h15V448l15.62,1v29.61h14.3v-45.2l-14.23-.74-.92-14.88H492.67q0-7.82,0-15.65H523V371.6h-14.9V340.44H477.83l-.89-15H446.53q0-7.85,0-15.69h30.25v-15.1H446.53l0-15.74h14.88V264.37h-14.6c0,5.38,0,10.1,0,14.82l-15.72,0V247.84H400.78l-.72-14.48-15.14-1c0-10.58,0-20.47,0-30.36h14.88V186.83H384.91V156.31l15-.91V94.94H369.83c0,5.37,0,10.14,0,14.91l-15.69,0V94.45H338.72q0-15.52,0-31H369V47.88H354.7l-.89-14.47H339V63.7H323V48.44l-14.32-.68V32.27H323V18H293.1l-.9,14.44-14.45.74-1,15.45H246.85l-.78,14.53L231.5,64l-.87,14.39H216.14l-1.06-15.35H168.95c0-11,0-20.89,0-30.79l16.11.33V47.45h15c0-5.38,0-10.1,0-14.83h14.93V18H200.41V32.9H184.8v-15H169.25V32.52h-30V47.67l15.22.95V79.33h46c0,16,0,30.94,0,45.91H185.28l-.86-15.4H169.35V95h-30.5v45.63H77.25v15.4H62.13l-.85,14.5H31.2l-.63-14H16.18V202h14.9q0,7.82,0,15.64H16.17v14.59H30.81V217.31H46.69v46.21H77.25V278.7l-15.36.87c0,5.54,0,10.27,0,15H45.94v-15H30.88v29.89l-14.6.94v14.41H45.85l1-14.55,14.8-.85V294.3h16v45.84H92.74V278.92h30.71Q123.46,286.77,123.47,294.61Zm354.15-77.26v30.51l15,.9.66,14.26h14.89V217.33h14.77V187l-14.18-.69-1-14.87H477.32V156.58H462.2v14.88h-16V141H416.52v14.46l14.25.86v14.51l-14.13.94V187h29.59l1,14.94h15v15.42ZM122.92,17.8H16.09V124.46H122.92ZM16.22,418.11V524.67H122.79V418.11ZM416.56,17.77V124.33H523.13V17.77Zm77,261.5v45.21h29.56V310.3l-15.33-1v-30Zm-123.47-247H399.9V18H370.06Zm137.4,123.46V141.16H493.6v14.55ZM399.93,63.06V48.74H385.78V63.06ZM416.06,216.7H430.6V202.84H416.06ZM508.7,524.92H523V510.74H508.7Z"/><path d="M231,494.49h14.89v30.44H170.25V494.8h29.6V479.59H170.12V464.13h14.1V449h-29.8v14.07H138.9V402.56H93V386.71H77l.27.29V372.11H61.59V387l.27-.29-15.65,0,.28.28v-30.7H16.05V341.4H61.17l1,14.38H92v15.87h16l-.28-.28v14.89h46.52V371.33l-.29.27h16v61h30.58V402.12h30.71c0,10.12,0,20.24,0,30.61l-15.8.7V448l-14.47.94V464h30.28l-.29-.27q.16,15.52.31,31H216.31v14.63H231Z"/><path d="M168.95,32.26V63.07h46.13l1.06,15.35h14.49L231.5,64l14.57-.89.78-14.53h29.86l1-15.45,14.45-.74L293.1,18H323v14.3H308.68V47.76l14.32.68V63.7h16l-.28-.28q0,15.52,0,31l.29-.27H323.87L323,79.07H308q0-7.46,0-14.94H293.35V78.8h14.9V94.61H261.71v15.21l.28-.28H247.14V141h30v45.87l.27-.27-15.65,0,.28.28V156.54H246.86L246,170.79h-14.4l-1-14.52-15-.91c0-10.66,0-20.51,0-30.36h14.94V110.37H215.81v14.9l-15.65-.3.29.27V79.33h-46V48.62l-15.22-.95V32.52h30.05Z"/><path d="M431.38,494.81l-31-.32.27.29V463.72H384.94l.27.27V449.1H369.54V464l.27-.27H354.14l.27.27V432.7h30.52c0-16,0-31,0-46l77.26,0c0,5,0,10,0,15.68H493l-.29-.27q0,7.82,0,15.65l.28-.28H478L477,432.62l-14.54.79v45.34l14.3.9v30.26H446.91v14.8H431.11c0-10,0-20.07,0-30.18h14.94V479.91H431.38Zm-30.23-92.14v45h45v-45Z"/><path d="M369.83,109.84V94.94h30.11V155.4l-15,.91v30.52l.29-.27H354.58l-.7,15.27c-9.15-.31-17.59,3.75-25.32-3.3-2.51-2.29-7.77-2.06-11.78-2.14-13-.24-26.08-.09-39.35-.09v-9.74l-.27.27h15.15l.86-15.12,15.1-.94V125l-.28.28h15.13l.86-15.43H339l-.27-.27v15.67h15.67l-.27-.27v14.91h30.3V109.57h-14.9Zm-31.07,61.29h30.29V156.53H339c0,5.39,0,10.13,0,14.88H324.09V186h14.67Z"/><path d="M122.92,17.8V124.46H16.09V17.8ZM31.4,33.11v76h75.86v-76Z"/><path d="M16.22,418.11H122.79V524.67H16.22Zm91.26,15.59H31.66v75.86h75.82Z"/><path d="M416.56,17.77H523.13V124.33H416.56Zm91,91.53V33.49H431.78v75.82Z"/><path d="M400.33,494.49v15.06l15,.9v14.21H370.18l-.89-14.08H354.52v14.16H308.7V494.92h14.1V479.09H277.15l.27.29q0-7.83,0-15.67l-.27.27h15.67V448.32l-.27.27h16v-15h15.16V464h30.72l-.27-.27v16H339.38V494h30.43V463.72l-.27.27h15.67l-.27-.27v31.07H400.6Z"/><path d="M77.25,263.53H46.69V217.31H30.81l.28.28V202l-.29.27H77.26V186.56l-.27.27,31.06-.28q0,7.84,0,15.69H93.14v30h30v-14.9l30.68,0-.31-.27v15.39l-14.14.95V248.6h14.07v30.35H138.57l.27.27V263.55H123.18l.27.27V248.44H77q0-7.46,0-14.94H62.38v14.67h14.9L77,263.82Z"/><path d="M384.91,202v30.36l15.14,1,.72,14.48h30.33c0,11.13,0,21.25,0,31.37l.29-.27H416.26l-.83-14.55h-15.1v30.21l.27-.27h-16v15H370.16l-1-15.28H343.19V248.85h10.7l.86,14.46,14.62.88.66,14.29h14.39V248H370.05l-.79-15.42h-26.1V217.47h26.08l.95-15.24h15Z"/><path d="M262,479.09H247l-.86-15.38H230.94l.29.27V448H261.4V433.52l-15-1.07V402.12h15.17l.86-15.4h15c0,15.22,0,30.45,0,46l15.13.89v15l.27-.27H277.15V464l.27-.27H261.75v15.67Z"/><path d="M61.89,294.58v-15l15.36-.87c0-5.23,0-10.2,0-15.17l-.27.29h46.46l-.27-.27v15.67l.27-.29H92.74v61.21H77.56V294.3h-16Z"/><path d="M446.53,325.43h30.42l.89,15h30.26V371.6l.29-.27-31.08.26V356.46l-14.89-.88-.82-14.77H446.52l.28-15.66Z"/><path d="M31.08,202H16.18V156.53H30.56l.63,14H61.28l.85-14.5H77.25l-.27-.29v31.07l.27-.27H30.79v15.67Z"/><path d="M462.2,201.94h-15l-1-14.94H416.64V171.81l14.13-.94V156.36l-14.25-.86V141h29.68v30.41h16l-.27-.29q0,15.53,0,31.07Z"/><path d="M169.66,340.81q0-7.83,0-15.67l-.29.27h14.89V309.74H169.37l.27.27V295.26h24.87c0,4.92,0,9.07,0,13.22s-.1,8.33,0,12.49c.35,12.11,5.77,19,17.67,21.71,6,1.38,12.26,2,18.9,3l-.48,10.1-14.49.64-1,14.88h-15l.28.28v-31h-31.1Z"/><path d="M477.32,171.46h30.35l1,14.87,14.18.69v30.32H508.12l.27.29v-16H493.16l-.65-14.5-14.92-1v-15Z"/><path d="M77.25,156.06v-15.4h61.59l-.27-.29v31.08H123.18c0-5,0-10,0-15.68H77Z"/><path d="M508.12,217.33V263H493.23l-.66-14.26-15-.9V217.36l-.29.27h31.07Z"/><path d="M492.67,417.77h15.06l.92,14.88,14.23.74v45.2h-14.3V449L493,448c0-10.24,0-20.39,0-30.53Z"/><path d="M61.61,294.3v15.08l-14.8.85-1,14.55H16.28V310.38l14.6-.94V279.54H45.94v15H61.89Z"/><path d="M138.84,140.66V95h30.5v14.81l.29-.27H153.8v30.8H138.57Z"/><path d="M446.5,309.74q0,7.85,0,15.69l.27-.29H416.34l-1-14.93-14.77-.82V294.34l-.27.27H431.4l-.27-.27V310H446.8Z"/><path d="M493.53,279.28h14.23v30l15.33,1v14.19H493.53Z"/><path d="M339,63.7V33.41h14.82l.89,14.47H369V63.41H338.71Z"/><path d="M169.66,325.14l-46.46,0,.28.28V309.74l-.29.27h46.46l-.27-.27v15.67Z"/><path d="M508.09,371.6H523v30.52H492.7l.29.27V387.25l15.4-.85V371.33Z"/><path d="M169.35,109.84h15.07l.86,15.4h15.18l-.29-.27V139.8H169.64V109.57Z"/><path d="M370.06,32.25V18H399.9V32.25Z"/><path d="M446.53,294.64h30.23v15.1H446.5l.29.27q0-7.83,0-15.67Z"/><path d="M46.21,386.68v14.91h-30V387H46.49Z"/><path d="M277.19,494.82H292v30H277.47V494.54Z"/><path d="M384.91,186.83h14.88V202H384.91l.29.27q0-7.83,0-15.67Z"/><path d="M123.2,325.09V340H108.55V325.38h14.93Z"/><path d="M154.27,356.21v-15.4h15.4l-.29-.27v15.4H154Z"/><path d="M462.2,171.46V156.58h15.13c0,4.93,0,9.9,0,14.88l.27-.29H461.92Z"/><path d="M507.46,155.71H493.6V141.16h13.86Z"/><path d="M108,371.65V356.77h14.64v14.59H107.75Z"/><path d="M154.27,371.33H139.39V356.21h14.88l-.29-.27V371.6Z"/><path d="M354.14,109.87l15.69,0-.29-.27V125h-15.4l.27.27q0-7.83,0-15.67Z"/><path d="M77,386.71v14.88H61.86c0-4.93,0-9.9,0-14.88l-.27.29H77.26Z"/><path d="M338.72,94.45h15.42c0,5.41,0,10.41,0,15.42l.27-.29H338.74l.27.27V94.17Z"/><path d="M399.93,63.06H385.78V48.74h14.14Z"/><path d="M200.13,32.62V47.45h-15V32.61l-.28.28h15.61Z"/><path d="M200.41,32.9V18h14.64V32.62H200.13Z"/><path d="M185.08,32.61,169,32.27l.3.26c0-4.69,0-9.37,0-14.62H184.8c0,5.07,0,10,0,15Z"/><path d="M446.83,279.18V264.37h14.6V278.9H446.55Z"/><path d="M123.47,294.61q0-7.85,0-15.69l-.27.29h15.67l-.27-.27v15.4h-15.4Z"/><path d="M446.55,278.9q0,7.87,0,15.74l.27-.29H431.13l.27.27q0-7.83,0-15.67l-.29.27,15.72,0Z"/><path d="M30.81,217.31v14.88H16.17V217.59H31.09Z"/><path d="M277.47,494.54H262c0-5.67,0-10.56,0-15.44l-.27.29h15.67l-.27-.29q0,7.86,0,15.72Z"/><path d="M123.47,309.74H108.59V294.61h14.88l-.29-.27V310Z"/><path d="M477.62,217.36H462.2c0-5.41,0-10.41,0-15.42l-.27.29h15.4v15.4Z"/><path d="M416.06,216.7V202.84H430.6V216.7Z"/><path d="M508.7,524.92V510.74H523v14.17Z"/><path class="cls-1" d="M123.18,310V294.34h15.4v-15.4h14.91V248.6H139.41V233.37l14.14-.95c0-5.36,0-10.37,0-15.38H185v31.18l8.42-.45c1.16-13.4.06-26.68,3.85-38.38,5.84-18,1-35.5,3.13-52.94H154.74v30.4h14.88l-.27-.27v15.07l-15.5,1V217.3l-30.67.05.26.28q0-7.83,0-15.66l-.27.27H138V186.56H123.18l.27.27q0-7.83,0-15.66l-.26.28h15.39V140.37H153.8v-30.8h15.84V139.8h30.52V125l15.65.3-.27-.27v30.36l15,.91,1,14.52H246l.86-14.25h15.19q0,15.09,0,30.25H231.14l.49,8.9h30.14v-9.18l15.65,0v9.74c13.27,0,26.32-.15,39.35.09,4,.07,9.27-.15,11.78,2.14,7.73,7,16.17,3,25.32,3.3l.7-15.27h30.62q0,7.83,0,15.67h-15l-.95,15.24H343.17V232.6h26.1l.79,15.42h14.36v30.46H370l-.66-14.29-14.62-.88-.86-14.46h-10.7V294.1h25.93l1,15.28h14.48v-15h16v15.05l14.77.82,1,14.93H446.8l-.28,15.66.28-.26-61.86.29c0-5,0-10,0-15.92H354V310.47H342.73c0,4.34.79,8.34-.17,11.88-1.7,6.25-2.79,14.87-7.2,17.66-6.08,3.86-15,3.65-22.72,4.4-6.5.63-13.1.13-20.31.13v26.52l-15.18.94v15l.26-.28h-15l-.86,15.4H246.37l.26.28q-.15-15.51-.3-31h14.93V345.26H246.61v26.39H231V402.4l.26-.28H200.52v30.44H169.94v-61H154V355.93h15.4v-15.4h31.1c0,10.8,0,20.92,0,31H185.54v14.59h14.64V371.29h15l1-14.88,14.49-.64.48-10.1c-6.64-1-12.86-1.58-18.9-3-11.9-2.73-17.32-9.61-17.67-21.71-.12-4.16,0-8.33,0-12.49s0-8.3,0-13.22H169.64V310Z"/><path class="cls-1" d="M246.37,402.12v30.33l15,1.07V448H231.23v16H200.95V448.92l14.47-.94V433.43l15.8-.7c0-10.37,0-20.49,0-30.61l-.26.28h15.66Z"/><path class="cls-1" d="M77.26,387H61.59V372.11H77.26Z"/><path class="cls-1" d="M231,494.49v14.9H216.31V494.76h14.94Z"/><path class="cls-1" d="M339,94.17v15.67H324l-.86,15.43H308c0-5,0-9.93,0-14.93H293.39V125h14.88v45.78l-15.1.94-.86,15.12H277.15c0-15,0-29.91,0-45.87h-30V109.54H262c0,5,0,9.93,0,14.93h14.59V109.82H261.71V94.61h46.53V78.8l-.27.27H323l.84,15.11Z"/><path class="cls-1" d="M215.81,125.27v-14.9h14.67V125H215.54Z"/><path class="cls-1" d="M308.24,78.8h-14.9V64.13H308q0,7.49,0,14.94Z"/><path class="cls-1" d="M292.55,448.59v-15l-15.13-.89c0-15.5,0-30.73,0-46l-.26.28,31.09-.27v16H293.18v14.4h61.37V387H385.2l-.28-.26v46H354.41V464H323.69v-30.4H308.54v15Z"/><path class="cls-1" d="M446.52,340.8h15.09l.82,14.77,14.89.88c0,5.21,0,10.17,0,15.14l.28-.26H461.93V387l.26-.28-77.26,0,.28.26V371.09h15.45V356.54H430.8l1,14.23h15V340.54Z"/><path class="cls-1" d="M401.15,402.67h45v45h-45Zm15.11,29.91H430.7V418.31H416.26Z"/><path class="cls-1" d="M508.39,371.33V386.4l-15.4.85V402.4h-30.8c0-5.69,0-10.68,0-15.68l-.26.28h15.66V371.33l-.28.26Z"/><path class="cls-1" d="M369.81,463.72V494H339.38V479.71h14.76v-16Z"/><path class="cls-1" d="M400.6,494.78H384.94V463.72H400.6Z"/><path class="cls-1" d="M385.21,464H369.54V449.1h15.67Z"/><path class="cls-1" d="M431.38,494.81v-14.9h14.67v14.63H431.11Z"/><path class="cls-1" d="M354.14,125h15.4v-15.4h14.9v30.31h-30.3Z"/><path class="cls-1" d="M339,171.41V156.53h30v14.61H338.76Z"/><path class="cls-1" d="M338.76,171.14V186H324.09V171.41H339Z"/><path class="cls-1" d="M338.74,109.57h15.67q0,7.83,0,15.67H338.74Z"/><path class="cls-1" d="M31.4,33.11h75.86v76H31.4ZM46.79,93.63h45v-45h-45Z"/><path class="cls-1" d="M107.48,433.71v75.86H31.66V433.71ZM91.84,494.18v-45h-45v45Z"/><path class="cls-1" d="M507.57,109.31H431.78V33.49h75.79Zm-15.4-15.45v-45h-45v45Z"/><path class="cls-1" d="M277.15,464V448.32h15.67V464Z"/><path class="cls-1" d="M277.42,479.39H261.75V463.72h15.67Q277.42,471.55,277.42,479.39Z"/><path class="cls-1" d="M77,155.77h46.2c0,5.69,0,10.68,0,15.68l.26-.28H107.78v15.66l.26-.28L77,186.83Z"/><path class="cls-1" d="M30.79,202.23V186.56H77.26v15.67Z"/><path class="cls-1" d="M123.18,217.35v14.9h-30v-30H108l-.26-.28v15.66h15.66Z"/><path class="cls-1" d="M123.45,263.82H77l.3-15.65-.27.27h46.44Z"/><path class="cls-1" d="M108,202.24q0-7.84,0-15.69l-.26.28h15.66l-.27-.27v15.66l.27-.27H107.78Z"/><path class="cls-1" d="M138.85,279.22H123.18V263.55h15.67Z"/><path class="cls-1" d="M77.28,248.17H62.38V233.5H77q0,7.49,0,14.94Z"/><path class="cls-1" d="M431.4,278.95q0,7.83,0,15.67H400.33V264.4h15.1l.83,14.55Z"/><path class="cls-1" d="M477.32,217.63v-15.4h-15.4q0-15.53,0-31.07h15.67v15l14.92,1,.65,14.5h15.22v16Z"/><path class="cls-1" d="M169.37,325.41V309.74h14.89v15.67Z"/><path class="cls-1" d="M431.13,294.34H446.8q0,7.83,0,15.67H431.13Z"/><path d="M446.79,340.54v30.23h-15l-1-14.23H400.65v14.54H385.2V387H354.55v30.08H293.18v-14.4h15.06v-16l-.29.27h15.14l.83,14.54H339V371.33l-.27.27h30.48l1-15.17,15-.83V340.54l-.27.29Z"/><path d="M308.24,386.73l-31.09.27V372l15.18-.94V344.54c7.21,0,13.81.5,20.31-.13,7.76-.75,16.64-.54,22.72-4.4,4.41-2.8,5.49-11.41,7.2-17.66,1-3.53.17-7.54.17-11.88H354v14.44h31c0,5.95,0,10.94,0,15.92l.27-.29H354.73l-1,15.17-15,.83V371.6l.27-.27H323.88L323,356.79h-15.1V387Z"/><path d="M169.62,186.86H154.74v-30.4h45.62c-2.17,17.45,2.71,34.92-3.13,52.94-3.79,11.7-2.69,25-3.85,38.38l-8.42.45V217.05h-31.4l.3.26c0-4.69,0-9.37,0-14.66l15.5-1c0-5.18,0-10.13,0-15.08h14.94V172H169.62Z"/><path d="M246.63,402.4H231c0-9.88,0-19.76,0-30.75h15.64l-.28-.28Z"/><path d="M246.61,371.65V345.26h14.65v26.11H246.32Z"/><path d="M261.77,186.51v9.18H231.63l-.49-8.9h30.92Z"/><path d="M107.78,202h15.66q0,7.83,0,15.66H107.78Z"/><path d="M123.18,202.23V186.56H138v15.66Z"/><path d="M123.44,186.83H107.78V171.17h15.66Q123.44,179,123.44,186.83Z"/><path d="M200.19,371.29v14.88H185.54V371.57h14.93Z"/><path d="M308.26,125H293.39V110.35H308c0,5,0,10,0,14.93Z"/><path d="M261.71,109.82h14.88v14.64H262c0-5,0-10,0-14.93Z"/><path d="M477.59,371.33V387H461.93V371.33Z"/><path d="M416.26,432.58V418.31H430.7v14.27Z"/><path d="M46.79,93.63v-45h45v45Z"/><path d="M91.84,494.18h-45v-45h45Z"/><path d="M492.17,93.86h-45v-45h45Z"/><path class="cls-1" d="M338.74,371.6V356.54l15-.83,1-15.17h30.48V355.6l-15,.83-1,15.17Z"/><path class="cls-1" d="M307.95,387V356.79H323l.83,14.54H339v30.21h-15.1L323.08,387Z"/><path class="cls-1" d="M169.62,186.86V172h14.67v14.63H169.35Z"/><rect class="cls-2" width="538.92" height="540.84"/><rect class="cls-1" x="194.38" y="195.34" width="150.16" height="150.16" rx="12" ry="12"/><polygon class="cls-3" points="316.98 273.77 300.26 273.77 298.32 277.56 308.36 277.56 311.95 284.81 289.66 284.81 300.77 262.45 303.66 268.22 314.2 268.22 306.11 252.11 294.54 252.11 276.92 287.41 269.38 272.4 281.5 272.4 291.61 252.11 255.61 252.11 247.33 268.6 235.96 268.6 244.22 252.11 232.92 252.11 214.52 288.74 225.87 288.74 234.05 272.4 245.44 272.4 237.23 288.74 248.57 288.74 265.02 255.91 279.1 255.91 272.49 268.6 261.54 268.6 259.09 273.5 266.64 288.74 324.4 288.74 316.98 273.77"/></g></g></svg>