<svg xmlns="http://www.w3.org/2000/svg" viewBox="0 0 271.92 155.25"><defs><style>.cls-1,.cls-2{fill:#10386b;}.cls-2{font-size:7.52px;font-family:FZHTJW--GB1-0, FZHTJW -GB1-0-GBpc-EUC-H;}.cls-3{fill:#231815;font-size:9px;}</style></defs><title>hitrobot_hrg_Up_and_down_combination_English</title><g id="图层_2" data-name="图层 2"><g id="图层_1-2" data-name="图层 1"><polygon class="cls-1" points="218.81 37.11 190.17 37.11 186.84 43.59 204.04 43.59 210.19 56.02 172.01 56.02 191.05 17.72 195.99 27.6 214.04 27.6 200.19 0 180.38 0 150.19 60.47 137.28 34.76 158.04 34.76 175.35 0 113.7 0 99.51 28.24 80.03 28.24 94.18 0 74.83 0 43.31 62.74 62.75 62.74 76.77 34.76 96.28 34.76 82.22 62.74 101.64 62.74 129.82 6.52 153.93 6.52 142.61 28.24 123.84 28.24 119.65 36.65 132.58 62.74 231.51 62.74 218.81 37.11"/><path class="cls-1" d="M9.87,84.88h1.61V99.51H9.87v-6.8H1.68v6.8H0V84.88H1.68v6.36H9.87Z"/><path class="cls-1" d="M21,84.88h1.61V99.51H21Z"/><path class="cls-1" d="M42.54,84.88v1.39h-5V99.51H35.89V86.28h-5V84.88Z"/><path class="cls-1" d="M74.56,99.51H72.29l-5-6.58H63.37v6.58H61.69V84.88h6.8q4.68.22,5,3.95,0,3.8-4.39,4.1ZM63.37,86.35v5.12h4.75q3.58-.07,3.58-2.7-.07-2.34-3.58-2.41Z"/><path class="cls-1" d="M88.74,99.73q-6.65-.37-6.94-7.24Q82.08,85,89,84.67q6.51.44,6.95,7.68Q95.61,99.44,88.74,99.73Zm.08-13.6q-4.83.44-5.34,6.21.29,5.63,5.19,6.07,5.12-.29,5.41-6.07Q93.64,86.57,88.81,86.13Z"/><path class="cls-1" d="M110.3,99.51h-6.07V84.88h5.7q4.39.22,4.68,3.66a3.26,3.26,0,0,1-2.92,3.22v.07a3.72,3.72,0,0,1,3.51,3.73Q115,99.36,110.3,99.51Zm-.73-13.16h-3.8v4.9h3.8q3-.14,3.29-2.63Q112.71,86.42,109.57,86.35Zm.22,6.36h-4v5.48h4.31q3.44,0,3.44-2.85Q113.3,92.86,109.79,92.71Z"/><path class="cls-1" d="M130.26,99.73q-6.65-.37-6.94-7.24.29-7.46,7.17-7.82,6.5.44,6.94,7.68Q137.12,99.44,130.26,99.73Zm.07-13.6q-4.83.44-5.34,6.21.29,5.63,5.19,6.07,5.12-.29,5.41-6.07Q135.15,86.57,130.33,86.13Z"/><path class="cls-1" d="M156.35,84.88v1.39h-5V99.51H149.7V86.28h-5V84.88Z"/><path class="cls-1" d="M182.22,92h6.29v5.34q-1.83,2.41-6.29,2.41-6.87-.37-7.24-7.31.29-7.46,6.95-7.75,4.9.07,6.51,4.31l-1.83.44a4.72,4.72,0,0,0-4.75-3.29q-4.68.44-5.12,6.21.36,5.63,5.41,6.07,3.29,0,4.75-1.75V93.37h-4.68Z"/><path class="cls-1" d="M210.15,99.51h-2.27l-5-6.58H199v6.58h-1.68V84.88h6.8q4.68.22,5,3.95,0,3.8-4.39,4.1ZM199,86.35v5.12h4.75q3.58-.07,3.58-2.7c-.05-1.56-1.24-2.36-3.58-2.41Z"/><path class="cls-1" d="M224.33,99.73q-6.65-.37-6.95-7.24.29-7.46,7.17-7.82,6.51.44,6.95,7.68Q231.2,99.44,224.33,99.73Zm.07-13.6q-4.83.44-5.34,6.21.29,5.63,5.19,6.07,5.12-.29,5.41-6.07Q229.23,86.57,224.4,86.13Z"/><path class="cls-1" d="M251.45,84.88v8.56q.07,6.36-5.85,6.29t-5.7-6.29V84.88h1.68v8.48q-.07,5.19,4,5,4.39.15,4.24-5V84.88Z"/><path class="cls-1" d="M266.87,93.59h-4.53v5.92h-1.61V84.88H267q4.46.22,4.9,4.32Q271.84,93.51,266.87,93.59Zm-.29-7.24h-4.24v5.78h4.24q3.51-.07,3.58-3Q270,86.42,266.58,86.35Z"/><text class="cls-2" transform="translate(121.6 152.7) scale(0.95 1)">■<tspan class="cls-3" x="7.52" y="0" xml:space="preserve"> 上下组合</tspan></text></g></g></svg>