<svg xmlns="http://www.w3.org/2000/svg" viewBox="0 0 455.42 123.41"><defs><style>.cls-1,.cls-3{fill:#fff;}.cls-1{stroke:#231815;stroke-width:0.24px;}.cls-2{fill:#040000;}</style></defs><title>hitrobot_hrg_zhongdao_black_route</title><g id="图层_2" data-name="图层 2"><g id="图层_1-2" data-name="图层 1"><rect class="cls-1" x="0.12" y="0.12" width="455.18" height="123.18"/><polygon class="cls-2" points="171.91 53.34 151.17 53.34 148.77 58.02 161.21 58.02 165.66 67.01 138.03 67.01 151.81 39.32 155.39 46.47 168.45 46.47 158.43 26.52 144.09 26.52 122.24 70.23 112.89 51.64 127.92 51.64 140.45 26.52 95.82 26.52 85.56 46.93 71.45 46.93 81.7 26.52 67.69 26.52 44.88 71.86 58.95 71.86 69.09 51.64 83.21 51.64 73.04 71.86 87.09 71.86 107.49 31.23 124.95 31.23 116.75 46.93 103.17 46.93 100.13 53.01 109.49 71.86 181.1 71.86 171.91 53.34"/><path class="cls-3" d="M55.07,65.59l2.73-2a3.41,3.41,0,1,1-2.73-1.36Z"/><circle class="cls-3" cx="57.1" cy="61.5" r="0.49" transform="translate(-25.52 76.25) rotate(-57.24)"/><circle class="cls-3" cx="61.15" cy="53.33" r="0.49" transform="translate(-16.79 75.9) rotate(-57.24)"/><circle class="cls-3" cx="59.13" cy="57.42" r="0.49" transform="translate(-21.13 76.15) rotate(-57.3)"/><circle class="cls-3" cx="91.49" cy="49.25" r="0.49" transform="translate(0.56 99.53) rotate(-57.23)"/><circle class="cls-3" cx="101.7" cy="28.82" r="0.49" transform="translate(22.44 98.76) rotate(-57.25)"/><circle class="cls-3" cx="107.87" cy="28.82" r="0.49" transform="translate(25.3 103.98) rotate(-57.27)"/><circle class="cls-3" cx="114.04" cy="28.82" r="0.49" transform="translate(28.14 109.17) rotate(-57.27)"/><circle class="cls-3" cx="120.21" cy="28.82" r="0.49" transform="translate(31.01 114.4) rotate(-57.29)"/><circle class="cls-3" cx="126.38" cy="28.82" r="0.49" transform="translate(33.81 119.55) rotate(-57.27)"/><circle class="cls-3" cx="99.66" cy="32.9" r="0.49" transform="translate(18.1 98.96) rotate(-57.28)"/><circle class="cls-3" cx="97.62" cy="36.99" r="0.49" transform="translate(13.64 98.99) rotate(-57.19)"/><circle class="cls-3" cx="95.58" cy="41.08" r="0.49" transform="translate(9.37 99.31) rotate(-57.3)"/><circle class="cls-3" cx="93.53" cy="45.16" r="0.49" transform="translate(4.93 99.37) rotate(-57.23)"/><circle class="cls-3" cx="132.55" cy="28.82" r="0.49" transform="translate(36.37 124.47) rotate(-57.11)"/><circle class="cls-3" cx="128.5" cy="36.98" r="0.49" transform="translate(27.83 124.99) rotate(-57.22)"/><circle class="cls-3" cx="126.47" cy="41.06" r="0.49" transform="translate(23.47 125.15) rotate(-57.22)"/><circle class="cls-3" cx="130.53" cy="32.9" r="0.49" transform="matrix(0.54, -0.84, 0.84, 0.54, 32.07, 124.69)"/><circle class="cls-3" cx="124.44" cy="45.14" r="0.49" transform="translate(19.08 125.29) rotate(-57.2)"/><circle class="cls-3" cx="122.42" cy="49.23" r="0.49" transform="translate(14.68 125.4) rotate(-57.17)"/><circle class="cls-3" cx="115.93" cy="49.23" r="0.49" transform="translate(11.72 119.95) rotate(-57.17)"/><circle class="cls-3" cx="109.45" cy="49.23" r="0.49" transform="translate(8.78 114.56) rotate(-57.2)"/><circle class="cls-3" cx="107.38" cy="53.48" r="0.49" transform="translate(4.23 114.71) rotate(-57.17)"/><circle class="cls-3" cx="109.57" cy="57.76" r="0.49" transform="translate(1.66 118.57) rotate(-57.2)"/><circle class="cls-3" cx="111.76" cy="62.05" r="0.49" transform="translate(-0.91 122.43) rotate(-57.23)"/><circle class="cls-3" cx="113.94" cy="66.33" r="0.49" transform="translate(-3.49 126.27) rotate(-57.25)"/><circle class="cls-3" cx="116.13" cy="70.62" r="0.49" transform="translate(-6.11 130.04) rotate(-57.23)"/><circle class="cls-3" cx="120.55" cy="70.62" r="0.49" transform="translate(-2 137.7) rotate(-59.06)"/><circle class="cls-3" cx="124.97" cy="70.62" r="0.49" transform="translate(0.14 141.49) rotate(-59.06)"/><circle class="cls-3" cx="129.38" cy="70.62" r="0.49" transform="translate(2.2 145.12) rotate(-58.99)"/><circle class="cls-3" cx="149.74" cy="28.82" r="0.49" transform="translate(46.7 141.23) rotate(-58.39)"/><circle class="cls-3" cx="147.7" cy="33" r="0.49" transform="translate(42.38 141.68) rotate(-58.49)"/><circle class="cls-3" cx="145.67" cy="37.18" r="0.49" transform="translate(37.89 141.98) rotate(-58.52)"/><circle class="cls-3" cx="141.6" cy="45.54" r="0.49" transform="translate(28.66 142.33) rotate(-58.43)"/><circle class="cls-3" cx="139.56" cy="49.72" r="0.49" transform="translate(24.24 142.72) rotate(-58.49)"/><circle class="cls-3" cx="137.53" cy="53.9" r="0.49" transform="translate(19.61 142.85) rotate(-58.43)"/><circle class="cls-3" cx="133.46" cy="62.26" r="0.49" transform="translate(10.58 143.43) rotate(-58.46)"/><circle class="cls-3" cx="131.42" cy="66.44" r="0.49" transform="translate(5.99 143.59) rotate(-58.41)"/><circle class="cls-3" cx="135.49" cy="58.08" r="0.49" transform="translate(15.15 143.22) rotate(-58.48)"/><circle class="cls-3" cx="143.63" cy="41.36" r="0.49" transform="translate(33.21 142.1) rotate(-58.44)"/><circle class="cls-3" cx="153.67" cy="28.82" r="0.49" transform="translate(49.73 145.61) rotate(-58.95)"/><circle class="cls-3" cx="155.57" cy="33" r="0.49" transform="translate(51.45 153.2) rotate(-61.08)"/><circle class="cls-3" cx="158.98" cy="40.59" r="3.41"/><polygon class="cls-3" points="155.82 38.19 156.34 34.72 159.3 36.53 157.09 36.4 155.82 38.19"/><circle class="cls-3" cx="63.18" cy="49.25" r="0.49" transform="translate(-12.42 75.75) rotate(-57.25)"/><circle class="cls-3" cx="68.84" cy="49.25" r="0.49" transform="translate(-9.82 80.51) rotate(-57.25)"/><circle class="cls-3" cx="80.17" cy="49.25" r="0.49" transform="translate(-4.62 90.04) rotate(-57.26)"/><circle class="cls-3" cx="85.83" cy="49.25" r="0.49" transform="translate(-2.03 94.77) rotate(-57.23)"/><circle class="cls-3" cx="74.5" cy="49.25" r="0.49" transform="translate(-7.23 85.24) rotate(-57.23)"/><path class="cls-2" d="M194.76,29.43h6.34v17h-1.72V44.76h-2.89v2.06h-1.72Zm4.61,13.68v-12h-2.89v12Zm11.41-16.48-.41.64a16.6,16.6,0,0,0,7,7.29c-.46.56-.9,1.11-1.32,1.67a21.12,21.12,0,0,1-6.67-7.37,22.74,22.74,0,0,1-6.77,7.49,18.08,18.08,0,0,0-1.25-1.51,19.57,19.57,0,0,0,7.18-8.22Zm-7.25,13.61h11.31v9.9H213V48.71h-7.68v1.43h-1.82Zm.93-4.81h9.66v1.67h-9.66ZM213,47V41.91h-7.68V47Z"/><path class="cls-2" d="M220.81,46.43h10.47v-16h-9.11V28.57h20.38v1.91h-9.16v16h10.5V48.3H220.81Z"/><path class="cls-2" d="M247.39,48.11q9.86-4.39,10.64-13.17H247.81V33.06h10.3q.06-3.21.06-6.48h2.08q0,3.22-.06,6.48h10.6v1.87H260.16q1.7,9.55,11.14,12.6a20.21,20.21,0,0,0-1.82,1.94,16.58,16.58,0,0,1-10.18-11.15q-1.86,7.25-10.44,11.63C248.55,49.52,248.06,48.9,247.39,48.11Z"/><path class="cls-2" d="M274.3,41.43a27,27,0,0,0,3.82-8.61h-3.58V31.2h3.73V26.49H280V31.2h3.35v1.62H280v4l1-1q1.84,1.67,2.89,2.72l-1.29,1.32q-1.47-1.63-2.56-2.7V49.8h-1.72V37a21.48,21.48,0,0,1-3.18,6.55Q274.71,42.46,274.3,41.43Zm12.6-11.6v7.91q0,8.56-4.28,12.41c-.45-.54-.92-1.09-1.41-1.62Q285,45.21,285,38.18V28h8.9V46c0,.8.28,1.2.84,1.2h.55c.51,0,.84-.45,1-1.34.16-1.23.27-2.55.34-4a18.39,18.39,0,0,0,1.81.77q-.21,2.37-.43,3.88-.38,2.54-2.44,2.54h-1.27c-1.53,0-2.3-.91-2.3-2.73V29.84Z"/><path class="cls-2" d="M302.07,36.51h9.66a7.16,7.16,0,0,0,.48-2.08l1.72.24a10.83,10.83,0,0,1-.42,1.84h5.21q-1-.69-2-1.36l1-1.07c1,.62,2,1.24,2.84,1.86l-.53.57h4.46v1.58h-9.23Q318,40.79,325,40.64q-.57,1-1,1.84l-1.22-.11v7.3h-1.68V48.37H316v1.29h-1.67V42.27H322q-6.84-.92-8.74-4.19h-.43q-1.34,2.85-8.68,4.19h7.65v7.39H310.1V48.37h-5v1.32h-1.67V42.42l-1.31.24q-.36-.72-.93-1.7,8-1,9.59-2.87h-8.66Zm1.29-8.71h8.39v7h-1.68V34h-5v1h-1.67Zm6.72,1.48h-5v3.25h5Zm0,14.47h-5v3.13h5Zm4.23-16h8.47v7.06h-1.68V34H316v.74h-1.67Zm6.79,1.48H316v3.25h5.12Zm0,14.47H316v3.13h5.12Z"/><path class="cls-2" d="M328.24,48q10.43-6,11-21.14h2.1a44.26,44.26,0,0,1-.5,4.88q3,12,11.15,15.74-1,1.1-1.77,2.08-7.1-4-10.13-14.22-2.62,9.85-10.37,14.48A19.72,19.72,0,0,0,328.24,48Z"/><path class="cls-2" d="M355.9,42.44H366.2V40.81h1.67v1.63h10.29V44h-8.42a24.39,24.39,0,0,0,9.3,4l-1.12,1.77a26.11,26.11,0,0,1-10-5.34V50H366.2V44.37a29,29,0,0,1-10,5.42c-.33-.49-.71-1-1.12-1.51a25.28,25.28,0,0,0,9.23-4.3H355.9Zm10.59-15.28,1.41-.86a15.77,15.77,0,0,1,1.84,2.44l-1.1.69h9.16v1.48h-9.06v1.7h8V34h-8v1.7h8v1.39h-8v1.75h9.13v1.48H360.44v.91h-1.68V32.7a27.67,27.67,0,0,1-2.51,2.59,9.82,9.82,0,0,0-1.15-1.58A25.49,25.49,0,0,0,361,26.58l1.65.74c-.44.74-.9,1.44-1.36,2.11H368A25.8,25.8,0,0,0,366.49,27.16Zm-6,5.46h6.63v-1.7h-6.63Zm0,3.08h6.63V34h-6.63Zm0,3.13h6.63V37.08h-6.63Z"/><path class="cls-2" d="M383.52,27.69h20.92V50h-1.82V48.82H385.34V50h-1.82Zm19.11,1.67H385.34V47.15h17.29Zm-16.12,4.23h8.95V30.15h1.77v3.44h4.59v1.63h-4.59v7.29q0,3.47-3.3,3.47-1.34,0-2.78,0c-.09-.56-.22-1.19-.38-1.89a23.72,23.72,0,0,0,2.73.19c1.31,0,2-.74,2-2.22V36.41a26.33,26.33,0,0,1-8.59,8,8.58,8.58,0,0,0-1.22-1.61,24.72,24.72,0,0,0,8.66-7.58h-7.8Z"/><path class="cls-2" d="M202.91,60.56h1.24V71.87h-1.24V66.61h-6.33v5.26h-1.3V60.56h1.3v4.92h6.33Z"/><path class="cls-2" d="M211.5,60.56h1.24V71.87H211.5Z"/><path class="cls-2" d="M228.17,60.56v1.07h-3.84V71.87H223V61.63h-3.85V60.56Z"/><path class="cls-2" d="M252.92,71.87h-1.76l-3.9-5.09h-3v5.09H243V60.56h5.26q3.62.17,3.85,3.05,0,2.94-3.39,3.17Zm-8.65-10.18v4h3.67c1.84,0,2.77-.74,2.77-2.09q-.06-1.81-2.77-1.87Z"/><path class="cls-2" d="M263.88,72q-5.15-.29-5.37-5.6.22-5.76,5.54-6,5,.34,5.37,5.93Q269.19,71.81,263.88,72Zm.05-10.52q-3.73.33-4.12,4.8.22,4.35,4,4.69,4-.23,4.18-4.69Q267.67,61.86,263.94,61.52Z"/><path class="cls-2" d="M280.55,71.87h-4.69V60.56h4.41q3.4.17,3.62,2.83a2.52,2.52,0,0,1-2.26,2.49v.06a2.87,2.87,0,0,1,2.71,2.89Q284.18,71.75,280.55,71.87ZM280,61.69h-2.94v3.79H280q2.32-.11,2.55-2C282.46,62.31,281.61,61.73,280,61.69Zm.17,4.92h-3.11v4.24h3.33q2.66,0,2.66-2.2Q282.87,66.72,280.16,66.61Z"/><path class="cls-2" d="M296,72q-5.15-.29-5.37-5.6.22-5.76,5.54-6,5,.34,5.37,5.93Q301.3,71.81,296,72ZM296,61.52q-3.73.33-4.12,4.8.22,4.35,4,4.69,4-.23,4.18-4.69Q299.77,61.86,296,61.52Z"/><path class="cls-2" d="M316.16,60.56v1.07h-3.84V71.87H311V61.63h-3.85V60.56Z"/><path class="cls-2" d="M336.16,66H341v4.13Q339.61,72,336.16,72q-5.31-.29-5.6-5.66.22-5.77,5.37-6a5,5,0,0,1,5,3.33l-1.42.34a3.64,3.64,0,0,0-3.67-2.54q-3.62.33-4,4.8.28,4.35,4.18,4.69a4.52,4.52,0,0,0,3.67-1.36V67.12h-3.62Z"/><path class="cls-2" d="M357.75,71.87H356l-3.9-5.09h-3v5.09h-1.3V60.56h5.26q3.62.17,3.85,3.05,0,2.94-3.39,3.17ZM349.1,61.69v4h3.68q2.77-.06,2.77-2.09-.06-1.81-2.77-1.87Z"/><path class="cls-2" d="M368.72,72q-5.15-.29-5.37-5.6.23-5.76,5.54-6,5,.34,5.37,5.93Q374,71.81,368.72,72Zm.05-10.52q-3.73.33-4.12,4.8.22,4.35,4,4.69,4-.23,4.19-4.69Q372.5,61.86,368.77,61.52Z"/><path class="cls-2" d="M389.68,60.56v6.61q.06,4.92-4.52,4.86t-4.41-4.86V60.56h1.3v6.56q-.05,4,3.11,3.9,3.4.11,3.28-3.9V60.56Z"/><path class="cls-2" d="M401.61,67.29H398.1v4.58h-1.24V60.56h4.86q3.45.17,3.79,3.34Q405.45,67.23,401.61,67.29Zm-.23-5.6H398.1v4.47h3.28c1.8,0,2.73-.81,2.77-2.32S403.15,61.73,401.38,61.69Z"/><rect class="cls-2" x="193.81" y="54.8" width="211.63" height="0.47"/><path class="cls-2" d="M45.46,85.31h6.43V81.67h1.43v3.64h6.49v7.61H58.45V92H53.32v6.21H51.89V92H46.83v.9H45.46Zm1.37,5.47h5.06V86.55H46.83Zm11.62-4.24H53.32v4.24h5.12Z"/><path class="cls-2" d="M78.83,92H90.48V90.77h1.35V92h3.61v1.18H91.83v2.72q0,2-2.17,2l-2.67,0c-.06-.41-.14-.89-.25-1.44q1.53.12,2.54.12,1.2,0,1.2-1V93.17H78.83Zm4.42-2.87H92q1.35,0,1.55-.85a14.68,14.68,0,0,0,.37-1.85q.55.25,1.32.52-.25,1.13-.47,1.85-.43,1.5-2.45,1.5H83a1.93,1.93,0,0,1-2.22-2.15V82.52h12V87.6H91.47V87H82.05v1Q82.05,89.11,83.25,89.12Zm-1.29,5,.82-.87q1.85,1.45,2.77,2.29l-1,1Q83.05,95,82,94.09Zm.08-10.41v2.2h9.41v-2.2Z"/><path class="cls-2" d="M113.32,92.17a18.74,18.74,0,0,0,2.66-6h-2.5V85h2.6V81.74h1.2V85h2.34v1.13h-2.34v2.77l.67-.67q1.29,1.17,2,1.9l-.9.92q-1-1.13-1.79-1.88V98h-1.2V89.07a15,15,0,0,1-2.22,4.57Q113.6,92.89,113.32,92.17Zm8.8-8.09V89.6q0,6-3,8.66-.47-.57-1-1.13,2.64-2.32,2.64-7.23V82.81H127V95.36q0,.83.58.83H128q.53,0,.68-.93.17-1.29.23-2.77a13.19,13.19,0,0,0,1.27.53q-.15,1.65-.3,2.7-.27,1.77-1.7,1.77h-.89q-1.6,0-1.6-1.9V84.07Z"/><path class="cls-2" d="M148.43,88.73h6.74a5,5,0,0,0,.33-1.45l1.2.17a7.67,7.67,0,0,1-.29,1.28H160q-.67-.48-1.41-1l.68-.75a23.61,23.61,0,0,1,2,1.3l-.38.4H164v1.1H157.6q1.93,1.89,6.84,1.78-.4.69-.68,1.29l-.85-.08v5.1h-1.17V97h-3.57v.9H157V92.75h5.32q-4.77-.64-6.1-2.92h-.3q-.93,2-6.06,2.92h5.34v5.16H154V97h-3.52v.92h-1.17V92.85l-.92.17q-.25-.5-.65-1.18,5.57-.72,6.69-2h-6Zm.9-6.07h5.86v4.86H154V87h-3.52v.68h-1.17Zm4.69,1h-3.52V86H154Zm0,10.1h-3.52V96H154Zm3-11.13h5.91v4.92h-1.17V87h-3.57v.52H157Zm4.74,1h-3.57V86h3.57Zm0,10.1h-3.57V96h3.57Z"/><path class="cls-2" d="M182.41,96.72q7.28-4.21,7.69-14.75h1.47a32.13,32.13,0,0,1-.35,3.4q2.07,8.35,7.78,11-.7.76-1.23,1.45-5-2.8-7.07-9.92A16,16,0,0,1,183.46,98,14.79,14.79,0,0,0,182.41,96.72Z"/><path class="cls-2" d="M216.87,93.59a18.64,18.64,0,0,0,2.87-5.69H217.1V86.71h2.74V84.26l-2.42.23a8.42,8.42,0,0,0-.33-1.24q3.24-.23,6.43-.73l.43,1.24q-1.5.2-2.85.35v2.6h2.65V87.9h-2.65v1.89l.73-.67q1.2,1,2.22,2l-.93,1q-1.07-1.2-2-2.09v8.18h-1.25V90.65A17.64,17.64,0,0,1,217.5,95C217.31,94.55,217.1,94.08,216.87,93.59Zm6-.88,6.54-.58V81.8h1.29V92l2.64-.25.1,1.2-2.74.25v5h-1.29V93.32l-6.41.58Zm1-4.29.8-.85q1.9,1.49,2.87,2.37l-.87,1Q225.91,90.13,223.89,88.41Zm1-4,.77-.83q1.85,1.42,3,2.49l-.87,1A36.71,36.71,0,0,0,224.88,84.41Z"/><path class="cls-2" d="M251.39,90.55l2.44-.71v-3.6h-2.22V85.09h2.22V81.86h1.29v3.24h2v1.15h-2v3.2l1.87-.61c0,.53,0,1,0,1.3l-1.9.61v5.38q0,1.77-1.67,1.79-.67,0-1.6,0-.1-.7-.22-1.42,1,.1,1.49.1.72,0,.72-.75V91.17l-2.27.77Zm6.19-1.23v-1.1h4.29V85.66h-4.35V84.44h4.35V81.76h1.34v2.69h4.54v1.22H263.2v2.55h3.55v1a13.54,13.54,0,0,1-3.35,5.41,13.15,13.15,0,0,0,4.65,2.25q-.63.74-1.07,1.29a17.23,17.23,0,0,1-4.6-2.68,21.74,21.74,0,0,1-5.13,2.81,14.07,14.07,0,0,0-.88-1.18,18.11,18.11,0,0,0,5.09-2.5,12.85,12.85,0,0,1-2.78-5.29Zm7.73,0H260a10.39,10.39,0,0,0,2.5,4.46A10.67,10.67,0,0,0,265.31,89.32Z"/><path class="cls-2" d="M290.67,98.09h-1.32V89.46a28.72,28.72,0,0,1-2.67,2.71c-.23-.39-.5-.8-.8-1.22a21.17,21.17,0,0,0,5-6h-4.56V83.74h5.19a18.07,18.07,0,0,0,.82-2.14l1.38.32q-.33.93-.73,1.82h9.43V85h-10q-.52,1-1.13,1.92h9.15v8.91a1.81,1.81,0,0,1-2,2.07l-2.69,0c-.06-.38-.14-.83-.25-1.37q1.53.12,2.47.12a1,1,0,0,0,1.15-1.13V94.32h-8.41Zm8.41-10h-8.41v2h8.41Zm-8.41,5.12h8.41v-2h-8.41Z"/><path class="cls-2" d="M326.31,91.63q.48,3.19-1.58,3.57a5.28,5.28,0,0,1-1.69,0,11.83,11.83,0,0,0-.37-1.4,4.25,4.25,0,0,0,1.53.13q1.14-.22.77-2.39a7.21,7.21,0,0,0-1.52-3q.6-1.82,1.57-4.86h-2.47V98.29H321.3V82.56h5.06v1.17q-.82,2.35-1.57,4.64A7.35,7.35,0,0,1,326.31,91.63Zm1.07-9h7.91v8.31h-1.23v-.45h-2.82a9.75,9.75,0,0,0,1.42,2.7,29.46,29.46,0,0,0,3.17-2.35l.88,1.05q-1.84,1.28-3.27,2.2a10.63,10.63,0,0,0,3.65,2.35A9.68,9.68,0,0,0,336,97.64a11.37,11.37,0,0,1-6-7.18h-1.44v5.67q1.12-.5,2.92-1.47a12.94,12.94,0,0,0,.08,1.32q-1.49.72-2.89,1.55a5.38,5.38,0,0,0-.9.7l-1-1.25a1.4,1.4,0,0,0,.5-1.1Zm6.68,1.13h-5.44V86h5.44Zm0,5.59V87.08h-5.44v2.25Z"/><path class="cls-2" d="M355,89.6a19.35,19.35,0,0,0,5.56-7.16l1.32.55A22.67,22.67,0,0,1,356,90.67,6.8,6.8,0,0,0,355,89.6Zm10.86,2.07q2.4,3.12,4.06,5.68l-1.27.83q-.47-.77-1-1.59-5.51.27-9,.54a12,12,0,0,0-1.54.28L356.39,96a4.25,4.25,0,0,0,1.39-.92A35.15,35.15,0,0,0,362,88.41l1.44.65A64.58,64.58,0,0,1,359,95.71q3.45-.11,7.8-.31-.95-1.44-2.09-3Zm-1.44-9,1.24-.49a13.19,13.19,0,0,0,6,6.91,11,11,0,0,0-1,1.3A15.8,15.8,0,0,1,364.38,82.69Z"/><path class="cls-2" d="M389.76,85.86h12.72V87.1H389.76Zm1-2V82.59h14.42v13q0,2.37-2.14,2.37l-3.29,0a8.75,8.75,0,0,0-.28-1.44q2,.12,3.19.12t1.15-1.34V83.82Zm.7,5.24h8.76V95h-7.44v1.22h-1.32Zm7.44,4.71v-3.5h-6.13v3.5Z"/></g></g></svg>