<svg xmlns="http://www.w3.org/2000/svg" xmlns:xlink="http://www.w3.org/1999/xlink" viewBox="0 0 455.3 162.98"><defs><style>.cls-1{fill:#10386b;}.cls-2{fill:#304475;}.cls-3{fill:#4a527f;}.cls-4{fill:#63638c;}.cls-5{fill:#79769a;}.cls-6{fill:#8f8aa9;}.cls-7{fill:#a6a1b9;}.cls-8{fill:#bcb7ca;}.cls-9{fill:#d3cfdc;}.cls-10{fill:#e9e7ee;}.cls-11,.cls-12{font-size:9.44px;}.cls-11,.cls-16{fill:#fff;}.cls-11{font-family:Myriad-Roman, Myriad Roman;}.cls-12{fill:#4c4948;font-family:FZXH1JW--GB1-0, FZXH1JW -GB1-0-GBpc-EUC-H;}.cls-13{fill:url(#linear-gradient);}.cls-14,.cls-15{fill:none;}.cls-14{stroke:#231815;stroke-width:0.24px;stroke-dasharray:3.8 2.85;}.cls-15{stroke:#fff;stroke-width:0.5px;stroke-dasharray:4 3;}</style><linearGradient id="linear-gradient" y1="117.1" x2="454.9" y2="117.1" gradientUnits="userSpaceOnUse"><stop offset="0" stop-color="#10386b"/><stop offset="1" stop-color="#fff"/></linearGradient></defs><title>hitrobot_hrg_logo_Standard_color_blue</title><g id="图层_2" data-name="图层 2"><g id="图层_1-2" data-name="图层 1"><rect class="cls-1" y="19.9" width="45.46" height="45.46"/><rect class="cls-2" x="45.46" y="19.9" width="45.46" height="45.46"/><rect class="cls-3" x="90.92" y="19.9" width="45.46" height="45.46"/><rect class="cls-4" x="136.38" y="19.9" width="45.46" height="45.46"/><rect class="cls-5" x="181.84" y="19.9" width="45.46" height="45.46"/><rect class="cls-6" x="227.3" y="19.9" width="45.46" height="45.46"/><rect class="cls-7" x="272.76" y="19.9" width="45.46" height="45.46"/><rect class="cls-8" x="318.22" y="19.9" width="45.46" height="45.46"/><rect class="cls-9" x="363.68" y="19.9" width="45.46" height="45.46"/><rect class="cls-10" x="409.15" y="19.9" width="45.46" height="45.46"/><text class="cls-11" transform="translate(11.37 45.5)">100%</text><text class="cls-11" transform="translate(287.27 45.5)">40%</text><text class="cls-11" transform="translate(242.25 45.5)">50%</text><text class="cls-12" transform="translate(0 8.31)">蓝色/CMYK C100 M90 Y40 K0</text><rect class="cls-13" y="84.66" width="454.9" height="64.87"/><line class="cls-14" x1="455.18" y1="79.07" x2="455.18" y2="157.18"/><line class="cls-15" x1="271.92" y1="74" x2="271.92" y2="162.98"/><polygon class="cls-16" points="160.33 118.82 148.54 118.82 147.17 121.49 154.25 121.49 156.78 126.61 141.07 126.61 148.9 110.84 150.94 114.9 158.37 114.9 152.67 103.54 144.51 103.54 132.08 128.44 126.77 117.85 135.32 117.85 142.44 103.54 117.06 103.54 111.22 115.17 103.19 115.17 109.02 103.54 101.05 103.54 88.08 129.37 96.08 129.37 101.85 117.85 109.88 117.85 104.1 129.37 112.09 129.37 123.69 106.22 133.62 106.22 128.96 115.17 121.23 115.17 119.51 118.63 124.83 129.37 165.57 129.37 160.33 118.82"/><polygon class="cls-1" points="399.75 118.82 387.95 118.82 386.59 121.49 393.67 121.49 396.2 126.61 380.48 126.61 388.32 110.84 390.35 114.9 397.79 114.9 392.08 103.54 383.93 103.54 371.5 128.44 366.18 117.85 374.73 117.85 381.86 103.54 356.47 103.54 350.63 115.17 342.61 115.17 348.44 103.54 340.47 103.54 327.49 129.37 335.49 129.37 341.27 117.85 349.3 117.85 343.51 129.37 351.51 129.37 363.11 106.22 373.04 106.22 368.37 115.17 360.65 115.17 358.92 118.63 364.25 129.37 404.98 129.37 399.75 118.82"/></g></g></svg>