<?xml version="1.0" encoding="utf-8"?>
<!-- Generator: Adobe Illustrator 21.1.0, SVG Export Plug-In . SVG Version: 6.00 Build 0)  -->
<svg version="1.1" id="图层_1" xmlns="http://www.w3.org/2000/svg" xmlns:xlink="http://www.w3.org/1999/xlink" x="0px" y="0px"
	 viewBox="0 0 600.5 350.6" style="enable-background:new 0 0 600.5 350.6;" xml:space="preserve">
<style type="text/css">
	.st0{fill:#040000;}
	.st1{fill:none;stroke:#FFFFFF;stroke-width:0.71;stroke-linecap:round;stroke-linejoin:round;}
	.st2{fill:#FFFFFF;}
	.st3{font-family:'AdobeSongStd-Light-GBpc-EUC-H';}
	.st4{font-size:18.38px;}
	.st5{font-family:'ArialMT';}
	.st6{font-size:11.03px;}
	.st7{font-family:'SimSun';}
	.st8{font-family:'Verdana';}
	.st9{letter-spacing:-1;}
	.st10{fill:none;}
	.st11{fill:#050000;}
	.st12{fill:none;stroke:#FFFFFF;stroke-width:0.99;stroke-linecap:round;stroke-linejoin:round;}
</style>
<title>hitrobot_Nameplate</title>
<g id="图层_2">
	<g id="图层_1-2">
		<rect x="0.3" y="0.4" class="st0" width="599.8" height="349.9"/>
		<g id="LINE">
			<line class="st1" x1="45.6" y1="235.6" x2="554.9" y2="235.6"/>
		</g>
		<g id="LINE-2">
			<line class="st1" x1="45.6" y1="274" x2="554.9" y2="274"/>
		</g>
		<g id="LINE-3">
			<line class="st1" x1="554.9" y1="235.6" x2="554.9" y2="312.4"/>
		</g>
		<g id="LINE-4">
			<line class="st1" x1="45.6" y1="235.6" x2="45.6" y2="312.4"/>
		</g>
		<g id="LINE-5">
			<line class="st1" x1="45.6" y1="312.4" x2="554.9" y2="312.4"/>
		</g>
		<g id="MTEXT">
			<text transform="matrix(1 0 0 1 46.97 143.015)" class="st2 st3 st4">无 人 托 盘 叉 车</text>
			<text transform="matrix(1 0 0 1 47.38 161.555)" class="st2 st5 st4">Unmanned</text>
			<text transform="matrix(1 0 0 1 137.28 161.555)" class="st2 st5 st4"> </text>
			<text transform="matrix(1 0 0 1 142.05 161.555)" class="st2 st5 st4">T</text>
			<text transform="matrix(1 0 0 1 152.59 161.555)" class="st2 st5 st4">ray Forklift</text>
		</g>
		<g id="LINE-6">
			<line class="st1" x1="300.2" y1="235.6" x2="300.2" y2="312.4"/>
		</g>
		<g id="MTEXT-2">
			<text transform="matrix(1 0 0 1 56.26 250.955)" class="st2 st3 st6">型号</text>
			<text transform="matrix(1 0 0 1 76.61 250.955)" class="st2 st7 st6">                  </text>
			<text transform="matrix(1 0 0 1 57.33 263.455)" class="st2 st8 st6 st9">T</text>
			<text transform="matrix(1 0 0 1 63.05 263.455)" class="st2 st8 st6">ype</text>
		</g>
		<g id="MTEXT-3">
			<text transform="matrix(1 0 0 1 56.26 289.455)" class="st2 st3 st6">叉车高度</text>
			<text transform="matrix(1 0 0 1 56.33 302.285)" class="st2 st8 st6">Height</text>
			<text transform="matrix(1 0 0 1 93.67 302.285)" class="st2 st7 st6">                  </text>
		</g>
		<g id="INSERT">
			<g id="INSERT-2">
				<g id="INSERT-3">
					<g id="POLYLINE">
						<polyline class="st10" points="157.8,68.5 140,68.5 138,72.6 148.6,72.6 152.4,80.3 128.8,80.3 140.6,56.5 143.6,62.6 
							154.8,62.6 146.2,45.5 133.9,45.5 115.2,83 107.2,67.1 120.1,67.1 130.8,45.5 92.6,45.5 83.7,63 71.7,63 80.4,45.5 68.4,45.5 
							48.9,84.4 60.9,84.4 69.6,67.1 81.7,67.1 73,84.4 85.1,84.4 102.6,49.6 117.5,49.6 110.5,63 98.9,63 96.2,68.3 104.3,84.4 
							165.7,84.4 157.8,68.5 						"/>
					</g>
					<g id="HATCH">
						<polygon class="st2" points="157.8,68.5 140,68.5 138,72.6 148.6,72.6 152.4,80.3 128.8,80.3 140.6,56.5 143.6,62.6 
							154.8,62.6 146.2,45.5 133.9,45.5 115.2,83 107.2,67.1 120.1,67.1 130.8,45.5 92.6,45.5 83.7,63 71.7,63 80.4,45.5 68.4,45.5 
							48.9,84.4 60.9,84.4 69.6,67.1 81.7,67.1 73,84.4 85.1,84.4 102.6,49.6 117.5,49.6 110.5,63 98.9,63 96.2,68.3 104.3,84.4 
							165.7,84.4 157.8,68.5 						"/>
					</g>
				</g>
			</g>
			<g id="SPLINE">
				<path class="st10" d="M57.6,79l2.3-1.8c1,1.3,0.7,3.1-0.6,4.1c-1.3,1-3.1,0.7-4.1-0.6c-1-1.3-0.7-3.1,0.6-4.1
					c0.5-0.4,1.1-0.6,1.8-0.6L57.6,79z"/>
			</g>
			<g id="HATCH-2">
				<path class="st11" d="M57.6,79l2.3-1.8c1,1.3,0.7,3.1-0.6,4.1c-1.3,1-3.1,0.7-4.1-0.6c-1-1.3-0.7-3.1,0.6-4.1
					c0.5-0.4,1.1-0.6,1.8-0.6L57.6,79z"/>
			</g>
			<g id="SPLINE-2">
				
					<ellipse transform="matrix(0.5408 -0.8412 0.8412 0.5408 -36.311 84.4725)" class="st10" cx="59.2" cy="75.5" rx="0.4" ry="0.4"/>
			</g>
			<g id="HATCH-3">
				
					<ellipse transform="matrix(0.5421 -0.8403 0.8403 0.5421 -36.2908 84.4527)" class="st11" cx="59.4" cy="75.5" rx="0.4" ry="0.4"/>
			</g>
			<g id="SPLINE-3">
				
					<ellipse transform="matrix(0.543 -0.8397 0.8397 0.543 -28.8542 84.0742)" class="st10" cx="62.8" cy="68.5" rx="0.4" ry="0.4"/>
			</g>
			<g id="HATCH-4">
				
					<ellipse transform="matrix(0.5424 -0.8401 0.8401 0.5424 -28.8404 84.1356)" class="st11" cx="62.8" cy="68.5" rx="0.4" ry="0.4"/>
			</g>
			<g id="SPLINE-4">
				
					<ellipse transform="matrix(0.5405 -0.8413 0.8413 0.5405 -32.5478 84.4855)" class="st10" cx="61.1" cy="72" rx="0.4" ry="0.4"/>
			</g>
			<g id="HATCH-5">
				<path class="st11" d="M61.3,71.7c0.2,0.1,0.2,0.4,0.1,0.6c-0.1,0.2-0.4,0.2-0.6,0.1c-0.2-0.1-0.2-0.4-0.1-0.6c0,0,0,0,0,0
					C60.9,71.6,61.1,71.6,61.3,71.7z"/>
			</g>
			<g id="SPLINE-5">
				
					<ellipse transform="matrix(0.5407 -0.8412 0.8412 0.5407 -13.9002 104.6038)" class="st10" cx="88.8" cy="65" rx="0.4" ry="0.4"/>
			</g>
			<g id="HATCH-6">
				
					<ellipse transform="matrix(0.5407 -0.8412 0.8412 0.5407 -13.9002 104.6038)" class="st11" cx="88.8" cy="65" rx="0.4" ry="0.4"/>
			</g>
			<g id="SPLINE-6">
				
					<ellipse transform="matrix(0.5416 -0.8407 0.8407 0.5416 4.8004 103.8316)" class="st10" cx="97.6" cy="47.5" rx="0.4" ry="0.4"/>
			</g>
			<g id="HATCH-7">
				<ellipse transform="matrix(0.541 -0.841 0.841 0.541 4.8395 103.8864)" class="st11" cx="97.6" cy="47.5" rx="0.4" ry="0.4"/>
			</g>
			<g id="SPLINE-7">
				
					<ellipse transform="matrix(0.5398 -0.8418 0.8418 0.5398 7.3545 108.4703)" class="st10" cx="102.9" cy="47.5" rx="0.4" ry="0.4"/>
			</g>
			<g id="HATCH-8">
				
					<ellipse transform="matrix(0.5402 -0.8415 0.8415 0.5402 7.3235 108.4219)" class="st11" cx="102.9" cy="47.5" rx="0.4" ry="0.4"/>
			</g>
			<g id="SPLINE-8">
				
					<ellipse transform="matrix(0.5407 -0.8412 0.8412 0.5407 9.7186 112.8367)" class="st10" cx="108.2" cy="47.5" rx="0.4" ry="0.4"/>
			</g>
			<g id="HATCH-9">
				
					<ellipse transform="matrix(0.5407 -0.8412 0.8412 0.5407 9.7186 112.8367)" class="st11" cx="108.2" cy="47.5" rx="0.4" ry="0.4"/>
			</g>
			<g id="SPLINE-9">
				
					<ellipse transform="matrix(0.5399 -0.8417 0.8417 0.5399 12.2077 117.3752)" class="st10" cx="113.5" cy="47.5" rx="0.4" ry="0.4"/>
			</g>
			<g id="HATCH-10">
				
					<ellipse transform="matrix(0.5399 -0.8417 0.8417 0.5399 12.2077 117.3752)" class="st11" cx="113.5" cy="47.5" rx="0.4" ry="0.4"/>
			</g>
			<g id="SPLINE-10">
				
					<ellipse transform="matrix(0.5398 -0.8418 0.8418 0.5398 14.6603 121.8354)" class="st10" cx="118.8" cy="47.5" rx="0.4" ry="0.4"/>
			</g>
			<g id="HATCH-11">
				
					<ellipse transform="matrix(0.5398 -0.8418 0.8418 0.5398 14.6603 121.8354)" class="st11" cx="118.8" cy="47.5" rx="0.4" ry="0.4"/>
			</g>
			<g id="SPLINE-11">
				<ellipse transform="matrix(0.5416 -0.8407 0.8407 0.5416 1.0478 103.9635)" class="st10" cx="95.8" cy="51" rx="0.4" ry="0.4"/>
			</g>
			<g id="HATCH-12">
				<ellipse transform="matrix(0.5432 -0.8396 0.8396 0.5432 0.9491 103.7706)" class="st11" cx="95.8" cy="51" rx="0.4" ry="0.4"/>
			</g>
			<g id="SPLINE-12">
				
					<ellipse transform="matrix(0.5423 -0.8402 0.8402 0.5423 -2.7473 104.0122)" class="st10" cx="94.1" cy="54.5" rx="0.4" ry="0.4"/>
			</g>
			<g id="HATCH-13">
				<path class="st11" d="M94.3,54.2c0.2,0.1,0.3,0.4,0.1,0.6c-0.1,0.2-0.4,0.3-0.6,0.1c-0.2-0.1-0.2-0.4-0.1-0.6
					C93.9,54.1,94.1,54,94.3,54.2z"/>
			</g>
			<g id="SPLINE-13">
				
					<ellipse transform="matrix(0.5383 -0.8427 0.8427 0.5383 -6.2717 104.6132)" class="st10" cx="92.3" cy="58" rx="0.4" ry="0.4"/>
			</g>
			<g id="HATCH-14">
				
					<ellipse transform="matrix(0.5414 -0.8408 0.8408 0.5414 -6.4393 104.2393)" class="st11" cx="92.3" cy="58" rx="0.4" ry="0.4"/>
			</g>
			<g id="SPLINE-14">
				
					<ellipse transform="matrix(0.5404 -0.8414 0.8414 0.5404 -10.1419 104.5045)" class="st10" cx="90.6" cy="61.5" rx="0.4" ry="0.4"/>
			</g>
			<g id="HATCH-15">
				
					<ellipse transform="matrix(0.542 -0.8404 0.8404 0.542 -10.2268 104.3241)" class="st11" cx="90.6" cy="61.5" rx="0.4" ry="0.4"/>
			</g>
			<g id="SPLINE-15">
				
					<ellipse transform="matrix(0.5414 -0.8408 0.8408 0.5414 16.9459 126.095)" class="st10" cx="124.1" cy="47.5" rx="0.4" ry="0.4"/>
			</g>
			<g id="HATCH-16">
				
					<ellipse transform="matrix(0.5435 -0.8394 0.8394 0.5435 16.7533 125.8353)" class="st11" cx="124.1" cy="47.5" rx="0.4" ry="0.4"/>
			</g>
			<g id="SPLINE-16">
				
					<ellipse transform="matrix(0.5398 -0.8418 0.8418 0.5398 9.6021 126.5961)" class="st10" cx="120.6" cy="54.5" rx="0.4" ry="0.4"/>
			</g>
			<g id="HATCH-17">
				
					<ellipse transform="matrix(0.5386 -0.8425 0.8425 0.5386 9.7066 126.7481)" class="st11" cx="120.6" cy="54.5" rx="0.4" ry="0.4"/>
			</g>
			<g id="SPLINE-17">
				
					<ellipse transform="matrix(0.5414 -0.8408 0.8408 0.5414 5.7257 126.5115)" class="st10" cx="118.8" cy="58" rx="0.4" ry="0.4"/>
			</g>
			<g id="HATCH-18">
				
					<ellipse transform="matrix(0.5414 -0.8408 0.8408 0.5414 5.7257 126.5115)" class="st11" cx="118.8" cy="58" rx="0.4" ry="0.4"/>
			</g>
			<g id="SPLINE-18">
				
					<ellipse transform="matrix(0.5429 -0.8398 0.8398 0.5429 13.0801 126.0343)" class="st10" cx="122.3" cy="51" rx="0.4" ry="0.4"/>
			</g>
			<g id="HATCH-19">
				<ellipse transform="matrix(0.5408 -0.8412 0.8412 0.5408 13.22 126.0178)" class="st11" cx="122" cy="50.9" rx="0.4" ry="0.4"/>
			</g>
			<g id="SPLINE-19">
				
					<ellipse transform="matrix(0.5421 -0.8403 0.8403 0.5421 1.9247 126.5632)" class="st10" cx="117.1" cy="61.5" rx="0.4" ry="0.4"/>
			</g>
			<g id="HATCH-20">
				
					<ellipse transform="matrix(0.5432 -0.8396 0.8396 0.5432 1.8444 126.4223)" class="st11" cx="117.1" cy="61.5" rx="0.4" ry="0.4"/>
			</g>
			<g id="SPLINE-20">
				
					<ellipse transform="matrix(0.5423 -0.8402 0.8402 0.5423 -1.8245 126.6818)" class="st10" cx="115.4" cy="65" rx="0.4" ry="0.4"/>
			</g>
			<g id="HATCH-21">
				
					<ellipse transform="matrix(0.5445 -0.8388 0.8388 0.5445 -1.9909 126.3789)" class="st11" cx="115.4" cy="65" rx="0.4" ry="0.4"/>
			</g>
			<g id="SPLINE-21">
				
					<ellipse transform="matrix(0.5408 -0.8412 0.8412 0.5408 -4.2733 121.9295)" class="st10" cx="109.5" cy="64.9" rx="0.4" ry="0.4"/>
			</g>
			<g id="HATCH-22">
				
					<ellipse transform="matrix(0.5445 -0.8388 0.8388 0.5445 -4.5169 121.7146)" class="st11" cx="109.8" cy="65" rx="0.4" ry="0.4"/>
			</g>
			<g id="SPLINE-22">
				
					<ellipse transform="matrix(0.5414 -0.8408 0.8408 0.5414 -6.8588 117.4494)" class="st10" cx="104.2" cy="65" rx="0.4" ry="0.4"/>
			</g>
			<g id="HATCH-23">
				<ellipse transform="matrix(0.5457 -0.838 0.838 0.5457 -7.115 116.8866)" class="st11" cx="104.2" cy="65" rx="0.4" ry="0.4"/>
			</g>
			<g id="SPLINE-23">
				
					<ellipse transform="matrix(0.5436 -0.8393 0.8393 0.5436 -10.8632 117.3363)" class="st10" cx="102.5" cy="68.7" rx="0.4" ry="0.4"/>
			</g>
			<g id="HATCH-24">
				
					<ellipse transform="matrix(0.5436 -0.8393 0.8393 0.5436 -10.8632 117.3363)" class="st11" cx="102.5" cy="68.7" rx="0.4" ry="0.4"/>
			</g>
			<g id="SPLINE-24">
				
					<ellipse transform="matrix(0.5394 -0.8421 0.8421 0.5394 -12.8449 121.1912)" class="st10" cx="104.3" cy="72.3" rx="0.4" ry="0.4"/>
			</g>
			<g id="HATCH-25">
				
					<ellipse transform="matrix(0.5394 -0.8421 0.8421 0.5394 -12.8449 121.1912)" class="st11" cx="104.3" cy="72.3" rx="0.4" ry="0.4"/>
			</g>
			<g id="SPLINE-25">
				
					<ellipse transform="matrix(0.5408 -0.8411 0.8411 0.5408 -15.1629 124.2601)" class="st10" cx="106.2" cy="76" rx="0.4" ry="0.4"/>
			</g>
			<g id="HATCH-26">
				
					<ellipse transform="matrix(0.5417 -0.8406 0.8406 0.5417 -15.2192 124.1366)" class="st11" cx="106.2" cy="76" rx="0.4" ry="0.4"/>
			</g>
			<g id="SPLINE-26">
				
					<ellipse transform="matrix(0.5426 -0.84 0.84 0.5426 -17.4827 127.2437)" class="st10" cx="108.1" cy="79.7" rx="0.4" ry="0.4"/>
			</g>
			<g id="HATCH-27">
				
					<ellipse transform="matrix(0.5411 -0.8409 0.8409 0.5411 -17.4139 127.478)" class="st11" cx="108.1" cy="79.7" rx="0.4" ry="0.4"/>
			</g>
			<g id="SPLINE-27">
				
					<ellipse transform="matrix(0.5402 -0.8415 0.8415 0.5402 -19.6002 130.8822)" class="st10" cx="110" cy="83.4" rx="0.4" ry="0.4"/>
			</g>
			<g id="HATCH-28">
				
					<ellipse transform="matrix(0.5402 -0.8415 0.8415 0.5402 -19.6002 130.8822)" class="st11" cx="110" cy="83.4" rx="0.4" ry="0.4"/>
			</g>
			<g id="SPLINE-28">
				
					<ellipse transform="matrix(0.5132 -0.8582 0.8582 0.5132 -16.1655 138.2072)" class="st10" cx="113.8" cy="83.4" rx="0.4" ry="0.4"/>
			</g>
			<g id="HATCH-29">
				
					<ellipse transform="matrix(0.5132 -0.8582 0.8582 0.5132 -16.1655 138.2072)" class="st11" cx="113.8" cy="83.4" rx="0.4" ry="0.4"/>
			</g>
			<g id="SPLINE-29">
				
					<ellipse transform="matrix(0.5129 -0.8584 0.8584 0.5129 -14.3076 141.5157)" class="st10" cx="117.6" cy="83.4" rx="0.4" ry="0.4"/>
			</g>
			<g id="HATCH-30">
				
					<ellipse transform="matrix(0.5129 -0.8584 0.8584 0.5129 -14.3076 141.5157)" class="st11" cx="117.6" cy="83.4" rx="0.4" ry="0.4"/>
			</g>
			<g id="SPLINE-30">
				
					<ellipse transform="matrix(0.5149 -0.8573 0.8573 0.5149 -12.5957 144.4547)" class="st10" cx="121.3" cy="83.4" rx="0.4" ry="0.4"/>
			</g>
			<g id="HATCH-31">
				
					<ellipse transform="matrix(0.5149 -0.8573 0.8573 0.5149 -12.5957 144.4547)" class="st11" cx="121.3" cy="83.4" rx="0.4" ry="0.4"/>
			</g>
			<g id="SPLINE-31">
				
					<ellipse transform="matrix(0.5237 -0.8519 0.8519 0.5237 25.6385 140.8767)" class="st10" cx="138.8" cy="47.5" rx="0.4" ry="0.4"/>
			</g>
			<g id="HATCH-32">
				
					<ellipse transform="matrix(0.5247 -0.8513 0.8513 0.5247 25.5193 140.7457)" class="st11" cx="138.8" cy="47.5" rx="0.4" ry="0.4"/>
			</g>
			<g id="SPLINE-32">
				<ellipse transform="matrix(0.5219 -0.853 0.853 0.5219 21.9376 141.3298)" class="st10" cx="137" cy="51.1" rx="0.4" ry="0.4"/>
			</g>
			<g id="HATCH-33">
				
					<ellipse transform="matrix(0.5219 -0.853 0.853 0.5219 21.4452 141.2178)" class="st11" cx="136.7" cy="51.5" rx="0.4" ry="0.4"/>
			</g>
			<g id="SPLINE-33">
				
					<ellipse transform="matrix(0.5223 -0.8527 0.8527 0.5223 18.0069 141.4951)" class="st10" cx="135.3" cy="54.7" rx="0.4" ry="0.4"/>
			</g>
			<g id="HATCH-34">
				
					<ellipse transform="matrix(0.5223 -0.8527 0.8527 0.5223 18.0069 141.4951)" class="st11" cx="135.3" cy="54.7" rx="0.4" ry="0.4"/>
			</g>
			<g id="SPLINE-34">
				
					<ellipse transform="matrix(0.5232 -0.8522 0.8522 0.5232 10.1272 141.8244)" class="st10" cx="131.8" cy="61.9" rx="0.4" ry="0.4"/>
			</g>
			<g id="HATCH-35">
				
					<ellipse transform="matrix(0.5232 -0.8522 0.8522 0.5232 10.1324 141.8232)" class="st11" cx="131.8" cy="61.9" rx="0.4" ry="0.4"/>
			</g>
			<g id="SPLINE-35">
				
					<ellipse transform="matrix(0.5219 -0.853 0.853 0.5219 6.3659 142.2435)" class="st10" cx="130.1" cy="65.4" rx="0.4" ry="0.4"/>
			</g>
			<g id="HATCH-36">
				
					<ellipse transform="matrix(0.5219 -0.853 0.853 0.5219 6.3659 142.2435)" class="st11" cx="130.1" cy="65.4" rx="0.4" ry="0.4"/>
			</g>
			<g id="SPLINE-36">
				
					<ellipse transform="matrix(0.5244 -0.8515 0.8515 0.5244 2.2567 142.0757)" class="st10" cx="128.3" cy="69" rx="0.4" ry="0.4"/>
			</g>
			<g id="HATCH-37">
				
					<ellipse transform="matrix(0.5244 -0.8515 0.8515 0.5244 2.2567 142.0757)" class="st11" cx="128.3" cy="69" rx="0.4" ry="0.4"/>
			</g>
			<g id="SPLINE-37">
				
					<ellipse transform="matrix(0.5241 -0.8516 0.8516 0.5241 -5.4936 142.5867)" class="st10" cx="124.8" cy="76.2" rx="0.4" ry="0.4"/>
			</g>
			<g id="HATCH-38">
				
					<ellipse transform="matrix(0.5231 -0.8523 0.8523 0.5231 -5.4099 142.732)" class="st11" cx="124.8" cy="76.2" rx="0.4" ry="0.4"/>
			</g>
			<g id="SPLINE-38">
				
					<ellipse transform="matrix(0.5265 -0.8502 0.8502 0.5265 -9.5396 142.4262)" class="st10" cx="123.1" cy="79.8" rx="0.4" ry="0.4"/>
			</g>
			<g id="HATCH-39">
				
					<ellipse transform="matrix(0.5291 -0.8486 0.8486 0.5291 -9.8747 142.6189)" class="st11" cx="123.6" cy="80.2" rx="0.4" ry="0.4"/>
			</g>
			<g id="SPLINE-39">
				
					<ellipse transform="matrix(0.5225 -0.8526 0.8526 0.5225 -1.4693 142.5987)" class="st10" cx="126.6" cy="72.6" rx="0.4" ry="0.4"/>
			</g>
			<g id="HATCH-40">
				
					<ellipse transform="matrix(0.5215 -0.8533 0.8533 0.5215 -1.3847 142.7606)" class="st11" cx="126.6" cy="72.6" rx="0.4" ry="0.4"/>
			</g>
			<g id="SPLINE-40">
				
					<ellipse transform="matrix(0.5226 -0.8525 0.8525 0.5226 14.0847 141.6712)" class="st10" cx="133.6" cy="58.3" rx="0.4" ry="0.4"/>
			</g>
			<g id="HATCH-41">
				
					<ellipse transform="matrix(0.5226 -0.8525 0.8525 0.5226 14.0847 141.6712)" class="st11" cx="133.6" cy="58.3" rx="0.4" ry="0.4"/>
			</g>
			<g id="SPLINE-41">
				
					<ellipse transform="matrix(0.518 -0.8554 0.8554 0.518 27.8791 144.5057)" class="st10" cx="142.2" cy="47.5" rx="0.4" ry="0.4"/>
			</g>
			<g id="HATCH-42">
				
					<ellipse transform="matrix(0.518 -0.8554 0.8554 0.518 27.8791 144.5057)" class="st11" cx="142.2" cy="47.5" rx="0.4" ry="0.4"/>
			</g>
			<g id="SPLINE-42">
				<path class="st10" d="M144,50.7c0.2,0.1,0.3,0.4,0.2,0.6c-0.1,0.2-0.4,0.3-0.6,0.2c-0.2-0.1-0.3-0.4-0.2-0.6
					S143.8,50.6,144,50.7C144,50.7,144,50.7,144,50.7z"/>
			</g>
			<g id="HATCH-43">
				
					<ellipse transform="matrix(0.4856 -0.8742 0.8742 0.4856 29.3079 151.9916)" class="st11" cx="143.8" cy="51.1" rx="0.4" ry="0.4"/>
			</g>
			<g id="SPLINE-43">
				<circle class="st10" cx="146.7" cy="57.6" r="2.9"/>
			</g>
			<g id="HATCH-44">
				<circle class="st11" cx="146.7" cy="57.6" r="2.9"/>
			</g>
			<g id="POLYLINE-2">
				<polyline class="st10" points="144,55.6 144.5,52.6 147,54.1 145.1,54 144,55.6 				"/>
			</g>
			<g id="HATCH-45">
				<polygon class="st11" points="144,55.6 144.5,52.6 147,54.1 145.1,54 144,55.6 				"/>
			</g>
			<g id="SPLINE-44">
				
					<ellipse transform="matrix(0.5386 -0.8425 0.8425 0.5386 -25.0043 84.3919)" class="st10" cx="64.6" cy="65" rx="0.4" ry="0.4"/>
			</g>
			<g id="HATCH-46">
				
					<ellipse transform="matrix(0.5386 -0.8425 0.8425 0.5386 -25.0043 84.3919)" class="st11" cx="64.6" cy="65" rx="0.4" ry="0.4"/>
			</g>
			<g id="SPLINE-45">
				<ellipse transform="matrix(0.5404 -0.8414 0.8414 0.5404 -22.815 88.303)" class="st10" cx="69.4" cy="65" rx="0.4" ry="0.4"/>
			</g>
			<g id="HATCH-47">
				<ellipse transform="matrix(0.5413 -0.8409 0.8409 0.5413 -22.839 88.2)" class="st11" cx="69.4" cy="65" rx="0.4" ry="0.4"/>
			</g>
			<g id="SPLINE-46">
				
					<ellipse transform="matrix(0.5404 -0.8414 0.8414 0.5404 -18.3533 96.4707)" class="st10" cx="79.1" cy="65" rx="0.4" ry="0.4"/>
			</g>
			<g id="HATCH-48">
				
					<ellipse transform="matrix(0.5407 -0.8412 0.8412 0.5407 -18.3588 96.4347)" class="st11" cx="79.1" cy="65" rx="0.4" ry="0.4"/>
			</g>
			<g id="SPLINE-47">
				<ellipse transform="matrix(0.5407 -0.8412 0.8412 0.5407 -16.1289 100.5219)" class="st10" cx="84" cy="65" rx="0.4" ry="0.4"/>
			</g>
			<g id="HATCH-49">
				<ellipse transform="matrix(0.5407 -0.8412 0.8412 0.5407 -16.1289 100.5219)" class="st11" cx="84" cy="65" rx="0.4" ry="0.4"/>
			</g>
			<g id="SPLINE-48">
				
					<ellipse transform="matrix(0.5407 -0.8412 0.8412 0.5407 -20.5886 92.3475)" class="st10" cx="74.3" cy="65" rx="0.4" ry="0.4"/>
			</g>
			<g id="HATCH-50">
				
					<ellipse transform="matrix(0.5407 -0.8412 0.8412 0.5407 -20.5886 92.3475)" class="st11" cx="74.3" cy="65" rx="0.4" ry="0.4"/>
			</g>
		</g>
		<g id="INSERT-4">
			<g id="INSERT-5">
				<g id="INSERT-6">
					<g id="INSERT-7">
						<g id="INSERT-8">
							<g id="POLYLINE-3">
								<polyline class="st10" points="177.4,48 182.8,48 182.8,62.6 181.4,62.6 181.4,61.2 178.9,61.2 178.9,62.9 177.4,62.9 
									177.4,48 								"/>
							</g>
							<g id="POLYLINE-4">
								<polyline class="st10" points="181.4,59.8 181.4,49.5 178.9,49.5 178.9,59.8 181.4,59.8 								"/>
							</g>
							<g id="SPLINE-49">
								<path class="st10" d="M191.1,45.6l-0.4,0.5c1.3,2.7,3.4,4.8,6,6.3c-0.4,0.5-0.8,1-1.1,1.4c-2.4-1.6-4.3-3.8-5.7-6.3
									c-1.4,2.5-3.4,4.7-5.8,6.4c-0.3-0.4-0.7-0.9-1.1-1.3c2.7-1.7,4.8-4.2,6.1-7H191.1z"/>
							</g>
							<g id="POLYLINE-5">
								<polyline class="st10" points="184.9,57.3 194.6,57.3 194.6,65.8 193.1,65.8 193.1,64.6 186.5,64.6 186.5,65.8 184.9,65.8 
									184.9,57.3 								"/>
							</g>
							<g id="POLYLINE-6">
								<polyline class="st10" points="185.7,53.2 194,53.2 194,54.6 185.7,54.6 185.7,53.2 								"/>
							</g>
							<g id="POLYLINE-7">
								<polyline class="st10" points="193.1,63.1 193.1,58.7 186.5,58.7 186.5,63.1 193.1,63.1 								"/>
							</g>
							<g id="HATCH-51">
								<path class="st2" d="M177.4,48h5.4v14.6h-1.5v-1.4h-2.5v1.8h-1.5L177.4,48L177.4,48z M181.4,59.7V49.5h-2.5v10.3L181.4,59.7
									z M191.2,45.6l-0.4,0.5c1.3,2.7,3.4,4.8,6,6.3c-0.4,0.5-0.8,1-1.1,1.4c-2.4-1.6-4.3-3.8-5.7-6.3c-1.4,2.5-3.4,4.7-5.8,6.4
									c-0.3-0.4-0.7-0.9-1.1-1.3c2.7-1.7,4.8-4.2,6.1-7.1L191.2,45.6z M184.9,57.3h9.7v8.5h-1.6v-1.2h-6.6v1.2h-1.6L184.9,57.3
									L184.9,57.3z M185.7,53.2h8.3v1.4h-8.3L185.7,53.2L185.7,53.2z M193.1,63.1v-4.4h-6.6v4.4H193.1z"/>
							</g>
						</g>
						<g id="INSERT-9">
							<g id="POLYLINE-8">
								<polyline class="st10" points="199.7,62.6 208.7,62.6 208.7,48.9 200.9,48.9 200.9,47.3 218.4,47.3 218.4,48.9 210.5,48.9 
									210.5,62.6 219.5,62.6 219.5,64.2 199.7,64.2 199.7,62.6 								"/>
							</g>
							<g id="HATCH-52">
								<polygon class="st2" points="199.7,62.6 208.7,62.6 208.7,48.9 200.9,48.9 200.9,47.3 218.4,47.3 218.4,48.9 210.5,48.9 
									210.5,62.6 219.5,62.6 219.5,64.2 199.7,64.2 199.7,62.6 								"/>
							</g>
						</g>
						<g id="INSERT-10">
							<g id="SPLINE-50">
								<path class="st10" d="M222.5,64c5.6-2.5,8.7-6.3,9.1-11.3h-8.8v-1.6h8.8c0-1.8,0.1-3.7,0.1-5.6h1.8c0,1.8,0,3.7-0.1,5.6h9.1
									v1.6h-9.1c1,5.5,4.2,9.1,9.6,10.8c-0.6,0.5-1.1,1.1-1.6,1.7c-4.3-1.6-7.5-5.2-8.7-9.6c-1.1,4.1-4.1,7.5-9,10
									C223.5,65.3,223.1,64.7,222.5,64z"/>
							</g>
							<g id="HATCH-53">
								<path class="st2" d="M222.5,64c5.6-2.5,8.7-6.3,9.1-11.3h-8.8v-1.6h8.8c0-1.8,0.1-3.7,0.1-5.6h1.8c0,1.8,0,3.7,0,5.6h9.1
									v1.6h-9.1c1,5.5,4.2,9.1,9.6,10.8c-0.6,0.5-1.1,1.1-1.6,1.7c-4.3-1.6-7.5-5.2-8.7-9.6c-1.1,4.1-4.1,7.5-9,10
									C223.5,65.3,223.1,64.7,222.5,64z"/>
							</g>
						</g>
						<g id="INSERT-11">
							<g id="SPLINE-51">
								<path class="st10" d="M245.6,58.3c1.5-2.2,2.6-4.7,3.3-7.4h-3.1v-1.4h3.2v-4h1.5v4h2.9v1.4h-2.9v3.4l0.8-0.8
									c1.1,1,1.9,1.7,2.5,2.3l-1.1,1.1c-0.8-0.9-1.6-1.7-2.2-2.3v10.8H249v-11c-0.6,2-1.5,3.9-2.7,5.6
									C246.1,59.5,245.9,58.9,245.6,58.3z"/>
							</g>
							<g id="SPLINE-52">
								<path class="st10" d="M256.4,48.4v6.8c0,4.9-1.2,8.4-3.7,10.6c-0.4-0.5-0.8-0.9-1.2-1.4c2.2-1.9,3.2-4.9,3.2-8.9v-8.7h7.6
									v15.4c0,0.7,0.2,1,0.7,1h0.5c0.4,0,0.7-0.4,0.8-1.2c0.1-1,0.2-2.2,0.3-3.4c0.5,0.3,1,0.5,1.5,0.7c-0.1,1.3-0.2,2.4-0.4,3.3
									c-0.2,1.4-0.9,2.2-2.1,2.2h-1.1c-1.3,0-2-0.8-2-2.3V48.4H256.4z"/>
							</g>
							<g id="HATCH-54">
								<path class="st2" d="M245.6,58.3c1.5-2.2,2.6-4.7,3.3-7.4h-3.1v-1.4h3.2v-4h1.5v4h2.9v1.4h-2.9v3.4l0.8-0.8
									c1,1,1.9,1.7,2.5,2.3l-1.1,1.1c-0.8-0.9-1.6-1.7-2.2-2.3v10.8H249v-11c-0.6,2-1.5,3.9-2.7,5.6
									C246.1,59.5,245.9,58.9,245.6,58.3z M256.4,48.4v6.8c0,4.9-1.2,8.4-3.7,10.6c-0.4-0.5-0.8-0.9-1.2-1.4
									c2.2-1.9,3.2-4.9,3.2-8.9v-8.7h7.6v15.4c0,0.7,0.2,1,0.7,1h0.5c0.4,0,0.7-0.4,0.8-1.2c0.1-1,0.2-2.2,0.3-3.4
									c0.5,0.2,1,0.5,1.6,0.7c-0.1,1.3-0.2,2.4-0.4,3.3c-0.2,1.4-0.9,2.2-2.1,2.2h-1.1c-1.3,0-2-0.8-2-2.3V48.4H256.4z"/>
							</g>
						</g>
						<g id="INSERT-12">
							<g id="SPLINE-53">
								<path class="st10" d="M269.4,54.1h8.3c0.2-0.6,0.4-1.2,0.4-1.8l1.5,0.2c-0.1,0.5-0.2,1.1-0.4,1.6h4.5
									c-0.5-0.4-1.1-0.8-1.7-1.2l0.8-0.9c0.9,0.5,1.7,1.1,2.4,1.6l-0.5,0.5h3.8v1.3h-7.9c1.6,1.5,4.4,2.3,8.4,2.2
									c-0.3,0.6-0.6,1.1-0.8,1.6l-1-0.1v6.3h-1.4v-1.1h-4.4v1.1H280V59h6.5c-3.9-0.5-6.4-1.7-7.5-3.6h-0.4
									c-0.8,1.7-3.3,2.9-7.5,3.6h6.6v6.3h-1.4v-1.1H272v1.1h-1.4v-6.2l-1.1,0.2c-0.2-0.4-0.5-0.9-0.8-1.5c4.6-0.6,7.3-1.4,8.2-2.5
									h-7.4L269.4,54.1z"/>
							</g>
							<g id="POLYLINE-9">
								<polyline class="st10" points="270.5,46.6 277.8,46.6 277.8,52.6 276.3,52.6 276.3,52 272,52 272,52.8 270.5,52.8 
									270.5,46.6 								"/>
							</g>
							<g id="POLYLINE-10">
								<polyline class="st10" points="276.3,47.9 272,47.9 272,50.7 276.3,50.7 276.3,47.9 								"/>
							</g>
							<g id="POLYLINE-11">
								<polyline class="st10" points="276.3,60.3 272,60.3 272,63 276.3,63 276.3,60.3 								"/>
							</g>
							<g id="POLYLINE-12">
								<polyline class="st10" points="280,46.6 287.2,46.6 287.2,52.7 285.8,52.7 285.8,52 281.4,52 281.4,52.6 280,52.6 280,46.6 
																	"/>
							</g>
							<g id="POLYLINE-13">
								<polyline class="st10" points="285.8,47.9 281.4,47.9 281.4,50.7 285.8,50.7 285.8,47.9 								"/>
							</g>
							<g id="POLYLINE-14">
								<polyline class="st10" points="285.8,60.3 281.4,60.3 281.4,63 285.8,63 285.8,60.3 								"/>
							</g>
							<g id="HATCH-55">
								<path class="st2" d="M269.4,54.1h8.3c0.2-0.6,0.4-1.2,0.4-1.8l1.5,0.2c-0.1,0.5-0.2,1.1-0.4,1.6h4.5
									c-0.5-0.4-1.1-0.8-1.7-1.2l0.8-0.9c0.8,0.5,1.7,1,2.4,1.6l-0.5,0.5h3.8v1.3h-7.9c1.6,1.5,4.4,2.3,8.4,2.2
									c-0.3,0.6-0.6,1.1-0.8,1.6l-1-0.1v6.3h-1.4v-1.1h-4.4v1.1H280V59h6.5c-3.9-0.5-6.4-1.7-7.5-3.6h-0.4
									c-0.8,1.7-3.3,2.9-7.5,3.6h6.6v6.3h-1.4v-1.1H272v1.1h-1.4v-6.2l-1.1,0.2c-0.2-0.4-0.5-0.9-0.8-1.5c4.6-0.6,7.3-1.4,8.2-2.5
									h-7.4L269.4,54.1z M270.5,46.6h7.2v6h-1.4V52H272v0.8h-1.4L270.5,46.6L270.5,46.6z M276.3,47.9H272v2.8h4.3L276.3,47.9
									L276.3,47.9z M276.3,60.3H272V63h4.3L276.3,60.3L276.3,60.3z M280,46.6h7.3v6h-1.4V52h-4.4v0.6H280V46.6z M285.8,47.9h-4.4
									v2.8h4.4L285.8,47.9L285.8,47.9z M285.8,60.3h-4.4V63h4.4V60.3z"/>
							</g>
						</g>
						<g id="INSERT-13">
							<g id="SPLINE-54">
								<path class="st10" d="M291.9,63.9c6-3.4,9.1-9.5,9.5-18.1h1.8c-0.1,1.4-0.2,2.8-0.4,4.2c1.7,6.8,4.9,11.3,9.6,13.5
									c-0.6,0.6-1.1,1.2-1.5,1.8c-4.1-2.3-7-6.4-8.7-12.2c-1.5,5.6-4.5,9.8-8.9,12.4C292.8,64.9,292.4,64.4,291.9,63.9z"/>
							</g>
							<g id="HATCH-56">
								<path class="st2" d="M291.9,63.9c6-3.4,9.1-9.5,9.5-18.1h1.8c-0.1,1.4-0.2,2.8-0.4,4.2c1.7,6.8,4.9,11.3,9.6,13.5
									c-0.6,0.6-1.1,1.2-1.5,1.8c-4.1-2.3-7-6.4-8.7-12.2c-1.5,5.6-4.5,9.8-8.9,12.4C292.8,65,292.4,64.4,291.9,63.9z"/>
							</g>
						</g>
						<g id="INSERT-14">
							<g id="SPLINE-55">
								<path class="st10" d="M315.6,59.2h8.8v-1.4h1.4v1.4h8.8v1.3h-7.2c2.4,1.7,5.1,2.9,8,3.4l-1,1.5c-3.2-0.9-6.1-2.4-8.6-4.6
									v4.8h-1.4v-4.8c-2.5,2.1-5.5,3.7-8.6,4.6c-0.3-0.4-0.6-0.9-1-1.3c2.9-0.7,5.6-1.9,7.9-3.7h-7.2L315.6,59.2z"/>
							</g>
							<g id="SPLINE-56">
								<path class="st10" d="M324.7,46.1l1.2-0.7c0.6,0.6,1.1,1.3,1.6,2.1l-0.9,0.6h7.9v1.3h-7.8v1.5h6.9V52h-6.9v1.5h6.9v1.2h-6.9
									v1.5h7.8v1.3h-14.9v0.8h-1.4v-7.3c-0.7,0.8-1.4,1.5-2.1,2.2c-0.3-0.5-0.6-0.9-1-1.3c2-1.7,3.7-3.8,5-6.1l1.4,0.6
									c-0.4,0.6-0.8,1.2-1.2,1.8h5.8C325.6,47.4,325.2,46.7,324.7,46.1z"/>
							</g>
							<g id="POLYLINE-15">
								<polyline class="st10" points="319.5,50.8 325.2,50.8 325.2,49.3 319.5,49.3 319.5,50.8 								"/>
							</g>
							<g id="POLYLINE-16">
								<polyline class="st10" points="319.5,53.4 325.2,53.4 325.2,52 319.5,52 319.5,53.4 								"/>
							</g>
							<g id="POLYLINE-17">
								<polyline class="st10" points="319.5,56.1 325.2,56.1 325.2,54.6 319.5,54.6 319.5,56.1 								"/>
							</g>
							<g id="HATCH-57">
								<path class="st2" d="M315.6,59.2h8.8v-1.4h1.4v1.4h8.8v1.3h-7.2c2.4,1.7,5.1,2.9,8,3.4l-1,1.5c-3.2-0.9-6.1-2.4-8.6-4.6v4.8
									h-1.4v-4.8c-2.5,2.1-5.5,3.7-8.6,4.6c-0.3-0.4-0.6-0.9-1-1.3c2.9-0.7,5.6-1.9,7.9-3.7h-7.2L315.6,59.2z M324.7,46.1l1.2-0.7
									c0.6,0.6,1.1,1.3,1.6,2.1l-1,0.6h7.9v1.3h-7.8v1.5h6.9V52h-6.9v1.5h6.9v1.2h-6.9v1.5h7.8v1.3h-14.9v0.8h-1.4v-7.3
									c-0.7,0.8-1.4,1.5-2.2,2.2c-0.3-0.5-0.6-0.9-1-1.3c2-1.7,3.7-3.8,5-6.1l1.4,0.6c-0.4,0.6-0.8,1.2-1.2,1.8h5.8
									C325.6,47.4,325.2,46.7,324.7,46.1L324.7,46.1z M319.5,50.8h5.7v-1.5h-5.7V50.8z M319.5,53.4h5.7V52h-5.7V53.4L319.5,53.4z
									 M319.5,56.1h5.7v-1.5h-5.7V56.1z"/>
							</g>
						</g>
						<g id="INSERT-15">
							<g id="POLYLINE-18">
								<polyline class="st10" points="339.3,46.5 357.3,46.5 357.3,65.7 355.7,65.7 355.7,64.7 340.9,64.7 340.9,65.7 339.3,65.7 
									339.3,46.5 								"/>
							</g>
							<g id="POLYLINE-19">
								<polyline class="st10" points="355.7,48 340.9,48 340.9,63.2 355.7,63.2 355.7,48 								"/>
							</g>
							<g id="SPLINE-57">
								<path class="st10" d="M341.9,51.6h7.7v-3h1.5v3h3.9V53h-3.9v6.3c0,2-0.9,3-2.8,3c-0.8,0-1.6,0-2.4,0c-0.1-0.5-0.2-1-0.3-1.6
									c0.8,0.1,1.6,0.2,2.3,0.2c1.1,0,1.7-0.6,1.7-1.9V54c-1.9,2.8-4.4,5.1-7.4,6.8c-0.3-0.5-0.6-1-1-1.4c2.9-1.6,5.5-3.8,7.4-6.5
									h-6.7L341.9,51.6z"/>
							</g>
							<g id="HATCH-58">
								<path class="st2" d="M339.3,46.5h18v19.1h-1.6v-1h-14.8v1h-1.6V46.5z M355.7,48h-14.8v15.2h14.8L355.7,48L355.7,48z
									 M341.9,51.6h7.7v-3h1.5v3h3.9V53h-3.9v6.3c0,2-0.9,3-2.8,3c-0.8,0-1.6,0-2.4,0c-0.1-0.5-0.2-1-0.3-1.6
									c0.8,0.1,1.6,0.2,2.3,0.2c1.1,0,1.7-0.6,1.7-1.9V54c-1.9,2.8-4.4,5.1-7.4,6.8c-0.3-0.5-0.6-1-1-1.4c3-1.6,5.5-3.8,7.4-6.5
									h-6.7L341.9,51.6z"/>
							</g>
						</g>
					</g>
					<g id="INSERT-16">
						<g id="INSERT-17">
							<g id="POLYLINE-20">
								<polyline class="st10" points="184.4,74.7 185.5,74.7 185.5,84.4 184.4,84.4 184.4,79.9 179,79.9 179,84.4 177.8,84.4 
									177.8,74.7 179,74.7 179,78.9 184.4,78.9 184.4,74.7 								"/>
							</g>
							<g id="HATCH-59">
								<polygon class="st2" points="184.4,74.7 185.5,74.7 185.5,84.4 184.4,84.4 184.4,79.9 179,79.9 179,84.4 177.8,84.4 
									177.8,74.7 179,74.7 179,78.9 184.4,78.9 184.4,74.7 								"/>
							</g>
						</g>
						<g id="INSERT-18">
							<g id="POLYLINE-21">
								<polyline class="st10" points="191.8,74.7 192.8,74.7 192.8,84.4 191.8,84.4 191.8,74.7 								"/>
							</g>
							<g id="HATCH-60">
								<polygon class="st2" points="191.8,74.7 192.8,74.7 192.8,84.4 191.8,84.4 191.8,74.7 								"/>
							</g>
						</g>
						<g id="INSERT-19">
							<g id="POLYLINE-22">
								<polyline class="st10" points="206.1,74.7 206.1,75.7 202.8,75.7 202.8,84.4 201.6,84.4 201.6,75.7 198.3,75.7 198.3,74.7 
									206.1,74.7 								"/>
							</g>
							<g id="HATCH-61">
								<polygon class="st2" points="206.1,74.7 206.1,75.7 202.8,75.7 202.8,84.4 201.6,84.4 201.6,75.7 198.3,75.7 198.3,74.7 
									206.1,74.7 								"/>
							</g>
						</g>
						<g id="INSERT-20">
							<g id="SPLINE-58">
								<path class="st10" d="M227.3,84.4h-1.5l-3.3-4.4h-2.6v4.4h-1.1v-9.7h4.5c2.1,0.1,3.2,1,3.3,2.6s-1,2.6-2.9,2.7L227.3,84.4z"
									/>
							</g>
							<g id="SPLINE-59">
								<path class="st10" d="M219.9,75.7v3.4h3.1c1.6,0,2.4-0.6,2.4-1.8s-0.8-1.6-2.4-1.6L219.9,75.7z"/>
							</g>
							<g id="HATCH-62">
								<path class="st2" d="M227.3,84.4h-1.5l-3.3-4.4h-2.6v4.4h-1.1v-9.7h4.5c2.1,0.1,3.2,1,3.3,2.6s-1,2.6-2.9,2.7L227.3,84.4z
									 M219.9,75.7v3.4h3.1c1.6,0,2.4-0.6,2.4-1.8s-0.8-1.6-2.4-1.6H219.9z"/>
							</g>
						</g>
						<g id="INSERT-21">
							<g id="SPLINE-60">
								<path class="st10" d="M236.7,84.6c-2.9-0.2-4.5-1.8-4.6-4.8c0.1-3.3,1.7-5,4.8-5.2c2.9,0.2,4.4,1.9,4.6,5.1
									C241.3,82.8,239.7,84.4,236.7,84.6z"/>
							</g>
							<g id="SPLINE-61">
								<path class="st10" d="M236.7,75.6c-2.1,0.2-3.3,1.6-3.5,4.1c0.1,2.5,1.3,3.8,3.4,4c2.3-0.1,3.5-1.5,3.6-4
									C240,77.1,238.9,75.7,236.7,75.6z"/>
							</g>
							<g id="HATCH-63">
								<path class="st2" d="M236.7,84.6c-2.9-0.2-4.5-1.8-4.6-4.8c0.1-3.3,1.7-5,4.8-5.2c2.9,0.2,4.4,1.9,4.6,5.1
									C241.3,82.8,239.7,84.4,236.7,84.6z M236.7,75.6c-2.1,0.2-3.3,1.6-3.5,4.1c0.1,2.5,1.3,3.8,3.4,4c2.3-0.1,3.5-1.5,3.6-4
									C240,77.1,238.9,75.7,236.7,75.6L236.7,75.6z"/>
							</g>
						</g>
						<g id="INSERT-22">
							<g id="SPLINE-62">
								<path class="st10" d="M251,84.4h-4v-9.7h3.8c1.9,0.1,3,0.9,3.1,2.4c0,1.1-0.8,2-1.9,2.1l0,0c1.3,0.1,2.3,1.2,2.3,2.5
									C254.1,83.5,253.1,84.4,251,84.4z"/>
							</g>
							<g id="SPLINE-63">
								<path class="st10" d="M250.5,75.7H248V79h2.5c1.3-0.1,2.1-0.6,2.2-1.7C252.6,76.2,251.9,75.7,250.5,75.7z"/>
							</g>
							<g id="SPLINE-64">
								<path class="st10" d="M250.6,79.9H248v3.6h2.9c1.5,0,2.3-0.6,2.3-1.9C253,80.6,252.2,80,250.6,79.9z"/>
							</g>
							<g id="HATCH-64">
								<path class="st2" d="M251,84.4h-4v-9.7h3.8c1.9,0.1,3,0.9,3.1,2.4c0,1.1-0.8,2-1.9,2.1l0,0c1.3,0.1,2.3,1.2,2.3,2.5
									C254.1,83.5,253.1,84.4,251,84.4z M250.5,75.7H248V79h2.5c1.3-0.1,2.1-0.6,2.2-1.7C252.6,76.2,251.9,75.7,250.5,75.7
									L250.5,75.7z M250.7,79.9H248v3.6h2.9c1.5,0,2.3-0.6,2.3-1.9C253,80.6,252.2,80,250.7,79.9L250.7,79.9z"/>
							</g>
						</g>
						<g id="INSERT-23">
							<g id="SPLINE-65">
								<path class="st10" d="M264.2,84.6c-2.9-0.2-4.5-1.8-4.6-4.8c0.1-3.3,1.7-5,4.8-5.2c2.9,0.2,4.4,1.9,4.6,5.1
									C268.9,82.8,267.3,84.4,264.2,84.6z"/>
							</g>
							<g id="SPLINE-66">
								<path class="st10" d="M264.3,75.6c-2.1,0.2-3.3,1.6-3.5,4.1c0.1,2.5,1.3,3.8,3.4,4c2.3-0.1,3.5-1.5,3.6-4
									C267.6,77.1,266.4,75.7,264.3,75.6z"/>
							</g>
							<g id="HATCH-65">
								<path class="st2" d="M264.2,84.6c-2.9-0.2-4.5-1.8-4.6-4.8c0.1-3.3,1.7-5,4.8-5.2c2.9,0.2,4.4,1.9,4.6,5.1
									C268.8,82.8,267.3,84.4,264.2,84.6z M264.2,75.6c-2.1,0.2-3.3,1.6-3.5,4.1c0.1,2.5,1.3,3.8,3.4,4c2.3-0.1,3.5-1.5,3.6-4
									C267.6,77.1,266.4,75.7,264.2,75.6L264.2,75.6z"/>
							</g>
						</g>
						<g id="INSERT-24">
							<g id="POLYLINE-23">
								<polyline class="st10" points="281.5,74.7 281.5,75.7 278.2,75.7 278.2,84.4 277.1,84.4 277.1,75.7 273.8,75.7 273.8,74.7 
									281.5,74.7 								"/>
							</g>
							<g id="HATCH-66">
								<polygon class="st2" points="281.5,74.7 281.5,75.7 278.2,75.7 278.2,84.4 277.1,84.4 277.1,75.7 273.8,75.7 273.8,74.7 
									281.5,74.7 								"/>
							</g>
						</g>
						<g id="INSERT-25">
							<g id="SPLINE-67">
								<path class="st10" d="M298.7,79.4h4.2V83c-0.8,1.1-2.2,1.6-4.2,1.6c-3-0.2-4.6-1.8-4.8-4.8c0.1-3.3,1.7-5,4.6-5.1
									c1.9-0.1,3.7,1,4.3,2.9l-1.2,0.3c-0.4-1.4-1.7-2.3-3.1-2.2c-2.1,0.2-3.2,1.6-3.4,4.1c0.2,2.5,1.4,3.8,3.6,4
									c1.2,0.1,2.3-0.3,3.1-1.2v-2.2h-3.1V79.4z"/>
							</g>
							<g id="HATCH-67">
								<path class="st2" d="M298.7,79.4h4.2V83c-0.8,1.1-2.2,1.6-4.2,1.6c-3-0.2-4.6-1.8-4.8-4.8c0.1-3.3,1.7-5,4.6-5.1
									c1.9-0.1,3.7,1,4.3,2.9l-1.2,0.3c-0.4-1.4-1.7-2.3-3.1-2.2c-2.1,0.2-3.2,1.6-3.4,4.1c0.2,2.5,1.4,3.8,3.6,4
									c1.2,0.1,2.3-0.3,3.1-1.2v-2.2h-3.1L298.7,79.4z"/>
							</g>
						</g>
						<g id="INSERT-26">
							<g id="SPLINE-68">
								<path class="st10" d="M317.2,84.4h-1.5l-3.4-4.4h-2.6v4.4h-1.1v-9.7h4.5c2.1,0.1,3.2,1,3.3,2.6s-1,2.6-2.9,2.7L317.2,84.4z"
									/>
							</g>
							<g id="SPLINE-69">
								<path class="st10" d="M309.8,75.7v3.4h3.1c1.6,0,2.4-0.6,2.4-1.8c0-1-0.8-1.6-2.4-1.6L309.8,75.7z"/>
							</g>
							<g id="HATCH-68">
								<path class="st2" d="M317.2,84.4h-1.5l-3.4-4.4h-2.6v4.4h-1.1v-9.7h4.5c2.1,0.1,3.2,1,3.3,2.6s-1,2.6-2.9,2.7L317.2,84.4z
									 M309.8,75.7v3.4h3.1c1.6,0,2.4-0.6,2.4-1.8c0-1-0.8-1.6-2.4-1.6H309.8z"/>
							</g>
						</g>
						<g id="INSERT-27">
							<g id="SPLINE-70">
								<path class="st10" d="M326.6,84.6c-2.9-0.2-4.5-1.8-4.6-4.8c0.1-3.3,1.7-5,4.8-5.2c2.9,0.2,4.4,1.9,4.6,5.1
									C331.2,82.8,329.6,84.4,326.6,84.6z"/>
							</g>
							<g id="SPLINE-71">
								<path class="st10" d="M326.6,75.6c-2.1,0.2-3.3,1.6-3.5,4.1c0.1,2.5,1.3,3.8,3.4,4c2.3-0.1,3.5-1.5,3.6-4
									C330,77.1,328.8,75.7,326.6,75.6z"/>
							</g>
							<g id="HATCH-69">
								<path class="st2" d="M326.6,84.6c-2.9-0.2-4.5-1.8-4.6-4.8c0.1-3.3,1.7-5,4.8-5.2c2.9,0.2,4.4,1.9,4.6,5.1
									C331.2,82.8,329.6,84.4,326.6,84.6z M326.6,75.6c-2.1,0.2-3.3,1.6-3.5,4.1c0.1,2.5,1.3,3.8,3.5,4c2.3-0.1,3.5-1.5,3.6-4
									C330,77.1,328.8,75.7,326.6,75.6L326.6,75.6z"/>
							</g>
						</g>
						<g id="INSERT-28">
							<g id="SPLINE-72">
								<path class="st10" d="M344.6,74.7v5.7c0,2.8-1.3,4.2-3.9,4.2c-2.5,0-3.8-1.4-3.8-4.2v-5.7h1.1v5.6c0,2.3,0.9,3.4,2.7,3.3
									c1.9,0.1,2.9-1.1,2.8-3.3v-5.6H344.6z"/>
							</g>
							<g id="HATCH-70">
								<path class="st2" d="M344.6,74.7v5.7c0,2.8-1.3,4.2-3.9,4.2c-2.5,0-3.8-1.4-3.8-4.2v-5.7h1.1v5.6c0,2.3,0.9,3.4,2.7,3.3
									c1.9,0.1,2.9-1.1,2.8-3.3v-5.6H344.6z"/>
							</g>
						</g>
						<g id="INSERT-29">
							<g id="SPLINE-73">
								<path class="st10" d="M354.8,80.5h-3v3.9h-1.1v-9.7h4.2c2,0.1,3.1,1.1,3.2,2.9C358.1,79.5,357,80.5,354.8,80.5z"/>
							</g>
							<g id="SPLINE-74">
								<path class="st10" d="M354.6,75.7h-2.8v3.8h2.8c1.5,0,2.4-0.7,2.4-2S356.1,75.7,354.6,75.7z"/>
							</g>
							<g id="HATCH-71">
								<path class="st2" d="M354.8,80.5h-3v3.9h-1.1v-9.7h4.2c2,0.1,3.1,1.1,3.2,2.9C358.1,79.5,357,80.5,354.8,80.5z M354.6,75.7
									h-2.8v3.8h2.8c1.5,0,2.4-0.7,2.4-2S356.1,75.7,354.6,75.7z"/>
							</g>
						</g>
					</g>
					<g id="INSERT-30">
						<g id="POLYLINE-24">
							<polyline class="st10" points="358.1,70.2 176.6,70.2 176.6,69.8 358.1,69.8 358.1,70.2 							"/>
						</g>
						<g id="HATCH-72">
							<polygon class="st2" points="358.1,70.2 176.6,70.2 176.6,69.8 358.1,69.8 358.1,70.2 							"/>
						</g>
					</g>
				</g>
			</g>
			<g id="INSERT-31">
				<g id="POLYLINE-25">
					<polyline class="st10" points="49.4,96 54.9,96 54.9,92.8 56.1,92.8 56.1,96 61.7,96 61.7,102.5 60.5,102.5 60.5,101.7 
						56.1,101.7 56.1,107 54.9,107 54.9,101.7 50.5,101.7 50.5,102.5 49.4,102.5 49.4,96 					"/>
				</g>
				<g id="POLYLINE-26">
					<polyline class="st10" points="50.5,100.7 54.9,100.7 54.9,97 50.5,97 50.5,100.7 					"/>
				</g>
				<g id="POLYLINE-27">
					<polyline class="st10" points="60.5,97 56.1,97 56.1,100.7 60.5,100.7 60.5,97 					"/>
				</g>
				<g id="HATCH-73">
					<path class="st2" d="M49.4,96h5.5v-3.2h1.2V96h5.6v6.5h-1.2v-0.8h-4.4v5.3h-1.2v-5.3h-4.3v0.8h-1.2V96z M50.5,100.7h4.3V97
						h-4.3L50.5,100.7L50.5,100.7z M60.5,97h-4.4v3.6h4.4V97z"/>
				</g>
				<g id="SPLINE-75">
					<path class="st10" d="M78,101.7h10v-1h1.2v1h3.1v1h-3.1v2.3c0,1.1-0.6,1.7-1.9,1.7H85c0-0.3-0.1-0.8-0.2-1.2
						c0.9,0.1,1.6,0.1,2.2,0.1c0.7,0,1-0.3,1-0.9v-2H78V101.7z"/>
				</g>
				<g id="SPLINE-76">
					<path class="st10" d="M81.8,99.2h7.5c0.8,0,1.2-0.2,1.3-0.7c0.1-0.5,0.2-1.1,0.3-1.6c0.3,0.1,0.7,0.3,1.1,0.4
						c-0.1,0.7-0.3,1.2-0.4,1.6c-0.2,0.9-0.9,1.3-2.1,1.3h-8c-0.9,0.1-1.8-0.5-1.9-1.4c0-0.2,0-0.3,0-0.5v-4.8h10.3v4.3h-1.1v-0.5
						h-8.1v0.8C80.7,98.9,81.1,99.2,81.8,99.2z"/>
				</g>
				<g id="SPLINE-77">
					<path class="st10" d="M80.7,103.5l0.7-0.7c1.1,0.8,1.9,1.5,2.4,2l-0.8,0.8C82,104.7,81.3,104,80.7,103.5z"/>
				</g>
				<g id="POLYLINE-28">
					<polyline class="st10" points="80.7,94.6 80.7,96.5 88.8,96.5 88.8,94.6 80.7,94.6 					"/>
				</g>
				<g id="HATCH-74">
					<path class="st2" d="M78,101.7h10v-1h1.2v1h3.1v1h-3.1v2.3c0,1.1-0.6,1.7-1.9,1.7H85c0-0.4-0.1-0.8-0.2-1.2
						c0.9,0.1,1.6,0.1,2.2,0.1c0.7,0,1-0.3,1-0.9v-2H78V101.7z M81.8,99.2h7.5c0.8,0,1.2-0.2,1.3-0.7c0.1-0.5,0.2-1.1,0.3-1.6
						c0.3,0.1,0.7,0.3,1.1,0.4c-0.1,0.7-0.3,1.2-0.4,1.6c-0.2,0.9-1,1.3-2.1,1.3h-8c-0.9,0.1-1.8-0.5-1.9-1.4c0-0.2,0-0.3,0-0.5
						v-4.8h10.3v4.3h-1.1v-0.5h-8.1v0.8C80.7,98.9,81.1,99.2,81.8,99.2L81.8,99.2z M80.7,103.5l0.7-0.7c1.1,0.8,1.9,1.5,2.4,2
						l-0.8,0.8C82,104.7,81.3,104,80.7,103.5L80.7,103.5z M80.8,94.6v1.9h8.1v-1.9L80.8,94.6z"/>
				</g>
				<g id="SPLINE-78">
					<path class="st10" d="M107.6,101.8c1.1-1.6,1.8-3.3,2.3-5.2h-2.1v-1h2.2v-2.8h1v2.8h2v1h-2v2.4l0.6-0.6
						c0.7,0.7,1.3,1.2,1.7,1.6l-0.8,0.8c-0.6-0.7-1.1-1.2-1.5-1.6v7.6h-1v-7.7c-0.4,1.4-1,2.7-1.9,3.9
						C107.9,102.7,107.7,102.3,107.6,101.8z"/>
				</g>
				<g id="SPLINE-79">
					<path class="st10" d="M115.1,94.9v4.7c0,3.4-0.9,5.9-2.6,7.4c-0.3-0.3-0.6-0.7-0.8-1c1.5-1.3,2.3-3.4,2.3-6.2v-6.1h5.3v10.8
						c0,0.5,0.2,0.7,0.5,0.7h0.3c0.3,0,0.5-0.3,0.6-0.8c0.1-0.7,0.2-1.5,0.2-2.4c0.4,0.2,0.7,0.3,1.1,0.5c-0.1,0.9-0.2,1.7-0.3,2.3
						c-0.2,1-0.6,1.5-1.5,1.5h-0.8c-0.9,0-1.4-0.5-1.4-1.6v-9.9H115.1z"/>
				</g>
				<g id="HATCH-75">
					<path class="st2" d="M107.6,101.8c1.1-1.6,1.8-3.3,2.3-5.2h-2.1v-1h2.2v-2.8h1v2.8h2v1h-2v2.4l0.6-0.6c0.7,0.7,1.3,1.2,1.7,1.6
						l-0.8,0.8c-0.6-0.7-1.1-1.2-1.5-1.6v7.6h-1v-7.7c-0.4,1.4-1,2.7-1.9,3.9C107.9,102.7,107.7,102.3,107.6,101.8z M115.1,94.9v4.7
						c0,3.4-0.9,5.9-2.6,7.4c-0.3-0.3-0.6-0.7-0.8-1c1.5-1.3,2.3-3.4,2.3-6.2v-6.1h5.3v10.8c0,0.5,0.2,0.7,0.5,0.7h0.3
						c0.3,0,0.5-0.3,0.6-0.8c0.1-0.7,0.2-1.5,0.2-2.4c0.4,0.2,0.7,0.3,1.1,0.5c-0.1,0.9-0.2,1.7-0.3,2.3c-0.2,1-0.6,1.5-1.5,1.5
						h-0.8c-0.9,0-1.4-0.5-1.4-1.6v-9.9L115.1,94.9z"/>
				</g>
				<g id="SPLINE-80">
					<path class="st10" d="M137.7,98.9h5.8c0.2-0.4,0.3-0.8,0.3-1.3l1,0.1c-0.1,0.4-0.1,0.7-0.3,1.1h3.1c-0.4-0.3-0.8-0.6-1.2-0.8
						l0.6-0.6c0.6,0.3,1.2,0.7,1.7,1.1l-0.3,0.3h2.7v0.9h-5.5c1.1,1.1,3.1,1.6,5.9,1.5c-0.2,0.4-0.4,0.8-0.6,1.1l-0.7-0.1v4.4h-1
						V106H146v0.8h-1v-4.4h4.6c-2.7-0.4-4.5-1.2-5.2-2.5h-0.3c-0.5,1.1-2.3,2-5.2,2.5h4.6v4.4h-1V106h-3v0.8h-1v-4.3l-0.8,0.1
						c-0.1-0.3-0.3-0.6-0.6-1c3.2-0.4,5.1-1,5.7-1.7h-5.2L137.7,98.9z"/>
				</g>
				<g id="POLYLINE-29">
					<polyline class="st10" points="138.4,93.7 143.5,93.7 143.5,97.9 142.5,97.9 142.5,97.4 139.4,97.4 139.4,98 138.4,98 
						138.4,93.7 					"/>
				</g>
				<g id="POLYLINE-30">
					<polyline class="st10" points="142.5,94.6 139.4,94.6 139.4,96.5 142.5,96.5 142.5,94.6 					"/>
				</g>
				<g id="POLYLINE-31">
					<polyline class="st10" points="142.5,103.2 139.5,103.2 139.5,105.1 142.5,105.1 142.5,103.2 					"/>
				</g>
				<g id="POLYLINE-32">
					<polyline class="st10" points="145,93.7 150.1,93.7 150.1,97.9 149.1,97.9 149.1,97.4 146,97.4 146,97.9 145,97.9 145,93.7 
											"/>
				</g>
				<g id="POLYLINE-33">
					<polyline class="st10" points="149.1,94.6 146,94.6 146,96.5 149.1,96.5 149.1,94.6 					"/>
				</g>
				<g id="POLYLINE-34">
					<polyline class="st10" points="149.1,103.2 146,103.2 146,105.1 149.1,105.1 149.1,103.2 					"/>
				</g>
				<g id="HATCH-76">
					<path class="st2" d="M137.7,98.9h5.8c0.2-0.4,0.3-0.8,0.3-1.3l1,0.2c-0.1,0.4-0.1,0.7-0.3,1.1h3.1c-0.4-0.3-0.8-0.6-1.2-0.8
						l0.6-0.6c0.6,0.3,1.2,0.7,1.7,1.1l-0.3,0.3h2.7v0.9h-5.5c1.1,1.1,3.1,1.6,5.9,1.5c-0.2,0.4-0.4,0.8-0.6,1.1l-0.7-0.1v4.4h-1
						V106H146v0.8h-1v-4.4h4.6c-2.7-0.4-4.5-1.2-5.2-2.5h-0.3c-0.5,1.1-2.3,2-5.2,2.5h4.6v4.4h-1V106h-3v0.8h-1v-4.3l-0.8,0.1
						c-0.1-0.3-0.3-0.6-0.6-1c3.2-0.4,5.1-1,5.7-1.7h-5.2L137.7,98.9z M138.4,93.7h5v4.2h-1v-0.4h-3V98h-1V93.7z M142.4,94.6h-3v1.9
						h3V94.6z M142.4,103.2h-3v1.9h3V103.2L142.4,103.2z M145,93.7h5.1v4.2h-1v-0.5H146v0.4h-1V93.7z M149.1,94.6H146v1.9h3.1
						L149.1,94.6L149.1,94.6z M149.1,103.2H146v1.9h3.1L149.1,103.2L149.1,103.2z"/>
				</g>
				<g id="SPLINE-81">
					<path class="st10" d="M166.8,105.8c4.2-2.4,6.4-6.6,6.6-12.7h1.3c0,1-0.1,2-0.3,2.9c1.2,4.8,3.4,7.9,6.7,9.4
						c-0.4,0.4-0.8,0.8-1.1,1.2c-2.8-1.6-4.9-4.4-6.1-8.5c-0.8,3.6-3,6.7-6.2,8.7C167.4,106.5,167.1,106.1,166.8,105.8z"/>
				</g>
				<g id="HATCH-77">
					<path class="st2" d="M166.8,105.8c4.2-2.4,6.4-6.6,6.6-12.7h1.3c0,1-0.1,2-0.3,2.9c1.2,4.8,3.4,7.9,6.7,9.4
						c-0.4,0.4-0.8,0.8-1.1,1.2c-2.8-1.6-4.9-4.4-6.1-8.5c-0.8,3.6-3,6.7-6.2,8.7C167.4,106.5,167.1,106.1,166.8,105.8z"/>
				</g>
				<g id="SPLINE-82">
					<path class="st10" d="M196.4,103.1c1.1-1.5,1.9-3.1,2.5-4.9h-2.3v-1h2.4v-2.1l-2.1,0.2c-0.1-0.4-0.2-0.7-0.3-1.1
						c1.9-0.1,3.7-0.3,5.5-0.6l0.4,1.1l-2.4,0.3v2.2h2.3v1H200v1.6l0.6-0.6c0.7,0.6,1.3,1.2,1.9,1.7l-0.8,0.8
						c-0.6-0.7-1.2-1.3-1.7-1.8v7h-1.1v-6.5c-0.5,1.3-1.2,2.6-2,3.7C196.8,103.9,196.6,103.5,196.4,103.1z"/>
				</g>
				<g id="POLYLINE-35">
					<polyline class="st10" points="201.5,102.3 207.1,101.8 207.1,93 208.2,93 208.2,101.7 210.5,101.5 210.6,102.5 208.2,102.7 
						208.2,107 207.1,107 207.1,102.8 201.6,103.3 201.5,102.3 					"/>
				</g>
				<g id="SPLINE-83">
					<path class="st10" d="M202.4,98.6l0.7-0.7c1.1,0.9,1.9,1.5,2.5,2l-0.7,0.9C204.4,100.3,203.6,99.6,202.4,98.6z"/>
				</g>
				<g id="SPLINE-84">
					<path class="st10" d="M203.2,95.2l0.7-0.7c1.1,0.8,1.9,1.5,2.6,2.1l-0.8,0.8C204.9,96.6,204.1,95.9,203.2,95.2z"/>
				</g>
				<g id="HATCH-78">
					<path class="st2" d="M196.4,103.1c1.1-1.5,1.9-3.1,2.5-4.9h-2.3v-1h2.3v-2.1l-2.1,0.2c-0.1-0.4-0.2-0.7-0.3-1.1
						c1.9-0.1,3.7-0.3,5.5-0.6l0.4,1.1c-0.9,0.1-1.7,0.2-2.4,0.3v2.2h2.3v1H200v1.6l0.6-0.6c0.7,0.6,1.3,1.2,1.9,1.7l-0.8,0.8
						c-0.6-0.7-1.2-1.3-1.7-1.8v7h-1.1v-6.5c-0.5,1.3-1.2,2.6-2,3.7C196.7,103.9,196.6,103.5,196.4,103.1z M201.5,102.3l5.6-0.5V93
						h1.1v8.8l2.3-0.2l0.1,1l-2.4,0.2v4.2h-1.1v-4.2l-5.5,0.5L201.5,102.3L201.5,102.3z M202.4,98.6l0.7-0.7c1.1,0.8,1.9,1.5,2.5,2
						l-0.7,0.9C204.4,100.3,203.6,99.6,202.4,98.6z M203.2,95.2l0.7-0.7c1.1,0.8,1.9,1.5,2.6,2.1l-0.8,0.8
						C204.9,96.6,204.1,95.9,203.2,95.2L203.2,95.2z"/>
				</g>
				<g id="SPLINE-85">
					<path class="st10" d="M226,100.5l2.1-0.6v-3.1h-1.9v-1h1.9V93h1.1v2.8h1.7v1h-1.7v2.7l1.6-0.5c0,0.4,0,0.8,0,1.1l-1.6,0.5v4.6
						c0,1-0.5,1.5-1.4,1.5h-1.4c-0.1-0.4-0.1-0.8-0.2-1.2c0.6,0.1,1,0.1,1.3,0.1s0.6-0.2,0.6-0.6v-4l-1.9,0.7L226,100.5z"/>
				</g>
				<g id="SPLINE-86">
					<path class="st10" d="M231.3,99.4v-0.9h3.7v-2.2h-3.7v-1h3.7V93h1.1v2.3h3.9v1h-3.9v2.2h3v0.9c-0.6,1.8-1.6,3.3-2.9,4.6
						c1.2,0.9,2.6,1.6,4,1.9c-0.4,0.4-0.7,0.8-0.9,1.1c-1.4-0.6-2.8-1.3-3.9-2.3c-1.4,1-2.8,1.8-4.4,2.4c-0.2-0.3-0.4-0.6-0.8-1
						c1.6-0.5,3-1.2,4.4-2.2c-1.1-1.3-2-2.9-2.4-4.5L231.3,99.4z"/>
				</g>
				<g id="SPLINE-87">
					<path class="st10" d="M237.9,99.4h-4.6c0.4,1.4,1.1,2.7,2.1,3.8C236.6,102.2,237.4,100.9,237.9,99.4z"/>
				</g>
				<g id="HATCH-79">
					<path class="st2" d="M226,100.5l2.1-0.6v-3.1h-1.9v-1h1.9V93h1.1v2.8h1.7v1h-1.7v2.7l1.6-0.5c0,0.4,0,0.8,0,1.1l-1.6,0.5v4.6
						c0,1-0.5,1.5-1.4,1.5h-1.4c-0.1-0.4-0.1-0.8-0.2-1.2c0.6,0.1,1,0.1,1.3,0.1s0.6-0.2,0.6-0.6v-4l-1.9,0.7L226,100.5z
						 M231.3,99.4v-0.9h3.7v-2.2h-3.7v-1h3.7V93h1.1v2.3h3.9v1h-3.9v2.2h3v0.9c-0.6,1.8-1.6,3.3-2.9,4.6c1.2,0.9,2.6,1.6,4,1.9
						c-0.4,0.4-0.7,0.8-0.9,1.1c-1.4-0.6-2.8-1.3-3.9-2.3c-1.4,1-2.8,1.8-4.4,2.4c-0.2-0.3-0.5-0.7-0.8-1c1.6-0.5,3-1.2,4.4-2.2
						c-1.1-1.3-2-2.9-2.4-4.5L231.3,99.4z M237.9,99.4h-4.6c0.4,1.4,1.1,2.7,2.1,3.8C236.6,102.2,237.5,100.8,237.9,99.4L237.9,99.4
						z"/>
				</g>
				<g id="SPLINE-88">
					<path class="st10" d="M259.7,106.9h-1.1v-7.4c-0.7,0.8-1.5,1.6-2.3,2.3c-0.2-0.3-0.4-0.7-0.7-1c1.7-1.4,3.2-3.2,4.3-5.1H256
						v-1.1h4.5c0.3-0.6,0.5-1.2,0.7-1.8l1.2,0.3c-0.2,0.5-0.4,1-0.6,1.6h8.1v1.1h-8.6c-0.3,0.6-0.6,1.1-1,1.7h7.8v7.7
						c0.1,0.8-0.5,1.6-1.3,1.8c-0.1,0-0.3,0-0.4,0H264c0-0.3-0.1-0.7-0.2-1.2c0.9,0.1,1.6,0.1,2.1,0.1c0.5,0.1,0.9-0.2,1-0.7
						c0-0.1,0-0.2,0-0.3v-1h-7.2V106.9z"/>
				</g>
				<g id="POLYLINE-36">
					<polyline class="st10" points="266.9,98.3 259.7,98.3 259.7,100 266.9,100 266.9,98.3 					"/>
				</g>
				<g id="POLYLINE-37">
					<polyline class="st10" points="259.7,102.7 266.9,102.7 266.9,101 259.7,101 259.7,102.7 					"/>
				</g>
				<g id="HATCH-80">
					<path class="st2" d="M259.7,106.9h-1.1v-7.4c-0.7,0.8-1.5,1.6-2.3,2.3c-0.2-0.3-0.4-0.7-0.7-1c1.7-1.4,3.2-3.2,4.3-5.1H256
						v-1.1h4.5c0.3-0.6,0.5-1.2,0.7-1.8l1.2,0.3c-0.2,0.5-0.4,1-0.6,1.6h8.1v1.1h-8.6c-0.3,0.6-0.6,1.1-1,1.7h7.8v7.7
						c0.1,0.8-0.4,1.6-1.3,1.8c-0.1,0-0.3,0-0.4,0H264c0-0.3-0.1-0.7-0.2-1.2c0.9,0.1,1.6,0.1,2.1,0.1c0.5,0.1,0.9-0.2,1-0.7
						c0-0.1,0-0.2,0-0.3v-1h-7.2L259.7,106.9z M266.9,98.3h-7.2v1.7h7.2V98.3L266.9,98.3z M259.7,102.7h7.2V101h-7.2V102.7
						L259.7,102.7z"/>
				</g>
				<g id="SPLINE-89">
					<path class="st10" d="M290.2,101.4c0.3,1.8-0.2,2.8-1.4,3.1c-0.5,0.1-1,0.1-1.5,0c-0.1-0.4-0.2-0.8-0.3-1.2
						c0.4,0.1,0.9,0.2,1.3,0.1c0.6-0.1,0.9-0.8,0.7-2c-0.2-0.9-0.7-1.8-1.3-2.6c0.3-1,0.8-2.4,1.4-4.2H287v12.5h-1.1V93.6h4.3v1
						c-0.5,1.3-0.9,2.7-1.4,4C289.6,99.4,290,100.4,290.2,101.4z"/>
				</g>
				<g id="SPLINE-90">
					<path class="st10" d="M291.1,93.6h6.8v7.1h-1.1v-0.4h-2.4c0.3,0.8,0.7,1.6,1.2,2.3c1-0.6,1.9-1.3,2.7-2l0.8,0.9
						c-1,0.7-2,1.4-2.8,1.9c0.9,0.9,2,1.6,3.1,2c-0.3,0.3-0.6,0.6-0.9,1c-2.5-1.2-4.4-3.5-5.1-6.2h-1.2v4.9c0.6-0.3,1.5-0.7,2.5-1.3
						c0,0.4,0,0.8,0.1,1.1c-0.9,0.4-1.7,0.8-2.5,1.3c-0.3,0.2-0.5,0.4-0.8,0.6l-0.8-1.1c0.3-0.2,0.4-0.6,0.4-0.9V93.6z"/>
				</g>
				<g id="POLYLINE-38">
					<polyline class="st10" points="296.9,94.6 292.2,94.6 292.2,96.5 296.9,96.5 296.9,94.6 					"/>
				</g>
				<g id="POLYLINE-39">
					<polyline class="st10" points="296.9,99.4 296.9,97.5 292.2,97.5 292.2,99.4 296.9,99.4 					"/>
				</g>
				<g id="HATCH-81">
					<path class="st2" d="M290.2,101.4c0.3,1.8-0.2,2.8-1.4,3.1c-0.5,0.1-1,0.1-1.4,0c-0.1-0.4-0.2-0.8-0.3-1.2
						c0.4,0.1,0.9,0.2,1.3,0.1c0.7-0.1,0.9-0.8,0.7-2c-0.2-0.9-0.7-1.8-1.3-2.6c0.3-1,0.8-2.4,1.4-4.2H287v12.5h-1.1V93.6h4.3v1
						c-0.5,1.3-0.9,2.7-1.4,4C289.6,99.4,290,100.4,290.2,101.4z M291.1,93.6h6.8v7.1h-1.1v-0.4h-2.4c0.3,0.8,0.7,1.6,1.2,2.3
						c0.9-0.6,1.9-1.3,2.7-2l0.8,0.9c-1,0.7-2,1.4-2.8,1.9c0.9,0.9,2,1.6,3.1,2c-0.3,0.3-0.6,0.6-0.9,1c-2.5-1.2-4.4-3.5-5.1-6.2
						h-1.2v4.9c0.7-0.3,1.5-0.7,2.5-1.3c0,0.4,0,0.8,0.1,1.1c-0.9,0.4-1.7,0.9-2.5,1.3c-0.3,0.2-0.5,0.4-0.8,0.6l-0.8-1.1
						c0.3-0.2,0.4-0.6,0.4-0.9L291.1,93.6z M296.9,94.6h-4.7v1.9h4.7V94.6L296.9,94.6z M296.9,99.4v-2h-4.7v1.9L296.9,99.4z"/>
				</g>
				<g id="SPLINE-91">
					<path class="st10" d="M314.8,99.6c2.1-1.6,3.7-3.7,4.8-6.1l1.1,0.5c-1.2,2.5-2.9,4.8-5,6.6C315.4,100.2,315.1,99.9,314.8,99.6z
						"/>
				</g>
				<g id="SPLINE-92">
					<path class="st10" d="M324.1,101.4c1.4,1.8,2.5,3.4,3.5,4.9l-1.1,0.7c-0.3-0.4-0.5-0.9-0.9-1.4c-3.1,0.2-5.7,0.3-7.7,0.5
						c-0.4,0.1-0.9,0.1-1.3,0.2l-0.6-1.2c0.4-0.2,0.8-0.5,1.2-0.8c1.4-1.8,2.6-3.7,3.6-5.7l1.2,0.6c-1.1,2-2.4,3.9-3.8,5.7
						c2-0.1,4.2-0.2,6.7-0.3c-0.5-0.8-1.1-1.7-1.8-2.6L324.1,101.4z"/>
				</g>
				<g id="SPLINE-93">
					<path class="st10" d="M322.9,93.7l1.1-0.4c1,2.5,2.8,4.6,5.2,5.9c-0.3,0.4-0.6,0.7-0.9,1.1C325.8,98.8,323.9,96.4,322.9,93.7z"
						/>
				</g>
				<g id="HATCH-82">
					<path class="st2" d="M314.8,99.6c2.1-1.6,3.7-3.7,4.8-6.1l1.1,0.5c-1.2,2.5-2.9,4.8-5,6.6C315.4,100.2,315.1,99.9,314.8,99.6z
						 M324.1,101.4c1.4,1.8,2.5,3.4,3.5,4.9l-1.1,0.7c-0.3-0.4-0.5-0.9-0.9-1.4c-3.1,0.2-5.7,0.3-7.7,0.5c-0.4,0.1-0.9,0.1-1.3,0.3
						l-0.6-1.2c0.4-0.2,0.9-0.4,1.2-0.8c1.4-1.8,2.6-3.7,3.6-5.7l1.2,0.6c-1.1,2-2.4,3.9-3.8,5.7c2-0.1,4.2-0.2,6.7-0.3
						c-0.5-0.8-1.1-1.7-1.8-2.6L324.1,101.4z M322.9,93.7l1.1-0.4c1,2.5,2.8,4.6,5.2,5.9c-0.3,0.4-0.6,0.7-0.9,1.1
						C325.8,98.8,323.9,96.4,322.9,93.7L322.9,93.7z"/>
				</g>
				<g id="POLYLINE-40">
					<polyline class="st10" points="344.6,96.4 355.6,96.4 355.6,97.5 344.6,97.5 344.6,96.4 					"/>
				</g>
				<g id="SPLINE-94">
					<path class="st10" d="M345.5,94.7v-1.1h12.4v11.1c0,1.3-0.6,2-1.8,2h-2.8c0-0.4-0.1-0.8-0.2-1.2c1.2,0.1,2.1,0.1,2.7,0.1
						c0.7,0,1-0.4,1-1.1v-9.8H345.5z"/>
				</g>
				<g id="POLYLINE-41">
					<polyline class="st10" points="346.1,99.2 353.6,99.2 353.6,104.3 347.2,104.3 347.2,105.3 346.1,105.3 346.1,99.2 					"/>
				</g>
				<g id="POLYLINE-42">
					<polyline class="st10" points="352.5,103.2 352.5,100.2 347.2,100.2 347.2,103.2 352.5,103.2 					"/>
				</g>
				<g id="HATCH-83">
					<path class="st2" d="M344.6,96.4h10.9v1.1h-10.9V96.4z M345.5,94.7v-1.1h12.4v11.1c0,1.3-0.6,2-1.8,2h-2.8
						c0-0.4-0.1-0.8-0.2-1.2c1.2,0.1,2.1,0.1,2.7,0.1s1-0.4,1-1.1v-9.8H345.5z M346.1,99.2h7.5v5.1h-6.4v1h-1.1V99.2z M352.5,103.2
						v-3h-5.3v3H352.5z"/>
				</g>
			</g>
		</g>
		<g id="MTEXT-4">
			<text transform="matrix(1 0 0 1 197.75 259.905)" class="st2 st8 st4">capella 1F</text>
		</g>
		<g id="MTEXT-5">
			<text transform="matrix(1 0 0 1 312.69 250.655)" class="st2 st3 st6">产品编号</text>
			<text transform="matrix(1 0 0 1 338.4 250.655)" class="st2 st7 st6">                   </text>
			<text transform="matrix(1 0 0 1 313.09 263.485)" class="st2 st8 st6">Serial N</text>
			<text transform="matrix(1 0 0 1 356.7 263.485)" class="st2 st8 st6">o</text>
			<text transform="matrix(1 0 0 1 363.28 263.485)" class="st2 st8 st6">.</text>
		</g>
		<g id="MTEXT-6">
			<text transform="matrix(1 0 0 1 312.69 289.115)" class="st2 st3 st6">生产日期</text>
			<text transform="matrix(1 0 0 1 312.76 301.945)" class="st2 st8 st6">Prod.Date</text>
		</g>
		<g id="MTEXT-7">
			<text transform="matrix(1 0 0 1 203.6 298.045)" class="st2 st8 st4">2100 mm</text>
		</g>
		<g id="LINE-7">
			<line class="st1" x1="554.9" y1="235.6" x2="458.8" y2="235.6"/>
		</g>
		<g id="MTEXT-8">
			<text transform="matrix(1 0 0 1 399.76 259.985)" class="st2 st8 st4">hitrobo</text>
			<text transform="matrix(1 0 0 1 465.27 259.985)" class="st2 st8 st4">t</text>
			<text transform="matrix(1 0 0 1 472.15 259.985)" class="st2 st8 st4">-2bf9801</text>
		</g>
		<g id="MTEXT-9">
			<text transform="matrix(1 0 0 1 446.25 297.995)" class="st2 st8 st4">2018.01.20</text>
		</g>
		<g id="MTEXT-10">
			<text transform="matrix(1 0 0 1 47.74 197.355)" class="st2 st3 st6">中国制造</text>
			<text transform="matrix(1 0 0 1 47.8 210.815)" class="st2 st8 st6">Made in China</text>
		</g>
		<g id="INSERT-32">
			<g id="LINE-8">
				<line class="st1" x1="0.3" y1="0.4" x2="600.2" y2="0.4"/>
			</g>
			<g id="LINE-9">
				<line class="st1" x1="36.7" y1="18.5" x2="563.8" y2="18.5"/>
			</g>
			<g id="LINE-10">
				<line class="st1" x1="600.2" y1="0.4" x2="600.2" y2="350.2"/>
			</g>
			<g id="LINE-11">
				<line class="st1" x1="582" y1="36.7" x2="582" y2="313.9"/>
			</g>
			<g id="LINE-12">
				<line class="st1" x1="600.2" y1="350.2" x2="0.3" y2="350.2"/>
			</g>
			<g id="LINE-13">
				<line class="st1" x1="563.8" y1="332.1" x2="36.7" y2="332.1"/>
			</g>
			<g id="LINE-14">
				<line class="st1" x1="0.3" y1="350.2" x2="0.3" y2="0.4"/>
			</g>
			<g id="LINE-15">
				<line class="st1" x1="18.5" y1="313.9" x2="18.5" y2="36.7"/>
			</g>
			<g id="CIRCLE">
				<path class="st1" d="M27.6,18.5c0-5-4.1-9.1-9.1-9.1s-9.1,4.1-9.1,9.1s4.1,9.1,9.1,9.1l0,0C23.6,27.6,27.6,23.6,27.6,18.5z"/>
			</g>
			<g id="ARC">
				<path class="st1" d="M18.5,36.7c10,0,18.2-8.1,18.2-18.2c0,0,0,0,0,0"/>
			</g>
			<g id="CIRCLE-2">
				<path class="st1" d="M591.1,18.5c0-5-4.1-9.1-9.1-9.1c-5,0-9.1,4.1-9.1,9.1c0,5,4.1,9.1,9.1,9.1c0,0,0,0,0,0
					C587,27.6,591.1,23.6,591.1,18.5C591.1,18.5,591.1,18.5,591.1,18.5L591.1,18.5z"/>
			</g>
			<g id="ARC-2">
				<path class="st1" d="M563.8,18.5c0,10,8.1,18.2,18.2,18.2c0,0,0,0,0,0"/>
			</g>
			<g id="CIRCLE-3">
				<path class="st1" d="M591.1,332.1c0-5-4.1-9.1-9.1-9.1c-5,0-9.1,4.1-9.1,9.1s4.1,9.1,9.1,9.1S591.1,337.1,591.1,332.1
					C591.1,332.1,591.1,332.1,591.1,332.1z"/>
			</g>
			<g id="ARC-3">
				<path class="st1" d="M582,313.9c-10,0-18.2,8.1-18.2,18.2c0,0,0,0,0,0"/>
			</g>
			<g id="CIRCLE-4">
				<path class="st1" d="M27.6,332.1c0-5-4.1-9.1-9.1-9.1s-9.1,4.1-9.1,9.1s4.1,9.1,9.1,9.1c0,0,0,0,0,0
					C23.6,341.2,27.6,337.1,27.6,332.1z"/>
			</g>
			<g id="ARC-4">
				<path class="st1" d="M36.7,332.1c0-10-8.1-18.2-18.2-18.2c0,0,0,0,0,0"/>
			</g>
		</g>
		<g id="HATCH-84">
			<path class="st0" d="M155.3,211.5L155.3,211.5z M153.5,193.3c1.6,1,1.6,4.2,0,5.2V193.3z M175.6,207.7c3.4-2.3,1.6-10.8-3.8-9.2
				C166.4,200.1,169.7,211.6,175.6,207.7z M164.8,207.5c3.5,7.4,17.3,5.6,17.4-4.1L164.8,207.5z M201,197.3L201,197.3z M227.4,199.1
				c-3.4-1.9-10.6-1.3-10.7-4.3L227.4,199.1z"/>
		</g>
		<g id="INSERT-33">
			<g id="SPLINE-95">
				<path class="st12" d="M230.4,202.2c4.3,11.6-20.9,14.1-19.9,1.5h5.3c0.6,1.7,0.3,2.9,2.1,3.8c2.9,1.2,7.6,0.1,7.7-2.1
					c0.2-3.6-8.5-3.5-11-5c-2.8-1.6-4-5-2.8-8c2.9-6.6,19.1-5.7,18.4,3.1c-1.1,0.6-3.3,0.2-4.9,0.3c-1.5-0.6-0.1-1.8-1.8-2.9
					c-2.3-1.6-6.8-0.5-6.7,1.7c0.1,3.1,7.2,2.4,10.7,4.3C228.6,199.8,229.7,200.9,230.4,202.2z"/>
			</g>
			<g id="SPLINE-96">
				<path class="st12" d="M206.8,188.7v22.8h-5.5V202h-9.2c-0.8,2.6-0.1,6.5-0.3,9.5h-5.5v-22.6c1.3-0.6,3.8-0.1,5.5-0.2v8.7h9.2
					c0.8-2.3,0.2-5.9,0.3-8.7H206.8z"/>
			</g>
			<g id="SPLINE-97">
				<path class="st12" d="M171.6,194.7c6.6-0.9,10.8,2.6,10.7,8.7c-0.1,9.7-13.9,11.5-17.4,4.1C162,201.4,165.3,195.6,171.6,194.7z"
					/>
			</g>
			<g id="SPLINE-98">
				<path class="st12" d="M175.6,207.7c3.4-2.3,1.6-10.8-3.8-9.2C166.3,200.1,169.7,211.6,175.6,207.7z"/>
			</g>
			<g id="SPLINE-99">
				<path class="st12" d="M160.8,211.5h-5.5c-0.9-2.6-0.2-6.8-2.2-8.4c-1.9-0.6-4.9-0.2-7.3-0.2c0,1.7,0.1,5.8,0,8.4
					c-1.3,0.6-3.9,0.2-5.8,0.3v-22.6c0.3,0,0.3-0.2,0.6-0.2c9.1-0.2,21.4-1.5,19.6,8.1c-0.5,1.7-1.7,3.1-3.4,3.7
					C160.6,201.9,159.4,208,160.8,211.5z"/>
			</g>
			<g id="SPLINE-100">
				<path class="st12" d="M153.5,198.5c1.6-1,1.6-4.2,0-5.2c-2.6-0.5-5.3-0.5-7.9,0c0.5,1.8,0.5,3.6,0,5.4
					C148.2,198.7,151.4,199.1,153.5,198.5z"/>
			</g>
		</g>
		<g id="INSERT-34">
			<g id="SPLINE-101">
				<path class="st10" d="M284,195.3h3.7l-6.8,6.1l-6.8-6.1h3.3c0-3.3,0.8-6.6,2.5-9.5c2.5-4.3,7.8-8.7,13.1-9.9
					c5.8-1.1,10.6-0.8,16.6,2.9c3.6,2.6,6.4,6.2,8,10.3l-2.7-2l-3.7,3.7c0,0-3-7.5-11.1-8.6c-9.6-1-13.6,5.5-14,6.2
					C284.7,190.4,284,192.9,284,195.3z"/>
			</g>
			<g id="HATCH-85">
				<path class="st2" d="M284,195.3h3.7l-6.8,6.1l-6.8-6.1h3.3c0-3.3,0.8-6.6,2.5-9.5c2.5-4.3,7.8-8.7,13.1-9.9
					c5.8-1.1,10.6-0.8,16.6,2.9c3.6,2.6,6.4,6.2,8,10.3l-2.7-2l-3.7,3.7c0,0-3-7.5-11.1-8.6c-9.6-1-13.6,5.5-14,6.2
					C284.7,190.4,284,192.9,284,195.3z"/>
			</g>
			<g id="SPLINE-102">
				<path class="st10" d="M311.8,195.9h-3.7l6.8-6.1l6.8,6.1h-3.3c0,3.3-0.8,6.6-2.5,9.5c-2.5,4.3-7.8,8.7-13.1,9.9
					c-5.8,1.1-10.6,0.8-16.6-2.9c-3.6-2.6-6.4-6.2-8-10.3l2.7,2l3.7-3.7c0,0,3,7.5,11.1,8.6c9.6,1,13.6-5.5,14-6.2
					C311.1,200.9,311.8,198.4,311.8,195.9z"/>
			</g>
			<g id="HATCH-86">
				<path class="st2" d="M311.8,195.9h-3.7l6.8-6.1l6.8,6.1h-3.3c0,3.3-0.8,6.6-2.5,9.5c-2.5,4.3-7.8,8.7-13.1,9.9
					c-5.8,1.1-10.6,0.8-16.6-2.9c-3.6-2.6-6.4-6.2-8-10.3l2.7,2l3.7-3.7c0,0,3,7.5,11.1,8.6c9.6,1,13.6-5.5,14-6.2
					C311.1,200.9,311.8,198.4,311.8,195.9z"/>
			</g>
			<g id="SPLINE-103">
				<path class="st10" d="M288.1,190.4v1.9h2.1c0.2,0.1,0.4,0.2,0.4,0.4v10.7h4.1v-15.6h-2.4C291.2,189.2,289.7,190.1,288.1,190.4z"
					/>
			</g>
			<g id="HATCH-87">
				<path class="st2" d="M288.1,190.4v1.9h2.1c0.2,0.1,0.4,0.2,0.4,0.4v10.7h4.1v-15.6h-2.4C291.2,189.2,289.7,190.1,288.1,190.4z"
					/>
			</g>
			<g id="POLYLINE-43">
				<polyline class="st10" points="301.2,189.9 302.1,189.9 302.6,190.4 302.6,201.3 302.3,201.8 301.2,201.8 300.8,201.3 
					300.8,190.4 301.2,189.9 				"/>
			</g>
			<g id="SPLINE-104">
				<path class="st10" d="M301.4,203.8c-2.1,0-3.8-1.4-3.8-3.1v-10c0-1.7,1.7-3.1,3.8-3.1h1.2c2.1,0,3.8,1.4,3.8,3.1v10
					c0,1.7-1.7,3.1-3.8,3.1H301.4z"/>
			</g>
			<g id="HATCH-88">
				<path class="st2" d="M301.4,203.8c-2.1,0-3.8-1.4-3.8-3.1v-10c0-1.7,1.7-3.1,3.8-3.1h1.2c2.1,0,3.8,1.4,3.8,3.1v10
					c0,1.7-1.7,3.1-3.8,3.1H301.4z"/>
			</g>
			<g id="SPLINE-105">
				<path class="st10" d="M302.9,201.2c0,0.4-0.4,0.6-0.9,0.6s-0.9-0.3-0.9-0.6v-11c0-0.4,0.4-0.6,0.9-0.6s0.9,0.3,0.9,0.6V201.2z"
					/>
			</g>
			<g id="HATCH-89">
				<path class="st11" d="M302.9,201.2c0,0.4-0.4,0.6-0.9,0.6s-0.9-0.3-0.9-0.6v-11c0-0.4,0.4-0.6,0.9-0.6s0.9,0.3,0.9,0.6V201.2z"
					/>
			</g>
		</g>
		<g id="OLE2FRAME">
			<polyline class="st1" points="380,219 380,44.1 555.1,44.1 555.1,219 380,219 			"/>
		</g>
		<path class="st2" d="M553.8,219.6H378.9V44.8h174.9V219.6z M441.4,210.2v4.2h4.1v-4.1L441.4,210.2l-0.1-4.1h-4.1v4.1H441.4z
			 M486.4,57.9h-4.5v-4.4h-9.4v-4.2h-8.7v4.2h-4.3l-0.4-4.2h-9.1l-0.2,4h-4.1l-0.3-4h-4.1v8.6h-13.6l-0.4-4.3l-4.1-0.4l-0.2-4h-4
			v12.9l4,0.2v9.1l-4.3,0.3v17.4h-4.3v-4.2h-4.1V89h4.2c0,1.5,0,3,0,4.4H406v4.7h8.5v-4.8h4.5v5h4.3v4.3L419,103l-0.3,4.1h-4.2
			l0.1,0.1l-0.2-4.2h-8.7v8.3h-4.7l-0.4-4.2l-4.3,0.2V103l-4-0.3v-4.3h8.3v-4.9h-13v-4.2h-4.1v4.1h4.2v4.9l-4.2,0.3v4.1l4,0.2
			l0.2,4.3h8.5v8.7h-4.4v-4.2h-8.5v4.1h8.6v4.9l-4.4,0.4v4.2h-4.2v13l4,0.2v4.1l-4.1,0.4v4.6h8.5l0.3-4.9h4.3v9.2l4.3,0.4l0.2,4
			l4.7,0.3l0.4,4.2h8.6v4.3l-4.4,0.4v4.8l-4.4-0.1l-0.2-4.8l-4.7-0.3l-0.4-4.2h-4.2v-4.3l-4.2-0.4l-0.2-4h-4.1l-0.4,4.1l-4,0.2v22.2
			h4.3v-13.6h4.3v13.6h4.2l0.3-4l4.1-0.4l0.2-4l5-0.3v8.7h8.4v-4l-4.2-0.4v-4.2h8.8v4.4h4.4v4.3l-4.3,0.4v4.1h8.4
			c0.1,1.7,0.2,3.1,0.3,4.5h-4.5v4.3H419v13.6l4.2,0.3v8.5h4.1v-12.8l-4.3-0.4v-9.2h4.3l0.2-4.3h4.9v9.3h8.6l0.4,4.3h4.2v4.2h4.1
			v-4.1h-4.2v-4.3l4.4-0.4v-4.8h4.9l0.3,5h8.6v4.4h4.4v12.9h13.5v-4l-4.6-0.3v-4h9.3v8.3h13v-4.2l-0.1,0.1h18l0.4,4.1h4l0.4-4.3h4.2
			v4.2h22.3v-12.7h-4.3v8.6h-18v-8.7l5.2-0.3v-13.4l4-0.3v-4.1l-4-0.3v-4.4h8.8c0,4.4,0,8.9-0.1,13.3h-4.2v13.6h4.1v-13.7h8.6v-8.5
			l-4.2-0.4c0-1.6,0-2.9,0-4.2h4.2v-13.6h-4.1v13.7l-4.3-0.1v-4.3h-13.6v-13.9H540c0-1.6,0-3,0-4.3h8.6V148h-12.7v4l4.2,0.4v4.2
			h-13.6l-0.4-4.3H522l-0.2,4.3h-13v8.7h-4.4v9.4h-9.2l-0.4-4.2h-4.1c0,3,0,5.8,0,8.6h-4.5v-8.9h-9.4v-13.7h9.3l0.2-4.3h8.5l0.4-4.4
			h4.2v4.3h9.1v-4.1h-9.2v-5.2h9.4v-4.3h4.5v13.6h4.4v-9h4.2l0.3,4.6h4.3v-4.8h13.4v-4.4H522l-0.2-4.1h-4.1l-0.3,4.2h-4.2v-8.6
			l4.3-0.4l0.3-4.2h4.3v4.4h4.4v4.2h22.3v-4.2h-13v-4.4h12.9v-13.6l-4.2-0.2v-8.7h-13.1v-4.3h17.3v-5h-8.3V89h8.3v-4.1h-12.9v8.4
			l-4.3,0.4v4.8h-5c0,3.2,0,5.9,0,8.7h-4.5V93.7h-4.4v9.1h-4.3l0.1,0.1l-0.2-4.3l-4.3-0.4v-4.8h4.4V89H526v-4.3h-12.9V71.6h-13.7
			v-5.1h9.3v-4.3h-13.4c-0.1-1.7-0.2-3.1-0.3-4.5h13.9c0-1.6,0-2.9,0-4.3h4.3v-4.1h-4.1v4.2h-9.3l-0.4-4.3H495v8.5l-4.3,0.1v-4.2
			h-4.3C486.4,55.2,486.4,56.6,486.4,57.9L486.4,57.9z M383.4,80.1h30.8V49.3h-30.8L383.4,80.1z M517.7,80.1h30.8V49.3h-30.8
			L517.7,80.1z M383.4,214.4h30.8v-30.8h-30.8V214.4z M392.1,88.8h13.5v-3.9h-13.5L392.1,88.8z M499.3,161.1h-8.3v4h8.3V161.1z
			 M455.2,210h8.5v-3.9h-8.5V210z M531.5,165.3v4.7h3.9v-4.7H531.5z"/>
		<path d="M526.3,210.2h-4.2l-0.4,4.3h-4l-0.4-4.1h-18v-4.2h-8.5v4.1h8.6v4.2h-13v-8.3h-9.3v4l4.6,0.3v4h-13.5v-13l-0.1,0.1h4.3
			l0.4-4.5h13.5v4.2h8.5v-4.1h-8.6v-5.1h-22.5l0.1,0.1V188l4.2-0.4v-4.2h-8.4V179h17.1v-4.4H468v-9.1h-4.1l-0.3,4.9h-4.2v-4.9h-22.3
			l-0.3,4.5h-4.3v-4.6h-4.8l-0.3,4.8h-4.3l0.1,0.1v-9.2l4.3-0.4v-8.6h5.1v8.6h8.6v-8.6h4.2l0.4,4.2h9v-4l-4.7-0.3l-0.4-4.1h-8.6V143
			h-13.6v9.2h-8.9v-9.5h-8.4v-4.1l4.1-0.4V134h8.7l0.2,4.3h17.9l0.4-4.3h4.2v4.4h4.4v4.6h5v4.8l4.4,0.2v8.4h4.2l0.2-4h4.1l0.4,4.2
			h8.6l-0.1-0.1v13.7h9.4v8.9l0.1-0.1h-4.2v4.5h4.2l-0.1-0.1v4.3l4.3,0.4l0.2,4h8.7v-8.6h5v8.7h4.1v-8.5h-4.2l0.1-4.5l-0.1,0.1h4.5
			v-4.5l-0.1,0.1h4.2l0.4-4.5h4.2v4.2h4.1v-4.1h-4.2v-4.9l4.3-0.4v-4h-8.5l-0.4,4.2h-4.2l0.1,0.1v-8.7h13l0.2-4.3h4.1l0.4,4.3h13.6
			l-0.1-0.1v4.3h-13.6v13.8h13.6c0,1.6,0,3,0,4.3l0.1-0.1h-8.8v4.4l4,0.3v4.1l-4,0.3v13.4l-5.2,0.3v8.7L526.3,210.2z M517.6,201.5
			v4.2h4.1v-4.1L517.6,201.5l-0.1-4.1h-12.8v8.4h8.3l0.4-4.3L517.6,201.5z M513.4,179.2v12.8h12.8v-12.8H513.4z"/>
		<path d="M513.2,138.4h-4.5l0.1,0.1V134h-4.5l0.1,0.1c0-1.5,0-3-0.1-4.4h4.2v-4.1h-4.1v4.2h-9.2l-0.4-4.2h-4.1l-0.2,4.2h-13.4v4.5
			h9.1v8.7l0.1-0.1l-13.8,0.1v-13H464l-0.4,4.2H455v-8.8h8.8v-9.4h4.5v5h4.3v4.2h4.3v-4.2h5v-5h13.2c0,1.6,0,3.2,0,4.8h4.1V116H495
			v-8.6l-4.4-0.4v-4.2h8.6v-4.3h-8.6c0-1.7,0-3.4,0-5.1h4.5v-8.6l4.3-0.2V71.5l-0.1,0.1h13.7v13.1l0.1-0.1h-4.5v-8.6h-4.3v12.8
			l-4.8,0.3v4.3h9.2l-0.1-0.1v4.8l4.3,0.4l0.2,4.3H509l-0.4,4.4h-9v4.4h9v4.2l-3.9,0.2v4.7h8.5v-18h4.3v-9.1h4.4v13.6l0.1-0.1h-4.2
			v13.7h4.2l-0.1,4.5l0.1-0.1h-4.2l-0.3,4.2l-4.3,0.4L513.2,138.4L513.2,138.4z"/>
		<path d="M396.2,107.4l4.3-0.2l0.4,4.2h4.7v-8.3h8.7l0.2,4.2h-4.2v4.1h4.1v-4.2h4.2l0.3-4.2l4.3-0.4v-4.2l-0.1,0.1h4.5v8.7h9.3v4.5
			h-9.2v9.2h9.2l-0.2,4.3l-4.1,0.4v4l4,0.3v4h-9.2v-8.5H410l0.1-4.4l4.1-0.2V116h-4c0,1.8,0,3.4,0,5l-4.6-0.1v-4.8h-4.9v4.9h-4.2
			l-0.4,4.3h-8.6l0.1,0.1v-4.2l4.4-0.4v-4.9l-0.1,0.1h4.4c0-3,0-5.9,0-8.7L396.2,107.4z M423,120.9v-4.8h-4v4.8H423z"/>
		<path d="M414.4,89.1h4.3V71.8l4.3-0.3v-9.1l-4-0.2V49.3h4l0.2,4l4.1,0.4l0.4,4.3h13.6l-0.1-0.1l0.1,4.5H437c0,4.8,0,9.3,0,13.7
			l-4.4-0.1l-0.2-4.1h-4.8V76h-4.2v4.1h4.1v-4.2l5.2-0.1c0,1.5,0,3,0,4.3h4.2v-4.2l4.2,0.2v8.5l-4,0.2l-0.3,4.1l-4.2,0.3v4.2h-4.9
			l-0.4-4.2h-4.2v9.2l0.1-0.1H419v-5h-4.5l0.1,0.1c0-1.5,0-3,0-4.4L414.4,89.1z M432.5,62.4h-4.8v4h4.8V62.4z"/>
		<path d="M383.4,80.1V49.3h30.8v30.8H383.4z M387.7,75.7h22.1V53.6h-22.1L387.7,75.7z"/>
		<path d="M517.7,80.1V49.3h30.8v30.8H517.7z M544.2,75.8V53.7h-22.1v22.1H544.2z"/>
		<path d="M383.4,214.4v-30.8h30.8v30.8H383.4z M387.8,187.9V210h22.1v-22.1H387.8z"/>
		<path d="M427.8,187.9l-0.4-4.5H419v-4.1l4.3-0.4v-4.3l-0.1,0.1h9.3l0.4,4.1h4.1l0.2-3.9h8.6v4.2l0.1-0.1h-4.5v8.6l-4.2,0.4v4.2h13
			l-0.1-0.1v4.8l-4.4,0.4v4.3l0.1-0.1h-4.2l-0.4-4.3h-8.6v-9.3h-4.9L427.8,187.9z"/>
		<path d="M531.2,98.4v4.3h13.1v8.7l4.2,0.2v13.6h-12.9l0.1,0.1v-4.5h8.6V116l-4.1-0.2l-0.4-4h-4.1l-0.2,4h-4.3v-8.6h-5l0.1,0.1
			v-8.8L531.2,98.4L531.2,98.4z"/>
		<path d="M508.8,138.4v4.3h-9.4v5.1l0.1-0.1h-4.2l-0.4,4.4h-8.5l-0.2,4.3h-9.3l0.1,0.1v-4.3l-4.5-0.4v-4.2h13.8v-5l-0.1,0.1h8.6
			l0.3-4.3l4.1-0.4l0.4-4.1h4.8l-0.1-0.1v4.5h4.5L508.8,138.4z"/>
		<path d="M490.6,57.9l4.3-0.1l-0.1-0.1l0.4,4.5h13.4v4.2h-9.3v5.2l0.1-0.1l-4.5,0.1c0-1.6,0-3.2,0-4.8h-4.1v4.8h4.2v8.5h-4.3
			l-0.2-4h-4.1l-0.4,4.3h-4.2V66.8l4.5-0.4v-4.2l-0.1,0.1h4.5L490.6,57.9L490.6,57.9z"/>
		<path d="M513.1,138.5h4.2l0.3-4.2h4.1l0.2,4.1h17.8v4.5h-13.4v4.8h-4.3l-0.3-4.6h-4.2v9h-4.4C513.2,147.5,513.2,143,513.1,138.5
			L513.1,138.5z"/>
		<path d="M463.9,197.1h-8.6l-0.3-5H450l0.1,0.1V188l-4.4-0.4V179l-0.1,0.1h4.3l0.4-4.5h4.8v13l4.2,0.4l0.4,4.2h4.2l-0.1-0.1v5.1
			L463.9,197.1z"/>
		<path d="M392,165.2h-4.3v13.6h-4.3v-22.2l4-0.2l0.4-4.1h4.1l0.2,4l4.2,0.4v4.3l0.1-0.1h-4.5v4.5L392,165.2z"/>
		<path d="M531.3,98.5v-4.8l4.3-0.4v-8.4h12.9V89h-8.4v4.4h8.3v5h-17.3L531.3,98.5z"/>
		<path d="M441.4,57.9v-8.6h4.1l0.3,4h4.1l0.2-4h9.1l0.4,4.2h4.3l-0.1-0.1v4.4h-22.5L441.4,57.9z"/>
		<path d="M396.4,142.8h-4.3l-0.3,4.9h-8.5V143l4.1-0.4v-4.1l-4-0.2v-13h4.2l-0.1-0.1v8.6l4.3,0.3l0.4,4.1l4.1,0.3v4.2L396.4,142.8z
			"/>
		<path d="M396.3,161h4.2l0.4,4.2l4.7,0.3c0.1,1.6,0.1,3.2,0.2,4.8l0.1-0.1l-5,0.3l-0.2,4l-4.1,0.4l-0.3,4H392v-13.6l-0.1,0.1h4.5
			v-4.5L396.3,161z"/>
		<path d="M387.6,93.5h13v4.9h-8.3v4.3l4,0.3c0,1.5,0,2.9,0,4.4l0.1-0.1h-8.6l-0.2-4.3l-4-0.2v-4.1l4.2-0.3v-4.9L387.6,93.5z"/>
		<path d="M414.5,160.9h-8.6l-0.4-4.2l-4.7-0.3l-0.2-4l-4.3-0.4v-9.3l-0.1,0.1h4.3l0.3,4.9l4.7,0.3l0.4,4.3h4.2l-0.1-0.1v4.3
			l4.4,0.4v4.2L414.5,160.9z"/>
		<path d="M526.2,210.3h18.1v-8.6h4.3v12.7h-22.3C526.3,213.1,526.3,211.6,526.2,210.3L526.2,210.3z"/>
		<path d="M423.1,192.1v9.2l4.3,0.4v12.8h-4.1V206l-4.2-0.3v-13.5L423.1,192.1L423.1,192.1z"/>
		<path d="M535.6,125.3v4.4h13v4.2h-22.3v-4.2l-0.1,0.1h5v-4.5L535.6,125.3L535.6,125.3z"/>
		<path d="M544.4,179v4.2l4.2,0.4v8.5H540l0.1,0.1c0-4.4,0-8.9,0.1-13.3l-0.1,0.1L544.4,179L544.4,179z"/>
		<path d="M540.1,156.6v-4.2l-4.2-0.4v-4h12.7v8.6L540.1,156.6L540.1,156.6z"/>
		<path d="M508.8,53.4v4.3h-13.9l0.1,0.1c0-2.8,0-5.6,0-8.5h4.2l0.4,4.3h9.2L508.8,53.4z"/>
		<path d="M490.7,179.1v-8.6h4.1l0.4,4.2h9.2l-0.1-0.1v4.5l0.1-0.1L490.7,179.1L490.7,179.1z"/>
		<path d="M410.1,170.3v-4.8l4.4-0.4v-4.3l-0.1,0.1h4.4v9.4l0.1-0.1H410L410.1,170.3z"/>
		<path d="M472.5,53.5h9.4v4.4l0.1-0.1h-4.9l-0.4,4.2h-4.1L472.5,53.5L472.5,53.5z"/>
		<path d="M544.5,179.1v-13.7h4.1V179h-4.2L544.5,179.1z"/>
		<path d="M540,192.1v13.7h-4.1v-13.6L540,192.1L540,192.1z"/>
		<path d="M392.1,88.8v-3.9h13.5v3.9L392.1,88.8z"/>
		<path d="M410,170.2v4.2l4.2,0.4v4h-8.4c0-2.9,0-5.8,0-8.8l-0.1,0.1L410,170.2L410,170.2z"/>
		<path d="M513.1,84.7h12.9V89h-12.9l0.1,0.1v-4.4L513.1,84.7z"/>
		<path d="M414.4,93.4v4.8h-8.5v-4.7h8.6L414.4,93.4z"/>
		<path d="M499.4,147.8h9.2v4.2h-9.1v-4.2L499.4,147.8z"/>
		<path d="M504.5,174.7v-9.4h4.4l-0.1-0.1v9.5l0.1-0.1L504.5,174.7L504.5,174.7z"/>
		<path d="M463.9,53.5v-4.2h8.7v4.2l0.1-0.1L463.9,53.5L463.9,53.5z"/>
		<path d="M499.3,161.1v4h-8.3v-4H499.3z"/>
		<path d="M455.2,210v-3.9h8.5v3.9H455.2z"/>
		<path d="M392,115.9h-8.6v-4.1h8.5L392,115.9L392,115.9z"/>
		<path d="M531.5,165.4h3.9v4.7h-3.9V165.4z"/>
		<path d="M526.3,129.6H522v-4.4l-0.1,0.1l4.5-0.1C526.4,126.8,526.3,128.2,526.3,129.6L526.3,129.6z"/>
		<path d="M521.9,107.2h4.5l-0.1-0.1v4.2H522v-4.2L521.9,107.2z"/>
		<path d="M423.3,174.6h-4.4v-4.4l-0.1,0.1h4.5l-0.1-0.1v4.5L423.3,174.6z"/>
		<path d="M387.6,93.4h-4.2v-4.1h4.1C387.6,90.7,387.6,92.1,387.6,93.4L387.6,93.4z"/>
		<path d="M486.4,57.9v-4.2h4.3v4.2l0.1-0.1L486.4,57.9L486.4,57.9z"/>
		<path d="M486.3,179.1h4.5l-0.1-0.1v4.4h-4.4l0.1,0.1V179L486.3,179.1z"/>
		<path d="M414.5,89h-4.2v-4.1h4.1v4.2L414.5,89z"/>
		<path d="M481.9,57.9h4.5l-0.1-0.1v4.5l0.1-0.1H482v-4.4L481.9,57.9z"/>
		<path d="M423.2,192.2v-4.3h4.5l-0.1-0.1c-0.1,1.3-0.1,2.6-0.2,4.3h-4.3L423.2,192.2z"/>
		<path d="M468.2,201.5h-4.4v-4.4l-0.1,0.1h4.4v4.4L468.2,201.5z"/>
		<path d="M508.8,53.5v-4.2h4.2v4.1L508.8,53.5L508.8,53.5z"/>
		<path d="M445.6,201.6h4.2v4.1h-4.1C445.7,204.3,445.7,202.9,445.6,201.6L445.6,201.6z"/>
		<path d="M441.4,210.2h-4.2v-4.1h4.1L441.4,210.2L441.4,210.2z"/>
		<path d="M513.1,89v4.4h-4.4l0.1,0.1v-4.4h4.4L513.1,89z"/>
		<path d="M441.3,210.3h4.2v4.1h-4.1L441.3,210.3L441.3,210.3z"/>
		<path class="st2" d="M423.3,170.3h-4.5V161h-4.4v-4.2l-4.4-0.4v-4.3h4.2V148h-4.1v4.2h-4.2l-0.4-4.3l-4.7-0.3l-0.3-4.9h-4.3v-4.2
			l-4.1-0.3l-0.4-4.1l-4.3-0.3v-8.6h8.6l0.4-4.3h4.3l-0.1-0.1v4.5h5.1l-0.1-0.1v4.5h4.5l-0.1-0.1v4.5h4.5l-0.1-0.1v4.2l-4.1,0.4v4.1
			h8.4v9.5h8.9l-0.1-0.1v8.6l-4.3,0.4L423.3,170.3z M400.7,134.1v-4.2h-4.1v4.1h4.2v4.2h4.7v-4.1L400.7,134.1z"/>
		<path class="st2" d="M472.5,147.8v4.2l4.5,0.4v4.3h-8.6l-0.4-4.2h-4.1l-0.2,4h-4.2V148l-4.4-0.2V143h-5v-4.6l-0.1,0.1h5.1V134
			l-0.1,0.1h8.6l0.4-4.2h8.6v13l0.1-0.1l-4.5,0.1c0-1.4,0-2.8,0-4.2H464v4.1h4.2v5.1h4.4L472.5,147.8z"/>
		<path class="st2" d="M410,125.4h17.5v8.5h9.2v-4l-4-0.3v-4l4.1-0.4l0.2-4.3l-0.1,0.1l8.8-0.1v4.3l-4.2,0.4v4l4.1,0.4v4.2l0.1-0.1
			h-4.2l-0.4,4.3h-17.8l-0.2-4.3h-8.7l0.1,0.1v-4.5H410l0.1,0.1v-4.5L410,125.4z"/>
		<path class="st2" d="M423.2,174.7v-4.5h4.3l0.3-4.8h4.8v4.5h4.3l0.3-4.6h22.3v4.9l0.1-0.1H455v4.5l0.1-0.1h-4.8l-0.4,4.5h-4.3
			v-4.2H437l-0.2,3.9h-4.1l-0.4-4.1L423.2,174.7z"/>
		<path class="st2" d="M463.9,192.2h-4.2l-0.4-4.2l-4.2-0.4v-13l-0.1,0.1h4.5v-4.5l-0.1,0.1h4.3l0.3-4.9h4.1v9.1h8.7v4.4h-17v4.4
			h8.3v4.2l-4.2,0.4L463.9,192.2z"/>
		<path class="st2" d="M427.6,152.2V143h13.7v4.8l0.1-0.1h-4.2v4.5h4.2l-0.1-0.1v8.6h-8.6v-8.6L427.6,152.2L427.6,152.2z"/>
		<path class="st2" d="M486.3,183.4h4.4V179h13.8l-0.1,4.5l0.1-0.1h-5v8.6h-8.7l-0.2-4l-4.3-0.4L486.3,183.4z"/>
		<path class="st2" d="M513.4,179.2h12.8v12.8h-12.8V179.2z M521.9,183.6h-4.1v3.9h4.1V183.6z"/>
		<path class="st2" d="M468.1,201.6v-4.4h-4.4v-5.1h22.5v5.1l0.1-0.1h-13.6l-0.4,4.5L468.1,201.6z"/>
		<path class="st2" d="M508.8,174.7v-9.5h4.2l0.4-4.2h8.5v4l-4.3,0.4v4.9l0.1-0.1h-4.2l-0.4,4.5L508.8,174.7z"/>
		<path class="st2" d="M517.6,201.5h-4.2l-0.4,4.3h-8.3v-8.4h12.8L517.6,201.5L517.6,201.5z"/>
		<path class="st2" d="M441.3,147.8h8.6l0.4,4.1l4.7,0.3v4h-9l-0.4-4.2h-4.2l0.1,0.1v-4.5L441.3,147.8z"/>
		<path class="st2" d="M499.5,210.2h-8.6v-4.1h8.5L499.5,210.2L499.5,210.2z"/>
		<path class="st2" d="M504.4,183.5h4.2v8.6h-4.1L504.4,183.5L504.4,183.5z"/>
		<path class="st2" d="M486.3,197.2h8.6v4.1h-8.5L486.3,197.2L486.3,197.2z"/>
		<path class="st2" d="M450.1,138.4h-4.4V134l-0.1,0.1h4.5L450,134v4.5L450.1,138.4z"/>
		<path class="st2" d="M517.5,170.3h4.2v4.1h-4.1L517.5,170.3L517.5,170.3z"/>
		<path class="st2" d="M504.4,174.6h4.5v4.5h-4.5V174.6z"/>
		<path class="st2" d="M486.4,179v4.5h-4.2V179H486.4z"/>
		<path class="st2" d="M517.5,201.6h4.2v4.1h-4.1L517.5,201.6L517.5,201.6z"/>
		<path class="st2" d="M472.6,120.9h-4.3v-5h-4.5l0.1,0.1V98.5h-4.5v-4.9l4.5-0.4V89l-0.1,0.1h4.2l0.4,4.4h4.2l-0.1-0.1v5.1h9.5
			l-0.1-0.1v4.5l0.1-0.1h-13.6v8.8h4.2l-0.1-0.1C472.5,114.6,472.5,117.8,472.6,120.9L472.6,120.9z"/>
		<path class="st2" d="M522,107.2v4.2h4.3v-4.2h5v8.6h4.3l0.2-4h4.1l0.4,4l4.1,0.2v4.8h-8.6v4.5l-4.5-0.1l0.1,0.1v-4.5h-5.1l0.1,0.1
			v-4.8H522v4.9l0.1-0.1h-4.2v-13.8H522z"/>
		<path class="st2" d="M504.5,134.1h-4.8l-0.4,4.1l-4.1,0.4l-0.3,4.3h-8.6v-8.7h-9.1v-4.5h13.4l0.2-4.2h4.1l0.4,4.2h9.2l-0.1-0.1
			C504.4,131.1,504.4,132.6,504.5,134.1z"/>
		<path class="st2" d="M495,71.6l4.5-0.1v13.1l-4.3,0.2v8.6h-4.5l0.1,0.1V89h-4.5l0.1,0.1v-4.4h-4.5l0.1,0.1v-4.5l-0.1,0.1h4.2
			l0.4-4.3h4.1l0.2,4h4.3L495,71.6L495,71.6z"/>
		<path class="st2" d="M490.6,102.8v4.2l4.4,0.4v8.6l0.1-0.1h-13.2l0.1,0.1c0-4.4,0-8.8,0-13.2l-0.1,0.1L490.6,102.8L490.6,102.8z"
			/>
		<path class="st2" d="M513.1,102.8v18h-8.5v-4.7l3.9-0.2v-4.2h-9v-4.4h9l0.4-4.4h4.3L513.1,102.8z"/>
		<path class="st2" d="M490.6,93.4c0,1.7,0,3.4,0,5.1l0.1-0.1h-8.8l0.1,0.1v-5.1h-9.5l0.1,0.1v-4.3l4.3-0.4v-4.2l5.1,0.1l-0.1-0.1
			v4.5h4.5l-0.1-0.1v4.5L490.6,93.4L490.6,93.4z"/>
		<path class="st2" d="M463.8,115.9v9.4H455l0.1,0.1V116H450c0-1.5,0-3,0.1-4.5l-0.1,0.1h9.3l0.4,4.4L463.8,115.9L463.8,115.9z"/>
		<path class="st2" d="M513.2,89.1h-4.4v4.4h-9.2v-4.3l4.8-0.3V76.1h4.3v8.6h4.5L513.2,89.1z"/>
		<path class="st2" d="M486.4,142.8v5h-13.8l0.1,0.1v-5.1l-0.1,0.1L486.4,142.8z"/>
		<path class="st2" d="M455,125.3v8.8l0.1-0.1H450l0.1,0.1v-8.8L455,125.3L455,125.3z"/>
		<path class="st2" d="M490.6,98.5h8.6v4.3h-8.6l0.1,0.1L490.6,98.5L490.6,98.5z"/>
		<path class="st2" d="M481.9,115.9v5h-5l0.1,0.1v-5L481.9,115.9L481.9,115.9z"/>
		<path class="st2" d="M495,116h4.2v4.8h-4.1C495.1,119.2,495.1,117.5,495,116L495,116z"/>
		<path class="st2" d="M508.9,138.5h-4.5V134h4.5V138.5z"/>
		<path class="st2" d="M476.9,120.9v4.2h-4.3v-4.2l-0.1,0.1h4.5L476.9,120.9z"/>
		<path class="st2" d="M526.3,125.3l-4.5,0.1l0.1-4.5l-0.1,0.1h4.5l-0.1-0.1L526.3,125.3L526.3,125.3z"/>
		<path class="st2" d="M504.5,129.7v-4.2h4.1v4.1L504.5,129.7L504.5,129.7z"/>
		<path class="st2" d="M437,120.9h-9.2v-9.2h9.2v-4.5l-0.1,0.1h8.8v-4.5h9.5v4.3l-5.1,0.3v4.3l0.1-0.1h-8.6l-0.4,4.3l-4.2,0.3
			L437,120.9L437,120.9z"/>
		<path class="st2" d="M423.2,98.5v-9.2h4.2l0.4,4.2h4.9l-0.1-0.1v9.2l4.4,0.4v4.2l0.1-0.1h-9.3v-8.7H423.2z"/>
		<path class="st2" d="M400.8,121v-4.8h4.9v4.8l0.1-0.1L400.8,121L400.8,121z"/>
		<path class="st2" d="M423,120.9h-4v-4.8h4V120.9z"/>
		<path class="st2" d="M410.3,121.1v-5h4v4.7L410.3,121.1L410.3,121.1z"/>
		<path class="st2" d="M414.4,107.1v4.2h-4.1v-4.1L414.4,107.1L414.4,107.1z"/>
		<path class="st2" d="M405.7,121l4.6,0.1l-0.1-0.1c0,1.5-0.1,2.9-0.1,4.4l0.1-0.1h-4.5l0.1,0.1L405.7,121L405.7,121z"/>
		<path class="st2" d="M437,76V62.3h4.4l-0.1-0.1l0.2,4.3l4.3,0.4v4.8h13.7c0,1.7,0,3,0,4.3h-4.2v4.1h4.1v-4.2l4.4,0.2v13l0.1-0.1
			L450,89.1v-4.2h-4.3v4.2h-4.4v9.4h-4.3l-0.3-5.1h-4.3l0.1,0.1v-4.2l4.2-0.3l0.3-4.1l4-0.2v-8.5l-4.2-0.2L437,76z M445.9,76.1v4h4
			v-4H445.9z"/>
		<path class="st2" d="M482,57.8v4.4h4.4v4.2l-4.5,0.4v13.6l0.1-0.1l-5.1,0.1V76h-4.4v-4.4h4.2v-4.7h-4.1v4.8h-4.5v-9.2h-8.5
			l-0.3,3.9h-9.1l-0.4-4.2h-8.6l0.1,0.1l-0.1-4.5h22.5v-4.4h8.8V62h4.1l0.4-4.2L482,57.8z"/>
		<path class="st2" d="M432.7,75.8l-5.2,0.1l0.1,0.1v-4.2h4.8C432.5,73.1,432.6,74.5,432.7,75.8L432.7,75.8z"/>
		<path class="st2" d="M432.5,62.4v4h-4.8v-4L432.5,62.4z"/>
		<path class="st2" d="M436.9,75.9v4.2h-4.2c0-1.3,0-2.8,0-4.3l-0.1,0.1L436.9,75.9L436.9,75.9z"/>
		<path class="st2" d="M427.5,75.9v4.2h-4.1V76L427.5,75.9L427.5,75.9z"/>
		<path class="st2" d="M387.7,75.7V53.6h22.1v22.1H387.7z M405.5,71.5V58h-13.3v13.4H405.5z"/>
		<path class="st2" d="M544.2,75.8h-22.1V53.7h22.1V75.8z M539.8,71.5V58.1h-13.3v13.4H539.8z"/>
		<path class="st2" d="M387.8,187.9h22.1V210h-22.1V187.9z M392.2,192.2v13.4h13.3v-13.4H392.2z"/>
		<path class="st2" d="M445.7,179v8.6l4.4,0.4v4.3h-13V188l4.2-0.4V179H445.7z"/>
		<path class="st2" d="M495.1,71.5h-4.2v-4.8h4.1c0,1.6,0,3.2,0,4.8L495.1,71.5z"/>
		<path class="st2" d="M486.3,62.3v-4.5h4.5v4.5H486.3z"/>
		<path class="st2" d="M396.4,160.9v4.5h-4.5v-4.5H396.4z"/>
		<path class="st2" d="M526.3,129.7c0-1.5,0-3,0.1-4.5l-0.1,0.1h5.1l-0.1-0.1v4.5H526.3z"/>
		<path d="M400.7,134.1h4.8v4.1h-4.7V134L400.7,134.1z"/>
		<path d="M405.8,120.9v4.5h-5.1v-4.5H405.8z"/>
		<path d="M400.8,134h-4.2v-4.1h4.1C400.7,131.3,400.7,132.7,400.8,134L400.8,134z"/>
		<path d="M410,129.6h4.5v4.5H410V129.6z"/>
		<path d="M405.7,125.3h4.5v4.5h-4.5V125.3z"/>
		<path d="M410.1,152.2V148h4.1v4.1H410L410.1,152.2z"/>
		<path d="M472.6,142.8v5.1h-4.4v-5.1l-0.1,0.1L472.6,142.8z"/>
		<path d="M450,134h5.1v4.5H450V134z"/>
		<path d="M468.3,142.8H464v-4.1h4.1c0,1.4,0,2.8,0,4.2L468.3,142.8z"/>
		<path d="M455.1,125.4h-5v8.8h-4.5v-4.2l-4.1-0.4v-4l4.2-0.4v-4.3l-0.1,0.1h4.5v-5.1L450,116h5.1V125.4z"/>
		<path d="M436.9,121v-4.8l4.2-0.3l0.4-4.3h8.6c0,1.5,0,3-0.1,4.5l0.1-0.1h-4.5v5.1l0.1-0.1L436.9,121z"/>
		<path d="M459.5,170.3v4.5H455v-4.5H459.5z"/>
		<path d="M441.4,147.8v4.5h-4.2v-4.5H441.4z"/>
		<path d="M521.9,183.6v3.9h-4.1v-3.9H521.9z"/>
		<path d="M441.3,62.2h8.6l0.4,4.2h9.1l0.3-3.9h8.5v9.2h4.5l-0.1-0.1V76l0.1-0.1h-4.2v8.8h8.6l-0.1-0.1v4.2l-4.3,0.4v4.3h-4.2
			l-0.4-4.4h-4.3v-13l-4.4-0.2l0.1,0.1v-4.4h-13.6v-4.8l-4.3-0.4L441.3,62.2z"/>
		<path d="M441.4,98.5v-9.4h4.4l-0.1-0.1v4.2h4.5V89l-0.1,0.1l13.8-0.1v4.2l-4.5,0.4v4.9l0.1-0.1H455v4.5l0.1-0.1h-9.5l0.1,0.1v-4.4
			h-4.5L441.4,98.5z"/>
		<path d="M477,121h-4.5c0-3.2,0-6.3,0-9.4h4.2v-4.2h-4.2v4.2h-4.2v-8.8H482c0,4.4,0,8.8,0,13.2h-5V121z"/>
		<path d="M450,111.6v-4.3l5.1-0.3v-4.3l-0.1,0.1h4.5v-4.5l-0.1,0.1h4.5V116h-4.2l-0.4-4.4L450,111.6z"/>
		<path d="M472.5,93.4h9.5v5.1h-9.5L472.5,93.4z"/>
		<path d="M490.7,98.4v4.5h-8.8v-4.5H490.7z"/>
		<path d="M526.3,121h-4.5v-4.8h4.5V121z"/>
		<path d="M531.3,125.4h-5.1v-4.5h5.1V125.4z"/>
		<path d="M476.9,80.4l5.1-0.1v4.5l-5.1-0.1l0.1,0.1v-4.5L476.9,80.4z"/>
		<path d="M490.7,93.5h-4.5V89h4.5V93.5z"/>
		<path d="M486.4,89.1h-4.5v-4.5h4.5V89.1z"/>
		<path d="M432.5,93.4h4.3l0.3,5.1h4.3l-0.1-0.1v4.5h4.5l-0.1-0.1v4.5h-8.8V103l-4.4-0.4L432.5,93.4z"/>
		<path d="M445.7,89.1v-4.2h4.3v4.2l0.1-0.1h-4.5L445.7,89.1z"/>
		<path d="M459.4,75.9v4.2h-4.1V76h4.2L459.4,75.9z"/>
		<path d="M445.9,76.1h4v4h-4V76.1z"/>
		<path d="M472.6,71.6v-4.8h4.1v4.7L472.6,71.6L472.6,71.6z"/>
		<path d="M472.5,76h4.4v4.4l0.1-0.1h-4.4v-4.4L472.5,76z"/>
		<path d="M405.5,71.5h-13.3V58h13.3V71.5z"/>
		<path d="M539.8,71.5h-13.3V58.1h13.3V71.5z"/>
		<path d="M392.2,192.2h13.3v13.4h-13.3V192.2z"/>
		<path class="st2" d="M445.7,121v-5.1h4.5v5.1H445.7z"/>
		<path class="st2" d="M472.6,75.9v4.4h4.4v4.5h-8.6v-8.8H472.6z"/>
		<path class="st2" d="M445.7,89h4.5v4.2h-4.5V89z"/>
		<path class="st2" d="M445.7,102.9h-4.5v-4.5h4.5V102.9z"/>
		<path class="st2" d="M459.5,98.4v4.5H455v-4.5H459.5z"/>
		<path class="st2" d="M472.6,111.6v-4.2h4.1v4.1L472.6,111.6L472.6,111.6z"/>
	</g>
</g>
</svg>
