<svg xmlns="http://www.w3.org/2000/svg" viewBox="0 0 190.87 182.82"><defs><style>.cls-1{fill:#3e3a39;}.cls-2{fill:#595757;}.cls-3{fill:#1e5199;}</style></defs><title>hitrobot_nobody_top_down</title><g id="图层_2" data-name="图层 2"><g id="图层_1-2" data-name="图层 1"><path class="cls-1" d="M.26,142.59H8.49l10.74,14.34V142.59h8.31v25.93H19.23L8.54,154.29v14.24H.26Z"/><path class="cls-1" d="M32.28,155.58q0-6.35,3.89-9.89T47,142.15q7.12,0,11,3.47t3.85,9.74a14.73,14.73,0,0,1-1.68,7.45,11.47,11.47,0,0,1-4.86,4.53A17.4,17.4,0,0,1,47.36,169a19.82,19.82,0,0,1-8-1.4,11.63,11.63,0,0,1-5.12-4.42A13.62,13.62,0,0,1,32.28,155.58Zm8.81,0q0,3.93,1.61,5.64A5.69,5.69,0,0,0,47.06,163a5.7,5.7,0,0,0,4.4-1.68q1.56-1.68,1.56-6,0-3.66-1.62-5.35A5.83,5.83,0,0,0,47,148.22a5.6,5.6,0,0,0-4.28,1.71Q41.09,151.65,41.09,155.61Z"/><path class="cls-1" d="M66.6,142.59h16.5a9.58,9.58,0,0,1,6.33,1.86,5.78,5.78,0,0,1,2.21,4.6A5.5,5.5,0,0,1,90.06,153,7.14,7.14,0,0,1,87,154.73,8.22,8.22,0,0,1,91.51,157,6,6,0,0,1,93,161.15a6.58,6.58,0,0,1-1,3.63,7.28,7.28,0,0,1-2.82,2.55,10,10,0,0,1-3.35.85q-3,.35-3.95.35H66.6Zm8.89,10.17h3.83a4.74,4.74,0,0,0,2.87-.64,2.25,2.25,0,0,0,.81-1.87,2.13,2.13,0,0,0-.81-1.77,4.65,4.65,0,0,0-2.81-.64H75.49Zm0,10.19H80a5.32,5.32,0,0,0,3.21-.73,2.38,2.38,0,0,0,.93-2,2.21,2.21,0,0,0-.92-1.85,5.56,5.56,0,0,0-3.24-.7H75.49Z"/><path class="cls-1" d="M96.46,155.58q0-6.35,3.89-9.89t10.84-3.54q7.12,0,11,3.47t3.85,9.74a14.75,14.75,0,0,1-1.68,7.45,11.49,11.49,0,0,1-4.87,4.53,17.38,17.38,0,0,1-7.93,1.62,19.83,19.83,0,0,1-8-1.4,11.64,11.64,0,0,1-5.13-4.42A13.63,13.63,0,0,1,96.46,155.58Zm8.81,0q0,3.93,1.61,5.64a6.5,6.5,0,0,0,8.76,0q1.56-1.68,1.56-6,0-3.66-1.63-5.35a5.83,5.83,0,0,0-4.41-1.69,5.6,5.6,0,0,0-4.28,1.71Q105.27,151.65,105.27,155.61Z"/><path class="cls-1" d="M130.88,142.59H144a17.08,17.08,0,0,1,6.25,1,10.12,10.12,0,0,1,3.94,2.74,11,11,0,0,1,2.25,4.16,17.59,17.59,0,0,1,.7,5,16,16,0,0,1-1,6.45,10.71,10.71,0,0,1-2.89,3.84,9.71,9.71,0,0,1-4,2.06,22.4,22.4,0,0,1-5.25.71H130.88Zm8.81,5.87v14.17h2.16a9.87,9.87,0,0,0,3.93-.56,3.91,3.91,0,0,0,1.83-1.95,11.18,11.18,0,0,0,.66-4.5q0-4.12-1.48-5.64t-4.9-1.52Z"/><path class="cls-1" d="M158.87,142.59h9.79l5.75,8.75,5.76-8.75h9.74l-11.09,15.07v10.86H170V157.66Z"/><path class="cls-2" d="M6.3,173H7.94v9.66H6.3v-4.29H1.59v4.29H0V173H1.59v4H6.3Z"/><path class="cls-2" d="M14.6,173h1.59v9.66H14.6Z"/><path class="cls-2" d="M30.17,174.41H27v8.26H25.37v-8.26H22.1V173h8.08Z"/><path class="cls-2" d="M52.65,182.67H50.5l-3.27-4.11h-2v4.11H43.68V173h4.53q3.27.09,3.41,2.75a2.59,2.59,0,0,1-2.57,2.75Zm-7.37-8.26v2.71h2.66q2.1,0,2.05-1.45,0-1.21-2.05-1.26Z"/><path class="cls-2" d="M62.67,172.82q4.43.28,4.76,5-.14,4.85-4.85,5-4.58-.23-4.76-4.95Q58,173.05,62.67,172.82Zm-.14,8.68q3.13-.14,3.22-3.64-.23-3.36-3.13-3.64-3,.23-3.17,3.64Q59.59,181.27,62.53,181.5Z"/><path class="cls-2" d="M77.87,182.67H73.49V173h4.16q3.08.14,3.27,2.52a2.18,2.18,0,0,1-1.21,2,2.51,2.51,0,0,1,1.63,2.38Q81.33,182.67,77.87,182.67ZM75,174.41V177h2.38q1.82,0,1.87-1.35t-1.82-1.21Zm2.57,4H75v2.94h2.71q2,0,2-1.49T77.59,178.37Z"/><path class="cls-2" d="M92,172.82q4.43.28,4.76,5-.14,4.85-4.85,5-4.58-.23-4.76-4.95Q87.34,173.05,92,172.82Zm-.14,8.68q3.13-.14,3.22-3.64-.23-3.36-3.13-3.64-3,.23-3.17,3.64Q88.88,181.27,91.82,181.5Z"/><path class="cls-2" d="M110.1,174.41h-3.22v8.26h-1.59v-8.26H102V173h8.07Z"/><path class="cls-2" d="M127.91,177.39h4.62v3.69a5,5,0,0,1-4.29,1.73q-4.81-.19-5-4.95.19-4.85,4.81-5a4.37,4.37,0,0,1,4.39,2.85l-1.68.47a2.71,2.71,0,0,0-2.75-1.87q-2.9.23-3.08,3.59.19,3.36,3.27,3.59a3.44,3.44,0,0,0,2.75-1v-1.68h-3Z"/><path class="cls-2" d="M147.78,182.67h-2.15l-3.27-4.11h-2v4.11h-1.59V173h4.53q3.27.09,3.41,2.75a2.59,2.59,0,0,1-2.57,2.75Zm-7.37-8.26v2.71h2.66c1.4,0,2.08-.48,2.05-1.45q0-1.21-2.05-1.26Z"/><path class="cls-2" d="M157.8,172.82q4.44.28,4.76,5-.14,4.85-4.86,5-4.58-.23-4.76-4.95Q153.18,173.05,157.8,172.82Zm-.14,8.68q3.12-.14,3.22-3.64-.23-3.36-3.13-3.64-3,.23-3.17,3.64Q154.72,181.27,157.66,181.5Z"/><path class="cls-2" d="M175,173h1.59v5.6q.14,4.39-4.06,4.2-4,.14-3.92-4.2V173h1.59v5.6q0,2.94,2.33,2.85,2.57.09,2.47-2.85Z"/><path class="cls-2" d="M187.37,178.93h-2.61v3.73h-1.63V173h4.34q3.17.14,3.41,2.94Q190.82,178.89,187.37,178.93Zm-.14-4.53h-2.47v3.13h2.47q2,0,2-1.63Q189.14,174.45,187.23,174.41Z"/><circle class="cls-3" cx="89.87" cy="63.1" r="5.83"/><path class="cls-3" d="M141.46,24.69V57.15c-2.95,9.32-7.34,13.33-12.11,14.32V12.8a64.18,64.18,0,0,0-87.92,92.29v-33c2.43-11.58,7.07-16.47,12.11-17.92v62.15a64.16,64.16,0,0,0,87.92-91.68ZM89.67,89.35A26.26,26.26,0,0,1,65.52,52.81c-6.81-4.95-19.12-10-24.09,12.83v-11c0-19.38,16.76-25.94,34.92-14.11A26.21,26.21,0,0,1,115.92,63.1a26.42,26.42,0,0,1-.37,4.23L107,61.48a17.37,17.37,0,1,0-17.29,19,17.63,17.63,0,0,0,1.91-.11l9.06,6.56A26.09,26.09,0,0,1,89.67,89.35Zm51.79-17.16c0,17.43-11.68,33.34-47.64,2.95a12.66,12.66,0,1,1,8.72-12c0,.28,0,.54,0,.82,13.32,10.24,30.19,22.8,39-1.05Z"/></g></g></svg>