<?xml version="1.0" encoding="utf-8"?>
<!-- Generator: Adobe Illustrator 21.1.0, SVG Export Plug-In . SVG Version: 6.00 Build 0)  -->
<svg version="1.1" id="图层_1" xmlns="http://www.w3.org/2000/svg" xmlns:xlink="http://www.w3.org/1999/xlink" x="0px" y="0px"
	 viewBox="0 0 350.2 217.3" style="enable-background:new 0 0 350.2 217.3;" xml:space="preserve">
<style type="text/css">
	.st0{fill:#898989;}
	.st1{fill:#10386B;}
	.st2{font-family:'ArialMT';}
	.st3{font-size:7.52px;}
	.st4{enable-background:new    ;}
	.st5{fill:#231815;}
	.st6{font-size:8.12px;}
	.st7{font-family:'AdobeSongStd-Light-GBpc-EUC-H';}
	.st8{fill:none;stroke:#231815;stroke-width:0.42;stroke-miterlimit:3.86;}
	.st9{fill:#FFFFFF;}
	.st10{fill:#D3D3D4;}
	.st11{fill:none;stroke:#231815;stroke-width:0.44;}
	.st12{fill:none;stroke:#231815;stroke-width:0.31;stroke-miterlimit:3.86;}
	.st13{fill:none;stroke:#231815;stroke-width:0.19;}
	.st14{font-size:6.41px;}
	.st15{font-size:4px;}
</style>
<title>hitrobot_hrg_text_logo_ash</title>
<g id="图层_2">
	<g id="图层_1-2">
		<path class="st0" d="M47.6,60.6h7.1v19h-1.9v-1.9h-3.2v2.3h-1.9V60.6z M52.8,75.9V62.5h-3.2v13.4H52.8z M65.5,57.5l-0.4,0.7
			c1.7,3.5,4.4,6.3,7.8,8.2c-0.5,0.6-1,1.3-1.5,1.9c-3.1-2.1-5.7-5-7.5-8.3c-1.9,3.3-4.4,6.2-7.6,8.4c-0.4-0.6-0.9-1.1-1.4-1.6
			c3.5-2.2,6.3-5.4,8-9.2L65.5,57.5z M57.4,72.7h12.6v11.1H68v-1.6h-8.5v1.6h-2L57.4,72.7z M58.4,67.4h10.8v1.9H58.5L58.4,67.4z
			 M68,80.4v-5.8h-8.5v5.7L68,80.4z"/>
		<path class="st0" d="M76.7,79.6h11.7V61.8H78.2v-2.1H101v2.1H90.8v17.8h11.7v2.1H76.7V79.6z"/>
		<path class="st0" d="M106.4,81.5c7.3-3.3,11.3-8.2,11.9-14.7h-11.4v-2.1h11.5c0-2.4,0.1-4.8,0.1-7.2h2.3c0,2.4,0,4.8-0.1,7.2h11.9
			v2.1h-11.9c1.3,7.1,5.4,11.8,12.4,14.1c-0.7,0.7-1.4,1.4-2,2.2c-5.6-2.1-9.8-6.7-11.4-12.5c-1.4,5.4-5.3,9.7-11.7,13
			C107.7,83.1,107.2,82.4,106.4,81.5z"/>
		<path class="st0" d="M136.5,74.1c2-2.9,3.4-6.2,4.3-9.6h-4v-1.8h4.2v-5.3h1.9v5.3h3.7v1.8h-3.7v4.4l1.1-1.1c1.4,1.2,2.4,2.2,3.2,3
			l-1.4,1.5c-1.1-1.2-2-2.2-2.9-3v14.1h-1.9V69.1c-0.8,2.6-2,5.1-3.6,7.3C137.1,75.6,136.8,74.8,136.5,74.1z M150.5,61.1v8.8
			c0,6.4-1.6,11-4.8,13.9c-0.5-0.6-1-1.2-1.6-1.8c2.8-2.5,4.2-6.3,4.2-11.6V59.1h9.9v20.1c0,0.9,0.3,1.3,0.9,1.3h0.6
			c0.6,0,0.9-0.5,1.1-1.5c0.2-1.4,0.3-2.8,0.4-4.4c0.7,0.3,1.3,0.6,2,0.8c-0.2,1.8-0.3,3.2-0.5,4.3c-0.3,1.9-1.2,2.8-2.7,2.8h-1.4
			c-1.7,0-2.6-1-2.6-3V61.1L150.5,61.1z"/>
		<path class="st0" d="M167.5,68.6h10.8c0.3-0.7,0.5-1.5,0.5-2.3l1.9,0.3c-0.1,0.7-0.3,1.4-0.5,2.1h5.8c-0.7-0.5-1.5-1-2.2-1.6
			l1.1-1.2c1.2,0.7,2.2,1.4,3.2,2.1l-0.6,0.6h5v1.8h-10.3c2.1,2,5.7,3,11,2.9c-0.4,0.7-0.8,1.4-1.1,2.1l-1.4-0.1v8.2h-1.9v-1.4h-5.7
			v1.4h-1.9V75h8.5c-5.1-0.7-8.4-2.2-9.8-4.7h-0.5c-1,2.1-4.2,3.7-9.7,4.7h8.6v8.3h-1.9v-1.4h-5.6v1.5H169v-8.1l-1.5,0.3
			c-0.3-0.5-0.6-1.2-1-1.9c5.9-0.8,9.5-1.8,10.7-3.2h-9.7L167.5,68.6z M168.9,58.8h9.4v7.8h-1.9v-0.8h-5.6v1.1h-1.9L168.9,58.8z
			 M176.4,60.5h-5.6v3.6h5.6V60.5z M176.4,76.7h-5.6v3.5h5.6V76.7z M181.2,58.8h9.5v7.9h-1.9v-0.9H183v0.8h-1.9L181.2,58.8z
			 M188.7,60.5H183v3.6h5.7V60.5z M188.7,76.7H183v3.5h5.7V76.7z"/>
		<path class="st0" d="M196.7,81.4c7.8-4.5,11.9-12.4,12.3-23.6h2.4c-0.1,1.8-0.3,3.6-0.6,5.5c2.2,8.9,6.4,14.8,12.4,17.6
			c-0.7,0.8-1.4,1.6-2,2.3c-5.3-3-9-8.3-11.2-15.9c-2,7.3-5.8,12.7-11.6,16.2C197.9,82.7,197.3,82,196.7,81.4z"/>
		<path class="st0" d="M227.6,75.2h11.5v-1.8h1.9v1.8h11.5v1.7h-9.4c3.1,2.2,6.7,3.7,10.4,4.5l-1.3,2c-4.1-1.1-8-3.2-11.2-6v6.3
			h-1.9v-6.3c-3.3,2.7-7.1,4.8-11.2,6.1c-0.4-0.6-0.8-1.1-1.3-1.7c3.7-0.9,7.3-2.5,10.3-4.8h-9.4L227.6,75.2z M239.4,58.1l1.6-1
			c0.8,0.8,1.5,1.7,2.1,2.7l-1.2,0.8h10.2v1.7h-10.1v1.9h9v1.6h-9v1.9h9v1.6h-9v2h10.2v1.7h-19.5v1h-1.9v-9.6c-0.9,1-1.8,2-2.8,2.9
			c-0.4-0.6-0.8-1.2-1.3-1.8c2.6-2.2,4.9-5,6.5-8l1.8,0.8c-0.5,0.8-1,1.6-1.5,2.3h7.6C240.6,59.8,240,58.9,239.4,58.1z M232.7,64.2
			h7.4v-1.9h-7.4V64.2z M232.7,67.6h7.4v-1.9h-7.4V67.6z M232.7,71.1h7.4v-2h-7.4V71.1z"/>
		<path class="st0" d="M258.5,58.7h23.4v24.9h-2v-1.3h-19.4v1.3h-2L258.5,58.7z M279.8,60.6h-19.3v19.9h19.3V60.6z M261.8,65.3h10
			v-3.9h2v3.9h5.1v1.8h-5.1v8.2c0,2.6-1.2,3.9-3.7,3.9c-1,0-2,0-3.1-0.1c-0.1-0.6-0.3-1.3-0.4-2.1c1,0.1,2,0.2,3,0.2
			c1.5,0,2.2-0.8,2.2-2.5v-6.3c-2.5,3.7-5.8,6.7-9.6,8.9c-0.4-0.6-0.8-1.2-1.4-1.8c3.8-2,7.2-4.9,9.7-8.5h-8.7L261.8,65.3z"/>
		<path class="st0" d="M56.7,95.4h1.4V108h-1.4v-5.9h-7.1v5.9h-1.5V95.4h1.5v5.5h7.1L56.7,95.4z"/>
		<path class="st0" d="M66.3,95.4h1.4V108h-1.4V95.4z"/>
		<path class="st0" d="M84.9,95.4v1.2h-4.3V108h-1.4V96.6h-4.3v-1.2L84.9,95.4z"/>
		<path class="st0" d="M112.6,108h-2l-4.4-5.7h-3.3v5.7h-1.4V95.4h5.9c2.7,0.1,4.1,1.3,4.3,3.4c0,2.2-1.3,3.4-3.8,3.5L112.6,108z
			 M102.9,96.7v4.4h4.1c2.1,0,3.1-0.8,3.1-2.3c0-1.3-1.1-2-3.1-2.1H102.9z"/>
		<path class="st0" d="M124.8,108.2c-3.8-0.2-5.8-2.3-6-6.3c0.2-4.3,2.2-6.5,6.2-6.8c3.7,0.3,5.7,2.5,6,6.6
			C130.8,106,128.8,108.1,124.8,108.2z M124.9,96.5c-2.8,0.3-4.3,2-4.6,5.4c0.2,3.2,1.7,5,4.5,5.2c2.9-0.2,4.5-1.9,4.7-5.2
			C129.2,98.5,127.7,96.8,124.9,96.5L124.9,96.5z"/>
		<path class="st0" d="M143.4,108h-5.2V95.4h4.9c2.5,0.1,3.9,1.2,4,3.2c0,1.4-1.1,2.6-2.5,2.8v0.1c1.7,0.1,3,1.5,3,3.2
			C147.5,106.8,146.1,108,143.4,108z M142.8,96.7h-3.3v4.2h3.3c1.7-0.1,2.7-0.8,2.8-2.3C145.6,97.4,144.6,96.7,142.8,96.7
			L142.8,96.7z M143,102.2h-3.5v4.7h3.7c2,0,3-0.8,3-2.5C146.1,103,145,102.3,143,102.2L143,102.2z"/>
		<path class="st0" d="M160.7,108.2c-3.8-0.2-5.8-2.3-6-6.3c0.2-4.3,2.2-6.5,6.2-6.8c3.7,0.3,5.7,2.5,6,6.6
			C166.7,106,164.6,108.1,160.7,108.2z M160.8,96.5c-2.8,0.3-4.3,2-4.6,5.4c0.2,3.2,1.7,5,4.5,5.2c2.9-0.2,4.5-1.9,4.7-5.2
			C165,98.5,163.5,96.8,160.8,96.5L160.8,96.5z"/>
		<path class="st0" d="M183.2,95.4v1.2h-4.3V108h-1.4V96.6h-4.3v-1.2L183.2,95.4z"/>
		<path class="st0" d="M205.6,101.5h5.4v4.6c-1.1,1.4-2.9,2.1-5.4,2.1c-4-0.2-6-2.3-6.3-6.3c0.2-4.3,2.2-6.5,6-6.7
			c2.5-0.2,4.8,1.4,5.6,3.8l-1.6,0.4c-0.6-1.8-2.2-2.9-4.1-2.8c-2.7,0.3-4.1,2-4.4,5.4c0.2,3.2,1.8,5,4.7,5.2c1.5,0.1,3-0.4,4.1-1.5
			v-2.8h-4L205.6,101.5z"/>
		<path class="st0" d="M229.7,108h-2l-4.4-5.7H220v5.7h-1.4V95.4h5.9c2.7,0.1,4.1,1.3,4.3,3.4c0,2.2-1.3,3.4-3.8,3.5L229.7,108z
			 M220,96.7v4.4h4.1c2.1,0,3.1-0.8,3.1-2.3c0-1.3-1.1-2-3.1-2.1H220z"/>
		<path class="st0" d="M241.9,108.2c-3.8-0.2-5.8-2.3-6-6.3c0.2-4.3,2.2-6.5,6.2-6.8c3.7,0.3,5.7,2.5,6,6.6
			C247.9,106,245.9,108.1,241.9,108.2z M242,96.5c-2.8,0.3-4.3,2-4.6,5.4c0.2,3.2,1.7,5,4.5,5.2c2.9-0.2,4.5-1.9,4.7-5.2
			C246.3,98.5,244.8,96.8,242,96.5z"/>
		<path class="st0" d="M265.4,95.4v7.4c0,3.7-1.6,5.5-5,5.4c-3.4,0-5-1.9-4.9-5.4v-7.4h1.5v7.3c0,3,1.1,4.4,3.5,4.4
			c2.5,0.1,3.7-1.4,3.7-4.4v-7.3H265.4z"/>
		<path class="st0" d="M278.7,102.9h-3.9v5.1h-1.4V95.4h5.4c2.6,0.1,4,1.4,4.2,3.7C283,101.6,281.6,102.9,278.7,102.9z M278.4,96.7
			h-3.7v5h3.7c2,0,3-0.9,3.1-2.6C281.4,97.5,280.4,96.7,278.4,96.7z"/>
		<rect x="47.3" y="89" class="st0" width="235.6" height="0.5"/>
		<text transform="matrix(0.95 0 0 1 137.6099 215.0301)" class="st1 st2 st3">■</text>
		<text transform="matrix(0.95 0 0 1 144.7539 215.0301)" class="st4"><tspan x="0" y="0" class="st5 st2 st6"> </tspan><tspan x="2.3" y="0" class="st5 st7 st6">标准字体制图</tspan></text>
		<line class="st8" x1="341.4" y1="57.1" x2="341.4" y2="108.4"/>
		<line class="st8" x1="348.9" y1="57.1" x2="333.1" y2="57.1"/>
		<line class="st8" x1="349.4" y1="108.4" x2="333.6" y2="108.4"/>
		<rect x="332.9" y="73.3" class="st9" width="17.3" height="21.3"/>
		<line class="st8" x1="47" y1="195.1" x2="283.4" y2="195.1"/>
		<line class="st8" x1="283.4" y1="203.5" x2="283.4" y2="172.5"/>
		<line class="st8" x1="47" y1="203.5" x2="47" y2="172.5"/>
		<rect x="14.7" y="171" class="st9" width="16.2" height="15.9"/>
		<rect x="149.9" y="185.8" class="st9" width="28.2" height="17.3"/>
		<rect x="0.4" y="141.9" class="st10" width="23.3" height="23.1"/>
		<path class="st5" d="M10.6,155.1l-0.9,2.5H8.5l3.2-8.6h1.3l3.1,8.6h-1.3l-0.9-2.5H10.6z M13.6,154.1l-1.3-3.8l0,0l-1.4,3.8H13.6z"
			/>
		<rect x="0.2" y="0.2" class="st11" width="330" height="165.1"/>
		<line class="st12" x1="0.2" y1="141.7" x2="330.2" y2="141.7"/>
		<line class="st12" x1="0.2" y1="118" x2="330.2" y2="118"/>
		<line class="st12" x1="0.2" y1="94.5" x2="330.2" y2="94.5"/>
		<line class="st12" x1="0.2" y1="71" x2="330.2" y2="71"/>
		<line class="st12" x1="0.2" y1="47.4" x2="330.2" y2="47.4"/>
		<line class="st12" x1="0.2" y1="23.7" x2="330.2" y2="23.7"/>
		<line class="st12" x1="306.6" y1="0.2" x2="306.6" y2="165.4"/>
		<line class="st12" x1="283.1" y1="0.2" x2="283.1" y2="165.4"/>
		<line class="st12" x1="259.5" y1="0.2" x2="259.5" y2="165.4"/>
		<line class="st12" x1="236" y1="0.2" x2="236" y2="165.4"/>
		<line class="st12" x1="212.4" y1="0.2" x2="212.4" y2="165.4"/>
		<line class="st12" x1="188.8" y1="0.2" x2="188.8" y2="165.4"/>
		<line class="st12" x1="165.2" y1="0.2" x2="165.2" y2="165.4"/>
		<line class="st12" x1="141.6" y1="0.2" x2="141.6" y2="165.4"/>
		<line class="st12" x1="118.1" y1="0.2" x2="118.1" y2="165.4"/>
		<line class="st12" x1="94.5" y1="0.2" x2="94.5" y2="165.4"/>
		<line class="st12" x1="71" y1="0.2" x2="71" y2="165.4"/>
		<line class="st12" x1="47.3" y1="0.2" x2="47.3" y2="165.4"/>
		<line class="st12" x1="23.8" y1="0.2" x2="23.8" y2="165.4"/>
		<line class="st13" x1="23.7" y1="42.7" x2="306.5" y2="42.7"/>
		<line class="st13" x1="23.7" y1="37.9" x2="306.5" y2="37.9"/>
		<line class="st13" x1="23.7" y1="33.2" x2="306.5" y2="33.2"/>
		<line class="st13" x1="23.7" y1="28.5" x2="306.5" y2="28.5"/>
		<line class="st13" x1="301.9" y1="23.7" x2="301.9" y2="47.4"/>
		<line class="st13" x1="297.1" y1="23.7" x2="297.1" y2="47.4"/>
		<line class="st13" x1="292.4" y1="23.7" x2="292.4" y2="47.4"/>
		<line class="st13" x1="287.7" y1="23.7" x2="287.7" y2="47.4"/>
		<line class="st13" x1="278.2" y1="23.7" x2="278.2" y2="47.4"/>
		<line class="st13" x1="273.5" y1="23.7" x2="273.5" y2="47.4"/>
		<line class="st13" x1="268.9" y1="23.7" x2="268.9" y2="47.4"/>
		<line class="st13" x1="264.1" y1="23.7" x2="264.1" y2="47.4"/>
		<line class="st13" x1="254.7" y1="23.7" x2="254.7" y2="47.4"/>
		<line class="st13" x1="250" y1="23.7" x2="250" y2="47.4"/>
		<line class="st13" x1="245.3" y1="23.7" x2="245.3" y2="47.4"/>
		<line class="st13" x1="240.5" y1="23.7" x2="240.5" y2="47.4"/>
		<line class="st13" x1="231.1" y1="23.7" x2="231.1" y2="47.4"/>
		<line class="st13" x1="226.4" y1="23.7" x2="226.4" y2="47.4"/>
		<line class="st13" x1="221.7" y1="23.7" x2="221.7" y2="47.4"/>
		<line class="st13" x1="217" y1="23.7" x2="217" y2="47.4"/>
		<line class="st13" x1="207.5" y1="23.7" x2="207.5" y2="47.4"/>
		<line class="st13" x1="202.8" y1="23.7" x2="202.8" y2="47.4"/>
		<line class="st13" x1="198.1" y1="23.7" x2="198.1" y2="47.4"/>
		<line class="st13" x1="193.4" y1="23.7" x2="193.4" y2="47.4"/>
		<line class="st13" x1="184" y1="23.7" x2="184" y2="47.4"/>
		<line class="st13" x1="179.3" y1="23.7" x2="179.3" y2="47.4"/>
		<line class="st13" x1="174.6" y1="23.7" x2="174.6" y2="47.4"/>
		<line class="st13" x1="169.8" y1="23.7" x2="169.8" y2="47.4"/>
		<line class="st13" x1="160.4" y1="23.7" x2="160.4" y2="47.4"/>
		<line class="st13" x1="155.7" y1="23.7" x2="155.7" y2="47.4"/>
		<line class="st13" x1="151" y1="23.7" x2="151" y2="47.4"/>
		<line class="st13" x1="146.3" y1="23.7" x2="146.3" y2="47.4"/>
		<line class="st13" x1="136.8" y1="23.7" x2="136.8" y2="47.4"/>
		<line class="st13" x1="132.1" y1="23.7" x2="132.1" y2="47.4"/>
		<line class="st13" x1="127.4" y1="23.7" x2="127.4" y2="47.4"/>
		<line class="st13" x1="122.8" y1="23.7" x2="122.8" y2="47.4"/>
		<path class="st13" d="M118,47.4"/>
		<path class="st13" d="M118,23.7"/>
		<line class="st13" x1="113.3" y1="23.7" x2="113.3" y2="47.4"/>
		<line class="st13" x1="108.6" y1="23.7" x2="108.6" y2="47.4"/>
		<line class="st13" x1="103.9" y1="23.7" x2="103.9" y2="47.4"/>
		<line class="st13" x1="99.1" y1="23.7" x2="99.1" y2="47.4"/>
		<line class="st13" x1="89.8" y1="23.7" x2="89.8" y2="47.4"/>
		<line class="st13" x1="85" y1="23.7" x2="85" y2="47.4"/>
		<line class="st13" x1="80.3" y1="23.7" x2="80.3" y2="47.4"/>
		<line class="st13" x1="75.6" y1="23.7" x2="75.6" y2="47.4"/>
		<line class="st13" x1="66.1" y1="23.7" x2="66.1" y2="47.4"/>
		<line class="st13" x1="61.4" y1="23.7" x2="61.4" y2="47.4"/>
		<line class="st13" x1="56.8" y1="23.7" x2="56.8" y2="47.4"/>
		<line class="st13" x1="52" y1="23.7" x2="52" y2="47.4"/>
		<line class="st13" x1="42.6" y1="23.7" x2="42.6" y2="47.4"/>
		<line class="st13" x1="37.9" y1="23.7" x2="37.9" y2="47.4"/>
		<line class="st13" x1="33.2" y1="23.7" x2="33.2" y2="47.4"/>
		<line class="st13" x1="28.4" y1="23.7" x2="28.4" y2="47.4"/>
		<line class="st13" x1="23.7" y1="66.3" x2="306.5" y2="66.3"/>
		<line class="st13" x1="23.7" y1="61.6" x2="306.5" y2="61.6"/>
		<line class="st13" x1="23.7" y1="56.8" x2="306.5" y2="56.8"/>
		<line class="st13" x1="23.7" y1="52.1" x2="306.5" y2="52.1"/>
		<line class="st13" x1="301.9" y1="47.4" x2="301.9" y2="71"/>
		<line class="st13" x1="297.1" y1="47.4" x2="297.1" y2="71"/>
		<line class="st13" x1="292.4" y1="47.4" x2="292.4" y2="71"/>
		<line class="st13" x1="287.7" y1="47.4" x2="287.7" y2="71"/>
		<line class="st13" x1="278.2" y1="47.4" x2="278.2" y2="71"/>
		<line class="st13" x1="273.5" y1="47.4" x2="273.5" y2="71"/>
		<line class="st13" x1="268.9" y1="47.4" x2="268.9" y2="71"/>
		<line class="st13" x1="264.1" y1="47.4" x2="264.1" y2="71"/>
		<line class="st13" x1="254.7" y1="47.4" x2="254.7" y2="71"/>
		<line class="st13" x1="250" y1="47.4" x2="250" y2="71"/>
		<line class="st13" x1="245.3" y1="47.4" x2="245.3" y2="71"/>
		<line class="st13" x1="240.5" y1="47.4" x2="240.5" y2="71"/>
		<line class="st13" x1="231.1" y1="47.4" x2="231.1" y2="71"/>
		<line class="st13" x1="226.4" y1="47.4" x2="226.4" y2="71"/>
		<line class="st13" x1="221.7" y1="47.4" x2="221.7" y2="71"/>
		<line class="st13" x1="217" y1="47.4" x2="217" y2="71"/>
		<line class="st13" x1="207.5" y1="47.4" x2="207.5" y2="71"/>
		<line class="st13" x1="202.8" y1="47.4" x2="202.8" y2="71"/>
		<line class="st13" x1="198.1" y1="47.4" x2="198.1" y2="71"/>
		<line class="st13" x1="193.4" y1="47.4" x2="193.4" y2="71"/>
		<line class="st13" x1="184" y1="47.4" x2="184" y2="71"/>
		<line class="st13" x1="179.3" y1="47.4" x2="179.3" y2="71"/>
		<line class="st13" x1="174.6" y1="47.4" x2="174.6" y2="71"/>
		<line class="st13" x1="169.8" y1="47.4" x2="169.8" y2="71"/>
		<line class="st13" x1="160.4" y1="47.4" x2="160.4" y2="71"/>
		<line class="st13" x1="155.7" y1="47.4" x2="155.7" y2="71"/>
		<line class="st13" x1="151" y1="47.4" x2="151" y2="71"/>
		<line class="st13" x1="146.3" y1="47.4" x2="146.3" y2="71"/>
		<line class="st13" x1="136.8" y1="47.4" x2="136.8" y2="71"/>
		<line class="st13" x1="132.1" y1="47.4" x2="132.1" y2="71"/>
		<line class="st13" x1="127.4" y1="47.4" x2="127.4" y2="71"/>
		<line class="st13" x1="122.8" y1="47.4" x2="122.8" y2="71"/>
		<line class="st13" x1="113.3" y1="47.4" x2="113.3" y2="71"/>
		<line class="st13" x1="108.6" y1="47.4" x2="108.6" y2="71"/>
		<line class="st13" x1="103.9" y1="47.4" x2="103.9" y2="71"/>
		<line class="st13" x1="99.1" y1="47.4" x2="99.1" y2="71"/>
		<line class="st13" x1="89.8" y1="47.4" x2="89.8" y2="71"/>
		<line class="st13" x1="85" y1="47.4" x2="85" y2="71"/>
		<line class="st13" x1="80.3" y1="47.4" x2="80.3" y2="71"/>
		<line class="st13" x1="75.6" y1="47.4" x2="75.6" y2="71"/>
		<line class="st13" x1="66.1" y1="47.4" x2="66.1" y2="71"/>
		<line class="st13" x1="61.4" y1="47.4" x2="61.4" y2="71"/>
		<line class="st13" x1="56.8" y1="47.4" x2="56.8" y2="71"/>
		<line class="st13" x1="52" y1="47.4" x2="52" y2="71"/>
		<line class="st13" x1="42.6" y1="47.4" x2="42.6" y2="71"/>
		<line class="st13" x1="37.9" y1="47.4" x2="37.9" y2="71"/>
		<line class="st13" x1="33.2" y1="47.4" x2="33.2" y2="71"/>
		<line class="st13" x1="28.4" y1="47.4" x2="28.4" y2="71"/>
		<line class="st13" x1="23.7" y1="89.8" x2="306.5" y2="89.8"/>
		<line class="st13" x1="23.7" y1="85.1" x2="306.5" y2="85.1"/>
		<line class="st13" x1="23.7" y1="80.4" x2="306.5" y2="80.4"/>
		<line class="st13" x1="23.7" y1="75.6" x2="306.5" y2="75.6"/>
		<line class="st13" x1="301.9" y1="70.9" x2="301.9" y2="94.6"/>
		<line class="st13" x1="297.1" y1="70.9" x2="297.1" y2="94.6"/>
		<line class="st13" x1="292.4" y1="70.9" x2="292.4" y2="94.6"/>
		<line class="st13" x1="287.7" y1="70.9" x2="287.7" y2="94.6"/>
		<line class="st13" x1="278.2" y1="70.9" x2="278.2" y2="94.6"/>
		<line class="st13" x1="273.5" y1="70.9" x2="273.5" y2="94.6"/>
		<line class="st13" x1="268.9" y1="70.9" x2="268.9" y2="94.6"/>
		<line class="st13" x1="264.1" y1="70.9" x2="264.1" y2="94.6"/>
		<line class="st13" x1="254.7" y1="70.9" x2="254.7" y2="94.6"/>
		<line class="st13" x1="250" y1="70.9" x2="250" y2="94.6"/>
		<line class="st13" x1="245.3" y1="70.9" x2="245.3" y2="94.6"/>
		<line class="st13" x1="240.5" y1="70.9" x2="240.5" y2="94.6"/>
		<line class="st13" x1="231.1" y1="70.9" x2="231.1" y2="94.6"/>
		<line class="st13" x1="226.4" y1="70.9" x2="226.4" y2="94.6"/>
		<line class="st13" x1="221.7" y1="70.9" x2="221.7" y2="94.6"/>
		<line class="st13" x1="217" y1="70.9" x2="217" y2="94.6"/>
		<line class="st13" x1="207.5" y1="70.9" x2="207.5" y2="94.6"/>
		<line class="st13" x1="202.8" y1="70.9" x2="202.8" y2="94.6"/>
		<line class="st13" x1="198.1" y1="70.9" x2="198.1" y2="94.6"/>
		<line class="st13" x1="193.4" y1="70.9" x2="193.4" y2="94.6"/>
		<line class="st13" x1="184" y1="70.9" x2="184" y2="94.6"/>
		<line class="st13" x1="179.3" y1="70.9" x2="179.3" y2="94.6"/>
		<line class="st13" x1="174.6" y1="70.9" x2="174.6" y2="94.6"/>
		<line class="st13" x1="169.8" y1="70.9" x2="169.8" y2="94.6"/>
		<line class="st13" x1="160.4" y1="70.9" x2="160.4" y2="94.6"/>
		<line class="st13" x1="155.7" y1="70.9" x2="155.7" y2="94.6"/>
		<line class="st13" x1="151" y1="70.9" x2="151" y2="94.6"/>
		<line class="st13" x1="146.3" y1="70.9" x2="146.3" y2="94.6"/>
		<line class="st13" x1="136.8" y1="70.9" x2="136.8" y2="94.6"/>
		<line class="st13" x1="132.1" y1="70.9" x2="132.1" y2="94.6"/>
		<line class="st13" x1="127.4" y1="70.9" x2="127.4" y2="94.6"/>
		<line class="st13" x1="122.8" y1="70.9" x2="122.8" y2="94.6"/>
		<line class="st13" x1="113.3" y1="70.9" x2="113.3" y2="94.6"/>
		<line class="st13" x1="108.6" y1="70.9" x2="108.6" y2="94.6"/>
		<line class="st13" x1="103.9" y1="70.9" x2="103.9" y2="94.6"/>
		<line class="st13" x1="99.1" y1="70.9" x2="99.1" y2="94.6"/>
		<line class="st13" x1="89.8" y1="70.9" x2="89.8" y2="94.6"/>
		<line class="st13" x1="85" y1="70.9" x2="85" y2="94.6"/>
		<line class="st13" x1="80.3" y1="70.9" x2="80.3" y2="94.6"/>
		<line class="st13" x1="75.6" y1="70.9" x2="75.6" y2="94.6"/>
		<line class="st13" x1="66.1" y1="70.9" x2="66.1" y2="94.6"/>
		<line class="st13" x1="61.4" y1="70.9" x2="61.4" y2="94.6"/>
		<line class="st13" x1="56.8" y1="70.9" x2="56.8" y2="94.6"/>
		<line class="st13" x1="52" y1="70.9" x2="52" y2="94.6"/>
		<line class="st13" x1="42.6" y1="70.9" x2="42.6" y2="94.6"/>
		<line class="st13" x1="37.9" y1="70.9" x2="37.9" y2="94.6"/>
		<line class="st13" x1="33.2" y1="70.9" x2="33.2" y2="94.6"/>
		<line class="st13" x1="28.4" y1="70.9" x2="28.4" y2="94.6"/>
		<line class="st13" x1="23.7" y1="113.4" x2="306.5" y2="113.4"/>
		<line class="st13" x1="23.7" y1="108.6" x2="306.5" y2="108.6"/>
		<line class="st13" x1="23.7" y1="103.9" x2="306.5" y2="103.9"/>
		<line class="st13" x1="23.7" y1="99.2" x2="306.5" y2="99.2"/>
		<line class="st13" x1="301.9" y1="94.4" x2="301.9" y2="118.1"/>
		<line class="st13" x1="297.1" y1="94.4" x2="297.1" y2="118.1"/>
		<line class="st13" x1="292.4" y1="94.4" x2="292.4" y2="118.1"/>
		<line class="st13" x1="287.7" y1="94.4" x2="287.7" y2="118.1"/>
		<line class="st13" x1="278.2" y1="94.4" x2="278.2" y2="118.1"/>
		<line class="st13" x1="273.5" y1="94.4" x2="273.5" y2="118.1"/>
		<line class="st13" x1="268.9" y1="94.4" x2="268.9" y2="118.1"/>
		<line class="st13" x1="264.1" y1="94.4" x2="264.1" y2="118.1"/>
		<line class="st13" x1="254.7" y1="94.4" x2="254.7" y2="118.1"/>
		<line class="st13" x1="250" y1="94.4" x2="250" y2="118.1"/>
		<line class="st13" x1="245.3" y1="94.4" x2="245.3" y2="118.1"/>
		<line class="st13" x1="240.5" y1="94.4" x2="240.5" y2="118.1"/>
		<line class="st13" x1="231.1" y1="94.4" x2="231.1" y2="118.1"/>
		<line class="st13" x1="226.4" y1="94.4" x2="226.4" y2="118.1"/>
		<line class="st13" x1="221.7" y1="94.4" x2="221.7" y2="118.1"/>
		<line class="st13" x1="217" y1="94.4" x2="217" y2="118.1"/>
		<line class="st13" x1="207.5" y1="94.4" x2="207.5" y2="118.1"/>
		<line class="st13" x1="202.8" y1="94.4" x2="202.8" y2="118.1"/>
		<line class="st13" x1="198.1" y1="94.4" x2="198.1" y2="118.1"/>
		<line class="st13" x1="193.4" y1="94.4" x2="193.4" y2="118.1"/>
		<line class="st13" x1="184" y1="94.4" x2="184" y2="118.1"/>
		<line class="st13" x1="179.3" y1="94.4" x2="179.3" y2="118.1"/>
		<line class="st13" x1="174.6" y1="94.4" x2="174.6" y2="118.1"/>
		<line class="st13" x1="169.8" y1="94.4" x2="169.8" y2="118.1"/>
		<line class="st13" x1="160.4" y1="94.4" x2="160.4" y2="118.1"/>
		<line class="st13" x1="155.7" y1="94.4" x2="155.7" y2="118.1"/>
		<line class="st13" x1="151" y1="94.4" x2="151" y2="118.1"/>
		<line class="st13" x1="146.3" y1="94.4" x2="146.3" y2="118.1"/>
		<line class="st13" x1="136.8" y1="94.4" x2="136.8" y2="118.1"/>
		<line class="st13" x1="132.1" y1="94.4" x2="132.1" y2="118.1"/>
		<line class="st13" x1="127.4" y1="94.4" x2="127.4" y2="118.1"/>
		<line class="st13" x1="122.8" y1="94.4" x2="122.8" y2="118.1"/>
		<line class="st13" x1="113.3" y1="94.4" x2="113.3" y2="118.1"/>
		<line class="st13" x1="108.6" y1="94.4" x2="108.6" y2="118.1"/>
		<line class="st13" x1="103.9" y1="94.4" x2="103.9" y2="118.1"/>
		<line class="st13" x1="99.1" y1="94.4" x2="99.1" y2="118.1"/>
		<line class="st13" x1="89.8" y1="94.4" x2="89.8" y2="118.1"/>
		<line class="st13" x1="85" y1="94.4" x2="85" y2="118.1"/>
		<line class="st13" x1="80.3" y1="94.4" x2="80.3" y2="118.1"/>
		<line class="st13" x1="75.6" y1="94.4" x2="75.6" y2="118.1"/>
		<line class="st13" x1="66.1" y1="94.4" x2="66.1" y2="118.1"/>
		<line class="st13" x1="61.4" y1="94.4" x2="61.4" y2="118.1"/>
		<line class="st13" x1="56.8" y1="94.4" x2="56.8" y2="118.1"/>
		<line class="st13" x1="52" y1="94.4" x2="52" y2="118.1"/>
		<line class="st13" x1="42.6" y1="94.4" x2="42.6" y2="118.1"/>
		<line class="st13" x1="37.9" y1="94.4" x2="37.9" y2="118.1"/>
		<line class="st13" x1="33.2" y1="94.4" x2="33.2" y2="118.1"/>
		<line class="st13" x1="28.4" y1="94.4" x2="28.4" y2="118.1"/>
		<line class="st13" x1="23.7" y1="136.9" x2="306.5" y2="136.9"/>
		<line class="st13" x1="23.7" y1="132.2" x2="306.5" y2="132.2"/>
		<line class="st13" x1="23.7" y1="127.5" x2="306.5" y2="127.5"/>
		<line class="st13" x1="23.7" y1="122.8" x2="306.5" y2="122.8"/>
		<line class="st13" x1="301.9" y1="118" x2="301.9" y2="141.7"/>
		<line class="st13" x1="297.1" y1="118" x2="297.1" y2="141.7"/>
		<line class="st13" x1="292.4" y1="118" x2="292.4" y2="141.7"/>
		<line class="st13" x1="287.7" y1="118" x2="287.7" y2="141.7"/>
		<line class="st13" x1="278.2" y1="118" x2="278.2" y2="141.7"/>
		<line class="st13" x1="273.5" y1="118" x2="273.5" y2="141.7"/>
		<line class="st13" x1="268.9" y1="118" x2="268.9" y2="141.7"/>
		<line class="st13" x1="264.1" y1="118" x2="264.1" y2="141.7"/>
		<line class="st13" x1="254.7" y1="118" x2="254.7" y2="141.7"/>
		<line class="st13" x1="250" y1="118" x2="250" y2="141.7"/>
		<line class="st13" x1="245.3" y1="118" x2="245.3" y2="141.7"/>
		<line class="st13" x1="240.5" y1="118" x2="240.5" y2="141.7"/>
		<line class="st13" x1="231.1" y1="118" x2="231.1" y2="141.7"/>
		<line class="st13" x1="226.4" y1="118" x2="226.4" y2="141.7"/>
		<line class="st13" x1="221.7" y1="118" x2="221.7" y2="141.7"/>
		<line class="st13" x1="217" y1="118" x2="217" y2="141.7"/>
		<line class="st13" x1="207.5" y1="118" x2="207.5" y2="141.7"/>
		<line class="st13" x1="202.8" y1="118" x2="202.8" y2="141.7"/>
		<line class="st13" x1="198.1" y1="118" x2="198.1" y2="141.7"/>
		<line class="st13" x1="193.4" y1="118" x2="193.4" y2="141.7"/>
		<line class="st13" x1="184" y1="118" x2="184" y2="141.7"/>
		<line class="st13" x1="179.3" y1="118" x2="179.3" y2="141.7"/>
		<line class="st13" x1="174.6" y1="118" x2="174.6" y2="141.7"/>
		<line class="st13" x1="169.8" y1="118" x2="169.8" y2="141.7"/>
		<line class="st13" x1="160.4" y1="118" x2="160.4" y2="141.7"/>
		<line class="st13" x1="155.7" y1="118" x2="155.7" y2="141.7"/>
		<line class="st13" x1="151" y1="118" x2="151" y2="141.7"/>
		<line class="st13" x1="146.3" y1="118" x2="146.3" y2="141.7"/>
		<line class="st13" x1="136.8" y1="118" x2="136.8" y2="141.7"/>
		<line class="st13" x1="132.1" y1="118" x2="132.1" y2="141.7"/>
		<line class="st13" x1="127.4" y1="118" x2="127.4" y2="141.7"/>
		<line class="st13" x1="122.8" y1="118" x2="122.8" y2="141.7"/>
		<line class="st13" x1="113.3" y1="118" x2="113.3" y2="141.7"/>
		<line class="st13" x1="108.6" y1="118" x2="108.6" y2="141.7"/>
		<line class="st13" x1="103.9" y1="118" x2="103.9" y2="141.7"/>
		<line class="st13" x1="99.1" y1="118" x2="99.1" y2="141.7"/>
		<line class="st13" x1="89.8" y1="118" x2="89.8" y2="141.7"/>
		<line class="st13" x1="85" y1="118" x2="85" y2="141.7"/>
		<line class="st13" x1="80.3" y1="118" x2="80.3" y2="141.7"/>
		<line class="st13" x1="75.6" y1="118" x2="75.6" y2="141.7"/>
		<line class="st13" x1="66.1" y1="118" x2="66.1" y2="141.7"/>
		<line class="st13" x1="61.4" y1="118" x2="61.4" y2="141.7"/>
		<line class="st13" x1="56.8" y1="118" x2="56.8" y2="141.7"/>
		<line class="st13" x1="52" y1="118" x2="52" y2="141.7"/>
		<line class="st13" x1="42.6" y1="118" x2="42.6" y2="141.7"/>
		<line class="st13" x1="37.9" y1="118" x2="37.9" y2="141.7"/>
		<line class="st13" x1="33.2" y1="118" x2="33.2" y2="141.7"/>
		<line class="st13" x1="28.4" y1="118" x2="28.4" y2="141.7"/>
		<text transform="matrix(1 0 0 1 158.13 197.7)" class="st5 st2 st14">10A</text>
		<text transform="matrix(1 0 0 1 21.5 183.6)" class="st5 st2 st14">0</text>
		<text transform="matrix(1 0 0 1 139.76 183.6)" class="st5 st2 st14">5</text>
		<text transform="matrix(1 0 0 1 255.42 183.6)" class="st5 st2 st14">10</text>
		<text transform="matrix(4.837355e-17 0.79 -1 6.123234e-17 338.9707 75.5702)" class="st5 st2 st15">1.7A</text>
	</g>
</g>
</svg>
