<svg xmlns="http://www.w3.org/2000/svg" viewBox="0 0 286.78 155.05"><defs><style>.cls-1,.cls-3{fill:#fff;}.cls-1{stroke:#231815;stroke-width:0.29px;}.cls-2{fill:#231815;}</style></defs><title>hitrobot_hrg_route_black</title><g id="图层_2" data-name="图层 2"><g id="图层_1-2" data-name="图层 1"><rect class="cls-1" x="0.14" y="0.14" width="286.49" height="154.76"/><polygon class="cls-2" points="224.49 81.66 198.07 81.66 195 87.63 210.87 87.63 216.54 99.1 181.32 99.1 198.88 63.76 203.44 72.88 220.09 72.88 207.32 47.42 189.04 47.42 161.18 103.21 149.28 79.48 168.43 79.48 184.4 47.42 127.52 47.42 114.43 73.47 96.46 73.47 109.51 47.42 91.66 47.42 62.58 105.3 80.51 105.3 93.45 79.48 111.44 79.48 98.47 105.3 116.39 105.3 142.39 53.43 164.64 53.43 154.19 73.47 136.88 73.47 133.01 81.23 144.94 105.3 236.21 105.3 224.49 81.66"/><path class="cls-3" d="M75.56,97.4,79,94.78a4.4,4.4,0,0,1,.41,4.58,4.33,4.33,0,0,1-5.82,2,4.39,4.39,0,0,1-1.95-5.87A4.34,4.34,0,0,1,75.55,93Z"/><path class="cls-3" d="M78.48,91.64a.62.62,0,0,1,.18.86.62.62,0,0,1-.86.19.63.63,0,0,1-.19-.86A.62.62,0,0,1,78.48,91.64Z"/><path class="cls-3" d="M83.64,81.15a.63.63,0,0,1,.19.87.62.62,0,0,1-.86.19.63.63,0,0,1-.18-.86A.61.61,0,0,1,83.64,81.15Z"/><circle class="cls-3" cx="80.72" cy="86.92" r="0.62" transform="matrix(0.54, -0.84, 0.84, 0.54, -36, 108.05)"/><circle class="cls-3" cx="121.94" cy="76.43" r="0.62" transform="translate(-8.08 138.14) rotate(-57.47)"/><circle class="cls-3" cx="134.93" cy="50.2" r="0.62" transform="translate(20.06 136.99) rotate(-57.48)"/><path class="cls-3" d="M143.12,49.68a.63.63,0,0,1,.19.86.62.62,0,0,1-.85.19.63.63,0,0,1-.19-.86A.62.62,0,0,1,143.12,49.68Z"/><circle class="cls-3" cx="150.65" cy="50.2" r="0.62" transform="translate(27.47 150.41) rotate(-57.56)"/><path class="cls-3" d="M158.84,49.68a.63.63,0,0,1,.19.86.62.62,0,0,1-.85.19.63.63,0,0,1-.19-.86A.62.62,0,0,1,158.84,49.68Z"/><circle class="cls-3" cx="166.36" cy="50.2" r="0.62" transform="translate(34.74 163.66) rotate(-57.56)"/><path class="cls-3" d="M132.67,54.92a.63.63,0,0,1,.19.86A.62.62,0,0,1,132,56a.63.63,0,0,1-.18-.86A.61.61,0,0,1,132.67,54.92Z"/><circle class="cls-3" cx="129.73" cy="60.69" r="0.62" transform="matrix(0.54, -0.84, 0.84, 0.54, 8.73, 137.33)"/><circle class="cls-3" cx="127.14" cy="65.94" r="0.62" transform="translate(3.14 137.61) rotate(-57.44)"/><circle class="cls-3" cx="124.54" cy="71.19" r="0.62" transform="matrix(0.54, -0.84, 0.84, 0.54, -2.51, 137.8)"/><path class="cls-3" d="M174.55,49.68a.63.63,0,0,1,.18.86.62.62,0,0,1-.85.19.62.62,0,0,1,.67-1.05Z"/><path class="cls-3" d="M169.39,60.16a.62.62,0,0,1,.18.86.61.61,0,0,1-.85.19.62.62,0,1,1,.67-1Z"/><circle class="cls-3" cx="166.48" cy="65.92" r="0.62" transform="matrix(0.54, -0.84, 0.84, 0.54, 21.23, 170.64)"/><circle class="cls-3" cx="171.64" cy="55.44" r="0.62" transform="translate(32.21 169.87) rotate(-57.28)"/><circle class="cls-3" cx="163.89" cy="71.16" r="0.62" transform="translate(15.61 170.85) rotate(-57.38)"/><circle class="cls-3" cx="161.31" cy="76.4" r="0.62" transform="translate(10.2 171.4) rotate(-57.5)"/><circle class="cls-3" cx="153.06" cy="76.4" r="0.62" transform="translate(6.21 164.15) rotate(-57.39)"/><circle class="cls-3" cx="144.8" cy="76.4" r="0.62" transform="translate(2.4 157.19) rotate(-57.39)"/><path class="cls-3" d="M142.5,81.33a.63.63,0,0,1,.19.86.62.62,0,0,1-.86.19.63.63,0,0,1-.19-.86A.62.62,0,0,1,142.5,81.33Z"/><circle class="cls-3" cx="144.95" cy="87.36" r="0.62" transform="translate(-6.73 162.42) rotate(-57.4)"/><path class="cls-3" d="M148.08,92.34a.62.62,0,0,1,.18.86.61.61,0,0,1-.85.19.63.63,0,0,1-.19-.86A.62.62,0,0,1,148.08,92.34Z"/><circle class="cls-3" cx="150.53" cy="98.36" r="0.62" transform="translate(-13.37 172.34) rotate(-57.46)"/><circle class="cls-3" cx="153.31" cy="103.87" r="0.62" transform="translate(-16.78 177.08) rotate(-57.4)"/><circle class="cls-3" cx="158.94" cy="103.87" r="0.62" transform="translate(-11.53 187.46) rotate(-59.29)"/><circle class="cls-3" cx="164.56" cy="103.87" r="0.62" transform="translate(-8.78 192.31) rotate(-59.29)"/><ellipse class="cls-3" cx="170.19" cy="103.87" rx="0.62" ry="0.62" transform="translate(-6.21 196.8) rotate(-59.18)"/><path class="cls-3" d="M196.43,49.67a.63.63,0,0,1,.2.86.61.61,0,0,1-.85.21.62.62,0,1,1,.65-1.06Z"/><circle class="cls-3" cx="193.51" cy="55.57" r="0.62" transform="translate(45.47 192.02) rotate(-58.69)"/><circle class="cls-3" cx="190.92" cy="60.94" r="0.62" transform="translate(39.43 192.14) rotate(-58.6)"/><path class="cls-3" d="M186.06,71.14a.62.62,0,0,1,.2.86.61.61,0,0,1-.85.21.63.63,0,0,1-.21-.86A.62.62,0,0,1,186.06,71.14Z"/><circle class="cls-3" cx="183.15" cy="77.03" r="0.62" transform="translate(22.07 193.36) rotate(-58.65)"/><ellipse class="cls-3" cx="180.55" cy="82.4" rx="0.62" ry="0.62" transform="translate(16.49 194.08) rotate(-58.77)"/><circle class="cls-3" cx="175.37" cy="93.13" r="0.62" transform="translate(4.66 194.56) rotate(-58.69)"/><ellipse class="cls-3" cx="172.78" cy="98.5" rx="0.62" ry="0.62" transform="translate(-1.21 194.84) rotate(-58.66)"/><path class="cls-3" d="M178.28,87.23a.62.62,0,0,1,.2.86.61.61,0,0,1-.85.21.63.63,0,0,1-.21-.86A.62.62,0,0,1,178.28,87.23Z"/><circle class="cls-3" cx="188.33" cy="66.3" r="0.62" transform="matrix(0.52, -0.85, 0.85, 0.52, 33.64, 192.54)"/><circle class="cls-3" cx="201.11" cy="50.2" r="0.62" transform="translate(54.81 197.04) rotate(-59.12)"/><circle class="cls-3" cx="203.53" cy="55.57" r="0.62" transform="translate(56.74 207.11) rotate(-61.18)"/><ellipse class="cls-3" cx="207.87" cy="65.32" rx="4.34" ry="4.37"/><polygon class="cls-3" points="203.85 62.24 204.5 57.77 208.27 60.11 205.47 59.94 203.85 62.24"/><circle class="cls-3" cx="85.88" cy="76.43" r="0.62" transform="translate(-24.78 107.62) rotate(-57.41)"/><circle class="cls-3" cx="93.1" cy="76.43" r="0.62" transform="translate(-21.47 113.62) rotate(-57.37)"/><circle class="cls-3" cx="107.52" cy="76.43" r="0.62" transform="translate(-14.8 125.85) rotate(-57.41)"/><circle class="cls-3" cx="114.73" cy="76.43" r="0.62" transform="translate(-11.51 131.84) rotate(-57.37)"/><circle class="cls-3" cx="100.3" cy="76.43" r="0.62" transform="translate(-18.09 119.85) rotate(-57.45)"/></g></g></svg>