<svg xmlns="http://www.w3.org/2000/svg" viewBox="0 0 239.42 162.01"><defs><style>.cls-1,.cls-2{fill:#10386b;}.cls-2{font-size:7.52px;font-family:FZHTJW--GB1-0, FZHTJW -GB1-0-GBpc-EUC-H;}.cls-3{fill:#231815;font-size:9px;}</style></defs><title>hitrobot_hrg_Up_and_down_combination</title><g id="图层_2" data-name="图层 2"><g id="图层_1-2" data-name="图层 1"><polygon class="cls-1" points="192.98 32.45 167.94 32.45 165.03 38.11 180.07 38.11 185.44 48.98 152.06 48.98 168.71 15.49 173.03 24.13 188.81 24.13 176.71 0 159.38 0 132.98 52.88 121.69 30.39 139.85 30.39 154.98 0 101.07 0 88.67 24.7 71.64 24.7 84.01 0 67.09 0 39.53 54.86 56.52 54.86 68.78 30.39 85.84 30.39 73.55 54.86 90.53 54.86 115.17 5.7 136.26 5.7 126.35 24.7 109.94 24.7 106.28 32.04 117.58 54.86 204.09 54.86 192.98 32.45"/><path class="cls-1" d="M1.07,72.24H8.24V91.47H6.29V89.57H3V91.9H1.07ZM6.29,87.71V74.1H3v13.6Zm12.9-18.63-.46.73a18.76,18.76,0,0,0,7.9,8.25q-.79.95-1.49,1.89a23.91,23.91,0,0,1-7.55-8.33,25.7,25.7,0,0,1-7.65,8.46,19.22,19.22,0,0,0-1.4-1.7,22.14,22.14,0,0,0,8.11-9.3ZM11,84.46H23.79v11.2H21.73V94H13.05v1.62H11ZM12.05,79H23v1.89H12.05Zm9.68,13.12V86.36H13.05v5.79Z"/><path class="cls-1" d="M30.53,91.47H42.38v-18H32.07V71.26h23v2.16H44.76v18H56.63v2.11H30.53Z"/><path class="cls-1" d="M60.59,93.36q11.16-5,12-14.9H61.08V76.35H72.72q.07-3.63.07-7.33h2.35q0,3.64-.07,7.33h12v2.11H75Q77,89.26,87.64,92.71a22.2,22.2,0,0,0-2.06,2.19A18.74,18.74,0,0,1,74.07,82.29Q72,90.49,62.27,95.44,61.73,94.71,60.59,93.36Z"/><path class="cls-1" d="M91,85.81a30.4,30.4,0,0,0,4.31-9.74h-4V74.24h4.22V68.91h1.95v5.33h3.79v1.84H97.46v4.49l1.08-1.08q2.08,1.89,3.27,3.08l-1.46,1.49Q98.7,82.22,97.46,81V95.28H95.52V80.79a24.29,24.29,0,0,1-3.6,7.41Q91.49,87,91,85.81ZM105.28,72.7v9q0,9.69-4.84,14c-.5-.61-1-1.23-1.59-1.84q4.27-3.76,4.27-11.71V70.64h10.06V91c0,.9.31,1.35.95,1.35h.62c.58,0,.95-.5,1.11-1.51.18-1.39.31-2.88.38-4.49a21.54,21.54,0,0,0,2.05.87q-.24,2.68-.48,4.38-.43,2.87-2.76,2.87h-1.43q-2.6,0-2.6-3.08V72.7Z"/><path class="cls-1" d="M122.43,80.24h10.93a8.17,8.17,0,0,0,.54-2.35l1.95.27a12.21,12.21,0,0,1-.47,2.09h5.9q-1.08-.79-2.29-1.54l1.11-1.22q1.78,1.05,3.22,2.11l-.61.65h5V82H137.31q3.12,3.06,11.09,2.89Q147.75,86,147.29,87l-1.38-.12v8.26H144V93.66h-5.79v1.46h-1.89V86.76h8.61q-7.73-1-9.88-4.74h-.49q-1.51,3.22-9.82,4.74h8.66v8.36h-1.89V93.66h-5.71v1.49h-1.89V86.92l-1.49.27q-.4-.81-1.05-1.92,9-1.16,10.85-3.25h-9.79Zm1.46-9.85h9.49v7.87h-1.89v-.84h-5.71v1.11h-1.89Zm7.6,1.68h-5.71v3.68h5.71Zm0,16.36h-5.71V92h5.71Zm4.79-18h9.57v8H144v-.95H138.2v.84h-1.89ZM144,72.08H138.2v3.68H144Zm0,16.36h-5.79V92H144Z"/><path class="cls-1" d="M152,93.2q11.79-6.81,12.47-23.91h2.38a52,52,0,0,1-.57,5.52q3.35,13.52,12.6,17.8c-.76.83-1.43,1.61-2,2.35q-8-4.55-11.46-16.08-3,11.14-11.72,16.38A23,23,0,0,0,152,93.2Z"/><path class="cls-1" d="M183.31,87H195V85.11h1.89V87h11.63v1.73H199a27.54,27.54,0,0,0,10.52,4.52c-.49.76-.91,1.42-1.27,2a29.54,29.54,0,0,1-11.36-6V95.5H195V89.13a32.78,32.78,0,0,1-11.36,6.13q-.57-.84-1.27-1.7a28.64,28.64,0,0,0,10.44-4.87h-9.46Zm12-17.28,1.6-1A17.77,17.77,0,0,1,199,71.45l-1.24.78h10.36v1.68H197.83v1.92h9.06V77.4h-9.06v1.92h9.06v1.57h-9.06v2h10.33v1.67H188.44v1h-1.89V75.94a31.38,31.38,0,0,1-2.84,2.92,11,11,0,0,0-1.3-1.79A28.87,28.87,0,0,0,189,69l1.87.84c-.51.83-1,1.62-1.54,2.38H197A29.14,29.14,0,0,0,195.29,69.67Zm-6.84,6.17h7.49V73.92h-7.49Zm0,3.49h7.49V77.4h-7.49Zm0,3.54h7.49v-2h-7.49Z"/><path class="cls-1" d="M214.55,70.26h23.66V95.5h-2.06V94.17H216.61v1.35h-2.05Zm21.61,1.89H216.61V92.28h19.55Zm-18.23,4.79H228V73h2v3.89h5.19v1.84h-5.19V87q0,3.93-3.73,3.92-1.52,0-3.14-.05c-.11-.63-.25-1.34-.43-2.14a26.84,26.84,0,0,0,3.08.22Q228,89,228,86.46V80.13a29.69,29.69,0,0,1-9.71,9A9.9,9.9,0,0,0,217,87.35a28,28,0,0,0,9.79-8.57h-8.82Z"/><path class="cls-1" d="M10.29,107.44H11.7v12.79H10.29v-5.95H3.13v5.95H1.66V107.44H3.13V113h7.16Z"/><path class="cls-1" d="M20,107.44h1.41v12.79H20Z"/><path class="cls-1" d="M38.86,107.44v1.22H34.51v11.57H33V108.66H28.69v-1.22Z"/><path class="cls-1" d="M66.85,120.23h-2l-4.41-5.75H57.07v5.75H55.6V107.44h5.95q4.09.19,4.35,3.45,0,3.33-3.83,3.58Zm-9.78-11.51v4.47h4.16q3.13-.06,3.13-2.36-.06-2-3.13-2.11Z"/><path class="cls-1" d="M79.25,120.42q-5.82-.32-6.07-6.33.25-6.52,6.27-6.84,5.69.38,6.07,6.71Q85.26,120.17,79.25,120.42Zm.07-11.89q-4.22.38-4.67,5.43.25,4.92,4.54,5.31,4.47-.25,4.73-5.31Q83.53,108.92,79.31,108.53Z"/><path class="cls-1" d="M98.1,120.23H92.8V107.44h5q3.84.19,4.09,3.2a2.85,2.85,0,0,1-2.56,2.81v.06a3.25,3.25,0,0,1,3.07,3.26Q102.2,120.1,98.1,120.23Zm-.64-11.51H94.14V113h3.32q2.62-.13,2.88-2.3Q100.21,108.78,97.46,108.72Zm.19,5.56H94.14v4.79h3.77q3,0,3-2.49Q100.73,114.41,97.66,114.28Z"/><path class="cls-1" d="M115.55,120.42q-5.82-.32-6.07-6.33.25-6.52,6.27-6.84,5.68.38,6.07,6.71Q121.56,120.17,115.55,120.42Zm.06-11.89q-4.22.38-4.67,5.43.25,4.92,4.54,5.31Q120,119,120.21,114,119.83,108.92,115.62,108.53Z"/><path class="cls-1" d="M138.37,107.44v1.22H134v11.57h-1.47V108.66H128.2v-1.22Z"/><path class="cls-1" d="M161,113.64h5.5v4.67q-1.6,2.11-5.5,2.11-6-.32-6.33-6.39.25-6.52,6.07-6.78,4.28.07,5.69,3.77l-1.6.38a4.13,4.13,0,0,0-4.16-2.88q-4.09.38-4.47,5.43.32,4.92,4.73,5.31a5.13,5.13,0,0,0,4.16-1.53v-2.88H161Z"/><path class="cls-1" d="M185.41,120.23h-2L179,114.47h-3.39v5.75h-1.47V107.44h5.95q4.09.19,4.35,3.45,0,3.33-3.84,3.58Zm-9.78-11.51v4.47h4.15q3.13-.06,3.13-2.36-.07-2-3.13-2.11Z"/><path class="cls-1" d="M197.8,120.42q-5.82-.32-6.07-6.33.25-6.52,6.27-6.84,5.69.38,6.07,6.71Q203.81,120.17,197.8,120.42Zm.06-11.89q-4.22.38-4.67,5.43.25,4.92,4.54,5.31,4.48-.25,4.73-5.31Q202.09,108.92,197.87,108.53Z"/><path class="cls-1" d="M221.52,107.44v7.48q.07,5.56-5.11,5.5t-5-5.5v-7.48h1.47v7.42q-.06,4.54,3.52,4.41,3.84.13,3.71-4.41v-7.42Z"/><path class="cls-1" d="M235,115.05h-4v5.18h-1.41V107.44h5.5q3.9.19,4.28,3.77Q239.35,115,235,115.05Zm-.26-6.33H231v5.05h3.71q3.07-.07,3.13-2.62Q237.75,108.79,234.75,108.72Z"/><rect class="cls-1" y="100.93" width="239.35" height="0.54"/><text class="cls-2" transform="translate(93.57 159.46) scale(0.95 1)">■<tspan class="cls-3" x="7.52" y="0" xml:space="preserve"> 上下组合</tspan></text></g></g></svg>