<svg xmlns="http://www.w3.org/2000/svg" viewBox="0 0 455.18 123.18"><defs><style>.cls-1{fill:#231815;}.cls-2{fill:#fff;}</style></defs><title>hitrobot_nobody_black_left_right</title><g id="图层_2" data-name="图层 2"><g id="图层_1-2" data-name="图层 1"><rect class="cls-1" width="455.18" height="123.18"/><path class="cls-2" d="M117.63,49.88h8L136,63.8V49.88h8.06V75H136L125.68,61.23V75h-8Z"/><path class="cls-2" d="M148.71,62.48q0-6.16,3.77-9.59T163,49.46q6.91,0,10.65,3.37t3.74,9.45a14.32,14.32,0,0,1-1.63,7.24A11.16,11.16,0,0,1,171,73.9a16.88,16.88,0,0,1-7.69,1.57,19.22,19.22,0,0,1-7.75-1.36,11.29,11.29,0,0,1-5-4.29A13.22,13.22,0,0,1,148.71,62.48Zm8.55,0q0,3.81,1.56,5.48a6.31,6.31,0,0,0,8.5,0q1.51-1.63,1.51-5.85,0-3.55-1.58-5.19A5.65,5.65,0,0,0,163,55.34,5.44,5.44,0,0,0,158.83,57Q157.26,58.67,157.26,62.51Z"/><path class="cls-2" d="M182,49.88h16a9.3,9.3,0,0,1,6.15,1.8,5.61,5.61,0,0,1,2.14,4.46A5.33,5.33,0,0,1,204.78,60a6.91,6.91,0,0,1-3,1.68,8,8,0,0,1,4.39,2.24,5.8,5.8,0,0,1,1.41,4,6.39,6.39,0,0,1-1,3.52,7.09,7.09,0,0,1-2.74,2.47,9.77,9.77,0,0,1-3.25.82q-2.89.34-3.83.34H182Zm8.63,9.87h3.72a4.59,4.59,0,0,0,2.79-.63,2.18,2.18,0,0,0,.78-1.81,2.06,2.06,0,0,0-.78-1.72,4.53,4.53,0,0,0-2.73-.62h-3.78Zm0,9.89H195a5.16,5.16,0,0,0,3.12-.71A2.31,2.31,0,0,0,199,67a2.13,2.13,0,0,0-.9-1.79,5.4,5.4,0,0,0-3.14-.68h-4.34Z"/><path class="cls-2" d="M211,62.48q0-6.16,3.78-9.59t10.52-3.43q6.91,0,10.65,3.37t3.74,9.45A14.31,14.31,0,0,1,238,69.51a11.13,11.13,0,0,1-4.72,4.39,16.88,16.88,0,0,1-7.69,1.57,19.23,19.23,0,0,1-7.75-1.36,11.28,11.28,0,0,1-5-4.29A13.21,13.21,0,0,1,211,62.48Zm8.55,0q0,3.81,1.56,5.48a6.31,6.31,0,0,0,8.5,0q1.51-1.63,1.51-5.85,0-3.55-1.58-5.19a5.66,5.66,0,0,0-4.28-1.64A5.44,5.44,0,0,0,221.11,57Q219.54,58.67,219.54,62.51Z"/><path class="cls-2" d="M244.39,49.88h12.71a16.66,16.66,0,0,1,6.07.93A9.83,9.83,0,0,1,267,53.47a10.67,10.67,0,0,1,2.19,4,17.11,17.11,0,0,1,.68,4.87,15.52,15.52,0,0,1-1,6.26,10.36,10.36,0,0,1-2.8,3.72,9.38,9.38,0,0,1-3.85,2,21.67,21.67,0,0,1-5.1.68H244.39Zm8.55,5.7V69.33H255a9.59,9.59,0,0,0,3.81-.54,3.79,3.79,0,0,0,1.77-1.89,10.82,10.82,0,0,0,.64-4.37q0-4-1.43-5.47t-4.76-1.48Z"/><path class="cls-2" d="M271.56,49.88h9.5l5.58,8.49,5.59-8.49h9.45L290.91,64.51V75h-8.57V64.51Z"/><path class="cls-2" d="M316.24,50.05H318V60.47h-1.76V55.84h-5.09v4.63h-1.71V50.05h1.71v4.28h5.09Z"/><path class="cls-2" d="M321.19,50.05h1.71V60.47h-1.71Z"/><path class="cls-2" d="M334,51.56h-3.47v8.91h-1.71V51.56h-3.52V50.05H334Z"/><path class="cls-2" d="M350.25,60.47h-2.32L344.41,56h-2.12v4.43h-1.71V50h4.88q3.52.1,3.67,3,0,2.57-2.77,3Zm-8-8.91v2.92h2.87q2.27,0,2.22-1.56-.05-1.31-2.22-1.36Z"/><path class="cls-2" d="M357.06,49.85q4.78.3,5.13,5.38Q362,60.48,357,60.62q-4.93-.25-5.13-5.34Q352.07,50.11,357.06,49.85Zm-.15,9.36q3.37-.15,3.47-3.93-.25-3.62-3.37-3.93-3.22.25-3.42,3.93Q353.74,59,356.91,59.21Z"/><path class="cls-2" d="M369.46,60.47h-4.73V50.05h4.48q3.32.15,3.52,2.72a2.35,2.35,0,0,1-1.31,2.16,2.71,2.71,0,0,1,1.76,2.57Q373.19,60.47,369.46,60.47Zm-3.07-8.91v2.77H369q2,0,2-1.46-.1-1.26-2-1.31Zm2.77,4.28h-2.77V59h2.92q2.11,0,2.11-1.61T369.16,55.84Z"/><path class="cls-2" d="M380.65,49.85q4.78.3,5.13,5.38-.15,5.24-5.23,5.39-4.93-.25-5.14-5.34Q375.67,50.11,380.65,49.85Zm-.15,9.36q3.37-.15,3.47-3.93-.25-3.62-3.37-3.93-3.22.25-3.42,3.93Q377.33,59,380.5,59.21Z"/><path class="cls-2" d="M396.23,51.56h-3.47v8.91H391V51.56h-3.53V50.05h8.71Z"/><path class="cls-2" d="M314.08,69.25h5v4q-1.41,1.86-4.63,1.86-5.19-.2-5.39-5.34.2-5.24,5.18-5.44A4.71,4.71,0,0,1,319,67.38l-1.81.5a2.92,2.92,0,0,0-3-2q-3.12.25-3.32,3.88.2,3.62,3.52,3.88a3.72,3.72,0,0,0,3-1.06V70.76h-3.27Z"/><path class="cls-2" d="M331.51,74.93H329.2l-3.53-4.43h-2.11v4.43h-1.71V64.46h4.88q3.52.1,3.67,3,0,2.57-2.77,3Zm-8-8.91v2.92h2.87q2.26,0,2.21-1.56,0-1.31-2.21-1.36Z"/><path class="cls-2" d="M338.33,64.31q4.78.3,5.13,5.39-.15,5.24-5.23,5.39-4.94-.25-5.14-5.34Q333.35,64.57,338.33,64.31Zm-.15,9.36q3.37-.15,3.47-3.93-.25-3.63-3.37-3.93-3.22.25-3.42,3.93Q335,73.43,338.18,73.68Z"/><path class="cls-2" d="M352.89,64.51h1.71v6q.15,4.73-4.38,4.53-4.33.15-4.23-4.53v-6h1.71v6q0,3.17,2.52,3.07,2.77.1,2.67-3.07Z"/><path class="cls-2" d="M362.23,70.91h-2.82v4h-1.76V64.46h4.68q3.42.15,3.68,3.17Q365.95,70.86,362.23,70.91ZM362.08,66h-2.67V69.4h2.67q2.16,0,2.16-1.76Q364.14,66.08,362.08,66Z"/><circle class="cls-2" cx="79.27" cy="61.14" r="2.43"/><path class="cls-2" d="M100.78,45.12V58.66c-1.23,3.89-3.06,5.56-5.05,6V40.16A26.76,26.76,0,0,0,59.07,78.65V64.9c1-4.83,2.95-6.87,5.05-7.47V83.35a26.76,26.76,0,0,0,36.66-38.23Zm-21.6,27A10.95,10.95,0,0,1,69.12,56.85c-2.84-2.06-8-4.18-10,5.35V57.6c0-8.08,7-10.82,14.56-5.88A10.9,10.9,0,0,1,90,62.9L86.4,60.46a7.24,7.24,0,1,0-7.21,7.92,7.44,7.44,0,0,0,.8,0l3.78,2.73A10.88,10.88,0,0,1,79.19,72.08Zm21.6-7.16c0,7.27-4.87,13.9-19.87,1.23a5.28,5.28,0,1,1,3.63-5c0,.11,0,.23,0,.34C90.09,65.75,97.12,71,100.78,61Z"/></g></g></svg>