<svg xmlns="http://www.w3.org/2000/svg" viewBox="0 0 477.65 107.69"><defs><style>.cls-1,.cls-7{fill:#10386b;}.cls-11,.cls-12,.cls-13,.cls-2,.cls-3,.cls-4,.cls-5{fill:none;stroke-miterlimit:10;stroke-width:0.25px;}.cls-11,.cls-2,.cls-3,.cls-4,.cls-5{stroke:#0d509b;}.cls-3{stroke-dasharray:1.95 1.95;}.cls-4{stroke-dasharray:1.75 1.75;}.cls-5{stroke-dasharray:2.05 2.05;}.cls-6{font-size:12px;fill:#0d509b;}.cls-14,.cls-6,.cls-7,.cls-8{font-family:AdobeSongStd-Light-GBpc-EUC-H, Adobe Song Std;}.cls-7{font-size:8px;}.cls-8{font-size:5.3px;fill:#fff;}.cls-9{letter-spacing:-0.2em;}.cls-10{letter-spacing:0em;}.cls-11,.cls-13{stroke-dasharray:2 2;}.cls-12{stroke:#fff;}.cls-13{stroke:#7d7d7d;}.cls-14{font-size:7px;fill:#7d7d7d;}</style></defs><title>hitrobot_color_auxiliary</title><g id="图层_2" data-name="图层 2"><g id="图层_1-2" data-name="图层 1"><polygon class="cls-1" points="477 75.69 28.48 75.69 42.7 49.49 462.77 49.49 477 75.69"/><line class="cls-2" x1="462.77" y1="49.49" x2="462.77" y2="48.49"/><line class="cls-3" x1="462.77" y1="46.54" x2="462.77" y2="16.27"/><polyline class="cls-2" points="462.77 15.29 462.77 14.29 463.77 14.29"/><line class="cls-4" x1="465.52" y1="14.29" x2="475.12" y2="14.29"/><polyline class="cls-2" points="476 14.29 477 14.29 477 15.29"/><line class="cls-5" x1="477" y1="17.34" x2="477" y2="73.67"/><line class="cls-2" x1="477" y1="74.7" x2="477" y2="75.7"/><text class="cls-6" transform="translate(466.27 10.56)">x</text><text class="cls-7" transform="translate(413.1 97.39)"><tspan xml:space="preserve">c:100  m:90  y:40  k:0</tspan></text><text class="cls-8" transform="translate(466.06 74.9)">12<tspan class="cls-9" x="4.9" y="0">0</tspan><tspan class="cls-10" x="6.29" y="0">°</tspan></text><polyline class="cls-11" points="407.79 70.89 407.79 100.56 477.46 100.56"/><circle class="cls-12" cx="407.79" cy="68.56" r="2.33"/><rect class="cls-13" x="17.13" y="37.89" width="125.67" height="49.33"/><polyline class="cls-13" points="74.79 107.56 0.13 107.56 0.13 62.59 17.13 62.59"/><text class="cls-14" transform="translate(19.12 105.23)">辅助图形截取区域</text><path class="cls-12" d="M474.54,75.7s.37-1.54,1.59-1.59"/></g></g></svg>