<svg xmlns="http://www.w3.org/2000/svg" viewBox="0 0 700.19 150.95"><defs><style>.cls-1,.cls-2,.cls-3,.cls-4,.cls-5,.cls-6,.cls-7,.cls-8,.cls-9{fill:#231815;}.cls-1{stroke:#231815;stroke-width:0.25px;}.cls-3,.cls-6{font-size:6px;}.cls-3,.cls-8{font-family:FZHTJW--GB1-0, FZHTJW -GB1-0-GBpc-EUC-H;}.cls-3{letter-spacing:0.05em;}.cls-4,.cls-5,.cls-7,.cls-8,.cls-9{font-size:22px;letter-spacing:0.05em;}.cls-4{font-family:MicrosoftYaHei, Microsoft YaHei;}.cls-5,.cls-6{font-family:FZLTXHK, FZLTXHK GBpc-EUC-H;}.cls-7{font-family:FZZDXJW--GB1-0, FZZDXJW -GB1-0-GBpc-EUC-H;}.cls-9{font-family:FZDHTJW--GB1-0, FZDHTJW -GB1-0-GBpc-EUC-H;}</style></defs><title>hitrobot_font-size</title><g id="图层_2" data-name="图层 2"><g id="图层_1-2" data-name="图层 1"><line class="cls-1" y1="38.05" x2="338.98" y2="38.05"/><line class="cls-1" x1="28.56" y1="37.88" x2="28.56" y2="22.74"/><line class="cls-1" y1="94.44" x2="338.98" y2="94.44"/><line class="cls-1" x1="40.66" y1="94.27" x2="40.66" y2="79.13"/><line class="cls-1" y1="150.83" x2="338.98" y2="150.83"/><line class="cls-1" x1="66.84" y1="150.66" x2="66.84" y2="135.52"/><path class="cls-2" d="M63.06,32.22a2.8,2.8,0,0,1,.83.29,2,2,0,0,1,.42.31.69.69,0,0,1,.16.37.37.37,0,0,1-.14.37c-.12.09-.24,0-.38-.36a2.09,2.09,0,0,0-.91-.92Z"/><path class="cls-2" d="M32.94,30.53l.65,0h.51q0,.42,0,.84v1.28a3,3,0,0,0,1.9.52A11.07,11.07,0,0,0,38.29,33a1.15,1.15,0,0,0-.19.56q-1,0-1.61,0a9,9,0,0,1-1-.07,3.94,3.94,0,0,1-.7-.15,2.94,2.94,0,0,1-.56-.26.34.34,0,0,0-.49.09,4.21,4.21,0,0,0-.37.54l-.44-.3a5.1,5.1,0,0,1,.77-.7V30.92l-.72,0ZM33.21,29a1.11,1.11,0,0,0,.35-.23,4.32,4.32,0,0,1,.6.84,1.22,1.22,0,0,0-.37.26A3.12,3.12,0,0,0,33.21,29Zm4.28-.56a3.39,3.39,0,0,0,.28.49c-.22,0-.65,0-1.3.12v.84q1.28,0,1.63,0v.42c-.23,0-.78,0-1.63,0v.67H37.7c0,.37,0,.68,0,.92s0,.55,0,.94h-.44v-.28h-2v.3h-.44c0-.37,0-.69,0-.94s0-.57,0-.94h1.19v-.67c-.87,0-1.43,0-1.67,0v-.42q.37,0,1.67,0v-.77a11.51,11.51,0,0,0-1.16.14l-.19-.44q.81,0,1.42-.09A9.3,9.3,0,0,0,37.49,28.41Zm-2.19,2.86v.84h2v-.84Z"/><path class="cls-2" d="M39.36,33.78a2.23,2.23,0,0,0-.47-.26,2.26,2.26,0,0,0,.44-.78,4.38,4.38,0,0,0,.19-.9c0-.31,0-.82,0-1.52s0-1.28,0-1.71h4.16c0,.46,0,.87,0,1.21v3.12q0,.49-.27.6a2.66,2.66,0,0,1-.64.16,1.93,1.93,0,0,0-.19-.56,1.18,1.18,0,0,0,.54,0,.34.34,0,0,0,.09-.22V31.74H41.8v.91c0,.36,0,.66,0,.91h-.51c0-.25,0-.54,0-.88v-.93H40a5,5,0,0,1-.15.88,4.51,4.51,0,0,1-.22.63C39.56,33.42,39.46,33.6,39.36,33.78ZM40,29v1h1.33V29Zm0,1.4v1h1.33v-1ZM41.8,29v1h1.42V29Zm0,1.4v1h1.42v-1Z"/><path class="cls-2" d="M46.52,33.06l.53,0c.12,0,.19-.08.19-.23V31.06H45.75l-.77,0v-.44l.77,0h1.49V29.11h-1l-.67,0v-.44l.67,0h2.44l.75,0v.44l-.75,0h-.93v1.56h1.4l.86,0v.44l-.86,0h-1.4v2c0,.26-.09.42-.27.48a3.16,3.16,0,0,1-.71.1A1.47,1.47,0,0,0,46.52,33.06Z"/><path class="cls-2" d="M50.94,29.55l1,0H55l1,0V30l-1.23,0a5.32,5.32,0,0,1-.42,1.33,5.48,5.48,0,0,1-.58,1,3.31,3.31,0,0,0,1.18.59,5.26,5.26,0,0,0,1.13.2,1.19,1.19,0,0,0-.37.63,9,9,0,0,1-1-.31,5,5,0,0,1-1.33-.78,5.69,5.69,0,0,1-2.16,1.14,1.3,1.3,0,0,0-.35-.54,5.57,5.57,0,0,0,.94-.24,3.89,3.89,0,0,0,1.2-.69,4.58,4.58,0,0,1-.59-.84A5.2,5.2,0,0,1,52,30h.49a3.87,3.87,0,0,0,.34,1.21,3.18,3.18,0,0,0,.57.77A4.06,4.06,0,0,0,54,31a3.37,3.37,0,0,0,.26-1H51.89l-1,0Zm2-1a1.85,1.85,0,0,0,.51-.21,9.17,9.17,0,0,1,.42.93,2.69,2.69,0,0,0-.56.21A6.43,6.43,0,0,0,52.94,28.55Z"/><path class="cls-2" d="M60.61,29.39a.87.87,0,0,0-.22.27l-.15.29h.84l.84,0v.39l-.84,0H57.71l-.81,0v-.39l.81,0h2.14l.1-.3a1.65,1.65,0,0,0,.08-.37Zm-2.88,1.26h3.49q0,.42,0,.84c0,.28,0,.56,0,.84H59.68v.42h1.37l.88,0v.42l-.88,0H59.68c0,.22,0,.44,0,.68h-.49c0-.23,0-.46,0-.68H57.75l-.86,0v-.42l.84,0h1.51v-.42H57.73c0-.28,0-.56,0-.85S57.75,30.91,57.73,30.64Zm1.37-2.21a3.64,3.64,0,0,1,.49-.07,3.39,3.39,0,0,1,.14.49h1.16l.63,0v.39l-.61,0H58l-.72,0v-.39l.7,0h1.26A1.23,1.23,0,0,0,59.1,28.43Zm-.6,1.46c-.09-.17-.19-.33-.28-.46a3.26,3.26,0,0,1,.42-.14l.28.46A3.24,3.24,0,0,0,58.5,29.9Zm-.28,1v.39h2.54v-.39Zm0,.72V32h2.54v-.33Z"/><path class="cls-2" d="M70.31,32.32a1.37,1.37,0,0,0-.49-.3,4.33,4.33,0,0,0,1-1.06,2.67,2.67,0,0,0,.28-1.22H69.66v4h-.49q0-.47,0-.79V30.32c0-.31,0-.63,0-1H71.1c0-.44,0-.75,0-1l.56,0a3.43,3.43,0,0,0-.09.93h2a9.48,9.48,0,0,0,0,1V33.2a.35.35,0,0,1-.26.39,4.54,4.54,0,0,1-.74.16,1.62,1.62,0,0,0-.23-.56,4.07,4.07,0,0,0,.64,0c.1,0,.15-.09.15-.23V29.73H71.52c0,.22,0,.49-.07.81q.19.19.69.59a6.83,6.83,0,0,1,.69.62,4.48,4.48,0,0,0-.37.37A10.37,10.37,0,0,0,71.31,31,5.26,5.26,0,0,1,70.31,32.32Z"/><path class="cls-2" d="M74.76,29.55l1,0h3.14l1,0V30l-1.23,0a5.33,5.33,0,0,1-.42,1.33,5.49,5.49,0,0,1-.58,1,3.31,3.31,0,0,0,1.18.59,5.26,5.26,0,0,0,1.13.2,1.19,1.19,0,0,0-.37.63,9,9,0,0,1-1-.31,5,5,0,0,1-1.33-.78A5.69,5.69,0,0,1,75,33.76a1.32,1.32,0,0,0-.35-.54,5.59,5.59,0,0,0,.94-.24,3.9,3.9,0,0,0,1.2-.69,4.69,4.69,0,0,1-.59-.84A5.28,5.28,0,0,1,75.8,30h.49a3.89,3.89,0,0,0,.34,1.21,3.16,3.16,0,0,0,.57.77,4.06,4.06,0,0,0,.58-1A3.37,3.37,0,0,0,78,30H75.71l-1,0Zm2-1a1.85,1.85,0,0,0,.51-.21,9.4,9.4,0,0,1,.42.93,2.7,2.7,0,0,0-.56.21A6.42,6.42,0,0,0,76.76,28.55Z"/><path class="cls-2" d="M80.64,29.06l.79,0h.79c0-.19,0-.41,0-.68h.49c0,.22,0,.44,0,.68h1.07c0-.26,0-.49,0-.68h.49c0,.19,0,.41,0,.68H85l.79,0v.42l-.79,0h-.84c0,.2,0,.4,0,.61h-.47v-.61H82.66v.63H82.2c0-.2,0-.41,0-.63h-.79l-.79,0Zm0,2.23.33-.35,1,.63a1.23,1.23,0,0,0-.33.37A6.52,6.52,0,0,0,80.64,31.29Zm1.44.68a3.2,3.2,0,0,0,.3.35l-.63.76a3.49,3.49,0,0,0-.46.66,5.65,5.65,0,0,0-.51-.4,3.34,3.34,0,0,0,.7-.62A5.4,5.4,0,0,0,82.08,32Zm-.91-1.68.35-.33a9.66,9.66,0,0,1,.86.7A1.7,1.7,0,0,0,82,31,4.33,4.33,0,0,0,81.18,30.29Zm4,0c0,.23-.05.52-.07.86s0,.59-.06.73a.34.34,0,0,1-.23.29,5.41,5.41,0,0,1-.71.16,1,1,0,0,0-.23-.44,3,3,0,0,0,.63-.07c.09,0,.15-.12.16-.26l0-.91h-1.3v2.26c0,.17.13.26.37.26H85a.34.34,0,0,0,.27-.09,1.08,1.08,0,0,0,.13-.49,1.34,1.34,0,0,0,.44.23,1.35,1.35,0,0,1-.28.61.64.64,0,0,1-.42.12H83.55c-.39,0-.58-.13-.58-.39V31.32c0-.39,0-.73,0-1Z"/><path class="cls-2" d="M86.67,28.9h2.07c0,.34,0,.66,0,1v2c0,.26,0,.58,0,1h-.4v-.26H87.08v.77h-.42q0-.58,0-1.21V29.85C86.69,29.53,86.68,29.21,86.67,28.9Zm.42.35V30.5h.44V29.25Zm0,1.61V32.2h.44V30.85Zm.84-1.61V30.5h.39V29.25Zm0,1.61V32.2h.39V30.85Zm1-1.81a2.72,2.72,0,0,0,.54,0h.42a3.81,3.81,0,0,0,0-.72l.54.07a3.23,3.23,0,0,0-.12.65H91a3.11,3.11,0,0,0,.51,0v.42l-.51,0h-.72l0,.44h.56l.58,0v.39l-.56,0h-.65c0,.17-.06.32-.09.46q1.37,0,1.7,0v.39l-.65,0v.68a4.32,4.32,0,0,0,.7,0v.42l-.7,0v1q0,.49-.21.58a3.47,3.47,0,0,1-.7.19,1.44,1.44,0,0,0-.19-.51,2.23,2.23,0,0,0,.55,0c.1,0,.15-.14.15-.33v-.84H89.64c-.12.26-.24.49-.35.68a5.31,5.31,0,0,1-.49.67,2.31,2.31,0,0,0-.4-.28,3,3,0,0,0,.52-.57,4.11,4.11,0,0,0,.35-.63,5.42,5.42,0,0,0,.29-.9l-.7,0v-.39l.79,0c0-.14.06-.3.09-.46l-.72,0v-.39l.77,0a2.51,2.51,0,0,0,0-.44h-.39l-.54,0Zm.65,3.35a1.66,1.66,0,0,0,.42-.09c.06.2.12.4.16.58a2.48,2.48,0,0,1-.44.09A3.51,3.51,0,0,0,89.57,32.39ZM90,31a6.54,6.54,0,0,1-.19.68h.93V31Z"/><path class="cls-2" d="M72.9,142.25l.65,0h.51q0,.42,0,.84v1.28a3,3,0,0,0,1.9.52,11,11,0,0,0,2.31-.15,1.17,1.17,0,0,0-.19.56q-1,0-1.6,0a8.56,8.56,0,0,1-1-.07,3.8,3.8,0,0,1-.7-.15,3,3,0,0,1-.56-.26.34.34,0,0,0-.49.09,4.13,4.13,0,0,0-.37.53l-.44-.3a5.21,5.21,0,0,1,.77-.7v-1.84l-.72,0Zm.28-1.56a1.17,1.17,0,0,0,.35-.23,4.25,4.25,0,0,1,.6.84,1.22,1.22,0,0,0-.37.26A3.08,3.08,0,0,0,73.18,140.69Zm4.28-.56a3.57,3.57,0,0,0,.28.49q-.33,0-1.3.12v.84q1.28,0,1.63,0V142c-.23,0-.78,0-1.63,0v.67h1.23c0,.37,0,.68,0,.92s0,.55,0,.94h-.44v-.28h-2v.3h-.44q0-.56,0-.94c0-.26,0-.57,0-.94H76V142c-.87,0-1.43,0-1.67,0v-.42q.37,0,1.67,0v-.77a11.5,11.5,0,0,0-1.16.14l-.19-.44c.54,0,1,0,1.42-.09A9.27,9.27,0,0,0,77.46,140.14ZM75.27,143v.84h2V143Z"/><path class="cls-2" d="M79.32,145.51a2.36,2.36,0,0,0-.46-.26,2.2,2.2,0,0,0,.44-.78,4.2,4.2,0,0,0,.19-.89c0-.31,0-.82,0-1.52s0-1.28,0-1.71h4.16c0,.47,0,.87,0,1.21v3.12c0,.33-.07.53-.27.6a2.66,2.66,0,0,1-.64.16,1.91,1.91,0,0,0-.19-.56,1.17,1.17,0,0,0,.54,0,.34.34,0,0,0,.09-.22v-1.16H81.76v.91c0,.36,0,.66,0,.91h-.51c0-.25,0-.54,0-.88v-.93H80a5,5,0,0,1-.15.88,4.51,4.51,0,0,1-.22.63A5.68,5.68,0,0,1,79.32,145.51Zm.65-4.79v1H81.3v-1Zm0,1.4v1H81.3v-1Zm1.79-1.4v1h1.42v-1Zm0,1.4v1h1.42v-1Z"/><path class="cls-2" d="M86.48,144.79l.54,0c.13,0,.19-.08.19-.23v-1.79H85.71l-.77,0v-.44l.77,0H87.2v-1.56h-1l-.68,0v-.44c.2,0,.43,0,.68,0H88.6l.74,0v.44l-.74,0h-.93v1.56h1.39l.86,0v.44l-.86,0H87.67v2c0,.26-.09.42-.27.48a3.19,3.19,0,0,1-.71.1A1.43,1.43,0,0,0,86.48,144.79Z"/><path class="cls-2" d="M90.9,141.27l1,0H95l1,0v.46l-1.23,0a5.33,5.33,0,0,1-.42,1.32,5.55,5.55,0,0,1-.58,1,3.31,3.31,0,0,0,1.17.59,5.27,5.27,0,0,0,1.13.2,1.19,1.19,0,0,0-.37.63,9.54,9.54,0,0,1-1-.31,5.11,5.11,0,0,1-1.33-.78,5.67,5.67,0,0,1-2.16,1.14,1.34,1.34,0,0,0-.35-.53,5.63,5.63,0,0,0,.94-.24A3.91,3.91,0,0,0,93,144a4.71,4.71,0,0,1-.59-.84,5.25,5.25,0,0,1-.43-1.49h.49a3.88,3.88,0,0,0,.34,1.21,3.16,3.16,0,0,0,.57.77,4.05,4.05,0,0,0,.58-1,3.38,3.38,0,0,0,.26-1H91.86l-1,0Zm2-1a1.84,1.84,0,0,0,.51-.21,9.16,9.16,0,0,1,.42.93,2.83,2.83,0,0,0-.56.21A6.5,6.5,0,0,0,92.9,140.27Z"/><path class="cls-2" d="M100.58,141.11a.89.89,0,0,0-.22.27l-.15.29H101l.84,0V142l-.84,0H97.67l-.81,0v-.39l.81,0h2.14l.11-.3A1.65,1.65,0,0,0,100,141Zm-2.88,1.26h3.49c0,.28,0,.56,0,.84s0,.56,0,.84H99.65v.42H101l.88,0v.42l-.88,0H99.65q0,.33,0,.67h-.49q0-.35,0-.67H97.72l-.86,0v-.42l.84,0h1.51V144H97.69c0-.28,0-.56,0-.85S97.71,142.63,97.69,142.37Zm1.37-2.21a3.66,3.66,0,0,1,.49-.07,3.27,3.27,0,0,1,.14.49h1.16l.63,0v.39l-.61,0H98l-.72,0v-.39l.7,0h1.26A1.2,1.2,0,0,0,99.07,140.16Zm-.6,1.46c-.09-.17-.19-.33-.28-.46a3.23,3.23,0,0,1,.42-.14l.28.46A3.19,3.19,0,0,0,98.46,141.62Zm-.28,1v.39h2.54v-.39Zm0,.72v.33h2.54v-.33Z"/><path class="cls-2" d="M103,143.65a2.8,2.8,0,0,1,.83.29,2,2,0,0,1,.42.31.69.69,0,0,1,.16.37.38.38,0,0,1-.14.37c-.12.09-.25,0-.38-.36a2.07,2.07,0,0,0-.91-.92Z"/><path class="cls-2" d="M110.28,144a1.37,1.37,0,0,0-.49-.3,4.28,4.28,0,0,0,1-1.06,2.63,2.63,0,0,0,.28-1.22h-1.42v4h-.49q0-.47,0-.79V142c0-.31,0-.63,0-1h1.91c0-.44,0-.75,0-1l.56,0a3.38,3.38,0,0,0-.09.93h2a9.51,9.51,0,0,0,0,1v2.88a.35.35,0,0,1-.26.39,4.39,4.39,0,0,1-.74.16,1.65,1.65,0,0,0-.23-.56,4.06,4.06,0,0,0,.64,0c.1,0,.15-.09.15-.23v-3.23h-1.51c0,.22,0,.49-.07.81.12.12.35.32.69.59a6.46,6.46,0,0,1,.69.62,4.44,4.44,0,0,0-.37.37,10.76,10.76,0,0,0-1.14-1.16A5.17,5.17,0,0,1,110.28,144Z"/><path class="cls-2" d="M114.72,141.27l1,0h3.14l1,0v.46l-1.23,0a5.33,5.33,0,0,1-.42,1.32,5.62,5.62,0,0,1-.58,1,3.31,3.31,0,0,0,1.17.59,5.28,5.28,0,0,0,1.13.2,1.18,1.18,0,0,0-.37.63,9.53,9.53,0,0,1-1-.31,5.12,5.12,0,0,1-1.33-.78,5.66,5.66,0,0,1-2.16,1.14,1.34,1.34,0,0,0-.35-.53,5.57,5.57,0,0,0,.94-.24,3.91,3.91,0,0,0,1.2-.69,4.71,4.71,0,0,1-.59-.84,5.21,5.21,0,0,1-.43-1.49h.49a3.91,3.91,0,0,0,.34,1.21,3.18,3.18,0,0,0,.57.77,4.06,4.06,0,0,0,.58-1,3.41,3.41,0,0,0,.26-1h-2.33l-1,0Zm2-1a1.85,1.85,0,0,0,.51-.21,9.16,9.16,0,0,1,.42.93,2.83,2.83,0,0,0-.56.21A6.49,6.49,0,0,0,116.72,140.27Z"/><path class="cls-2" d="M120.61,140.79l.79,0h.79q0-.28,0-.67h.49c0,.21,0,.44,0,.67h1.07c0-.26,0-.49,0-.67h.49q0,.28,0,.67H125l.79,0v.42l-.79,0h-.84c0,.2,0,.4,0,.61h-.46v-.61h-1.07v.63h-.46c0-.2,0-.41,0-.63h-.79l-.79,0Zm0,2.23.33-.35,1,.63a1.23,1.23,0,0,0-.33.37A6.42,6.42,0,0,0,120.61,143Zm1.44.67a3.35,3.35,0,0,0,.3.35l-.63.76a3.61,3.61,0,0,0-.47.66,5.27,5.27,0,0,0-.51-.4,3.35,3.35,0,0,0,.7-.62A5.19,5.19,0,0,0,122,143.69Zm-.91-1.67.35-.33a9.94,9.94,0,0,1,.86.7,1.67,1.67,0,0,0-.37.33A4.28,4.28,0,0,0,121.14,142Zm4,0q0,.35-.07.86a7.23,7.23,0,0,1-.06.73.34.34,0,0,1-.23.29,5.37,5.37,0,0,1-.71.16.94.94,0,0,0-.23-.44,3,3,0,0,0,.63-.07c.09,0,.15-.12.16-.26l0-.91h-1.3v2.26c0,.17.13.26.37.26h1.19a.34.34,0,0,0,.27-.09,1.08,1.08,0,0,0,.13-.49,1.3,1.3,0,0,0,.44.23,1.37,1.37,0,0,1-.28.61.64.64,0,0,1-.42.12h-1.56c-.39,0-.58-.13-.58-.39V143c0-.39,0-.73,0-1Z"/><path class="cls-2" d="M126.63,140.62h2.07c0,.34,0,.66,0,1v2c0,.26,0,.58,0,1h-.4v-.25H127V145h-.42c0-.39,0-.79,0-1.21v-2.26C126.65,141.25,126.64,140.93,126.63,140.62Zm.42.35v1.26h.44V141Zm0,1.61v1.35h.44v-1.35Zm.84-1.61v1.26h.4V141Zm0,1.61v1.35h.4v-1.35Zm1-1.81a2.73,2.73,0,0,0,.54,0h.42a3.91,3.91,0,0,0,0-.72l.53.07a3.37,3.37,0,0,0-.12.65H131a3.1,3.1,0,0,0,.51,0v.42l-.51,0h-.72c0,.14,0,.29,0,.44h.56l.58,0V142l-.56,0h-.65c0,.17-.06.32-.09.46q1.37,0,1.7,0v.39l-.65,0v.68a4.3,4.3,0,0,0,.7,0v.42l-.7,0v1c0,.32-.07.52-.21.58a3.42,3.42,0,0,1-.7.19A1.43,1.43,0,0,0,130,145a2.13,2.13,0,0,0,.55,0c.1,0,.15-.14.15-.33v-.84h-1.07c-.12.26-.24.49-.35.68a5.43,5.43,0,0,1-.49.67,2.27,2.27,0,0,0-.4-.28,3,3,0,0,0,.52-.57,4.16,4.16,0,0,0,.35-.63,5.5,5.5,0,0,0,.29-.9l-.7,0v-.39l.79,0c0-.14.06-.29.09-.46l-.72,0v-.39l.77,0a2.52,2.52,0,0,0,0-.44h-.4l-.54,0Zm.65,3.35A1.64,1.64,0,0,0,130,144c.06.2.12.4.16.58a2.48,2.48,0,0,1-.44.09A3.47,3.47,0,0,0,129.54,144.11Zm.39-1.35a6.08,6.08,0,0,1-.19.68h.93v-.68Z"/><path class="cls-2" d="M1.54,141.48l-.91,0v-.42l.88,0H5l.88,0v.42q-.3,0-.88,0H3a9.22,9.22,0,0,1,0,.93H5.08a5.68,5.68,0,0,0-.12.84l-.12,1.37c0,.33-.18.52-.4.58a6.17,6.17,0,0,1-.84.16,2.06,2.06,0,0,0-.23-.58l.67,0c.17,0,.28-.14.33-.37l.14-1.61H2.87A3.38,3.38,0,0,1,2.49,144a3.3,3.3,0,0,1-.57.78,5.86,5.86,0,0,1-.69.56A1.1,1.1,0,0,0,.8,145a3.25,3.25,0,0,0,.7-.49,2.59,2.59,0,0,0,.52-.7,3.45,3.45,0,0,0,.33-1,7.2,7.2,0,0,0,.1-1.3Zm2.12-.61a5.36,5.36,0,0,0-.54.16,6.47,6.47,0,0,0-.26-.81,3.93,3.93,0,0,0,.51-.16C3.47,140.3,3.56,140.57,3.66,140.88Z"/><path class="cls-2" d="M7,140.62l.77,0h2.88l.79,0v.44c-.23,0-.5,0-.79,0H9.54v1.39h1l.65,0v.44c-.19,0-.4,0-.65,0h-1v1.79h1.3l1,0V145l-1,0H7.36l-.74,0v-.44l.74,0h.14v-2c0-.26,0-.5,0-.7H8c0,.19,0,.42,0,.7v2H9.08V141H7.77c-.29,0-.55,0-.77,0Z"/><path class="cls-2" d="M12.77,142.46l.88,0h1.26c0-.42,0-.73,0-.93h.54a6.65,6.65,0,0,0,0,.93h1.16l1,0v.44l-1,0h-.84a2.39,2.39,0,0,0,.92,1.06,3.66,3.66,0,0,0,1.13.46,1.89,1.89,0,0,0-.3.51,4,4,0,0,1-1.52-1,3.16,3.16,0,0,1-.55-.85v1.23c0,.31,0,.67,0,1.07h-.51c0-.4,0-.76,0-1.07V143a5.69,5.69,0,0,1-1,1.28,7.38,7.38,0,0,1-1,.72,1,1,0,0,0-.39-.39,4.52,4.52,0,0,0,1-.63,5,5,0,0,0,1-1.14h-.84l-.91,0Zm2-2.28a1.76,1.76,0,0,0,.42-.21c.12.19.25.4.37.63a2.1,2.1,0,0,0-.37.21h2.3q0,.4,0,.67c0,.19,0,.37,0,.56H17v-.84H13.33v.74h-.49c0-.2,0-.4,0-.59s0-.37,0-.54h2.23A2.75,2.75,0,0,0,14.73,140.18Z"/><path class="cls-2" d="M23,144.51a6.35,6.35,0,0,0,.74,0V145a7.24,7.24,0,0,0-.74,0H19.4c-.23,0-.5,0-.81,0v-.54a6.93,6.93,0,0,0,.81,0Zm-3.09-3.4a7.83,7.83,0,0,0-.81,0v-.54a8,8,0,0,0,.84,0h2.54a6,6,0,0,0,.79,0v.54a6,6,0,0,0-.79,0Zm3,1.88c-.31,0-.57,0-.77,0h-2a6.35,6.35,0,0,0-.74,0v-.54a6,6,0,0,0,.74,0h2a6.94,6.94,0,0,0,.77,0Z"/><path class="cls-2" d="M26.5,140.51l.56,0v.39l-.81,0,.19.51a2.28,2.28,0,0,0-.44.16,5.93,5.93,0,0,0-.16-.68h-.26a3.36,3.36,0,0,1-.4.49l-.37.35a1.51,1.51,0,0,0-.42-.32,2.51,2.51,0,0,0,.78-.73,3.49,3.49,0,0,0,.36-.66,5.71,5.71,0,0,0,.56.19,2.38,2.38,0,0,0-.28.35Zm-1.21,4.14q0,.16,0,.74h-.47c0-.36,0-.64,0-.86v-1.44c0-.22,0-.44,0-.65h.49a5.05,5.05,0,0,0,0,.68Zm0-2.75a3,3,0,0,1,.4-.21,6.1,6.1,0,0,1,.37.72,2,2,0,0,0-.4.21A4.49,4.49,0,0,0,25.34,141.9Zm2.72.86a4.88,4.88,0,0,0,0,.49v1c0,.14,0,.29,0,.46H26c0-.19,0-.36,0-.54v-.93a4.2,4.2,0,0,0,0-.46Zm-1.67-1,.67,0h2.19c0,.45,0,.71,0,.79v2.16c0,.29-.09.47-.27.52a3.69,3.69,0,0,1-.62.13q-.07-.25-.16-.51a1.52,1.52,0,0,0,.56,0s.07-.12.07-.25V142.2h-1.7l-.7,0Zm0,1.28v.44h1.26v-.44Zm0,.77v.51h1.26v-.51Zm2.33-3a4.44,4.44,0,0,0,.23.54l-.44.19c0-.2-.11-.44-.19-.72h-.44l-.46.56-.42-.23a3.12,3.12,0,0,0,.49-.56,3.91,3.91,0,0,0,.35-.67l.51.16a1.14,1.14,0,0,0-.26.4h.86l.63,0v.39Z"/><path class="cls-2" d="M31.38,140.09a5.36,5.36,0,0,0,.54.21,4.3,4.3,0,0,0-.44,1v3c0,.48,0,.83,0,1H31c0-.2,0-.54,0-1v-2.19a6.81,6.81,0,0,1-.46.79,1,1,0,0,0-.33-.35,4,4,0,0,0,.65-1.11A5.8,5.8,0,0,0,31.38,140.09Zm.51,1.16.65,0h.91q0-.84,0-1.19h.46c0,.22,0,.61,0,1.19h1c.31,0,.54,0,.68,0v.42a6.52,6.52,0,0,0-.65,0h-.7A3.65,3.65,0,0,0,35.8,144a.83.83,0,0,0-.37.4,4.16,4.16,0,0,1-1.56-2.75V144a7.71,7.71,0,0,0,.79,0v.42c-.14,0-.4,0-.79,0,0,.31,0,.67,0,1.07h-.46c0-.42,0-.78,0-1.07l-.79,0v-.42l.79,0v-2.3h0A5.07,5.07,0,0,1,32,144.48a.92.92,0,0,0-.4-.33A4.06,4.06,0,0,0,33,141.65h-.46l-.65,0Z"/><path class="cls-2" d="M39.86,144.07a2.05,2.05,0,0,1-.42-1.16,2.08,2.08,0,0,1,.29-1.29,3,3,0,0,1,.83-.91c.32-.22.48-.32.49-.28s-.1.15-.31.33a3.18,3.18,0,0,0-.64.76,2.29,2.29,0,0,0-.31,1.26,2.07,2.07,0,0,0,.3,1.2,3.31,3.31,0,0,0,.66.71c.24.19.35.29.31.32s-.18,0-.44-.22A3.54,3.54,0,0,1,39.86,144.07Z"/><path class="cls-2" d="M43.25,141.58a2.47,2.47,0,0,0,.58.16q-.25.54-.52,1.21c-.18.45-.34.82-.48,1.12a1.55,1.55,0,0,0-.49-.23,6.78,6.78,0,0,0,.64-1.3A5.62,5.62,0,0,0,43.25,141.58Zm1.42-1.37h.56a5.77,5.77,0,0,0,0,.84v3.63c0,.28-.08.46-.23.54a2.28,2.28,0,0,1-.74.16,1.88,1.88,0,0,0-.21-.56,3.28,3.28,0,0,0,.58,0c.08,0,.12-.11.12-.28V141Q44.69,140.65,44.66,140.2Zm1.28,1.61a1.89,1.89,0,0,0,.44-.26q.3.49.63,1.08c.22.39.4.77.56,1.13A1.83,1.83,0,0,0,47,144a11,11,0,0,0-1.09-2.19Z"/><path class="cls-2" d="M48.5,142.46l.88,0h1.26c0-.42,0-.73,0-.93h.53a6.87,6.87,0,0,0,0,.93h1.16l1,0v.44l-1,0h-.84a2.39,2.39,0,0,0,.92,1.06,3.68,3.68,0,0,0,1.13.46,1.87,1.87,0,0,0-.3.51,4,4,0,0,1-1.52-1,3.17,3.17,0,0,1-.55-.85v1.23c0,.31,0,.67,0,1.07h-.51c0-.4,0-.76,0-1.07V143a5.74,5.74,0,0,1-1,1.28,7.44,7.44,0,0,1-1,.72,1,1,0,0,0-.4-.39,4.5,4.5,0,0,0,1-.63,5,5,0,0,0,1-1.14h-.84l-.91,0Zm2-2.28a1.75,1.75,0,0,0,.42-.21c.12.19.25.4.37.63a2.09,2.09,0,0,0-.37.21h2.3q0,.4,0,.67c0,.19,0,.37,0,.56h-.49v-.84H49.06v.74h-.49c0-.2,0-.4,0-.59s0-.37,0-.54H50.8A2.72,2.72,0,0,0,50.46,140.18Z"/><path class="cls-2" d="M55.2,140.09a5.36,5.36,0,0,0,.54.21,4.37,4.37,0,0,0-.44,1v3c0,.48,0,.83,0,1h-.47c0-.2,0-.54,0-1v-2.19a6.94,6.94,0,0,1-.46.79,1,1,0,0,0-.33-.35,4,4,0,0,0,.65-1.11A5.81,5.81,0,0,0,55.2,140.09Zm.51,1.16.65,0h.91c0-.56,0-1,0-1.19h.46c0,.22,0,.61,0,1.19h1q.47,0,.67,0v.42a6.45,6.45,0,0,0-.65,0H58A3.65,3.65,0,0,0,59.62,144a.83.83,0,0,0-.37.4,4.16,4.16,0,0,1-1.56-2.75V144a7.73,7.73,0,0,0,.79,0v.42q-.21,0-.79,0c0,.31,0,.67,0,1.07h-.46c0-.42,0-.78,0-1.07l-.79,0v-.42l.79,0v-2.3h0a5.07,5.07,0,0,1-1.47,2.84.93.93,0,0,0-.4-.33,4.06,4.06,0,0,0,1.44-2.51h-.47l-.65,0Z"/><path class="cls-2" d="M61,144.7a3,3,0,0,0,.7-.79,2,2,0,0,0,.31-1.27,2.43,2.43,0,0,0-.36-1.2,3.39,3.39,0,0,0-.65-.76c-.22-.19-.33-.3-.33-.34s.16,0,.44.23a3.58,3.58,0,0,1,.85.86,2.15,2.15,0,0,1,.41,1.34A2,2,0,0,1,62,144a3,3,0,0,1-.84.76c-.3.18-.46.25-.47.21S60.8,144.87,61,144.7Z"/><path class="cls-2" d="M163.83,111.24a14.44,14.44,0,0,1,2.35,1v.18l-.54.54a7.29,7.29,0,0,0-1.26,2.89h5.69l1.18-1.45h.27l1.63,1.45v.63h-9l-.27.72a6.07,6.07,0,0,0-.27.81q-.45,1.08-.81,2.17h8.95l1.45-1.72h.27l.36.36a6.36,6.36,0,0,0,1.08,1,1.89,1.89,0,0,0,.45.36v.63H162.47l-.09.27a27.57,27.57,0,0,0-1,2.89h7.14v-.09q-.09-.09.81-.81h.18l2,1.9v.27l-1.45.18-1.36,1.26c-.3.24-.39.33-.27.27q-1.45,1.27-2.62,2.44l.18.09a1.72,1.72,0,0,1,.72.45q.63.27,1,.45c.24.18.3.21.18.09a2.9,2.9,0,0,0,.45.36,1.94,1.94,0,0,1,.36.45,2,2,0,0,1,.09.63,5,5,0,0,1-.18,1.08l-.36.09-.18.09a1,1,0,0,1-.45.09l-.27-.36a6.43,6.43,0,0,0-1.45-1.36l-.63-.45a2.73,2.73,0,0,0-1.17-.72,3,3,0,0,0-.72-.45l-.54-.27a3.56,3.56,0,0,0-.81-.36,3.6,3.6,0,0,1-.81-.36,5.28,5.28,0,0,0-1.09-.45l-1.63-.63v-.27l1.63.27a26.8,26.8,0,0,1,2.89.63,10.74,10.74,0,0,1,2.26.72l.81-1.17q.27-.45,1-1.54t1.17-1.81h-6.78l-.63.72h-.18l-1.72-1.18V124l1-.72.18-.72a2.78,2.78,0,0,0,.18-.54,6.83,6.83,0,0,1,.45-1.17h-6.42a.26.26,0,0,1-.18.09l-.72-.72H161l.27-.9a2.71,2.71,0,0,0,.18-.63q.36-1.17.72-2.17h-6.15a.72.72,0,0,1-.27.09l-.72-.72h7.41v-.18l.09-.45q.54-1.63,1.18-4Z"/><path class="cls-2" d="M182.27,112.41v.27h11.84l.72-1h.27l1.72,1.45v.27l-.72.72.18,17.26-.27.18-.27.27a1,1,0,0,0-.27.18,3.23,3.23,0,0,0-1.08,1h-.27l-.09-.45c-.06-.18-.15-.42-.27-.72a1.1,1.1,0,0,0-.18-.27,2.67,2.67,0,0,0-.9-.72,5.25,5.25,0,0,0-1.27-.45,2,2,0,0,1-.63-.09V130l.81.09a7.45,7.45,0,0,0,1.63.18,1.69,1.69,0,0,0,.9-.18l.09-.09a.73.73,0,0,0,.45-.27v-5.51h-5.6v7.59h-1.9v-7.59h-4.88L182,125a13.42,13.42,0,0,1-.27,1.36c-.06.36-.09.42-.09.18a3.46,3.46,0,0,1-.27,1.08.69.69,0,0,1-.09.27c-.12.3-.3.69-.54,1.18a1,1,0,0,0-.18.27,3.58,3.58,0,0,1-.81,1.08,2,2,0,0,1-.36.45c-.12.12-.39.45-.81,1a7.22,7.22,0,0,1-1.54,1.45h-.27l.63-.9q.54-.81,1.08-1.54a9,9,0,0,0,.72-1.18c.06-.18.15-.42.27-.72s.12-.45.18-.63.15-.51.27-1q.09-.36.18-.63l.27-1.35a1.47,1.47,0,0,0,.09-.36,50.5,50.5,0,0,0,.18-6.15,63.62,63.62,0,0,0-.27-7.14Zm12.38.72H182.27v5.06h4.88V113.4h1.9v4.79h5.6Zm-7.5,5.79h-4.88v4.61h4.88Zm7.5,0h-5.6v4.61h5.6Z"/><path class="cls-2" d="M210,111.87a2.49,2.49,0,0,1,.54.09,15.28,15.28,0,0,1,1.63.27v.18l-.72,1v3.35h5.6l.9-1.18h.09a1.12,1.12,0,0,1,.54.27l1.54.9v.45l-.9.81.18,6.69-.81.27a4.44,4.44,0,0,1-1.36.27v-1.54h-5.79v8.59l-1,.27a5.59,5.59,0,0,1-1.17.27v-.27q0-2,.18-8.86H204v1.54l-.81.18a4.51,4.51,0,0,1-1.09.27v-8q-.09-1.26-.18-2.08l.45.27q.18.09.9.36a3.88,3.88,0,0,0,.72.36v.18h5.6v-1.63a29.3,29.3,0,0,0-.27-3.44ZM204,117.2v5.88h5.51v-3.71q.09-1.27.09-2.17Zm13.29,0h-5.79v5.88h5.79Z"/><path class="cls-2" d="M242.39,114.4l.36.36.63.54q.54.45.9.72v.72h-4.88l-.45,1.72c-.36,1.09-.63,2-.81,2.62a3.49,3.49,0,0,0-.18.45,10.38,10.38,0,0,1-.72,1.54l-.45.9-.45.9q-.72,1.08-1.27,1.81l.27.27c.06,0,.15.06.27.18a4.57,4.57,0,0,0,.72.45,12.72,12.72,0,0,0,1.36.81,3.54,3.54,0,0,1,.45.18q1.08.36,2.17.81t2,.63a17.85,17.85,0,0,0,3,.36v.27l-.72.18a5.41,5.41,0,0,0-1,.45,1.68,1.68,0,0,0-.45,1h-.18q-.09,0-1.36-.36a18.42,18.42,0,0,1-2.17-.81,13.36,13.36,0,0,1-3-1.45,4.13,4.13,0,0,0-.54-.36q-1.09-.72-1.9-1.36V128c-.06,0-.24.15-.54.45a13.49,13.49,0,0,0-1.36.81,13.08,13.08,0,0,0-1.9,1.08l-2.17.9a16.48,16.48,0,0,1-2.17.9q-.63.18-2.53.63.45-.18-1,.18v-.18l.63-.27q.18-.09.9-.36l.81-.27a11.64,11.64,0,0,0,2.17-1l1.09-.54a6.86,6.86,0,0,1,.81-.36l1.63-1.08q.81-.63,1.63-1.18a10.3,10.3,0,0,1,1-.9l-.36-.45q-.36-.54-.9-1.45-.18-.36-.45-1a8.58,8.58,0,0,1-.54-.9q-.36-1-.81-2.08l-.54-1.63a1.49,1.49,0,0,1-.09-.45,9,9,0,0,1-.36-2.17h-5.15l-.72-.72h17.63l1.45-1.63Zm-12.75,2.35.18,1.08a15.16,15.16,0,0,0,.63,2,20.53,20.53,0,0,0,1.08,2.26l.36.72a5.82,5.82,0,0,0,.81,1.45,7.2,7.2,0,0,0,1.18,1.45l.45-.81.27-.54a10.66,10.66,0,0,0,1.45-2.89l.27-.54c.12-.36.27-.9.45-1.63q.45-1.44.72-2.53Zm2-5.51a1.45,1.45,0,0,1,.36.09q-.27-.09.36.18a2.32,2.32,0,0,1,1.17.54,1.41,1.41,0,0,1,.36.27,4.73,4.73,0,0,1,.63.45l.18.18.27.54a.72.72,0,0,0,.09.27.36.36,0,0,1,.09.27.26.26,0,0,1-.09.18.27.27,0,0,0-.09.18,1,1,0,0,0-.18.27,1.1,1.1,0,0,1-.18.27.08.08,0,0,1-.09.09.87.87,0,0,1-.36.45,1.46,1.46,0,0,1-.36.09,1.57,1.57,0,0,1-.63-.27l-.09-.54a2,2,0,0,1-.09-.63c-.06-.24-.12-.45-.18-.63a8.35,8.35,0,0,0-.45-1.08,3.48,3.48,0,0,1-.81-1.17Z"/><path class="cls-2" d="M255.14,111.24l1.45,1.72v.18l-1.27.27-2.62.63q-1,.18-3.16.72v5.61h3.16l1.26-1.45h.18l1.72,1.45v.72h-6.33v6.06l1.45-.36,1.27-.27q1-.27,1.54-.45a12.55,12.55,0,0,1,1.9-.45c-.36.06-.3.06.18,0a.8.8,0,0,0,.36-.09,2,2,0,0,1,.63-.09l-1.36.63q-1.36.54-2.53,1.08a17.86,17.86,0,0,0-2.17,1,7.33,7.33,0,0,0-2.17,1.45h-.27l-1.45-1.45v-.27l1-.72v-6.06a69.72,69.72,0,0,0-.27-7.68l2,.81.72-.27a6.79,6.79,0,0,0,.81-.36l1.08-.54a14.48,14.48,0,0,0,2.62-1.81Zm4.07,3.16v.18h4.34l.72-.9h.27l.36.18q.36.36,1.36,1.18v.09l-.72.72.18,11.57-.27.18a2.69,2.69,0,0,1-.72.63,4.2,4.2,0,0,1-.81.63.69.69,0,0,0-.27.09.71.71,0,0,1-.27.09l-.18-.36a2,2,0,0,0-.36-.72,1.15,1.15,0,0,0-.54-.54l-.54-.27a.26.26,0,0,0-.18-.09,1.08,1.08,0,0,0-.45-.18,6.08,6.08,0,0,0-.9-.45v-.27l.72.18a3.82,3.82,0,0,1,.63.09,1.55,1.55,0,0,1,.63.09,1.47,1.47,0,0,1,.45.09,1,1,0,0,0,.45.09,1.45,1.45,0,0,0,.36-.09l.36-.18V115h-4.61v17.54h-1.63V124q0-8.31-.27-10.3Z"/><path class="cls-2" d="M271.51,111.51l1.63,1.17V113h7l1-1.27h.27L282.9,113v.45l-.54.45V118l-.81.18a4.4,4.4,0,0,1-1.08.27v-1h-7.32v1.08q0,.63-.09,2.17a2.5,2.5,0,0,0-.09.54,9.61,9.61,0,0,0-.18,1.08c-.12.72-.21,1.24-.27,1.54a17,17,0,0,1-.54,1.81c-.06.18-.12.39-.18.63s-.21.54-.27.72l-.9,1.81-.36.54a5.77,5.77,0,0,1-1.36,1.45h-.27l.36-.45a6,6,0,0,0,.45-.9l.27-.54.54-1.36a1.44,1.44,0,0,0,.09-.36l.27-1.08a5.86,5.86,0,0,1,.18-.81,15.75,15.75,0,0,0,.36-1.81c-.06.48-.06.39,0-.27a18,18,0,0,0,.27-2.26,10.06,10.06,0,0,0,.09-1.54v-6q-.09-1.08-.18-2Zm5.51,6.69a9.64,9.64,0,0,0,1.72.72v.27l-.54.72v1.9h2l.72-.9h.27l1.45,1.36-.54.81v5.79l-.36.36-.54.54a1.33,1.33,0,0,1-.63.36.72.72,0,0,0-.27.09.7.7,0,0,1-.27.09l-.18-.27a1,1,0,0,1-.18-.36l-.27-.27a4,4,0,0,0-1.17-.72v3.62h-1.81l.18-10h-1.72V130H273l.09-2.8v-.45q.18-2.89.18-5.87l.18.09.09.09a10.86,10.86,0,0,1,1.36.72h1.72V118Zm3.44-4.79h-7.32v3.35h7.32Zm0,8.86H278.2v6.05H280l.45-.45Zm4.52-7.41a2.76,2.76,0,0,0,.54.18q.63.27,1.18.54v.27l-.54.72v10.3l-.54.27q-.27.09-.9.36a.79.79,0,0,0-.36.09v-2.17q.09-1.08.09-2.26.09-1.63.09-3.34v-5.24Zm3.8-3.34a11.84,11.84,0,0,1,2.08.9v.27l-.54.72v17.72l-.36.36a5.88,5.88,0,0,0-.63.54l-.54.54-.54.27a.26.26,0,0,1-.18.09,2.62,2.62,0,0,1-.63.09l-.27-.45a1.37,1.37,0,0,0-.72-.81,5.81,5.81,0,0,0-1.9-.9v-.18l.81.09c.54.06.9.09,1.08.09a3.88,3.88,0,0,0,.72-.09,1.39,1.39,0,0,0,.72-.27,1,1,0,0,0,.36-.18,83.12,83.12,0,0,0,.18-8.59q0-7.86-.27-10.48Z"/><path class="cls-2" d="M295.2,113.13l.18,1.27h15.09l.09-.18q-.09-.09.72-1.09h.27l2.44,2.44v.27l-.36-.18a2.45,2.45,0,0,0-.54-.09,2.09,2.09,0,0,0-.81.27l-.36.09a3.08,3.08,0,0,0-.9.45,11.44,11.44,0,0,1-.91.72,9,9,0,0,0-.72.63h-.27l1.18-2.71H295.38v.72a6.38,6.38,0,0,1-.45,2.26l-.54.18a2,2,0,0,1-1.17.27l-.45-.45v-.72l.36-.54a4.74,4.74,0,0,1,.72-.9c.18-.36.36-.69.54-1a8.29,8.29,0,0,0,.45-1.45c0,.06,0,0,.09-.27Zm12.75,4.34,1.72,2v.18l-.54.18a5.24,5.24,0,0,0-1.17.36,3.28,3.28,0,0,0-1.45.72,12.1,12.1,0,0,0-1.27.81q-.36.27-.63.45l.18.18v.18l-.45.72V124h6.24l1.45-1.63h.27l.36.36.63.54c.36.3.66.54.9.72v.72h-9.85v7.14l-.72.45-.36.27a2.06,2.06,0,0,1-.9.36,2.63,2.63,0,0,1-.63.09l-.27-.63a2.69,2.69,0,0,0-.72-.9,6.61,6.61,0,0,0-1.9-.81v-.27l1.08.09a2.67,2.67,0,0,1,.63.09,4.71,4.71,0,0,0,.9.09,2.77,2.77,0,0,0,1-.27V124.7h-8.95l-.72-.72h9.67v-.36q0-.09-.09-.63c-.06-.66-.12-1.3-.18-1.9l.54.27c.18.06.24.09.18.09a6.75,6.75,0,0,1,1.18.54l.36-.45q.18-.18.72-.81l1.17-1.36h-9.67a.68.68,0,0,1-.27.09l-.72-.72h11v-.18q-.18.09,1-1.08ZM301.08,111h.18l.54.18q.63.09.18,0a3.92,3.92,0,0,1,1,.36,2.87,2.87,0,0,1,1.36.9v.36a1.11,1.11,0,0,1-.18.63q0,.18-.81.72h-.27c-.18.06-.39,0-.63-.27l-.18-.36a2,2,0,0,0-.36-.81A17,17,0,0,0,301,111Z"/><path class="cls-2" d="M319.88,111l.45.27q1,.54,2.08,1.17v.27l-.36.27c-.3.12-.63.6-1,1.45q-.18.36-.54,1.18a15.79,15.79,0,0,0-.72,1.45l.9.45v.27l-.54.72v14.37h-1.81l.09-6.15q.09-4.43.09-7.5l-.36.63a5.49,5.49,0,0,0-.54.72l-.54.81a17.13,17.13,0,0,1-1.9,2.17h-.27l.27-.45.81-1.63q.54-1.08,1.09-2,.18-.36.54-1.18a6,6,0,0,1,.45-.9l.27-.81a6.06,6.06,0,0,0,.45-1.08,5.58,5.58,0,0,0,.18-.81c.12-.42.21-.72.27-.9a13.31,13.31,0,0,0,.45-2.17,3.77,3.77,0,0,0,.09-.63Zm8.68.54a10.31,10.31,0,0,1,1.81.72v.18l-.54.72v4.16h4.43l1.17-1.45h.27l1.63,1.45v.63h-6.87l.18.54c.12.3.3.69.54,1.17a6.8,6.8,0,0,1,.81,1.63q.54.81,1.09,1.54l.63.63a8.47,8.47,0,0,0,.63.72,7.22,7.22,0,0,0,1.08.9,4.56,4.56,0,0,0,.81.54,1.07,1.07,0,0,1,.27.18,3.82,3.82,0,0,1,.54.36,9.35,9.35,0,0,1,.81.54v.18l-.54.18a3.62,3.62,0,0,0-1.45.81h-.18l-.72-.63a5.47,5.47,0,0,1-1.36-1.27c-.42-.54-.78-1-1.08-1.36a13.78,13.78,0,0,1-1.54-3,5.57,5.57,0,0,1-.36-1.09c-.12-.3-.21-.51-.27-.63a12.69,12.69,0,0,1-.45-2h-.09v9.49h1.72l1-1.27h.27l1.45,1.27V128h-4.43l.09,4.52h-2L328,128h-3.71a.26.26,0,0,1-.18.09l-.72-.72H328l.18-9.49h-.36l-.18.54a6.1,6.1,0,0,0-.54,1.54,12.87,12.87,0,0,1-.9,2.08,14.94,14.94,0,0,1-1.18,2.08,18.69,18.69,0,0,1-3.52,3.89,5.1,5.1,0,0,1-.81.81h-.18l.54-.9q.54-.81,1.36-1.81c.48-.66.9-1.3,1.26-1.9a8.84,8.84,0,0,0,1.08-1.9,13,13,0,0,0,.72-1.54,3.84,3.84,0,0,1,.18-.45q.18-.72.81-2.44h-4.07a.7.7,0,0,1-.27.09l-.72-.72h6.78v-2.17a36.87,36.87,0,0,0-.27-3.89Z"/><line class="cls-1" x1="357.82" y1="37.87" x2="696.8" y2="37.87"/><line class="cls-1" x1="402.54" y1="37.7" x2="402.54" y2="22.56"/><line class="cls-1" x1="357.82" y1="94.26" x2="696.8" y2="94.26"/><line class="cls-1" x1="418.7" y1="94.09" x2="418.7" y2="78.95"/><line class="cls-1" x1="357.82" y1="150.64" x2="696.8" y2="150.64"/><line class="cls-1" x1="402.54" y1="150.47" x2="402.54" y2="135.33"/><path class="cls-2" d="M359.36,84.85l-.91,0v-.42l.88,0h3.49l.88,0v.42c-.2,0-.49,0-.88,0h-2a9.29,9.29,0,0,1,0,.93h2.16a5.61,5.61,0,0,0-.12.84L362.66,88c0,.33-.18.52-.4.58a6.48,6.48,0,0,1-.84.16,2,2,0,0,0-.23-.58c.28,0,.5,0,.68,0s.28-.14.33-.37l.14-1.61h-1.65a3.35,3.35,0,0,1-.94,2,5.68,5.68,0,0,1-.69.56,1.13,1.13,0,0,0-.44-.39,3.44,3.44,0,0,0,.7-.49,2.65,2.65,0,0,0,.52-.7,3.51,3.51,0,0,0,.33-1,7.27,7.27,0,0,0,.1-1.3Zm2.12-.6a4.85,4.85,0,0,0-.53.16,6.3,6.3,0,0,0-.26-.81,3.86,3.86,0,0,0,.51-.16Q361.34,83.78,361.47,84.25Z"/><path class="cls-2" d="M364.82,84l.77,0h2.88l.79,0v.44l-.79,0h-1.12v1.4h1l.65,0v.44l-.65,0h-1V88h1.3l1,0v.44l-1,0h-3.51l-.74,0V88l.74,0h.14V86q0-.4,0-.7h.51c0,.19,0,.42,0,.7v2h1.12V84.41h-1.3l-.77,0Z"/><path class="cls-2" d="M371,83.76h4.09c0,.31,0,.64,0,1s0,.68,0,1h-1.84v.46h1l.77,0v.42l-.74,0h-1.07v.49h1.54a7.12,7.12,0,0,0,.79,0v.44l-.79,0h-3.46l-.86,0V87q.49,0,.84,0h1.51v-.49h-1l-.77,0v-.42l.77,0h1v-.46H371c0-.31,0-.63,0-1S371,84.09,371,83.76Zm0,3.88.46.16a1.75,1.75,0,0,0-.21.42,6.28,6.28,0,0,1-.26.58l-.44-.19a3,3,0,0,0,.24-.44A4.47,4.47,0,0,0,370.94,87.64Zm.49-3.51v1.23h1.35V84.13Zm.35.37a3.64,3.64,0,0,0,.44-.12c.08.28.14.49.19.63l-.46.14A5.26,5.26,0,0,0,371.78,84.5Zm.28,3.35.44-.07c.06.34.11.63.14.86a1.94,1.94,0,0,0-.44.07A4.18,4.18,0,0,0,372.06,87.85Zm1.16-3.72v1.23h1.37V84.13Zm0,3.68.44-.09q.09.37.23.84l-.47.09A4.63,4.63,0,0,0,373.27,87.81Zm.54-3.44.49.16a1.18,1.18,0,0,0-.16.28l-.14.35-.42-.12A3.13,3.13,0,0,0,373.8,84.36Zm.72,3.47a4.08,4.08,0,0,0,.44-.16q.23.53.39.86l-.46.19A4.19,4.19,0,0,0,374.52,87.83Z"/><path class="cls-2" d="M377.29,83.46l.54.21a4.38,4.38,0,0,0-.44,1v3c0,.48,0,.83,0,1h-.46c0-.2,0-.54,0-1V85.53a7,7,0,0,1-.47.79,1,1,0,0,0-.32-.35,4,4,0,0,0,.65-1.11A5.7,5.7,0,0,0,377.29,83.46Zm.51,1.16.65,0h.91c0-.56,0-1,0-1.19h.46c0,.22,0,.61,0,1.19h1c.31,0,.54,0,.68,0V85a6.52,6.52,0,0,0-.65,0h-.7a3.64,3.64,0,0,0,1.58,2.37.84.84,0,0,0-.37.4A4.16,4.16,0,0,1,379.78,85v2.28c.39,0,.65,0,.79,0v.42c-.14,0-.4,0-.79,0,0,.31,0,.67,0,1.07h-.46c0-.42,0-.78,0-1.07l-.79,0V87.3l.79,0V85h0a5.08,5.08,0,0,1-1.47,2.84.92.92,0,0,0-.39-.32A4.07,4.07,0,0,0,378.92,85h-.46l-.65,0Z"/><path class="cls-2" d="M384.32,83.88l.56,0v.4l-.81,0,.19.51a2.44,2.44,0,0,0-.44.16,6.24,6.24,0,0,0-.16-.67h-.26a3.51,3.51,0,0,1-.39.49l-.37.35a1.46,1.46,0,0,0-.42-.32A2.53,2.53,0,0,0,383,84a3.5,3.5,0,0,0,.36-.66,5.73,5.73,0,0,0,.56.19,2.38,2.38,0,0,0-.28.35ZM383.11,88c0,.11,0,.36,0,.74h-.46c0-.36,0-.64,0-.86V86.46q0-.33,0-.65h.49a5,5,0,0,0,0,.67Zm0-2.74a2.88,2.88,0,0,1,.4-.21,6.32,6.32,0,0,1,.37.72,1.85,1.85,0,0,0-.39.21A4.46,4.46,0,0,0,383.15,85.27Zm2.72.86c0,.16,0,.32,0,.49v1c0,.14,0,.29,0,.46h-2.09c0-.19,0-.37,0-.54V86.6a4.23,4.23,0,0,0,0-.46Zm-1.67-1,.68,0h2.19q0,.67,0,.79v2.16c0,.29-.09.47-.27.52a3.86,3.86,0,0,1-.61.13c0-.17-.1-.34-.17-.51a1.55,1.55,0,0,0,.56,0s.07-.12.07-.26V85.58h-1.7l-.7,0Zm0,1.28v.44h1.26v-.44Zm0,.77v.51h1.26v-.51Zm2.33-3a4.45,4.45,0,0,0,.23.54l-.44.19c0-.2-.11-.44-.18-.72h-.44c-.2.25-.36.44-.46.56l-.42-.23a3.13,3.13,0,0,0,.49-.56,3.73,3.73,0,0,0,.35-.67l.51.16a1.18,1.18,0,0,0-.26.39h.86l.63,0v.39Z"/><path class="cls-2" d="M389.2,83.46a5.74,5.74,0,0,0,.54.21,4.36,4.36,0,0,0-.44,1v3c0,.48,0,.83,0,1h-.46c0-.2,0-.54,0-1V85.53a6.91,6.91,0,0,1-.46.79,1,1,0,0,0-.33-.35,4,4,0,0,0,.65-1.11A5.81,5.81,0,0,0,389.2,83.46Zm.51,1.16.65,0h.91c0-.56,0-1,0-1.19h.47c0,.22,0,.61,0,1.19h1q.47,0,.67,0V85a6.45,6.45,0,0,0-.65,0H392a3.65,3.65,0,0,0,1.58,2.37.83.83,0,0,0-.37.4A4.16,4.16,0,0,1,391.69,85v2.28c.39,0,.65,0,.79,0v.42c-.14,0-.4,0-.79,0,0,.31,0,.67,0,1.07h-.47c0-.42,0-.78,0-1.07l-.79,0V87.3l.79,0V85h0a5.05,5.05,0,0,1-1.46,2.84.91.91,0,0,0-.39-.32A4.07,4.07,0,0,0,390.83,85h-.46l-.65,0Z"/><path class="cls-2" d="M397.68,87.43a2.06,2.06,0,0,1-.42-1.16,2.09,2.09,0,0,1,.29-1.29,3.05,3.05,0,0,1,.83-.91c.32-.22.48-.32.49-.28s-.1.15-.31.33a3.29,3.29,0,0,0-.64.76,2.27,2.27,0,0,0-.31,1.26,2.07,2.07,0,0,0,.3,1.2,3.31,3.31,0,0,0,.66.71c.24.19.35.3.31.33s-.18,0-.44-.22A3.64,3.64,0,0,1,397.68,87.43Z"/><path class="cls-2" d="M400.74,83.76h4.09c0,.31,0,.64,0,1s0,.68,0,1H403v.46h1l.77,0v.42l-.74,0H403v.49h1.54a7.12,7.12,0,0,0,.79,0v.44l-.79,0h-3.47l-.86,0V87q.49,0,.84,0h1.51v-.49h-1l-.77,0v-.42l.77,0h1v-.46h-1.81c0-.31,0-.63,0-1S400.75,84.09,400.74,83.76Zm0,3.88.46.16a1.62,1.62,0,0,0-.21.42c-.08.2-.16.4-.26.58l-.44-.19a2.87,2.87,0,0,0,.24-.44A4.46,4.46,0,0,0,400.71,87.64Zm.49-3.51v1.23h1.35V84.13Zm.35.37a3.68,3.68,0,0,0,.44-.12c.08.28.14.49.19.63l-.46.14A4.52,4.52,0,0,0,401.55,84.5Zm.28,3.35.44-.07c.06.34.11.63.14.86a1.92,1.92,0,0,0-.44.07A4.32,4.32,0,0,0,401.83,87.85ZM403,84.13v1.23h1.37V84.13Zm0,3.68.44-.09c.06.25.14.53.23.84l-.46.09A4.79,4.79,0,0,0,403,87.81Zm.53-3.44.49.16a1.18,1.18,0,0,0-.16.28l-.14.35-.42-.12A3,3,0,0,0,403.57,84.36Zm.72,3.47.44-.16c.15.36.29.64.39.86l-.46.19A4.08,4.08,0,0,0,404.3,87.83Z"/><path class="cls-2" d="M407.06,83.46a5.74,5.74,0,0,0,.54.21,4.44,4.44,0,0,0-.44,1v3c0,.48,0,.83,0,1h-.46c0-.2,0-.54,0-1V85.53a6.63,6.63,0,0,1-.46.79,1,1,0,0,0-.33-.35,4,4,0,0,0,.65-1.11A5.79,5.79,0,0,0,407.06,83.46Zm.51,1.16.65,0h.91c0-.56,0-1,0-1.19h.46c0,.22,0,.61,0,1.19h1c.31,0,.54,0,.68,0V85a6.52,6.52,0,0,0-.65,0h-.7a3.64,3.64,0,0,0,1.58,2.37.84.84,0,0,0-.37.4A4.16,4.16,0,0,1,409.55,85v2.28c.39,0,.65,0,.79,0v.42c-.14,0-.4,0-.79,0,0,.31,0,.67,0,1.07h-.46c0-.42,0-.78,0-1.07l-.79,0V87.3l.79,0V85h0a5.08,5.08,0,0,1-1.46,2.84.92.92,0,0,0-.4-.32A4.08,4.08,0,0,0,408.69,85h-.47l-.65,0Z"/><path class="cls-2" d="M412.89,88.08a3,3,0,0,0,.7-.79A2,2,0,0,0,413.9,86a2.42,2.42,0,0,0-.36-1.2,3.46,3.46,0,0,0-.65-.76c-.22-.19-.33-.3-.33-.34s.16,0,.44.23a3.55,3.55,0,0,1,.85.86,2.14,2.14,0,0,1,.41,1.34,2,2,0,0,1-.4,1.26,3,3,0,0,1-.84.76c-.3.18-.46.25-.47.21S412.67,88.24,412.89,88.08Z"/><path class="cls-2" d="M423.5,85.55l.65,0h.51c0,.28,0,.56,0,.84v1.28a3,3,0,0,0,1.9.52,11.06,11.06,0,0,0,2.31-.15,1.17,1.17,0,0,0-.19.56q-1,0-1.6,0a8.6,8.6,0,0,1-1-.07,4,4,0,0,1-.7-.15,3,3,0,0,1-.56-.26.34.34,0,0,0-.49.09,4.11,4.11,0,0,0-.37.54l-.44-.3a5.06,5.06,0,0,1,.77-.7V85.95l-.72,0Zm.28-1.56a1.19,1.19,0,0,0,.35-.23,4.36,4.36,0,0,1,.61.84,1.26,1.26,0,0,0-.37.26A3.09,3.09,0,0,0,423.78,84Zm4.28-.56a3.55,3.55,0,0,0,.28.49c-.21,0-.65,0-1.3.12v.84c.85,0,1.39,0,1.63,0v.42c-.23,0-.77,0-1.63,0v.67h1.23c0,.37,0,.68,0,.92s0,.55,0,.94h-.44V87.5h-2v.3h-.44c0-.37,0-.69,0-.94s0-.57,0-.94h1.19v-.67q-1.3,0-1.67,0v-.42q.37,0,1.67,0v-.77a11.16,11.16,0,0,0-1.16.14c-.06-.16-.12-.3-.19-.44.54,0,1,0,1.42-.09A9.53,9.53,0,0,0,428.06,83.43Zm-2.19,2.86v.84h2V86.3Z"/><path class="cls-2" d="M429.92,88.81a2.19,2.19,0,0,0-.46-.26,2.21,2.21,0,0,0,.44-.78,4.26,4.26,0,0,0,.19-.89c0-.31,0-.82,0-1.53s0-1.27,0-1.71h4.16q0,.7,0,1.21V88c0,.33-.07.53-.27.61a2.77,2.77,0,0,1-.64.16,2,2,0,0,0-.19-.56,1.19,1.19,0,0,0,.54,0,.35.35,0,0,0,.09-.22V86.76h-1.42v.91c0,.36,0,.66,0,.91h-.51q0-.37,0-.88v-.93h-1.33a5.1,5.1,0,0,1-.15.88,4.32,4.32,0,0,1-.22.63A5.44,5.44,0,0,1,429.92,88.81Zm.65-4.79v1h1.33V84Zm0,1.39v1h1.33v-1ZM432.36,84v1h1.42V84Zm0,1.39v1h1.42v-1Z"/><path class="cls-2" d="M437.08,88.09l.54,0c.13,0,.19-.08.19-.23V86.09h-1.49c-.29,0-.55,0-.77,0v-.44l.77,0h1.49V84.13h-1l-.68,0v-.44l.68,0h2.44l.74,0v.44l-.74,0h-.93v1.56h1.39l.86,0v.44c-.23,0-.52,0-.86,0h-1.39v2c0,.26-.09.42-.27.48a3.05,3.05,0,0,1-.71.1A1.42,1.42,0,0,0,437.08,88.09Z"/><path class="cls-2" d="M442.32,84.95a2.38,2.38,0,0,0,.58.16c-.17.36-.35.76-.52,1.21s-.34.82-.48,1.12a1.54,1.54,0,0,0-.49-.23,6.71,6.71,0,0,0,.64-1.3A5.62,5.62,0,0,0,442.32,84.95Zm1.42-1.37h.56a6.12,6.12,0,0,0,0,.84V88c0,.28-.08.46-.23.54a2.25,2.25,0,0,1-.74.16,1.88,1.88,0,0,0-.21-.56,2.93,2.93,0,0,0,.58,0c.08,0,.12-.11.12-.28V84.41C443.76,84.15,443.75,83.87,443.74,83.57ZM445,85.18a1.81,1.81,0,0,0,.44-.26c.2.33.41.69.63,1.08s.4.77.56,1.13a1.77,1.77,0,0,0-.54.23,10.88,10.88,0,0,0-.51-1.18A10.69,10.69,0,0,0,445,85.18Z"/><path class="cls-2" d="M447.29,84.67a4.29,4.29,0,0,0,.79,0v-.56c0-.25,0-.49,0-.72h.49a5.4,5.4,0,0,0,0,.72v.56l.84,0v.46c-.31,0-.59,0-.84,0v1a3.51,3.51,0,0,0,.37-.23c.17.25.35.52.54.81a2.53,2.53,0,0,0-.44.26,4.5,4.5,0,0,0-.46-.84v1.7c0,.32,0,.65,0,1h-.47c0-.34,0-.67,0-1V86.23a7.36,7.36,0,0,1-.56,1.26,1.35,1.35,0,0,0-.32-.42,3.32,3.32,0,0,0,.51-.92,6.09,6.09,0,0,0,.3-1.06,5.45,5.45,0,0,0-.72,0Zm2.51,1.63a3.49,3.49,0,0,0,.51.19,2.79,2.79,0,0,0-.36.73c-.16.41-.31.76-.45,1A3.21,3.21,0,0,0,449,88a4.55,4.55,0,0,0,.48-.87A5.76,5.76,0,0,0,449.81,86.3Zm-.44-1,.77,0h1.65l.72,0v.44l-.72,0H451v2.42c0,.28-.07.45-.2.5a4.32,4.32,0,0,1-.64.17,2,2,0,0,0-.19-.56,1.72,1.72,0,0,0,.49,0c.08,0,.12-.11.12-.27V85.67h-.49a4.85,4.85,0,0,0-.77,0Zm.25-1.46.72,0h1.14l.65,0v.46a4.23,4.23,0,0,0-.65,0h-1.14a5.43,5.43,0,0,0-.72,0Zm1.68,2.77a2.37,2.37,0,0,0,.39-.28q.56.74,1,1.37a2.1,2.1,0,0,0-.44.3A11.17,11.17,0,0,0,451.3,86.55Z"/><path class="cls-2" d="M453.32,86l.65,0h1.12l.65,0v.39l-.86,0v.58l.72,0v.39l-.72,0V88a5.68,5.68,0,0,0,1.86.23,14.87,14.87,0,0,0,1.84-.14,1.85,1.85,0,0,0-.12.54q-.88,0-1.55,0a10.68,10.68,0,0,1-1.21-.08,4.3,4.3,0,0,1-1-.23,3.35,3.35,0,0,1-.87-.51c-.08.31-.17.62-.28.93a1.1,1.1,0,0,0-.39-.21,4.48,4.48,0,0,0,.28-.91c0-.26.09-.56.12-.91a2.17,2.17,0,0,0,.44.09,2.75,2.75,0,0,0-.12.6,2.56,2.56,0,0,0,.58.4V86.36c-.54,0-.93,0-1.16,0Zm.26-2.26h1.93c0,.32,0,.65,0,1s0,.64,0,1h-1.93c0-.34,0-.67,0-1S453.59,84,453.58,83.74Zm.42.35v.44h1.09v-.44Zm0,.79v.44h1.09v-.44Zm2.88.58a3.38,3.38,0,0,0,.49.07,4.81,4.81,0,0,0-.06.58,3.81,3.81,0,0,1-.08.6,2.11,2.11,0,0,1-.3.69,2.9,2.9,0,0,1-.75.73.86.86,0,0,0-.37-.35,2,2,0,0,0,.67-.49,1.84,1.84,0,0,0,.31-.55,1.8,1.8,0,0,0,.11-.62Q456.9,85.81,456.88,85.46Zm-1-1.74.77,0h1.09l.7,0v.39c-.26,0-.65,0-1.16,0l-.09.67h1c0,.23,0,.58,0,1s0,.82,0,1.1h-.42V85.11h-1.32v2H456q0-.44,0-1.2c0-.5,0-.87,0-1.1h.72c0-.22.06-.44.09-.67l-1,0Zm1.37,3.67a1,1,0,0,0,.26-.32,6.05,6.05,0,0,1,.79.58A1.08,1.08,0,0,0,458,88,5.51,5.51,0,0,0,457.21,87.39Z"/><path class="cls-2" d="M459.58,86.95a2.82,2.82,0,0,1,.82.29,1.93,1.93,0,0,1,.42.31.69.69,0,0,1,.16.37.37.37,0,0,1-.14.37c-.12.09-.24,0-.38-.36a2.1,2.1,0,0,0-.91-.92Z"/><path class="cls-2" d="M467.58,84.55c0-.39,0-.78,0-1.16h.51c0,.36,0,.74,0,1.16H470c0,.31,0,.74,0,1.28s0,1,0,1.3h-.49v-.4H468v1c0,.22,0,.52,0,.91h-.53c0-.34,0-.64,0-.91v-1h-1.39v.42h-.49q0-.46,0-1.33c0-.57,0-1,0-1.28Zm-1.39.37v1.44h1.39V84.92Zm1.86,0v1.44h1.42V84.92Z"/><path class="cls-2" d="M471.12,84.67a4.26,4.26,0,0,0,.79,0v-.56q0-.37,0-.72h.49a5.07,5.07,0,0,0,0,.72v.56l.84,0v.46c-.31,0-.59,0-.84,0v1a3.34,3.34,0,0,0,.37-.23c.17.25.35.52.54.81a2.45,2.45,0,0,0-.44.26,4.3,4.3,0,0,0-.47-.84v1.7c0,.32,0,.65,0,1h-.47c0-.34,0-.67,0-1V86.23a7.35,7.35,0,0,1-.56,1.26,1.39,1.39,0,0,0-.33-.42,3.37,3.37,0,0,0,.51-.92,6.08,6.08,0,0,0,.3-1.06,5.4,5.4,0,0,0-.72,0Zm2.51,1.63a3.49,3.49,0,0,0,.51.19,2.79,2.79,0,0,0-.36.73c-.16.41-.31.76-.45,1a3.23,3.23,0,0,0-.47-.21,4.26,4.26,0,0,0,.48-.87A5.79,5.79,0,0,0,473.63,86.3Zm-.44-1,.77,0h1.65l.72,0v.44l-.72,0h-.74v2.42c0,.28-.07.45-.2.5a4.21,4.21,0,0,1-.64.17,2,2,0,0,0-.19-.56,1.72,1.72,0,0,0,.49,0c.08,0,.12-.11.12-.27V85.67H474a4.9,4.9,0,0,0-.77,0Zm.26-1.46.72,0h1.14l.65,0v.46a4.27,4.27,0,0,0-.65,0h-1.14a5.44,5.44,0,0,0-.72,0Zm1.68,2.77a2.38,2.38,0,0,0,.39-.28c.37.5.69,1,1,1.37a2.14,2.14,0,0,0-.44.3A11.19,11.19,0,0,0,475.12,86.55Z"/><path class="cls-2" d="M477.14,86l.65,0h1.12l.65,0v.39l-.86,0v.58l.72,0v.39l-.72,0V88a5.67,5.67,0,0,0,1.86.23,14.87,14.87,0,0,0,1.84-.14,1.85,1.85,0,0,0-.12.54q-.88,0-1.55,0a10.58,10.58,0,0,1-1.21-.08,4.28,4.28,0,0,1-1-.23,3.37,3.37,0,0,1-.87-.51c-.08.31-.17.62-.28.93a1.09,1.09,0,0,0-.4-.21,4.5,4.5,0,0,0,.28-.91c0-.26.09-.56.12-.91a2.14,2.14,0,0,0,.44.09,2.77,2.77,0,0,0-.12.6,2.56,2.56,0,0,0,.58.4V86.36c-.54,0-.93,0-1.16,0Zm.26-2.26h1.93c0,.32,0,.65,0,1s0,.64,0,1h-1.93c0-.34,0-.67,0-1S477.41,84,477.39,83.74Zm.42.35v.44h1.09v-.44Zm0,.79v.44h1.09v-.44Zm2.88.58a3.37,3.37,0,0,0,.49.07,5.76,5.76,0,0,0-.06.58,3.39,3.39,0,0,1-.08.6,2.07,2.07,0,0,1-.3.69,3,3,0,0,1-.74.73.88.88,0,0,0-.37-.35,2.09,2.09,0,0,0,.68-.49,1.83,1.83,0,0,0,.31-.55,1.8,1.8,0,0,0,.11-.62Q480.72,85.81,480.7,85.46Zm-1-1.74.77,0h1.09l.7,0v.39c-.26,0-.65,0-1.16,0,0,.23-.06.46-.09.67h1c0,.23,0,.58,0,1s0,.82,0,1.1h-.42V85.11h-1.33v2h-.42c0-.29,0-.7,0-1.2s0-.87,0-1.1h.72l.09-.67-1,0ZM481,87.39a1,1,0,0,0,.25-.32,5.68,5.68,0,0,1,.79.58,1,1,0,0,0-.25.33A5.51,5.51,0,0,0,481,87.39Z"/><path class="cls-2" d="M483.12,84.09l.79,0h.79c0-.19,0-.41,0-.67h.49c0,.22,0,.44,0,.67h1.07c0-.26,0-.49,0-.67h.49c0,.19,0,.41,0,.67h.84l.79,0v.42l-.79,0h-.84c0,.2,0,.4,0,.61h-.46v-.61h-1.07v.63h-.46c0-.2,0-.41,0-.63h-.79l-.79,0Zm0,2.23.32-.35,1,.63a1.24,1.24,0,0,0-.32.37A6.47,6.47,0,0,0,483.12,86.32Zm1.44.67a3.22,3.22,0,0,0,.3.35l-.63.75a3.61,3.61,0,0,0-.46.66,5.32,5.32,0,0,0-.51-.39,3.42,3.42,0,0,0,.7-.62A5.26,5.26,0,0,0,484.56,87Zm-.91-1.67L484,85a9.39,9.39,0,0,1,.86.7,1.74,1.74,0,0,0-.37.33A4.32,4.32,0,0,0,483.65,85.32Zm4,0c0,.23-.05.52-.07.86s0,.59-.06.73a.34.34,0,0,1-.23.29,5.21,5.21,0,0,1-.71.16.94.94,0,0,0-.23-.44,3,3,0,0,0,.63-.07c.09,0,.15-.12.16-.26l0-.91h-1.3v2.26c0,.17.13.26.37.26h1.19a.34.34,0,0,0,.27-.09,1.07,1.07,0,0,0,.13-.49,1.3,1.3,0,0,0,.44.23,1.32,1.32,0,0,1-.28.61.64.64,0,0,1-.42.12H486c-.39,0-.58-.13-.58-.4V86.34c0-.39,0-.73,0-1Z"/><path class="cls-2" d="M489.14,83.92h2.07c0,.34,0,.66,0,1v2c0,.26,0,.58,0,1h-.4v-.26h-1.23v.77h-.42c0-.39,0-.79,0-1.21V84.88C489.16,84.55,489.16,84.23,489.14,83.92Zm.42.35v1.26H490V84.27Zm0,1.61v1.35H490V85.88Zm.84-1.61v1.26h.39V84.27Zm0,1.61v1.35h.39V85.88Zm1-1.82a2.74,2.74,0,0,0,.54,0h.42a3.52,3.52,0,0,0,0-.72l.54.07a3.47,3.47,0,0,0-.12.65h.67a3.09,3.09,0,0,0,.51,0v.42l-.51,0h-.72l0,.44h.56l.58,0v.4l-.56,0h-.65c0,.17-.06.33-.09.46q1.37,0,1.7,0v.39l-.65,0v.68a4.34,4.34,0,0,0,.7,0v.42c-.19,0-.42,0-.7,0v1c0,.33-.07.52-.21.58a3.48,3.48,0,0,1-.7.19,1.48,1.48,0,0,0-.19-.51,2.13,2.13,0,0,0,.55,0c.1,0,.15-.14.15-.33v-.84h-1.07c-.12.26-.24.49-.35.68a5.37,5.37,0,0,1-.49.67,2.37,2.37,0,0,0-.39-.28,2.91,2.91,0,0,0,.52-.57,4.16,4.16,0,0,0,.35-.63,5.52,5.52,0,0,0,.29-.9l-.7,0v-.39l.79,0c0-.14.06-.3.09-.46l-.72,0v-.4l.77,0a2.35,2.35,0,0,0,0-.44h-.4l-.54,0Zm.65,3.35a1.58,1.58,0,0,0,.42-.09c.06.2.12.4.16.58a2.63,2.63,0,0,1-.44.09A3.56,3.56,0,0,0,492,87.41Zm.4-1.35a6.64,6.64,0,0,1-.19.68h.93v-.68Z"/><path class="cls-2" d="M359.36,141.22l-.91,0v-.42l.88,0h3.49l.88,0v.42c-.2,0-.49,0-.88,0h-2a9.28,9.28,0,0,1,0,.93h2.16a5.6,5.6,0,0,0-.12.84l-.12,1.37c0,.33-.18.52-.4.58a6.14,6.14,0,0,1-.84.16,2,2,0,0,0-.23-.58l.68,0c.17,0,.28-.14.33-.37l.14-1.61h-1.65a3.35,3.35,0,0,1-.94,2,5.67,5.67,0,0,1-.69.56,1.13,1.13,0,0,0-.44-.39,3.45,3.45,0,0,0,.7-.49,2.57,2.57,0,0,0,.52-.7,3.46,3.46,0,0,0,.33-1,7.27,7.27,0,0,0,.1-1.3Zm2.12-.6a5.3,5.3,0,0,0-.53.16,6.39,6.39,0,0,0-.26-.81,3.86,3.86,0,0,0,.51-.16Q361.34,140.15,361.47,140.61Z"/><path class="cls-2" d="M364.82,140.36l.77,0h2.88l.79,0v.44l-.79,0h-1.12v1.39h1l.65,0v.44l-.65,0h-1v1.79h1.3l1,0v.44l-1,0h-3.51c-.3,0-.54,0-.74,0v-.44l.74,0h.14v-2q0-.4,0-.7h.51c0,.19,0,.42,0,.7v2h1.12v-3.58h-1.3l-.77,0Z"/><path class="cls-2" d="M370.64,141.34l.86,0h1.23c0-.5,0-.84,0-1s0-.37,0-.54l.61.07a2.86,2.86,0,0,0-.09.66q0,.43,0,.83h1.3l.91,0v.49l-.91,0H373.2a2.79,2.79,0,0,0,.21.88,2.52,2.52,0,0,0,.48.71,4.84,4.84,0,0,0,.72.63,4.12,4.12,0,0,0,.89.48,1.6,1.6,0,0,0-.42.54,6.93,6.93,0,0,1-.66-.46,4.44,4.44,0,0,1-.57-.52,4.19,4.19,0,0,1-.48-.63,4.85,4.85,0,0,1-.38-.74,6.2,6.2,0,0,1-.37.76,3.34,3.34,0,0,1-.44.58,5.12,5.12,0,0,1-.59.52,7.34,7.34,0,0,1-.83.54,3,3,0,0,0-.39-.49,4.2,4.2,0,0,0,1-.46,3.18,3.18,0,0,0,1.2-1.45,2.68,2.68,0,0,0,.2-.87H371.5l-.86,0Z"/><path class="cls-2" d="M376.92,140.13H381c0,.31,0,.64,0,1s0,.68,0,1h-1.84v.46h1l.77,0V143l-.74,0h-1.07v.49h1.54a7.1,7.1,0,0,0,.79,0v.44l-.79,0h-3.46l-.86,0v-.44c.33,0,.61,0,.84,0h1.51v-.49h-1l-.77,0v-.42l.77,0h1v-.46h-1.81c0-.31,0-.64,0-1S376.93,140.45,376.92,140.13Zm0,3.88.46.16a1.79,1.79,0,0,0-.21.42c-.08.2-.16.39-.26.58l-.44-.19a3.12,3.12,0,0,0,.24-.44A4.56,4.56,0,0,0,376.9,144Zm.49-3.51v1.23h1.35V140.5Zm.35.37a3.63,3.63,0,0,0,.44-.12c.08.28.14.49.19.63l-.46.14A5.22,5.22,0,0,0,377.73,140.87Zm.28,3.35.44-.07c.06.34.11.63.14.86a2,2,0,0,0-.44.07A4.25,4.25,0,0,0,378,144.22Zm1.16-3.72v1.23h1.37V140.5Zm0,3.68.44-.09c.06.25.14.53.23.84l-.46.09A4.82,4.82,0,0,0,379.22,144.17Zm.54-3.44.49.16a1.18,1.18,0,0,0-.16.28l-.14.35-.42-.12A3.18,3.18,0,0,0,379.76,140.73Zm.72,3.47a3.69,3.69,0,0,0,.44-.16c.16.36.29.64.4.86l-.47.19A4.07,4.07,0,0,0,380.48,144.2Z"/><path class="cls-2" d="M383.25,139.82l.54.21a4.3,4.3,0,0,0-.44,1v3c0,.48,0,.83,0,1h-.46c0-.2,0-.54,0-1v-2.19a6.82,6.82,0,0,1-.46.79,1,1,0,0,0-.33-.35,4,4,0,0,0,.65-1.11A5.82,5.82,0,0,0,383.25,139.82Zm.51,1.16.65,0h.91c0-.56,0-1,0-1.19h.46c0,.22,0,.61,0,1.19h1q.47,0,.67,0v.42l-.65,0h-.7a3.65,3.65,0,0,0,1.58,2.37.85.85,0,0,0-.37.4,4.16,4.16,0,0,1-1.56-2.75v2.28q.58,0,.79,0v.42q-.21,0-.79,0c0,.31,0,.67,0,1.07h-.46c0-.42,0-.78,0-1.07l-.79,0v-.42l.79,0v-2.3h0a5.09,5.09,0,0,1-1.46,2.84.9.9,0,0,0-.4-.33,4.06,4.06,0,0,0,1.44-2.51h-.47l-.65,0Z"/><path class="cls-2" d="M390.27,140.24l.56,0v.4l-.81,0,.19.51a2.47,2.47,0,0,0-.44.16,5.43,5.43,0,0,0-.16-.67h-.26a3.4,3.4,0,0,1-.39.49l-.37.35a1.49,1.49,0,0,0-.42-.33,2.52,2.52,0,0,0,.78-.73,3.35,3.35,0,0,0,.36-.66c.16.06.34.13.56.19a2.25,2.25,0,0,0-.28.35Zm-1.21,4.14c0,.11,0,.36,0,.74h-.46q0-.53,0-.86v-1.44c0-.22,0-.43,0-.65h.49a5.1,5.1,0,0,0,0,.68Zm0-2.74a2.71,2.71,0,0,1,.4-.21,6.41,6.41,0,0,1,.37.72,1.9,1.9,0,0,0-.39.21A4.46,4.46,0,0,0,389.11,141.64Zm2.72.86a4.9,4.9,0,0,0,0,.49v1c0,.14,0,.3,0,.47h-2.09c0-.19,0-.37,0-.54V143c0-.17,0-.32,0-.46Zm-1.68-1,.67,0H393q0,.67,0,.79v2.16c0,.3-.09.47-.27.52a3.83,3.83,0,0,1-.62.13c0-.17-.1-.34-.16-.51a1.6,1.6,0,0,0,.56,0s.07-.12.07-.26v-2.47h-1.7l-.7,0Zm0,1.28v.44h1.26v-.44Zm0,.77v.51h1.26v-.51Zm2.33-3a4.44,4.44,0,0,0,.23.53l-.44.19q-.07-.3-.19-.72h-.44l-.46.56-.42-.23a3.1,3.1,0,0,0,.49-.56,3.94,3.94,0,0,0,.35-.68l.51.16a1.18,1.18,0,0,0-.26.39h.86l.63,0v.4Z"/><path class="cls-2" d="M395.15,139.82l.54.21a4.38,4.38,0,0,0-.44,1v3c0,.48,0,.83,0,1h-.46c0-.2,0-.54,0-1v-2.19a7.21,7.21,0,0,1-.47.79,1,1,0,0,0-.32-.35,4,4,0,0,0,.65-1.11A5.65,5.65,0,0,0,395.15,139.82Zm.51,1.16.65,0h.91c0-.56,0-1,0-1.19h.47c0,.22,0,.61,0,1.19h1c.31,0,.53,0,.67,0v.42l-.65,0H398a3.65,3.65,0,0,0,1.58,2.37.86.86,0,0,0-.37.4,4.17,4.17,0,0,1-1.56-2.75v2.28q.58,0,.79,0v.42q-.21,0-.79,0c0,.31,0,.67,0,1.07h-.47c0-.42,0-.78,0-1.07l-.79,0v-.42l.79,0v-2.3h0a5.08,5.08,0,0,1-1.46,2.84.9.9,0,0,0-.39-.33,4.07,4.07,0,0,0,1.44-2.51h-.46l-.65,0Z"/><path class="cls-2" d="M406.06,141.92l.65,0h.51c0,.28,0,.56,0,.84v1.28a3,3,0,0,0,1.9.52,11.05,11.05,0,0,0,2.31-.15,1.19,1.19,0,0,0-.19.56c-.65,0-1.19,0-1.6,0a8.6,8.6,0,0,1-1-.07,4.16,4.16,0,0,1-.7-.15,2.92,2.92,0,0,1-.56-.26.35.35,0,0,0-.49.09,4.11,4.11,0,0,0-.37.54l-.44-.3a5.16,5.16,0,0,1,.77-.7v-1.84l-.72,0Zm.28-1.56a1.16,1.16,0,0,0,.35-.23,4.27,4.27,0,0,1,.61.84,1.21,1.21,0,0,0-.37.25A3.15,3.15,0,0,0,406.34,140.36Zm4.28-.56a3.57,3.57,0,0,0,.28.49c-.22,0-.65,0-1.3.12v.84c.85,0,1.39,0,1.63,0v.42c-.23,0-.77,0-1.63,0v.67h1.23q0,.56,0,.92c0,.24,0,.55,0,.94h-.44v-.28h-2v.3H408c0-.37,0-.69,0-.94s0-.57,0-.94h1.19v-.67q-1.3,0-1.67,0v-.42q.37,0,1.67,0v-.77a11.21,11.21,0,0,0-1.16.14c-.06-.16-.12-.3-.19-.44.54,0,1,0,1.42-.09A9.52,9.52,0,0,0,410.62,139.8Zm-2.19,2.86v.84h2v-.84Z"/><path class="cls-2" d="M412.48,145.17a2.29,2.29,0,0,0-.46-.26,2.24,2.24,0,0,0,.44-.78,4.38,4.38,0,0,0,.19-.89c0-.31,0-.82,0-1.53s0-1.28,0-1.71h4.16q0,.7,0,1.21v3.12c0,.33-.07.53-.27.61a2.77,2.77,0,0,1-.64.16,1.9,1.9,0,0,0-.19-.56,1.15,1.15,0,0,0,.54,0,.33.33,0,0,0,.09-.22v-1.16h-1.42V144c0,.36,0,.66,0,.91h-.51c0-.25,0-.54,0-.88v-.93h-1.33a4.8,4.8,0,0,1-.15.88,4.38,4.38,0,0,1-.22.63C412.68,144.81,412.59,145,412.48,145.17Zm.65-4.79v1h1.33v-1Zm0,1.4v1h1.33v-1Zm1.79-1.4v1h1.42v-1Zm0,1.4v1h1.42v-1Z"/><path class="cls-2" d="M419.65,144.45l.53,0c.13,0,.19-.08.19-.23v-1.79h-1.49l-.77,0V142l.77,0h1.49V140.5h-1l-.67,0v-.44l.67,0h2.44l.74,0v.44l-.74,0h-.93v1.56h1.4l.86,0v.44l-.86,0h-1.4v2c0,.26-.09.42-.27.48a3.14,3.14,0,0,1-.71.11A1.45,1.45,0,0,0,419.65,144.45Z"/><path class="cls-2" d="M424,142.36l.65,0h1.12l.65,0v.39l-.86,0v.58c.3,0,.54,0,.72,0v.4c-.19,0-.43,0-.72,0v.7a5.67,5.67,0,0,0,1.86.23,14.87,14.87,0,0,0,1.84-.14,1.79,1.79,0,0,0-.12.53c-.59,0-1.11,0-1.55,0a10.64,10.64,0,0,1-1.21-.08,4.27,4.27,0,0,1-1-.23,3.33,3.33,0,0,1-.87-.51c-.08.31-.17.62-.28.93a1.09,1.09,0,0,0-.4-.21,4.47,4.47,0,0,0,.28-.91c0-.26.09-.56.12-.91a2,2,0,0,0,.44.09,2.75,2.75,0,0,0-.12.61,2.73,2.73,0,0,0,.58.39v-1.44c-.54,0-.93,0-1.16,0Zm.26-2.26h1.93c0,.33,0,.65,0,1s0,.64,0,1h-1.93c0-.34,0-.67,0-1S424.25,140.41,424.23,140.1Zm.42.35v.44h1.09v-.44Zm0,.79v.44h1.09v-.44Zm2.88.58a4,4,0,0,0,.49.07,5.22,5.22,0,0,0-.06.58,3.67,3.67,0,0,1-.08.61,2.07,2.07,0,0,1-.3.69,2.9,2.9,0,0,1-.74.73.88.88,0,0,0-.37-.35,2.05,2.05,0,0,0,.67-.49,1.84,1.84,0,0,0,.31-.55,1.8,1.8,0,0,0,.11-.62C427.56,142.28,427.55,142.06,427.53,141.82Zm-1-1.74.77,0h1.09l.7,0v.39c-.26,0-.65,0-1.16,0,0,.23-.06.46-.09.68h1c0,.23,0,.58,0,1s0,.83,0,1.1h-.42v-1.79h-1.33v2h-.42c0-.29,0-.69,0-1.2s0-.87,0-1.1h.72l.09-.68-1,0Zm1.37,3.67a1,1,0,0,0,.25-.33,5.78,5.78,0,0,1,.79.58,1,1,0,0,0-.25.32A5.5,5.5,0,0,0,427.86,143.75Z"/><path class="cls-2" d="M430.72,140.1h3.7c0,.43,0,.85,0,1.26v2.72c0,.23,0,.59,0,1.07H434v-.44h-2.72v.42h-.49c0-.42,0-.75,0-1v-2.77Q430.76,140.68,430.72,140.1Zm.51.35v1H434v-1Zm0,1.37v1.07H434v-1.07Zm0,1.42v1.12H434v-1.12Z"/><path class="cls-2" d="M436.18,143.31a2.78,2.78,0,0,1,.83.29,1.91,1.91,0,0,1,.42.31.7.7,0,0,1,.16.37.38.38,0,0,1-.14.37c-.12.09-.24,0-.38-.36a2.1,2.1,0,0,0-.91-.92Z"/><path class="cls-2" d="M442.09,141.34l.86,0h1.23c0-.5,0-.84,0-1s0-.37,0-.54l.6.07a3.1,3.1,0,0,0-.09.66q0,.43,0,.83h1.3l.91,0v.49l-.91,0h-1.28a2.9,2.9,0,0,0,.21.88,2.56,2.56,0,0,0,.48.71,5,5,0,0,0,.72.63,4.14,4.14,0,0,0,.9.48,1.61,1.61,0,0,0-.42.54,7,7,0,0,1-.66-.46,4.56,4.56,0,0,1-.57-.52,4.46,4.46,0,0,1-.48-.63,4.84,4.84,0,0,1-.38-.74,6.21,6.21,0,0,1-.37.76,3.24,3.24,0,0,1-.44.58,5,5,0,0,1-.59.52,7.31,7.31,0,0,1-.82.54,2.94,2.94,0,0,0-.4-.49,4.14,4.14,0,0,0,1-.46,3.18,3.18,0,0,0,1.2-1.45,2.67,2.67,0,0,0,.2-.87H443l-.86,0Z"/><path class="cls-2" d="M447.72,141a4.28,4.28,0,0,0,.79,0v-.56q0-.37,0-.72H449a5.08,5.08,0,0,0,0,.72v.56l.84,0v.46a8.39,8.39,0,0,0-.84,0v1l.37-.23c.17.25.35.52.54.81a2.43,2.43,0,0,0-.44.26,4.33,4.33,0,0,0-.46-.84v1.7c0,.33,0,.65,0,1h-.46c0-.34,0-.67,0-1v-1.56a7.59,7.59,0,0,1-.56,1.26,1.38,1.38,0,0,0-.33-.42,3.23,3.23,0,0,0,.51-.92,5.79,5.79,0,0,0,.3-1.06,5.08,5.08,0,0,0-.72,0Zm2.51,1.63a3.59,3.59,0,0,0,.51.19,2.85,2.85,0,0,0-.36.73c-.16.41-.31.76-.46,1a3.32,3.32,0,0,0-.46-.21,4.46,4.46,0,0,0,.48-.87A5.58,5.58,0,0,0,450.23,142.66Zm-.44-1,.77,0h1.65l.72,0v.44l-.72,0h-.74v2.42c0,.28-.06.45-.2.5a4.21,4.21,0,0,1-.64.17,2,2,0,0,0-.19-.56,1.83,1.83,0,0,0,.49,0c.08,0,.12-.11.12-.27V142h-.49a4.88,4.88,0,0,0-.77,0Zm.26-1.47c.22,0,.46,0,.72,0h1.14c.23,0,.45,0,.65,0v.47a4.26,4.26,0,0,0-.65,0h-1.14a5.4,5.4,0,0,0-.72,0Zm1.67,2.77a2.27,2.27,0,0,0,.4-.28q.56.74,1,1.37a2,2,0,0,0-.44.3A11.33,11.33,0,0,0,451.72,142.92Z"/><path class="cls-2" d="M453.75,142.36l.65,0h1.12l.65,0v.39l-.86,0v.58c.29,0,.54,0,.72,0v.4c-.19,0-.43,0-.72,0v.7a5.68,5.68,0,0,0,1.86.23,14.9,14.9,0,0,0,1.84-.14,1.78,1.78,0,0,0-.12.53c-.59,0-1.1,0-1.55,0a10.6,10.6,0,0,1-1.21-.08,4.29,4.29,0,0,1-1-.23,3.35,3.35,0,0,1-.87-.51q-.11.47-.28.93a1.07,1.07,0,0,0-.39-.21,4.47,4.47,0,0,0,.28-.91c0-.26.09-.56.12-.91a2,2,0,0,0,.44.09,2.71,2.71,0,0,0-.12.61,2.69,2.69,0,0,0,.58.39v-1.44c-.54,0-.93,0-1.16,0Zm.25-2.26h1.93c0,.33,0,.65,0,1s0,.64,0,1H454c0-.34,0-.67,0-1S454,140.41,454,140.1Zm.42.35v.44h1.09v-.44Zm0,.79v.44h1.09v-.44Zm2.88.58a4,4,0,0,0,.49.07,5.19,5.19,0,0,0-.06.58,3.59,3.59,0,0,1-.08.61,2.08,2.08,0,0,1-.3.69,2.91,2.91,0,0,1-.74.73.89.89,0,0,0-.37-.35,2.06,2.06,0,0,0,.67-.49,1.91,1.91,0,0,0,.31-.55,1.84,1.84,0,0,0,.11-.62C457.33,142.28,457.32,142.06,457.3,141.82Zm-1-1.74.77,0h1.09l.7,0v.39c-.26,0-.65,0-1.16,0l-.09.68h1c0,.23,0,.58,0,1s0,.83,0,1.1h-.42v-1.79h-1.33v2h-.42c0-.29,0-.69,0-1.2s0-.87,0-1.1h.72l.09-.68-1,0Zm1.37,3.67a1,1,0,0,0,.25-.33,5.79,5.79,0,0,1,.79.58,1,1,0,0,0-.25.32A5.39,5.39,0,0,0,457.63,143.75Z"/><path class="cls-2" d="M459.72,140.45l.79,0h.79q0-.28,0-.67h.49q0,.33,0,.67h1.07q0-.4,0-.67h.49q0,.28,0,.67h.84l.79,0v.42l-.79,0h-.84c0,.2,0,.4,0,.61h-.46v-.61h-1.07v.63h-.46q0-.3,0-.63h-.79l-.79,0Zm0,2.23.33-.35,1,.63a1.22,1.22,0,0,0-.33.37A6.35,6.35,0,0,0,459.72,142.68Zm1.44.67a3.48,3.48,0,0,0,.3.35l-.63.76a3.48,3.48,0,0,0-.46.66,5.42,5.42,0,0,0-.51-.39,3.32,3.32,0,0,0,.7-.62A5.13,5.13,0,0,0,461.17,143.36Zm-.91-1.67.35-.33a9.4,9.4,0,0,1,.86.7,1.73,1.73,0,0,0-.37.33A4.32,4.32,0,0,0,460.26,141.68Zm4,0c0,.23-.05.52-.07.86s0,.59-.06.73a.34.34,0,0,1-.23.29,5.34,5.34,0,0,1-.71.16.92.92,0,0,0-.23-.44,3.2,3.2,0,0,0,.63-.07c.09,0,.15-.12.16-.26l0-.91h-1.3v2.26c0,.17.13.26.37.26H464a.33.33,0,0,0,.27-.09,1.06,1.06,0,0,0,.13-.49,1.37,1.37,0,0,0,.44.23,1.37,1.37,0,0,1-.28.6.64.64,0,0,1-.42.12h-1.56c-.39,0-.58-.13-.58-.4v-1.84c0-.39,0-.73,0-1Z"/><path class="cls-2" d="M465.75,140.29h2.07c0,.34,0,.66,0,1v2c0,.26,0,.58,0,1h-.39v-.26h-1.23v.77h-.42c0-.39,0-.79,0-1.21v-2.26C465.77,140.92,465.76,140.6,465.75,140.29Zm.42.35v1.26h.44v-1.26Zm0,1.6v1.35h.44v-1.35Zm.84-1.6v1.26h.39v-1.26Zm0,1.6v1.35h.39v-1.35Zm1-1.81a2.88,2.88,0,0,0,.53,0H469a3.82,3.82,0,0,0,0-.72l.54.07a3.29,3.29,0,0,0-.12.65h.67a3.35,3.35,0,0,0,.51,0v.42l-.51,0h-.72c0,.14,0,.29,0,.44h.56l.58,0v.4l-.56,0h-.65c0,.17-.06.32-.09.46.92,0,1.48,0,1.7,0v.4c-.17,0-.39,0-.65,0v.67a4.32,4.32,0,0,0,.7,0v.42c-.19,0-.42,0-.7,0v1c0,.33-.07.52-.21.58a3.53,3.53,0,0,1-.7.19,1.43,1.43,0,0,0-.19-.51,2.13,2.13,0,0,0,.55,0c.1,0,.15-.14.15-.33v-.84h-1.07c-.12.26-.24.49-.35.67a5.2,5.2,0,0,1-.49.67,2.2,2.2,0,0,0-.4-.28A2.92,2.92,0,0,0,468,144a4,4,0,0,0,.35-.63,5.35,5.35,0,0,0,.29-.89l-.7,0v-.4l.79,0c0-.14.06-.29.09-.46l-.72,0v-.4l.77,0a2.5,2.5,0,0,0,0-.44h-.4l-.53,0Zm.65,3.35a1.83,1.83,0,0,0,.42-.09q.09.3.16.58a2.49,2.49,0,0,1-.44.09A3.54,3.54,0,0,0,468.66,143.78Zm.39-1.35a5.84,5.84,0,0,1-.19.67h.93v-.67Z"/><path class="cls-2" d="M359.36,28.49l-.91,0v-.42l.88,0h3.49c.36,0,.65,0,.88,0v.42c-.2,0-.49,0-.88,0h-2a9.26,9.26,0,0,1,0,.93h2.16a5.6,5.6,0,0,0-.12.84l-.12,1.37c0,.33-.18.52-.4.58a6.12,6.12,0,0,1-.84.16,2,2,0,0,0-.23-.58l.68,0c.17,0,.28-.14.33-.37l.14-1.6h-1.65a3.35,3.35,0,0,1-.94,2,6,6,0,0,1-.69.56,1.12,1.12,0,0,0-.44-.4,3.33,3.33,0,0,0,.7-.49,2.59,2.59,0,0,0,.52-.7,3.5,3.5,0,0,0,.33-1,7.29,7.29,0,0,0,.1-1.3Zm2.12-.61a5.33,5.33,0,0,0-.53.16,6.3,6.3,0,0,0-.26-.81,3.85,3.85,0,0,0,.51-.16C361.29,27.3,361.38,27.57,361.47,27.88Z"/><path class="cls-2" d="M364.82,27.62l.77,0h2.88l.79,0v.44l-.79,0h-1.12v1.39h1l.65,0v.44c-.19,0-.4,0-.65,0h-1v1.79h1.3l1,0V32l-1,0h-3.51l-.74,0V31.6l.74,0h.14v-2q0-.39,0-.7h.51c0,.19,0,.42,0,.7v2h1.12V28h-1.3c-.29,0-.55,0-.77,0Z"/><path class="cls-2" d="M372.73,28.18c0-.39,0-.78,0-1.16h.51c0,.36,0,.75,0,1.16h1.93c0,.31,0,.74,0,1.28s0,1,0,1.3h-.49v-.4H373.2v1c0,.22,0,.52,0,.91h-.54c0-.34,0-.64,0-.91v-1h-1.39v.42h-.49c0-.31,0-.75,0-1.33s0-1,0-1.28Zm-1.39.37V30h1.39V28.56Zm1.86,0V30h1.42V28.56Z"/><path class="cls-2" d="M377.22,26.93a2,2,0,0,0,.54.28,2.15,2.15,0,0,0-.28.35h.74l.77,0v.39l-.63,0h-.28c.11.25.21.49.3.72l-.44.19q0-.21-.28-.91h-.37q-.25.42-.56.86a2.94,2.94,0,0,0-.42-.28,3.05,3.05,0,0,0,.52-.71A6.47,6.47,0,0,0,377.22,26.93Zm-.12,2,.77,0h.91v-.35h.46a1.67,1.67,0,0,0,0,.35h.91l.77,0v.4l-.74,0h-.93v.58h1.56l.79,0v.4l-.79,0h-.46v.51h.21l.79,0v.4l-.79,0h-.21v.63c0,.33-.08.51-.23.56a5.33,5.33,0,0,1-.77.14,1.79,1.79,0,0,0-.16-.51,3.33,3.33,0,0,0,.57,0c.12,0,.17-.12.17-.3v-.51h-2.46l-.74,0v-.4l.74,0h2.46v-.51h-2.74l-.77,0v-.4l.77,0h1.65v-.58h-.91l-.77,0Zm1,2.35c.14.19.29.4.44.65a1.41,1.41,0,0,0-.4.23,2.86,2.86,0,0,0-.44-.65A3,3,0,0,0,378.13,31.3Zm1.58-3.4a5.81,5.81,0,0,1-.35.65l-.44-.19a2.8,2.8,0,0,0,.42-.66c.11-.24.21-.49.3-.76a4.14,4.14,0,0,0,.51.21,1.93,1.93,0,0,0-.28.4h.91l.74,0v.39l-.79,0c.15.33.26.57.33.72l-.47.19a7.18,7.18,0,0,0-.28-.91Z"/><path class="cls-2" d="M383.25,27.07a1.91,1.91,0,0,0,.54.26,2.46,2.46,0,0,0-.45.59q-.22.38-.57.94l.74,0a3.72,3.72,0,0,0,.35-.77,2,2,0,0,0,.51.26,3.15,3.15,0,0,0-.47.63c-.15.26-.43.71-.84,1.35l1.09-.09a1.49,1.49,0,0,0-.07.4l-.7.06a6,6,0,0,0-.88.15,1.55,1.55,0,0,0-.14-.49.9.9,0,0,0,.5-.37,7.15,7.15,0,0,0,.48-.77,2.34,2.34,0,0,0-1,.19,3.24,3.24,0,0,0-.19-.51,2.28,2.28,0,0,0,.56-.69A5.8,5.8,0,0,0,383.25,27.07Zm-1,4.35,1-.13,1.13-.24a1.63,1.63,0,0,0,0,.39l-1,.23q-.45.12-.85.26A1.9,1.9,0,0,0,382.25,31.42Zm2-2.67a5.24,5.24,0,0,0,.89-.14v-.76a4.6,4.6,0,0,0-.07-.75l.61.07a1.29,1.29,0,0,0-.09.45,8.4,8.4,0,0,0,0,.9l.77-.14q.4-.09.77-.21l.09.44-.79.12-.81.16a4.23,4.23,0,0,0,0,.65l.88-.16a7.56,7.56,0,0,0,.86-.23l.07.44-.86.16-.88.16a2.7,2.7,0,0,0,.23.86,5.21,5.21,0,0,0,.38-.37,3,3,0,0,0,.36-.46,2.89,2.89,0,0,0,.51.37,1.49,1.49,0,0,0-.46.31q-.16.17-.56.55a1.8,1.8,0,0,0,.49.59c.14.09.24.09.3,0a1.24,1.24,0,0,0,.17-.49,1.66,1.66,0,0,0,.46.26q-.37,1-.83.83a2.47,2.47,0,0,1-.94-.92l-.63.48a6.1,6.1,0,0,1-.74.45,1.27,1.27,0,0,0-.35-.42,5.08,5.08,0,0,0,.77-.35,4.53,4.53,0,0,0,.72-.54,4.12,4.12,0,0,1-.3-1.09,6.16,6.16,0,0,0-.93.21l-.07-.44a5.49,5.49,0,0,0,.93-.14,5.59,5.59,0,0,1,0-.63c-.42.09-.7.16-.84.21Zm2.51-.86a1.52,1.52,0,0,0-.37.23c-.11-.17-.25-.37-.42-.6l.35-.19Z"/><path class="cls-2" d="M390.27,27.51l.56,0v.39l-.81,0,.19.51a2.54,2.54,0,0,0-.44.16,5.44,5.44,0,0,0-.16-.67h-.26a3.41,3.41,0,0,1-.39.49l-.37.35a1.53,1.53,0,0,0-.42-.33,2.52,2.52,0,0,0,.78-.73,3.4,3.4,0,0,0,.36-.66l.56.19a2.23,2.23,0,0,0-.28.35Zm-1.21,4.14c0,.11,0,.36,0,.74h-.46q0-.53,0-.86V30.09c0-.22,0-.43,0-.65h.49a5.06,5.06,0,0,0,0,.67Zm0-2.75a2.82,2.82,0,0,1,.4-.21,6.41,6.41,0,0,1,.37.72,2,2,0,0,0-.39.21A4.52,4.52,0,0,0,389.11,28.9Zm2.72.86a4.88,4.88,0,0,0,0,.49v1c0,.14,0,.29,0,.46h-2.09c0-.19,0-.36,0-.54v-.93c0-.17,0-.33,0-.46Zm-1.68-1,.67,0H393c0,.45,0,.71,0,.79v2.16c0,.29-.09.47-.27.52a3.85,3.85,0,0,1-.62.13c0-.17-.1-.34-.16-.51a1.59,1.59,0,0,0,.56,0s.07-.12.07-.26V29.21h-1.7l-.7,0Zm0,1.28v.44h1.26v-.44Zm0,.77v.51h1.26v-.51Zm2.33-3a4.45,4.45,0,0,0,.23.54l-.44.19q-.07-.3-.19-.72h-.44l-.46.56-.42-.23a3,3,0,0,0,.49-.56,3.88,3.88,0,0,0,.35-.67l.51.16a1.19,1.19,0,0,0-.26.4h.86l.63,0v.39Z"/><path class="cls-2" d="M395.15,27.09a5.62,5.62,0,0,0,.54.21,4.4,4.4,0,0,0-.44,1v3q0,.72,0,1h-.46q0-.3,0-1V29.16a6.94,6.94,0,0,1-.47.79,1,1,0,0,0-.32-.35,4,4,0,0,0,.65-1.1A5.64,5.64,0,0,0,395.15,27.09Zm.51,1.16.65,0h.91c0-.56,0-1,0-1.19h.47c0,.22,0,.61,0,1.19h1c.31,0,.53,0,.67,0v.42a6.47,6.47,0,0,0-.65,0H398A3.65,3.65,0,0,0,399.57,31a.85.85,0,0,0-.37.4,4.17,4.17,0,0,1-1.56-2.75V31c.39,0,.65,0,.79,0v.42q-.21,0-.79,0c0,.31,0,.67,0,1.07h-.47c0-.42,0-.77,0-1.07l-.79,0v-.42l.79,0v-2.3h0a5.07,5.07,0,0,1-1.46,2.84.92.92,0,0,0-.39-.33,4.06,4.06,0,0,0,1.44-2.51h-.46l-.65,0Z"/><path class="cls-2" d="M406.06,29.18l.65,0h.51q0,.42,0,.84v1.28a3,3,0,0,0,1.9.52,10.91,10.91,0,0,0,2.31-.15,1.19,1.19,0,0,0-.19.56q-1,0-1.6,0a9.2,9.2,0,0,1-1-.07,4,4,0,0,1-.7-.15,2.9,2.9,0,0,1-.56-.26.34.34,0,0,0-.49.09,4.11,4.11,0,0,0-.37.54l-.44-.3a5.27,5.27,0,0,1,.77-.7V29.58l-.72,0Zm.28-1.56a1.13,1.13,0,0,0,.35-.23,4.33,4.33,0,0,1,.61.84,1.21,1.21,0,0,0-.37.26A3.13,3.13,0,0,0,406.34,27.62Zm4.28-.56a3.51,3.51,0,0,0,.28.49c-.22,0-.65,0-1.3.12v.84c.85,0,1.39,0,1.63,0v.42c-.23,0-.77,0-1.63,0v.67h1.23c0,.37,0,.68,0,.92s0,.55,0,.94h-.44v-.28h-2v.3H408q0-.56,0-.94c0-.26,0-.57,0-.94h1.19v-.67q-1.3,0-1.67,0v-.42q.37,0,1.67,0v-.77a11.26,11.26,0,0,0-1.16.14c-.06-.16-.12-.3-.19-.44q.81,0,1.42-.09A9.13,9.13,0,0,0,410.62,27.07Zm-2.19,2.86v.84h2v-.84Z"/><path class="cls-2" d="M412.48,32.44a2.34,2.34,0,0,0-.46-.26,2.25,2.25,0,0,0,.44-.78,4.35,4.35,0,0,0,.19-.9q0-.47,0-1.52t0-1.71h4.16c0,.47,0,.87,0,1.21V31.6c0,.33-.07.53-.27.6a2.68,2.68,0,0,1-.64.16,1.88,1.88,0,0,0-.19-.56,1.18,1.18,0,0,0,.54,0,.34.34,0,0,0,.09-.22V30.39h-1.42v.91c0,.36,0,.66,0,.91h-.51q0-.37,0-.88v-.93h-1.33a4.77,4.77,0,0,1-.15.88,4.38,4.38,0,0,1-.22.63A5.66,5.66,0,0,1,412.48,32.44Zm.65-4.79v1h1.33v-1Zm0,1.4v1h1.33V29Zm1.79-1.4v1h1.42v-1Zm0,1.4v1h1.42V29Z"/><path class="cls-2" d="M419.65,31.72l.53,0c.13,0,.19-.08.19-.23V29.72h-1.49l-.77,0V29.3l.77,0h1.49V27.76h-1l-.67,0v-.44l.67,0h2.44l.74,0v.44l-.74,0h-.93v1.56h1.4l.86,0v.44l-.86,0h-1.4v2c0,.26-.09.42-.27.48a3,3,0,0,1-.71.11A1.46,1.46,0,0,0,419.65,31.72Z"/><path class="cls-2" d="M424.07,28.21l1,0h3.14l1,0v.46l-1.23,0a5.26,5.26,0,0,1-.42,1.33,5.59,5.59,0,0,1-.58,1,3.31,3.31,0,0,0,1.18.59,5.33,5.33,0,0,0,1.13.2,1.18,1.18,0,0,0-.37.63,9.41,9.41,0,0,1-1-.31,5.08,5.08,0,0,1-1.33-.78,5.69,5.69,0,0,1-2.16,1.14,1.31,1.31,0,0,0-.35-.54,5.39,5.39,0,0,0,.94-.24,3.87,3.87,0,0,0,1.2-.69,4.69,4.69,0,0,1-.59-.84,5.23,5.23,0,0,1-.43-1.49h.49a3.88,3.88,0,0,0,.34,1.21,3.23,3.23,0,0,0,.57.77,4.07,4.07,0,0,0,.58-1,3.34,3.34,0,0,0,.25-1H425l-1,0Zm2-1a1.85,1.85,0,0,0,.51-.21,8.66,8.66,0,0,1,.42.93,2.77,2.77,0,0,0-.56.21A6.44,6.44,0,0,0,426.07,27.21Z"/><path class="cls-2" d="M433.74,28a.91.91,0,0,0-.22.27l-.15.29h.84l.84,0V29l-.84,0h-3.37L430,29v-.4l.81,0H433l.11-.3a1.63,1.63,0,0,0,.08-.37Zm-2.88,1.26h3.49q0,.42,0,.84t0,.84h-1.54v.42h1.37l.88,0v.42l-.88,0h-1.37c0,.22,0,.44,0,.67h-.49q0-.35,0-.67h-1.49l-.86,0v-.42l.84,0h1.51V31h-1.51q0-.42,0-.85C430.88,29.84,430.87,29.56,430.86,29.3Zm1.37-2.21a3.8,3.8,0,0,1,.49-.07,3.32,3.32,0,0,1,.14.49H434l.63,0v.39l-.61,0h-2.93l-.72,0v-.39l.7,0h1.26A1.25,1.25,0,0,0,432.23,27.09Zm-.61,1.47c-.09-.17-.19-.33-.28-.47l.42-.14.28.46A3.33,3.33,0,0,0,431.63,28.56Zm-.28,1V30h2.54v-.4Zm0,.72v.33h2.54v-.33Z"/><path class="cls-2" d="M436.18,30.58a2.75,2.75,0,0,1,.83.29,1.91,1.91,0,0,1,.42.31.69.69,0,0,1,.16.37.38.38,0,0,1-.14.37c-.12.09-.24,0-.38-.36a2.1,2.1,0,0,0-.91-.92Z"/><path class="cls-2" d="M443.44,31a1.39,1.39,0,0,0-.49-.3,4.25,4.25,0,0,0,1-1.06,2.67,2.67,0,0,0,.28-1.22h-1.42v4h-.49q0-.47,0-.79V29c0-.31,0-.63,0-1h1.91c0-.43,0-.75,0-1l.56,0a3.39,3.39,0,0,0-.09.93h2a9.49,9.49,0,0,0,0,1v2.88a.35.35,0,0,1-.26.39,4.45,4.45,0,0,1-.74.16,1.63,1.63,0,0,0-.23-.56,4.09,4.09,0,0,0,.64,0c.1,0,.15-.09.15-.23V28.39h-1.51c0,.22,0,.49-.07.81q.19.19.69.59a6.56,6.56,0,0,1,.69.62,4.33,4.33,0,0,0-.37.37,10.44,10.44,0,0,0-1.14-1.16A5.28,5.28,0,0,1,443.44,31Z"/><path class="cls-2" d="M447.88,28.21l1,0H452l1,0v.46l-1.23,0A5.25,5.25,0,0,1,451.3,30a5.47,5.47,0,0,1-.58,1,3.33,3.33,0,0,0,1.17.59,5.34,5.34,0,0,0,1.13.2,1.18,1.18,0,0,0-.37.63,9.42,9.42,0,0,1-1-.31,5.08,5.08,0,0,1-1.33-.78,5.7,5.7,0,0,1-2.16,1.14,1.33,1.33,0,0,0-.35-.54,5.37,5.37,0,0,0,.94-.24A3.87,3.87,0,0,0,450,31a4.8,4.8,0,0,1-.59-.84,5.28,5.28,0,0,1-.43-1.49h.49a3.93,3.93,0,0,0,.34,1.21,3.23,3.23,0,0,0,.57.77,4,4,0,0,0,.58-1,3.35,3.35,0,0,0,.26-1h-2.33l-1,0Zm2-1a1.9,1.9,0,0,0,.51-.21,9.53,9.53,0,0,1,.42.93,2.85,2.85,0,0,0-.56.21A6.23,6.23,0,0,0,449.88,27.21Z"/><path class="cls-2" d="M453.77,27.72l.79,0h.79q0-.28,0-.68h.49c0,.22,0,.44,0,.68h1.07q0-.4,0-.68h.49c0,.19,0,.41,0,.68h.84l.79,0v.42l-.79,0h-.84c0,.2,0,.4,0,.61h-.47v-.61h-1.07v.63h-.46c0-.2,0-.41,0-.63h-.79l-.79,0Zm0,2.23.33-.35,1,.63a1.29,1.29,0,0,0-.33.37A6.33,6.33,0,0,0,453.77,30Zm1.44.67a3.3,3.3,0,0,0,.3.35l-.63.76a3.41,3.41,0,0,0-.46.66,6,6,0,0,0-.51-.4,3.39,3.39,0,0,0,.7-.62A5.29,5.29,0,0,0,455.21,30.63ZM454.3,29l.35-.33a9.32,9.32,0,0,1,.86.7,1.8,1.8,0,0,0-.37.33A4.32,4.32,0,0,0,454.3,29Zm4,0c0,.23-.05.52-.07.86s0,.59-.06.73a.34.34,0,0,1-.23.29,5.4,5.4,0,0,1-.71.16,1,1,0,0,0-.23-.44,3,3,0,0,0,.63-.07.27.27,0,0,0,.16-.26l0-.91h-1.3v2.26c0,.17.13.26.37.26h1.19a.34.34,0,0,0,.27-.09,1.07,1.07,0,0,0,.13-.49,1.35,1.35,0,0,0,.44.23,1.36,1.36,0,0,1-.28.61.64.64,0,0,1-.42.12h-1.56c-.39,0-.58-.13-.58-.39V30q0-.58,0-1Z"/><path class="cls-2" d="M459.79,27.55h2.07c0,.34,0,.66,0,1v2c0,.26,0,.58,0,1h-.4v-.26h-1.23V32h-.42c0-.39,0-.79,0-1.21V28.51Q459.82,28,459.79,27.55Zm.42.35v1.26h.44V27.9Zm0,1.61v1.35h.44V29.51ZM461,27.9v1.26h.39V27.9Zm0,1.61v1.35h.39V29.51Zm1-1.81a2.8,2.8,0,0,0,.54,0H463a3.83,3.83,0,0,0,0-.72l.54.07a3.48,3.48,0,0,0-.12.65h.68a3.24,3.24,0,0,0,.51,0v.42l-.51,0h-.72l0,.44h.56l.58,0v.39l-.56,0h-.65c0,.17-.06.33-.09.46.92,0,1.48,0,1.7,0v.4l-.65,0v.67a4.43,4.43,0,0,0,.7,0v.42l-.7,0v1c0,.33-.07.52-.21.58a3.41,3.41,0,0,1-.7.19,1.44,1.44,0,0,0-.19-.51,2.17,2.17,0,0,0,.55,0c.1,0,.15-.14.15-.33v-.84h-1.07c-.12.26-.24.49-.35.67a5.35,5.35,0,0,1-.49.67,2.29,2.29,0,0,0-.4-.28,2.92,2.92,0,0,0,.52-.57,4.17,4.17,0,0,0,.35-.63,5.53,5.53,0,0,0,.29-.9l-.7,0v-.4l.79,0c0-.14.06-.29.09-.46l-.72,0v-.39l.77,0a2.49,2.49,0,0,0,0-.44h-.39l-.54,0ZM462.7,31a1.66,1.66,0,0,0,.42-.09c.06.2.12.4.16.58a2.48,2.48,0,0,1-.44.09A3.48,3.48,0,0,0,462.7,31Zm.4-1.35a6.32,6.32,0,0,1-.19.67h.93v-.67Z"/><text class="cls-3" transform="translate(0 33.24)">微软雅黑</text><text class="cls-4" transform="translate(155.35 19.36)">专用中文印刷字体</text><text class="cls-5" transform="translate(155.35 76.36)">专用中文印刷字体</text><text class="cls-6" transform="translate(0 89.03)">方正兰亭细黑</text><text class="cls-7" transform="translate(515.4 19.36)">专用中文印刷字体</text><text class="cls-8" transform="translate(515.4 72.3)">专用中文印刷字体</text><text class="cls-9" transform="translate(515.4 130.11)">专用中文印刷字体</text></g></g></svg>