<svg xmlns="http://www.w3.org/2000/svg" viewBox="0 0 523.45 523.45"><defs><style>.cls-1{fill:#fff;}.cls-2{fill:#11376b;}</style></defs><title>hitrobot_zhongdao_AGV-html</title><g id="图层_2" data-name="图层 2"><g id="图层_1-2" data-name="图层 1"><path class="cls-1" d="M0,0H523.45q0,261.73,0,523.45H0Q0,261.73,0,0ZM388.63,469.39l.06-13.44h26.78v25.87l12.32.73V495l-12.12,1.18v11.4h24.75V469.92l-12.06-1.18v-12h27.58l.86,12.23h25.55v12.94L470,483.15v24.71h37.63v-12l-12.55-.77V469.28H482q.05-27.2.11-54.4h13.15V401.72h12.48V389H495.19V361.52H482.88L482,375.25H468.95c0-9.63,0-18.58,0-27.54l12.74-.58V322.41H469.28V348L441,347.94V322.18H428.68l-.84,12.07H415.38l-1.15-12L401.79,321V308.25h12.76l.64-14.39,12.29-1.09V281.06l-12.05-1V267.63l11.93-1.05V254.91l-11.78-1.11V240.95h25.76v25.86h28.13q0,13.35.06,26.7h-27.7v14.13H469.2V293.18h12.57l.81-12.38,12.13-1.17v-12.5H469.17l-.58-12.42L456,254V240.95h51.73V228.73l-12.12-1.14-.82-13.75-12-1.19V200.18l12.55-.74V174.23l12.29-1.16V161.49H469.44c0,4.53,0,8.53,0,12.52H456V161.52H441.34v12.55H414.73c0-14.47,0-27.91,0-41.36l26.53.21v12h27.19V133.26H441V120.46h-25.9v12.59H402.43l-.68,12.28H375.47c0-4.64,0-8.63,0-12.62l12.75-.56V120.47H375.8v12.58l-15.14-.11q-.07-13.2-.14-26.4h14.62V94.29H360.85v12.59L348,106.31,347,94.24H334.83c0,8.9,0,17.23,0,25.56H321.35V94.17H309.18L308,106.11H293.83l-1.11-11.85H281.07l-1.16,12.45H267.12V80h40.81l.84-14.82H321.7V79.64h12.79V65.22h25.93l1.16,14.88h27.3v25.84h12.27V80.42H388.53V65.63l12.6-.7V40h-11.6L388.3,52.49H334.42V26.06H308.9L307.64,13.8h-27c0,4.54,0,8.53,0,12.52H267.13V13.74H228.84V52.2h12.53V80h-13l-1.06-14.4H213V40l-13.23-1.2c0-4.64,0-8.62,0-12.61l12.75-.56V13.91H200.07V26.5h-25.7l-.59,12.86.18-.18L161.25,40l-.71,12.57H133.63V64.94l11.86.71,1.08,14.53h14.37q0,6.74,0,13.48H146v13.1h-13.7V81.16H119.79v38.7H66.16v53.79H80.54q0,6.72.06,13.44H52.13V174.55L39,173.36c0-4.67,0-8.63,0-12.61l12.75-.56V146.66H39.3V161.1H13.83v12.08l12.63,1.24c0,13.35,0,26,0,38.71l-12.75.56v13.54H26.13V212.8l26.43.18v28.65H26.67L26,253.85,13.73,255v11.45h25l.79-11.87H51.94l1.31,13H80.89v54h26c0,5,0,9.05,0,13.07H81v12.27h25.52V334.31l13.34.17q0,13.23,0,26.47H65.09V335.33H53.19v65.83H65l.66-12.46H93.69V402h26.24v53.94h26V468.8l-12.53,1.26v37.53h39.64V482.83l-12.45-.72V455.94h12.8L174.69,469H187.1v38.76h106.2c0-4.53,0-8.52,0-12.52h15.39v12.46h38.9V482.11h13.72v25.63h27.35c0-8.91,0-17.23,0-25.56h12.45V469.39ZM13.94,13.69v92.1h91.93V13.69ZM14,415.54v92.1h91.77v-92.1ZM415.53,105.61h92.1V13.87h-92.1ZM38.77,281.05H13.95v12l12.52.72V320.9h25V294l-12-.69Zm-.22,79.3V335.59H14v24.77ZM401.44,14h-39.8V25.45h39.8ZM120.51,26.69V38.54h24.43V13.86H133.37L132.27,26ZM38.65,401.3V389.59h-25V401.3Zm469.14-93.38V294.38H496.11v13.54ZM25.55,133.52H13.71V145H25.55ZM507.71,347.09V335.26H496.2v11.83ZM494.85,120.36H483.2V132h11.65Z"/><path d="M441,347.94l28.23.11-.33-.33v27.53H482l.87-13.73h12.31V389l.37-.3H482.17v13.39l.3-.3-13.3.24V389.16H456.72v12.68h12.63c0,4.15,0,8.3,0,13.33h13.12l-.37-.3q-.05,27.2-.11,54.4l.33-.33H456.79l-.86-12.23H428.36v12l12.06,1.18v37.68H415.67v-11.4L427.79,495V482.54l-12.32-.73V455.95H388.7l.31.35V402H375.67V347.81h-28l.81-12.71,12-.65,1.1-12.75h14.35l-.3-.3v13.39H389l-.3-.3v13.39h13.39l-.3-.3L402,360.9H389.33v27.48h25.6v-12.7h26.42V347.57Zm-38.9,92.72h38.5V402.48h-38.5Zm54.14.08h12.48V428.58H456.29Z"/><path d="M187.1,469H174.69l-1.27-13.09h-12.8l.3.37V428.64l12.59-.76V415.37h-27.3L145,427.63l-11.65.63V441l12.32,1V456.3l.3-.37h-26V402H93.69V388.7l-.37.3H119.8V375.61l-.3.3h26V360.66h-26l.37.3q0-13.23,0-26.47l-.37.3h53.63l1.26,12.84h25.74q0,14.12,0,28.23H187.25v12.43h12.68V375.69h28.23v39.43H213V402.51h-12.9v12.59H186.79v54.28ZM133,401.34h40.57v-11.9H133ZM161.17,361v14.35h12.29V361Z"/><path d="M441.34,240.95H415.58V253.8l11.78,1.11v11.68l-11.93,1.05v12.45l12.05,1v11.72l-12.29,1.09-.64,14.39H401.79l.3.37V254.55h-13l-1,12.46H375.73l.33.33V241.76l12.42-.88V213.5H375.94l-.74,13.83H361.3l-.74-14.06-12-.69V200.51l11.78-.68,1.25-12.44,13.54-.61V174l-13.68-.84-1.17-12.36h-12.7l.71-14.35L361,145.29V132.58l-.3.37,15.14.11-.33-.33v12.61h26.27l.68-12.28h12.63l-.33-.33v41.36h26.62l-.3-.37.24,13.32H415.1c0,5.19,0,9.15,0,13.1l-13.23,0V161.27H389.33v38.68h12.72c0,9.13,0,18.27,0,27.84h12.87V200l12.72.8.65,12.09,12.74,1v27.51Z"/><path d="M106.85,334.65V321.59h-26v-54H53.25l-1.31-13H39.52l-.79,11.87h-25V255L26,253.85l.7-12.23H52.56V213l-.37.3H65.47v41.19H106l.62,13H94.05v12.92h12.59q0,6.62,0,13.24H93.78v14.3h12.68c0-5.32,0-9.9,0-14.48l13.26,0v14.67h40.8l.9-13.88L173.64,293l.83-11.67H187c0,13.94,0,27.13,0,40.31H119.49v13.15l.37-.3-13.34-.17Z"/><path d="M321.7,65.22H308.76L307.93,80H267.12v26.67l.37-.3-13.32.24V94.05H241.25v12.59H228V93.56H213l.24-28.29-.3.37h14.37L228.4,80h13V52.2l-.37.3h25.57l1.24,12.34h12.76V39.11l-.3.3h12.65V26H280.27l.35.3V13.8h27l1.26,12.26h25.52V52.49l.37-.3H321.4V65.58Z"/><path d="M13.94,13.69h91.93v92.1H13.94ZM26.35,93H93V26.64H26.35Z"/><path d="M14,415.54h91.77v92.1H14Zm12.59,12.76V495H93V428.31Z"/><path d="M415.53,105.61V13.87h92.1v91.74Zm79.72-79H428.59V93h66.66Z"/><path d="M293.29,495.26v12.52H187.1q0-19.32,0-38.76l-.3.37H199.6l1.31-13.32h27.26l-.42,13.21.33-.33H213.64v26.62h80Z"/><path d="M469.44,174V161.49h38.24v11.58l-12.29,1.16v25.21l-12.55.74v12.47l12,1.19.82,13.75,12.12,1.14v12.22H456l.3.37V228.58l12.63-.7V213.43l-12.29-1-.58-12.47h13.32V186.79l-.3.3h12.65V173.71H469.08Z"/><path d="M173.78,39.36l.59-12.86h25.7l-.33-.33v12.6L213,40c0,8.63,0,17.16,0,25.69l.3-.37H187c0,6,0,10.62,0,15.19l-13.32-.24.3.3V66H160.62V80.54l.3-.35H146.56l-1.08-14.53-11.86-.71V52.53h26.91L161.25,40,174,39.18c0,4.17,0,8.35,0,12.86h12.43V39.36Z"/><path d="M93.69,388.7H65.61L65,401.16H53.19V335.33h11.9V361h54.77l-.37-.3v15.26l.3-.3H93.32V389Z"/><path d="M401.79,308.25V321l12.44,1.2,1.15,12h12.46l.84-12.07H441c0,8.65,0,17.2,0,25.75l.3-.37H401.78l.3.3V334.48H388.7l.3.3V321.4H375.61l.3.3V308.14H347.68l.33.33-.38-15.06h40.67l.82,15.2h13Z"/><path d="M80.54,173.65H66.16V119.86h53.63l-.3-.37V132.8H80.74v13.37h25.1v14.72H80.23V174Z"/><path d="M160.63,455.94v26.17l12.45.72v24.76H133.44V470.06L146,468.8c0-4.39,0-8.63,0-12.87l-.3.37h15.26Z"/><path d="M334.42,52.49H388.3L389.53,40h11.6V64.93l-12.6.7V80.42l.33-.33H361.57l-1.16-14.88H334.49l.3.37V52.19Z"/><path d="M267.12,106.71h12.79l1.16-12.45h11.65l1.11,11.85H308l1.18-11.94h12.17V119.8l.35-.31H280.5v13.33H254.16V119.56h13.32V106.41Z"/><path d="M52.56,213l-26.43-.18.33.33V174.42l-12.63-1.24V161.1H39.3l-.33-.33v12.6l13.16,1.18V187.1l.37-.3H39.85v13.39H52.5l-.3-.3v13.39Z"/><path d="M388.63,482.18v25.56H361.29V482.11H347.57l.3.37V469.39h28l-.3-.3v13.39H389Z"/><path d="M38.77,281.05l.7,12.24,12,.69V320.9h-25V293.75L13.95,293v-12Z"/><path d="M482,469.28h13.07v25.86l12.55.77v12H470V483.15l12.35-1.26c0-4.43,0-8.69,0-12.94Z"/><path d="M241.38,52.2H228.84V13.74h38.29V26.33l.35-.31H241V52.5Z"/><path d="M38.56,360.35H14V335.59h24.6Z"/><path d="M334.83,119.8V94.24H347L348,106.31l12.81.57-.33-.33.15,26.4.3-.37H348.44l-1.24-13.09H334.48Z"/><path d="M347.57,482.11v25.62h-38.9V495.26l-.37.3h25.88l1.29-13.09h12.4Z"/><path d="M119.79,119.86V81.16h12.47v25.61H146l-.3-.37.24,13.33-26.41-.24Z"/><path d="M456,240.95V254l12.59.68c.19,4.17.38,8.3.57,12.43l.31-.33H441.34c0-8.77,0-17.32,0-25.86l-.3.37H456.3Z"/><path d="M401.44,14V25.45h-39.8V14Z"/><path d="M120.51,26.69,132.27,26l1.1-12.18h11.56V38.54H120.51Z"/><path d="M80.6,187.1q0-6.72-.06-13.44l-.3.36h38.88l.62,13-39.49-.24Z"/><path d="M469.53,293.52q0-13.35-.06-26.7l-.31.33H494.7v12.5l-12.13,1.17-.81,12.38H469.2Z"/><path d="M469.2,293.18v14.47H441.82V293.53h27.71Z"/><path d="M441,133.26h27.49V145H441.26c0-4.14,0-8.09,0-12.05Z"/><path d="M52.13,187.1H80.6l-.37-.3.24,13.32-28.29-.24.3.3V186.79Z"/><path d="M321.35,119.8h13.48l-.35-.3v25.58H321.7V119.49Z"/><path d="M388.53,80.42h12.61v25.52H388.87c0-8.72,0-17.28,0-25.84Z"/><path d="M469.28,348V322.41h12.41v24.71l-12.74.58Z"/><path d="M106.52,334.31v12.61H81V334.65h25.84Z"/><path d="M38.65,401.3h-25V389.59h25Z"/><path d="M415.06,133.05V120.46H441c0,4.37,0,8.57,0,12.79l.31-.33-26.54-.2Z"/><path d="M26.13,212.8v14.44H13.71V213.7l12.75-.57Z"/><path d="M441.34,174.08V161.52H456V174l.35-.31H441Z"/><path d="M360.85,106.88V94.29h14.29v12.25H360.52Z"/><path d="M39.3,161.1V146.66H51.72V160.2L39,160.76Z"/><path d="M146,106.77V93.67h15l-.31-.35v13.09h-15Z"/><path d="M507.79,307.92H496.11V294.38h11.68Z"/><path d="M334.49,65.22V79.64H321.7c0-4.71,0-9.57,0-14.42l-.3.37h13.39Z"/><path d="M308.68,495.26H293.29l.37.3V482.23h14.89l-.24,13.33Z"/><path d="M456,174h13.48l-.35-.3V187.1l.3-.3-13.32.24.24-13.33Z"/><path d="M160.93,93.67q0-6.74,0-13.48l-.3.35H174l-.3-.3.24,13.32-13.32-.23Z"/><path d="M495.19,389h12.55v12.72H495.26l.3.37V388.7Z"/><path d="M495.26,401.72v13.15H482.11l.37.3V401.78l-.3.3h13.39Z"/><path d="M25.55,133.52V145H13.71V133.52Z"/><path d="M375.8,133.06V120.47h12.42v11.69l-12.75.56Z"/><path d="M507.71,347.09H496.2V335.26h11.51Z"/><path d="M388.7,455.95l-.06,13.44.37-.3H375.61l.3.3V456.3H389Z"/><path d="M388.63,469.39h12.45v12.79H388.63l.37.3V469.08Z"/><path d="M200.07,26.5V13.91h12.42V25.6l-12.75.56Z"/><path d="M267.13,26.33h13.48l-.35-.3V39.41l.3-.3H267.49V26Z"/><path d="M494.85,120.36V132H483.2V120.36Z"/><path class="cls-1" d="M52.19,199.88l28.29.24-.18-.17v40.5H106l.59-12.47-.18.18h12.79l1.17,12.37h11.69l.93-12.09,12.62-1.19V212.9h14.89l.83,14.66,12.12.73v13.22H146.57L145.29,254l-12,.91V266.5h40l.69-11.85,12.4-1.2c.76-9.38,2.5-18.31,2-27.09-1.18-19.47,2.24-35.28,24.81-39.49L213,187c5.72.49,11.45,1.43,17.17,1.35,8.07-.11,16.12-1,24.18-1.52l-.22.17h13.27l-.22-.17c2.83.59,5.68,1.75,8.5,1.67,11-.3,21.9-1,32.86-1.52l-.18-.18a19.91,19.91,0,0,0,3.87,1.76c16,3.5,19,10.76,20.67,24.53.63,5,1.19,10,1.78,15.07l-.17-.22v13.27l.17-.22c-.57,1-1.65,2-1.63,3,.26,16.22.67,32.44,1,48.92l13.69.64-.17-.18q.19,7.53.38,15.06l-12.75.56v11.69h12.42V308.14h28.23V321.7H361.56l-1.1,12.75-12,.65-.81,12.71.17-.18-12.69.83-.69,11.94-12.18,1.21v26.72l12.48.61-.18-.18.73,12.68,12.54.59-.18-.18q0,6.63,0,13.27l.18-.18-26.41.3q0-6.22,0-12.45H308.61v12.45h-27.7V388.53h27.45v-53.4l12.8-1.5c-13.4-.69-26.54-.85-39.68-.61-4.74.09-9.47,1.11-14.2,1.7l.18-.18c-18.73-.54-37.51-.4-56.15-2-6.14-.53-11.84-5.7-17.81-8.61a67.79,67.79,0,0,0-6.63-2.45l.17.18V281.33H174.47L173.64,293l-12.22,1.21-.9,13.88h-40.8V293.42l-.17.18h25.52V280.33H119.56l.18.18L119,267.83l-12.54-.59.17.18-.62-13H65.47V213.27H52.19Z"/><path class="cls-1" d="M389,456.3H375.92v13.09h-28v13.09h-12.4l-1.29,13.09H308.31l.24-13.33-.17.18,13-.8V455.94h26.41v-41l-.18.18h13.65v25.32h14.58V401.85l-.18.17H389Z"/><path class="cls-1" d="M347.64,347.81h28V402l.18-.17H347.63l.18.18-.73-12.68-12.54-.59.18.18V376.16l13.09-1.29V347.63Z"/><path class="cls-1" d="M402.15,440.65V402.48h38.5v38.17Zm25.17-13.17V415.65H415.81v11.83Z"/><path class="cls-1" d="M401.78,347.57h39.56v28.11H414.93l.18.17-.69-14.55-12.58-.59.17.18Z"/><path class="cls-1" d="M414.93,375.68v12.7h-25.6V360.9H402l-.17-.18.69,14.55,12.58.59Z"/><path class="cls-1" d="M469.35,401.84H456.72V389.16h12.46c0,4.5,0,8.68,0,12.86Z"/><path class="cls-1" d="M495.56,402.09H482.17V388.7h13.39Z"/><path class="cls-1" d="M482.48,401.78v13.39H469.35c0-5,0-9.18,0-13.33l-.18.18Z"/><path class="cls-1" d="M375.61,321.4H389v13.39H375.61Z"/><path class="cls-1" d="M456.29,440.73V428.58h12.48v12.15Z"/><path class="cls-1" d="M388.7,334.48h13.39v13.39H388.7Z"/><path class="cls-1" d="M228.16,415.11V375.69H199.93l.18.18q0-14.12,0-28.23l-.17.18,13.33-.31c0,4.22,0,8.44,0,12.56h14.66V347.51h13.68v54.77h26.27v25.12l12.05,1.2v27.46H267.24l.18.18-.77-14.57-12-.67-1.13-12.68H241c0-4.18,0-8.36,0-12.78l-13-.61Z"/><path class="cls-1" d="M228.17,456.07H200.91l-1.31,13.32H186.79V415.11h13.33l-.18-.17.73,12.68,12.54.59L213,428l.77,13h14.49L228,456.24Z"/><path class="cls-1" d="M119.49,334.79V321.64H187l-.17-.18L187.6,334l12.35,1.16v12.69l.17-.18H174.38l-1.26-12.84Z"/><path class="cls-1" d="M160.93,456.3H145.67V441.93l-12.32-1V428.27l11.65-.63,1.23-12.27h27.3v12.52l-12.59.76Z"/><path class="cls-1" d="M133,401.34v-11.9h40.57v11.9Z"/><path class="cls-1" d="M119.49,375.92V360.66h26v15.26Z"/><path class="cls-1" d="M93.32,389V375.61H119.8V389Z"/><path class="cls-1" d="M213,415.11h15.13l-.17-.18.31,13.33L213,428l.18.18V414.93Z"/><path class="cls-1" d="M161.17,361h12.29v14.35H161.17Z"/><path class="cls-1" d="M199.93,375.69v12.61H187.25V375.86h12.86Z"/><path class="cls-1" d="M200.12,415.11V402.51H213v12.59l.18-.17H199.94Z"/><path class="cls-1" d="M402.09,308.61h-13l-.82-15.2H347.64l.17.18V255l-13.1-1.22V241l-.17.22,12.45-.77V228.56L334.54,228l.17.22c0-13.53,0-27.06,0-40.89l13.1-1.16V160.68l-.18.17h12.7l1.17,12.36,13.68.84v12.73l-13.54.61-1.25,12.44-11.78.68v12.07l12,.69.74,14.06h13.9l.74-13.83h12.54v27.38l-12.42.88c0,8.44,0,17,0,25.59H361.43V279.6h14.29V267h12.44l1-12.46h13Z"/><path class="cls-1" d="M321.7,119.49v25.58h12.78V119.49h12.72l1.24,13.09H361v12.71l-12.62,1.22-.71,14.35.18-.17h-54.4l.18.18V146l14.11-.8V132.64H280.33l.17.18V119.49Z"/><path class="cls-1" d="M456.3,241.31H441V213.8l-12.74-1-.65-12.09-12.72-.8.18.18V187h26.19l-.18-.17.77,13.27h14.37l-.17-.18.58,12.47,12.29,1v14.45l-12.63.7Z"/><path class="cls-1" d="M402.05,199.94H389.33V161.27h12.54q0,19.37,0,38.85Z"/><path class="cls-1" d="M414.92,200v27.82H402.05c0-9.57,0-18.71,0-27.84l-.18.18,13.23,0Z"/><path class="cls-1" d="M456.3,173.71,456.07,187l.17-.18H441.1l.18.17L441,173.71Z"/><path class="cls-1" d="M106.46,293.4v14.48H93.78v-14.3h12.86Z"/><path class="cls-1" d="M106.64,280.34H94.05V267.43h12.59l-.17-.18q0,6.63,0,13.27Z"/><path class="cls-1" d="M119.72,293.42l-13.26,0,.18.18q0-6.62,0-13.24l-.18.17h13.27l-.18-.18V293.6Z"/><path class="cls-1" d="M160.62,93.32l13.32.23-.18-.17.77,12.45h11.92L187,93.38l-.18.18h13.27l-.18-.18.73,12.68,12.54.59-.18-.18-.11,13.24H187.24c0,9.67,0,17.89,0,26.12l-12.75.57v13.54h12.42V145.49l13,.59.69,13.88h12c0-13.94,0-27.25,0-40.56h15l.62-12.94-.18.17h13.27l-.18-.17.73,12.68,12.54.59-.17-.18v13.27l.17-.18-12.45.77v11.92l12.45.58-.18-.18V187l.22-.17H240.67V161.57H228.75l-1.16,12.1-13.95.84L213,187l.21-.17H187.5l-.8,13.38h-41c0-4.24,0-8.48,0-13l14.38-1v-25l-14.14-.81V145.73l-.18.18,14.32-.76V119.56H145.73l.17.18-.24-13.33h15Z"/><path class="cls-1" d="M267.49,26V39.11h13.09V64.84H267.82L266.57,52.5H241V26Z"/><path class="cls-1" d="M187,80.47V65.28h26.25L213,93.56l.17-.18H199.94l.18.18-.73-12.68-12.54-.59Z"/><path class="cls-1" d="M213,93.56H228v13.08l.18-.17H213l.18.18V93.38Z"/><path class="cls-1" d="M280.27,39.41V26h12.65V39.41Z"/><path class="cls-1" d="M334.79,65.58H321.4V52.19h13.39Z"/><path class="cls-1" d="M241.25,106.64V94.05h12.91v12.6l.17-.18H241.07Z"/><path class="cls-1" d="M267.49,106.41v13.15H254.16l.17.18V106.47l-.17.18Z"/><path class="cls-1" d="M26.35,93V26.64H93V93ZM79.89,40.22H40.13V79.59H79.89Z"/><path class="cls-1" d="M26.61,428.31H93V495H26.61ZM40,441.66v39.7H79.51v-39.7Z"/><path class="cls-1" d="M495.25,26.66V93H428.59V26.66ZM481.43,79.74V40.07h-39.5V79.74Z"/><path class="cls-1" d="M308.55,482.23H293.66v13.33h-80V468.94h14.45c.19,4.21.37,8.43.56,12.75h11.69V469.28H227.75l.42-13.21-.18.17h39.44l-.18-.18v12.83L255,470v11.43h24.93l.8-11.79,12.17-1.2L294,455.94h14.59l-.24,26.48Z"/><path class="cls-1" d="M456.07,187l13.32-.24v13.15H456.07l.17.18V186.86Z"/><path class="cls-1" d="M469.08,187.1V173.71h12.65V187.1Z"/><path class="cls-1" d="M174,80.54H160.62V66H174Z"/><path class="cls-1" d="M173.78,39.36h12.61V52H174c0-4.51,0-8.69,0-12.86Z"/><path class="cls-1" d="M173.95,93.55l-.24-13.32,13.32.24-.17-.18V93.56l.18-.18H173.77Z"/><path class="cls-1" d="M119.73,187l-.62-13H80.23V160.89h25.61V146.17H80.74V132.8h38.76V119.49l26.41.24-.17-.18v26.35l.18-.18H120.39v14.36l11.86,1.17v25.6H119.56Z"/><path class="cls-1" d="M254.16,132.82H280.5l-.17-.18v27.59l13.27.63-.18-.18v12.79l-12.34,1.18-1.14,12.22H267.21l.22.17V146.36l-13.27-.64.18.18V132.64Z"/><path class="cls-1" d="M52.5,186.79v13.39H39.85V186.79Z"/><path class="cls-1" d="M389,469.08v13.39H375.61V469.08Z"/><path class="cls-1" d="M80.48,200.12l-.24-13.32,39.49.24-.17-.18.24,13.39-39.5-.3Z"/><path d="M308.61,455.94H294l-1.17,12.51-12.17,1.2-.8,11.79H255V470l12.29-1.11V456.06h12.69V428.6l-12.05-1.2V402.27H241.61V347.51H227.93l.3.37V335.22H213v12.65l.3-.37-13.33.31V335.12L187.6,334l-.74-12.51a67.79,67.79,0,0,1,6.63,2.45c6,2.91,11.68,8.08,17.81,8.61,18.63,1.62,37.42,1.48,56.15,2q0,13.18,0,26.37H254.55v14.28h12.68V360.73H293v-26H267.27c4.73-.6,9.46-1.62,14.2-1.7,13.14-.24,26.28-.08,39.68.61l-12.8,1.5v53.4H280.91v26.71h27.7l-.3-.37V456.3Z"/><path d="M145.67,200.25h41l.8-13.38h25.75c-22.57,4.21-26,20-24.81,39.49.53,8.79-1.22,17.71-2,27.09l-12.4,1.2-.69,11.85h-40V254.93l12-.91,1.27-12.51h26.94V228.3l-12.12-.73-.83-14.66H145.67l.3.37V199.88Z"/><path d="M80.3,199.94l39.5.3-.3-.37v13.39H146l-.3-.37c0,4.58,0,9.17,0,14.33l-12.62,1.19-.93,12.09H120.43l-1.17-12.37H106.46c0-4.8,0-9.6,0-14.73H94V228h12.62L106,240.45H80.3Z"/><path d="M267.21,186.87h12.73l1.14-12.22,12.34-1.18V160.68h54.4v25.47l-13.1,1.16c0,13.83,0,27.36,0,40.89-.59-5-1.16-10.05-1.78-15.07-1.72-13.76-4.68-21-20.67-24.53a19.93,19.93,0,0,1-3.87-1.76h12.86V174.42H308.56V187c-11,.54-21.9,1.23-32.86,1.52C272.89,188.62,270,187.46,267.21,186.87Z"/><path d="M347.81,414.93v41H321.4l.3.37V441.7l12.63-.71V428.45l-12.63-1.12V414.87l-.3.37Z"/><path d="M347.63,401.85h28.22v38.59H361.28V415.11H347.63Q347.63,408.48,347.63,401.85Z"/><path d="M347.81,347.63v27.25l-13.09,1.29v12.78l-12.48-.61V361.61l12.18-1.21.69-11.94Z"/><path d="M334.71,241c0,4,0,8,0,12.73l13.1,1.22V293.6L334.12,293c-.38-16.48-.78-32.7-1-48.92C333.06,243,334.14,242,334.71,241Z"/><path d="M213,187l.6-12.53,13.95-.84,1.16-12.1h11.92v25.31h13.71c-8.06.54-16.12,1.41-24.18,1.52C224.48,188.47,218.75,187.53,213,187Z"/><path d="M254.16,145.73l13.27.64V187H254.16Z"/><path d="M119.56,293.6V280.33h25.52V293.6Z"/><path d="M334.54,388.76l12.54.59.73,12.68-12.54-.59Z"/><path d="M308.61,415.24V402.79H321.4q0,6.23,0,12.45l.3-.37H308.31Z"/><path d="M119.74,280.51H106.47q0-6.63,0-13.27l12.54.59Z"/><path d="M347.68,308.14v12.58H335.26V309l12.75-.56Z"/><path d="M334.54,228l12.45.58v11.92l-12.45.77Z"/><path d="M308.37,482.41l.24-26.48-.3.37H321.7l-.3-.37c0,8.29,0,16.59,0,25.68Z"/><path d="M427.32,427.48H415.81V415.65h11.51Z"/><path d="M415.11,375.85l-12.58-.59-.69-14.55,12.58.59Z"/><path d="M267.42,456.24H228l.31-15.19-.37.3h13.39V428l-.3.37h12.46L254.61,441l12,.67Z"/><path d="M227.93,347.51v12.56H213.27c0-4.12,0-8.34,0-12.56l-.3.37h15.26Z"/><path d="M228.29,428.26,228,414.93l13,.61c0,4.42,0,8.6,0,12.78l.3-.37H227.92Z"/><path d="M213,428l15.26.24-.37-.3v13.39l.37-.3H213.8Z"/><path d="M199.94,414.93h13.27V428.2l-12.54-.59Z"/><path d="M375.73,267V279.6H361.43V267.35h14.62Z"/><path d="M293.6,160.87l-13.27-.63V132.64h27.38v12.58l-14.11.8Z"/><path d="M456.24,186.86v13.27H441.87l-.77-13.27Z"/><path d="M119.79,200.25l-.24-13.39h12.69v-25.6l-11.86-1.17V145.73h25.52v14.76l14.14.81v25l-14.38,1c0,4.54,0,8.77,0,13l.3-.37H119.49Z"/><path d="M212.59,119.41V160h-12l-.69-13.88-13-.59.33.33V119.71h25.69Z"/><path d="M145.73,145.91V119.56H160v25.59Z"/><path d="M213,106.47h15.14l-.62,12.94h-15l.33.31Q213,113.09,213,106.47Z"/><path d="M186.91,145.49v14.44H174.49V146.4l12.75-.57Z"/><path d="M186.86,93.56V80.3l12.54.59.73,12.68Z"/><path d="M173.77,93.38H187l-.58,12.45H174.54Z"/><path d="M213.21,93.38v13.27l-12.54-.59-.73-12.68Z"/><path d="M254.34,106.47v13.27l-12.54-.59-.73-12.68Z"/><path d="M254.34,132.64v13.27l-12.45-.58V133.41Z"/><path d="M79.89,40.22V79.59H40.13V40.22Z"/><path d="M40,441.66H79.51v39.7H40Z"/><path d="M481.43,79.74h-39.5V40.07h39.5Z"/><path d="M227.75,469.28h12.58V481.7H228.65c-.19-4.33-.37-8.54-.56-12.75Z"/><path class="cls-1" d="M321.7,456.3H308.31V414.87H321.7v12.46l12.63,1.12V441l-12.63.71Z"/><path class="cls-1" d="M267.41,360.91q0-13.18,0-26.37l-.18.18H293v26H267.23Z"/><path class="cls-1" d="M228.23,347.87H213V335.22h15.26Z"/><path class="cls-1" d="M267.23,360.73v14.46H254.55V360.91h12.86Z"/><path class="cls-1" d="M119.49,199.88H146v13.39H119.49Z"/><path class="cls-1" d="M106.64,228H94V213.42h12.44c0,5.13,0,9.93,0,14.73Z"/><path class="cls-1" d="M308.56,187V174.42h12.68v12.43H308.38Z"/><path class="cls-1" d="M227.92,441.35V428h13.39v13.39Z"/><rect class="cls-1" x="188.89" y="186.89" width="145.67" height="145.67" rx="12" ry="12"/><polygon class="cls-2" points="307.82 262.98 291.6 262.98 289.72 266.65 299.46 266.65 302.94 273.69 281.32 273.69 292.1 252 294.9 257.59 305.13 257.59 297.28 241.96 286.06 241.96 268.96 276.21 261.65 261.64 273.41 261.64 283.21 241.96 248.29 241.96 240.26 257.96 229.23 257.96 237.24 241.96 226.28 241.96 208.43 277.49 219.44 277.49 227.38 261.64 238.43 261.64 230.47 277.49 241.46 277.49 257.42 245.65 271.08 245.65 264.67 257.96 254.04 257.96 251.66 262.71 258.99 277.49 315.02 277.49 307.82 262.98"/></g></g></svg>