<svg xmlns="http://www.w3.org/2000/svg" viewBox="0 0 139.24 326.07"><defs><style>.cls-1,.cls-5{fill:#231815;}.cls-1{stroke:#fff;stroke-width:0.32px;}.cls-2{fill:#fff;}.cls-3{font-size:7.52px;fill:#10386b;font-family:FZHTJW--GB1-0, FZHTJW -GB1-0-GBpc-EUC-H;}.cls-4{fill:#e60012;}.cls-4,.cls-5{font-size:9px;}.cls-5{letter-spacing:0em;}</style></defs><title>hitrobot_hrg_en_ch-white</title><g id="图层_2" data-name="图层 2"><g id="图层_1-2" data-name="图层 1"><rect class="cls-1" x="0.16" y="0.16" width="138.92" height="299.13"/><rect class="cls-2" x="65.3" y="31.25" width="0.53" height="234.65"/><path class="cls-2" d="M73.57,31.35h6.89V49.84H78.59V48H75.45v2.24H73.57Zm5,14.88V33.15H75.45V46.23ZM91,28.31l-.44.7a18,18,0,0,0,7.59,7.93q-.75.91-1.43,1.82a23,23,0,0,1-7.26-8,24.72,24.72,0,0,1-7.36,8.14,18.29,18.29,0,0,0-1.35-1.64,21.28,21.28,0,0,0,7.8-8.95Zm-7.88,14.8h12.3V53.88h-2V52.32H85.1v1.56h-2Zm1-5.23H94.64V39.7H84.13ZM93.44,50.5V44.93H85.1V50.5Z"/><path class="cls-2" d="M72.61,80.21H84V62.86H74.09V60.78H96.25v2.08h-10V80.21H97.71v2H72.61Z"/><path class="cls-2" d="M72.22,112.39q10.73-4.78,11.57-14.33H72.69V96h11.2q.06-3.5.06-7h2.26q0,3.5-.06,7H97.68v2H86.11Q88,108.45,98.23,111.77a21.51,21.51,0,0,0-2,2.11,18,18,0,0,1-11.07-12.13q-2,7.89-11.35,12.65Q73.31,113.69,72.22,112.39Z"/><path class="cls-2" d="M72.19,135.5a29.21,29.21,0,0,0,4.15-9.36H72.45v-1.77h4.06v-5.13h1.87v5.13H82v1.77H78.38v4.32l1-1q2,1.82,3.15,3l-1.4,1.43q-1.6-1.77-2.78-2.94V144.6H76.51V130.66a23.3,23.3,0,0,1-3.46,7.13Q72.64,136.62,72.19,135.5ZM85.9,122.88v8.61q0,9.31-4.66,13.5-.73-.89-1.53-1.77,4.11-3.62,4.11-11.26V120.91H93.5v19.56c0,.86.3,1.3.91,1.3H95q.83,0,1.07-1.46.26-2,.36-4.32a21.32,21.32,0,0,0,2,.83q-.23,2.58-.47,4.21-.42,2.76-2.65,2.76H93.91q-2.5,0-2.5-3V122.88Z"/><path class="cls-2" d="M73.1,160.5H83.61a7.74,7.74,0,0,0,.52-2.26l1.87.26a11.49,11.49,0,0,1-.46,2h5.67q-1-.76-2.2-1.48l1.07-1.17a36.8,36.8,0,0,1,3.09,2l-.59.63h4.85v1.72h-10q3,2.94,10.66,2.78-.63,1.06-1.07,2l-1.33-.12v7.94H93.86V173.4H88.29v1.4H86.47v-8h8.28q-7.44-1-9.51-4.55h-.47q-1.45,3.09-9.44,4.55h8.32v8H81.84v-1.4H76.36v1.43H74.54v-7.9l-1.43.26q-.39-.78-1-1.85,8.69-1.12,10.43-3.12H73.1Zm1.4-9.47h9.13v7.57H81.82v-.81H76.33v1.06H74.51Zm7.31,1.61H76.33v3.54h5.49Zm0,15.74H76.36v3.41h5.49ZM86.45,151h9.21v7.67H93.83v-.91H88.27v.81H86.45Zm7.39,1.61H88.27v3.54h5.57Zm0,15.74H88.29v3.41h5.57Z"/><path class="cls-2" d="M72.27,203.32q11.34-6.55,12-23h2.29a49.61,49.61,0,0,1-.55,5.31q3.23,13,12.12,17.11Q97,203.95,96.2,205q-7.73-4.37-11-15.46-2.85,10.72-11.28,15.75A22.17,22.17,0,0,0,72.27,203.32Z"/><path class="cls-2" d="M73.05,227.68H84.26v-1.77h1.82v1.77H97.27v1.66H88.11a26.55,26.55,0,0,0,10.12,4.34c-.47.73-.88,1.37-1.22,1.92a28.44,28.44,0,0,1-10.92-5.81v6.1H84.26v-6.12a31.54,31.54,0,0,1-10.92,5.89q-.54-.81-1.22-1.64a27.58,27.58,0,0,0,10-4.68h-9.1Zm11.52-16.62,1.53-.94a17,17,0,0,1,2,2.65l-1.2.75h10v1.61H87V217h8.71v1.51H87v1.84h8.71v1.51H87v1.9H97v1.61H78v1H76.17v-9.26a30.11,30.11,0,0,1-2.73,2.81,10.43,10.43,0,0,0-1.25-1.72,27.78,27.78,0,0,0,6.37-7.75l1.79.8q-.73,1.2-1.48,2.29h7.36A27.66,27.66,0,0,0,84.57,211.06ZM78,217h7.2v-1.85H78Zm0,3.35h7.2V218.5H78Zm0,3.41h7.2v-1.9H78Z"/><path class="cls-2" d="M73.81,242H96.57v24.27h-2V265H75.78v1.3h-2Zm20.78,1.82H75.78v19.35h18.8Zm-17.53,4.6h9.73v-3.74h1.92v3.74h5v1.77h-5v7.93q0,3.77-3.59,3.77-1.46,0-3-.05c-.1-.6-.24-1.29-.42-2.05a25.61,25.61,0,0,0,3,.21q2.13,0,2.13-2.42v-6.09a28.57,28.57,0,0,1-9.34,8.69,9.53,9.53,0,0,0-1.33-1.74,27,27,0,0,0,9.42-8.24H77.06Z"/><path class="cls-2" d="M57.15,39.76v1.39H44.53V39.76H50.4V32.69H44.53V31.24H57.15v1.45H51.66v7.07Z"/><path class="cls-2" d="M57.15,49.35v1.39H44.53V49.35Z"/><path class="cls-2" d="M57.15,68H56V63.68H44.53V62.23H56V57.93h1.2Z"/><path class="cls-2" d="M44.53,95.61v-2l5.68-4.36V86H44.53V84.5H57.15v5.87q-.19,4-3.41,4.29-3.28,0-3.54-3.79ZM55.89,86H51.47v4.1q.06,3.09,2.33,3.09,2-.06,2.08-3.09Z"/><path class="cls-2" d="M44.34,107.85q.32-5.74,6.25-6,6.44.25,6.75,6.18-.38,5.62-6.63,6Q44.59,113.78,44.34,107.85Zm11.74.06q-.38-4.16-5.37-4.61-4.86.25-5.24,4.48.25,4.42,5.24,4.67Q55.7,112.08,56.08,107.91Z"/><path class="cls-2" d="M44.53,126.47v-5.24H57.15v4.92q-.19,3.79-3.16,4a2.82,2.82,0,0,1-2.78-2.53h-.06a3.21,3.21,0,0,1-3.22,3C45.75,130.57,44.61,129.16,44.53,126.47Zm11.36-.63v-3.28H51.66v3.28q.12,2.59,2.27,2.84Q55.83,128.55,55.89,125.84ZM50.4,126v-3.47H45.66v3.72q0,3,2.46,3Q50.27,129.06,50.4,126Z"/><path class="cls-2" d="M44.34,143.7q.32-5.75,6.25-6,6.44.25,6.75,6.19-.38,5.62-6.63,6Q44.59,149.63,44.34,143.7Zm11.74.06q-.38-4.17-5.37-4.61-4.86.25-5.24,4.48.25,4.42,5.24,4.67Q55.7,147.92,56.08,143.76Z"/><path class="cls-2" d="M57.15,166.22H56v-4.29H44.53v-1.45H56v-4.3h1.2Z"/><path class="cls-2" d="M51,188.56V194H46.42q-2.09-1.58-2.08-5.43.32-5.93,6.31-6.25,6.44.25,6.69,6-.06,4.23-3.72,5.62l-.38-1.58a4.07,4.07,0,0,0,2.84-4.1q-.38-4-5.37-4.42-4.86.32-5.24,4.67A5.06,5.06,0,0,0,47,192.6h2.84v-4Z"/><path class="cls-2" d="M44.53,212.67v-2l5.68-4.35V203H44.53v-1.45H57.15v5.87q-.19,4-3.41,4.29-3.28,0-3.54-3.79ZM55.89,203H51.47v4.1q.06,3.09,2.33,3.09,2-.06,2.08-3.09Z"/><path class="cls-2" d="M44.34,224.91q.32-5.75,6.25-6,6.44.25,6.75,6.19-.38,5.61-6.63,6Q44.59,230.85,44.34,224.91Zm11.74.06q-.38-4.16-5.37-4.61-4.86.25-5.24,4.48.25,4.42,5.24,4.67Q55.7,229.14,56.08,225Z"/><path class="cls-2" d="M57.15,248.33H49.77q-5.49.06-5.43-5.05t5.43-4.92h7.39v1.45H49.83q-4.48-.06-4.36,3.47-.12,3.79,4.36,3.66h7.32Z"/><path class="cls-2" d="M49.64,261.64v-3.91H44.53v-1.39H57.15v5.43Q57,265.62,53.43,266,49.7,265.94,49.64,261.64Zm6.25-.25v-3.66h-5v3.66q.06,3,2.59,3.09Q55.83,264.36,55.89,261.39Z"/><text class="cls-3" transform="translate(34.63 323.52) scale(0.95 1)">■<tspan class="cls-4" x="7.52" y="0"> </tspan><tspan class="cls-5" x="9.54" y="0">标准字体反白稿</tspan></text></g></g></svg>