<svg xmlns="http://www.w3.org/2000/svg" viewBox="0 0 219.31 219.31"><defs><style>.cls-1{fill:#231815;}.cls-2{fill:#fff;}</style></defs><title>hitrobot_nobody_top_down_white</title><g id="图层_2" data-name="图层 2"><g id="图层_1-2" data-name="图层 1"><rect class="cls-1" width="219.31" height="219.31"/><path class="cls-2" d="M51.28,140.7h5l6.51,8.7v-8.7h5v15.72h-5l-6.48-8.63v8.63h-5Z"/><path class="cls-2" d="M70.7,148.57a7.7,7.7,0,0,1,2.36-6,9.42,9.42,0,0,1,6.57-2.14,9.61,9.61,0,0,1,6.66,2.11,7.55,7.55,0,0,1,2.34,5.91,8.93,8.93,0,0,1-1,4.52,7,7,0,0,1-2.95,2.75,10.55,10.55,0,0,1-4.81,1,12,12,0,0,1-4.84-.85,7.06,7.06,0,0,1-3.11-2.68A8.26,8.26,0,0,1,70.7,148.57Zm5.35,0A4.93,4.93,0,0,0,77,152a3.94,3.94,0,0,0,5.32,0,5.42,5.42,0,0,0,.94-3.66,4.56,4.56,0,0,0-1-3.25,3.54,3.54,0,0,0-2.67-1,3.39,3.39,0,0,0-2.6,1A4.94,4.94,0,0,0,76,148.59Z"/><path class="cls-2" d="M91.51,140.7h10a5.8,5.8,0,0,1,3.84,1.13,3.51,3.51,0,0,1,1.34,2.79,3.34,3.34,0,0,1-1,2.39,4.34,4.34,0,0,1-1.87,1,5,5,0,0,1,2.74,1.4,3.62,3.62,0,0,1,.88,2.49,4,4,0,0,1-.62,2.2,4.42,4.42,0,0,1-1.71,1.54,6.07,6.07,0,0,1-2,.51q-1.8.22-2.39.21H91.51Zm5.39,6.17h2.32a2.87,2.87,0,0,0,1.74-.39,1.37,1.37,0,0,0,.49-1.13,1.29,1.29,0,0,0-.49-1.07,2.82,2.82,0,0,0-1.71-.39H96.9Zm0,6.18h2.73a3.23,3.23,0,0,0,1.95-.45,1.44,1.44,0,0,0,.56-1.2,1.34,1.34,0,0,0-.56-1.12,3.38,3.38,0,0,0-2-.42H96.9Z"/><path class="cls-2" d="M109.62,148.57a7.7,7.7,0,0,1,2.36-6,9.43,9.43,0,0,1,6.57-2.14q4.32,0,6.65,2.11a7.55,7.55,0,0,1,2.34,5.91,9,9,0,0,1-1,4.52,7,7,0,0,1-3,2.75,10.53,10.53,0,0,1-4.81,1,12,12,0,0,1-4.84-.85,7.07,7.07,0,0,1-3.11-2.68A8.28,8.28,0,0,1,109.62,148.57Zm5.35,0a4.93,4.93,0,0,0,1,3.42,3.94,3.94,0,0,0,5.32,0,5.42,5.42,0,0,0,.94-3.66,4.55,4.55,0,0,0-1-3.25,3.54,3.54,0,0,0-2.67-1,3.39,3.39,0,0,0-2.6,1A4.94,4.94,0,0,0,115,148.59Z"/><path class="cls-2" d="M130.49,140.7h7.94a10.35,10.35,0,0,1,3.79.58,6.13,6.13,0,0,1,2.39,1.66,6.63,6.63,0,0,1,1.37,2.52,10.69,10.69,0,0,1,.43,3,9.72,9.72,0,0,1-.63,3.91,6.51,6.51,0,0,1-1.75,2.33,5.91,5.91,0,0,1-2.41,1.25,13.59,13.59,0,0,1-3.19.43h-7.94Zm5.34,3.56v8.59h1.31a6,6,0,0,0,2.38-.34,2.37,2.37,0,0,0,1.11-1.18,6.78,6.78,0,0,0,.4-2.73,4.94,4.94,0,0,0-.9-3.42,4,4,0,0,0-3-.92Z"/><path class="cls-2" d="M147.47,140.7h5.94l3.49,5.31,3.49-5.31h5.91l-6.72,9.14v6.59h-5.36v-6.59Z"/><path class="cls-2" d="M54.94,159.14h1V165h-1v-2.6H52.08V165h-1v-5.86h1v2.41h2.86Z"/><path class="cls-2" d="M60,159.14h1V165H60Z"/><path class="cls-2" d="M69.42,160h-2v5h-1v-5h-2v-.85h4.9Z"/><path class="cls-2" d="M83.05,165h-1.3l-2-2.49H78.58V165h-1v-5.89h2.75q2,.06,2.07,1.67a1.57,1.57,0,0,1-1.56,1.67Zm-4.47-5v1.64h1.61c.85,0,1.26-.29,1.25-.88S81,160,80.19,160Z"/><path class="cls-2" d="M89.13,159q2.69.17,2.89,3-.08,2.94-2.94,3a2.75,2.75,0,0,1-2.89-3A2.82,2.82,0,0,1,89.13,159ZM89,164.29q1.9-.09,2-2.21-.14-2-1.9-2.21-1.81.14-1.93,2.21Q87.26,164.15,89,164.29Z"/><path class="cls-2" d="M98.35,165H95.69v-5.86h2.52q1.87.09,2,1.53a1.33,1.33,0,0,1-.74,1.22,1.52,1.52,0,0,1,1,1.44Q100.44,165,98.35,165Zm-1.73-5v1.56h1.44q1.1,0,1.13-.82c0-.47-.41-.72-1.1-.74Zm1.56,2.41H96.62v1.78h1.64q1.19,0,1.19-.91C99.42,162.71,99,162.42,98.18,162.4Z"/><path class="cls-2" d="M106.89,159q2.69.17,2.89,3-.08,2.94-2.94,3a2.76,2.76,0,0,1-2.89-3A2.82,2.82,0,0,1,106.89,159Zm-.08,5.26q1.9-.09,2-2.21-.14-2-1.9-2.21-1.81.14-1.93,2.21Q105,164.15,106.81,164.29Z"/><path class="cls-2" d="M117.9,160h-2v5h-1v-5h-2v-.85h4.9Z"/><path class="cls-2" d="M128.69,161.8h2.8V164a3.06,3.06,0,0,1-2.61,1,2.8,2.8,0,0,1-3-3q.11-2.94,2.91-3.06a2.65,2.65,0,0,1,2.66,1.73l-1,.28a1.64,1.64,0,0,0-1.67-1.13q-1.75.14-1.87,2.18a2,2,0,0,0,2,2.18,2.08,2.08,0,0,0,1.67-.6v-1h-1.84Z"/><path class="cls-2" d="M140.74,165h-1.3l-2-2.49h-1.19V165h-1v-5.89h2.75q2,.06,2.07,1.67a1.57,1.57,0,0,1-1.55,1.67Zm-4.47-5v1.64h1.61c.85,0,1.27-.29,1.25-.88s-.43-.75-1.25-.76Z"/><path class="cls-2" d="M146.82,159q2.69.17,2.89,3-.08,2.94-2.94,3a2.75,2.75,0,0,1-2.89-3A2.83,2.83,0,0,1,146.82,159Zm-.08,5.26q1.89-.09,2-2.21-.14-2-1.9-2.21-1.81.14-1.92,2.21Q145,164.15,146.74,164.29Z"/><path class="cls-2" d="M157.26,159.14h1v3.4q.08,2.66-2.46,2.55-2.43.08-2.38-2.55v-3.4h1v3.4q0,1.78,1.42,1.73c1,0,1.54-.54,1.5-1.73Z"/><path class="cls-2" d="M164.76,162.74h-1.59V165h-1v-5.89h2.63q1.92.08,2.07,1.78Q166.85,162.71,164.76,162.74Zm-.09-2.75h-1.5v1.9h1.5q1.22,0,1.22-1C165.85,160.31,165.45,160,164.67,160Z"/><circle class="cls-2" cx="105.62" cy="92.49" r="3.54"/><path class="cls-2" d="M136.91,69.2V88.88c-1.79,5.65-4.45,8.09-7.35,8.68V62a38.92,38.92,0,0,0-53.32,56V98c1.47-7,4.29-10,7.35-10.87v37.69a38.91,38.91,0,0,0,53.32-55.6ZM105.5,108.41A15.92,15.92,0,0,1,90.86,86.25c-4.13-3-11.6-6.07-14.61,7.78V87.34c0-11.75,10.17-15.73,21.18-8.55A15.85,15.85,0,0,1,121.2,95.05L116,91.5A10.53,10.53,0,1,0,105.5,103a10.83,10.83,0,0,0,1.16-.07l5.5,4A15.83,15.83,0,0,1,105.5,108.41ZM136.91,98c0,10.57-7.08,20.22-28.89,1.79a7.68,7.68,0,1,1,5.29-7.3c0,.17,0,.33,0,.5,8.08,6.21,18.31,13.83,23.63-.64Z"/></g></g></svg>