<?xml version="1.0" encoding="utf-8"?>
<!-- Generator: Adobe Illustrator 21.1.0, SVG Export Plug-In . SVG Version: 6.00 Build 0)  -->
<svg version="1.1" id="图层_1" xmlns="http://www.w3.org/2000/svg" xmlns:xlink="http://www.w3.org/1999/xlink" x="0px" y="0px"
	 viewBox="0 0 212 380.8" style="enable-background:new 0 0 212 380.8;" xml:space="preserve">
<style type="text/css">
	.st0{fill:#898989;}
	.st1{fill:#10386B;}
	.st2{font-family:'ArialMT';}
	.st3{font-size:7.52px;}
	.st4{fill:#231815;}
	.st5{font-size:8.12px;}
	.st6{font-family:'AdobeSongStd-Light-GBpc-EUC-H';}
	.st7{fill:#D3D3D4;}
	.st8{fill:none;stroke:#231815;stroke-width:0.44;}
	.st9{fill:none;stroke:#231815;stroke-width:0.31;stroke-miterlimit:3.86;}
	.st10{fill:none;stroke:#231815;stroke-width:0.19;}
	.st11{fill:none;stroke:#231815;stroke-width:0.42;stroke-miterlimit:3.86;}
	.st12{fill:#FFFFFF;}
	.st13{font-size:5px;}
	.st14{font-size:6.41px;}
</style>
<title>hitrobot_hrg_en_ch-gray_1</title>
<g id="图层_2">
	<g id="图层_1-2">
		<rect x="87.3" y="71.6" class="st0" width="0.6" height="246.6"/>
		<path class="st0" d="M96.7,71.8h7.2v19.4h-2v-1.9h-3.3v2.3h-2L96.7,71.8z M102,87.5V73.7h-3.3v13.8H102z M115,68.7l-0.5,0.7
			c2.1,4,4.8,6.8,8,8.3c-0.5,0.7-1,1.3-1.5,1.9c-3.2-2.2-5.8-5-7.6-8.4c-1.9,3.4-4.5,6.3-7.7,8.6c-0.4-0.6-0.9-1.2-1.4-1.7
			c3.6-2.3,6.4-5.6,8.2-9.4H115z M106.7,84.2h12.9v11.3h-2.1v-1.6h-8.8v1.6h-2.1L106.7,84.2z M107.8,78.7h11v1.9h-11V78.7z
			 M117.6,92v-5.9h-8.8V92H117.6z"/>
		<path class="st0" d="M95.7,123.2h12V105H97.3v-2.2h23.3v2.2h-10.5v18.2h12v2.1H95.7V123.2z"/>
		<path class="st0" d="M95.3,157c7.5-3.3,11.6-8.3,12.2-15.1H95.8v-2.1h11.8c0-2.4,0.1-4.9,0.1-7.4h2.4c0,2.4,0,4.9-0.1,7.4h12v2.1
			h-12.1c1.3,7.3,5.5,12.1,12.7,14.4c-0.7,0.7-1.4,1.4-2.1,2.2c-5.7-2.1-10-6.9-11.6-12.7c-1.4,5.5-5.4,10-11.9,13.3
			C96.6,158.6,96,157.9,95.3,157z"/>
		<path class="st0" d="M95.3,181.2c2-3,3.5-6.3,4.4-9.8h-4.1v-1.9h4.3v-5.4h2v5.4h3.8v1.9h-3.8v4.5l1.1-1.1c1.4,1.3,2.5,2.3,3.3,3.1
			l-1.5,1.5c-1.1-1.2-2.1-2.3-2.9-3.1v14.4h-2v-14.6c-0.8,2.7-2,5.2-3.6,7.5C95.9,182.8,95.6,182,95.3,181.2z M109.7,168v9
			c0,6.5-1.6,11.2-4.9,14.2c-0.5-0.6-1-1.2-1.6-1.9c2.9-2.5,4.3-6.5,4.3-11.8v-11.6h10.2v20.5c0,0.9,0.3,1.4,1,1.4h0.6
			c0.6,0,1-0.5,1.1-1.5c0.2-1.4,0.3-2.9,0.4-4.5c0.7,0.3,1.4,0.6,2.1,0.9c-0.2,1.8-0.3,3.3-0.5,4.4c-0.3,1.9-1.2,2.9-2.8,2.9h-1.4
			c-1.7,0-2.6-1-2.6-3.1V168H109.7z"/>
		<path class="st0" d="M96.2,207.5h11c0.3-0.8,0.5-1.6,0.6-2.4l2,0.3c-0.1,0.7-0.3,1.4-0.5,2.1h6c-0.7-0.5-1.5-1-2.3-1.6l1.1-1.2
			c1.1,0.7,2.2,1.4,3.3,2.1l-0.6,0.7h5.1v1.8h-10.6c2.1,2.1,5.8,3,11.2,2.9c-0.4,0.7-0.8,1.4-1.1,2.1l-1.4-0.1v8.4h-2V221h-5.8v1.5
			h-1.9V214h8.8c-5.2-0.7-8.5-2.3-10-4.8h-0.5c-1,2.2-4.3,3.8-9.9,4.8h8.7v8.4h-1.9V221h-5.8v1.5h-1.9v-8.3l-1.5,0.3
			c-0.3-0.5-0.6-1.2-1.1-1.9c6.1-0.8,9.7-1.9,11-3.3h-9.9L96.2,207.5L96.2,207.5z M97.7,197.5h9.6v8h-1.9v-0.9h-5.8v1.1h-1.9
			L97.7,197.5z M105.4,199.2h-5.8v3.8h5.8V199.2z M105.4,215.8h-5.7v3.6h5.8L105.4,215.8z M110.2,197.5h9.7v8.1H118v-1h-5.8v0.9
			h-1.9L110.2,197.5z M118,199.2h-5.8v3.8h5.9L118,199.2z M118,215.8h-5.8v3.6h5.9L118,215.8z"/>
		<path class="st0" d="M95.3,252.5c7.9-4.6,12.1-12.6,12.6-24.1h2.4c-0.1,1.9-0.3,3.7-0.6,5.6c2.3,9.1,6.5,15.1,12.7,18
			c-0.8,0.8-1.4,1.6-2,2.4c-5.4-3.1-9.3-8.5-11.6-16.2c-2,7.5-5.9,13-11.8,16.5C96.5,253.8,96,253.1,95.3,252.5z"/>
		<path class="st0" d="M96.2,278H108v-1.8h1.9v1.9h11.8v1.8H112c3.2,2.2,6.8,3.8,10.6,4.6c-0.5,0.8-0.9,1.4-1.3,2
			c-4.2-1.2-8.1-3.2-11.5-6.1v6.4H108v-6.4c-3.4,2.8-7.3,4.9-11.5,6.2c-0.4-0.6-0.8-1.1-1.3-1.7c3.8-0.9,7.4-2.6,10.5-4.9h-9.6
			L96.2,278L96.2,278z M108.3,260.6l1.6-1c0.8,0.9,1.5,1.8,2.1,2.8l-1.3,0.8h10.5v1.7h-10.3v1.9h9.2v1.6h-9.2v1.9h9.2v1.6h-9.2v2
			h10.4v1.7h-19.9v1h-1.9v-9.7c-0.9,1.1-1.8,2.1-2.9,3c-0.4-0.6-0.8-1.2-1.3-1.8c2.7-2.3,5-5,6.7-8.1l1.9,0.8
			c-0.5,0.8-1,1.6-1.6,2.4h7.7C109.5,262.3,108.9,261.4,108.3,260.6L108.3,260.6z M101.3,266.8h7.6v-1.9h-7.6V266.8z M101.3,270.3
			h7.6v-1.9h-7.6V270.3z M101.3,273.9h7.6v-2h-7.6V273.9z"/>
		<path class="st0" d="M96.9,293.1h23.9v25.5h-2.1v-1.3H99v1.4h-2.1V293.1z M118.8,295H99v20.3h19.8V295z M100.4,299.8h10.2v-3.9h2
			v3.9h5.2v1.9h-5.2v8.3c0,2.7-1.3,4-3.8,4c-1,0-2.1,0-3.2,0c-0.1-0.7-0.3-1.4-0.4-2.2c1,0.1,2.1,0.2,3.1,0.2c1.5,0,2.2-0.8,2.2-2.5
			v-6.4c-2.5,3.7-5.9,6.9-9.8,9.1c-0.4-0.7-0.9-1.3-1.4-1.8c3.9-2.1,7.3-5,9.9-8.7h-8.9L100.4,299.8z"/>
		<path class="st0" d="M79.5,80.7v1.5H66.2v-1.5h6.2v-7.4h-6.2v-1.5h13.3v1.5h-5.8v7.4H79.5z"/>
		<path class="st0" d="M79.5,90.8v1.5H66.2v-1.5H79.5z"/>
		<path class="st0" d="M79.5,110.3h-1.3v-4.5h-12v-1.5h12v-4.5h1.3V110.3z"/>
		<path class="st0" d="M66.2,139.3v-2.1l6-4.6v-3.5h-6v-1.5h13.3v6.2c-0.1,2.8-1.3,4.3-3.6,4.5c-2.3,0-3.5-1.3-3.7-4L66.2,139.3z
			 M78.1,129.2h-4.6v4.3c0,2.2,0.9,3.3,2.4,3.3c1.4,0,2.1-1.1,2.2-3.3V129.2z"/>
		<path class="st0" d="M66,152.2c0.2-4,2.4-6.1,6.6-6.3c4.5,0.2,6.9,2.3,7.1,6.5c-0.3,3.9-2.6,6-7,6.3
			C68.4,158.5,66.2,156.4,66,152.2z M78.3,152.3c-0.3-2.9-2.1-4.5-5.6-4.8c-3.4,0.2-5.2,1.7-5.5,4.7c0.2,3.1,2,4.7,5.5,4.9
			C76.2,156.8,78.1,155.2,78.3,152.3L78.3,152.3z"/>
		<path class="st0" d="M66.2,171.7v-5.5h13.3v5.2c-0.1,2.7-1.2,4.1-3.3,4.2c-1.5,0-2.8-1.2-2.9-2.7h-0.1c-0.1,1.8-1.6,3.2-3.4,3.2
			C67.5,176.1,66.3,174.6,66.2,171.7z M78.1,171.1v-3.4h-4.4v3.4c0.1,1.8,0.9,2.8,2.4,3C77.4,174,78.1,173,78.1,171.1L78.1,171.1z
			 M72.4,171.3v-3.6h-5v3.9c0,2.1,0.9,3.1,2.6,3.1C71.5,174.5,72.3,173.4,72.4,171.3L72.4,171.3z"/>
		<path class="st0" d="M66,189.8c0.2-4,2.4-6.1,6.6-6.3c4.5,0.2,6.9,2.3,7.1,6.5c-0.3,3.9-2.6,6-7,6.3C68.4,196.2,66.2,194,66,189.8
			z M78.3,189.9c-0.3-2.9-2.1-4.5-5.6-4.8c-3.4,0.2-5.2,1.7-5.5,4.7c0.2,3.1,2,4.7,5.5,4.9C76.2,194.4,78.1,192.8,78.3,189.9
			L78.3,189.9z"/>
		<path class="st0" d="M79.5,213.5h-1.3V209h-12v-1.5h12V203h1.3V213.5z"/>
		<path class="st0" d="M73,237v5.7h-4.8c-1.5-1.1-2.2-3-2.2-5.7c0.2-4.2,2.4-6.3,6.6-6.6c4.5,0.2,6.8,2.3,7,6.3c0,3-1.3,4.9-3.9,5.9
			l-0.4-1.7c1.9-0.6,3.1-2.4,3-4.3c-0.3-2.8-2.1-4.4-5.6-4.6c-3.4,0.2-5.2,1.9-5.5,4.9c-0.2,1.6,0.4,3.2,1.6,4.3h3V237H73z"/>
		<path class="st0" d="M66.2,262.3v-2.1l6-4.6v-3.5h-6v-1.5h13.3v6.2c-0.1,2.8-1.3,4.3-3.6,4.5c-2.3,0-3.5-1.3-3.7-4L66.2,262.3z
			 M78.1,252.1h-4.6v4.3c0,2.2,0.9,3.2,2.4,3.3c1.4,0,2.1-1.1,2.2-3.3V252.1z"/>
		<path class="st0" d="M66,275.1c0.2-4,2.4-6.1,6.6-6.3c4.5,0.2,6.9,2.3,7.1,6.5c-0.3,3.9-2.6,6-7,6.3
			C68.4,281.5,66.2,279.3,66,275.1z M78.3,275.2c-0.3-2.9-2.1-4.5-5.6-4.8c-3.4,0.2-5.2,1.8-5.5,4.7c0.2,3.1,2,4.7,5.5,4.9
			C76.2,279.7,78.1,278.1,78.3,275.2L78.3,275.2z"/>
		<path class="st0" d="M79.5,299.7h-7.8c-3.8,0-5.7-1.7-5.7-5.3s1.9-5.3,5.7-5.2h7.8v1.5h-7.7c-3.1,0-4.7,1.2-4.6,3.6
			c-0.1,2.7,1.4,4,4.6,3.9h7.7V299.7z"/>
		<path class="st0" d="M71.6,313.7v-4.1h-5.4v-1.5h13.3v5.7c-0.1,2.7-1.4,4.1-3.9,4.4C72.9,318.3,71.6,316.7,71.6,313.7z
			 M78.1,313.5v-3.9h-5.2v3.9c0,2.1,1,3.2,2.7,3.3C77.2,316.6,78.1,315.5,78.1,313.5z"/>
		<text transform="matrix(0.95 0 0 1 63.4632 378.5399)" class="st1 st2 st3">■</text>
		<text transform="matrix(0.95 0 0 1 78.7739 378.5399)" class="st4 st2 st5"> </text>
		<text transform="matrix(0.95 0 0 1 80.959 379.2675)" class="st4 st6 st5">标准字体制图</text>
		<rect x="14.7" y="31" class="st7" width="23" height="23.3"/>
		<path class="st4" d="M23.6,42.8l-0.9,2.5h-1.2l3.2-8.6H26l3.1,8.6h-1.2L27,42.8H23.6z M26.6,41.8L25.3,38l0,0l-1.4,3.8H26.6z"/>
		<rect x="14.4" y="30.9" class="st8" width="165" height="329.8"/>
		<line class="st9" x1="37.9" y1="30.9" x2="37.9" y2="360.8"/>
		<line class="st9" x1="61.6" y1="30.9" x2="61.6" y2="360.8"/>
		<line class="st9" x1="85.1" y1="30.9" x2="85.1" y2="360.8"/>
		<line class="st9" x1="108.7" y1="30.9" x2="108.7" y2="360.8"/>
		<line class="st9" x1="132.2" y1="30.9" x2="132.2" y2="360.8"/>
		<line class="st9" x1="155.8" y1="30.9" x2="155.8" y2="360.8"/>
		<line class="st9" x1="179.4" y1="337.2" x2="14.2" y2="337.2"/>
		<line class="st9" x1="179.4" y1="313.6" x2="14.2" y2="313.6"/>
		<line class="st9" x1="179.4" y1="290" x2="14.2" y2="290"/>
		<line class="st9" x1="179.4" y1="266.5" x2="14.2" y2="266.5"/>
		<line class="st9" x1="179.4" y1="242.9" x2="14.2" y2="242.9"/>
		<line class="st9" x1="179.4" y1="219.4" x2="14.2" y2="219.4"/>
		<line class="st9" x1="179.4" y1="195.8" x2="14.2" y2="195.8"/>
		<line class="st9" x1="179.4" y1="172.2" x2="14.2" y2="172.2"/>
		<line class="st9" x1="179.4" y1="148.7" x2="14.2" y2="148.7"/>
		<line class="st9" x1="179.4" y1="125.1" x2="14.2" y2="125.1"/>
		<line class="st9" x1="179.4" y1="101.6" x2="14.2" y2="101.6"/>
		<line class="st9" x1="179.4" y1="78" x2="14.2" y2="78"/>
		<line class="st9" x1="179.4" y1="54.5" x2="14.2" y2="54.5"/>
		<line class="st10" x1="136.9" y1="54.4" x2="136.9" y2="337.1"/>
		<line class="st10" x1="141.6" y1="54.4" x2="141.6" y2="337.1"/>
		<line class="st10" x1="146.4" y1="54.4" x2="146.4" y2="337.1"/>
		<line class="st10" x1="151.1" y1="54.4" x2="151.1" y2="337.1"/>
		<line class="st10" x1="155.8" y1="332.4" x2="132.2" y2="332.4"/>
		<line class="st10" x1="155.8" y1="327.6" x2="132.2" y2="327.6"/>
		<line class="st10" x1="155.8" y1="322.9" x2="132.2" y2="322.9"/>
		<line class="st10" x1="155.8" y1="318.2" x2="132.2" y2="318.2"/>
		<line class="st10" x1="155.8" y1="308.8" x2="132.2" y2="308.8"/>
		<line class="st10" x1="155.8" y1="304.1" x2="132.2" y2="304.1"/>
		<line class="st10" x1="155.8" y1="299.4" x2="132.2" y2="299.4"/>
		<line class="st10" x1="155.8" y1="294.7" x2="132.2" y2="294.7"/>
		<line class="st10" x1="155.8" y1="285.3" x2="132.2" y2="285.3"/>
		<line class="st10" x1="155.8" y1="280.6" x2="132.2" y2="280.6"/>
		<line class="st10" x1="155.8" y1="275.9" x2="132.2" y2="275.9"/>
		<line class="st10" x1="155.8" y1="271.1" x2="132.2" y2="271.1"/>
		<line class="st10" x1="155.8" y1="261.7" x2="132.2" y2="261.7"/>
		<line class="st10" x1="155.8" y1="257" x2="132.2" y2="257"/>
		<line class="st10" x1="155.8" y1="252.3" x2="132.2" y2="252.3"/>
		<line class="st10" x1="155.8" y1="247.6" x2="132.2" y2="247.6"/>
		<line class="st10" x1="155.8" y1="238.1" x2="132.2" y2="238.1"/>
		<line class="st10" x1="155.8" y1="233.4" x2="132.2" y2="233.4"/>
		<line class="st10" x1="155.8" y1="228.7" x2="132.2" y2="228.7"/>
		<line class="st10" x1="155.8" y1="224" x2="132.2" y2="224"/>
		<line class="st10" x1="155.8" y1="214.6" x2="132.2" y2="214.6"/>
		<line class="st10" x1="155.8" y1="209.9" x2="132.2" y2="209.9"/>
		<line class="st10" x1="155.8" y1="205.2" x2="132.2" y2="205.2"/>
		<line class="st10" x1="155.8" y1="200.4" x2="132.2" y2="200.4"/>
		<line class="st10" x1="155.8" y1="191.1" x2="132.2" y2="191.1"/>
		<line class="st10" x1="155.8" y1="186.3" x2="132.2" y2="186.3"/>
		<line class="st10" x1="155.8" y1="181.6" x2="132.2" y2="181.6"/>
		<line class="st10" x1="155.8" y1="176.9" x2="132.2" y2="176.9"/>
		<line class="st10" x1="155.8" y1="167.5" x2="132.2" y2="167.5"/>
		<line class="st10" x1="155.8" y1="162.8" x2="132.2" y2="162.8"/>
		<line class="st10" x1="155.8" y1="158.1" x2="132.2" y2="158.1"/>
		<line class="st10" x1="155.8" y1="153.4" x2="132.2" y2="153.4"/>
		<path class="st10" d="M132.2,148.6"/>
		<path class="st10" d="M155.8,148.6"/>
		<line class="st10" x1="155.8" y1="143.9" x2="132.2" y2="143.9"/>
		<line class="st10" x1="155.8" y1="139.2" x2="132.2" y2="139.2"/>
		<line class="st10" x1="155.8" y1="134.5" x2="132.2" y2="134.5"/>
		<line class="st10" x1="155.8" y1="129.8" x2="132.2" y2="129.8"/>
		<line class="st10" x1="155.8" y1="120.4" x2="132.2" y2="120.4"/>
		<line class="st10" x1="155.8" y1="115.6" x2="132.2" y2="115.6"/>
		<line class="st10" x1="155.8" y1="110.9" x2="132.2" y2="110.9"/>
		<line class="st10" x1="155.8" y1="106.2" x2="132.2" y2="106.2"/>
		<line class="st10" x1="155.8" y1="96.8" x2="132.2" y2="96.8"/>
		<line class="st10" x1="155.8" y1="92.1" x2="132.2" y2="92.1"/>
		<line class="st10" x1="155.8" y1="87.4" x2="132.2" y2="87.4"/>
		<line class="st10" x1="155.8" y1="82.7" x2="132.2" y2="82.7"/>
		<line class="st10" x1="155.8" y1="73.3" x2="132.2" y2="73.3"/>
		<line class="st10" x1="155.8" y1="68.6" x2="132.2" y2="68.6"/>
		<line class="st10" x1="155.8" y1="63.9" x2="132.2" y2="63.9"/>
		<line class="st10" x1="155.8" y1="59.1" x2="132.2" y2="59.1"/>
		<line class="st10" x1="113.3" y1="54.4" x2="113.3" y2="337.1"/>
		<line class="st10" x1="118" y1="54.4" x2="118" y2="337.1"/>
		<line class="st10" x1="122.8" y1="54.4" x2="122.8" y2="337.1"/>
		<line class="st10" x1="127.5" y1="54.4" x2="127.5" y2="337.1"/>
		<line class="st10" x1="132.2" y1="332.4" x2="108.6" y2="332.4"/>
		<line class="st10" x1="132.2" y1="327.6" x2="108.6" y2="327.6"/>
		<line class="st10" x1="132.2" y1="322.9" x2="108.6" y2="322.9"/>
		<line class="st10" x1="132.2" y1="318.2" x2="108.6" y2="318.2"/>
		<line class="st10" x1="132.2" y1="308.8" x2="108.6" y2="308.8"/>
		<line class="st10" x1="132.2" y1="304.1" x2="108.6" y2="304.1"/>
		<line class="st10" x1="132.2" y1="299.4" x2="108.6" y2="299.4"/>
		<line class="st10" x1="132.2" y1="294.7" x2="108.6" y2="294.7"/>
		<line class="st10" x1="132.2" y1="285.3" x2="108.6" y2="285.3"/>
		<line class="st10" x1="132.2" y1="280.6" x2="108.6" y2="280.6"/>
		<line class="st10" x1="132.2" y1="275.9" x2="108.6" y2="275.9"/>
		<line class="st10" x1="132.2" y1="271.1" x2="108.6" y2="271.1"/>
		<line class="st10" x1="132.2" y1="261.7" x2="108.6" y2="261.7"/>
		<line class="st10" x1="132.2" y1="257" x2="108.6" y2="257"/>
		<line class="st10" x1="132.2" y1="252.3" x2="108.6" y2="252.3"/>
		<line class="st10" x1="132.2" y1="247.6" x2="108.6" y2="247.6"/>
		<line class="st10" x1="132.2" y1="238.1" x2="108.6" y2="238.1"/>
		<line class="st10" x1="132.2" y1="233.4" x2="108.6" y2="233.4"/>
		<line class="st10" x1="132.2" y1="228.7" x2="108.6" y2="228.7"/>
		<line class="st10" x1="132.2" y1="224" x2="108.6" y2="224"/>
		<line class="st10" x1="132.2" y1="214.6" x2="108.6" y2="214.6"/>
		<line class="st10" x1="132.2" y1="209.9" x2="108.6" y2="209.9"/>
		<line class="st10" x1="132.2" y1="205.2" x2="108.6" y2="205.2"/>
		<line class="st10" x1="132.2" y1="200.4" x2="108.6" y2="200.4"/>
		<line class="st10" x1="132.2" y1="191.1" x2="108.6" y2="191.1"/>
		<line class="st10" x1="132.2" y1="186.3" x2="108.6" y2="186.3"/>
		<line class="st10" x1="132.2" y1="181.6" x2="108.6" y2="181.6"/>
		<line class="st10" x1="132.2" y1="176.9" x2="108.6" y2="176.9"/>
		<line class="st10" x1="132.2" y1="167.5" x2="108.6" y2="167.5"/>
		<line class="st10" x1="132.2" y1="162.8" x2="108.6" y2="162.8"/>
		<line class="st10" x1="132.2" y1="158.1" x2="108.6" y2="158.1"/>
		<line class="st10" x1="132.2" y1="153.4" x2="108.6" y2="153.4"/>
		<line class="st10" x1="132.2" y1="143.9" x2="108.6" y2="143.9"/>
		<line class="st10" x1="132.2" y1="139.2" x2="108.6" y2="139.2"/>
		<line class="st10" x1="132.2" y1="134.5" x2="108.6" y2="134.5"/>
		<line class="st10" x1="132.2" y1="129.8" x2="108.6" y2="129.8"/>
		<line class="st10" x1="132.2" y1="120.4" x2="108.6" y2="120.4"/>
		<line class="st10" x1="132.2" y1="115.6" x2="108.6" y2="115.6"/>
		<line class="st10" x1="132.2" y1="110.9" x2="108.6" y2="110.9"/>
		<line class="st10" x1="132.2" y1="106.2" x2="108.6" y2="106.2"/>
		<line class="st10" x1="132.2" y1="96.8" x2="108.6" y2="96.8"/>
		<line class="st10" x1="132.2" y1="92.1" x2="108.6" y2="92.1"/>
		<line class="st10" x1="132.2" y1="87.4" x2="108.6" y2="87.4"/>
		<line class="st10" x1="132.2" y1="82.7" x2="108.6" y2="82.7"/>
		<line class="st10" x1="132.2" y1="73.3" x2="108.6" y2="73.3"/>
		<line class="st10" x1="132.2" y1="68.6" x2="108.6" y2="68.6"/>
		<line class="st10" x1="132.2" y1="63.9" x2="108.6" y2="63.9"/>
		<line class="st10" x1="132.2" y1="59.1" x2="108.6" y2="59.1"/>
		<line class="st10" x1="89.8" y1="54.4" x2="89.8" y2="337.1"/>
		<line class="st10" x1="94.5" y1="54.4" x2="94.5" y2="337.1"/>
		<line class="st10" x1="99.2" y1="54.4" x2="99.2" y2="337.1"/>
		<line class="st10" x1="104" y1="54.4" x2="104" y2="337.1"/>
		<line class="st10" x1="108.7" y1="332.4" x2="85" y2="332.4"/>
		<line class="st10" x1="108.7" y1="327.6" x2="85" y2="327.6"/>
		<line class="st10" x1="108.7" y1="322.9" x2="85" y2="322.9"/>
		<line class="st10" x1="108.7" y1="318.2" x2="85" y2="318.2"/>
		<line class="st10" x1="108.7" y1="308.8" x2="85" y2="308.8"/>
		<line class="st10" x1="108.7" y1="304.1" x2="85" y2="304.1"/>
		<line class="st10" x1="108.7" y1="299.4" x2="85" y2="299.4"/>
		<line class="st10" x1="108.7" y1="294.7" x2="85" y2="294.7"/>
		<line class="st10" x1="108.7" y1="285.3" x2="85" y2="285.3"/>
		<line class="st10" x1="108.7" y1="280.6" x2="85" y2="280.6"/>
		<line class="st10" x1="108.7" y1="275.9" x2="85" y2="275.9"/>
		<line class="st10" x1="108.7" y1="271.1" x2="85" y2="271.1"/>
		<line class="st10" x1="108.7" y1="261.7" x2="85" y2="261.7"/>
		<line class="st10" x1="108.7" y1="257" x2="85" y2="257"/>
		<line class="st10" x1="108.7" y1="252.3" x2="85" y2="252.3"/>
		<line class="st10" x1="108.7" y1="247.6" x2="85" y2="247.6"/>
		<line class="st10" x1="108.7" y1="238.1" x2="85" y2="238.1"/>
		<line class="st10" x1="108.7" y1="233.4" x2="85" y2="233.4"/>
		<line class="st10" x1="108.7" y1="228.7" x2="85" y2="228.7"/>
		<line class="st10" x1="108.7" y1="224" x2="85" y2="224"/>
		<line class="st10" x1="108.7" y1="214.6" x2="85" y2="214.6"/>
		<line class="st10" x1="108.7" y1="209.9" x2="85" y2="209.9"/>
		<line class="st10" x1="108.7" y1="205.2" x2="85" y2="205.2"/>
		<line class="st10" x1="108.7" y1="200.4" x2="85" y2="200.4"/>
		<line class="st10" x1="108.7" y1="191.1" x2="85" y2="191.1"/>
		<line class="st10" x1="108.7" y1="186.3" x2="85" y2="186.3"/>
		<line class="st10" x1="108.7" y1="181.6" x2="85" y2="181.6"/>
		<line class="st10" x1="108.7" y1="176.9" x2="85" y2="176.9"/>
		<line class="st10" x1="108.7" y1="167.5" x2="85" y2="167.5"/>
		<line class="st10" x1="108.7" y1="162.8" x2="85" y2="162.8"/>
		<line class="st10" x1="108.7" y1="158.1" x2="85" y2="158.1"/>
		<line class="st10" x1="108.7" y1="153.4" x2="85" y2="153.4"/>
		<line class="st10" x1="108.7" y1="143.9" x2="85" y2="143.9"/>
		<line class="st10" x1="108.7" y1="139.2" x2="85" y2="139.2"/>
		<line class="st10" x1="108.7" y1="134.5" x2="85" y2="134.5"/>
		<line class="st10" x1="108.7" y1="129.8" x2="85" y2="129.8"/>
		<line class="st10" x1="108.7" y1="120.4" x2="85" y2="120.4"/>
		<line class="st10" x1="108.7" y1="115.6" x2="85" y2="115.6"/>
		<line class="st10" x1="108.7" y1="110.9" x2="85" y2="110.9"/>
		<line class="st10" x1="108.7" y1="106.2" x2="85" y2="106.2"/>
		<line class="st10" x1="108.7" y1="96.8" x2="85" y2="96.8"/>
		<line class="st10" x1="108.7" y1="92.1" x2="85" y2="92.1"/>
		<line class="st10" x1="108.7" y1="87.4" x2="85" y2="87.4"/>
		<line class="st10" x1="108.7" y1="82.7" x2="85" y2="82.7"/>
		<line class="st10" x1="108.7" y1="73.3" x2="85" y2="73.3"/>
		<line class="st10" x1="108.7" y1="68.6" x2="85" y2="68.6"/>
		<line class="st10" x1="108.7" y1="63.9" x2="85" y2="63.9"/>
		<line class="st10" x1="108.7" y1="59.1" x2="85" y2="59.1"/>
		<line class="st10" x1="66.3" y1="54.4" x2="66.3" y2="337.1"/>
		<line class="st10" x1="71" y1="54.4" x2="71" y2="337.1"/>
		<line class="st10" x1="75.7" y1="54.4" x2="75.7" y2="337.1"/>
		<line class="st10" x1="80.4" y1="54.4" x2="80.4" y2="337.1"/>
		<line class="st10" x1="85.2" y1="332.4" x2="61.5" y2="332.4"/>
		<line class="st10" x1="85.2" y1="327.6" x2="61.5" y2="327.6"/>
		<line class="st10" x1="85.2" y1="322.9" x2="61.5" y2="322.9"/>
		<line class="st10" x1="85.2" y1="318.2" x2="61.5" y2="318.2"/>
		<line class="st10" x1="85.2" y1="308.8" x2="61.5" y2="308.8"/>
		<line class="st10" x1="85.2" y1="304.1" x2="61.5" y2="304.1"/>
		<line class="st10" x1="85.2" y1="299.4" x2="61.5" y2="299.4"/>
		<line class="st10" x1="85.2" y1="294.7" x2="61.5" y2="294.7"/>
		<line class="st10" x1="85.2" y1="285.3" x2="61.5" y2="285.3"/>
		<line class="st10" x1="85.2" y1="280.6" x2="61.5" y2="280.6"/>
		<line class="st10" x1="85.2" y1="275.9" x2="61.5" y2="275.9"/>
		<line class="st10" x1="85.2" y1="271.1" x2="61.5" y2="271.1"/>
		<line class="st10" x1="85.2" y1="261.7" x2="61.5" y2="261.7"/>
		<line class="st10" x1="85.2" y1="257" x2="61.5" y2="257"/>
		<line class="st10" x1="85.2" y1="252.3" x2="61.5" y2="252.3"/>
		<line class="st10" x1="85.2" y1="247.6" x2="61.5" y2="247.6"/>
		<line class="st10" x1="85.2" y1="238.1" x2="61.5" y2="238.1"/>
		<line class="st10" x1="85.2" y1="233.4" x2="61.5" y2="233.4"/>
		<line class="st10" x1="85.2" y1="228.7" x2="61.5" y2="228.7"/>
		<line class="st10" x1="85.2" y1="224" x2="61.5" y2="224"/>
		<line class="st10" x1="85.2" y1="214.6" x2="61.5" y2="214.6"/>
		<line class="st10" x1="85.2" y1="209.9" x2="61.5" y2="209.9"/>
		<line class="st10" x1="85.2" y1="205.2" x2="61.5" y2="205.2"/>
		<line class="st10" x1="85.2" y1="200.4" x2="61.5" y2="200.4"/>
		<line class="st10" x1="85.2" y1="191.1" x2="61.5" y2="191.1"/>
		<line class="st10" x1="85.2" y1="186.3" x2="61.5" y2="186.3"/>
		<line class="st10" x1="85.2" y1="181.6" x2="61.5" y2="181.6"/>
		<line class="st10" x1="85.2" y1="176.9" x2="61.5" y2="176.9"/>
		<line class="st10" x1="85.2" y1="167.5" x2="61.5" y2="167.5"/>
		<line class="st10" x1="85.2" y1="162.8" x2="61.5" y2="162.8"/>
		<line class="st10" x1="85.2" y1="158.1" x2="61.5" y2="158.1"/>
		<line class="st10" x1="85.2" y1="153.4" x2="61.5" y2="153.4"/>
		<line class="st10" x1="85.2" y1="143.9" x2="61.5" y2="143.9"/>
		<line class="st10" x1="85.2" y1="139.2" x2="61.5" y2="139.2"/>
		<line class="st10" x1="85.2" y1="134.5" x2="61.5" y2="134.5"/>
		<line class="st10" x1="85.2" y1="129.8" x2="61.5" y2="129.8"/>
		<line class="st10" x1="85.2" y1="120.4" x2="61.5" y2="120.4"/>
		<line class="st10" x1="85.2" y1="115.6" x2="61.5" y2="115.6"/>
		<line class="st10" x1="85.2" y1="110.9" x2="61.5" y2="110.9"/>
		<line class="st10" x1="85.2" y1="106.2" x2="61.5" y2="106.2"/>
		<line class="st10" x1="85.2" y1="96.8" x2="61.5" y2="96.8"/>
		<line class="st10" x1="85.2" y1="92.1" x2="61.5" y2="92.1"/>
		<line class="st10" x1="85.2" y1="87.4" x2="61.5" y2="87.4"/>
		<line class="st10" x1="85.2" y1="82.7" x2="61.5" y2="82.7"/>
		<line class="st10" x1="85.2" y1="73.3" x2="61.5" y2="73.3"/>
		<line class="st10" x1="85.2" y1="68.6" x2="61.5" y2="68.6"/>
		<line class="st10" x1="85.2" y1="63.9" x2="61.5" y2="63.9"/>
		<line class="st10" x1="85.2" y1="59.1" x2="61.5" y2="59.1"/>
		<line class="st10" x1="42.7" y1="54.4" x2="42.7" y2="337.1"/>
		<line class="st10" x1="47.4" y1="54.4" x2="47.4" y2="337.1"/>
		<line class="st10" x1="52.2" y1="54.4" x2="52.2" y2="337.1"/>
		<line class="st10" x1="56.9" y1="54.4" x2="56.9" y2="337.1"/>
		<line class="st10" x1="61.6" y1="332.4" x2="38" y2="332.4"/>
		<line class="st10" x1="61.6" y1="327.6" x2="38" y2="327.6"/>
		<line class="st10" x1="61.6" y1="322.9" x2="38" y2="322.9"/>
		<line class="st10" x1="61.6" y1="318.2" x2="38" y2="318.2"/>
		<line class="st10" x1="61.6" y1="308.8" x2="38" y2="308.8"/>
		<line class="st10" x1="61.6" y1="304.1" x2="38" y2="304.1"/>
		<line class="st10" x1="61.6" y1="299.4" x2="38" y2="299.4"/>
		<line class="st10" x1="61.6" y1="294.7" x2="38" y2="294.7"/>
		<line class="st10" x1="61.6" y1="285.3" x2="38" y2="285.3"/>
		<line class="st10" x1="61.6" y1="280.6" x2="38" y2="280.6"/>
		<line class="st10" x1="61.6" y1="275.9" x2="38" y2="275.9"/>
		<line class="st10" x1="61.6" y1="271.1" x2="38" y2="271.1"/>
		<line class="st10" x1="61.6" y1="261.7" x2="38" y2="261.7"/>
		<line class="st10" x1="61.6" y1="257" x2="38" y2="257"/>
		<line class="st10" x1="61.6" y1="252.3" x2="38" y2="252.3"/>
		<line class="st10" x1="61.6" y1="247.6" x2="38" y2="247.6"/>
		<line class="st10" x1="61.6" y1="238.1" x2="38" y2="238.1"/>
		<line class="st10" x1="61.6" y1="233.4" x2="38" y2="233.4"/>
		<line class="st10" x1="61.6" y1="228.7" x2="38" y2="228.7"/>
		<line class="st10" x1="61.6" y1="224" x2="38" y2="224"/>
		<line class="st10" x1="61.6" y1="214.6" x2="38" y2="214.6"/>
		<line class="st10" x1="61.6" y1="209.9" x2="38" y2="209.9"/>
		<line class="st10" x1="61.6" y1="205.2" x2="38" y2="205.2"/>
		<line class="st10" x1="61.6" y1="200.4" x2="38" y2="200.4"/>
		<line class="st10" x1="61.6" y1="191.1" x2="38" y2="191.1"/>
		<line class="st10" x1="61.6" y1="186.3" x2="38" y2="186.3"/>
		<line class="st10" x1="61.6" y1="181.6" x2="38" y2="181.6"/>
		<line class="st10" x1="61.6" y1="176.9" x2="38" y2="176.9"/>
		<line class="st10" x1="61.6" y1="167.5" x2="38" y2="167.5"/>
		<line class="st10" x1="61.6" y1="162.8" x2="38" y2="162.8"/>
		<line class="st10" x1="61.6" y1="158.1" x2="38" y2="158.1"/>
		<line class="st10" x1="61.6" y1="153.4" x2="38" y2="153.4"/>
		<line class="st10" x1="61.6" y1="143.9" x2="38" y2="143.9"/>
		<line class="st10" x1="61.6" y1="139.2" x2="38" y2="139.2"/>
		<line class="st10" x1="61.6" y1="134.5" x2="38" y2="134.5"/>
		<line class="st10" x1="61.6" y1="129.8" x2="38" y2="129.8"/>
		<line class="st10" x1="61.6" y1="120.4" x2="38" y2="120.4"/>
		<line class="st10" x1="61.6" y1="115.6" x2="38" y2="115.6"/>
		<line class="st10" x1="61.6" y1="110.9" x2="38" y2="110.9"/>
		<line class="st10" x1="61.6" y1="106.2" x2="38" y2="106.2"/>
		<line class="st10" x1="61.6" y1="96.8" x2="38" y2="96.8"/>
		<line class="st10" x1="61.6" y1="92.1" x2="38" y2="92.1"/>
		<line class="st10" x1="61.6" y1="87.4" x2="38" y2="87.4"/>
		<line class="st10" x1="61.6" y1="82.7" x2="38" y2="82.7"/>
		<line class="st10" x1="61.6" y1="73.3" x2="38" y2="73.3"/>
		<line class="st10" x1="61.6" y1="68.6" x2="38" y2="68.6"/>
		<line class="st10" x1="61.6" y1="63.9" x2="38" y2="63.9"/>
		<line class="st10" x1="61.6" y1="59.1" x2="38" y2="59.1"/>
		<line class="st11" x1="122.7" y1="24.5" x2="65.9" y2="24.5"/>
		<line class="st11" x1="122.7" y1="30.8" x2="122.7" y2="17.7"/>
		<line class="st11" x1="65.9" y1="31.1" x2="65.9" y2="18"/>
		<line class="st11" x1="203.6" y1="68.6" x2="203.6" y2="318.4"/>
		<line class="st11" x1="212" y1="318.4" x2="181" y2="318.4"/>
		<line class="st11" x1="212" y1="68.6" x2="181" y2="68.6"/>
		<rect x="194.3" y="163.9" class="st12" width="17.3" height="60.8"/>
		<text transform="matrix(6.123234e-17 1 -1 6.123234e-17 202 175.5266)" class="st4 st2 st13">10.3A</text>
		<text transform="matrix(6.123234e-17 1 -1 6.123234e-17 2.0801 62.8)" class="st4 st2 st14">0</text>
		<text transform="matrix(6.123234e-17 1 -1 6.123234e-17 2.0801 180.99)" class="st4 st2 st14">5</text>
		<text transform="matrix(6.123234e-17 1 -1 6.123234e-17 2.0801 296.6)" class="st4 st2 st14">10</text>
		<text transform="matrix(1 0 0 1 83.57 15.5)" class="st4 st2 st14">2.7A</text>
	</g>
</g>
</svg>
