<svg xmlns="http://www.w3.org/2000/svg" viewBox="0 0 219.54 219.54"><defs><style>.cls-1{fill:#fff;stroke:#231815;stroke-width:0.22px;}.cls-2{fill:#231815;}</style></defs><title>hitrobot_nobody_top_down_black</title><g id="图层_2" data-name="图层 2"><g id="图层_1-2" data-name="图层 1"><rect class="cls-1" x="0.11" y="0.11" width="219.31" height="219.31"/><path class="cls-2" d="M55.4,140.81h5l6.51,8.7v-8.7h5v15.72h-5l-6.48-8.63v8.63h-5Z"/><path class="cls-2" d="M74.82,148.68a7.7,7.7,0,0,1,2.36-6,9.42,9.42,0,0,1,6.57-2.14,9.61,9.61,0,0,1,6.66,2.11,7.55,7.55,0,0,1,2.34,5.91,8.93,8.93,0,0,1-1,4.52,7,7,0,0,1-2.95,2.75,10.55,10.55,0,0,1-4.81,1,12,12,0,0,1-4.84-.85A7.06,7.06,0,0,1,76,153.28,8.26,8.26,0,0,1,74.82,148.68Zm5.35,0a4.93,4.93,0,0,0,1,3.42,3.94,3.94,0,0,0,5.32,0,5.42,5.42,0,0,0,.94-3.66,4.56,4.56,0,0,0-1-3.25,3.54,3.54,0,0,0-2.67-1,3.39,3.39,0,0,0-2.6,1A4.94,4.94,0,0,0,80.17,148.71Z"/><path class="cls-2" d="M95.63,140.81h10a5.81,5.81,0,0,1,3.84,1.13,3.51,3.51,0,0,1,1.34,2.79,3.34,3.34,0,0,1-1,2.39,4.34,4.34,0,0,1-1.87,1,5,5,0,0,1,2.74,1.4,3.62,3.62,0,0,1,.88,2.49,4,4,0,0,1-.62,2.2,4.42,4.42,0,0,1-1.71,1.54,6.07,6.07,0,0,1-2,.51q-1.8.22-2.39.21H95.63ZM101,147h2.32a2.87,2.87,0,0,0,1.74-.39,1.37,1.37,0,0,0,.49-1.13,1.29,1.29,0,0,0-.49-1.07,2.82,2.82,0,0,0-1.71-.39H101Zm0,6.18h2.73a3.23,3.23,0,0,0,1.95-.45,1.44,1.44,0,0,0,.56-1.2,1.34,1.34,0,0,0-.56-1.12,3.38,3.38,0,0,0-2-.42H101Z"/><path class="cls-2" d="M113.75,148.68a7.7,7.7,0,0,1,2.36-6,9.43,9.43,0,0,1,6.57-2.14q4.32,0,6.65,2.11a7.55,7.55,0,0,1,2.34,5.91,9,9,0,0,1-1,4.52,7,7,0,0,1-3,2.75,10.53,10.53,0,0,1-4.81,1A12,12,0,0,1,118,156a7.07,7.07,0,0,1-3.11-2.68A8.28,8.28,0,0,1,113.75,148.68Zm5.35,0a4.93,4.93,0,0,0,1,3.42,3.94,3.94,0,0,0,5.32,0,5.42,5.42,0,0,0,.94-3.66,4.55,4.55,0,0,0-1-3.25,3.54,3.54,0,0,0-2.67-1,3.39,3.39,0,0,0-2.6,1A4.94,4.94,0,0,0,119.09,148.71Z"/><path class="cls-2" d="M134.62,140.81h7.94a10.35,10.35,0,0,1,3.79.58,6.13,6.13,0,0,1,2.39,1.66,6.63,6.63,0,0,1,1.37,2.52,10.69,10.69,0,0,1,.43,3,9.72,9.72,0,0,1-.63,3.91,6.51,6.51,0,0,1-1.75,2.33,5.91,5.91,0,0,1-2.41,1.25,13.59,13.59,0,0,1-3.19.43h-7.94Zm5.34,3.56V153h1.31a6,6,0,0,0,2.38-.34,2.37,2.37,0,0,0,1.11-1.18,6.78,6.78,0,0,0,.4-2.73,4.94,4.94,0,0,0-.9-3.42,4,4,0,0,0-3-.92Z"/><path class="cls-2" d="M151.6,140.81h5.94l3.49,5.31,3.49-5.31h5.91l-6.72,9.14v6.59h-5.36v-6.59Z"/><path class="cls-2" d="M59.07,159.25h1v5.86h-1v-2.6H56.21v2.6h-1v-5.86h1v2.41h2.86Z"/><path class="cls-2" d="M64.1,159.25h1v5.86h-1Z"/><path class="cls-2" d="M73.55,160.1h-2v5h-1v-5h-2v-.85h4.9Z"/><path class="cls-2" d="M87.18,165.11h-1.3l-2-2.49H82.7v2.49h-1v-5.89h2.75q2,.06,2.07,1.67A1.57,1.57,0,0,1,85,162.57Zm-4.47-5v1.64h1.61c.85,0,1.26-.29,1.25-.88s-.44-.75-1.25-.76Z"/><path class="cls-2" d="M93.25,159.14q2.69.17,2.89,3-.08,2.94-2.94,3a2.75,2.75,0,0,1-2.89-3A2.82,2.82,0,0,1,93.25,159.14Zm-.08,5.26q1.9-.09,2-2.21-.14-2-1.9-2.21-1.81.14-1.93,2.21Q91.39,164.26,93.17,164.41Z"/><path class="cls-2" d="M102.47,165.11H99.81v-5.86h2.52q1.87.09,2,1.53a1.33,1.33,0,0,1-.74,1.22,1.52,1.52,0,0,1,1,1.44Q104.57,165.12,102.47,165.11Zm-1.73-5v1.56h1.44q1.1,0,1.13-.82c0-.47-.41-.72-1.1-.74Zm1.56,2.41h-1.56v1.78h1.64q1.19,0,1.19-.91C103.54,162.82,103.12,162.53,102.3,162.51Z"/><path class="cls-2" d="M111,159.14q2.69.17,2.89,3-.09,2.94-2.94,3a2.76,2.76,0,0,1-2.89-3A2.82,2.82,0,0,1,111,159.14Zm-.08,5.26q1.9-.09,2-2.21-.14-2-1.9-2.21-1.81.14-1.93,2.21Q109.15,164.26,110.93,164.41Z"/><path class="cls-2" d="M122,160.1h-2v5h-1v-5h-2v-.85H122Z"/><path class="cls-2" d="M132.82,161.92h2.8v2.24a3.06,3.06,0,0,1-2.61,1,2.8,2.8,0,0,1-3-3q.11-2.94,2.91-3.06a2.65,2.65,0,0,1,2.66,1.73l-1,.28a1.64,1.64,0,0,0-1.67-1.13q-1.75.14-1.87,2.18a2,2,0,0,0,2,2.18,2.08,2.08,0,0,0,1.67-.6v-1h-1.84Z"/><path class="cls-2" d="M144.87,165.11h-1.3l-2-2.49H140.4v2.49h-1v-5.89h2.75q2,.06,2.07,1.67a1.57,1.57,0,0,1-1.55,1.67Zm-4.47-5v1.64H142c.85,0,1.27-.29,1.25-.88s-.43-.75-1.25-.76Z"/><path class="cls-2" d="M150.95,159.14q2.69.17,2.89,3-.09,2.94-2.94,3a2.75,2.75,0,0,1-2.89-3A2.83,2.83,0,0,1,150.95,159.14Zm-.08,5.26q1.89-.09,2-2.21-.14-2-1.9-2.21-1.81.14-1.92,2.21Q149.08,164.26,150.87,164.41Z"/><path class="cls-2" d="M161.39,159.25h1v3.4q.09,2.66-2.46,2.55-2.43.08-2.38-2.55v-3.4h1v3.4q0,1.78,1.42,1.73t1.5-1.73Z"/><path class="cls-2" d="M168.88,162.85h-1.59v2.26h-1v-5.89h2.63q1.92.08,2.07,1.78Q171,162.82,168.88,162.85Zm-.09-2.75h-1.5V162h1.5q1.22,0,1.22-1C170,160.42,169.57,160.12,168.79,160.1Z"/><circle class="cls-2" cx="109.75" cy="92.6" r="3.54"/><path class="cls-2" d="M141,69.31V89c-1.79,5.65-4.45,8.09-7.35,8.68V62.09a38.92,38.92,0,0,0-53.32,56v-20c1.47-7,4.29-10,7.35-10.87v37.69A38.91,38.91,0,0,0,141,69.31Zm-31.41,39.21A15.92,15.92,0,0,1,95,86.36c-4.13-3-11.6-6.07-14.61,7.78V87.46c0-11.75,10.17-15.73,21.18-8.55a15.85,15.85,0,0,1,23.77,16.27l-5.21-3.55a10.53,10.53,0,1,0-10.49,11.52,10.82,10.82,0,0,0,1.16-.07l5.5,4A15.83,15.83,0,0,1,109.63,108.52ZM141,98.11c0,10.57-7.08,20.22-28.89,1.79a7.68,7.68,0,1,1,5.29-7.3c0,.17,0,.33,0,.5,8.08,6.21,18.31,13.83,23.63-.64Z"/></g></g></svg>