<svg xmlns="http://www.w3.org/2000/svg" viewBox="0 0 286.49 154.76"><defs><style>.cls-1{fill:#231815;}.cls-2{fill:#fff;}</style></defs><title>hitrobot_nobody_white</title><g id="图层_2" data-name="图层 2"><g id="图层_1-2" data-name="图层 1"><rect class="cls-1" width="286.49" height="154.76"/><path class="cls-2" d="M86,60.29h7.54l9.83,13.14V60.29H111V84h-7.61L93.61,71V84H86Z"/><path class="cls-2" d="M115.35,72.18q0-5.82,3.56-9.05t9.93-3.24q6.52,0,10,3.18T142.41,72a13.48,13.48,0,0,1-1.54,6.83A10.51,10.51,0,0,1,136.42,83a15.93,15.93,0,0,1-7.26,1.48,18.1,18.1,0,0,1-7.31-1.28,10.62,10.62,0,0,1-4.7-4A12.46,12.46,0,0,1,115.35,72.18Zm8.07,0q0,3.59,1.47,5.17a6,6,0,0,0,8,0q1.43-1.54,1.43-5.52,0-3.36-1.49-4.9a5.35,5.35,0,0,0-4-1.54A5.14,5.14,0,0,0,124.9,67Q123.42,68.58,123.42,72.21Z"/><path class="cls-2" d="M146.78,60.29h15.11a8.78,8.78,0,0,1,5.8,1.7,5.3,5.3,0,0,1,2,4.21,5,5,0,0,1-1.44,3.61,6.55,6.55,0,0,1-2.82,1.59,7.51,7.51,0,0,1,4.14,2.12,5.47,5.47,0,0,1,1.33,3.76A6,6,0,0,1,170,80.6a6.66,6.66,0,0,1-2.58,2.33,9.11,9.11,0,0,1-3.07.78c-1.82.22-3,.32-3.62.32H146.78Zm8.14,9.31h3.51a4.33,4.33,0,0,0,2.63-.59,2.06,2.06,0,0,0,.74-1.71,1.94,1.94,0,0,0-.74-1.62,4.26,4.26,0,0,0-2.57-.58h-3.57Zm0,9.33H159a4.87,4.87,0,0,0,2.94-.67,2.18,2.18,0,0,0,.86-1.81,2,2,0,0,0-.85-1.69,5.09,5.09,0,0,0-3-.64h-4.1Z"/><path class="cls-2" d="M174.13,72.18q0-5.82,3.57-9.05t9.92-3.24q6.52,0,10,3.18T201.19,72a13.54,13.54,0,0,1-1.54,6.83A10.52,10.52,0,0,1,195.2,83a15.89,15.89,0,0,1-7.26,1.48,18.12,18.12,0,0,1-7.31-1.28,10.63,10.63,0,0,1-4.7-4A12.48,12.48,0,0,1,174.13,72.18Zm8.07,0q0,3.59,1.47,5.17a6,6,0,0,0,8,0q1.42-1.54,1.42-5.52,0-3.36-1.49-4.9a5.34,5.34,0,0,0-4-1.54A5.13,5.13,0,0,0,183.68,67Q182.2,68.58,182.2,72.21Z"/><path class="cls-2" d="M205.65,60.29h12a15.74,15.74,0,0,1,5.73.87A9.29,9.29,0,0,1,227,63.67,10,10,0,0,1,229,67.48a16.06,16.06,0,0,1,.64,4.6,14.66,14.66,0,0,1-1,5.9,9.77,9.77,0,0,1-2.65,3.51,8.92,8.92,0,0,1-3.63,1.89,20.5,20.5,0,0,1-4.81.65h-12Zm8.07,5.38v13h2a9.07,9.07,0,0,0,3.6-.51A3.58,3.58,0,0,0,221,76.35a10.23,10.23,0,0,0,.61-4.12q0-3.77-1.35-5.17t-4.49-1.39Z"/><path class="cls-2" d="M231.29,60.29h9l5.26,8,5.27-8h8.92l-10.16,13.8V84h-8.09V74.09Z"/><path class="cls-2" d="M91.72,88.2h1.49V97H91.72V93.08H87.43V97H86V88.2h1.44v3.61h4.29Z"/><path class="cls-2" d="M99.27,88.2h1.44V97H99.27Z"/><path class="cls-2" d="M113.45,89.47h-2.93V97h-1.45V89.47h-3V88.2h7.35Z"/><path class="cls-2" d="M133.9,97h-2l-3-3.74h-1.78V97h-1.44V88.15h4.12q3,.09,3.1,2.51a2.35,2.35,0,0,1-2.34,2.51Zm-6.71-7.52v2.46h2.42q1.91,0,1.87-1.32,0-1.1-1.87-1.15Z"/><path class="cls-2" d="M143,88q4,.26,4.33,4.55-.13,4.42-4.42,4.55-4.16-.22-4.33-4.5Q138.81,88.24,143,88Zm-.13,7.9q2.84-.12,2.93-3.31-.21-3.06-2.84-3.31-2.72.21-2.89,3.31Q140.21,95.72,142.89,95.93Z"/><path class="cls-2" d="M156.85,97h-4V88.2h3.78q2.8.12,3,2.29a2,2,0,0,1-1.1,1.83A2.28,2.28,0,0,1,160,94.48Q160,97,156.85,97Zm-2.59-7.52v2.34h2.17c1.11,0,1.67-.44,1.7-1.23s-.61-1.08-1.66-1.11Zm2.34,3.61h-2.34v2.68h2.46q1.79,0,1.79-1.36T156.6,93.08Z"/><path class="cls-2" d="M169.67,88q4,.26,4.33,4.55-.13,4.42-4.42,4.55-4.16-.22-4.33-4.5Q165.46,88.24,169.67,88Zm-.13,7.9q2.85-.12,2.93-3.31-.21-3.06-2.85-3.31-2.72.21-2.89,3.31Q166.87,95.72,169.54,95.93Z"/><path class="cls-2" d="M186.18,89.47h-2.93V97H181.8V89.47h-3V88.2h7.35Z"/><path class="cls-2" d="M202.38,92.19h4.2v3.36a4.59,4.59,0,0,1-3.91,1.57q-4.38-.17-4.55-4.5.17-4.42,4.38-4.59a4,4,0,0,1,4,2.59L205,91a2.47,2.47,0,0,0-2.51-1.7q-2.64.21-2.8,3.27.17,3.06,3,3.27a3.13,3.13,0,0,0,2.51-.89V93.46h-2.76Z"/><path class="cls-2" d="M220.46,97h-2l-3-3.74h-1.79V97h-1.44V88.15h4.12c2,.06,3,.89,3.1,2.51a2.35,2.35,0,0,1-2.34,2.51Zm-6.71-7.52v2.46h2.42q1.91,0,1.87-1.32,0-1.1-1.87-1.15Z"/><path class="cls-2" d="M229.59,88q4,.26,4.33,4.55-.13,4.42-4.42,4.55-4.16-.22-4.33-4.5Q225.38,88.24,229.59,88Zm-.13,7.9q2.85-.12,2.93-3.31-.21-3.06-2.85-3.31-2.72.21-2.89,3.31Q226.78,95.72,229.46,95.93Z"/><path class="cls-2" d="M245.25,88.2h1.45v5.09q.12,4-3.7,3.82-3.65.13-3.57-3.82V88.2h1.44v5.09q0,2.68,2.13,2.59,2.34.09,2.25-2.59Z"/><path class="cls-2" d="M256.49,93.59h-2.38V97h-1.48V88.15h3.95q2.89.13,3.1,2.68Q259.63,93.55,256.49,93.59Zm-.13-4.12h-2.25v2.85h2.25c1.22,0,1.83-.5,1.83-1.49S257.52,89.5,256.36,89.47Z"/><circle class="cls-2" cx="49.81" cy="76.95" r="2.32"/><path class="cls-2" d="M70.32,61.68v12.9c-1.17,3.71-2.92,5.3-4.82,5.69V57a25.52,25.52,0,0,0-35,36.69V80.54c1-4.6,2.81-6.55,4.82-7.12V98.13a25.51,25.51,0,0,0,35-36.45ZM49.73,87.39a10.44,10.44,0,0,1-9.6-14.53c-2.71-2-7.6-4-9.58,5.1V73.58c0-7.7,6.66-10.31,13.88-5.61a10.42,10.42,0,0,1,15.73,9A10.62,10.62,0,0,1,60,78.63L56.6,76.31a6.91,6.91,0,1,0-6.87,7.55,6.71,6.71,0,0,0,.76,0l3.61,2.61A10.41,10.41,0,0,1,49.73,87.39Zm20.59-6.83c0,6.93-4.64,13.26-18.94,1.17A5,5,0,1,1,54.84,77c0,.11,0,.22,0,.32,5.3,4.07,12,9.07,15.49-.42Z"/></g></g></svg>