<?xml version="1.0" encoding="utf-8"?>
<!-- Generator: Adobe Illustrator 21.1.0, SVG Export Plug-In . SVG Version: 6.00 Build 0)  -->
<svg version="1.1" id="图层_1" xmlns="http://www.w3.org/2000/svg" xmlns:xlink="http://www.w3.org/1999/xlink" x="0px" y="0px"
	 viewBox="0 0 350.2 227.3" style="enable-background:new 0 0 350.2 227.3;" xml:space="preserve">
<style type="text/css">
	.st0{fill:#898989;}
	.st1{fill:#10386B;}
	.st2{font-family:'ArialMT';}
	.st3{font-size:7.52px;}
	.st4{enable-background:new    ;}
	.st5{fill:#231815;}
	.st6{font-size:8.12px;}
	.st7{font-family:'AdobeSongStd-Light-GBpc-EUC-H';}
	.st8{fill:none;stroke:#231815;stroke-width:0.42;stroke-miterlimit:3.86;}
	.st9{fill:#FFFFFF;}
	.st10{fill:#D3D3D4;}
	.st11{fill:none;stroke:#231815;stroke-width:0.44;}
	.st12{fill:none;stroke:#231815;stroke-width:0.31;stroke-miterlimit:3.86;}
	.st13{fill:none;stroke:#231815;stroke-width:0.19;}
	.st14{font-size:4px;}
	.st15{font-size:6.41px;}
	.st16{font-size:3px;}
</style>
<title>hitrobot_hrg_English_chinese_transverse_logo_ash</title>
<g id="图层_2">
	<g id="图层_1-2">
		<path class="st0" d="M37.9,69.9h7.5v20.2h-2v-2h-3.5v2.5h-2L37.9,69.9z M43.4,86.2V71.9h-3.5v14.3L43.4,86.2z M57,66.6l-0.5,0.8
			c2.2,4.1,5,7,8.3,8.7c-0.5,0.7-1.1,1.3-1.6,2c-3.3-2.2-6-5.3-7.9-8.8c-2,3.5-4.7,6.6-8,8.9c-0.5-0.6-1-1.2-1.5-1.8
			c3.7-2.4,6.7-5.8,8.5-9.8L57,66.6z M48.3,82.8h13.5v11.8h-2.2v-1.7h-9.1v1.7h-2.2V82.8z M49.4,77h11.5v2H49.5L49.4,77z M59.6,90.8
			v-6.1h-9.1v6.1L59.6,90.8z"/>
		<path class="st0" d="M68.9,90.1h12.4v-19H70.5v-2.3h24.2v2.3H83.8v19h12.5v2.2H68.9V90.1z"/>
		<path class="st0" d="M100.5,92.1c7.8-3.5,12-8.7,12.7-15.7H101v-2.2h12.3c0-2.5,0.1-5.1,0.1-7.7h2.5c0,2.6,0,5.1-0.1,7.7h12.6v2.2
			h-12.6c1.3,7.6,5.8,12.6,13.3,15c-0.8,0.7-1.5,1.5-2.2,2.3c-5.9-2.2-10.4-7.2-12.1-13.3c-1.5,5.8-5.6,10.4-12.4,13.8
			C101.9,93.8,101.3,93.1,100.5,92.1z"/>
		<path class="st0" d="M132.5,84.2c2.1-3.1,3.6-6.6,4.5-10.2h-4.3v-2h4.4v-5.6h2V72h4v2h-4v4.7l1.1-1.1c1.5,1.3,2.6,2.4,3.4,3.2
			l-1.5,1.6c-1.2-1.3-2.2-2.4-3-3.2v15h-2V78.9c-0.8,2.8-2.1,5.4-3.8,7.8C133.1,85.8,132.8,85,132.5,84.2z M147.5,70.4v9.4
			c0,6.8-1.7,11.7-5.1,14.8c-0.5-0.6-1.1-1.3-1.7-1.9c3-2.7,4.5-6.8,4.5-12.3V68.2h10.6v21.4c0,0.9,0.3,1.4,1,1.4h0.7
			c0.6,0,1-0.5,1.2-1.6c0.2-1.5,0.3-3,0.4-4.7c0.7,0.3,1.4,0.6,2.2,0.9c-0.2,1.9-0.3,3.4-0.5,4.6c-0.3,2-1.3,3-2.9,3h-1.5
			c-1.8,0-2.7-1.1-2.7-3.2V70.4L147.5,70.4z"/>
		<path class="st0" d="M165.6,78.3H177c0.3-0.8,0.5-1.6,0.6-2.5l2,0.3c-0.1,0.7-0.3,1.5-0.5,2.2h6.2c-0.8-0.6-1.6-1.1-2.4-1.6
			l1.2-1.3c1.2,0.7,2.3,1.4,3.4,2.2l-0.6,0.7h5.3v1.9h-11c2.2,2.1,6.1,3.1,11.7,3c-0.5,0.8-0.8,1.5-1.2,2.2l-1.4-0.1V94h-2v-1.6H182
			V94h-2v-8.8h9.1c-5.4-0.7-8.9-2.4-10.4-5h-0.5c-1.1,2.3-4.5,3.9-10.3,5h9.1V94h-2v-1.6h-6V94h-2v-8.6l-1.6,0.3
			c-0.3-0.6-0.7-1.2-1.1-2c6.3-0.8,10.1-2,11.4-3.4h-10.3L165.6,78.3z M167.1,68h10v8.3h-2v-0.9h-6v1.2h-2V68z M175.1,69.8h-6v3.9h6
			V69.8z M175.1,87h-6v3.7h6V87z M180.1,68h10.1v8.4h-2v-1h-6.1v0.9h-2L180.1,68z M188.2,69.7h-6.1v3.9h6.1V69.7z M188.2,86.9h-6.1
			v3.7h6.1V86.9z"/>
		<path class="st0" d="M196.7,92c8.3-4.8,12.6-13.2,13.1-25.2h2.5c-0.1,1.9-0.3,3.9-0.6,5.8c2.4,9.5,6.8,15.7,13.3,18.7
			c-0.8,0.9-1.5,1.7-2.1,2.5c-5.7-3.2-9.7-8.8-12.1-16.9c-2.1,7.8-6.2,13.6-12.3,17.2C197.9,93.4,197.3,92.7,196.7,92z"/>
		<path class="st0" d="M229.6,85.4h12.3v-1.9h2v1.9h12.2v1.8H246c3.3,2.4,7.1,4,11.1,4.8l-1.3,2.1c-4.4-1.2-8.5-3.4-11.9-6.4v6.7h-2
			v-6.7c-3.5,2.9-7.6,5.1-11.9,6.4c-0.4-0.6-0.8-1.2-1.3-1.8c4-0.9,7.7-2.7,11-5.1h-10L229.6,85.4z M242.2,67.2l1.7-1
			c0.8,0.9,1.6,1.9,2.2,2.9l-1.3,0.8h10.9v1.8h-10.8v2h9.5v1.7h-9.5v2h9.5V79h-9.5v2.1h10.9v1.8H235v1.1h-2V73.8
			c-0.9,1.1-1.9,2.1-3,3.1c-0.4-0.7-0.9-1.3-1.4-1.9c2.8-2.4,5.2-5.3,7-8.5l2,0.9c-0.5,0.9-1.1,1.7-1.6,2.5h8
			C243.4,69,242.8,68.1,242.2,67.2L242.2,67.2z M235,73.7h7.9v-2H235V73.7z M235,77.4h7.9v-2H235V77.4z M235,81.1h7.9V79H235V81.1z"
			/>
		<path class="st0" d="M262.4,67.8h24.9v26.5h-2.2V93h-20.6v1.4h-2.2V67.8z M285.2,69.8h-20.6V91h20.6V69.8z M266,74.8h10.6v-4.1
			h2.1v4.1h5.5v2h-5.5v8.7c0,2.8-1.3,4.1-3.9,4.1c-1.1,0-2.2,0-3.3-0.1c-0.1-0.7-0.3-1.4-0.5-2.3c1.1,0.1,2.2,0.2,3.2,0.2
			c1.6,0,2.3-0.9,2.3-2.7v-6.7c-2.6,3.9-6.1,7.1-10.2,9.5c-0.4-0.7-0.9-1.3-1.4-1.9c4.1-2.2,7.6-5.2,10.3-9H266V74.8z"/>
		<text transform="matrix(0.95 0 0 1 122.75 225.6968)" class="st1 st2 st3">■</text>
		<text transform="matrix(0.95 0 0 1 144.7539 225.0301)" class="st4"><tspan x="0" y="0" class="st5 st2 st6"> </tspan><tspan x="2.3" y="0" class="st5 st7 st6">标准字体制图</tspan></text>
		<line class="st8" x1="341.4" y1="66.2" x2="341.4" y2="94.4"/>
		<line class="st8" x1="348.9" y1="66.2" x2="333.1" y2="66.2"/>
		<line class="st8" x1="349.4" y1="94.4" x2="333.6" y2="94.4"/>
		<rect x="332.9" y="74.5" class="st9" width="17.3" height="11.3"/>
		<line class="st8" x1="37.9" y1="195.1" x2="287.7" y2="195.1"/>
		<line class="st8" x1="287.7" y1="203.5" x2="287.7" y2="172.5"/>
		<line class="st8" x1="37.9" y1="203.5" x2="37.9" y2="172.5"/>
		<rect x="14.7" y="171" class="st9" width="16.2" height="15.9"/>
		<rect x="138" y="181.2" class="st9" width="52" height="26.4"/>
		<rect x="0.4" y="141.9" class="st10" width="23.3" height="23.1"/>
		<path class="st5" d="M10.6,155.1l-0.9,2.5H8.5l3.2-8.6h1.3l3.1,8.6h-1.3l-0.9-2.5H10.6z M13.6,154.1l-1.3-3.8l0,0l-1.4,3.8H13.6z"
			/>
		<rect x="0.2" y="0.2" class="st11" width="330" height="165.1"/>
		<line class="st12" x1="0.2" y1="141.7" x2="330.2" y2="141.7"/>
		<line class="st12" x1="0.2" y1="118" x2="330.2" y2="118"/>
		<line class="st12" x1="0.2" y1="94.5" x2="330.2" y2="94.5"/>
		<line class="st12" x1="0.2" y1="71" x2="330.2" y2="71"/>
		<line class="st12" x1="0.2" y1="47.4" x2="330.2" y2="47.4"/>
		<line class="st12" x1="0.2" y1="23.7" x2="330.2" y2="23.7"/>
		<line class="st12" x1="306.6" y1="0.2" x2="306.6" y2="165.4"/>
		<line class="st12" x1="283.1" y1="0.2" x2="283.1" y2="165.4"/>
		<line class="st12" x1="259.5" y1="0.2" x2="259.5" y2="165.4"/>
		<line class="st12" x1="236" y1="0.2" x2="236" y2="165.4"/>
		<line class="st12" x1="212.4" y1="0.2" x2="212.4" y2="165.4"/>
		<line class="st12" x1="188.8" y1="0.2" x2="188.8" y2="165.4"/>
		<line class="st12" x1="165.2" y1="0.2" x2="165.2" y2="165.4"/>
		<line class="st12" x1="141.6" y1="0.2" x2="141.6" y2="165.4"/>
		<line class="st12" x1="118.1" y1="0.2" x2="118.1" y2="165.4"/>
		<line class="st12" x1="94.5" y1="0.2" x2="94.5" y2="165.4"/>
		<line class="st12" x1="71" y1="0.2" x2="71" y2="165.4"/>
		<line class="st12" x1="47.3" y1="0.2" x2="47.3" y2="165.4"/>
		<line class="st12" x1="23.8" y1="0.2" x2="23.8" y2="165.4"/>
		<line class="st13" x1="23.7" y1="42.7" x2="306.5" y2="42.7"/>
		<line class="st13" x1="23.7" y1="37.9" x2="306.5" y2="37.9"/>
		<line class="st13" x1="23.7" y1="33.2" x2="306.5" y2="33.2"/>
		<line class="st13" x1="23.7" y1="28.5" x2="306.5" y2="28.5"/>
		<line class="st13" x1="301.9" y1="23.7" x2="301.9" y2="47.4"/>
		<line class="st13" x1="297.1" y1="23.7" x2="297.1" y2="47.4"/>
		<line class="st13" x1="292.4" y1="23.7" x2="292.4" y2="47.4"/>
		<line class="st13" x1="287.7" y1="23.7" x2="287.7" y2="47.4"/>
		<line class="st13" x1="278.2" y1="23.7" x2="278.2" y2="47.4"/>
		<line class="st13" x1="273.5" y1="23.7" x2="273.5" y2="47.4"/>
		<line class="st13" x1="268.9" y1="23.7" x2="268.9" y2="47.4"/>
		<line class="st13" x1="264.1" y1="23.7" x2="264.1" y2="47.4"/>
		<line class="st13" x1="254.7" y1="23.7" x2="254.7" y2="47.4"/>
		<line class="st13" x1="250" y1="23.7" x2="250" y2="47.4"/>
		<line class="st13" x1="245.3" y1="23.7" x2="245.3" y2="47.4"/>
		<line class="st13" x1="240.5" y1="23.7" x2="240.5" y2="47.4"/>
		<line class="st13" x1="231.1" y1="23.7" x2="231.1" y2="47.4"/>
		<line class="st13" x1="226.4" y1="23.7" x2="226.4" y2="47.4"/>
		<line class="st13" x1="221.7" y1="23.7" x2="221.7" y2="47.4"/>
		<line class="st13" x1="217" y1="23.7" x2="217" y2="47.4"/>
		<line class="st13" x1="207.5" y1="23.7" x2="207.5" y2="47.4"/>
		<line class="st13" x1="202.8" y1="23.7" x2="202.8" y2="47.4"/>
		<line class="st13" x1="198.1" y1="23.7" x2="198.1" y2="47.4"/>
		<line class="st13" x1="193.4" y1="23.7" x2="193.4" y2="47.4"/>
		<line class="st13" x1="184" y1="23.7" x2="184" y2="47.4"/>
		<line class="st13" x1="179.3" y1="23.7" x2="179.3" y2="47.4"/>
		<line class="st13" x1="174.6" y1="23.7" x2="174.6" y2="47.4"/>
		<line class="st13" x1="169.8" y1="23.7" x2="169.8" y2="47.4"/>
		<line class="st13" x1="160.4" y1="23.7" x2="160.4" y2="47.4"/>
		<line class="st13" x1="155.7" y1="23.7" x2="155.7" y2="47.4"/>
		<line class="st13" x1="151" y1="23.7" x2="151" y2="47.4"/>
		<line class="st13" x1="146.3" y1="23.7" x2="146.3" y2="47.4"/>
		<line class="st13" x1="136.8" y1="23.7" x2="136.8" y2="47.4"/>
		<line class="st13" x1="132.1" y1="23.7" x2="132.1" y2="47.4"/>
		<line class="st13" x1="127.4" y1="23.7" x2="127.4" y2="47.4"/>
		<line class="st13" x1="122.8" y1="23.7" x2="122.8" y2="47.4"/>
		<path class="st13" d="M118,47.4"/>
		<path class="st13" d="M118,23.7"/>
		<line class="st13" x1="113.3" y1="23.7" x2="113.3" y2="47.4"/>
		<line class="st13" x1="108.6" y1="23.7" x2="108.6" y2="47.4"/>
		<line class="st13" x1="103.9" y1="23.7" x2="103.9" y2="47.4"/>
		<line class="st13" x1="99.1" y1="23.7" x2="99.1" y2="47.4"/>
		<line class="st13" x1="89.8" y1="23.7" x2="89.8" y2="47.4"/>
		<line class="st13" x1="85" y1="23.7" x2="85" y2="47.4"/>
		<line class="st13" x1="80.3" y1="23.7" x2="80.3" y2="47.4"/>
		<line class="st13" x1="75.6" y1="23.7" x2="75.6" y2="47.4"/>
		<line class="st13" x1="66.1" y1="23.7" x2="66.1" y2="47.4"/>
		<line class="st13" x1="61.4" y1="23.7" x2="61.4" y2="47.4"/>
		<line class="st13" x1="56.8" y1="23.7" x2="56.8" y2="47.4"/>
		<line class="st13" x1="52" y1="23.7" x2="52" y2="47.4"/>
		<line class="st13" x1="42.6" y1="23.7" x2="42.6" y2="47.4"/>
		<line class="st13" x1="37.9" y1="23.7" x2="37.9" y2="47.4"/>
		<line class="st13" x1="33.2" y1="23.7" x2="33.2" y2="47.4"/>
		<line class="st13" x1="28.4" y1="23.7" x2="28.4" y2="47.4"/>
		<line class="st13" x1="23.7" y1="66.3" x2="306.5" y2="66.3"/>
		<line class="st13" x1="23.7" y1="61.6" x2="306.5" y2="61.6"/>
		<line class="st13" x1="23.7" y1="56.8" x2="306.5" y2="56.8"/>
		<line class="st13" x1="23.7" y1="52.1" x2="306.5" y2="52.1"/>
		<line class="st13" x1="301.9" y1="47.4" x2="301.9" y2="71"/>
		<line class="st13" x1="297.1" y1="47.4" x2="297.1" y2="71"/>
		<line class="st13" x1="292.4" y1="47.4" x2="292.4" y2="71"/>
		<line class="st13" x1="287.7" y1="47.4" x2="287.7" y2="71"/>
		<line class="st13" x1="278.2" y1="47.4" x2="278.2" y2="71"/>
		<line class="st13" x1="273.5" y1="47.4" x2="273.5" y2="71"/>
		<line class="st13" x1="268.9" y1="47.4" x2="268.9" y2="71"/>
		<line class="st13" x1="264.1" y1="47.4" x2="264.1" y2="71"/>
		<line class="st13" x1="254.7" y1="47.4" x2="254.7" y2="71"/>
		<line class="st13" x1="250" y1="47.4" x2="250" y2="71"/>
		<line class="st13" x1="245.3" y1="47.4" x2="245.3" y2="71"/>
		<line class="st13" x1="240.5" y1="47.4" x2="240.5" y2="71"/>
		<line class="st13" x1="231.1" y1="47.4" x2="231.1" y2="71"/>
		<line class="st13" x1="226.4" y1="47.4" x2="226.4" y2="71"/>
		<line class="st13" x1="221.7" y1="47.4" x2="221.7" y2="71"/>
		<line class="st13" x1="217" y1="47.4" x2="217" y2="71"/>
		<line class="st13" x1="207.5" y1="47.4" x2="207.5" y2="71"/>
		<line class="st13" x1="202.8" y1="47.4" x2="202.8" y2="71"/>
		<line class="st13" x1="198.1" y1="47.4" x2="198.1" y2="71"/>
		<line class="st13" x1="193.4" y1="47.4" x2="193.4" y2="71"/>
		<line class="st13" x1="184" y1="47.4" x2="184" y2="71"/>
		<line class="st13" x1="179.3" y1="47.4" x2="179.3" y2="71"/>
		<line class="st13" x1="174.6" y1="47.4" x2="174.6" y2="71"/>
		<line class="st13" x1="169.8" y1="47.4" x2="169.8" y2="71"/>
		<line class="st13" x1="160.4" y1="47.4" x2="160.4" y2="71"/>
		<line class="st13" x1="155.7" y1="47.4" x2="155.7" y2="71"/>
		<line class="st13" x1="151" y1="47.4" x2="151" y2="71"/>
		<line class="st13" x1="146.3" y1="47.4" x2="146.3" y2="71"/>
		<line class="st13" x1="136.8" y1="47.4" x2="136.8" y2="71"/>
		<line class="st13" x1="132.1" y1="47.4" x2="132.1" y2="71"/>
		<line class="st13" x1="127.4" y1="47.4" x2="127.4" y2="71"/>
		<line class="st13" x1="122.8" y1="47.4" x2="122.8" y2="71"/>
		<line class="st13" x1="113.3" y1="47.4" x2="113.3" y2="71"/>
		<line class="st13" x1="108.6" y1="47.4" x2="108.6" y2="71"/>
		<line class="st13" x1="103.9" y1="47.4" x2="103.9" y2="71"/>
		<line class="st13" x1="99.1" y1="47.4" x2="99.1" y2="71"/>
		<line class="st13" x1="89.8" y1="47.4" x2="89.8" y2="71"/>
		<line class="st13" x1="85" y1="47.4" x2="85" y2="71"/>
		<line class="st13" x1="80.3" y1="47.4" x2="80.3" y2="71"/>
		<line class="st13" x1="75.6" y1="47.4" x2="75.6" y2="71"/>
		<line class="st13" x1="66.1" y1="47.4" x2="66.1" y2="71"/>
		<line class="st13" x1="61.4" y1="47.4" x2="61.4" y2="71"/>
		<line class="st13" x1="56.8" y1="47.4" x2="56.8" y2="71"/>
		<line class="st13" x1="52" y1="47.4" x2="52" y2="71"/>
		<line class="st13" x1="42.6" y1="47.4" x2="42.6" y2="71"/>
		<line class="st13" x1="37.9" y1="47.4" x2="37.9" y2="71"/>
		<line class="st13" x1="33.2" y1="47.4" x2="33.2" y2="71"/>
		<line class="st13" x1="28.4" y1="47.4" x2="28.4" y2="71"/>
		<line class="st13" x1="23.7" y1="89.8" x2="306.5" y2="89.8"/>
		<line class="st13" x1="23.7" y1="85.1" x2="306.5" y2="85.1"/>
		<line class="st13" x1="23.7" y1="80.4" x2="306.5" y2="80.4"/>
		<line class="st13" x1="23.7" y1="75.6" x2="306.5" y2="75.6"/>
		<line class="st13" x1="301.9" y1="70.9" x2="301.9" y2="94.6"/>
		<line class="st13" x1="297.1" y1="70.9" x2="297.1" y2="94.6"/>
		<line class="st13" x1="292.4" y1="70.9" x2="292.4" y2="94.6"/>
		<line class="st13" x1="287.7" y1="70.9" x2="287.7" y2="94.6"/>
		<line class="st13" x1="278.2" y1="70.9" x2="278.2" y2="94.6"/>
		<line class="st13" x1="273.5" y1="70.9" x2="273.5" y2="94.6"/>
		<line class="st13" x1="268.9" y1="70.9" x2="268.9" y2="94.6"/>
		<line class="st13" x1="264.1" y1="70.9" x2="264.1" y2="94.6"/>
		<line class="st13" x1="254.7" y1="70.9" x2="254.7" y2="94.6"/>
		<line class="st13" x1="250" y1="70.9" x2="250" y2="94.6"/>
		<line class="st13" x1="245.3" y1="70.9" x2="245.3" y2="94.6"/>
		<line class="st13" x1="240.5" y1="70.9" x2="240.5" y2="94.6"/>
		<line class="st13" x1="231.1" y1="70.9" x2="231.1" y2="94.6"/>
		<line class="st13" x1="226.4" y1="70.9" x2="226.4" y2="94.6"/>
		<line class="st13" x1="221.7" y1="70.9" x2="221.7" y2="94.6"/>
		<line class="st13" x1="217" y1="70.9" x2="217" y2="94.6"/>
		<line class="st13" x1="207.5" y1="70.9" x2="207.5" y2="94.6"/>
		<line class="st13" x1="202.8" y1="70.9" x2="202.8" y2="94.6"/>
		<line class="st13" x1="198.1" y1="70.9" x2="198.1" y2="94.6"/>
		<line class="st13" x1="193.4" y1="70.9" x2="193.4" y2="94.6"/>
		<line class="st13" x1="184" y1="70.9" x2="184" y2="94.6"/>
		<line class="st13" x1="179.3" y1="70.9" x2="179.3" y2="94.6"/>
		<line class="st13" x1="174.6" y1="70.9" x2="174.6" y2="94.6"/>
		<line class="st13" x1="169.8" y1="70.9" x2="169.8" y2="94.6"/>
		<line class="st13" x1="160.4" y1="70.9" x2="160.4" y2="94.6"/>
		<line class="st13" x1="155.7" y1="70.9" x2="155.7" y2="94.6"/>
		<line class="st13" x1="151" y1="70.9" x2="151" y2="94.6"/>
		<line class="st13" x1="146.3" y1="70.9" x2="146.3" y2="94.6"/>
		<line class="st13" x1="136.8" y1="70.9" x2="136.8" y2="94.6"/>
		<line class="st13" x1="132.1" y1="70.9" x2="132.1" y2="94.6"/>
		<line class="st13" x1="127.4" y1="70.9" x2="127.4" y2="94.6"/>
		<line class="st13" x1="122.8" y1="70.9" x2="122.8" y2="94.6"/>
		<line class="st13" x1="113.3" y1="70.9" x2="113.3" y2="94.6"/>
		<line class="st13" x1="108.6" y1="70.9" x2="108.6" y2="94.6"/>
		<line class="st13" x1="103.9" y1="70.9" x2="103.9" y2="94.6"/>
		<line class="st13" x1="99.1" y1="70.9" x2="99.1" y2="94.6"/>
		<line class="st13" x1="89.8" y1="70.9" x2="89.8" y2="94.6"/>
		<line class="st13" x1="85" y1="70.9" x2="85" y2="94.6"/>
		<line class="st13" x1="80.3" y1="70.9" x2="80.3" y2="94.6"/>
		<line class="st13" x1="75.6" y1="70.9" x2="75.6" y2="94.6"/>
		<line class="st13" x1="66.1" y1="70.9" x2="66.1" y2="94.6"/>
		<line class="st13" x1="61.4" y1="70.9" x2="61.4" y2="94.6"/>
		<line class="st13" x1="56.8" y1="70.9" x2="56.8" y2="94.6"/>
		<line class="st13" x1="52" y1="70.9" x2="52" y2="94.6"/>
		<line class="st13" x1="42.6" y1="70.9" x2="42.6" y2="94.6"/>
		<line class="st13" x1="37.9" y1="70.9" x2="37.9" y2="94.6"/>
		<line class="st13" x1="33.2" y1="70.9" x2="33.2" y2="94.6"/>
		<line class="st13" x1="28.4" y1="70.9" x2="28.4" y2="94.6"/>
		<line class="st13" x1="23.7" y1="113.4" x2="306.5" y2="113.4"/>
		<line class="st13" x1="23.7" y1="108.6" x2="306.5" y2="108.6"/>
		<line class="st13" x1="23.7" y1="103.9" x2="306.5" y2="103.9"/>
		<line class="st13" x1="23.7" y1="99.2" x2="306.5" y2="99.2"/>
		<line class="st13" x1="301.9" y1="94.4" x2="301.9" y2="118.1"/>
		<line class="st13" x1="297.1" y1="94.4" x2="297.1" y2="118.1"/>
		<line class="st13" x1="292.4" y1="94.4" x2="292.4" y2="118.1"/>
		<line class="st13" x1="287.7" y1="94.4" x2="287.7" y2="118.1"/>
		<line class="st13" x1="278.2" y1="94.4" x2="278.2" y2="118.1"/>
		<line class="st13" x1="273.5" y1="94.4" x2="273.5" y2="118.1"/>
		<line class="st13" x1="268.9" y1="94.4" x2="268.9" y2="118.1"/>
		<line class="st13" x1="264.1" y1="94.4" x2="264.1" y2="118.1"/>
		<line class="st13" x1="254.7" y1="94.4" x2="254.7" y2="118.1"/>
		<line class="st13" x1="250" y1="94.4" x2="250" y2="118.1"/>
		<line class="st13" x1="245.3" y1="94.4" x2="245.3" y2="118.1"/>
		<line class="st13" x1="240.5" y1="94.4" x2="240.5" y2="118.1"/>
		<line class="st13" x1="231.1" y1="94.4" x2="231.1" y2="118.1"/>
		<line class="st13" x1="226.4" y1="94.4" x2="226.4" y2="118.1"/>
		<line class="st13" x1="221.7" y1="94.4" x2="221.7" y2="118.1"/>
		<line class="st13" x1="217" y1="94.4" x2="217" y2="118.1"/>
		<line class="st13" x1="207.5" y1="94.4" x2="207.5" y2="118.1"/>
		<line class="st13" x1="202.8" y1="94.4" x2="202.8" y2="118.1"/>
		<line class="st13" x1="198.1" y1="94.4" x2="198.1" y2="118.1"/>
		<line class="st13" x1="193.4" y1="94.4" x2="193.4" y2="118.1"/>
		<line class="st13" x1="184" y1="94.4" x2="184" y2="118.1"/>
		<line class="st13" x1="179.3" y1="94.4" x2="179.3" y2="118.1"/>
		<line class="st13" x1="174.6" y1="94.4" x2="174.6" y2="118.1"/>
		<line class="st13" x1="169.8" y1="94.4" x2="169.8" y2="118.1"/>
		<line class="st13" x1="160.4" y1="94.4" x2="160.4" y2="118.1"/>
		<line class="st13" x1="155.7" y1="94.4" x2="155.7" y2="118.1"/>
		<line class="st13" x1="151" y1="94.4" x2="151" y2="118.1"/>
		<line class="st13" x1="146.3" y1="94.4" x2="146.3" y2="118.1"/>
		<line class="st13" x1="136.8" y1="94.4" x2="136.8" y2="118.1"/>
		<line class="st13" x1="132.1" y1="94.4" x2="132.1" y2="118.1"/>
		<line class="st13" x1="127.4" y1="94.4" x2="127.4" y2="118.1"/>
		<line class="st13" x1="122.8" y1="94.4" x2="122.8" y2="118.1"/>
		<line class="st13" x1="113.3" y1="94.4" x2="113.3" y2="118.1"/>
		<line class="st13" x1="108.6" y1="94.4" x2="108.6" y2="118.1"/>
		<line class="st13" x1="103.9" y1="94.4" x2="103.9" y2="118.1"/>
		<line class="st13" x1="99.1" y1="94.4" x2="99.1" y2="118.1"/>
		<line class="st13" x1="89.8" y1="94.4" x2="89.8" y2="118.1"/>
		<line class="st13" x1="85" y1="94.4" x2="85" y2="118.1"/>
		<line class="st13" x1="80.3" y1="94.4" x2="80.3" y2="118.1"/>
		<line class="st13" x1="75.6" y1="94.4" x2="75.6" y2="118.1"/>
		<line class="st13" x1="66.1" y1="94.4" x2="66.1" y2="118.1"/>
		<line class="st13" x1="61.4" y1="94.4" x2="61.4" y2="118.1"/>
		<line class="st13" x1="56.8" y1="94.4" x2="56.8" y2="118.1"/>
		<line class="st13" x1="52" y1="94.4" x2="52" y2="118.1"/>
		<line class="st13" x1="42.6" y1="94.4" x2="42.6" y2="118.1"/>
		<line class="st13" x1="37.9" y1="94.4" x2="37.9" y2="118.1"/>
		<line class="st13" x1="33.2" y1="94.4" x2="33.2" y2="118.1"/>
		<line class="st13" x1="28.4" y1="94.4" x2="28.4" y2="118.1"/>
		<line class="st13" x1="23.7" y1="136.9" x2="306.5" y2="136.9"/>
		<line class="st13" x1="23.7" y1="132.2" x2="306.5" y2="132.2"/>
		<line class="st13" x1="23.7" y1="127.5" x2="306.5" y2="127.5"/>
		<line class="st13" x1="23.7" y1="122.8" x2="306.5" y2="122.8"/>
		<line class="st13" x1="301.9" y1="118" x2="301.9" y2="141.7"/>
		<line class="st13" x1="297.1" y1="118" x2="297.1" y2="141.7"/>
		<line class="st13" x1="292.4" y1="118" x2="292.4" y2="141.7"/>
		<line class="st13" x1="287.7" y1="118" x2="287.7" y2="141.7"/>
		<line class="st13" x1="278.2" y1="118" x2="278.2" y2="141.7"/>
		<line class="st13" x1="273.5" y1="118" x2="273.5" y2="141.7"/>
		<line class="st13" x1="268.9" y1="118" x2="268.9" y2="141.7"/>
		<line class="st13" x1="264.1" y1="118" x2="264.1" y2="141.7"/>
		<line class="st13" x1="254.7" y1="118" x2="254.7" y2="141.7"/>
		<line class="st13" x1="250" y1="118" x2="250" y2="141.7"/>
		<line class="st13" x1="245.3" y1="118" x2="245.3" y2="141.7"/>
		<line class="st13" x1="240.5" y1="118" x2="240.5" y2="141.7"/>
		<line class="st13" x1="231.1" y1="118" x2="231.1" y2="141.7"/>
		<line class="st13" x1="226.4" y1="118" x2="226.4" y2="141.7"/>
		<line class="st13" x1="221.7" y1="118" x2="221.7" y2="141.7"/>
		<line class="st13" x1="217" y1="118" x2="217" y2="141.7"/>
		<line class="st13" x1="207.5" y1="118" x2="207.5" y2="141.7"/>
		<line class="st13" x1="202.8" y1="118" x2="202.8" y2="141.7"/>
		<line class="st13" x1="198.1" y1="118" x2="198.1" y2="141.7"/>
		<line class="st13" x1="193.4" y1="118" x2="193.4" y2="141.7"/>
		<line class="st13" x1="184" y1="118" x2="184" y2="141.7"/>
		<line class="st13" x1="179.3" y1="118" x2="179.3" y2="141.7"/>
		<line class="st13" x1="174.6" y1="118" x2="174.6" y2="141.7"/>
		<line class="st13" x1="169.8" y1="118" x2="169.8" y2="141.7"/>
		<line class="st13" x1="160.4" y1="118" x2="160.4" y2="141.7"/>
		<line class="st13" x1="155.7" y1="118" x2="155.7" y2="141.7"/>
		<line class="st13" x1="151" y1="118" x2="151" y2="141.7"/>
		<line class="st13" x1="146.3" y1="118" x2="146.3" y2="141.7"/>
		<line class="st13" x1="136.8" y1="118" x2="136.8" y2="141.7"/>
		<line class="st13" x1="132.1" y1="118" x2="132.1" y2="141.7"/>
		<line class="st13" x1="127.4" y1="118" x2="127.4" y2="141.7"/>
		<line class="st13" x1="122.8" y1="118" x2="122.8" y2="141.7"/>
		<line class="st13" x1="113.3" y1="118" x2="113.3" y2="141.7"/>
		<line class="st13" x1="108.6" y1="118" x2="108.6" y2="141.7"/>
		<line class="st13" x1="103.9" y1="118" x2="103.9" y2="141.7"/>
		<line class="st13" x1="99.1" y1="118" x2="99.1" y2="141.7"/>
		<line class="st13" x1="89.8" y1="118" x2="89.8" y2="141.7"/>
		<line class="st13" x1="85" y1="118" x2="85" y2="141.7"/>
		<line class="st13" x1="80.3" y1="118" x2="80.3" y2="141.7"/>
		<line class="st13" x1="75.6" y1="118" x2="75.6" y2="141.7"/>
		<line class="st13" x1="66.1" y1="118" x2="66.1" y2="141.7"/>
		<line class="st13" x1="61.4" y1="118" x2="61.4" y2="141.7"/>
		<line class="st13" x1="56.8" y1="118" x2="56.8" y2="141.7"/>
		<line class="st13" x1="52" y1="118" x2="52" y2="141.7"/>
		<line class="st13" x1="42.6" y1="118" x2="42.6" y2="141.7"/>
		<line class="st13" x1="37.9" y1="118" x2="37.9" y2="141.7"/>
		<line class="st13" x1="33.2" y1="118" x2="33.2" y2="141.7"/>
		<line class="st13" x1="28.4" y1="118" x2="28.4" y2="141.7"/>
		<text transform="matrix(1 0 0 1 148.0675 197.7004)" class="st5 st2 st14">11.3A</text>
		<text transform="matrix(1 0 0 1 21.5 183.6)" class="st5 st2 st15">0</text>
		<text transform="matrix(1 0 0 1 139.76 183.6)" class="st5 st2 st15">5</text>
		<text transform="matrix(1 0 0 1 255.42 183.6)" class="st5 st2 st15">10</text>
		<text transform="matrix(4.837355e-17 0.79 -1 6.123234e-17 340.9707 75.4901)" class="st5 st2 st16">1.1A</text>
	</g>
</g>
</svg>
