<?xml version="1.0" encoding="utf-8"?>
<!-- Generator: Adobe Illustrator 21.1.0, SVG Export Plug-In . SVG Version: 6.00 Build 0)  -->
<svg version="1.1" id="图层_1" xmlns="http://www.w3.org/2000/svg" xmlns:xlink="http://www.w3.org/1999/xlink" x="0px" y="0px"
	 viewBox="0 0 437.7 352.5" style="enable-background:new 0 0 437.7 352.5;" xml:space="preserve">
<style type="text/css">
	.st0{fill:#888888;}
	.st1{fill:#D2D2D3;}
	.st2{fill:#231815;}
	.st3{fill-rule:evenodd;clip-rule:evenodd;fill:none;stroke:#231815;stroke-width:0.3353;stroke-miterlimit:3.8637;}
	.st4{fill:#FFFFFF;}
	.st5{fill-rule:evenodd;clip-rule:evenodd;fill:#FFFFFF;}
	.st6{fill:none;stroke:#231815;stroke-width:0.5;}
	.st7{fill:none;stroke:#231815;stroke-width:0.25;stroke-miterlimit:3.8637;}
	.st8{fill:none;stroke:#231815;stroke-width:0.1509;}
	.st9{font-family:'ArialMT';}
	.st10{font-size:11.5505px;}
</style>
<title>hitrobot_logo_ash</title>
<g>
	<polygon class="st0" points="334.1,160.7 287.7,160.7 282.3,171.2 310.2,171.2 320.2,191.3 258.2,191.3 289.1,129.2 297.1,145.2 
		326.4,145.2 303.9,100.4 271.8,100.4 222.8,198.6 201.8,156.8 235.5,156.8 263.6,100.4 163.6,100.4 140.5,146.3 108.9,146.3 
		131.9,100.4 100.5,100.4 49.3,202.3 80.9,202.3 103.6,156.8 135.3,156.8 112.5,202.3 144,202.3 189.7,111 228.9,111 210.5,146.3 
		180,146.3 173.2,159.9 194.2,202.3 354.8,202.3 	"/>
</g>
<rect x="1.8" y="271" class="st1" width="33.3" height="33.3"/>
<g>
	<g>
		<path class="st2" d="M14.6,289.6l-1.3,3.6h-1.7l4.7-12.4h1.9l4.5,12.4h-1.8l-1.2-3.6H14.6z M19,288.1l-1.8-5.5h-0.1l-2,5.5H19z"/>
	</g>
</g>
<line class="st3" x1="48.6" y1="339.9" x2="354.8" y2="339.9"/>
<g>
	<line class="st3" x1="354.8" y1="352.2" x2="354.8" y2="311.3"/>
	<line class="st3" x1="48.6" y1="352.2" x2="48.6" y2="307.3"/>
</g>
<g>
	<rect x="22.5" y="305.3" class="st4" width="23.3" height="22.9"/>
	<g>
		<g>
			<path class="st2" d="M36.1,323.6c-1.7,0-2.5-1.3-2.6-3.8c0-1.2,0.2-2.2,0.7-2.9c0.4-0.7,1-1,1.9-1c0.9,0,1.6,0.4,2.1,1.3
				c0.4,0.6,0.5,1.5,0.5,2.6C38.6,322.3,37.8,323.5,36.1,323.6z M36.1,316.8c-1,0-1.6,1-1.6,3c0,2,0.5,3,1.6,3c1.1,0,1.6-1,1.6-3
				C37.7,317.8,37.1,316.8,36.1,316.8z"/>
		</g>
	</g>
</g>
<g>
	<rect x="362" y="309" class="st4" width="23.3" height="19.2"/>
	<g>
		<g>
			<path class="st2" d="M372.1,323.4h-1v-5.3h-1.8v-0.8c0.7,0,1.1-0.1,1.4-0.3c0.3-0.2,0.6-0.6,0.7-1.2h0.7V323.4z"/>
			<path class="st2" d="M377.2,323.6c-1.7,0-2.5-1.3-2.6-3.8c0-1.2,0.2-2.2,0.7-2.9c0.4-0.7,1-1,1.9-1c0.9,0,1.6,0.4,2.1,1.3
				c0.4,0.6,0.5,1.5,0.5,2.6C379.7,322.3,378.9,323.5,377.2,323.6z M377.2,316.8c-1,0-1.6,1-1.6,3c0,2,0.5,3,1.6,3
				c1.1,0,1.6-1,1.6-3C378.8,317.8,378.3,316.8,377.2,316.8z"/>
		</g>
	</g>
</g>
<g>
	<rect x="192.3" y="309" class="st4" width="23.3" height="19.2"/>
	<g>
		<g>
			<path class="st2" d="M203.3,319c0.4-0.3,0.9-0.5,1.4-0.5c1.6,0.1,2.4,1,2.5,2.4c0,0.8-0.3,1.4-0.8,1.9c-0.5,0.4-1.1,0.7-2,0.7
				c-1.5,0-2.3-0.7-2.4-2h1c0.1,0.9,0.7,1.3,1.6,1.3c1-0.1,1.5-0.7,1.6-1.7c-0.1-1.1-0.6-1.6-1.6-1.7c-0.6,0-1.1,0.2-1.4,0.7l-0.8,0
				l0.5-4.1h3.9v0.9h-3.2L203.3,319z"/>
		</g>
	</g>
</g>
<rect x="184.7" y="327.4" class="st5" width="40.7" height="25"/>
<rect x="1" y="0.2" class="st6" width="407.7" height="304.3"/>
<line class="st7" x1="1" y1="270.6" x2="408.7" y2="270.6"/>
<line class="st7" x1="1" y1="236.4" x2="408.7" y2="236.4"/>
<line class="st7" x1="1.8" y1="202.4" x2="436.3" y2="202.4"/>
<line class="st7" x1="1" y1="168.4" x2="408.7" y2="168.4"/>
<line class="st7" x1="1" y1="134.5" x2="408.7" y2="134.5"/>
<line class="st7" x1="1" y1="100.3" x2="435.5" y2="100.3"/>
<line class="st7" x1="1" y1="66.3" x2="408.7" y2="66.3"/>
<line class="st7" x1="1" y1="32.4" x2="408.7" y2="32.4"/>
<line class="st7" x1="375.3" y1="0" x2="375.3" y2="304.5"/>
<line class="st7" x1="341.3" y1="0" x2="341.3" y2="304.5"/>
<line class="st7" x1="307.2" y1="0" x2="307.2" y2="304.5"/>
<line class="st7" x1="273.3" y1="0" x2="273.3" y2="304.5"/>
<line class="st7" x1="239.2" y1="0" x2="239.2" y2="304.5"/>
<line class="st7" x1="205.1" y1="0" x2="205.1" y2="304.5"/>
<line class="st7" x1="171.1" y1="0" x2="171.1" y2="304.5"/>
<line class="st7" x1="137.1" y1="0" x2="137.1" y2="304.5"/>
<line class="st7" x1="103.1" y1="0" x2="103.1" y2="304.5"/>
<line class="st7" x1="69" y1="0" x2="69" y2="304.5"/>
<line class="st7" x1="35" y1="0" x2="35" y2="304.5"/>
<g>
	<line class="st8" x1="34.9" y1="59.5" x2="375.3" y2="59.5"/>
	<line class="st8" x1="34.9" y1="52.7" x2="375.3" y2="52.7"/>
	<line class="st8" x1="34.9" y1="45.9" x2="375.3" y2="45.9"/>
	<line class="st8" x1="34.9" y1="39.1" x2="375.3" y2="39.1"/>
	<line class="st8" x1="368.4" y1="32.2" x2="368.4" y2="66.4"/>
	<line class="st8" x1="361.6" y1="32.2" x2="361.6" y2="66.4"/>
	<line class="st8" x1="354.8" y1="32.2" x2="354.8" y2="66.4"/>
	<line class="st8" x1="347.9" y1="32.2" x2="347.9" y2="66.4"/>
	<line class="st8" x1="334.4" y1="32.2" x2="334.4" y2="66.4"/>
	<line class="st8" x1="327.5" y1="32.2" x2="327.5" y2="66.4"/>
	<line class="st8" x1="320.7" y1="32.2" x2="320.7" y2="66.4"/>
	<line class="st8" x1="313.9" y1="32.2" x2="313.9" y2="66.4"/>
	<line class="st8" x1="300.3" y1="32.2" x2="300.3" y2="66.4"/>
	<line class="st8" x1="293.5" y1="32.2" x2="293.5" y2="66.4"/>
	<line class="st8" x1="286.7" y1="32.2" x2="286.7" y2="66.4"/>
	<line class="st8" x1="279.9" y1="32.2" x2="279.9" y2="66.4"/>
	<line class="st8" x1="266.3" y1="32.2" x2="266.3" y2="66.4"/>
	<line class="st8" x1="259.5" y1="32.2" x2="259.5" y2="66.4"/>
	<line class="st8" x1="252.7" y1="32.2" x2="252.7" y2="66.4"/>
	<line class="st8" x1="245.8" y1="32.2" x2="245.8" y2="66.4"/>
	<line class="st8" x1="232.3" y1="32.2" x2="232.3" y2="66.4"/>
	<line class="st8" x1="225.4" y1="32.2" x2="225.4" y2="66.4"/>
	<line class="st8" x1="218.6" y1="32.2" x2="218.6" y2="66.4"/>
	<line class="st8" x1="211.9" y1="32.2" x2="211.9" y2="66.4"/>
	<line class="st8" x1="198.2" y1="32.2" x2="198.2" y2="66.4"/>
	<line class="st8" x1="191.4" y1="32.2" x2="191.4" y2="66.4"/>
	<line class="st8" x1="184.6" y1="32.2" x2="184.6" y2="66.4"/>
	<line class="st8" x1="177.9" y1="32.2" x2="177.9" y2="66.4"/>
	<line class="st8" x1="171" y1="32.2" x2="171" y2="66.4"/>
	<line class="st8" x1="164.2" y1="32.2" x2="164.2" y2="66.4"/>
	<line class="st8" x1="157.4" y1="32.2" x2="157.4" y2="66.4"/>
	<line class="st8" x1="150.7" y1="32.2" x2="150.7" y2="66.4"/>
	<line class="st8" x1="143.8" y1="32.2" x2="143.8" y2="66.4"/>
	<line class="st8" x1="130.2" y1="32.2" x2="130.2" y2="66.4"/>
	<line class="st8" x1="123.3" y1="32.2" x2="123.3" y2="66.4"/>
	<line class="st8" x1="116.6" y1="32.2" x2="116.6" y2="66.4"/>
	<line class="st8" x1="109.8" y1="32.2" x2="109.8" y2="66.4"/>
	<line class="st8" x1="96.1" y1="32.2" x2="96.1" y2="66.4"/>
	<line class="st8" x1="89.4" y1="32.2" x2="89.4" y2="66.4"/>
	<line class="st8" x1="82.6" y1="32.2" x2="82.6" y2="66.4"/>
	<line class="st8" x1="75.8" y1="32.2" x2="75.8" y2="66.4"/>
	<line class="st8" x1="62.1" y1="32.2" x2="62.1" y2="66.4"/>
	<line class="st8" x1="55.4" y1="32.2" x2="55.4" y2="66.4"/>
	<line class="st8" x1="48.6" y1="32.2" x2="48.6" y2="66.4"/>
	<line class="st8" x1="41.7" y1="32.2" x2="41.7" y2="66.4"/>
</g>
<g>
	<line class="st8" x1="34.9" y1="93.6" x2="375.3" y2="93.6"/>
	<line class="st8" x1="34.9" y1="86.8" x2="375.3" y2="86.8"/>
	<line class="st8" x1="34.9" y1="79.9" x2="375.3" y2="79.9"/>
	<line class="st8" x1="34.9" y1="73.1" x2="375.3" y2="73.1"/>
	<line class="st8" x1="368.4" y1="66.3" x2="368.4" y2="100.4"/>
	<line class="st8" x1="361.6" y1="66.3" x2="361.6" y2="100.4"/>
	<line class="st8" x1="354.8" y1="66.3" x2="354.8" y2="100.4"/>
	<line class="st8" x1="347.9" y1="66.3" x2="347.9" y2="100.4"/>
	<line class="st8" x1="334.4" y1="66.3" x2="334.4" y2="100.4"/>
	<line class="st8" x1="327.5" y1="66.3" x2="327.5" y2="100.4"/>
	<line class="st8" x1="320.7" y1="66.3" x2="320.7" y2="100.4"/>
	<line class="st8" x1="313.9" y1="66.3" x2="313.9" y2="100.4"/>
	<line class="st8" x1="300.3" y1="66.3" x2="300.3" y2="100.4"/>
	<line class="st8" x1="293.5" y1="66.3" x2="293.5" y2="100.4"/>
	<line class="st8" x1="286.7" y1="66.3" x2="286.7" y2="100.4"/>
	<line class="st8" x1="279.9" y1="66.3" x2="279.9" y2="100.4"/>
	<line class="st8" x1="266.3" y1="66.3" x2="266.3" y2="100.4"/>
	<line class="st8" x1="259.5" y1="66.3" x2="259.5" y2="100.4"/>
	<line class="st8" x1="252.7" y1="66.3" x2="252.7" y2="100.4"/>
	<line class="st8" x1="245.8" y1="66.3" x2="245.8" y2="100.4"/>
	<line class="st8" x1="232.3" y1="66.3" x2="232.3" y2="100.4"/>
	<line class="st8" x1="225.4" y1="66.3" x2="225.4" y2="100.4"/>
	<line class="st8" x1="218.6" y1="66.3" x2="218.6" y2="100.4"/>
	<line class="st8" x1="211.9" y1="66.3" x2="211.9" y2="100.4"/>
	<line class="st8" x1="198.2" y1="66.3" x2="198.2" y2="100.4"/>
	<line class="st8" x1="191.4" y1="66.3" x2="191.4" y2="100.4"/>
	<line class="st8" x1="184.6" y1="66.3" x2="184.6" y2="100.4"/>
	<line class="st8" x1="177.9" y1="66.3" x2="177.9" y2="100.4"/>
	<line class="st8" x1="171" y1="66.3" x2="171" y2="100.4"/>
	<line class="st8" x1="164.2" y1="66.3" x2="164.2" y2="100.4"/>
	<line class="st8" x1="157.4" y1="66.3" x2="157.4" y2="100.4"/>
	<line class="st8" x1="150.7" y1="66.3" x2="150.7" y2="100.4"/>
	<line class="st8" x1="143.8" y1="66.3" x2="143.8" y2="100.4"/>
	<line class="st8" x1="130.2" y1="66.3" x2="130.2" y2="100.4"/>
	<line class="st8" x1="123.3" y1="66.3" x2="123.3" y2="100.4"/>
	<line class="st8" x1="116.6" y1="66.3" x2="116.6" y2="100.4"/>
	<line class="st8" x1="109.8" y1="66.3" x2="109.8" y2="100.4"/>
	<line class="st8" x1="96.1" y1="66.3" x2="96.1" y2="100.4"/>
	<line class="st8" x1="89.4" y1="66.3" x2="89.4" y2="100.4"/>
	<line class="st8" x1="82.6" y1="66.3" x2="82.6" y2="100.4"/>
	<line class="st8" x1="75.8" y1="66.3" x2="75.8" y2="100.4"/>
	<line class="st8" x1="62.1" y1="66.3" x2="62.1" y2="100.4"/>
	<line class="st8" x1="55.4" y1="66.3" x2="55.4" y2="100.4"/>
	<line class="st8" x1="48.6" y1="66.3" x2="48.6" y2="100.4"/>
	<line class="st8" x1="41.7" y1="66.3" x2="41.7" y2="100.4"/>
</g>
<g>
	<line class="st8" x1="34.9" y1="127.6" x2="375.3" y2="127.6"/>
	<line class="st8" x1="34.9" y1="120.8" x2="375.3" y2="120.8"/>
	<line class="st8" x1="34.9" y1="114" x2="375.3" y2="114"/>
	<line class="st8" x1="34.9" y1="107.1" x2="375.3" y2="107.1"/>
	<line class="st8" x1="368.4" y1="100.3" x2="368.4" y2="134.5"/>
	<line class="st8" x1="361.6" y1="100.3" x2="361.6" y2="134.5"/>
	<line class="st8" x1="354.8" y1="100.3" x2="354.8" y2="134.5"/>
	<line class="st8" x1="347.9" y1="100.3" x2="347.9" y2="134.5"/>
	<line class="st8" x1="334.4" y1="100.3" x2="334.4" y2="134.5"/>
	<line class="st8" x1="327.5" y1="100.3" x2="327.5" y2="134.5"/>
	<line class="st8" x1="320.7" y1="100.3" x2="320.7" y2="134.5"/>
	<line class="st8" x1="313.9" y1="100.3" x2="313.9" y2="134.5"/>
	<line class="st8" x1="300.3" y1="100.3" x2="300.3" y2="134.5"/>
	<line class="st8" x1="293.5" y1="100.3" x2="293.5" y2="134.5"/>
	<line class="st8" x1="286.7" y1="100.3" x2="286.7" y2="134.5"/>
	<line class="st8" x1="279.9" y1="100.3" x2="279.9" y2="134.5"/>
	<line class="st8" x1="266.3" y1="100.3" x2="266.3" y2="134.5"/>
	<line class="st8" x1="259.5" y1="100.3" x2="259.5" y2="134.5"/>
	<line class="st8" x1="252.7" y1="100.3" x2="252.7" y2="134.5"/>
	<line class="st8" x1="245.8" y1="100.3" x2="245.8" y2="134.5"/>
	<line class="st8" x1="232.3" y1="100.3" x2="232.3" y2="134.5"/>
	<line class="st8" x1="225.4" y1="100.3" x2="225.4" y2="134.5"/>
	<line class="st8" x1="218.6" y1="100.3" x2="218.6" y2="134.5"/>
	<line class="st8" x1="211.9" y1="100.3" x2="211.9" y2="134.5"/>
	<line class="st8" x1="198.2" y1="100.3" x2="198.2" y2="134.5"/>
	<line class="st8" x1="191.4" y1="100.3" x2="191.4" y2="134.5"/>
	<line class="st8" x1="184.6" y1="100.3" x2="184.6" y2="134.5"/>
	<line class="st8" x1="177.9" y1="100.3" x2="177.9" y2="134.5"/>
	<line class="st8" x1="171" y1="100.3" x2="171" y2="134.5"/>
	<line class="st8" x1="164.2" y1="100.3" x2="164.2" y2="134.5"/>
	<line class="st8" x1="157.4" y1="100.3" x2="157.4" y2="134.5"/>
	<line class="st8" x1="150.7" y1="100.3" x2="150.7" y2="134.5"/>
	<line class="st8" x1="143.8" y1="100.3" x2="143.8" y2="134.5"/>
	<line class="st8" x1="130.2" y1="100.3" x2="130.2" y2="134.5"/>
	<line class="st8" x1="123.3" y1="100.3" x2="123.3" y2="134.5"/>
	<line class="st8" x1="116.6" y1="100.3" x2="116.6" y2="134.5"/>
	<line class="st8" x1="109.8" y1="100.3" x2="109.8" y2="134.5"/>
	<line class="st8" x1="96.1" y1="100.3" x2="96.1" y2="134.5"/>
	<line class="st8" x1="89.4" y1="100.3" x2="89.4" y2="134.5"/>
	<line class="st8" x1="82.6" y1="100.3" x2="82.6" y2="134.5"/>
	<line class="st8" x1="75.8" y1="100.3" x2="75.8" y2="134.5"/>
	<line class="st8" x1="62.1" y1="100.3" x2="62.1" y2="134.5"/>
	<line class="st8" x1="55.4" y1="100.3" x2="55.4" y2="134.5"/>
	<line class="st8" x1="48.6" y1="100.3" x2="48.6" y2="134.5"/>
	<line class="st8" x1="41.7" y1="100.3" x2="41.7" y2="134.5"/>
</g>
<g>
	<line class="st8" x1="34.9" y1="161.7" x2="375.3" y2="161.7"/>
	<line class="st8" x1="34.9" y1="154.9" x2="375.3" y2="154.9"/>
	<line class="st8" x1="34.9" y1="148" x2="375.3" y2="148"/>
	<line class="st8" x1="34.9" y1="141.2" x2="375.3" y2="141.2"/>
	<line class="st8" x1="368.4" y1="134.4" x2="368.4" y2="168.5"/>
	<line class="st8" x1="361.6" y1="134.4" x2="361.6" y2="168.5"/>
	<line class="st8" x1="354.8" y1="134.4" x2="354.8" y2="168.5"/>
	<line class="st8" x1="347.9" y1="134.4" x2="347.9" y2="168.5"/>
	<line class="st8" x1="334.4" y1="134.4" x2="334.4" y2="168.5"/>
	<line class="st8" x1="327.5" y1="134.4" x2="327.5" y2="168.5"/>
	<line class="st8" x1="320.7" y1="134.4" x2="320.7" y2="168.5"/>
	<line class="st8" x1="313.9" y1="134.4" x2="313.9" y2="168.5"/>
	<line class="st8" x1="300.3" y1="134.4" x2="300.3" y2="168.5"/>
	<line class="st8" x1="293.5" y1="134.4" x2="293.5" y2="168.5"/>
	<line class="st8" x1="286.7" y1="134.4" x2="286.7" y2="168.5"/>
	<line class="st8" x1="279.9" y1="134.4" x2="279.9" y2="168.5"/>
	<line class="st8" x1="266.3" y1="134.4" x2="266.3" y2="168.5"/>
	<line class="st8" x1="259.5" y1="134.4" x2="259.5" y2="168.5"/>
	<line class="st8" x1="252.7" y1="134.4" x2="252.7" y2="168.5"/>
	<line class="st8" x1="245.8" y1="134.4" x2="245.8" y2="168.5"/>
	<line class="st8" x1="232.3" y1="134.4" x2="232.3" y2="168.5"/>
	<line class="st8" x1="225.4" y1="134.4" x2="225.4" y2="168.5"/>
	<line class="st8" x1="218.6" y1="134.4" x2="218.6" y2="168.5"/>
	<line class="st8" x1="211.9" y1="134.4" x2="211.9" y2="168.5"/>
	<line class="st8" x1="198.2" y1="134.4" x2="198.2" y2="168.5"/>
	<line class="st8" x1="191.4" y1="134.4" x2="191.4" y2="168.5"/>
	<line class="st8" x1="184.6" y1="134.4" x2="184.6" y2="168.5"/>
	<line class="st8" x1="177.9" y1="134.4" x2="177.9" y2="168.5"/>
	<line class="st8" x1="171" y1="134.4" x2="171" y2="168.5"/>
	<line class="st8" x1="164.2" y1="134.4" x2="164.2" y2="168.5"/>
	<line class="st8" x1="157.4" y1="134.4" x2="157.4" y2="168.5"/>
	<line class="st8" x1="150.7" y1="134.4" x2="150.7" y2="168.5"/>
	<line class="st8" x1="143.8" y1="134.4" x2="143.8" y2="168.5"/>
	<line class="st8" x1="130.2" y1="134.4" x2="130.2" y2="168.5"/>
	<line class="st8" x1="123.3" y1="134.4" x2="123.3" y2="168.5"/>
	<line class="st8" x1="116.6" y1="134.4" x2="116.6" y2="168.5"/>
	<line class="st8" x1="109.8" y1="134.4" x2="109.8" y2="168.5"/>
	<line class="st8" x1="96.1" y1="134.4" x2="96.1" y2="168.5"/>
	<line class="st8" x1="89.4" y1="134.4" x2="89.4" y2="168.5"/>
	<line class="st8" x1="82.6" y1="134.4" x2="82.6" y2="168.5"/>
	<line class="st8" x1="75.8" y1="134.4" x2="75.8" y2="168.5"/>
	<line class="st8" x1="62.1" y1="134.4" x2="62.1" y2="168.5"/>
	<line class="st8" x1="55.4" y1="134.4" x2="55.4" y2="168.5"/>
	<line class="st8" x1="48.6" y1="134.4" x2="48.6" y2="168.5"/>
	<line class="st8" x1="41.7" y1="134.4" x2="41.7" y2="168.5"/>
</g>
<g>
	<line class="st8" x1="34.9" y1="195.7" x2="375.3" y2="195.7"/>
	<line class="st8" x1="34.9" y1="188.9" x2="375.3" y2="188.9"/>
	<line class="st8" x1="34.9" y1="182.1" x2="375.3" y2="182.1"/>
	<line class="st8" x1="34.9" y1="175.2" x2="375.3" y2="175.2"/>
	<line class="st8" x1="368.4" y1="168.4" x2="368.4" y2="202.6"/>
	<line class="st8" x1="361.6" y1="168.4" x2="361.6" y2="202.6"/>
	<line class="st8" x1="354.8" y1="168.4" x2="354.8" y2="202.6"/>
	<line class="st8" x1="347.9" y1="168.4" x2="347.9" y2="202.6"/>
	<line class="st8" x1="334.4" y1="168.4" x2="334.4" y2="202.6"/>
	<line class="st8" x1="327.5" y1="168.4" x2="327.5" y2="202.6"/>
	<line class="st8" x1="320.7" y1="168.4" x2="320.7" y2="202.6"/>
	<line class="st8" x1="313.9" y1="168.4" x2="313.9" y2="202.6"/>
	<line class="st8" x1="300.3" y1="168.4" x2="300.3" y2="202.6"/>
	<line class="st8" x1="293.5" y1="168.4" x2="293.5" y2="202.6"/>
	<line class="st8" x1="286.7" y1="168.4" x2="286.7" y2="202.6"/>
	<line class="st8" x1="279.9" y1="168.4" x2="279.9" y2="202.6"/>
	<line class="st8" x1="266.3" y1="168.4" x2="266.3" y2="202.6"/>
	<line class="st8" x1="259.5" y1="168.4" x2="259.5" y2="202.6"/>
	<line class="st8" x1="252.7" y1="168.4" x2="252.7" y2="202.6"/>
	<line class="st8" x1="245.8" y1="168.4" x2="245.8" y2="202.6"/>
	<line class="st8" x1="232.3" y1="168.4" x2="232.3" y2="202.6"/>
	<line class="st8" x1="225.4" y1="168.4" x2="225.4" y2="202.6"/>
	<line class="st8" x1="218.6" y1="168.4" x2="218.6" y2="202.6"/>
	<line class="st8" x1="211.9" y1="168.4" x2="211.9" y2="202.6"/>
	<line class="st8" x1="198.2" y1="168.4" x2="198.2" y2="202.6"/>
	<line class="st8" x1="191.4" y1="168.4" x2="191.4" y2="202.6"/>
	<line class="st8" x1="184.6" y1="168.4" x2="184.6" y2="202.6"/>
	<line class="st8" x1="177.9" y1="168.4" x2="177.9" y2="202.6"/>
	<line class="st8" x1="171" y1="168.4" x2="171" y2="202.6"/>
	<line class="st8" x1="164.2" y1="168.4" x2="164.2" y2="202.6"/>
	<line class="st8" x1="157.4" y1="168.4" x2="157.4" y2="202.6"/>
	<line class="st8" x1="150.7" y1="168.4" x2="150.7" y2="202.6"/>
	<line class="st8" x1="143.8" y1="168.4" x2="143.8" y2="202.6"/>
	<line class="st8" x1="130.2" y1="168.4" x2="130.2" y2="202.6"/>
	<line class="st8" x1="123.3" y1="168.4" x2="123.3" y2="202.6"/>
	<line class="st8" x1="116.6" y1="168.4" x2="116.6" y2="202.6"/>
	<line class="st8" x1="109.8" y1="168.4" x2="109.8" y2="202.6"/>
	<line class="st8" x1="96.1" y1="168.4" x2="96.1" y2="202.6"/>
	<line class="st8" x1="89.4" y1="168.4" x2="89.4" y2="202.6"/>
	<line class="st8" x1="82.6" y1="168.4" x2="82.6" y2="202.6"/>
	<line class="st8" x1="75.8" y1="168.4" x2="75.8" y2="202.6"/>
	<line class="st8" x1="62.1" y1="168.4" x2="62.1" y2="202.6"/>
	<line class="st8" x1="55.4" y1="168.4" x2="55.4" y2="202.6"/>
	<line class="st8" x1="48.6" y1="168.4" x2="48.6" y2="202.6"/>
	<line class="st8" x1="41.7" y1="168.4" x2="41.7" y2="202.6"/>
</g>
<line class="st8" x1="34.9" y1="229.8" x2="375.3" y2="229.8"/>
<line class="st8" x1="34.9" y1="223" x2="375.3" y2="223"/>
<line class="st8" x1="34.9" y1="216.1" x2="375.3" y2="216.1"/>
<line class="st8" x1="34.9" y1="209.3" x2="375.3" y2="209.3"/>
<line class="st8" x1="368.4" y1="202.5" x2="368.4" y2="236.6"/>
<line class="st8" x1="361.6" y1="202.5" x2="361.6" y2="236.6"/>
<line class="st8" x1="354.8" y1="202.5" x2="354.8" y2="236.6"/>
<line class="st8" x1="347.9" y1="202.5" x2="347.9" y2="236.6"/>
<line class="st8" x1="334.4" y1="202.5" x2="334.4" y2="236.6"/>
<line class="st8" x1="327.5" y1="202.5" x2="327.5" y2="236.6"/>
<line class="st8" x1="320.7" y1="202.5" x2="320.7" y2="236.6"/>
<line class="st8" x1="313.9" y1="202.5" x2="313.9" y2="236.6"/>
<line class="st8" x1="300.3" y1="202.5" x2="300.3" y2="236.6"/>
<line class="st8" x1="293.5" y1="202.5" x2="293.5" y2="236.6"/>
<line class="st8" x1="286.7" y1="202.5" x2="286.7" y2="236.6"/>
<line class="st8" x1="279.9" y1="202.5" x2="279.9" y2="236.6"/>
<line class="st8" x1="266.3" y1="202.5" x2="266.3" y2="236.6"/>
<line class="st8" x1="259.5" y1="202.5" x2="259.5" y2="236.6"/>
<line class="st8" x1="252.7" y1="202.5" x2="252.7" y2="236.6"/>
<line class="st8" x1="245.8" y1="202.5" x2="245.8" y2="236.6"/>
<line class="st8" x1="232.3" y1="202.5" x2="232.3" y2="236.6"/>
<line class="st8" x1="225.4" y1="202.5" x2="225.4" y2="236.6"/>
<line class="st8" x1="218.6" y1="202.5" x2="218.6" y2="236.6"/>
<line class="st8" x1="211.9" y1="202.5" x2="211.9" y2="236.6"/>
<line class="st8" x1="198.2" y1="202.5" x2="198.2" y2="236.6"/>
<line class="st8" x1="191.4" y1="202.5" x2="191.4" y2="236.6"/>
<line class="st8" x1="184.6" y1="202.5" x2="184.6" y2="236.6"/>
<line class="st8" x1="177.9" y1="202.5" x2="177.9" y2="236.6"/>
<line class="st8" x1="171" y1="202.5" x2="171" y2="236.6"/>
<line class="st8" x1="164.2" y1="202.5" x2="164.2" y2="236.6"/>
<line class="st8" x1="157.4" y1="202.5" x2="157.4" y2="236.6"/>
<line class="st8" x1="150.7" y1="202.5" x2="150.7" y2="236.6"/>
<line class="st8" x1="143.8" y1="202.5" x2="143.8" y2="236.6"/>
<line class="st8" x1="130.2" y1="202.5" x2="130.2" y2="236.6"/>
<line class="st8" x1="123.3" y1="202.5" x2="123.3" y2="236.6"/>
<line class="st8" x1="116.6" y1="202.5" x2="116.6" y2="236.6"/>
<line class="st8" x1="109.8" y1="202.5" x2="109.8" y2="236.6"/>
<line class="st8" x1="96.1" y1="202.5" x2="96.1" y2="236.6"/>
<line class="st8" x1="89.4" y1="202.5" x2="89.4" y2="236.6"/>
<line class="st8" x1="82.6" y1="202.5" x2="82.6" y2="236.6"/>
<line class="st8" x1="75.8" y1="202.5" x2="75.8" y2="236.6"/>
<line class="st8" x1="62.1" y1="202.5" x2="62.1" y2="236.6"/>
<line class="st8" x1="55.4" y1="202.5" x2="55.4" y2="236.6"/>
<line class="st8" x1="48.6" y1="202.5" x2="48.6" y2="236.6"/>
<line class="st8" x1="41.7" y1="202.5" x2="41.7" y2="236.6"/>
<g>
	<line class="st8" x1="34.9" y1="263.8" x2="375.3" y2="263.8"/>
	<line class="st8" x1="34.9" y1="257" x2="375.3" y2="257"/>
	<line class="st8" x1="34.9" y1="250.2" x2="375.3" y2="250.2"/>
	<line class="st8" x1="34.9" y1="243.3" x2="375.3" y2="243.3"/>
	<line class="st8" x1="368.4" y1="236.5" x2="368.4" y2="270.7"/>
	<line class="st8" x1="361.6" y1="236.5" x2="361.6" y2="270.7"/>
	<line class="st8" x1="354.8" y1="236.5" x2="354.8" y2="270.7"/>
	<line class="st8" x1="347.9" y1="236.5" x2="347.9" y2="270.7"/>
	<line class="st8" x1="334.4" y1="236.5" x2="334.4" y2="270.7"/>
	<line class="st8" x1="327.5" y1="236.5" x2="327.5" y2="270.7"/>
	<line class="st8" x1="320.7" y1="236.5" x2="320.7" y2="270.7"/>
	<line class="st8" x1="313.9" y1="236.5" x2="313.9" y2="270.7"/>
	<line class="st8" x1="300.3" y1="236.5" x2="300.3" y2="270.7"/>
	<line class="st8" x1="293.5" y1="236.5" x2="293.5" y2="270.7"/>
	<line class="st8" x1="286.7" y1="236.5" x2="286.7" y2="270.7"/>
	<line class="st8" x1="279.9" y1="236.5" x2="279.9" y2="270.7"/>
	<line class="st8" x1="266.3" y1="236.5" x2="266.3" y2="270.7"/>
	<line class="st8" x1="259.5" y1="236.5" x2="259.5" y2="270.7"/>
	<line class="st8" x1="252.7" y1="236.5" x2="252.7" y2="270.7"/>
	<line class="st8" x1="245.8" y1="236.5" x2="245.8" y2="270.7"/>
	<line class="st8" x1="232.3" y1="236.5" x2="232.3" y2="270.7"/>
	<line class="st8" x1="225.4" y1="236.5" x2="225.4" y2="270.7"/>
	<line class="st8" x1="218.6" y1="236.5" x2="218.6" y2="270.7"/>
	<line class="st8" x1="211.9" y1="236.5" x2="211.9" y2="270.7"/>
	<line class="st8" x1="198.2" y1="236.5" x2="198.2" y2="270.7"/>
	<line class="st8" x1="191.4" y1="236.5" x2="191.4" y2="270.7"/>
	<line class="st8" x1="184.6" y1="236.5" x2="184.6" y2="270.7"/>
	<line class="st8" x1="177.9" y1="236.5" x2="177.9" y2="270.7"/>
	<line class="st8" x1="171" y1="236.5" x2="171" y2="270.7"/>
	<line class="st8" x1="164.2" y1="236.5" x2="164.2" y2="270.7"/>
	<line class="st8" x1="157.4" y1="236.5" x2="157.4" y2="270.7"/>
	<line class="st8" x1="150.7" y1="236.5" x2="150.7" y2="270.7"/>
	<line class="st8" x1="143.8" y1="236.5" x2="143.8" y2="270.7"/>
	<line class="st8" x1="130.2" y1="236.5" x2="130.2" y2="270.7"/>
	<line class="st8" x1="123.3" y1="236.5" x2="123.3" y2="270.7"/>
	<line class="st8" x1="116.6" y1="236.5" x2="116.6" y2="270.7"/>
	<line class="st8" x1="109.8" y1="236.5" x2="109.8" y2="270.7"/>
	<line class="st8" x1="96.1" y1="236.5" x2="96.1" y2="270.7"/>
	<line class="st8" x1="89.4" y1="236.5" x2="89.4" y2="270.7"/>
	<line class="st8" x1="82.6" y1="236.5" x2="82.6" y2="270.7"/>
	<line class="st8" x1="75.8" y1="236.5" x2="75.8" y2="270.7"/>
	<line class="st8" x1="62.1" y1="236.5" x2="62.1" y2="270.7"/>
	<line class="st8" x1="55.4" y1="236.5" x2="55.4" y2="270.7"/>
	<line class="st8" x1="48.6" y1="236.5" x2="48.6" y2="270.7"/>
	<line class="st8" x1="41.7" y1="236.5" x2="41.7" y2="270.7"/>
</g>
<text transform="matrix(1 0 0 1 194.7959 343.0049)" class="st2 st9 st10">9.5A</text>
<line class="st3" x1="426" y1="100.3" x2="426" y2="202.3"/>
<rect x="413.5" y="133" class="st5" width="25" height="35.5"/>
<text transform="matrix(0 1 -1 0 422.8896 143.6641)" class="st2 st9 st10">3A</text>
</svg>
