<svg xmlns="http://www.w3.org/2000/svg" viewBox="0 0 416.76 101.29"><defs><style>.cls-1{font-size:7.52px;font-family:FZHTJW--GB1-0, FZHTJW -GB1-0-GBpc-EUC-H;}.cls-1,.cls-3{fill:#10386b;}.cls-2{fill:#231815;font-size:9px;}</style></defs><title>hitrobot_hrg_left_and_right_combination</title><g id="图层_2" data-name="图层 2"><g id="图层_1-2" data-name="图层 1"><text class="cls-1" transform="translate(187.71 98.75) scale(0.95 1)">■<tspan class="cls-2" x="7.52" y="0">左右组合</tspan></text><path class="cls-3" d="M173.07,3.62h7.33V23.28h-2V21.35h-3.35v2.38h-2Zm5.34,15.82V5.53h-3.35V19.44ZM191.59.39l-.47.75q3.26,6,8.07,8.44c-.53.64-1,1.29-1.52,1.93A24.45,24.45,0,0,1,190,3a26.29,26.29,0,0,1-7.82,8.65A20,20,0,0,0,180.7,9.9,22.65,22.65,0,0,0,189,.39Zm-8.38,15.73H196.3V27.57h-2.1V25.91h-8.88v1.66h-2.1Zm1.08-5.56h11.17V12.5H184.29ZM194.19,24V18.06h-8.88V24Z"/><path class="cls-3" d="M203.19,23.28H215.3V4.84H204.77V2.63h23.56V4.84H217.74V23.28h12.14v2.16H203.19Z"/><path class="cls-3" d="M233.92,25.22Q245.33,20.14,246.23,10H234.42V7.83h11.91q.07-3.72.07-7.49h2.41q0,3.72-.07,7.49H261V10h-12.3q2,11,12.89,14.57a22.87,22.87,0,0,0-2.1,2.24,19.16,19.16,0,0,1-11.77-12.9q-2.15,8.39-12.07,13.45C235.27,26.85,234.7,26.14,233.92,25.22Z"/><path class="cls-3" d="M265,17.5a31.09,31.09,0,0,0,4.41-10h-4.14V5.67h4.31V.22h2V5.67h3.87V7.55h-3.87v4.59l1.11-1.1q2.13,1.93,3.34,3.15l-1.49,1.52q-1.7-1.88-3-3.12v14.6h-2V12.36A24.78,24.78,0,0,1,266,19.94Q265.51,18.69,265,17.5ZM279.62,4.09v9.15q0,9.9-4.95,14.35-.77-.94-1.63-1.88,4.37-3.85,4.37-12V2h10.29V22.79q0,1.38,1,1.38h.64q.88,0,1.13-1.55c.19-1.42.31-3,.39-4.59a21.61,21.61,0,0,0,2.1.89q-.25,2.74-.5,4.48-.45,2.93-2.82,2.93h-1.46q-2.65,0-2.65-3.15V4.09Z"/><path class="cls-3" d="M297.15,11.81h11.17a8.31,8.31,0,0,0,.55-2.41l2,.27a12.48,12.48,0,0,1-.48,2.13h6q-1.11-.8-2.34-1.58L315.21,9q1.82,1.08,3.29,2.16l-.62.67H323v1.82H312.36q3.19,3.13,11.34,3-.66,1.13-1.13,2.13l-1.41-.12V27h-1.94V25.52H313.3V27h-1.94V18.47h8.81q-7.91-1.07-10.11-4.84h-.5q-1.55,3.29-10,4.84h8.85V27h-1.94v-1.5h-5.83V27h-1.94v-8.4l-1.52.28q-.42-.83-1.08-2,9.23-1.19,11.09-3.32h-10Zm1.49-10.07h9.71v8h-1.94V8.93h-5.83v1.13h-1.94Zm7.77,1.71h-5.83V7.22h5.83Zm0,16.73h-5.83v3.62h5.83Zm4.89-18.45h9.79V9.9h-1.94v-1h-5.92v.86h-1.94Zm7.86,1.71h-5.92V7.22h5.92Zm0,16.73H313.3v3.62h5.92Z"/><path class="cls-3" d="M327.42,25.05q12.06-7,12.75-24.45h2.43A51.73,51.73,0,0,1,342,6.25q3.43,13.83,12.89,18.2c-.78.85-1.46,1.65-2,2.41q-8.21-4.65-11.71-16.44-3,11.39-12,16.74A22.9,22.9,0,0,0,327.42,25.05Z"/><path class="cls-3" d="M359.39,18.67h11.92V16.79h1.94v1.88h11.89v1.77H375.4a28.18,28.18,0,0,0,10.76,4.62q-.75,1.16-1.3,2a30.16,30.16,0,0,1-11.62-6.18v6.49h-1.94V20.89a33.53,33.53,0,0,1-11.62,6.26q-.58-.86-1.3-1.74a29.29,29.29,0,0,0,10.67-5h-9.68ZM371.64,1l1.63-1a18.24,18.24,0,0,1,2.13,2.82l-1.27.8h10.59V5.34H374.24v2h9.26V8.9h-9.26v2h9.26v1.6h-9.26v2h10.56V16.2H364.65v1.05h-1.94V7.41a31.83,31.83,0,0,1-2.9,3,11.39,11.39,0,0,0-1.33-1.83A29.45,29.45,0,0,0,365.26.33l1.91.86c-.52.85-1,1.66-1.57,2.43h7.82A30.32,30.32,0,0,0,371.64,1Zm-7,6.31h7.66v-2h-7.66Zm0,3.56h7.66v-2h-7.66Zm0,3.63h7.66v-2h-7.66Z"/><path class="cls-3" d="M391.34,1.6h24.2v25.8h-2.1V26h-20v1.38h-2.1Zm22.09,1.93h-20V24.11h20ZM394.8,8.43h10.34v-4h2v4h5.31v1.88h-5.31v8.43q0,4-3.82,4-1.55,0-3.21-.06-.16-1-.44-2.18a27.48,27.48,0,0,0,3.15.22c1.51,0,2.27-.86,2.27-2.57V11.7a30.4,30.4,0,0,1-9.93,9.24,10.09,10.09,0,0,0-1.41-1.85,28.6,28.6,0,0,0,10-8.77h-9Z"/><path class="cls-3" d="M182.49,39.62h1.44V52.69h-1.44V46.61h-7.32v6.08h-1.5V39.62h1.5V45.3h7.32Z"/><path class="cls-3" d="M192.42,39.62h1.44V52.69h-1.44Z"/><path class="cls-3" d="M211.7,39.62v1.24h-4.45V52.69h-1.5V40.86h-4.45V39.62Z"/><path class="cls-3" d="M240.32,52.69h-2l-4.51-5.88h-3.46v5.88h-1.51V39.62h6.08q4.18.19,4.45,3.53,0,3.4-3.92,3.66Zm-10-11.77V45.5h4.25q3.2-.06,3.21-2.42-.07-2.09-3.21-2.16Z"/><path class="cls-3" d="M253,52.89q-6-.33-6.21-6.47.26-6.67,6.41-7,5.82.39,6.21,6.86Q259.14,52.63,253,52.89Zm.06-12.16q-4.31.39-4.77,5.56.26,5,4.64,5.43,4.57-.26,4.84-5.43Q257.38,41.12,253.06,40.73Z"/><path class="cls-3" d="M272.28,52.69h-5.43V39.62H272q3.93.19,4.18,3.27a2.92,2.92,0,0,1-2.61,2.88v.07a3.32,3.32,0,0,1,3.14,3.34Q276.46,52.56,272.28,52.69Zm-.65-11.77h-3.4V45.3h3.4q2.68-.13,2.94-2.35Q274.43,41,271.63,40.92Zm.2,5.69h-3.59v4.9h3.86q3.07,0,3.07-2.55Q275,46.74,271.82,46.61Z"/><path class="cls-3" d="M290.12,52.89q-5.95-.33-6.21-6.47.26-6.67,6.4-7,5.82.39,6.21,6.86Q296.26,52.63,290.12,52.89Zm.06-12.16q-4.31.39-4.77,5.56.26,5,4.64,5.43,4.57-.26,4.83-5.43Q294.5,41.12,290.18,40.73Z"/><path class="cls-3" d="M313.45,39.62v1.24H309V52.69h-1.5V40.86h-4.45V39.62Z"/><path class="cls-3" d="M336.58,46h5.62v4.77q-1.63,2.16-5.62,2.16-6.14-.33-6.47-6.54.26-6.67,6.21-6.93,4.38.06,5.82,3.86l-1.63.39a4.22,4.22,0,0,0-4.25-2.94q-4.18.39-4.57,5.56.33,5,4.84,5.43a5.23,5.23,0,0,0,4.25-1.57V47.2h-4.18Z"/><path class="cls-3" d="M361.54,52.69h-2L355,46.81h-3.46v5.88H350V39.62h6.08q4.18.19,4.45,3.53,0,3.4-3.92,3.66Zm-10-11.77V45.5h4.25q3.2-.06,3.2-2.42-.07-2.09-3.2-2.16Z"/><path class="cls-3" d="M374.22,52.89q-6-.33-6.21-6.47.26-6.67,6.41-7,5.82.39,6.21,6.86Q380.36,52.63,374.22,52.89Zm.06-12.16q-4.31.39-4.77,5.56.26,5,4.64,5.43,4.58-.26,4.84-5.43Q378.6,41.12,374.28,40.73Z"/><path class="cls-3" d="M398.47,39.62v7.65q.06,5.69-5.23,5.62t-5.1-5.62V39.62h1.5V47.2q-.06,4.64,3.6,4.51,3.92.13,3.79-4.51V39.62Z"/><path class="cls-3" d="M412.26,47.4H408.2v5.29h-1.44V39.62h5.62q4,.19,4.38,3.86Q416.7,47.33,412.26,47.4ZM412,40.92H408.2v5.17H412q3.13-.07,3.2-2.68Q415.06,41,412,40.92Z"/><rect class="cls-3" x="171.97" y="32.95" width="244.72" height="0.55"/><polygon class="cls-3" points="146.68 31.27 122.74 31.27 119.96 36.69 134.34 36.69 139.47 47.07 107.57 47.07 123.48 15.06 127.61 23.32 142.69 23.32 131.12 0.25 114.56 0.25 89.33 50.8 78.54 29.3 95.89 29.3 110.36 0.25 58.82 0.25 46.97 23.86 30.69 23.86 42.52 0.25 26.34 0.25 0 52.69 16.24 52.69 27.96 29.3 44.27 29.3 32.52 52.69 48.75 52.69 72.3 5.7 92.46 5.7 82.99 23.86 67.31 23.86 63.8 30.88 74.61 52.69 157.3 52.69 146.68 31.27"/></g></g></svg>