<svg xmlns="http://www.w3.org/2000/svg" viewBox="0 0 277.45 92.49"><defs><style>.cls-1{fill:#10386b;}</style></defs><title>hitrobot_logo_blue</title><g id="图层_2" data-name="图层 2"><g id="图层_1-2" data-name="图层 1"><polygon class="cls-1" points="258.72 54.71 216.49 54.71 211.59 64.26 236.94 64.26 246 82.59 189.73 82.59 217.79 26.12 225.08 40.69 251.69 40.69 231.28 0 202.06 0 157.56 89.15 138.53 51.24 169.14 51.24 194.65 0 103.76 0 82.85 41.64 54.13 41.64 74.99 0 46.46 0 0 92.49 28.65 92.49 49.32 51.24 78.08 51.24 57.35 92.49 85.98 92.49 127.52 9.61 163.08 9.61 146.38 41.64 118.72 41.64 112.53 54.03 131.6 92.49 277.44 92.49 258.72 54.71"/></g></g></svg>