<svg xmlns="http://www.w3.org/2000/svg" viewBox="0 0 263.81 86.52"><defs><style>.cls-1{font-size:7.52px;font-family:FZHTJW--GB1-0, FZHTJW -GB1-0-GBpc-EUC-H;}.cls-1,.cls-3{fill:#10386b;}.cls-2{fill:#231815;font-size:8.01px;letter-spacing:0em;}</style></defs><title>hitrobot_hrg_text_logo_blue</title><g id="图层_2" data-name="图层 2"><g id="图层_1-2" data-name="图层 1"><text class="cls-1" transform="translate(88.43 84.25) scale(0.95 1)">■<tspan class="cls-2" x="7.52" y="0" xml:space="preserve"> 中英文标准字体横式组合</tspan></text><path class="cls-3" d="M1.18,3.9h7.9V25.09H6.93V23H3.32v2.56H1.18ZM6.93,21V6H3.32V21ZM21.14.42l-.51.81q3.52,6.5,8.7,9.09c-.58.7-1.12,1.39-1.64,2.09a26.35,26.35,0,0,1-8.31-9.18A28.34,28.34,0,0,1,11,12.54,21.4,21.4,0,0,0,9.4,10.67,24.38,24.38,0,0,0,18.34.42Zm-9,17h14.1V29.71H23.95V27.92H14.38v1.79H12.12Zm1.16-6h12v2.09h-12ZM23.95,25.84V19.46H14.38v6.37Z"/><path class="cls-3" d="M33.64,25.09H46.7V5.21H35.34V2.83H60.73V5.21H49.32V25.09H62.4v2.32H33.64Z"/><path class="cls-3" d="M66.76,27.18Q79.06,21.71,80,10.76H67.3V8.43H80.13q.07-4,.07-8.08H82.8q0,4-.08,8.08H95.94v2.32H82.68q2.11,11.9,13.89,15.7a24.77,24.77,0,0,0-2.27,2.42A20.65,20.65,0,0,1,81.62,15q-2.33,9-13,14.5Q68,28.67,66.76,27.18Z"/><path class="cls-3" d="M100.3,18.86a33.51,33.51,0,0,0,4.75-10.73H100.6v-2h4.65V.24h2.14V6.11h4.17v2h-4.17v4.95l1.19-1.19q2.29,2.08,3.6,3.39l-1.61,1.64q-1.84-2-3.19-3.37V29.29h-2.14v-16a26.73,26.73,0,0,1-4,8.16Q100.81,20.15,100.3,18.86ZM116,4.41v9.86q0,10.67-5.33,15.47-.83-1-1.76-2,4.71-4.14,4.71-12.9V2.15h11.09V24.55q0,1.49,1,1.49h.69q1,0,1.22-1.67.3-2.29.42-4.94a24.16,24.16,0,0,0,2.26,1q-.27,3-.54,4.83-.48,3.16-3,3.16h-1.58q-2.86,0-2.86-3.39V4.41Z"/><path class="cls-3" d="M134.91,12.73h12a8.9,8.9,0,0,0,.6-2.59l2.15.3a13.65,13.65,0,0,1-.52,2.3h6.5q-1.19-.87-2.52-1.7l1.22-1.34q2,1.16,3.55,2.32l-.67.72h5.56v2H151.3q3.44,3.37,12.22,3.19c-.48.81-.88,1.58-1.22,2.29L160.77,20v9.1h-2.09V27.5h-6.38v1.61h-2.09V19.91h9.49q-8.52-1.15-10.89-5.22h-.54q-1.67,3.55-10.82,5.22H147v9.21h-2.09V27.5h-6.29v1.64h-2.09V20.09l-1.64.3q-.45-.89-1.16-2.12,10-1.28,11.95-3.58H134.91Zm1.61-10.85H147v8.67h-2.09V9.62H138.6v1.22h-2.09Zm8.37,1.85H138.6V7.78h6.29Zm0,18h-6.29v3.9h6.29Zm5.28-19.88h10.55v8.79h-2.09v-1h-6.38v.92h-2.09Zm8.46,1.85h-6.38V7.78h6.38Zm0,18h-6.38v3.9h6.38Z"/><path class="cls-3" d="M167.52,27q13-7.51,13.74-26.34h2.62a57.24,57.24,0,0,1-.63,6.08q3.7,14.9,13.89,19.61-1.25,1.37-2.21,2.59-8.85-5-12.62-17.72-3.26,12.28-12.92,18A25.43,25.43,0,0,0,167.52,27Z"/><path class="cls-3" d="M202,20.12h12.85v-2h2.09v2h12.81V22H219.24a30.33,30.33,0,0,0,11.59,5l-1.4,2.2a32.54,32.54,0,0,1-12.52-6.66v7h-2.09v-7a36.15,36.15,0,0,1-12.52,6.75q-.63-.92-1.4-1.88A31.54,31.54,0,0,0,212.41,22H202Zm13.2-19L216.94,0a19.7,19.7,0,0,1,2.3,3l-1.37.86h11.41V5.75H218V7.87h10V9.59H218v2.12h10v1.73H218v2.18h11.38v1.85H207.64V18.6h-2.08V8a34.93,34.93,0,0,1-3.13,3.22,12.08,12.08,0,0,0-1.43-2A31.73,31.73,0,0,0,208.3.36l2.06.92q-.84,1.37-1.7,2.62h8.43A32.5,32.5,0,0,0,215.18,1.07Zm-7.54,6.8h8.26V5.75h-8.26Zm0,3.84h8.26V9.59h-8.26Zm0,3.91h8.26V13.44h-8.26Z"/><path class="cls-3" d="M236.41,1.73h26.08v27.8h-2.27V28.07H238.68v1.49h-2.27Zm23.81,2.09H238.68V26h21.54ZM240.14,9.09h11.15V4.8h2.21V9.09h5.72v2h-5.72V20.2q0,4.32-4.11,4.32-1.67,0-3.46-.06-.18-1-.48-2.35a29.54,29.54,0,0,0,3.4.24q2.44,0,2.44-2.77v-7a32.73,32.73,0,0,1-10.7,10,10.78,10.78,0,0,0-1.52-2,30.89,30.89,0,0,0,10.79-9.45h-9.72Z"/><path class="cls-3" d="M11.34,42.69h1.55V56.78H11.34V50.23H3.45v6.55H1.83V42.69H3.45v6.13h7.89Z"/><path class="cls-3" d="M22,42.69h1.55V56.78H22Z"/><path class="cls-3" d="M42.82,42.69V44H38V56.78H36.41V44H31.62V42.69Z"/><path class="cls-3" d="M73.66,56.78H71.48l-4.86-6.34H62.88v6.34H61.26V42.69h6.55q4.51.21,4.79,3.8,0,3.67-4.23,3.94ZM62.88,44.1V49h4.58q3.45-.07,3.45-2.61-.07-2.25-3.45-2.32Z"/><path class="cls-3" d="M87.32,57q-6.41-.35-6.69-7,.28-7.19,6.9-7.54,6.27.42,6.7,7.4Q93.94,56.72,87.32,57Zm.07-13.1q-4.65.42-5.14,6,.28,5.42,5,5.85,4.93-.28,5.21-5.85Q92,44.32,87.39,43.89Z"/><path class="cls-3" d="M108.1,56.78h-5.85V42.69h5.5q4.23.21,4.51,3.52a3.14,3.14,0,0,1-2.82,3.1v.07A3.58,3.58,0,0,1,112.82,53Q112.61,56.64,108.1,56.78Zm-.7-12.68h-3.66v4.72h3.66q2.89-.14,3.17-2.54Q110.42,44.17,107.39,44.1Zm.21,6.13h-3.87v5.28h4.16q3.31,0,3.31-2.75Q111,50.37,107.61,50.23Z"/><path class="cls-3" d="M127.32,57q-6.41-.35-6.69-7,.28-7.19,6.9-7.54,6.27.42,6.69,7.4Q133.94,56.72,127.32,57Zm.07-13.1q-4.65.42-5.14,6,.28,5.42,5,5.85,4.93-.28,5.21-5.85Q132,44.32,127.39,43.89Z"/><path class="cls-3" d="M152.46,42.69V44h-4.79V56.78h-1.62V44h-4.79V42.69Z"/><path class="cls-3" d="M177.39,49.53h6.06v5.14Q181.69,57,177.39,57q-6.62-.35-7-7,.28-7.19,6.69-7.47,4.72.07,6.27,4.16l-1.76.42A4.54,4.54,0,0,0,177,43.89q-4.51.42-4.93,6,.35,5.42,5.21,5.85,3.17,0,4.58-1.69V50.87h-4.51Z"/><path class="cls-3" d="M204.3,56.78h-2.18l-4.86-6.34h-3.73v6.34H191.9V42.69h6.55q4.51.21,4.79,3.8,0,3.67-4.23,3.94ZM193.52,44.1V49h4.58q3.45-.07,3.45-2.61-.07-2.25-3.45-2.32Z"/><path class="cls-3" d="M218,57q-6.41-.35-6.69-7,.28-7.19,6.9-7.54,6.27.42,6.69,7.4Q224.58,56.72,218,57Zm.07-13.1q-4.65.42-5.14,6,.28,5.42,5,5.85,4.93-.28,5.21-5.85Q222.68,44.32,218,43.89Z"/><path class="cls-3" d="M244.09,42.69v8.24q.07,6.13-5.63,6.06T233,50.94V42.69h1.62v8.17q-.07,5,3.88,4.86,4.23.14,4.09-4.86V42.69Z"/><path class="cls-3" d="M258.95,51.08h-4.37v5.71H253V42.69h6.06q4.29.21,4.72,4.16Q263.74,51,258.95,51.08Zm-.28-7h-4.09v5.57h4.09q3.38-.07,3.45-2.89Q262,44.18,258.67,44.1Z"/><rect class="cls-3" y="35.51" width="263.73" height="0.59"/></g></g></svg>