<svg xmlns="http://www.w3.org/2000/svg" viewBox="0 0 219.54 219.54"><defs><style>.cls-1{fill:#fff;stroke:#231815;stroke-width:0.22px;}.cls-2{fill:#231815;}</style></defs><title>hitrobot_sign_white_top_down</title><g id="图层_2" data-name="图层 2"><g id="图层_1-2" data-name="图层 1"><rect class="cls-1" x="0.11" y="0.11" width="219.31" height="219.31"/><path class="cls-2" d="M86.86,129.34h0Z"/><path class="cls-2" d="M73.85,105.29a23,23,0,0,0-3.14,6.39,42.81,42.81,0,0,0,15.15,17C80.59,122.8,76.39,114.67,73.85,105.29Z"/><path class="cls-2" d="M151.31,90.38l0-.45-.45,0c-5.62-.23-11.53-.36-17.6-.38h-.34c-16.16.06-28.74.88-33.18,1.48V86.74c3.57-1.76,16.69-5,32.93-5.11h.84a126.65,126.65,0,0,1,15.95,1.09l.74.1L150,82.1a41.66,41.66,0,0,0-2-5.89l-.11-.26-.27,0a103.17,103.17,0,0,0-14.09-1h-.82C116.91,75,104,78.51,99.72,82V78.22c3.19-6.46,17-11.18,33.07-11.24h.56a79.36,79.36,0,0,1,8.46.48l1.19.13-.74-.94a42.29,42.29,0,0,0-5.56-5.82l-.13-.11h-.17c-.9,0-1.8-.07-2.71-.07h-1c-14.38.05-28,5.19-32.93,12.18V69.46c1.75-7.51,10.44-13.55,22.7-15.81l1.9-.34-1.83-.62a42.51,42.51,0,0,0-54,53.63,19.16,19.16,0,0,1,4.31-5.27,80.18,80.18,0,0,1-1.68-16.39,61.42,61.42,0,0,1,2.2-14.11A69.11,69.11,0,0,0,71.9,84.67a55.17,55.17,0,0,0,2.26,15.26c6.15-5,15.77-9.47,25.06-11.21,0,0-15.44,4.39-24,14.68A75.71,75.71,0,0,0,94.58,133a42.57,42.57,0,0,0,27.81.29l1.83-.61-1.9-.35c-12.38-2.3-20.83-8.2-22.6-15.79V113.2c4.93,7,18.55,12.13,32.92,12.18h.85c.91,0,1.88,0,2.85-.08h.17l.13-.11a43.16,43.16,0,0,0,5.58-5.81l.74-.95-1.19.13a80.37,80.37,0,0,1-8.42.48h-.56c-16-.06-29.88-4.78-33.07-11.24V104c4.25,3.53,17.19,7.07,32.94,7.15h.82a101.9,101.9,0,0,0,14.07-1l.28,0,.11-.26a42.71,42.71,0,0,0,2-5.89l.19-.72-.74.1a126,126,0,0,1-15.93,1.09h-.84c-16.23-.09-29.35-3.35-32.93-5.11V95c4.43.61,17,1.42,33.18,1.48h.34c6.1,0,12-.15,17.6-.38l.45,0,0-.45c.06-.91.09-1.8.09-2.65S151.37,91.25,151.31,90.38Z"/><path class="cls-2" d="M94.28,132.92h0Z"/><path class="cls-2" d="M47.45,164.33V149.1h11v1.79h-9v4.67h8.42v1.79H49.47v5.18h9.35v1.8Z"/><path class="cls-2" d="M65.95,164.33,60,149.1h2.18l4,11.06q.47,1.33.8,2.5c.24-.83.51-1.66.82-2.5l4.11-11.06H74l-6,15.23Z"/><path class="cls-2" d="M75.83,164.33V149.1h11v1.79h-9v4.67h8.42v1.79H77.84v5.18h9.35v1.8Z"/><path class="cls-2" d="M90,164.33V149.1h6.75a9,9,0,0,1,3.1.41,3.39,3.39,0,0,1,1.69,1.45,4.33,4.33,0,0,1,.63,2.29,3.84,3.84,0,0,1-1,2.73,5.32,5.32,0,0,1-3.24,1.41,5.15,5.15,0,0,1,1.21.76,10.38,10.38,0,0,1,1.67,2l2.65,4.14h-2.54l-2-3.17q-.88-1.37-1.45-2.1a4.65,4.65,0,0,0-1-1,3.15,3.15,0,0,0-.92-.4,6.06,6.06,0,0,0-1.12-.07H92v6.76Zm2-8.51h4.33a6.48,6.48,0,0,0,2.16-.29,2.29,2.29,0,0,0,1.18-.91,2.47,2.47,0,0,0,.4-1.37,2.28,2.28,0,0,0-.79-1.78,3.66,3.66,0,0,0-2.47-.7H92Z"/><path class="cls-2" d="M109.63,164.33v-6.45l-5.87-8.78h2.45l3,4.59q.83,1.29,1.55,2.58.69-1.19,1.66-2.69l2.95-4.48h2.35l-6.08,8.78v6.45Z"/><path class="cls-2" d="M119.44,164.33V149.1h5.71a7.11,7.11,0,0,1,2.8.46A3.59,3.59,0,0,1,129.6,151a3.75,3.75,0,0,1,.6,2,3.45,3.45,0,0,1-.53,1.84,3.79,3.79,0,0,1-1.6,1.39,4,4,0,0,1,2.13,1.38,3.71,3.71,0,0,1,.74,2.31,4.45,4.45,0,0,1-.45,2,3.84,3.84,0,0,1-1.12,1.42,4.69,4.69,0,0,1-1.67.75,10.12,10.12,0,0,1-2.45.25Zm2-8.83h3.29a7.35,7.35,0,0,0,1.92-.18,2.14,2.14,0,0,0,1.16-.76,2.2,2.2,0,0,0,.39-1.33,2.44,2.44,0,0,0-.36-1.33,1.84,1.84,0,0,0-1-.79,8.62,8.62,0,0,0-2.32-.21h-3Zm0,7h3.79a9,9,0,0,0,1.37-.07,3.35,3.35,0,0,0,1.16-.41,2.21,2.21,0,0,0,.77-.85,2.64,2.64,0,0,0,.3-1.28,2.55,2.55,0,0,0-.44-1.48,2.31,2.31,0,0,0-1.21-.88,7.49,7.49,0,0,0-2.23-.25h-3.52Z"/><path class="cls-2" d="M133.1,156.91a8.27,8.27,0,0,1,2-5.94,6.93,6.93,0,0,1,5.25-2.14,7.29,7.29,0,0,1,3.8,1,6.57,6.57,0,0,1,2.58,2.81,9.16,9.16,0,0,1,.89,4.09,9,9,0,0,1-.93,4.14,6.4,6.4,0,0,1-2.65,2.77,7.59,7.59,0,0,1-3.7.94,7.21,7.21,0,0,1-3.84-1,6.67,6.67,0,0,1-2.57-2.84A8.57,8.57,0,0,1,133.1,156.91Zm2.08,0a6.1,6.1,0,0,0,1.48,4.34,5.17,5.17,0,0,0,7.46,0,6.47,6.47,0,0,0,1.47-4.54,7.77,7.77,0,0,0-.63-3.24,4.83,4.83,0,0,0-1.84-2.15,5,5,0,0,0-2.72-.76,5.16,5.16,0,0,0-3.68,1.47Q135.18,153.5,135.18,156.94Z"/><path class="cls-2" d="M150.26,164.33V149.1h5.25a12.8,12.8,0,0,1,2.71.22,5.17,5.17,0,0,1,2.24,1.09,6.19,6.19,0,0,1,1.8,2.6,10.22,10.22,0,0,1,.6,3.62,10.65,10.65,0,0,1-.4,3.07,7.48,7.48,0,0,1-1,2.22A5.53,5.53,0,0,1,160,163.3a5.67,5.67,0,0,1-1.82.76,10.44,10.44,0,0,1-2.45.26Zm2-1.8h3.25a7.87,7.87,0,0,0,2.36-.28,3.38,3.38,0,0,0,1.37-.79,4.79,4.79,0,0,0,1.11-1.92,9.41,9.41,0,0,0,.4-2.94,7.08,7.08,0,0,0-.79-3.67,4,4,0,0,0-1.9-1.72,7.89,7.89,0,0,0-2.61-.31h-3.2Z"/><path class="cls-2" d="M169.91,164.33v-6.45L164,149.1h2.45l3,4.59q.83,1.29,1.55,2.58.68-1.19,1.66-2.69l2.95-4.48H178l-6.08,8.78v6.45Z"/><path class="cls-2" d="M51.84,168.43h.55v6.35h-.55v-3H48v3h-.59v-6.35H48v2.83h3.81Z"/><path class="cls-2" d="M57.46,168.43H58v6.35h-.55Z"/><path class="cls-2" d="M67.56,168.43V169H65.35v5.82h-.59V169H62.55v-.52Z"/><path class="cls-2" d="M83,174.78h-.78L80,171.85H78.16v2.93h-.59v-6.35h3c1.32.06,2,.63,2.12,1.69s-.67,1.67-2,1.76Zm-4.88-5.86v2.44h2.21q1.66,0,1.66-1.27t-1.66-1.17Z"/><path class="cls-2" d="M90.22,174.88a2.88,2.88,0,0,1-3-3.12q.13-3.25,3.13-3.42,2.8.2,3,3.35Q93.18,174.77,90.22,174.88Zm0-6.06q-2.24.23-2.47,2.87.13,2.57,2.41,2.77,2.34-.13,2.47-2.77Q92.47,169,90.25,168.82Z"/><path class="cls-2" d="M100.88,171.46c1.06.2,1.63.75,1.69,1.66q-.1,1.63-2.08,1.66H97.85v-6.35h2.47q1.86.1,2,1.56A1.62,1.62,0,0,1,100.88,171.46Zm-.71-2.54H98.37v2.34h1.79q1.4-.06,1.53-1.24C101.64,169.31,101.14,168.94,100.16,168.92Zm.1,2.83H98.37v2.6h2q1.6,0,1.6-1.33Q101.89,171.85,100.26,171.75Z"/><path class="cls-2" d="M110,174.88a2.87,2.87,0,0,1-3-3.12q.13-3.25,3.12-3.42,2.8.2,3,3.35Q113,174.77,110,174.88Zm0-6.06q-2.25.23-2.47,2.87.13,2.57,2.41,2.77,2.34-.13,2.47-2.77Q112.28,169,110.07,168.82Z"/><path class="cls-2" d="M122.22,168.43V169H120v5.82h-.59V169h-2.21v-.52Z"/><path class="cls-2" d="M135.23,171.59h2.64v2.28a3.21,3.21,0,0,1-2.7,1,3,3,0,0,1-3.16-3.16q.13-3.25,3-3.38a2.7,2.7,0,0,1,2.77,1.79l-.65.16a2.15,2.15,0,0,0-2.18-1.46q-2.15.23-2.35,2.87.16,2.57,2.47,2.77a2.74,2.74,0,0,0,2.21-.81v-1.56h-2.08Z"/><path class="cls-2" d="M148.07,174.78h-.78L145,171.85h-1.86v2.93h-.58v-6.35h3c1.32.06,2,.63,2.12,1.69s-.67,1.67-2,1.76Zm-4.88-5.86v2.44h2.21q1.66,0,1.66-1.27c0-.76-.58-1.15-1.66-1.17Z"/><path class="cls-2" d="M155.25,174.88a2.87,2.87,0,0,1-3-3.12q.13-3.25,3.13-3.42,2.79.2,3,3.35Q158.21,174.77,155.25,174.88Zm0-6.06q-2.25.23-2.47,2.87.13,2.57,2.41,2.77,2.34-.13,2.47-2.77Q157.49,169,155.28,168.82Z"/><path class="cls-2" d="M167.89,168.43v3.74q0,2.74-2.51,2.7t-2.47-2.7v-3.74h.58v3.71c0,1.61.61,2.38,1.89,2.31s2-.71,2-2.31v-3.71Z"/><path class="cls-2" d="M175.52,172.14H173.4v2.64h-.55v-6.35h2.73a1.94,1.94,0,0,1,2.08,1.85C177.64,171.5,176.93,172.12,175.52,172.14Zm-.13-3.22h-2v2.73h2q1.63,0,1.66-1.4C177,169.38,176.45,168.94,175.39,168.92Z"/></g></g></svg>