<svg xmlns="http://www.w3.org/2000/svg" viewBox="0 0 301.73 168.12"><defs><style>.cls-1{fill:#fff;stroke:#231815;stroke-width:0.32px;}.cls-2{font-size:7.52px;fill:#10386b;font-family:FZHTJW--GB1-0, FZHTJW -GB1-0-GBpc-EUC-H;}.cls-3,.cls-4,.cls-5{fill:#231815;}.cls-3{font-size:9px;}.cls-4{stroke:#fff;stroke-width:0.22px;}</style></defs><title>hitrobot_hrg_text_blue</title><g id="图层_2" data-name="图层 2"><g id="图层_1-2" data-name="图层 1"><rect class="cls-1" x="0.16" y="0.16" width="301.41" height="130.33"/><text class="cls-2" transform="translate(125.2 165.58) scale(0.95 1)">■<tspan class="cls-3" x="7.52" y="0" xml:space="preserve"> 标准字体反黑稿</tspan></text><path class="cls-4" d="M43.43,44.22h6.45V61.53H48.13v-1.7H45.18v2.09H43.43Zm4.7,13.93V45.9H45.18V58.15ZM59.74,41.37l-.41.66a16.89,16.89,0,0,0,7.11,7.43c-.47.57-.92,1.14-1.34,1.71a21.54,21.54,0,0,1-6.79-7.5,23.16,23.16,0,0,1-6.89,7.62,17.57,17.57,0,0,0-1.27-1.53,19.92,19.92,0,0,0,7.3-8.37ZM52.36,55.22H63.88V65.3H62V63.84H54.21V65.3H52.36Zm.95-4.89h9.84V52H53.31ZM62,62.14V56.93H54.21v5.21Z"/><path class="cls-4" d="M70,61.53H80.62V45.29H71.34V43.34H92.08v1.95H82.76V61.53H93.45v1.9H70Z"/><path class="cls-4" d="M97,63.23q10-4.47,10.84-13.42H97.45v-1.9h10.48q.06-3.28.06-6.6h2.12q0,3.28-.06,6.6h10.8v1.9H110q1.73,9.73,11.35,12.83a20.29,20.29,0,0,0-1.85,2,16.87,16.87,0,0,1-10.36-11.36q-1.9,7.39-10.63,11.84Q98,64.45,97,63.23Z"/><path class="cls-4" d="M124.41,56.44a27.36,27.36,0,0,0,3.88-8.76h-3.64V46h3.8v-4.8h1.75V46h3.41v1.66h-3.41v4l1-1q1.87,1.7,2.95,2.77l-1.31,1.34q-1.5-1.66-2.61-2.75V65h-1.75v-13a21.79,21.79,0,0,1-3.24,6.67Q124.83,57.49,124.41,56.44Zm12.83-11.81v8.06q0,8.72-4.36,12.64-.68-.83-1.44-1.65,3.85-3.39,3.85-10.54V42.78h9.06V61.09q0,1.22.85,1.22h.56q.78,0,1-1.36.24-1.87.34-4a19.68,19.68,0,0,0,1.85.78q-.22,2.41-.44,3.94-.39,2.58-2.48,2.58h-1.29q-2.34,0-2.34-2.77V44.63Z"/><path class="cls-4" d="M152.69,51.43h9.84a7.3,7.3,0,0,0,.49-2.12l1.75.24a11.2,11.2,0,0,1-.43,1.88h5.31c-.65-.47-1.34-.93-2.06-1.39l1-1.1a34.55,34.55,0,0,1,2.9,1.9l-.55.59h4.54V53h-9.4q2.81,2.75,10,2.61c-.39.66-.72,1.29-1,1.87l-1.24-.11v7.44h-1.7V63.5H166.9v1.32h-1.7V57.29H173q-7-.94-8.9-4.26h-.44q-1.37,2.9-8.84,4.26h7.79v7.52h-1.71V63.5h-5.14v1.34H154v-7.4l-1.34.24c-.24-.49-.56-1.06-1-1.73q8.13-1,9.76-2.92h-8.81ZM154,42.56h8.55v7.08h-1.7v-.76H155.7v1H154Zm6.84,1.51H155.7v3.31h5.14Zm0,14.73h-5.14V62h5.14Zm4.31-16.24h8.62v7.18h-1.7v-.85h-5.21v.76h-1.71Zm6.91,1.51h-5.21v3.31h5.21Zm0,14.73H166.9V62h5.21Z"/><path class="cls-4" d="M179.33,63.09Q189.95,57,190.56,41.56h2.14a46.5,46.5,0,0,1-.51,5q3,12.17,11.35,16-1,1.12-1.8,2.12-7.23-4.09-10.31-14.47-2.66,10-10.55,14.74A20.6,20.6,0,0,0,179.33,63.09Z"/><path class="cls-4" d="M207.49,57.46H218V55.81h1.7v1.66h10.47V59h-8.57a24.8,24.8,0,0,0,9.47,4.07l-1.14,1.8a26.59,26.59,0,0,1-10.23-5.44v5.71H218V59.42a29.51,29.51,0,0,1-10.23,5.52q-.51-.76-1.14-1.53A25.77,25.77,0,0,0,216,59h-8.52Zm10.79-15.56,1.44-.88a16.1,16.1,0,0,1,1.88,2.48l-1.12.71h9.33v1.51h-9.23v1.73h8.16v1.41h-8.16V50.6h8.16V52h-8.16v1.78h9.3V55.3H212.11v.93h-1.7V47.55a28.65,28.65,0,0,1-2.56,2.63,9.88,9.88,0,0,0-1.17-1.61,25.94,25.94,0,0,0,6-7.26l1.68.75q-.68,1.12-1.39,2.14h6.89A26.37,26.37,0,0,0,218.27,41.91Zm-6.16,5.55h6.75V45.73h-6.75Zm0,3.14h6.75V48.87h-6.75Zm0,3.19h6.75V52h-6.75Z"/><path class="cls-4" d="M235.62,42.44h21.31V65.16h-1.85V64h-17.6v1.22h-1.85Zm19.45,1.7h-17.6V62.26h17.6Zm-16.41,4.31h9.11V44.95h1.8v3.51h4.67v1.65h-4.67v7.43q0,3.53-3.36,3.53-1.37,0-2.82,0c-.1-.57-.23-1.21-.39-1.92a24,24,0,0,0,2.78.2q2,0,2-2.27v-5.7A26.73,26.73,0,0,1,239,59.46a8.89,8.89,0,0,0-1.24-1.63,25.24,25.24,0,0,0,8.81-7.72h-7.94Z"/><path class="cls-4" d="M51.73,75.91H53V87.42H51.73V82.07H45.28v5.35H44V75.91h1.32v5h6.45Z"/><path class="cls-4" d="M60.47,75.91h1.27V87.42H60.47Z"/><path class="cls-4" d="M77.45,75.91V77H73.53V87.42H72.21V77H68.3V75.91Z"/><path class="cls-4" d="M102.65,87.42h-1.78l-4-5.18H93.84v5.18H92.52V75.91h5.35q3.68.17,3.91,3.11,0,3-3.45,3.22ZM93.84,77.06v4h3.74Q100.4,81,100.4,79q-.06-1.84-2.82-1.9Z"/><path class="cls-4" d="M113.81,87.59q-5.24-.29-5.47-5.7.23-5.87,5.64-6.16,5.12.34,5.47,6Q119.22,87.36,113.81,87.59Zm.06-10.71q-3.8.35-4.2,4.89.23,4.43,4.09,4.78,4-.23,4.26-4.78Q117.66,77.24,113.87,76.89Z"/><path class="cls-4" d="M130.78,87.42H126V75.91h4.49q3.45.17,3.68,2.88a2.57,2.57,0,0,1-2.3,2.53v.06a2.93,2.93,0,0,1,2.76,2.94Q134.47,87.31,130.78,87.42Zm-.58-10.36h-3v3.86h3q2.36-.11,2.59-2.07Q132.68,77.12,130.21,77.06Zm.17,5h-3.16v4.32h3.4q2.7,0,2.7-2.25Q133.14,82.19,130.38,82.07Z"/><path class="cls-4" d="M146.49,87.59q-5.24-.29-5.47-5.7.23-5.87,5.64-6.16,5.12.34,5.46,6Q151.9,87.36,146.49,87.59Zm.06-10.71q-3.8.35-4.2,4.89.23,4.43,4.09,4.78,4-.23,4.25-4.78Q150.34,77.24,146.55,76.89Z"/><path class="cls-4" d="M167,75.91V77h-3.91V87.42h-1.32V77h-3.91V75.91Z"/><path class="cls-4" d="M187.4,81.49h5v4.2q-1.44,1.9-5,1.9-5.41-.29-5.7-5.75.23-5.87,5.47-6.1a5.06,5.06,0,0,1,5.12,3.4l-1.44.34a3.72,3.72,0,0,0-3.74-2.59q-3.68.35-4,4.89.29,4.43,4.26,4.78a4.61,4.61,0,0,0,3.74-1.38V82.59H187.4Z"/><path class="cls-4" d="M209.38,87.42h-1.79l-4-5.18h-3.05v5.18h-1.32V75.91h5.35q3.68.17,3.91,3.11,0,3-3.45,3.22Zm-8.81-10.36v4h3.74q2.82-.06,2.82-2.13-.06-1.84-2.82-1.9Z"/><path class="cls-4" d="M220.54,87.59q-5.24-.29-5.47-5.7.23-5.87,5.64-6.16,5.12.34,5.47,6Q225.95,87.36,220.54,87.59Zm.06-10.71q-3.8.35-4.2,4.89.23,4.43,4.09,4.78,4-.23,4.26-4.78Q224.4,77.24,220.6,76.89Z"/><path class="cls-4" d="M241.89,75.91v6.73q.06,5-4.61,5t-4.49-5V75.91h1.32v6.68q-.06,4.09,3.16,4,3.45.11,3.34-4V75.91Z"/><path class="cls-4" d="M254,82.76h-3.57v4.66h-1.27V75.91h4.95q3.51.17,3.86,3.4Q257.94,82.7,254,82.76Zm-.23-5.7h-3.34v4.55h3.34q2.76-.06,2.82-2.36Q256.5,77.12,253.8,77.06Z"/><rect class="cls-5" x="42.47" y="70.04" width="215.47" height="0.48"/></g></g></svg>