<?xml version="1.0" encoding="utf-8"?>
<!-- Generator: Adobe Illustrator 21.1.0, SVG Export Plug-In . SVG Version: 6.00 Build 0)  -->
<svg version="1.1" id="图层_1" xmlns="http://www.w3.org/2000/svg" xmlns:xlink="http://www.w3.org/1999/xlink" x="0px" y="0px"
	 viewBox="0 0 39.7 322.8" style="enable-background:new 0 0 39.7 322.8;" xml:space="preserve">
<style type="text/css">
	.st0{fill:#10386B;}
	.st1{font-family:'ArialMT';}
	.st2{font-size:7.52px;}
	.st3{enable-background:new    ;}
	.st4{fill:#231815;}
	.st5{font-size:8.12px;}
	.st6{font-family:'AdobeSongStd-Light-GBpc-EUC-H';}
</style>
<title>hitrobot_hrg_English_logo_blue</title>
<g id="图层_2">
	<g id="图层_1-2">
		<text transform="matrix(0.95 0 0 1 0 320.4999)" class="st0 st1 st2">■</text>
		<text transform="matrix(0.95 0 0 1 7.144 320.4999)" class="st3"><tspan x="0" y="0" class="st4 st1 st5"> </tspan><tspan x="2.3" y="0" class="st4 st6 st5">标准字体</tspan></text>
		<path class="st0" d="M27.2,9.9v1.6H12.5V9.9h6.8V1.7h-6.8V0h14.6v1.7h-6.4v8.2H27.2z"/>
		<path class="st0" d="M27.2,21v1.6H12.5V21H27.2z"/>
		<path class="st0" d="M27.2,42.7h-1.4v-5H12.5V36h13.3v-5h1.4V42.7z"/>
		<path class="st0" d="M12.5,74.8v-2.3l6.6-5.1v-3.9h-6.6v-1.7h14.6v6.8c-0.1,3.1-1.5,4.8-4,5c-2.5,0-3.9-1.5-4.1-4.4L12.5,74.8z
			 M25.7,63.6h-5.2v4.8c0.1,2.4,1,3.6,2.8,3.6c1.6,0,2.4-1.2,2.4-3.6V63.6z"/>
		<path class="st0" d="M12.3,89c0.2-4.5,2.7-6.8,7.3-7c5,0.2,7.6,2.6,7.9,7.2c-0.3,4.4-2.9,6.7-7.7,7C14.9,96,12.5,93.6,12.3,89z
			 M26,89.1c-0.3-3.2-2.4-5-6.2-5.3c-3.8,0.2-5.8,1.9-6.1,5.2c0.2,3.4,2.2,5.2,6.1,5.4C23.6,94.1,25.7,92.4,26,89.1L26,89.1z"/>
		<path class="st0" d="M12.5,110.7v-6.1h14.6v5.7c-0.1,2.9-1.4,4.5-3.7,4.7c-1.7,0-3.1-1.3-3.2-2.9h-0.1c-0.1,2-1.8,3.5-3.7,3.5
			C13.9,115.5,12.6,113.8,12.5,110.7z M25.7,110v-3.8h-4.9v3.8c0.1,2,1,3.1,2.6,3.3C24.9,113.2,25.7,112.1,25.7,110z M19.3,110.2v-4
			h-5.5v4.3c0,2.3,1,3.4,2.9,3.4C18.4,113.8,19.2,112.5,19.3,110.2L19.3,110.2z"/>
		<path class="st0" d="M12.3,130.7c0.2-4.5,2.7-6.8,7.3-7c5,0.2,7.6,2.6,7.9,7.2c-0.3,4.4-2.9,6.7-7.7,7
			C14.9,137.7,12.5,135.3,12.3,130.7z M26,130.8c-0.3-3.2-2.4-5-6.2-5.4c-3.8,0.2-5.8,1.9-6.1,5.2c0.2,3.4,2.2,5.2,6.1,5.4
			C23.6,135.8,25.7,134,26,130.8L26,130.8z"/>
		<path class="st0" d="M27.2,156.9h-1.4v-5H12.5v-1.7h13.3v-5h1.4V156.9z"/>
		<path class="st0" d="M20.1,182.8v6.3h-5.3c-1.6-1.2-2.4-3.3-2.4-6.3c0.2-4.6,2.7-7,7.3-7.3c5,0.2,7.6,2.5,7.8,7
			c-0.1,3.3-1.5,5.5-4.3,6.5l-0.4-1.8c2.1-0.6,3.4-2.6,3.3-4.8c-0.3-3.1-2.4-4.8-6.2-5.1c-3.8,0.2-5.8,2.1-6.1,5.4
			c0,2.2,0.6,3.8,1.8,4.8h3.3v-4.7L20.1,182.8z"/>
		<path class="st0" d="M12.5,210.9v-2.3l6.6-5.1v-3.9h-6.6V198h14.6v6.8c-0.1,3.1-1.5,4.8-4,5c-2.5,0-3.9-1.5-4.1-4.4L12.5,210.9z
			 M25.8,199.6h-5.2v4.8c0,2.4,0.9,3.6,2.7,3.6c1.6-0.1,2.4-1.3,2.4-3.6L25.8,199.6z"/>
		<path class="st0" d="M12.3,225.1c0.2-4.5,2.7-6.8,7.3-7c5,0.2,7.6,2.6,7.9,7.2c-0.3,4.4-2.9,6.7-7.7,7
			C14.9,232.1,12.5,229.7,12.3,225.1z M26,225.2c-0.3-3.2-2.4-5-6.2-5.4c-3.8,0.2-5.8,1.9-6.1,5.2c0.2,3.4,2.2,5.2,6.1,5.4
			C23.6,230.2,25.7,228.4,26,225.2L26,225.2z"/>
		<path class="st0" d="M27.3,252.3h-8.6c-4.3,0-6.4-1.9-6.3-5.9s2.1-5.9,6.3-5.7h8.6v1.7h-8.5c-3.5,0-5.2,1.3-5.1,4
			c-0.1,2.9,1.6,4.4,5.1,4.3h8.5V252.3z"/>
		<path class="st0" d="M18.5,267.8v-4.5h-5.9v-1.6h14.6v6.3c-0.1,3-1.6,4.6-4.3,4.9C20,272.8,18.5,271.1,18.5,267.8z M25.7,267.5
			v-4.3h-5.8v4.3c0,2.3,1,3.5,3,3.6C24.7,271,25.7,269.8,25.7,267.5L25.7,267.5z"/>
	</g>
</g>
</svg>
