<svg xmlns="http://www.w3.org/2000/svg" viewBox="0 0 477.67 477.67"><defs><style>.cls-1{fill:#fff;}.cls-2{fill:#11376b;}</style></defs><title>hitrobot_zhongdao-html</title><g id="图层_2" data-name="图层 2"><g id="图层_1-2" data-name="图层 1"><path class="cls-1" d="M0,0H477.67q0,238.84,0,477.67H0Q0,238.84,0,0ZM170.69,451.94v11.53h11.24V452.18H170.44V440.69h-11.2v11.24ZM85.16,232.13l0-12.19H133.5v23.54h24.58v-11l-10.92-1V220.54l11.35-1c0-4.15,0-7.81,0-11.47h13.34L173.34,183l-2.17-.07L170,194.09l-11.29.94v13.24H133.61v-26h24.91c0-4.48,0-8.13,0-11.77h23.9v-12h25.82v11.81l-11.84.53.05.94h35v-25H219.93V133.51l12-1V121h11.62l1,11.94H256v13.65H281.6l0,12.23H244.48v12.63h36.86c0-4.48,0-8.68,0-12.88l24.16,0v11.6l11.66,1v23.41l.24-.24H304v35.79l.84.09,1-9.65h11l1,11.59H343l-.24-.24.28,12.15H329.69l-.95,11.38-11.12,1L317,267.42l-12.83.88-1.41,24.62h14.16l1-11.59h11.47v11.54h24.85V281.58H329.1v-14h25.62v-11.8h12.15v37h12.31v-24.5h11.13l.77,12.54h11.76v-13.1h36.7v-12.2h-48.6l-.61-11.09H379.14l-1,11.54H366.63V232.5l11.7-1,.94-11.54h11.51v12h12v11.4h60.81V231.84H428.08v-11.9h35.34V182.8L452,182.21V158.46H416.11c0-4.53,0-8.18,0-11.84H463.4v-14H440.6V120.94h22.77V109.61H428.13v23l-11.77,1v13.23H402.74c0,8.6,0,16.22,0,23.85h-12.2v-37.1H378.46v24.89H366.68l.24.24V147.18l-12.22-1c0-4.8,0-9,0-13.2h12V121H402V109.3H366.65V73.49H329.13V59.43h25.35V47.83H317.81c-.37-4.68-.68-8.54-1-12.39H354.7c0-4.37,0-8,0-11.65h11.53V12.55H354.94V24h-25.2L328.68,12.4H317.09V35.65L305.25,36V24.47H293.54V36l-12.19,0V24H255.78V12.51H232.13V24H220.54l-1-11.45H194.76l-.59,10.85H183l-1-10.86H170.71V36h-37.2l-1-11.62-11.12-1-.65-10.82h-11v35l10.92.55V73L109,73.78v47.49H97.15V109.74H85.9V121H97.39q0,6.07,0,12.13H73.93v13H97.14V132.91h12.34V146.6h11.78v11.59l-11.68,1-.92,11.26H97.14l.24.24-.51-11.34H73V182H60.15l-1.08-11.53c-4.39.24-8,.44-11.69.61V158.93l-11-.55V146.46H59.06V133.21H23.79V121.68H12.55V133H24v13.3l-11.43.95v11.14l11,.63.63,11.82H47.59v23.81H35.73V183.09H12.59v11.29H36v13.3l-12,1c0,4.24,0,7.88,0,11.52H12.56v35.43l10.84.6v11.2l-11.07,1V281H35.48l.78-13.31H47.88V293l11.6,1L60,305l12.91.77,1,11.41H97.36V328.8l-11.91,1c0,4.79,0,9,0,13.18l-11.91-.31-.63-13.13-12.74-.67-1-11.45H47.63V305.81l-11.58-1-.52-10.91H24.31l-1,11.21-10.94.51v60.63H24.1V329.12H35.94v37.14H47.36l.92-11,11.17-1,.56-11c4.89-.32,9.32-.6,13.73-.87v23.89h23V355.24l-11.52-1V342.75l24.1,0v12h12v11.61l-11.73,1v11.35h23c.37,4.68.67,8.54,1,12.38H121.22v11.71H109.84v37.06l11.47.72v23.14H132.6v-35l-11.62-1c0-8.75,0-17,0-25.15h11.78l.53-11.67H146.7v25.48h23.44l1,11.73h11.48v11.53h11.24V428.3H182.38V416.71l12-1c0-4.81,0-9,0-13.21h13.43l.81,13.63h23.55v12h12v35.33h37V452.52l-12.63-.88V440.82h25.34v22.67H329.4V452l-.24.24h49.1l1.05,11.34h10.89l1.05-11.63H402.7v11.45h60.91V428.7h-11.8v23.48H402.46V428.56l14.26-.85V391l10.93-.7V379.13l-11-.93V366.3c8.21,0,16.06,0,23.89,0q-.12,18.19-.24,36.38H428.75v36.78H440v-37H463.5V379.12l-11.56-.94c0-4.22,0-7.85,0-11.49h11.54V329.91H452.18v37l-11.87-.37V354.84H403.1V317.11H440c0-4.52,0-8.17,0-11.83h23.37V281.9H428.7V293l11.54,1v11.54H403.06l-1-11.69H390.94l-.59,11.78H355c0,8.52,0,16.14,0,23.76H343V355H317.8l-1-11.45H305.5c0,8.2,0,15.79,0,23.37H293.3V342.53H267.59v-37.6h-84l1.35-2-14.44-9.37q0-6.1,0-12.2l2.47-35-2.13-.1-.49,9.15H121.56l-1-11.33H97.12v-12ZM12.33,96.63H96.56V12.4H12.33Zm.2,282.5v84.22H96.8V379.13ZM379.11,96.63h84.22V12.4H379.11ZM72.79,120.71V109.79H36.23v10.92ZM328.84,317.79H305.94v10.84h22.89ZM208.42,451.41h23.13V440.66H208.42ZM416.58,342.25h11.2v-12.5h-11.2Z"/><path d="M440.54,366.3h-23.9v11.9l11,.93v11.16l-10.93.7v36.73l-14.26.85v23.62l.25-.25H391.25l-1.05,11.63H379.3l-1.05-11.34h-49.1c0-3.84,0-7.68,0-11.54H306V452h23.4v11.5H293.77V440.82H268.43v10.82l12.63.88v10.89h-37V428.08l-.26.24h11.59l1.09-12.2h37c0,3.84,0,7.68,0,11.54h23.16v-11.3h-23.4V402.49H231.89l.24.24V391.12l11.41-1V378.59H220.71v-12h46.65v-12H243.51V329.71H232.35l-.78,13.3H219.94V329.75H159l-.69,12.47H146.44V329.74H133.37l-.72,13H121l.24.24V317.77l11.94-1.06V293.31l-.24.24h14V316.7h23.73V293.31l-.24.25,14.44,9.37-1.35,2h84v37.6H293.3V366.9l.25-.24H282.05v12.18h11.49l-.24-.24v11.62l11.82,1,.52,10.91h23.81V378.59H343q0,11.72,0,23.46h11.28V378.83H342.75l.27-12.16-.24.24H355V354.72l-.24.24h11.62l1-12.2h11.47c0,3.84,0,7.67,0,11.54h11.26V343h-11.5V329.72l11.69-1V317.78H367.21l-1,11.35h-11.5l.26.24V305.61h35.37l.59-11.78h11.13l1,11.69h37.18l-.25-.25v11.83H403.1v37.74h37.21c0,4.48,0,8.1,0,11.73Zm-61.72,61.76V439.6h11.26V428.3h-11.5V416.87H343.3v22.8h23l1-11.62ZM402,402.23V367.46H367.23v34.78Z"/><path d="M329.13,73.49h37.51V109.3l.26-.24H354.54V85.67H342.88v35l-13,.91v11.61H355l-.26-.24v13.2l12.22,1c0,3.91,0,7.74,0,11.58H355.29l-1.07,12H329.73v12h24.46v11.47l-10.77.55v12.75h23.27v-49h11.78V133.62h12.07v37.1l.25-.24H379.27V208h11.51l-.24,12.19.24-.26H379.27l-.94,11.54-11.7,1V256l.25-.25H354.72l.24.26V243.83H342.78l.26.24-.28-12.16H354.3V220.66H343v11.5H317.93l-1-11.59h-11l-1,9.65-.84-.09V194.34H317.4q0,6.62,0,13.24h11.26v-13H317.16V171.17l-11.66-1c0-3.92,0-7.76,0-11.6l-.26.24h23.41V146.59H305.25l.24.24-.23-13.9h12.32V109.46l11.79-.57V73.24Z"/><path d="M97.14,170.45h11.52l.92-11.26,11.68-1c0-3.93,0-7.76,0-11.59l-.26.24h12.37v23.88h25.4l-.26-.24v11.77H133.61v26h25.14l-.25-.25V219.5l-11.35,1v10.92l10.92,1v11H133.5V219.94H85.18l.24.25.1-11.88,11.07-.57V194.89H85.78c0,4.82,0,9.23,0,13.64l-12.54-.29V195.06H59.82v13.2H48.21l-1,11.69H23.76l.26.24V208.67l12-1v-13.3l-.25.25H47.59c0-8.26,0-16,0-23.82l-.24.28,11.71-.63L60.15,182H73V159.35H96.87l.51,11.34H85.84V182h11.3ZM121,195.18H109.73V207.5H121Z"/><path d="M97.38,133.16V121l-.25.25H109V73.78L120.69,73v-25l-10.92-.55v-35h11l.65,10.82,11.12,1,1,11.62h37.2l-.24-.26q0,6.09,0,12.18l.24-.24H159.13c0,13.44,0,25.75,0,38.05l-12.55-.3V73.92H133.2c0,4.2,0,7.84,0,11.48H121.67V96.65H133V85.15h13.84c0,3.82,0,7.64,0,11.58h12.07V85.48h11v23.39l-10.81.68-.93,11.17-11.57,1v11.51l.24-.24H133.51l-.95-11.18H121v25.07l.26-.24H109.48V132.91H97.14Zm49-84.78H133.45V59.25h12.94Z"/><path d="M12.33,96.63V12.4H96.56V96.63Zm72.4-11.74V24.52H24.29V84.89Z"/><path d="M12.53,379.13H96.8v84.22H12.53Zm12,11.91v60.37H84.85V391Z"/><path d="M379.11,96.63V12.4h84.22V96.63Zm12-72.35V84.75h60.32V24.28Z"/><path d="M182.63,428.05H171.15l-1-11.73H146.7V390.84H133.28l.27.24-1-12.4h-23V367.32l11.73-1V354.72L121,355h25.27l1,11.43h11.17l.53-11h23.48V366.9l.24-.24h-12.3v23.57l-11.36,1v11.53h35.6l-.26-.24V415.7l-12,1V428.3Z"/><path d="M256,132.93H244.5l-1-11.94H231.89l.24.26V85.14H220l.25.25L219.66,73H182.84l-.67-12.78-11.46-1V47.65l-.24.24H194l1,11.18h24.77l.65-10.78h23.75V73.51H256l-.25-.25L256,85.41H244.55v23.66H268v11.6l-12.19,1v11.51Z"/><path d="M402.74,170.72V146.87h13.62l-.25-.25v11.84H452v23.74l11.43.59v37.14H428.08l.24.26V207.81h23.37v-13l-11.09-.66-1-11h-11.2L427.9,194H416v-23.5H402.49Z"/><path d="M316.82,35.42l1,12.4h36.68V59.43H329.13c0,5.22,0,9.64,0,14.06l.24-.26-12.16.26q0-6.62,0-13.24H306v13h11.5V96.61H305.61l-.52-10.84H293.86l-1,11.6H281.37c0-12.36,0-24.73,0-37.19l12.18-1V47.65l-.24.24h12.18V35.71l-.24.26,11.85-.3Z"/><path d="M97.12,244.09h23.42l1,11.33h48.77l.49-9.15,2.13.1-2.47,35,.24.25V268.43H132.95v25.12l.24-.24H108.83V267.62h-23V256.33l11.57-1V243.83Z"/><path d="M231.89,121v11.53l-12,1v13.32l.26-.24H208v12.18l.24-.26H182.42l.24.26V146.59H170.48l.24.24V121h11.94c0,3.84,0,7.69,0,11.5h11.71V121l37.77.25Z"/><path d="M366.63,256h11.54l1-11.54h11.19l.61,11.09h48.6v12.2h-36.7v13.1H391.09l-.77-12.54H379.18v24.5H366.87c0-12.28,0-24.66,0-37Z"/><path d="M232.13,416.12H208.58l-.81-13.63H194.34l.26.24V391.14l-11.94-1.06V366.66l-.24.24H194l1-12.19h13.18c0,11.77,0,23.54,0,35.48l11.43,1,1,11.54h11.51l-.24-.24q0,6.94,0,13.89Z"/><path d="M35.94,329.12H24.1v37.16H12.4V305.65l10.94-.51,1-11.21H35.53l.52,10.91,11.58,1c0,3.91,0,7.77,0,11.62l.26-.24H35.71v12.18Z"/><path d="M416.36,146.87V133.64l11.77-1v-23h35.24v11.33H440.6v11.67h22.8v14H416.11Z"/><path d="M170.71,36V12.57H182l1,10.86h11.18l.59-10.85h24.77l1,11.45h11.59l-.24-.26V35.71H170.48Z"/><path d="M47.88,267.7H36.26L35.48,281H12.32V268.39l11.07-1v-11.2l-10.84-.6V220.19H24l-.26-.24v23.54l11.63.93.95,11.09,11.3.92V268Z"/><path d="M354.72,255.76v11.8H329.1v14l.25-.25H317.87l-1,11.59H302.73l1.41-24.62,12.83-.88.66-10.94,11.12-1,.95-11.38H343l-.26-.24V256H355Z"/><path d="M73.76,342.41,60,343.3l-.56,11-11.17,1-.92,11H35.94c0-12.48,0-24.81,0-37.14l-.24.26H47.89V317.19l-.26.24H59.14l1,11.45,12.74.67c.21,4.32.42,8.72.62,13.14Z"/><path d="M97.36,317.17H73.94l-1-11.41L60,305l-.52-11-11.6-1c0-8.46,0-16.87,0-25.28l-.24.26H59.33l.82,13.23,12.8.7,1,11.7H85.4l-.25-.25v11.59l12,1v11.52Z"/><path d="M23.79,133.21H59.06v13.25H36.34v11.92l11,.55c0,4.41,0,8.27,0,12.15l.23-.26H24.23L23.6,159l-11-.63V147.22L24,146.27V133Z"/><path d="M402.46,452.18h49.36V428.7h11.8v34.68H402.7c0-3.75,0-7.6,0-11.45Z"/><path d="M428.08,219.93v11.9h35.47v11.46H402.74v-11.4l-.26.24h13.65V219.94l12.18.25Z"/><path d="M121,402.52v25.15l11.62,1v35H121.31V440.54l-11.47-.72V402.76h11.38Z"/><path d="M182.42,158.52v12h-23.9l.26.24V159.12l-11.94-1.06V132.95l-.24.24h12.34v13.65h11.78l-.24-.24v12.18h12.18Z"/><path d="M440.24,305.52V294l-11.54-1V281.9h34.67v23.37H440Z"/><path d="M451.93,366.69v11.49l11.56.94v23.33H440l.25.25q.12-18.19.25-36.39l-.23.26,11.88.36Z"/><path d="M354.7,23.79V35.44H316.84l.26.23c0-7.62,0-15.23,0-23.27h11.59L329.74,24h25.2Z"/><path d="M305.5,366.9V343.53h11.29l1,11.45H343l-.24-.26V366.9l.24-.24H305.25Z"/><path d="M219.93,146.83h11.52v25h-35l-.05-.94,11.84-.53c0-4.07,0-7.94,0-11.81l-.24.26h12.18V146.59Z"/><path d="M281.34,158.57v12.88H244.48V158.81h37.11Z"/><path d="M109.3,342.76l-24.1,0,.25.25V329.81l11.91-1c0-3.94,0-7.78,0-11.62l-.24.26h11.94V343Z"/><path d="M255.78,24h25.58V35.94l.25-.24H268.3l-1,11.42H256V23.76Z"/><path d="M440,402.46v37H428.75V402.7h11.54Z"/><path d="M72.79,120.71H36.23V109.79H72.79Z"/><path d="M452.18,366.94v-37h11.29v36.78H451.94Z"/><path d="M366.65,109.3H402V121H366.67l.24.26V109.06Z"/><path d="M85.2,342.75v11.54l11.52,1v11.09h-23c0-7.81,0-15.85,0-23.91l-.23.26,11.92.3Z"/><path d="M281.6,146.58H256c0-4.8,0-9.22,0-13.65l-.24.26h25.59v13.65Z"/><path d="M97.14,132.91v13.21H73.93v-13H97.38Z"/><path d="M343,355V329.37h12l-.26-.24q0,12.91,0,25.83l.24-.24H342.78Z"/><path d="M329.1,281.58h25.1v11.29H329.35c0-3.86,0-7.7,0-11.54Z"/><path d="M328.84,317.79v10.84H305.94V317.79Z"/><path d="M232.13,24V12.51h23.65q0,5.75,0,11.51l.24-.26H231.89Z"/><path d="M281.59,158.81q0-6.12,0-12.23l-.24.26h24.12l-.24-.24v12.18l.26-.24-24.16,0Z"/><path d="M36,194.38H12.59V183.09H35.73c0,3.88,0,7.71,0,11.54Z"/><path d="M208.42,451.41V440.66h23.13v10.75Z"/><path d="M158.76,208.28V195l11.29-.94,1.12-11.2,2.17.07L171.85,208H158.51Z"/><path d="M416.58,342.25v-12.5h11.2v12.5Z"/><path d="M281.35,35.94l12.19,0-.24-.26V47.89l.24-.24H281.6V35.71Z"/><path d="M293.54,36V24.47h11.71c0,3.81,0,7.65,0,11.49l.24-.26H293.31Z"/><path d="M390.54,170.72h12.2l-.25-.24V182h-11.7V170.48Z"/><path d="M354.94,24V12.55h11.28V23.79H354.7Z"/><path d="M85.18,219.94l0,12.19.26-.24H73.23c0-4.63,0-8.28,0-11.94l12.19.23Z"/><path d="M121.26,354.72h-12c0-4.43,0-8.2,0-12l-.24.26h12.18l-.24-.24q0,6.09,0,12.18Z"/><path d="M402.74,231.89h-12c0-4.43,0-8.2,0-12l-.24.26,12.18-.25-.23,12.19Z"/><path d="M293.3,366.9h12.2l-.25-.24v11.94H293.31l.24.24V366.66Z"/><path d="M85.16,232.13h12c0,4.43,0,8.2,0,12l.24-.26H85.42V231.89Z"/><path d="M366.67,121v12h-12l.26.24V121.24H366.9Z"/><path d="M121.22,402.76V391.06h12.32l-.26-.23c-.15,3.61-.31,7.21-.52,11.68H121Z"/><path d="M24,133H12.55V121.68H23.79c0,3.87,0,7.7,0,11.53Z"/><path d="M244.09,428.08h-12c0-4.43,0-8.2,0-12l-.24.26h11.94v11.94Z"/><path d="M182.38,428.3h11.49v11.28H182.63c0-3.87,0-7.7,0-11.53Z"/><path d="M170.48,281.35q0,6.1,0,12.2l.24-.25H159.24V281.6h11.48Z"/><path d="M170.69,451.94H159.25V440.69h11.2v11.49Z"/><path d="M97.39,121H85.9V109.74H97.15c0,3.87,0,7.7,0,11.53Z"/><path d="M170.44,452.18h11.49v11.28H170.69c0-3.87,0-7.7,0-11.53Z"/><path class="cls-1" d="M85.42,231.89v11.94H97.36v11.49l-11.57,1v11.29h23v25.69h24.35c0,7.6,0,15.21,0,23.41l-11.94,1.06V343H109.06V317.43H97.12V305.91l-12-1c0-3.92,0-7.76,0-11.59H96.68V282.09H85.4v11.49H73.91l-1-11.7-12.8-.7L59.33,268H47.65V256.44l-11.3-.92-.95-11.09-11.63-.93V220H47.18l1-11.69H59.82l-.23-.25.53,12.18H73.47l-.25-.23v11.94ZM59.62,244.1V232.57H48.37v11.28H59.86v11.49H72.75V244.1Z"/><path class="cls-1" d="M121,355q0-6.09,0-12.18h11.65l.72-13h13.07v12.48h11.82l.69-12.47h61c0,4.44,0,8.85,0,13.26l.25-.23H208V355l.23-.25H195.06l-1,12.19H182.42V355.39H158.94l-.53,11H147.24l-1-11.43Z"/><path class="cls-1" d="M232.13,402.73H220.62l-1-11.54-11.43-1c0-11.94,0-23.71,0-35.48L208,355h12.18V342.78l-.25.23h11.62l.78-13.3h11.16v24.86h23.84v12H220.71v12h22.83v11.54l-11.41,1Z"/><path class="cls-1" d="M170.72,281.6H159.24v11.7h11.48V316.7H147V293.55h-14V268.43h37.77Z"/><path class="cls-1" d="M293.31,378.61h11.94V366.66H343l-.27,12.16.24-.24H329.46v23.54H305.65l-.52-10.91-11.82-1Z"/><path class="cls-1" d="M402,402.23H367.23V367.46H402Zm-12-11.88v-11.2H379.22v11.2Z"/><path class="cls-1" d="M243.83,428.32V416.38H231.89q0-6.94,0-13.89h61.39v13.87l.24-.24h-37l-1.09,12.2Z"/><path class="cls-1" d="M354.72,355q0-12.91,0-25.83h11.5l1-11.35h23.06v10.94l-11.69,1V343l.24-.24H367.35l-1,12.2Z"/><path class="cls-1" d="M378.82,428.06H367.37l-1,11.62h-23v-22.8h35.28V428.3Z"/><path class="cls-1" d="M342.75,378.83h11.52v23.22H343q0-11.76,0-23.46Z"/><path class="cls-1" d="M329.4,452H306V440.68h23.16c0,3.86,0,7.7,0,11.54Z"/><path class="cls-1" d="M293.28,416.35h23.4v11.3H293.52c0-3.86,0-7.7,0-11.54Z"/><path class="cls-1" d="M378.58,343h11.5v11.3H378.82c0-3.87,0-7.7,0-11.54Z"/><path class="cls-1" d="M342.78,354.72H355V366.9H342.78Z"/><path class="cls-1" d="M293.55,366.66v12.18H282.05V366.66Z"/><path class="cls-1" d="M378.58,428.3h11.5v11.3H378.82c0-3.87,0-7.7,0-11.54Z"/><path class="cls-1" d="M390.79,170.48V182h11.7V170.48H416V194H427.9l.52-10.82h11.2l1,11,11.09.66v13H428.32v12.38l-12.18-.25.23.25L415.84,208H402.49l.24.24V195.07H390.55v13.18l.23-.25H379.27V170.48Z"/><path class="cls-1" d="M317.22,73.5l12.16-.26v35.65l-11.79.57v23.48H305.25l.23.25V121H293.31l.24.24V109.06H281.37l.24.24V97.12l-.23.25h11.47l1-11.6h11.23l.52,10.84h11.85V73.26Z"/><path class="cls-1" d="M366.68,158.51v49H343.41V194.78l10.77-.55V182.75H329.73v-12h24.49l1.07-12h11.63Z"/><path class="cls-1" d="M305.49,146.83H281.36V133.19H255.78V121.67l12.19-1v-11.6l-.25.23H281.6l-.24-.24v12.18h12.18l-.24-.24v12.18h12.18l-.23-.25Z"/><path class="cls-1" d="M366.9,121.24H355v11.94H329.84V121.57l13-.91v-35h11.65v23.39H366.9Z"/><path class="cls-1" d="M305.25,158.77V146.59h23.41v12.18Z"/><path class="cls-1" d="M317.16,194.58h11.51v13H317.4q0-6.63,0-13.24Z"/><path class="cls-1" d="M343,232.16v-11.5h11.3v11.26H342.76Z"/><path class="cls-1" d="M402.72,219.94l-12.18.25.24-12.19-.23.25h12.18l-.24-.24v12.18Z"/><path class="cls-1" d="M355,256H342.78V243.83H355Z"/><path class="cls-1" d="M146.83,132.95v25.12l11.94,1.06v11.59h-25.4V146.83H121V121.76h11.56l.95,11.18Z"/><path class="cls-1" d="M59.82,208.26v-13.2h13.4c0,4.36,0,8.77,0,13.19l.25-.23H59.59Z"/><path class="cls-1" d="M85.78,208.54V194.89H96.59v12.85l-11.08.56Z"/><path class="cls-1" d="M121,195.18V207.5H109.73V195.18Z"/><path class="cls-1" d="M97.14,170.45V182H85.84V170.69H97.38Z"/><path class="cls-1" d="M85.42,220.19,73.23,220l.25.23q0-6.09,0-12.18l-.25.23,12.54.29-.26-.23Q85.47,214.25,85.42,220.19Z"/><path class="cls-1" d="M170.72,146.83H158.94V133.19H146.59V121.68l11.57-1,.93-11.17,10.81-.68V85.48h-11l.27.24V47.65h11.58V59.14l11.46,1L182.84,73h36.82l.55,12.43H208.69V96.63H220V85.14h12.16v36.1L194.37,121l.23.25V109.76H182.42v11.48l.23-.25H170.72Zm12.36-61.37V96.63h10.71V85.46Z"/><path class="cls-1" d="M281.6,35.71V47.65h11.94v11.5l-12.18,1c0,12.46,0,24.83,0,37.19l.23-.25H267.72l.24.24V85.18H255.78l.25.23-.27-12.15h11.53V60.32H256V73.51H244.18V48.29H220.43l-.65,10.78H195l-1-11.18H170.48q0-6.09,0-12.18h61.41V23.76H256V47.12h11.31l1-11.42Z"/><path class="cls-1" d="M146.38,48.37V59.25H133.45V48.37Z"/><path class="cls-1" d="M146.81,85.16H133l.24.24V73.92h13.36V85.4Z"/><path class="cls-1" d="M146.57,85.4l12.55.3-.26-.23c0,3.6,0,7.19,0,11.27H146.81c0-3.94,0-7.76,0-11.58Z"/><path class="cls-1" d="M133,85.15v11.5h-11.3V85.39H133.2Z"/><path class="cls-1" d="M84.74,84.89H24.29V24.52H84.74ZM36.23,72.76H72.68V36.27H36.23Z"/><path class="cls-1" d="M24.48,391H84.85v60.37H24.48Zm11.8,12v36.62H72.75V403Z"/><path class="cls-1" d="M391.14,24.28h60.32V84.75H391.14Zm12.1,11.92V72.65h36.43V36.2Z"/><path class="cls-1" d="M182.66,366.66v23.41l11.94,1.06v11.59H159V391.19l11.36-1V366.66Z"/><path class="cls-1" d="M268,109.07H244.55V85.41H256l-.25-.23V97.36H268l-.24-.24V109.3Z"/><path class="cls-1" d="M317.46,73.26H306v-13h11.26q0,6.63,0,13.24Z"/><path class="cls-1" d="M293.31,35.71h12.18V47.89H293.31Z"/><path class="cls-1" d="M182.66,158.77H170.48V146.59h12.18Z"/><path class="cls-1" d="M220.19,146.59v12.18H208V146.59Z"/><path class="cls-1" d="M194.37,121v11.5H182.65c0-3.81,0-7.66,0-11.5l-.23.25H194.6Z"/><path class="cls-1" d="M47.89,317.19v12.18H35.71V317.19Z"/><path class="cls-1" d="M402.49,232.13l.23-12.19-.23.25h13.88l-.23-.25c0,3.77,0,7.54,0,12.19Z"/><path d="M73.47,208q0,6.09,0,12.18H60.12L59.59,208Z"/><path d="M59.62,244.1H72.75v11.25H59.86V243.85Z"/><path d="M59.86,243.85H48.37V232.57H59.62c0,3.87,0,7.7,0,11.53Z"/><path d="M85.4,293.58V282.09H96.68v11.24H85.15Z"/><path d="M220.19,342.78V355H208V342.78Z"/><path d="M390,390.35H379.22v-11.2H390Z"/><path d="M402.73,208.25H390.55V195.07h12.18Z"/><path d="M416.37,220.19H402.49V208h13.35Z"/><path d="M267.72,109.3V97.12H281.6V109.3Z"/><path d="M305.49,133.18H293.31V121h12.18Z"/><path d="M293.54,121.24H281.37V109.06h12.18Z"/><path d="M220,85.14V96.63H208.69V85.39h11.53Z"/><path d="M183.08,85.46h10.71V96.63H183.08Z"/><path d="M194.6,121.24H182.42V109.76H194.6Z"/><path d="M256,73.51V60.32h11.29V73.26H255.75Z"/><path d="M268,97.36H255.78V85.18H268Z"/><path d="M36.23,72.76V36.27H72.68V72.76Z"/><path d="M36.28,403H72.75v36.62H36.28Z"/><path d="M403.24,36.2h36.43V72.65H403.24Z"/><rect class="cls-1" x="170.33" y="170.33" width="135.01" height="135.01" rx="12" ry="12"/><polygon class="cls-2" points="280.56 240.85 265.53 240.85 263.78 244.25 272.81 244.25 276.04 250.78 256 250.78 265.99 230.67 268.59 235.86 278.06 235.86 270.79 221.37 260.39 221.37 244.54 253.11 237.77 239.61 248.67 239.61 257.75 221.37 225.39 221.37 217.94 236.19 207.71 236.19 215.14 221.37 204.98 221.37 188.44 254.3 198.64 254.3 206 239.61 216.24 239.61 208.86 254.3 219.06 254.3 233.85 224.79 246.51 224.79 240.56 236.19 230.71 236.19 228.51 240.61 235.3 254.3 287.23 254.3 280.56 240.85"/></g></g></svg>