<svg xmlns="http://www.w3.org/2000/svg" viewBox="0 0 286.49 154.76"><defs><style>.cls-1{fill:#231815;}.cls-2{fill:#fff;}.cls-3{fill:#040000;}</style></defs><title>hitrobot_hrg_route_white</title><g id="图层_2" data-name="图层 2"><g id="图层_1-2" data-name="图层 1"><rect class="cls-1" width="286.49" height="154.76"/><polygon class="cls-2" points="222.76 81.51 196.33 81.51 193.27 87.49 209.13 87.49 214.8 98.96 179.58 98.96 197.15 63.62 201.71 72.74 218.36 72.74 205.59 47.27 187.3 47.27 159.45 103.07 147.54 79.34 166.7 79.34 182.66 47.27 125.78 47.27 112.69 73.33 94.72 73.33 107.78 47.27 89.92 47.27 60.85 105.16 78.78 105.16 91.71 79.34 109.71 79.34 96.74 105.16 114.66 105.16 140.65 53.29 162.9 53.29 152.45 73.33 135.14 73.33 131.27 81.09 143.21 105.16 234.48 105.16 222.76 81.51"/><path class="cls-3" d="M73.83,97.26l3.47-2.63a4.4,4.4,0,0,1,.41,4.58,4.33,4.33,0,0,1-5.82,2,4.39,4.39,0,0,1-1.95-5.87,4.34,4.34,0,0,1,3.87-2.42Z"/><path class="cls-3" d="M76.74,91.49a.62.62,0,0,1,.18.86.62.62,0,0,1-.86.19.63.63,0,0,1-.19-.86A.62.62,0,0,1,76.74,91.49Z"/><path class="cls-3" d="M81.9,81a.63.63,0,0,1,.19.87.62.62,0,0,1-.86.19A.63.63,0,0,1,81,81.2.61.61,0,0,1,81.9,81Z"/><circle class="cls-3" cx="78.99" cy="86.78" r="0.62" transform="translate(-36.68 106.53) rotate(-57.38)"/><circle class="cls-3" cx="120.2" cy="76.29" r="0.62" transform="matrix(0.54, -0.84, 0.84, 0.54, -8.76, 136.61)"/><circle class="cls-3" cx="133.2" cy="50.06" r="0.62" transform="translate(19.38 135.46) rotate(-57.48)"/><path class="cls-3" d="M141.39,49.54a.63.63,0,0,1,.19.86.62.62,0,0,1-.85.19.63.63,0,0,1-.19-.86A.62.62,0,0,1,141.39,49.54Z"/><circle class="cls-3" cx="148.91" cy="50.06" r="0.62" transform="translate(26.78 148.87) rotate(-57.56)"/><path class="cls-3" d="M157.1,49.54a.63.63,0,0,1,.19.86.62.62,0,0,1-.85.19.63.63,0,0,1-.19-.86A.62.62,0,0,1,157.1,49.54Z"/><circle class="cls-3" cx="164.63" cy="50.06" r="0.62" transform="translate(34.06 162.13) rotate(-57.56)"/><path class="cls-3" d="M130.93,54.78a.63.63,0,0,1,.19.86.62.62,0,0,1-.86.18.63.63,0,0,1-.18-.86A.61.61,0,0,1,130.93,54.78Z"/><circle class="cls-3" cx="128" cy="60.55" r="0.62" transform="matrix(0.54, -0.84, 0.84, 0.54, 8.05, 135.8)"/><circle class="cls-3" cx="125.4" cy="65.8" r="0.62" transform="translate(2.46 136.08) rotate(-57.44)"/><circle class="cls-3" cx="122.8" cy="71.05" r="0.62" transform="translate(-3.18 136.28) rotate(-57.42)"/><path class="cls-3" d="M172.82,49.54a.63.63,0,0,1,.18.86.62.62,0,0,1-.85.19.62.62,0,0,1,.67-1.05Z"/><path class="cls-3" d="M167.66,60a.62.62,0,0,1,.18.86.61.61,0,0,1-.85.19.62.62,0,1,1,.67-1Z"/><circle class="cls-3" cx="164.74" cy="65.78" r="0.62" transform="translate(20.56 169.12) rotate(-57.4)"/><circle class="cls-3" cx="169.9" cy="55.3" r="0.62" transform="translate(31.54 168.35) rotate(-57.28)"/><circle class="cls-3" cx="162.16" cy="71.02" r="0.62" transform="matrix(0.54, -0.84, 0.84, 0.54, 14.93, 169.32)"/><circle class="cls-3" cx="159.58" cy="76.26" r="0.62" transform="translate(9.51 169.86) rotate(-57.49)"/><circle class="cls-3" cx="151.32" cy="76.26" r="0.62" transform="matrix(0.54, -0.84, 0.84, 0.54, 5.52, 162.61)"/><circle class="cls-3" cx="143.06" cy="76.26" r="0.62" transform="matrix(0.54, -0.84, 0.84, 0.54, 1.71, 155.65)"/><circle class="cls-3" cx="140.43" cy="81.72" r="0.62" transform="translate(-3.92 156.29) rotate(-57.52)"/><circle class="cls-3" cx="143.22" cy="87.22" r="0.62" transform="translate(-7.42 160.89) rotate(-57.4)"/><path class="cls-3" d="M146.34,92.2a.62.62,0,0,1,.18.86.61.61,0,0,1-.85.19.63.63,0,0,1-.19-.86A.62.62,0,0,1,146.34,92.2Z"/><circle class="cls-3" cx="148.79" cy="98.22" r="0.62" transform="translate(-14.05 170.81) rotate(-57.46)"/><circle class="cls-3" cx="151.58" cy="103.72" r="0.62" transform="translate(-17.47 175.55) rotate(-57.4)"/><circle class="cls-3" cx="157.2" cy="103.72" r="0.62" transform="translate(-12.26 185.91) rotate(-59.29)"/><circle class="cls-3" cx="162.83" cy="103.72" r="0.62" transform="translate(-9.51 190.74) rotate(-59.29)"/><ellipse class="cls-3" cx="168.45" cy="103.72" rx="0.62" ry="0.62" transform="matrix(0.51, -0.86, 0.86, 0.51, -6.94, 195.22)"/><path class="cls-3" d="M194.69,49.53a.63.63,0,0,1,.2.86.61.61,0,0,1-.85.21.62.62,0,1,1,.65-1.06Z"/><circle class="cls-3" cx="191.77" cy="55.43" r="0.62" transform="translate(44.76 190.47) rotate(-58.69)"/><circle class="cls-3" cx="189.18" cy="60.79" r="0.62" transform="translate(38.73 190.6) rotate(-58.6)"/><path class="cls-3" d="M184.33,71a.62.62,0,0,1,.2.86.61.61,0,0,1-.85.21.63.63,0,0,1-.21-.86A.62.62,0,0,1,184.33,71Z"/><circle class="cls-3" cx="181.41" cy="76.89" r="0.62" transform="translate(21.37 191.82) rotate(-58.65)"/><path class="cls-3" d="M179.14,81.72a.62.62,0,0,1,.2.86.61.61,0,0,1-.85.21.62.62,0,0,1,.65-1.07Z"/><circle class="cls-3" cx="173.63" cy="92.99" r="0.62" transform="translate(3.96 193.02) rotate(-58.69)"/><ellipse class="cls-3" cx="171.04" cy="98.36" rx="0.62" ry="0.62" transform="translate(-1.93 193.29) rotate(-58.66)"/><path class="cls-3" d="M176.55,87.09a.62.62,0,0,1,.2.86.61.61,0,0,1-.85.21.63.63,0,0,1-.21-.86A.62.62,0,0,1,176.55,87.09Z"/><circle class="cls-3" cx="186.59" cy="66.16" r="0.62" transform="translate(32.93 190.99) rotate(-58.61)"/><circle class="cls-3" cx="199.37" cy="50.06" r="0.62" transform="translate(54.08 195.47) rotate(-59.12)"/><circle class="cls-3" cx="201.79" cy="55.43" r="0.62" transform="translate(55.97 205.52) rotate(-61.18)"/><ellipse class="cls-3" cx="206.13" cy="65.18" rx="4.34" ry="4.37"/><polygon class="cls-3" points="202.12 62.1 202.77 57.63 206.54 59.97 203.73 59.79 202.12 62.1"/><circle class="cls-3" cx="84.15" cy="76.29" r="0.62" transform="translate(-25.46 106.09) rotate(-57.4)"/><circle class="cls-3" cx="91.36" cy="76.29" r="0.62" transform="translate(-22.15 112.09) rotate(-57.37)"/><circle class="cls-3" cx="105.78" cy="76.29" r="0.62" transform="translate(-15.48 124.31) rotate(-57.4)"/><circle class="cls-3" cx="112.99" cy="76.29" r="0.62" transform="translate(-12.19 130.31) rotate(-57.37)"/><circle class="cls-3" cx="98.57" cy="76.29" r="0.62" transform="translate(-18.78 118.31) rotate(-57.44)"/></g></g></svg>