<svg xmlns="http://www.w3.org/2000/svg" viewBox="0 0 523.05 522.83"><defs><style>.cls-1{fill:#fff;}.cls-2{fill:#11376b;}</style></defs><title>hitrobot_zhongdao_Forklift-html</title><g id="图层_2" data-name="图层 2"><g id="图层_1-2" data-name="图层 1"><path class="cls-1" d="M523.05,522.83H0V0H523.05ZM194,412.52l11.49,0q0,17.88,0,35.77H194.77v24.5h23.79v12.9H206.07V509.4h60.54l.83-12.08,10.22-1.19L279,486h11.93l.84,10.2L302,497.43l1.11,11.9h12.63V486.15l10.78-1.37.56-11.91,12.21-.84,1.28-10.9h10.65q0,12.26,0,24.53H340.51l-1.34,10.87-11.81.55v12.13H351V485.39H364.3v23.82h10.5V485.67H364l.6-13.63h24.15V437.54h11.3V472h23.54l.78-10.14h24l-.49,10.27-11,.78v24h-13V486.14H389.18v10.29l10.24.76.61,12.08h12.33l1-12.61h10.8v12.46h85.28V497.26l-12.71-1.11c0-3.95,0-7.34,0-10.73h12.61V413.17l-12-1.11V399.91l12-.67V364.57l-12.12-1.11-.72-11.86H485.4v61.2h-13V399.24H448.7l-.89-10.34H413.34l-1.25,10.84H399.58V389h-11v10.73H376l-1.32-10.87-10-1.13V375.65l10.15-.74v-35H364.07V326.43h24.29V315.34h23.87v24l-12.37,1c0,4,0,7.38,0,10.75H389.09v24.23l10.51-.51v-24h13.56v24H424.1V351.47l13-1.09-.48-10.29-12.08-.65V327.16l12.37-1.11c0-24.59,0-48.48,0-72.36h11.51v23.75h12.81V253.67h11.18c0-8.78,0-16.51,0-24.25l13,.35.65,12.33,10.51,1.14v10.39l-10.47.71-1.12,12.32-12,.56v10.43l12.33,1V291H473.1v24L485,316v10.41l-11.83.57V339.1h36.34V315.93l-12.18-.9-1-12.09L486,301.72c-.34-4.17-.62-7.57-.87-10.94h24.07V267.22l-11.87-.68c-.36-4.72-.69-8.94-1-13.14h13V219h-12l-1.17,10.2c-4.22.35-7.61.62-11,.88V219H472.7v10.7H448.45c0,5,0,9,0,13H436.94V218.92l11.21-1.31c0-4.53,0-8.52,0-12.5h12.58v-11H448.15V181.64H423.53v47.43H412.75V146H400.26L399,156.48H388.38l.26.26V133.09H375.76L375,145.62H351.27c0,4.36,0,7.76,0,11.15H327.42l-1.31-11.19H315.48V132.86l-12.34-1.06V121.55l12.32-1c0-4.68,0-8.65,0-12.61h11.23V96.69h12.75l1-13.08h10.76v13.1h13.1l-.57,10.88-11.93,1.06v23.22h11.92l.87-10.22,10.62-1.17c0-8.35,0-16.06,0-23.76h13.12V83.59l11.51.61v47.58h12.37l1.26-10.8H424.1v23.92c8.84,0,16.74,0,24.63,0l-.32,11.9H424.62v12.29h23.52c0-4.59,0-8.58,0-12.56l13,.35.69,12.91,10.26-.51V157.18c-4,0-7.61,0-11.19,0v-12H448.5l-.68-12.28-10.28-1.25-1.14-10.4H423.83V108.64l-11.51-1.38V72.88l-12.17-.71-.91-12.06H388.65c0,8.33,0,16,0,23.75l-13.39,0V48.19l-10.67.48-.81,10.24H351.65l-1.27-10.32-10-.73V35.66l9.92-1V11.41h-34.1v12l10.09,1.19V34.76l-10.58.9c0,8.46,0,16.2,0,23.94H291.15c0-4.79,0-8.12,0-11.45h10.78V10.84l-10.52.52V48.42H254.07v11.2L243.38,59V35.54l10-.86V24.51l-10.17-1.22L242.09,11.4H229.45V35.32H218.3V24.08H194V11.49H145.68V24.1H121.15V11.48H108.83V23.85h12.59V47.71l-12.6,1.09V59l12.58,1.13c0,8.42,0,16.09,0,23.77H108.81v12.8h12.58q0,5.75,0,11.51H108.32c0,5.05,0,9.06,0,13.06H96.81V108.62H60l-1,12.67H48.27V108.66H35.95V121H48.54q0,5.73,0,11.45H35.93V145.3H48.52l-.31,11.45.26-.26L36,157v23.54l11.85.76L49,193.87H59.71v23.87H48.79l-1-12.35H35.18V194.62H24.73v10.5H35.45v24.57H24V218.91H11.66v10.5H24.24v12.71l-12.8,1.06V253.5l12.86.7V278H35.43v12.59l-10.93,1.34v10.14l10.18.72v13.12H11.45v23.5l12.08.8,1.26,11H35.4l-.26-.26v37.64H24V375.91H11.65v12.36H24.24q0,5.71,0,11.42H11.6V412H24V399.42H47.85L49,412.7l10.45-.49c0-8.59,0-16.28,0-24H72.81v23.68H96.44V400.08L83.73,399c0-3.95,0-7.34,0-10.73l24.57,0v11.23h13.1V412.2l-13.3,1.08.51,10.26,12.07.72v12.25l-11.75,1v23.87c4.77-.26,8.77-.48,12.75-.67l-.28,11.85H108.81v12.82H121.4v23.85H132l1-12.1,12.39-1V485.41l11.15.39.55,10.59,12.2.72,1.08,12H180.8l.56-11.94,12.12-.92V485.82L181,485.23V461.91H169.4v23.25c-5,.36-9.06.64-13.06.9V448.65H145.87L145.2,461H121.45V448.59l11.13-.94v-23.3l12.84-1V412.52l10.87.55,1,10.19h12l1.3-10.75h10.57v10.73H194Zm302.73-280q0-5.72,0-11.44h12.63V108.72H497V121.3H473.07L472,108.45H461.85v23.49l10.29.84,1.06,12.52h12.62v35.14L473,181.53v12h36.42V170.2l-12.68-1.13c0-8.34,0-16.05,0-23.77h12.59V132.48ZM375.3,23.79h12.57l1.37,11.05,10.16.74.67,12.06h12.05V24.21L400,23.65l-.62-12.18H375.57c0,4.59,0,8.59,0,12.59H364.8V34.51h10.5Zm-279,72.63V11.63H11.5V96.42Zm.25,328.14H11.74v84.79H96.53ZM424.43,96.17h84.79V11.38H424.43ZM11.73,157v23.47H23.5V157Zm11.9-24.09h-12v11.86h12ZM461,291.9H448.76v10H461Zm.91,59.57v11.94h10.22V351.47Zm-.06,24.26v12h10v-12Zm-122.39-254H326.77l.48,10.09H339.5ZM267.45,34.56h10.09V24.4H267.45Z"/><path d="M399.58,399.74h12.51l1.25-10.84h34.47l.89,10.34h23.75V412.8l.28-.26-10.73.54V424h10.73l-.26-.26v12.68L462,437.53v23.59h10.74v11.49H485.8l-.26-.26.28,13.32H473.19v10.48h12.37V485.4l11.45.29-.28-.26v10.73l12.71,1.11v11.85H424.17V496.66l-.27.27h13v-24l11-.78.49-10.27h-24L423.62,472H400.08V437.54h-11.3V472H364.63l-.6,13.63.27-.27H351l.27.27q0-12.26,0-24.53l-.28.26h23.78V448H351l.26.26v-35L339.75,412c0-4.49,0-8.48,0-12.47h10.77V389H340v10.73l-13.33-.59v-24h12.63l1.34-10.75,10.15-.76.69-12.18,12.84-1.08V339.66l-.26.28h10.75v35l-10.15.74v12.09l10,1.13L376,399.74h12.59l-.26-.28q.33,6.83.64,13.65H375.57c0,4.22,0,7.55,0,10.89H364.79v12.33H375.3V423.73h12.88l.55-10.86,11.11-.71v-12.7ZM448,413.4H413.27v34.22H448Zm.88,72.32v10.44h12.6L461,485.72Z"/><path d="M448.15,205.1v12.5l-11.21,1.31c0,7.91,0,15.87,0,23.82l.28-.26H413.44V254h23.77l-.28-.26v72.36l-12.37,1.11v12.29l12.08.65.48,10.29-13,1.09v23.36H413.16v-24H399.6l.27.27V340.36l12.37-1v-24H388.37l.26.28V302.28l-.26.26L399.1,302V267.2L389,266.55V243l10.14-.77V218.46H388.37c0-4.22,0-8.45,0-12.59l11.41-1.39-.5-10.13L389,193.64l-1-12H375.55v36.84H364.06V156.51H351l.28.26V145.62H375l.78-12.53h12.89c0,7.7,0,15.68,0,23.66H376v12.33h12.38v-12.6H399L400.26,146h12.49v83.1h10.78V181.64h24.62v12.51l.28-.26-10.73.54v10.93h10.73Zm-34.82,62v23.48h10V267.06Z"/><path d="M59.44,388.25v24L49,412.7l-1.14-13.28H24l.27.27V388.27l-.27.27H35.13c0-12.93,0-25.28,0-37.64H47.77V340.42H35.4v10.74H24.79l-1.26-11-12.08-.8v-23.5H34.69V302.77l-10.18-.72V291.92l10.93-1.34V278l-.28.26H59.06l1.07,12.31H72.42L73,278H108.3c0,4.2,0,8.4,0,13.49H84c0,4.3,0,7.69,0,11.07H72.8c0,4.83,0,9,0,13.08H60.21v10.95H72.79c0,4.12,0,8.24,0,13.1H84v10.88l12.81,1.06v12.61l.26-.26H83.74v11.48l.26-.26H72.53l.26.26-.52-10.73H49v23.82H59.71Z"/><path d="M121.15,24.11h24.52l-.26-.28V34.66l-12.25,1.08V59.59H170l-.26-.26V72h35.22l1-12.4h12.62l-.26-.26V72.68h11.48l-.26-.26.26,11.49H218.89L217.81,97H205.25q0-6.31,0-12.63H194.77V96.73h10.74V107.6l12.75,1.05v12.6l.27-.27H194.64l-1.11-12.65L181,107.67V84.4H170c0,12.71,0,24.79,0,36.86H156.62V108.62l-11.23-1.31c0-3.85,0-7.22,0-10.58h10.79V72.5l-10.53.5V97l-13.32-.29.26.26V83.63H121.12l.28.26V60.12L108.82,59V48.81l12.6-1.09V23.85Z"/><path d="M351.27,461.13H340.62L339.34,472l-12.21.84-.56,11.91-10.78,1.37v23.19H303.16L302,497.43l-10.29-1.23-.84-10.2H279l-1.32,10.12-10.22,1.19-.83,12.08H206.07V485.71h12.48l-.26-.28.54,10.73h10.93V485.43l-.26.26h23.9l1.21-13.59h36.55c0-8.64,0-16.34,0-24h11.49v12.58h12.82V448h10.84l1-10.45h12l1.3,10.73h10.58L351,448v13.34Z"/><path d="M96.29,96.42H11.5V11.63H96.29Zm-71.56-72V83H83.38V24.37Z"/><path d="M96.53,424.56v84.79H11.74V424.56Zm-71.8,12.82V496H83.38V437.37Z"/><path d="M424.43,96.17V11.38h84.79v84.8ZM496.5,24.43H437.64v58.7H496.5Z"/><path d="M351.25,83.61H340.49l-1,13.08H326.69L327,97V83.88H315.47l.27-11.47-.26.26,10.73-.55V59.33H315.48l.28.26V35.65l10.58-.9V24.63l-10.09-1.19v-12h34.1v23.2l-9.92,1v12.2l10,.73,1.27,10.32h12.12l.81-10.24,10.67-.48c0,12.23,0,24,0,35.7l.28-.26H364.07l.26.26-.55-10.73H351V83.89Z"/><path d="M472.44,412.8h13V351.6h11.1l.72,11.86,12.12,1.11v34.67l-12,.67v12.14l12,1.11v72.26H496.74l.28.26V472.34H485.54l.26.26-.27-11.47h10.74V448.31H485.53V423.75H472.46l.26.26V412.54Z"/><path d="M181.18,412.52H170.61l-1.3,10.75h-12l-1-10.19-10.87-.55.26.28-.28-13.32h10.77V389H145.66v10.73l-13.32-.29.26.26-.27-24.55h13.1V363.94h11.44c0,3.58,0,7.16,0,10.78h12.33V364.19H156.6V351.13h-11.2V340.27l-12.24-1V326.57h23.72c0,4.12,0,8.25,0,13.08H170c0,3.51,0,7,0,11.23H181.2v37.06l-10.78.86v10.28l10.51,1.25V412.8Z"/><path d="M48.27,121.29H59l1-12.67h36.8v12.64l.28-.26H84.5v11.48H97.09l-.26-.26.26,13.35H84v11.21H72.8c0,8.79,0,16.53,0,24.28H59.45v13.09l.26-.28H49l-1.1-12.53L36,180.58V157l12.45-.56q0,6.31,0,12.63H59V156.75H48.21l.31-11.45-.28.26L59,145v-12.8H48.24l.28.26,0-11.45Z"/><path d="M35.43,278H24.31V254.2l-12.86-.7V243.18l12.8-1.06V229.42l-.27.27H35.45V205.12l-.27.27H47.77l1,12.35H59.71c0-8,0-15.94,0-23.87l-.26.28,13.34-.27c0,11.66,0,23.31,0,35.09l-12.54,1.11v12.38H84q0,5.75,0,11.5H73.15l-1,12.32H60L59,254H48.26c0-3.58,0-7.16,0-10.78H35.94v10.52H48.53v12.71l-13.37,1.06v10.76Z"/><path d="M388.37,315.34v11.09H364.07c0,5.1,0,9.3,0,13.51l.26-.28H350.92V303H339.56v23.79H326.68l8.52-36.13h39.86l.78-11.95h12.53v23.8l.26-.26H376v13.34h12.59Z"/><path d="M218.3,35.32h11.15V11.4h12.64l1.12,11.89,10.17,1.22V34.69l-10,.86V59l10.68.59-.26-.28.27,24.55h-11.5V72.41H229.51l.26.26V59.33H218.3l.26.26q0-12.28,0-24.56Z"/><path d="M315.48,145.58h10.64l1.31,11.19h23.84l-.28-.26v23.84l-11.25,1.32v12.46l.27-.27c-17.9,1.43-24.44-2.08-25.52-13.14H302.62V169.59h13.12V145.3Z"/><path d="M145.68,24.1V11.49H194v12.6l.28-.26H181.61v24l12.57,1-.52,10.47h-24l.26.26V35.7l-12.68-1.1L156,23.82h-10.6Z"/><path d="M315.46,107.92v12.61l-12.32,1v10.25l12.34,1.06c0,4.34,0,8.53,0,12.72l.26-.28-24.55.27c0-8.06,0-16.12,0-24.31h-13.1V84.38h13.58v23.81h24.06Z"/><path d="M485.14,290.76l.9,11,10.28,1.22,1,12.09,12.18.9V339.1H473.16V327l11.83-.57V316L473.1,315V291h12.34Z"/><path d="M424.1,121H413.52l-1.26,10.8H399.89V84.2l-11.51-.61.27.27V60.11h10.58l.91,12.06,12.17.71v34.38l11.51,1.38v12.61Z"/><path d="M145.42,412.52V423.3l-12.84,1v23.3l-11.13.94c0,4.07,0,8.25,0,12.44l.26-.3-12.77.7V437.56l11.75-1V424.26l-12.07-.72-.51-10.26,13.3-1.08V399.46l-.28.26H132.6l-.26-.26V412.8h13.34Z"/><path d="M291.15,48.15V59.59h24.61l-.28-.26V72.68l.26-.26H267.52l-1.11-13.08h-12.6l.26.28c0-3.4,0-6.8,0-11.2h37.35Z"/><path d="M496.74,145.3v23.77l12.68,1.13v23.33H473v-12l12.83-1.08c0-11.77,0-23.46,0-35.14l-.28.26H497Z"/><path d="M496.35,253.38l1,13.16,11.87.68v23.55H485.15l.29.25c0-4,0-7.89,0-12.39l-12.33-1V267.22l12-.56,1.12-12.32,10.48-.7Z"/><path d="M205.5,448.31q0-17.88,0-35.77l-.28.26H229V448H205.22Z"/><path d="M156.32,486.09l13.08-.93V461.91H181v23.32l12.48.59v10.48l-12.12.92-.56,11.94H170.4l-1.08-12-12.2-.72c-.2-3.87-.37-7.23-.54-10.6Z"/><path d="M375.57,24.06V11.47h23.81L400,23.65l12.11.57V47.63H400.06l-.67-12.06-10.16-.74-1.37-11.05H375.3Z"/><path d="M496.73,121q0,5.72,0,11.44l.28-.26H485.54v13.34l.28-.26H473.2l-1.06-12.52-10.29-.84V108.45H472l1.06,12.85H497Z"/><path d="M218.56,485.71v-12.9H194.77v-24.5H205.5l-.28-.26V461.6h24.29v24.09l.26-.26H218.3Z"/><path d="M121.4,472.6q.14-5.93.29-11.87l-.25.29H145.2l.68-12.36h10.47c0,12.35,0,24.88,0,37.42l.25-.29-11.16-.38.26.28c0-4.22,0-8.43,0-13.34H121.12Z"/><path d="M485.22,230.06l11-.9,1.17-10.2h12v34.43H496.36l.29.25c0-3.3,0-6.59,0-10.4l-10.51-1.14q-.32-6.14-.64-12.34Z"/><path d="M375.26,96.71v23.76l-10.62,1.17-.87,10.22H351.85V108.65l11.93-1.06.57-10.88-.28.26h11.48Z"/><path d="M424.17,496.66h-10.8l-1,12.61H400l-.61-12.08-10.24-.76V486.14H423.9c0,3.63,0,7.21,0,10.79Z"/><path d="M423.83,121.25H436.4l1.14,10.4,10.28,1.25c.22,4,.45,8.14.67,12.29l.26-.3H424.1c0-8.12,0-16,0-23.92Z"/><path d="M83.73,388.25V399l12.71,1.11v11.85H72.81V388.25l-.27.26H84Z"/><path d="M351,485.39v23.82H327.36V497.08l11.81-.55,1.34-10.87h10.77Z"/><path d="M108.3,388.23l-24.57,0,.28.26q0-6.67,0-13.34l-.26.26H97.09V364l-.26.26,11.47-.27L108,388.51Z"/><path d="M472.43,229.43v24.25H461.25l.26.28V242.48H448.17l.28.26v-13H472.7Z"/><path d="M145.42,485.41v10.78l-12.39,1-1,12.1H121.4V485.43l-.28.26h24.56Z"/><path d="M291.42,48.42V11.35l10.52-.52V48.15H291.15Z"/><path d="M461.25,253.67v23.77H448.45V253.69l-.28.26h13.34Z"/><path d="M11.73,157H23.5v23.47H11.73Z"/><path d="M448.14,156.54v12.56H424.62V156.81h23.79Z"/><path d="M399.6,350.83v24l-10.51.51V351.11h10.78Z"/><path d="M194,24.08H218.3c0,4.17,0,7.7,0,11.23l.26-.28H194.27V23.82Z"/><path d="M364,485.67H374.8v23.55H364.3q0-11.92,0-23.82Z"/><path d="M72.81,388.25H59.44l.27.26V375.43H72.79l-.26-.26q0,6.67,0,13.34Z"/><path d="M121.38,96.69H108.81V83.89H121.4l-.28-.26q0,6.67,0,13.34Z"/><path d="M24.24,388.27H11.65V375.91H24c0,4.23,0,8.43,0,12.63Z"/><path d="M48.52,145.3H35.93V132.48H48.52l-.28-.26q0,6.67,0,13.34Z"/><path d="M364.35,96.71h-13.1c0-4.85,0-9,0-13.1l-.26.28h13.34l-.26-.26V97Z"/><path d="M388.38,83.59V96.71H375.26l.28.26V83.63l-.28.26,13.39,0Z"/><path d="M496.74,132.48h12.59V145.3H496.74l.28.26V132.22Z"/><path d="M23.63,132.88v11.86h-12V132.88Z"/><path d="M24,399.42V412H11.6V399.69H24.23Z"/><path d="M497,121.3V108.72h12.36V121H496.73Z"/><path d="M121.4,485.43H108.81V472.6H121.4l-.28-.26q0,6.67,0,13.34Z"/><path d="M108.32,121.26V108.2h13.06l-.26-.28V121H108Z"/><path d="M48.54,121H35.95V108.66H48.27c0,4.23,0,8.43,0,12.63Z"/><path d="M121.42,23.85H108.83V11.48h12.32c0,4.23,0,8.43,0,12.63Z"/><path d="M472.7,229.7V219h12.54c0,3.46,0,7.25,0,11l.25-.29-13.05-.34Z"/><path d="M461,291.9v10H448.76v-10Z"/><path d="M24.24,229.42H11.66v-10.5H24c0,3.62,0,7.2,0,10.77Z"/><path d="M448.15,194.15h12.58v11H448.15l.28.26q0-5.74,0-11.48Z"/><path d="M462,351.47h10.22v11.94H462Z"/><path d="M460.93,157.18h11.21v12.11l-10.26.51c-.25-4.58-.47-8.74-.68-12.92Z"/><path d="M448.41,156.81q.16-5.95.33-11.91l-.25.29h12.46c0,4.46,0,8.21,0,12l.25-.29-13.05-.34Z"/><path d="M461.89,375.73h10v12h-10Z"/><path d="M121.4,399.46H108.3c0-4.21,0-7.72,0-11.23l-.26.28h13.08v11.21Z"/><path d="M205.5,412.54l-11.49,0,.26.28V400.23h11V412.8Z"/><path d="M194,412.52v10.73H181.18c0-3.56,0-7.15,0-10.73l-.26.28h13.34Z"/><path d="M339.5,121.78v10.09H327.25l-.48-10.09Z"/><path d="M375.3,23.79V34.51H364.8V24.06h10.77Z"/><path d="M96.81,121.26h11.51L108,121l.27,11.47-11.49-.26.26.26V121Z"/><path d="M267.45,34.56V24.4h10.09V34.56Z"/><path d="M35.45,205.12H24.73v-10.5H35.18c0,3.61,0,7.19,0,10.77Z"/><path d="M448.45,253.69H436.94l.28.26V242.48l-.28.26h11.51l-.28-.26q0,5.74,0,11.48Z"/><path d="M388.62,399.74V389h11c0,3.55,0,7.14,0,10.73l.26-.28H388.36Z"/><path d="M326.69,96.69v11.23H315.46l.28.26-.27-11.47L327,97Z"/><path d="M121.38,108.2q0-5.75,0-11.51l-.26.28H132.6l-.26-.26v11.21H121.12Z"/><path class="cls-1" d="M194.27,412.8H180.92V400.32l-10.51-1.25V388.79l10.78-.86V350.88l-.27.25h23.89c0-4.64,0-8.22,0-11.78l13.77.33v48h23.62V375.78l-12.73-1.06c0-12.09,0-23.56,0-35,13,.2,13,.2,12-6.77H229.76v7H218.33c0-2.34,0-4.68,0-7.09l-12.63-1.28-.59,8h-9.58c-2.42-11.67-4.53-22.85-7.26-33.88-.41-1.66-3.77-2.58-7.47-4.93v25.79H169.71l.26.26V303.08H156.63v23.76l.25-.27H133.17v12.66l12.24,1v10.86l.27-.25H121V327.42H108v36.79l.25-.27-11.47.27V351.6L84,350.54V339.66l-.27.25H96.32V326.58H83.75l.26.26V315.36l-.26.26h37.64V302.28l-.26.26H132l1.05,12.56h12V278.48l-12.11-.74-1-10.3-10.56-1.22V242.48l-.26.26,11.49-.26v11.21H145.7v13.06h11.19c0,3.58,0,7.17,0,10.73h12.82V266.76l11.5,0v23.85c8-.24,9.48-7,6.14-23.58h-6.41q0-6.69,0-13.38h6.93v-24H145.42c0-3.51,0-7,0-11.49H132.34l.26.26v-24l13.08-1.09V180.81l-.26.26h24.15l.6,12.91,11.34-.48q-.18,6-.33,11.9H157.38v12.3h23.51c0-4.6,0-8.58,0-12.57h8.3l4.93-10.78-12.87-.57V180.88h36.58V145.58H205.22c0-4.2,0-8.39,0-13.44H181.61L180.3,121H169.71l.27.26V84.4h11v23.27l12.57.66L194.64,121h23.89c0,3.58,0,7.16,0,10.77H229v-10.5H218.26v-12.6l-12.75-1.05V96.73l-.26.26h12.56l1.08-13.09h10.88l-.26-.27V97h13.34l-.26-.26v24.55h24.55l-.26-.26v11.76H243.23v37.14h24.18V188h10.32c0-11.46,8.65-5.49,13.49-7.25,3.79,5.1,7.59,3.48,11.39,0h11.87c1.08,11.06,7.62,14.57,25.52,13.14q0,5.74.06,11.48h-8.45l1.4,12.52,2.46,1.39c1.47-1.95,3.62-3.71,4.23-5.9.72-2.56.12-5.5.09-8.28h10.67V194.13H339.74V181.67L351,180.35V156.51h13.07v61.93l.27-.26H350.88v24.23h-18v11.27c12.61-1.74,4,9.28,8.25,12.75l9.62,1.21.79,9.89h12V254.28l-12.06-1c-.35-4.29-.63-7.68-.89-11.06h24.94V229.4l-.26.26h13.34V218.18l-.25.27h10.76v23.76L389,243v23.56l10.12.65V302l-10.74.55v-23.8H375.83l-.78,11.95H335.2l-8.52,36.13.27-.25c-9.6,5.73-20.11,6.13-30.92,5.84-13.85-.37-27.72-.09-41.94-.09,0,7.09,0,12.95,0,18.81H243.35V364h10.73v10.71h23.53V351.13H266.87l.51-10.82h23.43l1.12,10.16,10.76,1.28c0,4.49,0,8.46,0,12.43H291.92v10.45h10.5V363.91l13.32.3-.26-.26.61,11.47H327l-.27-.25v24l13.33.59-.26-.26V412l11.5,1.32v35H340.67l-1.3-10.73h-12l-1,10.45H315.48l.25.27q-.14-12.26-.29-24.53h10.77V413.33h-10.5v10.72H303.13l-1.32-11.25H291.17V399.24h24V388.87H254.45l-1.06,10.18-10.23,1.26v23H253.4l1.22-10.83h12.53q0,12.3,0,24.6H243.41v10.7l10.21.78.67,12h12.57c0-8.33,0-16.05,0-23.77l11.5,0c0,3.51,0,7,0,11.49h13.08l-.27-.26v24H254.63l-1.21,13.59h-23.9V461.6H205.22V448H229V412.8H205.22V400.23h-11Zm10.39-134.38c10,4.53,12.62-2.09,15.12-8.19,3-7.37,7.61-9.18,15-6l-6.4,14.52c6.93,2.58,11.05.82,13.75-5.65s6.88-12.6,9.39-19.26c3.48-9.23,9.45-9.78,17.87-7-2.64,7-4,14-13.62,12.88-1.5-.18-4.13,1.68-4.77,3.22-1.83,4.33,6.46,16.72,11.17,16.76,17.67.15,35.34.06,53.18.06-3.75-15.55-8.21-18-21.67-13.31l10.65,7-1.29,2.21H281.45l9.88-20,15.33,3.79c-1.75-3.9-2.2-5.39-3-6.62-2.86-4.31-2.91-10.77-10.87-10.91s-8.66,5.8-11.11,10.45c-4.36,8.27-8.46,16.69-13.64,27l-6.93-15.65c13-1.68,17.49-6.73,19.74-21.57-7.85,0-15.63.53-23.31-.14-8.22-.72-13.83,1.45-16.25,9.86-2.16,7.49-7.11,9.41-14.69,6.46l6-15.05-2.17-2.48c-3.39,2.12-8.13,3.46-9.92,6.52C214.69,257.16,210,267.67,204.66,278.42Zm-10.18,96.45h10.36v-10.2H194.48Zm49-190.17-1.9-3.15H230l-1.19,2.85c2.3,1.33,4.61,3.73,6.9,3.72C238.32,188.11,240.92,185.94,243.51,184.71Z"/><path class="cls-1" d="M326.68,326.83h12.88V303h11.36v36.62h13.41V350.4l-12.84,1.08-.69,12.18-10.15.76-1.34,10.75H326.68l.27.25L326.34,364H315.48l.26.26q0-11.93,0-23.85L327,339V326.57Z"/><path class="cls-1" d="M448,413.4v34.22H413.27V413.4Zm-23.54,23.07H436.5V424.55H424.42Z"/><path class="cls-1" d="M472.46,423.75h13.07v24.55l.27-.25H472.46v13.34l.25-.27H462V437.53l10.49-1.09Z"/><path class="cls-1" d="M351,461.39V448h23.78v13.34Z"/><path class="cls-1" d="M388.36,399.46h11.48v12.7l-11.12.7.3.26Z"/><path class="cls-1" d="M375.57,424V413.1H389l-.28-.25c-.16,3.34-.33,6.67-.54,10.87H375.3Z"/><path class="cls-1" d="M375.3,423.73v12.59H364.79V424h10.78Z"/><path class="cls-1" d="M485.53,461.14l.27,11.47H472.72V461.12l-.25.27H485.8Z"/><path class="cls-1" d="M485.54,472.34H497v13.34l-11.45-.29.26.26Z"/><path class="cls-1" d="M448.84,485.72H461l.48,10.44h-12.6Z"/><path class="cls-1" d="M485.56,485.4v10.74H473.19V485.66h12.64Z"/><path class="cls-1" d="M340,399.75V389h10.51v10.47H339.75Z"/><path class="cls-1" d="M472.72,412.54V424H462V413.08Z"/><path class="cls-1" d="M375.55,218.44V181.6H388l1,12,10.28.71.5,10.13-11.41,1.39c0,4.14,0,8.37,0,12.59l.25-.27H375.28Z"/><path class="cls-1" d="M413.33,267.06h10v23.48h-10Z"/><path class="cls-1" d="M437.22,242.48V254H413.44V242.48Z"/><path class="cls-1" d="M388.63,315.62H376V302.28h12.59Z"/><path class="cls-1" d="M388.38,156.48v12.6H376V156.75h12.64Z"/><path class="cls-1" d="M364.06,218.44h11.49l-.27-.26v11.47l.26-.26H364.33V218.18Z"/><path class="cls-1" d="M448.43,193.89q0,5.74,0,11.48H437.7V194.43Z"/><path class="cls-1" d="M48.26,254H59l1,12.3H72.11l1-12.32H84l-.26-.27v13.48H108v11.07l.25-.27H73l-.59,12.58H60.13l-1.07-12.31H35.15V267.49l13.37-1.06V253.71Z"/><path class="cls-1" d="M84,302.54V291.46H108.3c0-5.09,0-9.29,0-13.49l-.25.27h13.08v24.29l.26-.26H83.75Z"/><path class="cls-1" d="M72.79,375.43H59.71v13.08H49V364.69H72.27Z"/><path class="cls-1" d="M72.8,315.62V302.54H84l-.27-.25q0,6.67,0,13.34l.26-.26H72.53Z"/><path class="cls-1" d="M72.79,326.56H60.21V315.62H72.8l-.27-.25v11.47Z"/><path class="cls-1" d="M84,339.66H72.79c0-4.85,0-9,0-13.1l-.25.27H84l-.26-.26q0,6.67,0,13.34Z"/><path class="cls-1" d="M35.4,351.16V340.42H47.77V350.9H35.13Z"/><path class="cls-1" d="M97.09,364v11.48H83.74c0-3.51,0-7,0-11.48Z"/><path class="cls-1" d="M72.53,388.51q0-6.67,0-13.34H84q0,6.67,0,13.34Z"/><path class="cls-1" d="M121.12,107.92h11.21V96.71l13.32.29-.26-.26v10.58l11.23,1.31v12.64l.27-.26H133.13v11.47h23.76l-.26-.26.28,13.34H133.08v24H145.7l-.28,11.47.26-.26H121.12l.26.26V132.22H108l.27.26L108,121h13.08Z"/><path class="cls-1" d="M194.27,23.82V35h24.29q0,12.28,0,24.56H205.94l-1,12.4H169.71V59.33h24l.52-10.47-12.57-1v-24Z"/><path class="cls-1" d="M145.42,23.82H156l1.27,10.78L170,35.7v23.9h-36.8V35.75l12.25-1.08Z"/><path class="cls-1" d="M145.65,97V73l10.53-.5V96.73H145.39Z"/><path class="cls-1" d="M132.6,97H121.12q0-6.67,0-13.34H132.6Z"/><path class="cls-1" d="M156.62,121.26H170l-.27-.26v11.21H156.63l.26.26V121Z"/><path class="cls-1" d="M218.3,59.33h11.48V72.68H218.3Z"/><path class="cls-1" d="M229.51,72.41h13.07V83.88l.27-.26H229.51l.26.27Z"/><path class="cls-1" d="M205.51,96.73H194.77V84.36h10.48q0,6.33,0,12.63Z"/><path class="cls-1" d="M315.48,448v12.6H302.67V448.05l-.27.26h13.34Z"/><path class="cls-1" d="M302.67,448.05H291.17l.27.26-.26-11.49H302.4v11.49Z"/><path class="cls-1" d="M218.3,485.43h11.48v10.73H218.84Z"/><path class="cls-1" d="M24.73,24.37H83.38V83H24.73Zm47.52,11.3H35.87V71.88H72.24Z"/><path class="cls-1" d="M24.73,437.37H83.38V496H24.73Zm47.52,11.5H36.06V485h36.2Z"/><path class="cls-1" d="M496.5,24.43v58.7H437.64V24.43ZM485,72.18V35.65H448.86V72.18Z"/><path class="cls-1" d="M315.47,96.72l.27,11.47H291.68V84.38H278.09v36.88l.27-.25H266.89l.26.26V108.54l-13.08-1V96.71l-.26.26h12.57V83.63H253.81l.27.26-.27-24.55h12.6l1.11,13.08h48.23l-.27,11.47.27-.25H303.17V97h12.57Z"/><path class="cls-1" d="M375.54,83.63V97H364.07V83.63Z"/><path class="cls-1" d="M327,97l-11.49-.26.27.26q0-6.67,0-13.34l-.27.25H327Z"/><path class="cls-1" d="M315.48,72.68V59.33h10.73v12.8Z"/><path class="cls-1" d="M364.33,83.89H351V73.16h12.8Z"/><path class="cls-1" d="M485.53,448.31h10.74v12.83H485.53l.27.25V448.05Z"/><path class="cls-1" d="M121.12,399.72V388.51H108l.26-24.57-.25.27h12.64L122,375.43h10.6l-.27-.25.27,24.55Z"/><path class="cls-1" d="M145.68,412.8H132.33V399.46l13.32.29-.26-.26Z"/><path class="cls-1" d="M170,339.65H156.88c0-4.83,0-9,0-13.08l-.25.27H170l-.26-.26q0,6.67,0,13.34Z"/><path class="cls-1" d="M145.41,351.13h11.2v13.07l.26-.26H145.42l.25.27q0-6.67,0-13.34Z"/><path class="cls-1" d="M145.42,363.94v11.23h-13.1l.27.25V364.21h13.08Z"/><path class="cls-1" d="M156.6,364.19h12.59v10.52H156.87c0-3.62,0-7.2,0-10.78Z"/><path class="cls-1" d="M145.66,399.75V389h10.51v10.47H145.39Z"/><path class="cls-1" d="M181.2,350.88H170c0-4.21,0-7.72,0-11.23l-.25.27h11.21v11.21Z"/><path class="cls-1" d="M72.8,181.06V156.78H84l-.25-.27v12.73l13.08,1v10.78l.26-.26H72.53Z"/><path class="cls-1" d="M72.79,193.88l-13.34.27V181.06H72.8l-.27-.25q0,6.67,0,13.34Z"/><path class="cls-1" d="M48.21,156.75H59v12.37H48.47q0-6.33,0-12.63Z"/><path class="cls-1" d="M84,156.78V145.57H97.08l-.26-.27v11.21H83.75Z"/><path class="cls-1" d="M96.83,132.22l11.49.26-.27-.26V145.3H96.83l.26.27Z"/><path class="cls-1" d="M48.24,145.56q0-6.67,0-13.34H59V145Z"/><path class="cls-1" d="M97.09,121v11.48H84.5V121Z"/><path class="cls-1" d="M84,242.47H60.25V230.08L72.79,229c0-11.78,0-23.44,0-35.09l-.25.27H97.09V180.81l-.26.26h24.55l-.26-.26v37.64h11.47l-.26-.26.26,11.49H121.12v13.06l.26-.26H108l.26.26V230.15H83.75v12.59Zm23.6-24.65v-12H84.27v12Z"/><path class="cls-1" d="M84,254q0-5.75,0-11.5l-.26.27H108.3l-.26-.26v11.21H83.75Z"/><path class="cls-1" d="M48.53,253.71H35.94V243.2H48.26c0,3.62,0,7.2,0,10.78Z"/><path class="cls-1" d="M242.58,83.88h11.5l-.27-.26q0,6.67,0,13.34l.26-.26H242.6l.26.26V83.63Z"/><path class="cls-1" d="M302.62,180.72c-3.8,3.47-7.6,5.09-11.39,0V170.22l-13.14-1.11c0-4.67,0-8.63,0-12.59H291l.49-11.21-.25.27,24.55-.27v24.29H302.62Z"/><path class="cls-1" d="M278.09,121.26h13.1c0,8.19,0,16.25,0,24.31l.25-.27-13.36.26.28-24.55Z"/><path class="cls-1" d="M497,132.22v13.34H485.54V132.22Z"/><path class="cls-1" d="M121.12,485.69q0-6.67,0-13.34h24.56c0,4.91,0,9.13,0,13.34Z"/><path class="cls-1" d="M448.17,254q0-5.74,0-11.48h13.34V254Z"/><path d="M204.66,278.42c5.35-10.76,10-21.27,15.8-31.14,1.79-3.06,6.53-4.39,9.92-6.52l2.17,2.48-6,15.05c7.58,3,12.53,1,14.69-6.46,2.43-8.41,8-10.58,16.25-9.86,7.68.67,15.46.14,23.31.14C278.58,257,274.11,262,261.09,263.7L268,279.34c5.18-10.29,9.28-18.7,13.64-27,2.45-4.65,3.18-10.6,11.11-10.45s8,6.6,10.87,10.91c.82,1.24,1.26,2.72,3,6.62l-15.33-3.79-9.88,20h21.63l1.29-2.21-10.65-7c13.45-4.69,17.92-2.24,21.67,13.31-17.84,0-35.51.09-53.18-.06-4.71,0-13-12.43-11.17-16.76.65-1.53,3.28-3.4,4.77-3.22,9.59,1.14,11-5.85,13.62-12.88-8.42-2.82-14.39-2.27-17.87,7-2.51,6.65-6.64,12.67-9.39,19.26s-6.82,8.23-13.75,5.65l6.4-14.52c-7.44-3.14-12-1.33-15,6C217.28,276.33,214.64,283,204.66,278.42Z"/><path d="M83.75,253.69H108V242.48h13.34v23.74l10.56,1.22,1,10.3,12.11.74V315.1h-12L132,302.54H121.12V278.25H108c0-3.39,0-6.78,0-11.07H83.75Z"/><path d="M278.36,121l-.28,24.55.28-.26H254.59v11.47h23.77l-.28-.26v12.59l13.14,1.11v10.49c-4.85,1.75-13.51-4.21-13.49,7.25H267.41V169.91H243.23V132.77h23.66V121Z"/><path d="M267.15,412.52H254.62l-1.22,10.83H243.17v-23l10.23-1.26,1.06-10.18h60.71v10.37h-24c0,5.14,0,9.35,0,13.56l.28-.26H278.1l.26.26V400.22H266.89V412.8Z"/><path d="M145.42,181.07l.28-11.47-.28.26h60.06V145.3l-.26.28h12.62v35.31H181.25c0,4.94,0,8.92,0,12.9l.26-.3-11.35.5-.6-12.91Z"/><path d="M327,326.57V339l-11.21,1.31q0,11.92,0,23.85l-13.32-.3.27.27V351.75l-10.76-1.28-1.12-10.16H267.38l-.51,10.82.28-.26H253.81l.28.26V332.32c14.22,0,28.09-.28,41.94.09C306.84,332.7,317.35,332.3,327,326.57Z"/><path d="M145.68,364.21H132.59v11.21H122l-1.31-11.21H108V327.42H121v23.45h24.69Q145.68,357.54,145.68,364.21Z"/><path d="M156.63,132.22h13.08V121H180.3l1.31,11.13h23.61c0,5,0,9.24,0,13.44l.26-.28-10.85.54L193.57,156H181.35l-.66-10.69H156.63l.28.26Z"/><path d="M180.92,351.13V339.92H169.71q0-6.67,0-13.34h11.07V300.78c3.7,2.34,7.06,3.27,7.47,4.93,2.74,11,4.84,22.21,7.26,33.88h9.59l-.3-.26v11.79Z"/><path d="M229.49,339.69v35l12.73,1.06v11.87H218.6v-48l-.27.27h11.43Z"/><path d="M350.59,242.17l.9,11.07,12.06,1v23.26h-12l-.79-9.89-9.62-1.21c-4.29-3.47,4.36-14.49-8.25-12.75V242.42h18Z"/><path d="M145.42,229.68h42.44v24h-6.93l.26.28-.52-11.48H145.42l.26.26V229.4Z"/><path d="M302.4,448.31V436.82H291.19l.26.28V412.54l-.28.26h10.64l1.32,11.25h12.59l-.27-.27.29,24.53Z"/><path d="M132.59,218.44H121.12V180.81h24.55V193.4l-13.08,1.09Z"/><path d="M83.75,315.62q0-6.67,0-13.34h37.64v13.34Z"/><path d="M364.33,218.18V229.4h11.21v12.79H350.6l.29.25c0-7.67,0-15.33,0-24.24Z"/><path d="M266.86,436.86v23.77H254.3l-.67-12-10.21-.78v-10.7h23.72Z"/><path d="M242.6,96.71h11.47v10.78l13.08,1v12.73H242.6Z"/><path d="M266.87,351.13h10.75v23.54H254.09V364l-.28.26h13.34V350.87Z"/><path d="M170,326.84H156.63V303.08H170Z"/><path d="M180.89,205.13v12.57H157.38V205.4h23.78Z"/><path d="M267.13,437.13q0-12.3,0-24.6l-.26.28h11.48l-.26-.26V437.1l.26-.28-11.5,0Z"/><path d="M180.95,267.06h6.41c3.34,16.61,1.81,23.35-6.14,23.58V266.79Z"/><path d="M242.86,83.63V97H229.51V83.63Z"/><path d="M83.75,339.92q0-6.67,0-13.34H96.32v13.34Z"/><path d="M156.89,266.76H145.7V253.69l-.28.26h11.21V267Z"/><path d="M181.21,266.79l-11.5,0,.26.28V254h11.21l-.26-.28q0,6.69,0,13.38Z"/><path d="M145.7,253.69H132.61c0-4.2,0-7.71,0-11.21l-.28.26h13.34l-.26-.26V254Z"/><path d="M121.12,242.74V229.68h11.47l-.26-.28q0,6.67,0,13.34l.28-.26Z"/><path d="M169.71,266.76v10.73H156.89c0-3.56,0-7.15,0-10.73l-.26.28H170Z"/><path d="M375.28,229.66V218.18h13.34v11.47Z"/><path d="M132.59,229.68l-.26-11.49h13.08c0,4.48,0,8,0,11.49l.26-.28H132.33Z"/><path d="M254.09,364H243.35V351.13h10.73l-.28-.26q0,6.67,0,13.34Z"/><path d="M291.19,436.82l.26,11.49H278.36c0-4.48,0-8,0-11.49l-.26.28h13.34Z"/><path d="M339.74,194.13h10.74v10.94H339.8l.27.27q0-5.74-.06-11.48Z"/><path d="M302.42,363.91v10.72h-10.5V364.19h10.77Z"/><path d="M218.26,121.25H229v10.5H218.53c0-3.61,0-7.19,0-10.77Z"/><path d="M194.48,374.87v-10.2h10.36v10.2Z"/><path d="M84,326.84H72.53V315.36H84Z"/><path d="M315.72,424.05V413.33h10.5v10.45H315.45Z"/><path d="M315.48,364h10.86l.61,11.47H316.09Z"/><path d="M181.16,205.4q.16-5.95.33-11.9l-.25.29,12.88.56-4.93,10.78h-8.3Z"/><path d="M218.6,339.68l-13.77-.33.29.25c.19-2.71.39-5.42.58-8l12.63,1.28c0,2.41,0,4.75,0,7.09Z"/><path d="M339.8,205.07c0,2.78.64,5.71-.09,8.28-.62,2.19-2.76,3.95-4.23,5.9L333,217.86l-1.4-12.52h8.45Z"/><path d="M229.76,340v-7h11.77c1,7,1,7-12,6.77Z"/><path d="M243.51,184.71c-2.6,1.23-5.19,3.4-7.8,3.41-2.29,0-4.6-2.39-6.9-3.72l1.19-2.85h11.6Z"/><path d="M424.42,436.47V424.55H436.5v11.92Z"/><path d="M485.8,448.05v13.34H472.46V448.05Z"/><path d="M121.38,181.07H96.83V170.29l-13.08-1V156.51H96.83V145.3H108V132.22h13.34Z"/><path d="M145.7,169.6H133.08v-24h23.82l-.28-.26q0,5.38,0,10.76l-11.21,1.32v12.48Z"/><path d="M156.89,121v11.47H133.13V121Z"/><path d="M72.24,35.67V71.88H35.87V35.67Z"/><path d="M72.26,448.87V485H36.06V448.87Z"/><path d="M485,72.18H448.86V35.65H485Z"/><path d="M253.81,97q0-6.67,0-13.34h12.57V97Z"/><path d="M315.74,83.63q0,6.67,0,13.34H303.17V83.63Z"/><path d="M97.09,180.81v13.34H72.53q0-6.67,0-13.34Z"/><path d="M108.3,242.74H83.75V230.15H108.3Z"/><path d="M107.6,217.81H84.27v-12H107.6Z"/><path d="M278.08,145.56l13.36-.26L291,156.51H278.09l.28.26V145.3Z"/><path class="cls-1" d="M278.36,145.3v11.47H254.59V145.3Z"/><path class="cls-1" d="M291.45,437.1H278.1q0-12.28,0-24.56h13.34Q291.45,424.82,291.45,437.1Z"/><path class="cls-1" d="M278.36,412.8H266.89V400.22h11.48Z"/><path class="cls-1" d="M145.42,169.86V157.37l11.21-1.32q0-5.38,0-10.76h24.05l.66,10.69h12.23l1.06-10.15,10.85-.54v24.56Z"/><path class="cls-1" d="M253.81,364.21q0-6.67,0-13.34h13.34v13.34Z"/><path class="cls-1" d="M170,267H156.63V254H145.42V242.48h35.25l.52,11.48H170Z"/><path class="cls-1" d="M132.33,229.4h13.34q0,6.67,0,13.34H132.33Q132.33,236.07,132.33,229.4Z"/><rect class="cls-1" x="186.71" y="186.6" width="145.67" height="145.67" rx="12" ry="12"/><polygon class="cls-2" points="305.64 262.68 289.42 262.68 287.54 266.35 297.28 266.35 300.76 273.39 279.14 273.39 289.92 251.7 292.72 257.29 302.94 257.29 295.1 241.66 283.88 241.66 266.78 275.91 259.47 261.35 271.23 261.35 281.03 241.66 246.11 241.66 238.08 257.66 227.05 257.66 235.06 241.66 224.1 241.66 206.25 277.19 217.26 277.19 225.2 261.35 236.25 261.35 228.29 277.19 239.28 277.19 255.24 245.35 268.9 245.35 262.49 257.66 251.86 257.66 249.49 262.42 256.81 277.19 312.84 277.19 305.64 262.68"/></g></g></svg>