<?xml version="1.0" encoding="utf-8"?>
<!-- Generator: Adobe Illustrator 21.1.0, SVG Export Plug-In . SVG Version: 6.00 Build 0)  -->
<svg version="1.1" id="图层_1" xmlns="http://www.w3.org/2000/svg" xmlns:xlink="http://www.w3.org/1999/xlink" x="0px" y="0px"
	 viewBox="0 0 365.4 36.9" style="enable-background:new 0 0 365.4 36.9;" xml:space="preserve">
<style type="text/css">
	.st0{fill:#B0B0B0;}
</style>
<title>hitrobot_ziwirobot-ash</title>
<g id="图层_2">
	<g id="图层_1-2">
		<rect x="121.2" y="0.6" class="st0" width="11.2" height="33.2"/>
		<path class="st0" d="M38.4,9.9H0.7V0.8h37.7V9.9z M39.3,24.1H0v9.1h39.3L39.3,24.1z M33.5,13H16.8L0,24.1l8.3,6.3L33.5,13z"/>
		<path class="st0" d="M339.9,32.5h-9.3V0.8h9.3V32.5z M350.2,0.8H341v31.7h9.3L350.2,0.8z M330.6,0.8H315v8.7h15.7L330.6,0.8z
			 M365.4,0.8h-15.1v8.7h15.1L365.4,0.8z"/>
		<path class="st0" d="M52.7,31.9c0.1,0.7-0.5,1.3-1.1,1.4h-8.1c-0.7-0.1-1.2-0.7-1.1-1.4V2.5c-0.1-0.7,0.5-1.3,1.1-1.3h8.1
			c0.7,0.1,1.2,0.7,1.1,1.4L52.7,31.9z"/>
		<path class="st0" d="M80.9,0.9H92c0.4,0,0.8,0.3,0.9,0.6l5.4,20.3c0,0,0.5,0.4,0.8,0l7.1-20.3c0.1-0.5,0.5-0.8,1-0.9H118
			c0.4,0.1,0.7,0.5,0.7,0.9c0,0,0,0.1,0,0.1L107.6,30c-1.5,2.3-4,3.8-6.7,4.1c0,0-5.2,0.8-8.8-2.1c0,0-1.5-1.1-1.7-1.9l-3.7-13.3
			l0,0L80.9,0.9 M80.9,0.9c-0.4,0-0.8,0.3-0.9,0.6l-5.5,20.3c0,0-0.5,0.4-0.8,0L66.6,1.6c-0.1-0.5-0.5-0.8-1-0.9H54.9
			c-0.4,0.1-0.8,0.5-0.7,0.9c0,0,0,0.1,0,0.1L65.3,30c1.5,2.3,4,3.8,6.7,4.1c0,0,5.2,0.8,8.8-2.1c0,0,1.5-1.1,1.7-1.9l3.7-13.2
			c0,0,0.2-0.6,0.4,0L80.9,0.9"/>
		<path class="st0" d="M146.5,33.7h-10.9V21.8h10.9V33.7z M134.8,0.8l0.6,7.8c0.2,0.8,1.1,1.4,1.9,1.3H165c0,0,2.1,1.1-0.1,2.3
			h-29.3v9.7h20c0.4-0.1,0.8,0.1,1.1,0.4l14.2,14.7h12.6c0,0,1-0.3,0.2-1.2l-12.5-14.1c0,0,6.5-0.5,6.5-6.7V7.3c0,0,0.4-5.2-5.5-6.5
			L134.8,0.8z"/>
		<path class="st0" d="M223.9,22.1c0,6.2-5,11.3-11.2,11.4h-22.1c-6.2,0-11.2-5.1-11.2-11.4c0,0,0,0,0,0V11.6
			c-0.1-6.2,5-11.3,11.2-11.4c0,0,0,0,0,0h22.1c6.2,0.1,11.2,5.2,11.2,11.4L223.9,22.1z M212.9,12.4c0-1.4-1-2.5-2.4-2.5
			c0,0,0,0,0,0h-17.4c-1.4,0-2.4,1.2-2.4,2.5c0,0,0,0,0,0v9c0,1.4,1,2.5,2.4,2.5c0,0,0,0,0,0h17.4c1.4,0,2.4-1.2,2.4-2.5
			c0,0,0,0,0,0L212.9,12.4z"/>
		<path class="st0" d="M313.3,21.9c0,6.2-5,11.3-11.2,11.4H280c-6.2,0-11.2-5.1-11.2-11.4c0,0,0,0,0,0V11.4
			c-0.1-6.2,5-11.3,11.2-11.4c0,0,0,0,0,0h22.1c6.2,0.1,11.2,5.2,11.2,11.4L313.3,21.9z M302.3,12.2c0-1.4-1-2.5-2.4-2.5h-17.4
			c-1.4,0-2.4,1.2-2.4,2.5v9c0,1.4,1,2.5,2.4,2.5h17.4c1.4,0,2.4-1.2,2.4-2.5L302.3,12.2z"/>
		<path class="st0" d="M253.7,12.8c0.9-0.2,1.6-1,1.5-1.9c0-0.8-0.6-1.5-1.5-1.5c0,0,0,0-0.1,0h-26.4c-0.7,0-1.3-0.6-1.3-1.3V1.4
			c0,0,0.1-0.7,1.3-0.8h32.3c0,0,5.8,0.9,5.9,5.8v5.9c0,0,0.1,3.1-2.6,3.8c2.6,1,4.3,3.6,4.1,6.4v5.3c0,0,0.4,5.3-4.2,5.5H226V12.7
			L253.7,12.8z M236.8,24.4h18.8c2-1.7,0-2.7,0-2.7h-18.8V24.4z"/>
	</g>
</g>
</svg>
