<svg xmlns="http://www.w3.org/2000/svg" viewBox="0 0 520.17 520"><defs><style>.cls-1{fill:#fff;}.cls-2{fill:#11376b;}</style></defs><title>hitrobot_HRG_vi-html_1</title><g id="图层_2" data-name="图层 2"><g id="图层_1-2" data-name="图层 1"><path class="cls-1" d="M520.17,520H0V0H520.17Zm-171-74.29h13V434.56h11.15v-13h12.6l.64,12.73,10.11.8V458.2l-9.92.91v10.32l10.18,1.2v11.75l-10.12.82v10.38l10.3,1.34.61,11.77h12.37l1.14-12.47h10.51l-.25-.25v12.59h36.82V494.42l-12.47-1.19.58-10.43H483.1v23.85h23.66v-12.2l-12.2-1.12-.51-10.53h12.68v-72l-12-1.06V398l11.93-1V362.44l-11.86-1.07V349.7l11.82-1.13V300.86H494.05l.78-10.85,12-.61V265.9l-12.2-1.18c-.22-4.5-.42-8.48-.61-12.45h12.79V217.52h-12.2l-1.15,10.36-10.53.51V217.62H470V228.3H445.93v13.1H434.59V217.93l11.15-1.45V204h12.58v-11H445.74v-13H421.58V156.7h12.65l.75,11.73h10.44l1.19-12.7h12.33v12.59h10.54v-12.4H458.75q0-12.18,0-24.35l10.86.78.59,12,12.09.88,1.28,10h10.31l.88-10.11,11.91-.74V108H493.9v22.89H483.71l-1.39-10.24L470.67,120l-1.16-12H458.94v23.7H434.59V120.61h-13V108l-11.23-1.52V72.65l-12.22-1.2V48.7L410,47.54V35.2l-12.5-.68V11.37H325.14V24H313.8V11.25H266L264.8,24H252.48V11.36H204.64l-1.21,12.51-9.92-.63-.57-11.75H156.28v12l12.24,1.07L169,35.12H156v13H144.69V11.26h-12.5l-1.13,12.2-10.53.5V11.37H108.14V23.78h12.57V34.57l10.49,1.2,1.07,12.18h12.6l-.75,10.86-12,.6V72.48h23.22V95.59H145.18l-.6-11.88h-12.4l-1.09,12.22-10.55.52V83.85H108.14V96.26h12.57q0,5.67,0,11.34H107.63v12.92l-11.26.09V108h-37v12.6H48.05V108H35.16v12.52H10.83l.48,10.61H35c0-4,0-7.41,0-10.79l13.27.08q0,17.75,0,35.5H35V145.29h-11v10.62H11.46v72.37H24v12.6l-12.65.64v10.65l12.79.88V289.8H35.23l-.25-.25v23.78l-11.08.54v-12.6H11.51v12.41H24.08v10.78l11.15,1.28V338H11.38v23.66l12.2,1.12.5,10.53H11.5v12.82H24.09q0,5.67,0,11.34H11.49v12.39H23.9V397.31H47.7l.68,12.75H58.92L60,397.31H72.41v12.6H95.92V397.5H72.22V373.72H59.63L58.57,386.2,49,385.75V362.62l10-.92L60,349H72.4v13.54h24L96,372.62,84,373.73v12.35h23.75v35.38h12.93l-.7,12.7-11.86.59v23.88h12.57V470h-12.6v12.39h12.41c0-4.62,0-8.6,0-12.58h11.33v13H156v10.76h24.19L179.76,483H155.85V458.82H144.69v-13h-13q0-12.17,0-24.35h13.2v12.6h11V421.56h12.59l.64,12.5h35.08V421.55l12.6.55.66,12.1h47.69V422l-11.92-1.15-1.43-10.61-10.13.49-.86,10H228.31v-23L218,396.81l-1.27-10H204.43c0,12.1,0,23.49,0,34.88H180.85l-1.35-11.08-9.91-.78L168.45,398H156.11c0,8.38,0,16.07,0,23.76l-11.41-.08V397.13H121.36L120,386.27H107.61v-23.5h36.48L145.43,373l10,.87.86,11.87H180V349h12.59L194,338.45l9.75-.88c1-4.74,1.45-7.58-4.37-10.08-4.88-2.1-8-8.2-12.93-13.61H180V302.3c8.36-2.61,10-10.4,6.21-25.59H168.85V265.55h-13V228.21h31.81V203.69H145.23l-.54-10.81h10.75V180.5H144.88v12.57H132.26v23.69l11.86,1.13v23.5H131.68V228.81l-11.22-1.5V204.55H83.91v12.26l11.92,1v9.86l-12.27,1.12V241.4H48.06c0-5.29,0-9.24,0-13.2H71.87V204.52H35.53v12.2l12.2,1.14.51,10.52-24.43.08V193.78l11.23-1.43V179.88l12.7.7.61,12H59l.87-12.75H83.55v12.59H96.37V179.88h23.84V145.07l-12.77-1.22c0-8.21,0-15.86,0-23.51h13.08V107.41H155.3l1.14,13H169q0,12.21.08,24.42l-13.27-.08V132.18h-11v12.58H132.29v23.56h23.55V155.72h13.09V144.66l10.75.64.66,10.17,11.91,1v11.93l-11.73.78v10.48l12,1,1.38,15,14.55-15.49,8.42-.47V169.24L204,168V145l-10-.94V131.25h34.21l.94-10.93h23.42V96.26h12.59V83.44H252.48q0-12.17,0-24.35h24.65V96H290V72.1h24q0,5.67,0,11.33H301.4V96.26H314V120l10.64,1.36.68,9.94h12.39V107.92l-12.23-1.14L325,96.26h13v-13H349.3v13h13l-.75,10.85-12,.61v23.59H361.9l.89-10.12,10.48-1.26V96.26h13v-13l11.49.8v47.52h12.86l-.68,12.53-12.33,1.05v10.76H386.28V132.15H373.73l-1.19,12.67h-23l-1,10.43h-23l-.9-11H301.31L300.65,132H290.1l-1,12.47H276.64l.25.25v-37.4l-11.62.52V131.7H241.91v23.73l9.94,1.16v11.53l-10.3,1.4c-.11,2.15-.16,3.69-.26,5.23s-.24,2.93-.35,4.26c-12.36,1.55-12.36,1.55-11.35,7.82h71.69V169.62h12.14l.88,10.62h23.16l1.09,12.45,9.87.89v10.65H330.46V241c2.81,0,6.13.19,6.16,0,1-7.78,1.66-15.6,2.41-23.79l10.32.47V276h13.21V253.26h10.11v36.54H337.87l.5,10.66,10.94,1v36.42h13v34.87h10.57V338H362.12l.73-13.33h23.7v-11l-.25.25h35.64v23.82h12.92l-.08,11.42h-12.6v12.39h12.41V349h24.35v12.59h10.54v-12.4H458.75V325.31H446.24L445.09,338H434.68V301.2L421.76,300l.47-9.92,12-.8L435.4,277l10.53-.5v23.73h13c0-4.29,0-7.95,0-11.61,0-3.9,0-7.8,0-11.94H445.74V265.37h13v-13h11.07c0-8.6,0-16.42,0-24.24l13.27.08v12.66l11.08,1.21v10.4H482.54v23.73l-12.2.66v12.4l12,1,1.32,10.42h10.61l-.66,12.43-10.33,1.28-.79,9.92-11.92,1.12v12.35l11.8.64v72.1H469.9V396.92H446.39l-1-11H410.2V338.27H397.81L397,348.4l-10,1.21V386l9.8.91V397l-10,.66-.94,12.18-12.23,1.06c0,4.1,0,7.47,0,10.84l-11.33-.16V410.93H349.76v10.45h12.62q0,6.68,0,13.35h-13c0,4.11,0,7.63,0,11.15L338,445.81V397.95l10.89-.86V386.56l-10.88-1c0-4.52,0-8.49,0-12.46H348.7V362.61H338.15v10.72h-13.2V362.71H314v10.62H276.82v13L266,385.59l-.6-12H253l-1.16,12.17-10.59.64V373.34H228.32q0-17.75,0-35.5h13.55c-1.16-11.59-8.35-6.25-13.36-6.91V338H217.76l-1.38,10.67-11.82.61-.88,12.09L193,362.73l.51,10.42h35v13.09h12.92v11.07h35.4v23.86H289.3l1.19-10.35,10.5-.51v24.35H277.25v10.66L289,446.48v11.66l-11.61,1.07v10.43l11.82.88v11.64h-23L265,470.21H253l-1.06,12.24-10.57.52V470H217.16q0-5.67,0-11.34h47.89V446.22h-47.7v12.6l-12.71-.68-.61-12h-10.5l-1.16,12.08H180.66l-.94-11.95H169.49v23.57h47.86l-.67,12.7-12.06.63v23.56h24V482.79h12.87v23.76h10.87l.61-11.86h47.26l1.14,11.8h47.71v-23.7h13.2v23.73h10.56V483H362.12l.68-12.39,10.75-1.46L373,458.82H349.11ZM301,338l-11.42.08v-7.34H265.67V338H253v23.66h23.33V349.52L266,348.35l-.5-10.51,24.25.08v24.33l11.06-.49c0-8.55,0-16.23,0-23.92h23.43V326.31L301,331.89ZM11.59,11.15V95.74H95.86V11.15Zm410.55,0V95.88h84.55V11.11ZM11.31,506.66H96.08V421.95H11.31ZM483.48,169l-1.37,10.51-11.69.67v12.3h36.24V169Zm-304,83.88c.89,12.11.89,12.11,7.65,11.73V241.72H169.39v10.5Zm-35,241.53H132.18v12.19h12.33ZM469.6,386V373.65H459.24V386ZM300.39,120.34V108H290.23v12.33ZM108.1,48.24V58.72h12V48.24ZM362.41,396.93h10.48v-10.2H362.41Z"/><path d="M386.55,313.69v11h-23.7L362.12,338l.19-.19h-13V301.43l-10.94-1-.5-10.66h34.81V253.26H362.56V276H349.35V217.69L339,217.22c-.75,8.19-1.42,16-2.41,23.79,0,.22-3.35,0-6.16,0V204.23H348.4V193.58l-9.87-.89-1.09-12.45H314.28l-.88-10.62H301.27v17.21H229.59c-1-6.27-1-6.27,11.35-7.82.11-1.33.25-2.79.35-4.26s.16-3.08.26-5.23l10.3-1.4V156.59l-9.94-1.16V131.7h23.36V107.86l11.62-.52c0,12.84,0,25.12,0,37.4H266.31v10.69l10.44.46.54,12.33H289V156.14H276.51q.07-5.83.13-11.64h12.41l1-12.47h10.55l.66,12.26h23.35l.9,11h23l1-10.43h23l1.19-12.67h12.55v23.76l.19-.19-13.2.71v12.49l.19-.19L363,169.4v10.19l10.49.48-.19-.19.74,13.34h23.66c0,4.3,0,7.66,0,11H374v12.3l12.85,1.09v34.79l10-.51,1.3-10.51h12.5l-.19-.19.78,11.34h23.56l-.19-.19.67,12.7,10.66.5-.19-.19v11.34l.19-.19-10.53.5-1.13,12.29-12,.8-.47,9.92,12.92,1.18c0,12.35,0,24.55,0,36.75l.19-.19H421.94V313.94H386.29q.07-6.6.14-13.19h10.48V266.26H386.69c0,12,0,23.37,0,34.72H374.12v12.71Zm-13.81-72.87V229.09h-9.9v11.73Zm38.14,35h10.21v-9.64H410.87Z"/><path d="M421.76,494.21H411.25l-1.14,12.47H397.74l-.61-11.77-10.3-1.34V483.2l10.12-.82V470.62l-10.18-1.2V459.11l9.92-.91V435.09l-10.11-.8-.64-12.73h-12.6l.19.19V410.89l12.23-1.06.94-12.18,10-.66V386.87l-9.8-.91V349.62l10-1.21.86-10.14H410.2v47.65h35.19l1,11H469.9v13.59l.19-.19L459.6,411v10.19l10.49.48-.19-.19V434.1l-10.51,1.24v33.82h9.92l1.27-9.85h12.32V483l.19-.19H446.44l-.58,10.43,12.47,1.19v12.14H421.51c0-4.22,0-8.41,0-12.59H435V470.21l10-.93v-9.92H422.38l-1.24,10.05-9.92,1.35V482.2l10.55,1.36ZM411.09,445h33.84V411.14H411.09Z"/><path d="M349.3,83.25H338l.19.19V58.79h23.44V48.68l-12.05-1.14-1-12-10.1-.92-1-10.86H324.95l.19.19V11.37h72.35V34.52l12.5.68V47.54L398.14,48.7V71.45l12.22,1.2v33.86L421.58,108v12.58l.19-.19-10.84.73-.5,10.61.19-.19H397.76V84l-11.49-.8.19.19-.67-10.5h-12l-.49,10.5.19-.19H362.12l.19.19-.67-10.5h-12l-.49,10.5ZM362.72,35l9.79-.59V23.89l-9.79.6Z"/><path d="M144.69,48.13H156l-.19-.19.74,10.67h22.84V35.45l-10.57-.52.19.19-.52-10.56-12.24-1.07v-12h36.66l.57,11.75,9.92.63,1.21-12.51h47.84V24l.19-.19-10.53.73-1.35,9.93H228.69l-.88-9.82H217.17V48.13l.19-.19H193V72.29l.19-.19H168.85v48.5l.19-.19h-12.6l-1.14-13H120.53l.19.19q0-5.67,0-11.34l-.19.19,10.55-.52,1.09-12.22h12.4l.6,11.88h10.19V72.48H132.15V59.4l12-.6.75-10.86Z"/><path d="M48.06,228.2v13.2H83.55l-.19-.19v11.34l.19-.19-11.61.81v23.17l-11.85.82v23H71.62L73,289.47H83.57c0,3.55,0,7.09,0,11.18h13v12.69l-13,1.15c0,3.87,0,7.2,0,10.54H72.81l-1.26-10.71H59.8L59,324.51,48.06,325.7V338l.19-.19H35l.19.19V325.74l-11.15-1.28V313.68l-.19.19L35,313.33c0-8,0-15.91,0-23.78H47.59V277.33H35.23V289.8H24.14V253.05l-12.79-.88V241.52L24,240.88c0-4.27,0-8.44,0-12.6l-.19.19,24.43-.08Z"/><path d="M469.9,410.51h12.43v-72.1l-11.8-.64V325.41l11.92-1.12.79-9.92,10.33-1.28.66-12.43-.19.19h12.59v47.71l-11.82,1.13v11.68l11.86,1.07V397l-11.93,1v11.73l12,1.06v72H494.06l.19.19V446.29l-11.45-1V421.47H469.9l.19.19V410.32Z"/><path d="M11.59,11.15H95.86V95.74H11.59ZM24.35,82.49H82.77V24.73H24.35Z"/><path d="M422.15,11.11h84.55V95.88H422.15Zm13.08,71.6h58.14V24.5H435.22Z"/><path d="M11.31,506.66V421.95H96.08v84.71Zm13-13.45H82.8V435.4H24.33Z"/><path d="M349.11,482.79v23.7H301.4l-1.14-11.8H253l-.61,11.86H241.51V482.79l-.19.19,10.57-.52L253,470.21H265l1.17,11.94h23V470.51l-11.82-.88V459.2L289,458.13V446.48l-11.75-1.15V434.66H301l-.19-.19v24.11H314c0,3.55,0,7.11,0,11.18h11.18V493.4h12.16L338.66,483H349.3Z"/><path d="M252.48,96.26v24.07H229.05l-.94,10.93H193.91v12.81l10,.94v23l12.9,1.25v10.49l-8.42.47-14.55,15.49-1.38-15-12-1V169.14l11.73-.78V156.42l-11.91-1-.66-10.17-10.75-.64.19.19L169,120.42l-.19.19H193c0-9.09,0-16.73,0-24.36l11.39.21-.19-.19V119.7h13.2V96.26l-.19.19H228.5l-.19-.19.67,10.5h12l.49-10.5-.19.19h11.34Z"/><path d="M107.79,386.08H84V373.73L96,372.62l.47-10.09h-24V349l-.19.19H96.36V337.79h23.78l1.28,11.15H156q0,6.2,0,12.39H168.8c0-4.54,0-8.45,0-12.36l11.39.21L180,349v36.72H156.26l-.86-11.87-10-.87-1.34-10.21H107.61c0,7.72,0,15.61,0,23.5Z"/><path d="M252.48,24H264.8L266,11.25h47.8V24l.19-.19-12.66.7-.77,10.71H266.41v13h23l1,11.12H314l-.19-.19q0,6.6,0,13.2l.19-.19H290V96H277.12V59.09H252.47l.19.19q0-17.75,0-35.5Z"/><path d="M24.09,397.5V386.16l-.19.19,10.5-.67v-12l-10.5-.49.19.19-.5-10.53-12.2-1.12V338H35.24l-.19-.19.67,10.5h12l.49-10.5-.19.19H72.22v11.15l.19-.19H60L58.9,361.7l-10,.92v23.13l9.61.44,1.06-12.48H72.22V397.5l.19-.19H60l-1.11,12.75H48.39l-.68-12.75H23.9Z"/><path d="M324.95,373.34h13.2l-.19-.19V385.6l10.88,1v10.53l-10.89.86v47.87l.19-.19-13.24.21V422.2H314.51l-1.14,12.28H300.79l.19.19V410.32l-.19.19h23.45v-13.2H300.79l.19.19-.79-11.34H276.63l.19.19v-13H314l-.19-.19.61,12.33h10.73V373.15Z"/><path d="M83.55,241.4V228.81l12.27-1.12v-9.86l-11.92-1V204.55h36.55v22.76l11.22,1.5V241.4l.19-.19-10.49.67v10.19l10.49.48-.19-.19.24,13.21H120.74v11.18H107.51c0-11.58,0-23.16,0-35.55H83.37Z"/><path d="M144.69,192.89l.54,10.81h42.42v24.52H155.84v37.34l.19-.19-11.36.24c0-4.16,0-8.33,0-13.25h-13l.19.19V241.21l-.19.19h12.43V217.9l-11.86-1.13V193.07h12.62Z"/><path d="M252.47,59.09q0,12.17,0,24.35l.19-.19L241.32,84V96.45l.19-.19h-13.2l.19.19-.61-12.33H217.17V96.45l.19-.19h-13.2l.19.19-.7-13H193l.24-11.36-.19.19,10.86-.76.59-12,12.37-1.07.52-10.57-.19.19h11.68V71.54h12l1.07-12.26h10.76Z"/><path d="M458.94,155.73H446.61l-1.19,12.7H435l-.75-11.73H421.58v23.37l.19-.19H410.2V155.72H397.42l.19.19V145.15l12.33-1.05.68-12.53-.19.19h11.34l-.19-.19.62,12.34h12.58V131.57l-.19.19h24.35l-.19-.19v24.36Z"/><path d="M204.43,421.74V386.85h12.27l1.27,10,10.35.94v23h12.54l.86-10,10.13-.49,1.43,10.61L265.19,422v12.21H217.5l-.66-12.1-12.6-.56Z"/><path d="M96.37,120.6l11.26-.08-.19-.19v23.52l12.77,1.22v34.81H96.37l.19.19-.77-11.34H83.37l.19.19V156.17l12.86-1.08L96,145.28l-12.41-1.12V131.57l-.19.19,12.7-.67.5-10.66Z"/><path d="M458.94,131.75V108h10.58l1.16,12,11.65.68,1.39,10.24H493.9V108h12.77V144.4l-11.91.74-.88,10.11H483.57l-1.28-10-12.09-.88-.59-12-10.86-.78Z"/><path d="M421.58,180.07h24.16v13l.19-.19-10.49.67v10.19l10.49.48-.19-.19v12.44l-11.15,1.45V241.4l.19-.19H410.43l.19.19-.21-13.25h11.36V179.88Z"/><path d="M35.05,179.88v12.46l-11.23,1.43c0,11.5,0,23.09,0,34.68l.18-.19H11.46V155.91H24.09l-.19-.19v23.79l11.34.56Z"/><path d="M494.24,300.67H483.63l-1.32-10.42-12-1v-12.4l12.2-.66V252.46h11.63l-.19-.19.62,12.45,12.2,1.18v23.5l-12,.61-.78,10.85Z"/><path d="M120.72,421.47H107.79c0-11.87,0-23.63,0-35.39l-.18.19H120l1.36,10.87h23.34v24.52l.19-.19h-13.2l.19.19-.67-10.49H121l-.48,10.49Z"/><path d="M241.51,482.79H228.63v23.88h-24V483.11l12.06-.63.67-12.7-.19.19h24.16c0,4.74,0,8.87,0,13Z"/><path d="M156.11,421.74V398h12.34l1.13,11.89,9.91.78,1.35,11.08h23.58l-.19-.18c0,4,0,7.93,0,12.51H169.16l-.64-12.5H155.92Z"/><path d="M35,155.91h13.2l-.19-.19.73,13.2H83.55l-.19-.19q0,5.67,0,11.34l.19-.19H59.89L59,192.63H48.37l-.61-12-12.7-.7.19.19V155.72Z"/><path d="M228.32,337.84v35.5l.19-.19h-35L193,362.73l10.72-1.34.88-12.09,11.82-.61L217.76,338h10.74Z"/><path d="M217.35,469.78H169.49V446.22h10.24l.94,11.95h11.72l1.16-12.08H204l.61,12,12.71.68-.19-.19q0,5.67,0,11.34Z"/><path d="M483.48,169h23.19v23.49H470.42v-12.3l11.69-.67Z"/><path d="M48.25,228.39l-.51-10.52-12.2-1.14v-12.2H71.87V228.2H48.06Z"/><path d="M180,313.87h6.44c4.9,5.41,8.05,11.51,12.93,13.61,5.82,2.51,5.33,5.34,4.37,10.08l-9.75.88L192.59,349H180l.19.19-.75-11.1H168.83q0-6.63,0-13.26h10.87l.52-11.13Z"/><path d="M217.36,458.82v-12.6h47.7v12.41H217.17Z"/><path d="M144.88,47.94h-12.6l-1.07-12.18-10.49-1.2V23.78l-.19.19,10.53-.5,1.13-12.2h12.5c0,12.47,0,24.67,0,36.86Z"/><path d="M59.39,120.61V108h37v12.6l.19-.19-12.7.67-.5,10.66.19-.19H72.77L71.5,120.42H59.21Z"/><path d="M482.9,228.39l10.53-.51,1.15-10.36h12.2v34.76H494l.19.18c0-3.32,0-6.63,0-10.4l-11.08-1.21V228.2Z"/><path d="M168.85,276.7h17.36c3.84,15.19,2.15,23-6.21,25.59v11.57l.19-.19-11.39.21.24-37.37Z"/><path d="M120.72,458.64H108.16V434.76l11.86-.59.7-12.7-.19.19h11.34l-.19-.19q0,12.17,0,24.35l.19-.19-11.34.77v12.43Z"/><path d="M373.27,96.26v23.67l-10.48,1.26-.89,10.12H349.56V107.72l12-.61.75-10.85-.19.19h11.34Z"/><path d="M325,96.26l.51,10.53,12.23,1.14v23.39H325.3l-.68-9.94L314,120V96.26l-.19.19h11.34Z"/><path d="M241.24,386.43l10.6-.64L253,373.61h12.36l.6,12,10.86.76-.19-.19V397.5l.19-.19h-35.4c0-4,0-7.55,0-11.07Z"/><path d="M265.49,337.84l.5,10.51,10.35,1.17v12.17H253V338h12.67Z"/><path d="M155.84,155.72v12.59H132.29V144.76h12.59l-.19-.19.73,10.84,10.61.5Z"/><path d="M301,410.32l-10.5.51-1.19,10.35H276.82V397.31l-.19.19H301l-.19-.19q0,6.6,0,13.2Z"/><path d="M434.78,349.18q0-5.71.08-11.42l-.18.19h10.42l1.15-12.64h12.51v23.87l.19-.19H434.59Z"/><path d="M494.06,482.79l.51,10.53,12.2,1.12v12.2H483.1V482.79l-.19.19h11.34Z"/><path d="M156,482.79H131.87v-13l-.19.19,12.7-.67.5-10.66-.19.19h11.16V483Z"/><path d="M349.11,458.82H373l.56,10.32L362.8,470.6,362.12,483l.19-.19h-13.2l.19.19q0-12.17,0-24.35Z"/><path d="M469.82,228.12v24.24H458.75l.19.19-.77-11.34H445.74l.19.19V228.3H470Z"/><path d="M386.28,155.91h11.34l-.19-.19v24.16H373.27l.19.19V168.73l-.19.19,13.2-.71V155.72Z"/><path d="M48.25,155.91q0-17.75,0-35.5l-.19.19H59.39l-.19-.19v35.31H48.06Z"/><path d="M362.12,338h10.75v34.69H362.31V337.84Z"/><path d="M72.22,397.5h23.7v12.42H72.41q0-6.32,0-12.6Z"/><path d="M445.74,276.71H459c0,4.13,0,8,0,11.94,0,3.66,0,7.32,0,11.61h-13q0-11.84,0-23.73Z"/><path d="M179.47,252.92l-10.08-.69v-10.5h17.73v22.92C180.36,265,180.36,265,179.47,252.92Z"/><path d="M35,120.33v10.8H11.31l-.48-10.61H35.16Z"/><path d="M289.56,338.11,301,338l-.19-.19v23.92l-11.06.49c0-8.48,0-16.4,0-24.33Z"/><path d="M155.85,483h23.91l.47,10.57H156c0-3.62,0-7.19,0-10.76Z"/><path d="M362.12,483h10.75v23.54H362.31c0-7.88,0-15.8,0-23.73Z"/><path d="M301,338v-6.14l23.25-5.58v11.53H300.8Z"/><path d="M265.67,338v-7.26h23.88c0,2.7,0,5,0,7.35l.18-.19-24.25-.08Z"/><path d="M252.48,83.44h12.59V96.26H252.48l.19.19q0-6.6,0-13.2Z"/><path d="M156,48.13v-13h13l-.19-.19v13h-13Z"/><path d="M314,96.26H301.4V83.44H314l-.19-.19v13.2Z"/><path d="M48.24,120.41,35,120.33l.19.18c0-4,0-7.95,0-12.52h12.9q0,6.32,0,12.61Z"/><path d="M24.09,386.16H11.5V373.34H24.09l-.19-.19v13.2Z"/><path d="M338,83.25v13H325l.19.19q0-6.6,0-13.2l-.19.19h13.2Z"/><path d="M144.51,494.44v12.19H132.18V494.44Z"/><path d="M362.3,96.26h-13v-13l-.19.19h13.2l-.19-.19q0,6.6,0,13.2Z"/><path d="M228.32,373.34h12.93c0,4.4,0,8.74,0,13.08l.18-.19H228.51c0-4.45,0-8.77,0-13.09Z"/><path d="M24.08,313.68H11.51V301.27H23.89q0,6.31,0,12.6Z"/><path d="M131.68,445.81h13v13l.19-.19h-13.2l.19.19q0-6.6,0-13.2Z"/><path d="M120.53,107.41v12.92H107.45l.19.18c0-3.88,0-7.76,0-12.92h13.09Z"/><path d="M434.59,349v12.58H422.18V349.18h12.6Z"/><path d="M96.37,179.88v12.59H83.55V179.88l-.19.19h13.2Z"/><path d="M458.75,252.36v13h-13l.19.19q0-6.6,0-13.2l-.19.19h13.2Z"/><path d="M386.27,83.25v13h-13l.19.19q0-6.6,0-13.2l-.19.19h13.2Z"/><path d="M120.72,23.78H108.14V11.37h12.39q0,6.31,0,12.6Z"/><path d="M120.53,469.78v12.58H108.12V470h12.6Z"/><path d="M23.9,397.31v12.58H11.49V397.5h12.6Z"/><path d="M120.72,96.26H108.14V83.85h12.39q0,6.31,0,12.6Z"/><path d="M483.09,228.2l-13.27-.08.19.18c0-3.36,0-6.73,0-10.68H482.9c0,3.61,0,7.19,0,10.76Z"/><path d="M445.74,193.08h12.58v11H445.74l.19.19V192.89Z"/><path d="M144.88,193.07V180.5h10.56v12.38H144.69Z"/><path d="M458.75,155.91h10.73v12.4H458.94q0-6.28,0-12.59Z"/><path d="M458.75,349.18h10.73v12.4H458.94q0-6.28,0-12.59Z"/><path d="M155.84,144.76l13.27.08-.19-.18c0,3.27,0,6.54,0,11.06H155.84l.19.19q0-5.67,0-11.34Z"/><path d="M469.6,386H459.24V373.65H469.6Z"/><path d="M144.88,144.76V132.18h11v12.58l.19-.19H144.69Z"/><path d="M421.58,120.61h13v11.15l.19-.19h-13.2l.19.19q0-5.67,0-11.34Z"/><path d="M362.39,421.39H349.76V410.93H362.2c0,3.51,0,7.07,0,10.65Z"/><path d="M300.39,120.34H290.23V108h10.16Z"/><path d="M144.69,421.66l11.41.08-.19-.18c0,4,0,8,0,12.52h-11q0-6.3,0-12.6Z"/><path d="M362.38,434.75q0-6.68,0-13.36l-.18.19,11.33.16-.19-.18c0,4,0,7.95,0,13H362.19Z"/><path d="M349.38,445.9V434.74h13l-.19-.18c0,3.36,0,6.72,0,11.15h-13Z"/><path d="M338,445.81l11.42.08-.19-.18q0,6.56-.08,13.11l.19-.19-11.36.23.21-13.24Z"/><path d="M108.1,48.24h12V58.72h-12Z"/><path d="M155.84,265.55h13V276.7l.19-.19H156V265.37Z"/><path d="M314,373.34V362.71h11v10.62l.19-.19H313.8Z"/><path d="M24.09,155.91V145.29H35c0,3.59,0,7.11,0,10.62l.19-.19H23.9Z"/><path d="M314,83.44q0-5.67,0-11.33l-.19.19h11.15V83.44l.19-.19H313.8Z"/><path d="M120.72,470V458.64l-.19.19h11.34l-.19-.19q0,5.67,0,11.34l.19-.19H120.53Z"/><path d="M434.59,241.4h11.33l-.19-.19q0,5.67,0,11.34l.19-.19H434.59l.19.19V241.21Z"/><path d="M313.8,24h11.33l-.19-.19V34.41H314V23.78Z"/><path d="M338.15,373.33V362.61H348.7v10.53H338Z"/><path d="M362.41,396.93v-10.2h10.48v10.2Z"/><path d="M228.51,338v-7.1c5,.66,12.2-4.68,13.36,6.91H228.32Z"/><path class="cls-1" d="M373.27,179.88h24.16V155.72H410.2v24.16h11.58v48.27H410.41l.23.27V204H397.4l.27.23v-11H374Z"/><path class="cls-1" d="M410.41,228.15l.21,13.25h-12.5l-1.3,10.51-10,.51V217.63L374,216.54v-12.3h23.69l-.27-.23v24.4h13.25Z"/><path class="cls-1" d="M386.69,301V266.26h10.23v34.49H386.43Z"/><path class="cls-1" d="M434.78,241.21v11.34H411.22l-.78-11.34Z"/><path class="cls-1" d="M386.46,155.72v12.49l-13.2.71V156.44Z"/><path class="cls-1" d="M276.51,156.14H289v12.08H277.28c-.18-4-.36-8.18-.54-12.34Z"/><path class="cls-1" d="M386.55,313.69H374.12V301h12.56l-.25-.24q-.06,6.6-.14,13.19Z"/><path class="cls-1" d="M372.73,240.82h-9.9V229.09h9.9Z"/><path class="cls-1" d="M434.59,252.36h11.34q0,6.6,0,13.2l-10.66-.5Z"/><path class="cls-1" d="M410.87,275.85v-9.64h10.21v9.64Z"/><path class="cls-1" d="M276.64,144.49q-.06,5.82-.13,11.64l.24-.25-10.44-.45V144.74h10.58Z"/><path class="cls-1" d="M373.45,168.73v11.34L363,179.59V169.4Z"/><path class="cls-1" d="M494.25,483H482.91V459.32H470.58l-1.27,9.85h-9.92V435.34l10.51-1.24V421.47h12.9v23.86l11.45,1Z"/><path class="cls-1" d="M411.09,445V411.14h33.84V445Zm23.41-22.93H422.18v12h12.33Z"/><path class="cls-1" d="M421.76,494.21V483.56l-10.55-1.36V470.76l9.92-1.35,1.24-10.05H445v9.92l-10,.93V494H421.51Z"/><path class="cls-1" d="M470.09,410.32v11.34l-10.49-.48V411Z"/><path class="cls-1" d="M314,23.78V34.41h11V23.78h12.43l1,10.86,10.1.92,1,12,12.05,1.14V58.79H338.15V83.44h-13.2V72.29H313.8V59.09h10.74V48.55H314V59.27H290.37l-1-11.12h-23v-13h34.15l.77-10.71Z"/><path class="cls-1" d="M362.3,83.44h-13.2l.49-10.5h12Z"/><path class="cls-1" d="M373.45,83.25q0,6.6,0,13.2H362.12q0-6.6,0-13.2Z"/><path class="cls-1" d="M386.46,83.44h-13.2l.49-10.5h12Z"/><path class="cls-1" d="M362.72,35V24.48l9.79-.6V34.44Z"/><path class="cls-1" d="M421.77,120.42q0,5.67,0,11.34H410.43l.5-10.61Z"/><path class="cls-1" d="M252.66,59.28H241.91l-1.07,12.26h-12V48.13H217.17V24.62h10.65l.88,9.82h12.09l1.35-9.93,10.53-.73Q252.66,41.53,252.66,59.28Z"/><path class="cls-1" d="M193.2,72.1,193,83.46l.27-.23H180.72V96.47h12.51l-.27-.23V120.6H168.85V72.1Z"/><path class="cls-1" d="M217.35,47.94l-.52,10.57-12.37,1.07-.59,12L193,72.29V47.94Z"/><path class="cls-1" d="M155.84,47.94h13v-13l10.57.52V58.61H156.58Z"/><path class="cls-1" d="M156,265.37v11.15h13l-.24,37.37.27-.23H145.28L144,324.34l-11.67,1.06v12.66h23.67l-.24-.24v11.39l.23-.27H121.42l-1.28-11.15H96.36l.23.27V324.81H83.34l.27.23V314.5l13-1.15V300.66l-.27.23h11.39v-24.4l-.23.27h13.23l-.23-.27v23.89h23.87V290l-12.48-1.17V276.49l-.24.24h13.25V265.34l-.23.27Zm-35.58,48.91H108.13v10.16h12.33Z"/><path class="cls-1" d="M83.37,241.21h24.14c0,12.39,0,24,0,35.55l.23-.27H83.34v13.25l.23-.27H73l-1.35,10.63H60.1v-23l11.85-.82V253.17l11.61-.81q0,6.3,0,12.6H95.95V252.55H83.37Z"/><path class="cls-1" d="M72.22,349.18V338H48.06V325.7L59,324.51l.79-10.18H71.55L72.81,325H83.6l-.27-.23v13.25H96.59l-.23-.27c0,3.35,0,6.7,0,11.39Z"/><path class="cls-1" d="M35.23,289.8V277.33H47.59v12.21H35Z"/><path class="cls-1" d="M96.61,300.66h-13c0-4.09,0-7.64,0-11.18l-.23.27h13v11.15Z"/><path class="cls-1" d="M48.25,337.84l-.49,10.5h-12L35,337.84Z"/><path class="cls-1" d="M24.35,82.49V24.73H82.77V82.49ZM72,35.45H35.57V71.77H72Z"/><path class="cls-1" d="M435.22,82.72V24.5h58.14V82.72Zm47.35-10.81V35.45H446.26V71.91Z"/><path class="cls-1" d="M24.33,493.21V435.4H82.8v57.81Zm47.73-47H35.61v36.24H72.06Z"/><path class="cls-1" d="M337.93,458.87l11.36-.23q0,12.17,0,24.35H338.66l-1.31,10.42H325.19V469.77l-.27.23h13.25V458.61Z"/><path class="cls-1" d="M300.79,434.47h12.58l1.14-12.28H324.9c0,7.76,0,15.7,0,23.64l.26-.24H313.77v13.25l.23-.27H300.79Z"/><path class="cls-1" d="M325.19,469.77H314c0-4.08,0-7.63,0-11.18l-.23.27h11.39l-.24-.24V470Z"/><path class="cls-1" d="M204.16,96.26h13.2V119.7h-13.2Z"/><path class="cls-1" d="M228.32,96.26h13.2l-.49,10.5H229Z"/><path class="cls-1" d="M252.66,83.25q0,6.6,0,13.2H241.32V84Z"/><path class="cls-1" d="M217.17,96.45V84.12H227.9l.61,12.33Z"/><path class="cls-1" d="M193,83.46h10.69l.7,13L193,96.24l.27.23V83.22Z"/><path class="cls-1" d="M168.8,349v12.36H156q0-6.2,0-12.39l-.23.27h13.25Z"/><path class="cls-1" d="M168.83,338.08h10.61l.75,11.1L168.8,349l.27.23V337.81Z"/><path class="cls-1" d="M23.9,386.35v-13.2l10.5.49v12Z"/><path class="cls-1" d="M300.79,410.5q0-6.6,0-13.2h23.45v13.2Z"/><path class="cls-1" d="M301,397.5H276.63V386.16h23.56Z"/><path class="cls-1" d="M338.15,445.62l-.21,13.24.24-.26H324.92l.24.24V445.6l-.26.24Z"/><path class="cls-1" d="M313.8,373.15h11.34v12.33H314.41Z"/><path class="cls-1" d="M131.68,252.36h13c0,4.92,0,9.08,0,13.25l.23-.27H131.66l.27.23Z"/><path class="cls-1" d="M131.87,241.21v11.34l-10.49-.48V241.88Z"/><path class="cls-1" d="M120.74,276.76V265.57h11.18l-.27-.23v11.39l.24-.24H120.51Z"/><path class="cls-1" d="M421.58,131.57h13.2v12.34H422.2Z"/><path class="cls-1" d="M48.06,155.72H59.21V120.42H71.5l1.28,11.15H83.55v12.59L96,145.28l.45,9.81-12.86,1.08v12.75H48.79Z"/><path class="cls-1" d="M96.56,180.07H83.37q0-5.67,0-11.34H95.79Z"/><path class="cls-1" d="M83.37,131.75l.5-10.66,12.7-.67-.5,10.66Z"/><path class="cls-1" d="M445.93,192.89v11.34l-10.49-.48V193.56Z"/><path class="cls-1" d="M23.9,155.72H35.24q0,12.17,0,24.35l-11.34-.56Z"/><path class="cls-1" d="M131.87,421.65H120.53l.48-10.49H131.2Z"/><path class="cls-1" d="M168.8,324.82q0,6.63,0,13.26l.24-.26H155.81l.24.24V325h13Z"/><path class="cls-1" d="M168.8,313.89l11.39-.21-.52,11.13H168.8l.27.23V313.66Z"/><path class="cls-1" d="M131.87,458.82H120.53V446.39l11.34-.77Q131.87,452.22,131.87,458.82Z"/><path class="cls-1" d="M313.8,83.25h11.34q0,6.6,0,13.2H313.8Z"/><path class="cls-1" d="M144.69,144.57H156q0,5.67,0,11.34l-10.61-.5Z"/><path class="cls-1" d="M131.68,470q0-5.67,0-11.34h13.2l-.5,10.66Z"/><path class="cls-1" d="M445.74,252.55q0-5.67,0-11.34h12.43l.77,11.34Z"/><path d="M410.65,228.42H397.4V204h13.25Z"/><path d="M434.51,422.06v12H422.18v-12Z"/><path d="M314,59.27V48.55h10.56V59.09H313.8Z"/><path d="M193.22,83.22V96.47H180.72V83.22Z"/><path d="M169.06,313.66V325h-13v13H132.38V325.4L144,324.34l1.23-10.69Z"/><path d="M96.35,300.89V289.74h-13V276.49h24.4v24.4Z"/><path d="M120.51,276.49H131.9v12.37L144.38,290v10.34H120.51Z"/><path d="M96.59,338.06H83.34V324.81H96.59Z"/><path d="M120.45,314.27v10.16H108.13V314.27Z"/><path d="M155.81,337.81h13.25v11.39H155.81Z"/><path d="M131.66,276.73V265.34h13.25v11.39Z"/><path d="M83.37,252.55H95.95V265H83.56q0-6.31,0-12.6Z"/><path d="M72,35.45V71.77H35.57V35.45Z"/><path d="M482.57,71.91H446.26V35.45h36.31Z"/><path d="M72.06,446.18v36.24H35.61V446.18Z"/><path d="M324.92,458.61h13.25V470H324.92Z"/><path d="M325.16,445.6v13.25H313.77V445.6Z"/><rect class="cls-1" x="187.25" y="187.17" width="145.67" height="145.67" rx="12" ry="12"/><polygon class="cls-2" points="306.18 263.26 289.96 263.26 288.08 266.93 297.82 266.93 301.3 273.97 279.68 273.97 290.46 252.28 293.26 257.87 303.49 257.87 295.64 242.24 284.42 242.24 267.32 276.49 260.01 261.92 271.77 261.92 281.57 242.24 246.65 242.24 238.62 258.24 227.59 258.24 235.6 242.24 224.64 242.24 206.79 277.77 217.8 277.77 225.74 261.92 236.79 261.92 228.83 277.77 239.82 277.77 255.78 245.93 269.44 245.93 263.03 258.24 252.4 258.24 250.02 262.99 257.35 277.77 313.38 277.77 306.18 263.26"/></g></g></svg>