<svg xmlns="http://www.w3.org/2000/svg" viewBox="0 0 139.24 326.07"><defs><style>.cls-1{fill:#fff;stroke:#231815;}.cls-1,.cls-3{stroke-width:0.32px;}.cls-2,.cls-3,.cls-5{fill:#231815;}.cls-3{stroke:#fff;}.cls-4{font-size:7.52px;fill:#10386b;font-family:FZHTJW--GB1-0, FZHTJW -GB1-0-GBpc-EUC-H;}.cls-5{font-size:9px;}</style></defs><title>hitrobot_hrg_en_ch-black</title><g id="图层_2" data-name="图层 2"><g id="图层_1-2" data-name="图层 1"><rect class="cls-1" x="0.16" y="0.16" width="138.92" height="299.13"/><rect class="cls-2" x="60.36" y="31.25" width="0.53" height="234.65"/><path class="cls-3" d="M68.63,31.35h6.89V49.84H73.65V48H70.5v2.24H68.63Zm5,14.88V33.15H70.5V46.23ZM86.06,28.31l-.44.7a18,18,0,0,0,7.6,7.93q-.76.91-1.43,1.82a23,23,0,0,1-7.26-8,24.72,24.72,0,0,1-7.36,8.14,18.29,18.29,0,0,0-1.35-1.64,21.28,21.28,0,0,0,7.8-8.95Zm-7.88,14.8h12.3V53.88h-2V52.32H80.16v1.56h-2Zm1-5.23H89.7V39.7H79.19ZM88.5,50.5V44.93H80.16V50.5Z"/><path class="cls-3" d="M67.67,80.21H79.06V62.86H69.15V60.78H91.31v2.08h-10V80.21H92.77v2H67.67Z"/><path class="cls-3" d="M67.28,112.39Q78,107.62,78.85,98.06H67.75V96h11.2q.06-3.5.07-7h2.26q0,3.5-.07,7H92.74v2H81.17Q83,108.45,93.29,111.77a21.27,21.27,0,0,0-2,2.11,18,18,0,0,1-11.07-12.13q-2,7.89-11.35,12.65Q68.37,113.69,67.28,112.39Z"/><path class="cls-3" d="M67.25,135.5a29.17,29.17,0,0,0,4.15-9.36H67.51v-1.77h4.06v-5.13h1.87v5.13h3.64v1.77H73.44v4.32l1-1q2,1.82,3.15,3l-1.41,1.43q-1.6-1.77-2.78-2.94V144.6H71.57V130.66a23.32,23.32,0,0,1-3.46,7.13Q67.7,136.62,67.25,135.5ZM81,122.88v8.61q0,9.31-4.66,13.5-.73-.89-1.53-1.77,4.11-3.62,4.11-11.26V120.91h9.68v19.56c0,.86.3,1.3.91,1.3h.6q.83,0,1.07-1.46.26-2,.36-4.32a21.32,21.32,0,0,0,2,.83Q93.24,139.4,93,141q-.42,2.76-2.65,2.76H89q-2.5,0-2.5-3V122.88Z"/><path class="cls-3" d="M68.16,160.5H78.67a7.77,7.77,0,0,0,.52-2.26l1.87.26a11.66,11.66,0,0,1-.45,2h5.67q-1-.76-2.2-1.48l1.07-1.17a36.66,36.66,0,0,1,3.09,2l-.59.63h4.85v1.72h-10q3,2.94,10.66,2.78-.63,1.06-1.07,2l-1.33-.12v7.94H88.92V173.4H83.35v1.4H81.53v-8h8.29q-7.44-1-9.51-4.55h-.47q-1.46,3.09-9.44,4.55h8.32v8H76.9v-1.4H71.41v1.43H69.59v-7.9l-1.43.26q-.39-.78-1-1.85,8.69-1.12,10.43-3.12H68.16Zm1.4-9.47H78.7v7.57H76.88v-.81H71.39v1.06H69.57Zm7.31,1.61H71.39v3.54h5.49Zm0,15.74H71.41v3.41H76.9ZM81.51,151h9.21v7.67H88.89v-.91H83.33v.81H81.51Zm7.39,1.61H83.33v3.54h5.57Zm0,15.74H83.35v3.41h5.57Z"/><path class="cls-3" d="M67.33,203.32q11.34-6.55,12-23h2.29a49.84,49.84,0,0,1-.55,5.31q3.23,13,12.12,17.11-1.09,1.19-1.92,2.26-7.73-4.37-11-15.46Q77.4,200.27,69,205.3A22,22,0,0,0,67.33,203.32Z"/><path class="cls-3" d="M68.11,227.68H79.32v-1.77h1.82v1.77H92.33v1.66H83.17a26.55,26.55,0,0,0,10.12,4.34c-.47.73-.88,1.37-1.22,1.92a28.42,28.42,0,0,1-10.92-5.81v6.1H79.32v-6.12a31.55,31.55,0,0,1-10.92,5.89q-.54-.81-1.22-1.64a27.59,27.59,0,0,0,10-4.68h-9.1Zm11.52-16.62,1.53-.94a17,17,0,0,1,2,2.65l-1.2.75h10v1.61H82.08V217h8.71v1.51H82.08v1.84h8.71v1.51H82.08v1.9H92v1.61h-19v1H71.23v-9.26a30.24,30.24,0,0,1-2.73,2.81,10.5,10.5,0,0,0-1.25-1.72,27.76,27.76,0,0,0,6.37-7.75l1.79.8q-.73,1.2-1.48,2.29H81.3A27.45,27.45,0,0,0,79.63,211.06ZM73.05,217h7.21v-1.85H73.05Zm0,3.35h7.21V218.5H73.05Zm0,3.41h7.21v-1.9H73.05Z"/><path class="cls-3" d="M68.86,242H91.62v24.27h-2V265H70.84v1.3h-2Zm20.78,1.82H70.84v19.35h18.8Zm-17.53,4.6h9.73v-3.74h1.92v3.74h5v1.77h-5v7.93q0,3.77-3.59,3.77-1.45,0-3-.05c-.1-.6-.24-1.29-.42-2.05a25.62,25.62,0,0,0,3,.21q2.13,0,2.13-2.42v-6.09a28.57,28.57,0,0,1-9.34,8.69,9.53,9.53,0,0,0-1.33-1.74,27,27,0,0,0,9.42-8.24H72.12Z"/><path class="cls-3" d="M52.21,39.76v1.39H39.58V39.76h5.87V32.69H39.58V31.24H52.21v1.45H46.72v7.07Z"/><path class="cls-3" d="M52.21,49.35v1.39H39.58V49.35Z"/><path class="cls-3" d="M52.21,68H51V63.68H39.58V62.23H51V57.93h1.2Z"/><path class="cls-3" d="M39.58,95.61v-2l5.68-4.36V86H39.58V84.5H52.21v5.87q-.19,4-3.41,4.29-3.28,0-3.53-3.79ZM50.95,86H46.53v4.1q.06,3.09,2.33,3.09,2-.06,2.08-3.09Z"/><path class="cls-3" d="M39.4,107.85q.32-5.74,6.25-6,6.44.25,6.76,6.18-.38,5.62-6.63,6Q39.65,113.78,39.4,107.85Zm11.74.06q-.38-4.16-5.37-4.61-4.86.25-5.24,4.48.25,4.42,5.24,4.67Q50.76,112.08,51.14,107.91Z"/><path class="cls-3" d="M39.58,126.47v-5.24H52.21v4.92q-.19,3.79-3.16,4a2.82,2.82,0,0,1-2.78-2.53h-.06a3.21,3.21,0,0,1-3.22,3C40.81,130.57,39.67,129.16,39.58,126.47Zm11.36-.63v-3.28H46.72v3.28c.08,1.72.84,2.67,2.27,2.84Q50.89,128.55,50.95,125.84Zm-5.49.19v-3.47H40.72v3.72q0,3,2.46,3Q45.33,129.06,45.46,126Z"/><path class="cls-3" d="M39.4,143.7q.32-5.75,6.25-6,6.44.25,6.76,6.19-.38,5.62-6.63,6Q39.65,149.63,39.4,143.7Zm11.74.06q-.38-4.17-5.37-4.61-4.86.25-5.24,4.48.25,4.42,5.24,4.67Q50.76,147.92,51.14,143.76Z"/><path class="cls-3" d="M52.21,166.22H51v-4.29H39.58v-1.45H51v-4.3h1.2Z"/><path class="cls-3" d="M46.09,188.56V194H41.48q-2.09-1.58-2.08-5.43.32-5.93,6.31-6.25,6.44.25,6.69,6-.07,4.23-3.72,5.62l-.38-1.58a4.07,4.07,0,0,0,2.84-4.1q-.38-4-5.37-4.42-4.86.32-5.24,4.67A5.06,5.06,0,0,0,42,192.6h2.84v-4Z"/><path class="cls-3" d="M39.58,212.67v-2l5.68-4.35V203H39.58v-1.45H52.21v5.87q-.19,4-3.41,4.29-3.28,0-3.53-3.79ZM50.95,203H46.53v4.1q.06,3.09,2.33,3.09,2-.06,2.08-3.09Z"/><path class="cls-3" d="M39.4,224.91q.32-5.75,6.25-6,6.44.25,6.76,6.19-.38,5.61-6.63,6Q39.65,230.85,39.4,224.91Zm11.74.06q-.38-4.16-5.37-4.61-4.86.25-5.24,4.48.25,4.42,5.24,4.67Q50.76,229.14,51.14,225Z"/><path class="cls-3" d="M52.21,248.33H44.83q-5.49.06-5.43-5.05t5.43-4.92h7.39v1.45H44.89q-4.48-.06-4.36,3.47-.13,3.79,4.36,3.66h7.32Z"/><path class="cls-3" d="M44.7,261.64v-3.91H39.58v-1.39H52.21v5.43Q52,265.62,48.49,266,44.76,265.94,44.7,261.64Zm6.25-.25v-3.66H46v3.66q.06,3,2.59,3.09Q50.88,264.36,50.95,261.39Z"/><text class="cls-4" transform="translate(35.11 323.52) scale(0.95 1)">■<tspan class="cls-5" x="7.52" y="0" xml:space="preserve"> 标准字体反黑稿</tspan></text></g></g></svg>