<?xml version="1.0" encoding="utf-8"?>
<!-- Generator: Adobe Illustrator 21.1.0, SVG Export Plug-In . SVG Version: 6.00 Build 0)  -->
<svg version="1.1" id="图层_1" xmlns="http://www.w3.org/2000/svg" xmlns:xlink="http://www.w3.org/1999/xlink" x="0px" y="0px"
	 viewBox="0 0 212 385.1" style="enable-background:new 0 0 212 385.1;" xml:space="preserve">
<style type="text/css">
	.st0{fill:#9FA0A0;}
	.st1{fill:#10386B;}
	.st2{font-family:'ArialMT';}
	.st3{font-size:7.52px;}
	.st4{fill:#231815;}
	.st5{font-size:8.12px;}
	.st6{font-family:'AdobeSongStd-Light-GBpc-EUC-H';}
	.st7{fill:#D3D3D4;}
	.st8{fill:none;stroke:#231815;stroke-width:0.44;}
	.st9{fill:none;stroke:#231815;stroke-width:0.31;stroke-miterlimit:3.86;}
	.st10{fill:none;stroke:#231815;stroke-width:0.19;}
	.st11{fill:none;stroke:#231815;stroke-width:0.42;stroke-miterlimit:3.86;}
	.st12{fill:#FFFFFF;}
	.st13{font-size:4px;}
	.st14{font-size:6.41px;}
</style>
<title>hitrobot_hrg_English_logo_ash</title>
<g id="图层_2">
	<g id="图层_1-2">
		<path class="st0" d="M99.1,82.5V84H85.2v-1.5h6.5v-7.8h-6.5v-1.6h13.9v1.6H93v7.8H99.1z"/>
		<path class="st0" d="M99.1,93.1v1.5H85.2v-1.5H99.1z"/>
		<path class="st0" d="M99.1,113.6h-1.3v-4.7H85.2v-1.6h12.6v-4.7h1.3V113.6z"/>
		<path class="st0" d="M85.2,144.1v-2.2l6.3-4.8v-3.7h-6.3v-1.6h13.9v6.5c-0.1,3-1.4,4.5-3.8,4.7c-2.4,0-3.7-1.4-3.9-4.2L85.2,144.1
			z M97.8,133.5h-4.9v4.5c0,2.3,0.9,3.4,2.6,3.4c1.5,0,2.3-1.2,2.3-3.4V133.5z"/>
		<path class="st0" d="M85,157.6c0.2-4.2,2.5-6.4,6.9-6.6c4.7,0.2,7.2,2.5,7.4,6.8c-0.3,4.1-2.7,6.3-7.3,6.6
			C87.5,164.2,85.2,162,85,157.6z M97.9,157.7c-0.3-3.1-2.3-4.8-5.9-5.1c-3.6,0.2-5.5,1.8-5.8,4.9c0.2,3.2,2.1,5,5.8,5.1
			C95.7,162.4,97.7,160.7,97.9,157.7L97.9,157.7z"/>
		<path class="st0" d="M85.2,178.1v-5.8h13.9v5.4c-0.1,2.8-1.3,4.3-3.5,4.5c-1.6,0-2.9-1.2-3.1-2.8h-0.1c-0.1,1.9-1.7,3.3-3.5,3.3
			C86.6,182.6,85.3,181.1,85.2,178.1z M97.8,177.4v-3.6h-4.7v3.6c0.1,1.9,0.9,2.9,2.5,3.1C97,180.5,97.7,179.4,97.8,177.4
			L97.8,177.4z M91.7,177.6v-3.8h-5.2v4.1c0,2.2,0.9,3.3,2.7,3.3C90.8,181.1,91.6,179.9,91.7,177.6L91.7,177.6z"/>
		<path class="st0" d="M85,197.1c0.2-4.2,2.5-6.4,6.9-6.6c4.7,0.2,7.2,2.5,7.4,6.8c-0.3,4.1-2.7,6.3-7.3,6.6
			C87.5,203.7,85.2,201.5,85,197.1z M97.9,197.2c-0.3-3.1-2.3-4.8-5.9-5.1c-3.6,0.2-5.5,1.8-5.8,4.9c0.2,3.2,2.1,5,5.8,5.1
			C95.7,201.9,97.7,200.2,97.9,197.2L97.9,197.2z"/>
		<path class="st0" d="M99.1,222h-1.3v-4.7H85.2v-1.6h12.6V211h1.3V222z"/>
		<path class="st0" d="M92.4,246.6v6h-5.1c-1.5-1.2-2.3-3.2-2.3-6c0.2-4.4,2.6-6.7,7-6.9c4.7,0.2,7.2,2.4,7.4,6.6
			c0,3.1-1.4,5.2-4.1,6.2l-0.4-1.7c2-0.6,3.3-2.5,3.1-4.5c-0.3-3-2.3-4.6-5.9-4.9c-3.6,0.2-5.5,1.9-5.8,5.1c0,2.1,0.6,3.6,1.7,4.5
			h3.1v-4.5L92.4,246.6z"/>
		<path class="st0" d="M85.2,273.2V271l6.3-4.8v-3.7h-6.3v-1.6h13.9v6.5c-0.1,3-1.4,4.5-3.8,4.7c-2.4,0-3.7-1.4-3.9-4.2L85.2,273.2z
			 M97.8,262.5h-4.9v4.5c0,2.3,0.9,3.4,2.6,3.4c1.5,0,2.3-1.2,2.3-3.4V262.5z"/>
		<path class="st0" d="M85,286.6c0.2-4.2,2.5-6.4,6.9-6.6c4.7,0.2,7.2,2.5,7.4,6.8c-0.3,4.1-2.7,6.3-7.3,6.6
			C87.5,293.3,85.2,291,85,286.6z M97.9,286.7c-0.3-3.1-2.3-4.8-5.9-5.1c-3.6,0.2-5.5,1.8-5.8,4.9c0.2,3.2,2.1,5,5.8,5.1
			C95.7,291.4,97.7,289.8,97.9,286.7L97.9,286.7z"/>
		<path class="st0" d="M99.1,312.5H91c-4,0-6-1.8-6-5.6s2-5.6,6-5.4h8.1v1.6H91c-3.3,0-4.9,1.2-4.8,3.8c-0.1,2.8,1.5,4.1,4.8,4h8.1
			V312.5z"/>
		<path class="st0" d="M90.9,327.1v-4.3h-5.6v-1.5h13.9v6c-0.1,2.8-1.5,4.4-4.1,4.7C92.3,331.9,90.9,330.3,90.9,327.1z M97.8,326.9
			v-4h-5.5v4c0,2.2,1,3.4,2.8,3.4C96.8,330.2,97.7,329,97.8,326.9L97.8,326.9z"/>
		<text transform="matrix(0.95 0 0 1 61.5 382.83)" class="st1 st2 st3">■</text>
		<text transform="matrix(0.95 0 0 1 78.7739 382.83)" class="st4 st2 st5"> </text>
		<text transform="matrix(0.95 0 0 1 80.4 382.83)" class="st4 st6 st5">标准字体制图</text>
		<rect x="14.7" y="35.3" class="st7" width="23" height="23.3"/>
		<path class="st4" d="M23.6,47.1l-0.9,2.5h-1.2l3.2-8.6H26l3.1,8.6h-1.2L27,47.1H23.6z M26.6,46.1l-1.3-3.8l0,0L24,46.1H26.6z"/>
		<rect x="14.4" y="35.2" class="st8" width="165" height="329.8"/>
		<line class="st9" x1="37.9" y1="35.2" x2="37.9" y2="365"/>
		<line class="st9" x1="61.6" y1="35.2" x2="61.6" y2="365"/>
		<line class="st9" x1="85.1" y1="35.2" x2="85.1" y2="365"/>
		<line class="st9" x1="108.6" y1="35.2" x2="108.6" y2="365"/>
		<line class="st9" x1="132.2" y1="35.2" x2="132.2" y2="365"/>
		<line class="st9" x1="155.8" y1="35.2" x2="155.8" y2="365"/>
		<line class="st9" x1="179.4" y1="341.5" x2="14.2" y2="341.5"/>
		<line class="st9" x1="179.4" y1="317.9" x2="14.2" y2="317.9"/>
		<line class="st9" x1="179.4" y1="294.3" x2="14.2" y2="294.3"/>
		<line class="st9" x1="179.4" y1="270.8" x2="14.2" y2="270.8"/>
		<line class="st9" x1="179.4" y1="247.2" x2="14.2" y2="247.2"/>
		<line class="st9" x1="179.4" y1="223.7" x2="14.2" y2="223.7"/>
		<line class="st9" x1="179.4" y1="200.1" x2="14.2" y2="200.1"/>
		<line class="st9" x1="179.4" y1="176.5" x2="14.2" y2="176.5"/>
		<line class="st9" x1="179.4" y1="153" x2="14.2" y2="153"/>
		<line class="st9" x1="179.4" y1="129.4" x2="14.2" y2="129.4"/>
		<line class="st9" x1="179.4" y1="105.9" x2="14.2" y2="105.9"/>
		<line class="st9" x1="179.4" y1="82.3" x2="14.2" y2="82.3"/>
		<line class="st9" x1="179.4" y1="58.8" x2="14.2" y2="58.8"/>
		<line class="st10" x1="136.9" y1="58.7" x2="136.9" y2="341.4"/>
		<line class="st10" x1="141.6" y1="58.7" x2="141.6" y2="341.4"/>
		<line class="st10" x1="146.4" y1="58.7" x2="146.4" y2="341.4"/>
		<line class="st10" x1="151.1" y1="58.7" x2="151.1" y2="341.4"/>
		<line class="st10" x1="155.8" y1="336.7" x2="132.2" y2="336.7"/>
		<line class="st10" x1="155.8" y1="331.9" x2="132.2" y2="331.9"/>
		<line class="st10" x1="155.8" y1="327.2" x2="132.2" y2="327.2"/>
		<line class="st10" x1="155.8" y1="322.5" x2="132.2" y2="322.5"/>
		<line class="st10" x1="155.8" y1="313.1" x2="132.2" y2="313.1"/>
		<line class="st10" x1="155.8" y1="308.4" x2="132.2" y2="308.4"/>
		<line class="st10" x1="155.8" y1="303.7" x2="132.2" y2="303.7"/>
		<line class="st10" x1="155.8" y1="299" x2="132.2" y2="299"/>
		<line class="st10" x1="155.8" y1="289.5" x2="132.2" y2="289.5"/>
		<line class="st10" x1="155.8" y1="284.9" x2="132.2" y2="284.9"/>
		<line class="st10" x1="155.8" y1="280.2" x2="132.2" y2="280.2"/>
		<line class="st10" x1="155.8" y1="275.4" x2="132.2" y2="275.4"/>
		<line class="st10" x1="155.8" y1="266" x2="132.2" y2="266"/>
		<line class="st10" x1="155.8" y1="261.3" x2="132.2" y2="261.3"/>
		<line class="st10" x1="155.8" y1="256.6" x2="132.2" y2="256.6"/>
		<line class="st10" x1="155.8" y1="251.9" x2="132.2" y2="251.9"/>
		<line class="st10" x1="155.8" y1="242.4" x2="132.2" y2="242.4"/>
		<line class="st10" x1="155.8" y1="237.7" x2="132.2" y2="237.7"/>
		<line class="st10" x1="155.8" y1="233" x2="132.2" y2="233"/>
		<line class="st10" x1="155.8" y1="228.3" x2="132.2" y2="228.3"/>
		<line class="st10" x1="155.8" y1="218.9" x2="132.2" y2="218.9"/>
		<line class="st10" x1="155.8" y1="214.2" x2="132.2" y2="214.2"/>
		<line class="st10" x1="155.8" y1="209.5" x2="132.2" y2="209.5"/>
		<line class="st10" x1="155.8" y1="204.7" x2="132.2" y2="204.7"/>
		<line class="st10" x1="155.8" y1="195.3" x2="132.2" y2="195.3"/>
		<line class="st10" x1="155.8" y1="190.6" x2="132.2" y2="190.6"/>
		<line class="st10" x1="155.8" y1="185.9" x2="132.2" y2="185.9"/>
		<line class="st10" x1="155.8" y1="181.2" x2="132.2" y2="181.2"/>
		<line class="st10" x1="155.8" y1="171.7" x2="132.2" y2="171.7"/>
		<line class="st10" x1="155.8" y1="167.1" x2="132.2" y2="167.1"/>
		<line class="st10" x1="155.8" y1="162.4" x2="132.2" y2="162.4"/>
		<line class="st10" x1="155.8" y1="157.7" x2="132.2" y2="157.7"/>
		<path class="st10" d="M132.2,152.9"/>
		<path class="st10" d="M155.8,152.9"/>
		<line class="st10" x1="155.8" y1="148.2" x2="132.2" y2="148.2"/>
		<line class="st10" x1="155.8" y1="143.5" x2="132.2" y2="143.5"/>
		<line class="st10" x1="155.8" y1="138.8" x2="132.2" y2="138.8"/>
		<line class="st10" x1="155.8" y1="134.1" x2="132.2" y2="134.1"/>
		<line class="st10" x1="155.8" y1="124.7" x2="132.2" y2="124.7"/>
		<line class="st10" x1="155.8" y1="119.9" x2="132.2" y2="119.9"/>
		<line class="st10" x1="155.8" y1="115.2" x2="132.2" y2="115.2"/>
		<line class="st10" x1="155.8" y1="110.5" x2="132.2" y2="110.5"/>
		<line class="st10" x1="155.8" y1="101.1" x2="132.2" y2="101.1"/>
		<line class="st10" x1="155.8" y1="96.4" x2="132.2" y2="96.4"/>
		<line class="st10" x1="155.8" y1="91.7" x2="132.2" y2="91.7"/>
		<line class="st10" x1="155.8" y1="87" x2="132.2" y2="87"/>
		<line class="st10" x1="155.8" y1="77.6" x2="132.2" y2="77.6"/>
		<line class="st10" x1="155.8" y1="72.9" x2="132.2" y2="72.9"/>
		<line class="st10" x1="155.8" y1="68.2" x2="132.2" y2="68.2"/>
		<line class="st10" x1="155.8" y1="63.4" x2="132.2" y2="63.4"/>
		<line class="st10" x1="113.3" y1="58.7" x2="113.3" y2="341.4"/>
		<line class="st10" x1="118" y1="58.7" x2="118" y2="341.4"/>
		<line class="st10" x1="122.8" y1="58.7" x2="122.8" y2="341.4"/>
		<line class="st10" x1="127.5" y1="58.7" x2="127.5" y2="341.4"/>
		<line class="st10" x1="132.2" y1="336.7" x2="108.6" y2="336.7"/>
		<line class="st10" x1="132.2" y1="331.9" x2="108.6" y2="331.9"/>
		<line class="st10" x1="132.2" y1="327.2" x2="108.6" y2="327.2"/>
		<line class="st10" x1="132.2" y1="322.5" x2="108.6" y2="322.5"/>
		<line class="st10" x1="132.2" y1="313.1" x2="108.6" y2="313.1"/>
		<line class="st10" x1="132.2" y1="308.4" x2="108.6" y2="308.4"/>
		<line class="st10" x1="132.2" y1="303.7" x2="108.6" y2="303.7"/>
		<line class="st10" x1="132.2" y1="299" x2="108.6" y2="299"/>
		<line class="st10" x1="132.2" y1="289.5" x2="108.6" y2="289.5"/>
		<line class="st10" x1="132.2" y1="284.9" x2="108.6" y2="284.9"/>
		<line class="st10" x1="132.2" y1="280.2" x2="108.6" y2="280.2"/>
		<line class="st10" x1="132.2" y1="275.4" x2="108.6" y2="275.4"/>
		<line class="st10" x1="132.2" y1="266" x2="108.6" y2="266"/>
		<line class="st10" x1="132.2" y1="261.3" x2="108.6" y2="261.3"/>
		<line class="st10" x1="132.2" y1="256.6" x2="108.6" y2="256.6"/>
		<line class="st10" x1="132.2" y1="251.9" x2="108.6" y2="251.9"/>
		<line class="st10" x1="132.2" y1="242.4" x2="108.6" y2="242.4"/>
		<line class="st10" x1="132.2" y1="237.7" x2="108.6" y2="237.7"/>
		<line class="st10" x1="132.2" y1="233" x2="108.6" y2="233"/>
		<line class="st10" x1="132.2" y1="228.3" x2="108.6" y2="228.3"/>
		<line class="st10" x1="132.2" y1="218.9" x2="108.6" y2="218.9"/>
		<line class="st10" x1="132.2" y1="214.2" x2="108.6" y2="214.2"/>
		<line class="st10" x1="132.2" y1="209.5" x2="108.6" y2="209.5"/>
		<line class="st10" x1="132.2" y1="204.7" x2="108.6" y2="204.7"/>
		<line class="st10" x1="132.2" y1="195.3" x2="108.6" y2="195.3"/>
		<line class="st10" x1="132.2" y1="190.6" x2="108.6" y2="190.6"/>
		<line class="st10" x1="132.2" y1="185.9" x2="108.6" y2="185.9"/>
		<line class="st10" x1="132.2" y1="181.2" x2="108.6" y2="181.2"/>
		<line class="st10" x1="132.2" y1="171.7" x2="108.6" y2="171.7"/>
		<line class="st10" x1="132.2" y1="167.1" x2="108.6" y2="167.1"/>
		<line class="st10" x1="132.2" y1="162.4" x2="108.6" y2="162.4"/>
		<line class="st10" x1="132.2" y1="157.7" x2="108.6" y2="157.7"/>
		<line class="st10" x1="132.2" y1="148.2" x2="108.6" y2="148.2"/>
		<line class="st10" x1="132.2" y1="143.5" x2="108.6" y2="143.5"/>
		<line class="st10" x1="132.2" y1="138.8" x2="108.6" y2="138.8"/>
		<line class="st10" x1="132.2" y1="134.1" x2="108.6" y2="134.1"/>
		<line class="st10" x1="132.2" y1="124.7" x2="108.6" y2="124.7"/>
		<line class="st10" x1="132.2" y1="119.9" x2="108.6" y2="119.9"/>
		<line class="st10" x1="132.2" y1="115.2" x2="108.6" y2="115.2"/>
		<line class="st10" x1="132.2" y1="110.5" x2="108.6" y2="110.5"/>
		<line class="st10" x1="132.2" y1="101.1" x2="108.6" y2="101.1"/>
		<line class="st10" x1="132.2" y1="96.4" x2="108.6" y2="96.4"/>
		<line class="st10" x1="132.2" y1="91.7" x2="108.6" y2="91.7"/>
		<line class="st10" x1="132.2" y1="87" x2="108.6" y2="87"/>
		<line class="st10" x1="132.2" y1="77.6" x2="108.6" y2="77.6"/>
		<line class="st10" x1="132.2" y1="72.9" x2="108.6" y2="72.9"/>
		<line class="st10" x1="132.2" y1="68.2" x2="108.6" y2="68.2"/>
		<line class="st10" x1="132.2" y1="63.4" x2="108.6" y2="63.4"/>
		<line class="st10" x1="89.8" y1="58.7" x2="89.8" y2="341.4"/>
		<line class="st10" x1="94.5" y1="58.7" x2="94.5" y2="341.4"/>
		<line class="st10" x1="99.2" y1="58.7" x2="99.2" y2="341.4"/>
		<line class="st10" x1="104" y1="58.7" x2="104" y2="341.4"/>
		<line class="st10" x1="108.7" y1="336.7" x2="85" y2="336.7"/>
		<line class="st10" x1="108.7" y1="331.9" x2="85" y2="331.9"/>
		<line class="st10" x1="108.7" y1="327.2" x2="85" y2="327.2"/>
		<line class="st10" x1="108.7" y1="322.5" x2="85" y2="322.5"/>
		<line class="st10" x1="108.7" y1="313.1" x2="85" y2="313.1"/>
		<line class="st10" x1="108.7" y1="308.4" x2="85" y2="308.4"/>
		<line class="st10" x1="108.7" y1="303.7" x2="85" y2="303.7"/>
		<line class="st10" x1="108.7" y1="299" x2="85" y2="299"/>
		<line class="st10" x1="108.7" y1="289.5" x2="85" y2="289.5"/>
		<line class="st10" x1="108.7" y1="284.9" x2="85" y2="284.9"/>
		<line class="st10" x1="108.7" y1="280.2" x2="85" y2="280.2"/>
		<line class="st10" x1="108.7" y1="275.4" x2="85" y2="275.4"/>
		<line class="st10" x1="108.7" y1="266" x2="85" y2="266"/>
		<line class="st10" x1="108.7" y1="261.3" x2="85" y2="261.3"/>
		<line class="st10" x1="108.7" y1="256.6" x2="85" y2="256.6"/>
		<line class="st10" x1="108.7" y1="251.9" x2="85" y2="251.9"/>
		<line class="st10" x1="108.7" y1="242.4" x2="85" y2="242.4"/>
		<line class="st10" x1="108.7" y1="237.7" x2="85" y2="237.7"/>
		<line class="st10" x1="108.7" y1="233" x2="85" y2="233"/>
		<line class="st10" x1="108.7" y1="228.3" x2="85" y2="228.3"/>
		<line class="st10" x1="108.7" y1="218.9" x2="85" y2="218.9"/>
		<line class="st10" x1="108.7" y1="214.2" x2="85" y2="214.2"/>
		<line class="st10" x1="108.7" y1="209.5" x2="85" y2="209.5"/>
		<line class="st10" x1="108.7" y1="204.7" x2="85" y2="204.7"/>
		<line class="st10" x1="108.7" y1="195.3" x2="85" y2="195.3"/>
		<line class="st10" x1="108.7" y1="190.6" x2="85" y2="190.6"/>
		<line class="st10" x1="108.7" y1="185.9" x2="85" y2="185.9"/>
		<line class="st10" x1="108.7" y1="181.2" x2="85" y2="181.2"/>
		<line class="st10" x1="108.7" y1="171.7" x2="85" y2="171.7"/>
		<line class="st10" x1="108.7" y1="167.1" x2="85" y2="167.1"/>
		<line class="st10" x1="108.7" y1="162.4" x2="85" y2="162.4"/>
		<line class="st10" x1="108.7" y1="157.7" x2="85" y2="157.7"/>
		<line class="st10" x1="108.7" y1="148.2" x2="85" y2="148.2"/>
		<line class="st10" x1="108.7" y1="143.5" x2="85" y2="143.5"/>
		<line class="st10" x1="108.7" y1="138.8" x2="85" y2="138.8"/>
		<line class="st10" x1="108.7" y1="134.1" x2="85" y2="134.1"/>
		<line class="st10" x1="108.7" y1="124.7" x2="85" y2="124.7"/>
		<line class="st10" x1="108.7" y1="119.9" x2="85" y2="119.9"/>
		<line class="st10" x1="108.7" y1="115.2" x2="85" y2="115.2"/>
		<line class="st10" x1="108.7" y1="110.5" x2="85" y2="110.5"/>
		<line class="st10" x1="108.7" y1="101.1" x2="85" y2="101.1"/>
		<line class="st10" x1="108.7" y1="96.4" x2="85" y2="96.4"/>
		<line class="st10" x1="108.7" y1="91.7" x2="85" y2="91.7"/>
		<line class="st10" x1="108.7" y1="87" x2="85" y2="87"/>
		<line class="st10" x1="108.7" y1="77.6" x2="85" y2="77.6"/>
		<line class="st10" x1="108.7" y1="72.9" x2="85" y2="72.9"/>
		<line class="st10" x1="108.7" y1="68.2" x2="85" y2="68.2"/>
		<line class="st10" x1="108.7" y1="63.4" x2="85" y2="63.4"/>
		<line class="st10" x1="66.3" y1="58.7" x2="66.3" y2="341.4"/>
		<line class="st10" x1="71" y1="58.7" x2="71" y2="341.4"/>
		<line class="st10" x1="75.7" y1="58.7" x2="75.7" y2="341.4"/>
		<line class="st10" x1="80.4" y1="58.7" x2="80.4" y2="341.4"/>
		<line class="st10" x1="85.2" y1="336.7" x2="61.5" y2="336.7"/>
		<line class="st10" x1="85.2" y1="331.9" x2="61.5" y2="331.9"/>
		<line class="st10" x1="85.2" y1="327.2" x2="61.5" y2="327.2"/>
		<line class="st10" x1="85.2" y1="322.5" x2="61.5" y2="322.5"/>
		<line class="st10" x1="85.2" y1="313.1" x2="61.5" y2="313.1"/>
		<line class="st10" x1="85.2" y1="308.4" x2="61.5" y2="308.4"/>
		<line class="st10" x1="85.2" y1="303.7" x2="61.5" y2="303.7"/>
		<line class="st10" x1="85.2" y1="299" x2="61.5" y2="299"/>
		<line class="st10" x1="85.2" y1="289.5" x2="61.5" y2="289.5"/>
		<line class="st10" x1="85.2" y1="284.9" x2="61.5" y2="284.9"/>
		<line class="st10" x1="85.2" y1="280.2" x2="61.5" y2="280.2"/>
		<line class="st10" x1="85.2" y1="275.4" x2="61.5" y2="275.4"/>
		<line class="st10" x1="85.2" y1="266" x2="61.5" y2="266"/>
		<line class="st10" x1="85.2" y1="261.3" x2="61.5" y2="261.3"/>
		<line class="st10" x1="85.2" y1="256.6" x2="61.5" y2="256.6"/>
		<line class="st10" x1="85.2" y1="251.9" x2="61.5" y2="251.9"/>
		<line class="st10" x1="85.2" y1="242.4" x2="61.5" y2="242.4"/>
		<line class="st10" x1="85.2" y1="237.7" x2="61.5" y2="237.7"/>
		<line class="st10" x1="85.2" y1="233" x2="61.5" y2="233"/>
		<line class="st10" x1="85.2" y1="228.3" x2="61.5" y2="228.3"/>
		<line class="st10" x1="85.2" y1="218.9" x2="61.5" y2="218.9"/>
		<line class="st10" x1="85.2" y1="214.2" x2="61.5" y2="214.2"/>
		<line class="st10" x1="85.2" y1="209.5" x2="61.5" y2="209.5"/>
		<line class="st10" x1="85.2" y1="204.7" x2="61.5" y2="204.7"/>
		<line class="st10" x1="85.2" y1="195.3" x2="61.5" y2="195.3"/>
		<line class="st10" x1="85.2" y1="190.6" x2="61.5" y2="190.6"/>
		<line class="st10" x1="85.2" y1="185.9" x2="61.5" y2="185.9"/>
		<line class="st10" x1="85.2" y1="181.2" x2="61.5" y2="181.2"/>
		<line class="st10" x1="85.2" y1="171.7" x2="61.5" y2="171.7"/>
		<line class="st10" x1="85.2" y1="167.1" x2="61.5" y2="167.1"/>
		<line class="st10" x1="85.2" y1="162.4" x2="61.5" y2="162.4"/>
		<line class="st10" x1="85.2" y1="157.7" x2="61.5" y2="157.7"/>
		<line class="st10" x1="85.2" y1="148.2" x2="61.5" y2="148.2"/>
		<line class="st10" x1="85.2" y1="143.5" x2="61.5" y2="143.5"/>
		<line class="st10" x1="85.2" y1="138.8" x2="61.5" y2="138.8"/>
		<line class="st10" x1="85.2" y1="134.1" x2="61.5" y2="134.1"/>
		<line class="st10" x1="85.2" y1="124.7" x2="61.5" y2="124.7"/>
		<line class="st10" x1="85.2" y1="119.9" x2="61.5" y2="119.9"/>
		<line class="st10" x1="85.2" y1="115.2" x2="61.5" y2="115.2"/>
		<line class="st10" x1="85.2" y1="110.5" x2="61.5" y2="110.5"/>
		<line class="st10" x1="85.2" y1="101.1" x2="61.5" y2="101.1"/>
		<line class="st10" x1="85.2" y1="96.4" x2="61.5" y2="96.4"/>
		<line class="st10" x1="85.2" y1="91.7" x2="61.5" y2="91.7"/>
		<line class="st10" x1="85.2" y1="87" x2="61.5" y2="87"/>
		<line class="st10" x1="85.2" y1="77.6" x2="61.5" y2="77.6"/>
		<line class="st10" x1="85.2" y1="72.9" x2="61.5" y2="72.9"/>
		<line class="st10" x1="85.2" y1="68.2" x2="61.5" y2="68.2"/>
		<line class="st10" x1="85.2" y1="63.4" x2="61.5" y2="63.4"/>
		<line class="st10" x1="42.7" y1="58.7" x2="42.7" y2="341.4"/>
		<line class="st10" x1="47.4" y1="58.7" x2="47.4" y2="341.4"/>
		<line class="st10" x1="52.2" y1="58.7" x2="52.2" y2="341.4"/>
		<line class="st10" x1="56.9" y1="58.7" x2="56.9" y2="341.4"/>
		<line class="st10" x1="61.6" y1="336.7" x2="38" y2="336.7"/>
		<line class="st10" x1="61.6" y1="331.9" x2="38" y2="331.9"/>
		<line class="st10" x1="61.6" y1="327.2" x2="38" y2="327.2"/>
		<line class="st10" x1="61.6" y1="322.5" x2="38" y2="322.5"/>
		<line class="st10" x1="61.6" y1="313.1" x2="38" y2="313.1"/>
		<line class="st10" x1="61.6" y1="308.4" x2="38" y2="308.4"/>
		<line class="st10" x1="61.6" y1="303.7" x2="38" y2="303.7"/>
		<line class="st10" x1="61.6" y1="299" x2="38" y2="299"/>
		<line class="st10" x1="61.6" y1="289.5" x2="38" y2="289.5"/>
		<line class="st10" x1="61.6" y1="284.9" x2="38" y2="284.9"/>
		<line class="st10" x1="61.6" y1="280.2" x2="38" y2="280.2"/>
		<line class="st10" x1="61.6" y1="275.4" x2="38" y2="275.4"/>
		<line class="st10" x1="61.6" y1="266" x2="38" y2="266"/>
		<line class="st10" x1="61.6" y1="261.3" x2="38" y2="261.3"/>
		<line class="st10" x1="61.6" y1="256.6" x2="38" y2="256.6"/>
		<line class="st10" x1="61.6" y1="251.9" x2="38" y2="251.9"/>
		<line class="st10" x1="61.6" y1="242.4" x2="38" y2="242.4"/>
		<line class="st10" x1="61.6" y1="237.7" x2="38" y2="237.7"/>
		<line class="st10" x1="61.6" y1="233" x2="38" y2="233"/>
		<line class="st10" x1="61.6" y1="228.3" x2="38" y2="228.3"/>
		<line class="st10" x1="61.6" y1="218.9" x2="38" y2="218.9"/>
		<line class="st10" x1="61.6" y1="214.2" x2="38" y2="214.2"/>
		<line class="st10" x1="61.6" y1="209.5" x2="38" y2="209.5"/>
		<line class="st10" x1="61.6" y1="204.7" x2="38" y2="204.7"/>
		<line class="st10" x1="61.6" y1="195.3" x2="38" y2="195.3"/>
		<line class="st10" x1="61.6" y1="190.6" x2="38" y2="190.6"/>
		<line class="st10" x1="61.6" y1="185.9" x2="38" y2="185.9"/>
		<line class="st10" x1="61.6" y1="181.2" x2="38" y2="181.2"/>
		<line class="st10" x1="61.6" y1="171.7" x2="38" y2="171.7"/>
		<line class="st10" x1="61.6" y1="167.1" x2="38" y2="167.1"/>
		<line class="st10" x1="61.6" y1="162.4" x2="38" y2="162.4"/>
		<line class="st10" x1="61.6" y1="157.7" x2="38" y2="157.7"/>
		<line class="st10" x1="61.6" y1="148.2" x2="38" y2="148.2"/>
		<line class="st10" x1="61.6" y1="143.5" x2="38" y2="143.5"/>
		<line class="st10" x1="61.6" y1="138.8" x2="38" y2="138.8"/>
		<line class="st10" x1="61.6" y1="134.1" x2="38" y2="134.1"/>
		<line class="st10" x1="61.6" y1="124.7" x2="38" y2="124.7"/>
		<line class="st10" x1="61.6" y1="119.9" x2="38" y2="119.9"/>
		<line class="st10" x1="61.6" y1="115.2" x2="38" y2="115.2"/>
		<line class="st10" x1="61.6" y1="110.5" x2="38" y2="110.5"/>
		<line class="st10" x1="61.6" y1="101.1" x2="38" y2="101.1"/>
		<line class="st10" x1="61.6" y1="96.4" x2="38" y2="96.4"/>
		<line class="st10" x1="61.6" y1="91.7" x2="38" y2="91.7"/>
		<line class="st10" x1="61.6" y1="87" x2="38" y2="87"/>
		<line class="st10" x1="61.6" y1="77.6" x2="38" y2="77.6"/>
		<line class="st10" x1="61.6" y1="72.9" x2="38" y2="72.9"/>
		<line class="st10" x1="61.6" y1="68.2" x2="38" y2="68.2"/>
		<line class="st10" x1="61.6" y1="63.4" x2="38" y2="63.4"/>
		<line class="st11" x1="99.2" y1="25.8" x2="85.3" y2="25.8"/>
		<line class="st11" x1="99.1" y1="35.1" x2="99.1" y2="15.9"/>
		<line class="st11" x1="85.2" y1="35.4" x2="85.2" y2="16.3"/>
		<line class="st11" x1="203.6" y1="72.9" x2="203.6" y2="331.4"/>
		<line class="st11" x1="212" y1="332.4" x2="181" y2="332.4"/>
		<line class="st11" x1="212" y1="72.9" x2="181" y2="72.9"/>
		<rect x="194.3" y="175.6" class="st12" width="17.3" height="58.9"/>
		<text transform="matrix(6.123234e-17 1 -1 6.123234e-17 202 190.65)" class="st4 st2 st13">10.5A</text>
		<text transform="matrix(6.123234e-17 1 -1 6.123234e-17 2.0801 67.09)" class="st4 st2 st14">0</text>
		<text transform="matrix(6.123234e-17 1 -1 6.123234e-17 2.0801 185.29)" class="st4 st2 st14">5</text>
		<text transform="matrix(6.123234e-17 1 -1 6.123234e-17 2.0801 300.89)" class="st4 st2 st14">10</text>
		<text transform="matrix(1 0 0 1 82.04 13.5)" class="st4 st2 st13">0.3A</text>
	</g>
</g>
</svg>
