<svg xmlns="http://www.w3.org/2000/svg" viewBox="0 0 455.18 123.18"><defs><style>.cls-1{fill:#231815;}.cls-2{fill:#fff;}</style></defs><title>hitrobot_sign_black_left_right</title><g id="图层_2" data-name="图层 2"><g id="图层_1-2" data-name="图层 1"><rect class="cls-1" width="455.18" height="123.18"/><path class="cls-2" d="M65.22,70.25A16.17,16.17,0,0,0,63,74.76a30.17,30.17,0,0,0,10.68,12A40.91,40.91,0,0,1,65.22,70.25Z"/><path class="cls-2" d="M79.7,89.76l-.25-.09Z"/><path class="cls-2" d="M119.8,59.75l0-.32h-.31c-4-.16-8.13-.25-12.4-.27h-.24a226.61,226.61,0,0,0-23.38,1v-3c2.52-1.24,11.77-3.54,23.21-3.6h.59a89.53,89.53,0,0,1,11.24.77l.52.07-.13-.51a29.84,29.84,0,0,0-1.43-4.15l-.08-.18-.19,0a73.35,73.35,0,0,0-9.94-.72h-.58c-11.1.06-20.22,2.55-23.21,5V51.18c2.25-4.55,12-7.88,23.3-7.92h.39a55.85,55.85,0,0,1,6,.34l.84.09-.53-.66a29.56,29.56,0,0,0-3.92-4.1l-.09-.08h-.12c-.63,0-1.27,0-1.91,0h-.74c-10.13,0-19.73,3.66-23.21,8.59V45c1.23-5.29,7.36-9.55,16-11.14l1.34-.24-1.29-.43a30,30,0,0,0-38,37.8,13.45,13.45,0,0,1,3-3.71,56.37,56.37,0,0,1-1.19-11.55,43.39,43.39,0,0,1,1.55-9.94,48.73,48.73,0,0,0-1,9.94,38.87,38.87,0,0,0,1.6,10.76,42.18,42.18,0,0,1,17.66-7.9S72.21,61.67,66.21,68.93A53.31,53.31,0,0,0,79.82,89.8a30,30,0,0,0,19.6.2l1.29-.43-1.34-.25c-8.73-1.62-14.68-5.78-15.93-11.13V75.83c3.47,4.93,13.07,8.54,23.2,8.58h.6c.64,0,1.32,0,2-.05h.12l.09-.08a30.27,30.27,0,0,0,3.93-4.1l.52-.66-.84.09a56.52,56.52,0,0,1-5.94.34h-.39c-11.29,0-21.06-3.37-23.31-7.92V69.33c3,2.49,12.12,5,23.22,5h.57a71.83,71.83,0,0,0,9.92-.72l.2,0,.08-.18a29.83,29.83,0,0,0,1.43-4.15l.13-.51-.52.07a88.83,88.83,0,0,1-11.23.77h-.59C95.21,69.56,86,67.27,83.45,66V63a225.45,225.45,0,0,0,23.38,1h.24c4.3,0,8.47-.1,12.4-.27h.32l0-.32c0-.64.06-1.27.06-1.87S119.84,60.37,119.8,59.75Z"/><path class="cls-2" d="M138.39,71.33V50.79h14.85v2.43H141.11V59.5h11.36v2.41H141.11v7h12.61v2.42Z"/><path class="cls-2" d="M163.34,71.33l-8-20.54h2.94l5.34,14.92c.43,1.2.79,2.32,1.08,3.36q.48-1.68,1.11-3.36l5.55-14.92h2.77l-8,20.54Z"/><path class="cls-2" d="M176.67,71.33V50.79h14.85v2.43H179.38V59.5h11.36v2.41H179.38v7H192v2.42Z"/><path class="cls-2" d="M195.79,71.33V50.79h9.11a12.11,12.11,0,0,1,4.17.55,4.56,4.56,0,0,1,2.28,2,5.82,5.82,0,0,1,.86,3.1,5.17,5.17,0,0,1-1.42,3.68A7.17,7.17,0,0,1,206.42,62a7.12,7.12,0,0,1,1.64,1,14.21,14.21,0,0,1,2.25,2.73l3.57,5.59h-3.42l-2.72-4.27q-1.19-1.85-2-2.83a6.2,6.2,0,0,0-1.38-1.37,4.16,4.16,0,0,0-1.24-.55,8.29,8.29,0,0,0-1.51-.1h-3.15v9.12Zm2.72-11.47h5.84a8.73,8.73,0,0,0,2.91-.39,3.08,3.08,0,0,0,1.6-1.23,3.33,3.33,0,0,0,.55-1.84,3.06,3.06,0,0,0-1.06-2.4,5,5,0,0,0-3.34-.94h-6.5Z"/><path class="cls-2" d="M222.26,71.33v-8.7l-7.92-11.84h3.31l4,6.19q1.12,1.74,2.09,3.47.92-1.61,2.24-3.63l4-6h3.17L225,62.63v8.7Z"/><path class="cls-2" d="M235.5,71.33V50.79h7.71a9.53,9.53,0,0,1,3.78.63,4.84,4.84,0,0,1,2.23,1.92A5.06,5.06,0,0,1,250,56a4.66,4.66,0,0,1-.71,2.48,5.09,5.09,0,0,1-2.16,1.88A5.36,5.36,0,0,1,250,62.26a5,5,0,0,1,1,3.11,6,6,0,0,1-.61,2.68A5.18,5.18,0,0,1,248.89,70a6.25,6.25,0,0,1-2.25,1,13.58,13.58,0,0,1-3.31.34Zm2.72-11.91h4.44a9.92,9.92,0,0,0,2.59-.24,2.89,2.89,0,0,0,1.56-1,3,3,0,0,0,.52-1.79,3.3,3.3,0,0,0-.49-1.8,2.48,2.48,0,0,0-1.4-1.07,11.81,11.81,0,0,0-3.12-.29h-4.1Zm0,9.48h5.11a11.87,11.87,0,0,0,1.85-.1,4.42,4.42,0,0,0,1.57-.56,3,3,0,0,0,1-1.14,3.56,3.56,0,0,0,.41-1.73,3.4,3.4,0,0,0-.59-2A3.09,3.09,0,0,0,246,62.19a10.14,10.14,0,0,0-3-.34h-4.75Z"/><path class="cls-2" d="M253.92,61.32q0-5.12,2.75-8a9.34,9.34,0,0,1,7.09-2.89,9.83,9.83,0,0,1,5.13,1.36,8.86,8.86,0,0,1,3.48,3.79,12.29,12.29,0,0,1,1.2,5.51,12.11,12.11,0,0,1-1.26,5.59,8.61,8.61,0,0,1-3.57,3.73,10.21,10.21,0,0,1-5,1.27,9.7,9.7,0,0,1-5.19-1.4,9,9,0,0,1-3.46-3.82A11.58,11.58,0,0,1,253.92,61.32Zm2.8,0a8.24,8.24,0,0,0,2,5.85,7,7,0,0,0,10.06,0,8.72,8.72,0,0,0,2-6.12,10.56,10.56,0,0,0-.85-4.38,6.52,6.52,0,0,0-2.48-2.9,6.73,6.73,0,0,0-3.66-1,6.94,6.94,0,0,0-5,2Q256.72,56.73,256.72,61.37Z"/><path class="cls-2" d="M277.06,71.33V50.79h7.08a16.92,16.92,0,0,1,3.66.3,6.92,6.92,0,0,1,3,1.47,8.37,8.37,0,0,1,2.43,3.51,13.73,13.73,0,0,1,.81,4.88,14.43,14.43,0,0,1-.55,4.15,10.16,10.16,0,0,1-1.4,3,7.47,7.47,0,0,1-1.87,1.86,7.65,7.65,0,0,1-2.45,1,14,14,0,0,1-3.3.35Zm2.72-2.42h4.39a10.67,10.67,0,0,0,3.19-.38,4.55,4.55,0,0,0,1.84-1.06,6.5,6.5,0,0,0,1.51-2.6,12.68,12.68,0,0,0,.54-4,9.56,9.56,0,0,0-1.06-5,5.33,5.33,0,0,0-2.57-2.32,10.68,10.68,0,0,0-3.52-.42h-4.32Z"/><path class="cls-2" d="M303.57,71.33v-8.7l-7.92-11.84H299L303,57q1.12,1.74,2.09,3.47.93-1.61,2.24-3.63l4-6h3.17l-8.2,11.84v8.7Z"/><path class="cls-2" d="M327.17,50.75h.69v7.9h-.69V54.88h-4.74v3.77h-.73v-7.9h.73v3.53h4.74Z"/><path class="cls-2" d="M331.87,50.75h.69v7.9h-.69Z"/><path class="cls-2" d="M342.17,50.75v.65h-2.76v7.25h-.73V51.4h-2.75v-.65Z"/><path class="cls-2" d="M356.88,58.65h-1L353.12,55H350.8v3.65h-.73v-7.9h3.69q2.47.12,2.63,2.11,0,2-2.51,2.19Zm-6.08-7.29v3h2.76q2.07,0,2.07-1.58t-2.07-1.46Z"/><path class="cls-2" d="M363.53,58.78q-3.6-.16-3.77-3.89.16-4.05,3.89-4.26,3.49.24,3.73,4.17Q367.22,58.66,363.53,58.78Zm0-7.54q-2.8.28-3.08,3.56.16,3.2,3,3.45,2.92-.16,3.08-3.45Q366.33,51.52,363.58,51.24Z"/><path class="cls-2" d="M374.52,54.52q2,.37,2.11,2.07-.12,2-2.59,2.07h-3.28v-7.9h3.08q2.31.12,2.47,1.95A2,2,0,0,1,374.52,54.52Zm-.89-3.16H371.4v2.92h2.23q1.74-.08,1.9-1.54C375.48,51.84,374.84,51.39,373.63,51.36Zm.12,3.53H371.4v3.24h2.51q2,0,2-1.66Q375.78,55,373.75,54.88Z"/><path class="cls-2" d="M383.64,58.78q-3.61-.16-3.77-3.89.16-4.05,3.89-4.26,3.48.24,3.73,4.17Q387.33,58.66,383.64,58.78Zm0-7.54q-2.8.28-3.08,3.56.16,3.2,3,3.45,2.92-.16,3.08-3.45Q386.44,51.52,383.68,51.24Z"/><path class="cls-2" d="M396.53,50.75v.65h-2.75v7.25H393V51.4h-2.76v-.65Z"/><path class="cls-2" d="M325.42,67.13h3.28V70a4,4,0,0,1-3.36,1.26q-3.73-.16-3.93-3.93.16-4,3.77-4.21a3.36,3.36,0,0,1,3.45,2.23l-.81.2a2.67,2.67,0,0,0-2.71-1.82q-2.67.28-2.92,3.57.2,3.2,3.08,3.45a3.4,3.4,0,0,0,2.75-1V67.74h-2.59Z"/><path class="cls-2" d="M339.12,71.1h-1l-2.79-3.65H333V71.1h-.73V63.2H336q2.47.12,2.63,2.11,0,2-2.51,2.19ZM333,63.81v3h2.76q2.07,0,2.07-1.58t-2.07-1.46Z"/><path class="cls-2" d="M345.77,71.22q-3.61-.16-3.77-3.89.16-4.05,3.89-4.26,3.49.24,3.73,4.18Q349.46,71.1,345.77,71.22Zm0-7.54q-2.79.28-3.08,3.57.16,3.2,3,3.45,2.92-.16,3.08-3.45Q348.57,64,345.81,63.69Z"/><path class="cls-2" d="M359.23,63.2v4.66q0,3.4-3.12,3.36T353,67.86V63.2h.73v4.62q0,3,2.35,2.88,2.51.12,2.43-2.88V63.2Z"/><path class="cls-2" d="M366.45,67.82h-2.63V71.1h-.69V63.2h3.41a2.42,2.42,0,0,1,2.59,2.31Q369.08,67.78,366.45,67.82Zm-.16-4h-2.47v3.4h2.47q2,0,2.07-1.74T366.29,63.81Z"/></g></g></svg>