<svg xmlns="http://www.w3.org/2000/svg" viewBox="0 0 286.78 155.05"><defs><style>.cls-1{fill:#fff;stroke:#231815;stroke-width:0.29px;}.cls-2{fill:#b0b0b0;}</style></defs><title>hitrobot_ziwirobot_ash</title><g id="图层_2" data-name="图层 2"><g id="图层_1-2" data-name="图层 1"><rect class="cls-1" x="0.14" y="0.14" width="286.49" height="154.76"/><rect class="cls-2" x="98.69" y="63.31" width="7.98" height="23.61"/><path class="cls-2" d="M39.7,70H12.88V63.47H39.7Zm.64,10.11h-28v6.52h28Zm-4.15-7.92H24.35l-12,7.92,5.92,4.51Z"/><path class="cls-2" d="M254.41,86.06h-6.6V63.45h6.6Zm7.36-22.61h-6.6V86.06h6.6Zm-14,0H236.64v6.22h11.16Zm24.74,0H261.77v6.22h10.78Z"/><path class="cls-2" d="M49.86,85.64a.9.9,0,0,1-.81,1H43.28a.9.9,0,0,1-.81-1V64.72a.89.89,0,0,1,.81-1h5.77a.89.89,0,0,1,.81,1Z"/><path class="cls-2" d="M70,63.57h7.86a.74.74,0,0,1,.64.45L82.39,78.5s.33.3.59,0L88,64.07a.79.79,0,0,1,.73-.62h7.6a.58.58,0,0,1,.47.69L89,84.25a6.82,6.82,0,0,1-4.78,2.94s-3.7.6-6.25-1.49c0,0-1-.78-1.23-1.38L74.08,74.9h0L70,63.57m0,0a.74.74,0,0,0-.64.45L65.46,78.5s-.33.3-.59,0L59.81,64.07a.79.79,0,0,0-.73-.62h-7.6a.58.58,0,0,0-.47.69l7.86,20.11a6.79,6.79,0,0,0,4.77,2.94s3.7.6,6.24-1.49c0,0,1-.78,1.24-1.38l2.66-9.43s.14-.45.31,0L70,63.57"/><path class="cls-2" d="M116.69,86.91H108.9V78.46h7.79Zm-8.34-23.46.41,5.57a1.33,1.33,0,0,0,1.37.95h19.73s1.53.8-.09,1.6H108.9v6.89h14.27a.82.82,0,0,1,.77.28L134,89.18H143s.68-.25.11-.85l-8.91-10s4.6-.39,4.61-4.79V68.08a4.57,4.57,0,0,0-3.93-4.63Z"/><path class="cls-2" d="M171.82,78.64a8,8,0,0,1-8,8.11H148.09a8,8,0,0,1-8-8.11V71.16a8,8,0,0,1,8-8.11h15.75a8,8,0,0,1,8,8.11Zm-7.8-6.9a1.75,1.75,0,0,0-1.71-1.8h-12.4a1.75,1.75,0,0,0-1.71,1.8v6.38a1.75,1.75,0,0,0,1.71,1.8h12.4a1.75,1.75,0,0,0,1.71-1.8Z"/><path class="cls-2" d="M235.46,78.49a8,8,0,0,1-8,8.11H211.73a8,8,0,0,1-8-8.11V71a8,8,0,0,1,8-8.11h15.75a8,8,0,0,1,8,8.11Zm-7.8-6.9a1.75,1.75,0,0,0-1.71-1.8h-12.4a1.75,1.75,0,0,0-1.7,1.8V78a1.75,1.75,0,0,0,1.7,1.79h12.4A1.75,1.75,0,0,0,227.65,78Z"/><path class="cls-2" d="M193,72a1.36,1.36,0,0,0,1.09-1.38A1.07,1.07,0,0,0,193,69.53H174.21a.94.94,0,0,1-.9-.95v-4.7s0-.52.95-.57h23s4.13.62,4.18,4.13v4.23a2.78,2.78,0,0,1-1.85,2.71,4.64,4.64,0,0,1,2.94,4.56v3.75s.29,3.75-3,3.92H173.31V72Zm-12,8.29H194.4c1.4-1.18,0-1.92,0-1.92H181Z"/></g></g></svg>