<?xml version="1.0" encoding="utf-8"?>
<!-- Generator: Adobe Illustrator 21.1.0, SVG Export Plug-In . SVG Version: 6.00 Build 0)  -->
<svg version="1.1" id="图层_1" xmlns="http://www.w3.org/2000/svg" xmlns:xlink="http://www.w3.org/1999/xlink" x="0px" y="0px"
	 viewBox="0 0 264.1 169.9" style="enable-background:new 0 0 264.1 169.9;" xml:space="preserve">
<style type="text/css">
	.st0{fill:#B09F69;}
	.st1{fill:#FFFFFF;}
	.st2{font-family:'ArialMT';}
	.st3{font-size:8px;}
	.st4{fill:#595757;}
	.st5{font-family:'MicrosoftYaHei';}
</style>
<title>hitrobot_logo_gold</title>
<g id="图层_2">
	<g id="图层_1-2">
		<rect y="100.4" class="st0" width="264.1" height="53.7"/>
		<polygon class="st0" points="207.2,31.6 182.8,31.6 180,37.1 194.6,37.1 199.8,47.6 167.4,47.6 183.6,15.1 187.8,23.5 203.1,23.5 
			191.3,0 174.5,0 148.8,51.4 137.8,29.6 155.5,29.6 170.2,0 117.8,0 105.7,24 89.1,24 101.2,0 84.7,0 57.9,53.4 74.4,53.4 
			86.3,29.6 102.9,29.6 91,53.4 107.5,53.4 131.5,5.5 152,5.5 142.4,24 126.4,24 122.8,31.2 133.8,53.4 218,53.4 		"/>
		<text transform="matrix(1 0 0 1 15.54 116.08)" class="st1 st2 st3">P</text>
		<text transform="matrix(1 0 0 1 20.28 116.08)" class="st1 st2 st3">AN</text>
		<text transform="matrix(1 0 0 1 31.4 116.08)" class="st1 st2 st3">T</text>
		<text transform="matrix(1 0 0 1 36.14 116.08)" class="st1 st2 st3">ONE  874C</text>
	</g>
</g>
<g id="图层_2_1_">
	<g id="图层_1-2_1_">
		<text transform="matrix(0.95 0 0 1 1.6997 167.8002)" class="st4 st5 st3">专色金</text>
		<text transform="matrix(1 0 0 1 15.96 116.08)" class="st1 st2 st3">P</text>
		<text transform="matrix(1 0 0 1 20.7 116.08)" class="st1 st2 st3">AN</text>
		<text transform="matrix(1 0 0 1 31.82 116.08)" class="st1 st2 st3">T</text>
		<text transform="matrix(1 0 0 1 36.56 116.08)" class="st1 st2 st3">ONE  877C</text>
	</g>
</g>
</svg>
