<svg xmlns="http://www.w3.org/2000/svg" viewBox="0 0 286.78 155.05"><defs><style>.cls-1{fill:#fff;stroke:#231815;stroke-width:0.29px;}.cls-2,.cls-3{fill:#00a0e9;}.cls-2{fill-rule:evenodd;}.cls-4{fill:#f08300;}</style></defs><title>hitrobot_robohit-colors</title><g id="图层_2" data-name="图层 2"><g id="图层_1-2" data-name="图层 1"><rect class="cls-1" x="0.14" y="0.14" width="286.49" height="154.76"/><path class="cls-2" d="M37,85.94V73.79a26.68,26.68,0,0,1-10.28-9.71c6.7,1.07,8.85-1.95,12.36-4.93,2.09-1.77,4.55-4.24,7-5.41a14.26,14.26,0,0,1,9.75-1c-.6-2.45-1.25-4.12-3.1-5.78C57.83,49,66.21,58.21,66.21,65.13a11.37,11.37,0,0,1-4.1,9.14,14.27,14.27,0,0,1-2,1.28c3,.43,4.62,2,4.93,4.72l.35,2.57a10.54,10.54,0,0,0,.18,1.55,20.69,20.69,0,0,1,.34,2.92q-.17,3.26-4.63,3.43-5,0-5.5-3.95l-.52-4.12q-.51-3.44-4.47-3.44H46.83v6.7q0,4.81-5,4.81-4.64,0-4.8-4.81Zm14.9-25.72A5.84,5.84,0,1,0,58.19,66,6.05,6.05,0,0,0,51.94,60.21Z"/><path class="cls-3" d="M118,71.85h4.81a3,3,0,0,0,3.09-2.92c0-1.95-1-2.92-3.09-2.92H118v5.84ZM108,84.56V65q-.18-6.19,5.84-6H124.3q11,0,11.17,7.91.16,5.5-4.47,6.52v.18q5.68,1.2,5.84,7.73-.51,8.94-11.85,9.28H113.83q-6,0-5.84-6Zm10-1h5c2.63-.12,4-1.14,4.12-3.09-.11-1.94-1.49-3-4.12-3.09h-5Z"/><path class="cls-4" d="M163.31,74.77q-.18-8.6-6.36-8.77-6,.17-6.18,8.77.16,8.41,6.18,8.59,6.19-.18,6.36-8.59Zm-22.68,0q.68-15.47,16.31-16.67,15.81,1,16.49,16.67-.5,15.63-16.49,16.15Q141.14,90.23,140.63,74.77Z"/><path class="cls-3" d="M198.35,69.79v-6c.12-3.55,1.83-5.39,5.16-5.5,3.21.11,4.86,1.94,5,5.5v22c-.12,3.2-1.78,4.87-5,5-3.32-.11-5-1.77-5.16-5V78.38h-9.79v7.39q-.17,4.8-5.15,5c-3.21-.11-4.87-1.77-5-5v-22q.18-5.33,5-5.5,5,.17,5.15,5.5v6Z"/><path class="cls-3" d="M215.18,85.77v-22q.17-5.33,5.15-5.5,4.8.17,5,5.5v22c-.12,3.2-1.78,4.87-5,5Q215.36,90.58,215.18,85.77Z"/><path class="cls-3" d="M239.58,67h-6.19q-4.12,0-4.12-4.12,0-4,4.47-4h21.64q4.64,0,4.64,4,0,4.12-4.3,4.12h-6V85.77c-.11,3.2-1.83,4.87-5.15,5-3.2-.11-4.87-1.77-5-5Z"/><path class="cls-4" d="M85.83,99.95a3.82,3.82,0,0,1-.56-5.41A3.91,3.91,0,0,1,90.72,94q16.73,13.5,32.33,13.5T153.53,94.1a3.92,3.92,0,0,1,5.5.29,3.82,3.82,0,0,1-.29,5.44q-17.23,15.37-35.68,15.37T85.83,99.95Z"/><path class="cls-4" d="M92.7,74.77q-.17-8.6-6.36-8.77c-4,.12-6.07,3-6.18,8.77.11,5.61,2.18,8.47,6.18,8.59q6.19-.18,6.36-8.59ZM70,74.77q.68-15.47,16.31-16.67,15.81,1,16.49,16.67-.51,15.63-16.49,16.15Q70.54,90.23,70,74.77Z"/></g></g></svg>