<?xml version="1.0" encoding="utf-8"?>
<!-- Generator: Adobe Illustrator 21.1.0, SVG Export Plug-In . SVG Version: 6.00 Build 0)  -->
<svg version="1.1" id="图层_1" xmlns="http://www.w3.org/2000/svg" xmlns:xlink="http://www.w3.org/1999/xlink" x="0px" y="0px"
	 viewBox="0 0 39.7 326" style="enable-background:new 0 0 39.7 326;" xml:space="preserve">
<style type="text/css">
	.st0{fill:#10386B;}
	.st1{font-family:'ArialMT';}
	.st2{font-size:7.52px;}
	.st3{enable-background:new    ;}
	.st4{fill:#231815;}
	.st5{font-size:5px;}
	.st6{font-family:'AdobeSongStd-Light-GBpc-EUC-H';}
</style>
<title>hitrobot_hrg_English_chinese_logo_blue</title>
<g id="图层_2">
	<g id="图层_1-2">
		<text transform="matrix(0.95 0 0 1 -0.625 325.03)" class="st0 st1 st2">■</text>
		<text transform="matrix(0.95 0 0 1 19.8599 325.03)" class="st3"><tspan x="0" y="0" class="st4 st1 st5"> </tspan><tspan x="1.4" y="0" class="st4 st6 st5">标准字体</tspan></text>
		<path class="st0" d="M7.7,3.5h8v21.4h-2.2v-2.1H9.8v2.6H7.7V3.5z M13.5,20.7V5.6H9.8v15.1H13.5z M27.8,0l-0.5,0.8
			c2.4,4.4,5.3,7.4,8.8,9.2c-0.6,0.7-1.1,1.4-1.7,2.1C30.9,9.7,28,6.5,26,2.8c-2.1,3.7-5,6.9-8.5,9.4c-0.5-0.7-1-1.3-1.5-1.9
			c3.9-2.5,7-6.1,9-10.3H27.8z M18.7,17.1h14.2v12.4h-2.3v-1.8H21v1.8h-2.3V17.1z M19.9,11.1H32v2.1H19.9V11.1z M30.6,25.6v-6.4H21
			v6.4L30.6,25.6z"/>
		<path class="st0" d="M6.6,59.9h13.2v-20H8.3v-2.4h25.6v2.4H22.4v20h13.2v2.3h-29L6.6,59.9z"/>
		<path class="st0" d="M6.1,97.1c8.3-3.7,12.7-9.2,13.4-16.5H6.7v-2.3h12.9c0-2.7,0.1-5.4,0.1-8.1h2.6c0,2.7,0,5.4-0.1,8.1h13.3v2.3
			H22.2c1.4,8,6.1,13.3,14,15.8c-0.8,0.8-1.6,1.6-2.3,2.4c-6.3-2.3-11-7.6-12.8-14C19.5,90.9,15.2,95.8,8,99.4
			C7.6,98.9,7,98.1,6.1,97.1z"/>
		<path class="st0" d="M6.1,123.8c2.2-3.3,3.8-7,4.8-10.8H6.4v-2h4.7v-6h2.2v6h4.2v2h-4.2v5l1.2-1.2c1.5,1.4,2.8,2.5,3.6,3.4
			l-1.6,1.7c-1.2-1.3-2.3-2.5-3.2-3.4v15.9h-2.2v-16.1c-0.9,3-2.2,5.7-4,8.2C6.8,125.6,6.4,124.7,6.1,123.8z M21.9,109.2v9.9
			c0,7.2-1.8,12.4-5.4,15.6c-0.6-0.7-1.2-1.3-1.8-2c3.2-2.8,4.8-7.1,4.8-13V107h11.2v22.6c0,1,0.4,1.5,1,1.5h0.7
			c0.7,0,1.1-0.6,1.2-1.7c0.2-1.5,0.3-3.2,0.4-5c0.7,0.4,1.5,0.7,2.3,1c-0.2,2-0.4,3.6-0.5,4.9c-0.3,2.1-1.3,3.2-3.1,3.2h-1.6
			c-1.9,0-2.9-1.1-2.9-3.4v-20.8H21.9z"/>
		<path class="st0" d="M7.1,152.7h12.1c0.3-0.8,0.5-1.7,0.6-2.6l2.2,0.3c-0.1,0.8-0.3,1.6-0.5,2.3h6.6c-0.8-0.6-1.6-1.1-2.5-1.7
			l1.2-1.4c1.3,0.8,2.5,1.6,3.6,2.3l-0.7,0.7h5.6v2H23.7c2.3,2.3,6.4,3.3,12.3,3.2c-0.5,0.8-0.9,1.6-1.2,2.3l-1.5-0.1v9.2h-2.1v-1.7
			h-6.4v1.6h-2.1v-9.3h9.6c-5.7-0.8-9.4-2.5-11-5.3h-0.5c-1.1,2.4-4.8,4.1-10.9,5.3h9.6v9.3h-2.1v-1.6h-6.3v1.6H8.8v-9.1l-1.7,0.3
			c-0.3-0.6-0.7-1.3-1.2-2.1c6.7-0.9,10.7-2.1,12-3.6H7.1V152.7z M8.8,141.8h10.5v8.7h-2.1v-0.9h-6.3v1.2H8.8V141.8z M17.2,143.6
			h-6.3v4.1h6.3L17.2,143.6z M17.2,161.8h-6.3v3.9h6.3L17.2,161.8z M22.5,141.8h10.7v8.9h-2.1v-1.1h-6.4v0.9h-2.1L22.5,141.8z
			 M31,143.7h-6.4v4.1h6.4L31,143.7z M31,161.8h-6.4v3.9h6.4L31,161.8z"/>
		<path class="st0" d="M6.2,202.2c8.7-5,13.3-13.9,13.8-26.6h2.6c-0.1,2.1-0.3,4.1-0.6,6.1c2.5,10,7.2,16.6,14,19.8
			c-0.8,0.9-1.6,1.8-2.2,2.6c-5.9-3.3-10.2-9.3-12.7-17.9c-2.2,8.3-6.5,14.3-13,18.2C7.5,203.6,6.9,202.9,6.2,202.2z"/>
		<path class="st0" d="M7.1,230.3H20v-2h2.1v2H35v1.9H24.5c3.5,2.5,7.5,4.2,11.7,5c-0.5,0.8-1,1.6-1.4,2.2c-4.6-1.3-9-3.6-12.6-6.7
			v7H20v-7.1c-3.7,3.1-8,5.4-12.6,6.8c-0.4-0.6-0.9-1.2-1.4-1.9c4.2-1,8.1-2.8,11.6-5.4H7.1V230.3z M20.4,211.1l1.8-1.1
			c0.9,0.9,1.6,2,2.3,3.1l-1.4,0.9h11.5v1.9H23.2v2.1h10.1v1.7H23.2v2.1h10.1v1.7H23.2v2.2h11.5v1.9H12.8v1.1h-2.1V218
			c-1,1.2-2,2.2-3.2,3.3c-0.4-0.7-0.9-1.4-1.4-2c3-2.5,5.5-5.6,7.4-9l2.1,0.9c-0.6,0.9-1.1,1.8-1.7,2.6h8.5
			C21.7,212.9,21.1,212,20.4,211.1L20.4,211.1z M12.8,217.9h8.3v-2.1h-8.3L12.8,217.9z M12.8,221.8h8.3v-2.1h-8.3L12.8,221.8z
			 M12.8,225.7h8.3v-2.2h-8.3L12.8,225.7z"/>
		<path class="st0" d="M8,246.8h26.2v28H32v-1.5H10.2v1.5H8V246.8z M32,248.9H10.2v22.4H32V248.9z M11.8,254.3h11.2v-4.3h2.2v4.3
			h5.8v2h-5.8v9.2c0,2.9-1.4,4.4-4.1,4.4c-1.1,0-2.3,0-3.5-0.1c-0.1-0.7-0.3-1.5-0.5-2.4c1.1,0.1,2.3,0.2,3.4,0.2
			c1.6,0,2.5-0.9,2.5-2.8v-7c-2.8,4.1-6.5,7.5-10.8,10c-0.4-0.7-0.9-1.4-1.5-2c4.3-2.3,8-5.5,10.9-9.5h-9.8L11.8,254.3z"/>
	</g>
</g>
</svg>
