<svg xmlns="http://www.w3.org/2000/svg" viewBox="0 0 286.78 155.05"><defs><style>.cls-1{fill:#fff;stroke:#231815;stroke-width:0.29px;}.cls-2{fill:#231815;}</style></defs><title>hitrobot_nobody_black</title><g id="图层_2" data-name="图层 2"><g id="图层_1-2" data-name="图层 1"><rect class="cls-1" x="0.14" y="0.14" width="286.49" height="154.76"/><path class="cls-2" d="M90.14,60.43h7.54l9.84,13.14V60.43h7.61V84.18h-7.61l-9.78-13v13H90.14Z"/><path class="cls-2" d="M119.47,72.32q0-5.82,3.56-9.05T133,60q6.52,0,10,3.18t3.53,8.92A13.48,13.48,0,0,1,145,79a10.51,10.51,0,0,1-4.45,4.15,15.93,15.93,0,0,1-7.26,1.48A18.1,18.1,0,0,1,126,83.3a10.62,10.62,0,0,1-4.7-4A12.46,12.46,0,0,1,119.47,72.32Zm8.07,0q0,3.59,1.47,5.17a6,6,0,0,0,8,0Q138.46,76,138.46,72q0-3.36-1.49-4.9a5.35,5.35,0,0,0-4-1.54A5.14,5.14,0,0,0,129,67.15Q127.54,68.72,127.54,72.35Z"/><path class="cls-2" d="M150.9,60.43H166a8.78,8.78,0,0,1,5.8,1.7,5.3,5.3,0,0,1,2,4.21A5,5,0,0,1,172.39,70a6.55,6.55,0,0,1-2.82,1.59,7.51,7.51,0,0,1,4.14,2.12A5.47,5.47,0,0,1,175,77.42a6,6,0,0,1-.94,3.32,6.66,6.66,0,0,1-2.58,2.33,9.11,9.11,0,0,1-3.07.78c-1.82.22-3,.32-3.62.32H150.9ZM159,69.74h3.51a4.33,4.33,0,0,0,2.63-.59,2.06,2.06,0,0,0,.74-1.71,1.94,1.94,0,0,0-.74-1.62,4.26,4.26,0,0,0-2.57-.58H159Zm0,9.33h4.12a4.87,4.87,0,0,0,2.94-.67A2.18,2.18,0,0,0,167,76.6a2,2,0,0,0-.85-1.69,5.09,5.09,0,0,0-3-.64H159Z"/><path class="cls-2" d="M178.25,72.32q0-5.82,3.57-9.05T191.74,60q6.52,0,10,3.18t3.53,8.92A13.54,13.54,0,0,1,203.78,79a10.52,10.52,0,0,1-4.46,4.15,15.9,15.9,0,0,1-7.26,1.48,18.12,18.12,0,0,1-7.31-1.28,10.63,10.63,0,0,1-4.7-4A12.48,12.48,0,0,1,178.25,72.32Zm8.07,0q0,3.59,1.47,5.17a6,6,0,0,0,8,0Q197.24,76,197.24,72q0-3.36-1.49-4.9a5.34,5.34,0,0,0-4-1.54,5.13,5.13,0,0,0-3.92,1.57Q186.32,68.72,186.32,72.35Z"/><path class="cls-2" d="M209.77,60.43h12a15.74,15.74,0,0,1,5.73.87,9.29,9.29,0,0,1,3.61,2.51,10,10,0,0,1,2.07,3.81,16.06,16.06,0,0,1,.64,4.6,14.66,14.66,0,0,1-1,5.9,9.77,9.77,0,0,1-2.65,3.51,8.91,8.91,0,0,1-3.63,1.89,20.5,20.5,0,0,1-4.81.65h-12Zm8.07,5.38v13h2a9.07,9.07,0,0,0,3.6-.51,3.58,3.58,0,0,0,1.68-1.78,10.23,10.23,0,0,0,.61-4.12q0-3.77-1.35-5.17t-4.49-1.39Z"/><path class="cls-2" d="M235.41,60.43h9l5.26,8,5.27-8h8.92l-10.16,13.8v9.95h-8.09V74.23Z"/><path class="cls-2" d="M95.85,88.34h1.49v8.79H95.85V93.22H91.56v3.91H90.11V88.34h1.44V92h4.29Z"/><path class="cls-2" d="M103.4,88.34h1.44v8.79H103.4Z"/><path class="cls-2" d="M117.57,89.61h-2.93v7.52H113.2V89.61h-3V88.34h7.35Z"/><path class="cls-2" d="M138,97.13h-2l-3-3.74h-1.78v3.74h-1.44V88.3H134q3,.09,3.1,2.51a2.35,2.35,0,0,1-2.34,2.51Zm-6.71-7.52v2.46h2.42q1.91,0,1.87-1.32,0-1.1-1.87-1.15Z"/><path class="cls-2" d="M147.14,88.17q4,.26,4.33,4.55-.13,4.42-4.42,4.55-4.16-.22-4.33-4.5Q142.93,88.39,147.14,88.17Zm-.13,7.9q2.84-.12,2.93-3.31-.21-3.06-2.84-3.31-2.72.21-2.89,3.31Q144.33,95.86,147,96.07Z"/><path class="cls-2" d="M161,97.13h-4V88.34h3.78q2.8.12,3,2.29a2,2,0,0,1-1.1,1.83,2.28,2.28,0,0,1,1.49,2.16Q164.12,97.13,161,97.13Zm-2.59-7.52V92h2.16c1.11,0,1.67-.44,1.7-1.23s-.61-1.08-1.66-1.11Zm2.34,3.61h-2.34V95.9h2.46q1.79,0,1.79-1.36T160.72,93.22Z"/><path class="cls-2" d="M173.79,88.17q4,.26,4.33,4.55-.13,4.42-4.42,4.55-4.16-.22-4.33-4.5Q169.58,88.39,173.79,88.17Zm-.13,7.9q2.85-.12,2.93-3.31-.21-3.06-2.85-3.31-2.72.21-2.89,3.31Q171,95.86,173.66,96.07Z"/><path class="cls-2" d="M190.3,89.61h-2.93v7.52h-1.45V89.61h-3V88.34h7.35Z"/><path class="cls-2" d="M206.5,92.33h4.2v3.36a4.59,4.59,0,0,1-3.91,1.57q-4.38-.17-4.55-4.5.17-4.42,4.38-4.59a4,4,0,0,1,4,2.59l-1.53.42a2.47,2.47,0,0,0-2.51-1.7q-2.64.21-2.8,3.27.17,3.06,3,3.27a3.13,3.13,0,0,0,2.51-.89V93.61H206.5Z"/><path class="cls-2" d="M224.59,97.13h-2l-3-3.74h-1.79v3.74h-1.44V88.3h4.12c2,.06,3,.89,3.1,2.51a2.35,2.35,0,0,1-2.34,2.51Zm-6.71-7.52v2.46h2.42q1.91,0,1.87-1.32,0-1.1-1.87-1.15Z"/><path class="cls-2" d="M233.71,88.17q4,.26,4.33,4.55-.13,4.42-4.42,4.55-4.16-.22-4.33-4.5Q229.5,88.39,233.71,88.17Zm-.13,7.9q2.85-.12,2.93-3.31-.21-3.06-2.85-3.31-2.72.21-2.89,3.31Q230.9,95.86,233.58,96.07Z"/><path class="cls-2" d="M249.37,88.34h1.45v5.09q.12,4-3.7,3.82-3.65.13-3.57-3.82V88.34H245v5.09q0,2.68,2.13,2.59,2.34.09,2.25-2.59Z"/><path class="cls-2" d="M260.61,93.73h-2.38v3.4h-1.48V88.3h3.95q2.89.13,3.1,2.68Q263.76,93.69,260.61,93.73Zm-.13-4.12h-2.25v2.85h2.25c1.22,0,1.83-.5,1.83-1.49S261.65,89.64,260.48,89.61Z"/><circle class="cls-2" cx="53.93" cy="77.09" r="2.32"/><path class="cls-2" d="M74.44,61.82v12.9c-1.17,3.71-2.92,5.3-4.82,5.69V57.1a25.52,25.52,0,0,0-35,36.69V80.69c1-4.6,2.81-6.55,4.82-7.12V98.27a25.51,25.51,0,0,0,35-36.45ZM53.85,87.53A10.44,10.44,0,0,1,44.25,73c-2.71-2-7.6-4-9.58,5.1V73.72c0-7.7,6.66-10.31,13.88-5.61a10.42,10.42,0,0,1,15.73,9,10.62,10.62,0,0,1-.15,1.68l-3.41-2.33A6.91,6.91,0,1,0,53.85,84a6.71,6.71,0,0,0,.76,0l3.61,2.61A10.41,10.41,0,0,1,53.85,87.53Zm20.59-6.83c0,6.93-4.64,13.26-18.94,1.17A5,5,0,1,1,59,77.09c0,.11,0,.22,0,.32,5.3,4.07,12,9.07,15.49-.42Z"/></g></g></svg>