<svg xmlns="http://www.w3.org/2000/svg" viewBox="0 0 375.65 140.67"><defs><style>.cls-1,.cls-3{fill:#10386b;}.cls-2{font-size:8px;fill:#fff;font-family:MicrosoftYaHei, Microsoft YaHei;letter-spacing:0.02em;}.cls-3{font-size:7.52px;}.cls-3,.cls-4{font-family:FZHTJW--GB1-0, FZHTJW -GB1-0-GBpc-EUC-H;}.cls-4{font-size:9px;fill:#231815;letter-spacing:-0.02em;}.cls-5{font-size:9.44px;fill:#4c4948;font-family:FZXH1JW--GB1-0, FZXH1JW -GB1-0-GBpc-EUC-H;}.cls-6{fill:none;stroke:#231815;stroke-width:0.3px;}</style></defs><title>hitrobot_color_specification</title><g id="图层_2" data-name="图层 2"><g id="图层_1-2" data-name="图层 1"><polygon class="cls-1" points="139.02 28.81 116.79 28.81 114.21 33.84 127.56 33.84 132.33 43.48 102.69 43.48 117.47 13.75 121.31 21.42 135.32 21.42 124.57 0 109.19 0 85.75 46.94 75.74 26.98 91.85 26.98 105.29 0 57.43 0 46.42 21.92 31.3 21.92 42.28 0 27.26 0 2.8 48.7 17.88 48.7 28.76 26.98 43.91 26.98 32.99 48.7 48.07 48.7 69.94 5.06 88.66 5.06 79.87 21.92 65.31 21.92 62.05 28.45 72.09 48.7 148.88 48.7 139.02 28.81"/><rect class="cls-1" y="78.33" width="375.65" height="62.34"/><text class="cls-2" transform="translate(8.22 91)">蓝色</text><text class="cls-3" transform="translate(259.33 39.53) scale(0.95 1)">■ </text><text class="cls-4" transform="translate(268.08 39.53)">标准色系</text><text class="cls-5" transform="translate(268.59 50.96)">CMYK C100 M90 Y40 K0</text><line class="cls-6" x1="140.35" y1="36.9" x2="256.67" y2="36.9"/></g></g></svg>