<svg xmlns="http://www.w3.org/2000/svg" viewBox="0 0 213 203.47"><defs><style>.cls-1{fill:#0d509b;}.cls-2{font-size:34.22px;fill:#2f2725;font-family:ArialMT, Arial;}.cls-3{font-size:13.41px;fill:#595757;font-family:FZLTXHK--GBK1-0, FZLTXHK -GBK1-0-GBpc-EUC-H;letter-spacing:0.4em;}</style></defs><title>hitrobot_sign_blue_top_down</title><g id="图层_2" data-name="图层 2"><g id="图层_1-2" data-name="图层 1"><path class="cls-1" d="M40,98.17l-.12-.24Z"/><path class="cls-1" d="M38.58,95.12l-.15-.35Z"/><path class="cls-1" d="M66.12,126.89l0,0Z"/><path class="cls-1" d="M45.18,88.2a36.91,36.91,0,0,0-5.06,10.27,68.87,68.87,0,0,0,24.37,27.38C56,116.37,49.26,103.29,45.18,88.2Z"/><path class="cls-1" d="M78,132.64h0Z"/><path class="cls-1" d="M169.8,64.21l0-.72-.72,0c-9-.37-18.56-.58-28.31-.61h-.54c-26,.1-46.24,1.41-53.38,2.38V58.35c5.74-2.84,26.86-8.08,53-8.22h1.36a203.4,203.4,0,0,1,25.65,1.76L168,52l-.31-1.15a67.43,67.43,0,0,0-3.26-9.47l-.18-.42-.44-.06a166.16,166.16,0,0,0-22.68-1.65H139.8c-25.33.14-46.15,5.83-53,11.5V44.65c5.13-10.39,27.43-18,53.2-18.08h.9a128,128,0,0,1,13.62.78l1.91.21-1.2-1.5a67.92,67.92,0,0,0-8.95-9.37l-.21-.19h-.28c-1.44-.07-2.89-.11-4.35-.11h-1.68c-23.13.09-45,8.35-53,19.6v-5.4c2.82-12.07,16.8-21.81,36.51-25.43l3.05-.56-2.94-1A68.38,68.38,0,0,0,36.61,89.87a30.8,30.8,0,0,1,6.94-8.47A129,129,0,0,1,40.85,55c0-6.72,2.26-19.24,3.54-22.71A111.32,111.32,0,0,0,42,55a88.79,88.79,0,0,0,3.64,24.55c9.9-8,25.37-15.24,40.32-18,0,0-24.84,7.05-38.53,23.61a121.77,121.77,0,0,0,31.07,47.66,68.47,68.47,0,0,0,44.74.46l2.95-1-3.06-.56c-19.93-3.7-33.52-13.19-36.36-25.4v-5.4c7.93,11.25,29.84,19.51,53,19.59h1.37c1.47,0,3,0,4.59-.12H146l.2-.18a69,69,0,0,0,9-9.36l1.2-1.52-1.91.22a129.05,129.05,0,0,1-13.56.77H140c-25.77-.09-48.07-7.69-53.2-18.08V86.08c6.84,5.68,27.66,11.37,53,11.5h1.31a164.2,164.2,0,0,0,22.63-1.65l.44-.06.18-.41A68.28,68.28,0,0,0,167.65,86l.3-1.16-1.19.16a202.94,202.94,0,0,1-25.63,1.76h-1.36c-26.11-.14-47.22-5.38-53-8.22V71.65c7.13,1,27.38,2.28,53.38,2.38h.54c9.81,0,19.33-.24,28.3-.61l.72,0,0-.72c.1-1.46.14-2.9.14-4.26S169.9,65.61,169.8,64.21Z"/><path class="cls-1" d="M72,130.07l-.13-.06Z"/><path class="cls-1" d="M69.14,128.63l-.37-.2Z"/><text class="cls-2" transform="translate(0 183.18)">EVERYBODY</text><text class="cls-3" transform="translate(1.56 199.67)">HIT ROBOT GROUP</text></g></g></svg>