<svg xmlns="http://www.w3.org/2000/svg" viewBox="0 0 500.81 262.16"><defs><style>.cls-1{fill:#b6b6b6;}.cls-2{fill:#10386b;}.cls-3{fill:#b09f69;}.cls-4{font-size:8px;fill:#727171;font-family:MicrosoftYaHei, Microsoft YaHei;}.cls-5{fill:#fff;}.cls-6{fill:#231815;}.cls-7,.cls-8{fill:none;}.cls-7{stroke:#d0121b;stroke-width:0.5px;}.cls-8{stroke:#fff;stroke-miterlimit:10;}</style></defs><title>hitrobot_hrg_logo_Standard_color</title><g id="图层_2" data-name="图层 2"><g id="图层_1-2" data-name="图层 1"><rect class="cls-1" x="57.54" y="177.02" width="443.27" height="56.25"/><rect class="cls-2" x="57.54" y="25.36" width="443.27" height="56.25"/><rect class="cls-3" x="57.54" y="101.02" width="443.27" height="56.26"/><text class="cls-4" transform="translate(109.02 6.86)">标志彩稿</text><text class="cls-4" transform="translate(261.42 7.86)">标志墨稿</text><text class="cls-4" transform="translate(408.76 7.86)">标志反白稿</text><polygon class="cls-2" points="158.54 53.93 146.75 53.93 145.38 56.6 152.46 56.6 154.99 61.72 139.27 61.72 147.11 45.95 149.15 50.02 156.58 50.02 150.88 38.65 142.72 38.65 130.29 63.55 124.97 52.96 133.52 52.96 140.65 38.65 115.26 38.65 109.42 50.28 101.4 50.28 107.23 38.65 99.26 38.65 86.28 64.48 94.28 64.48 100.06 52.96 108.09 52.96 102.3 64.48 110.3 64.48 121.9 41.34 131.83 41.34 127.17 50.28 119.44 50.28 117.71 53.74 123.04 64.48 163.77 64.48 158.54 53.93"/><polygon class="cls-5" points="462.12 53.93 450.33 53.93 448.96 56.6 456.04 56.6 458.57 61.72 442.85 61.72 450.69 45.95 452.72 50.02 460.16 50.02 454.45 38.65 446.3 38.65 433.87 63.55 428.55 52.96 437.1 52.96 444.23 38.65 418.84 38.65 413 50.28 404.98 50.28 410.81 38.65 402.84 38.65 389.86 64.48 397.86 64.48 403.64 52.96 411.67 52.96 405.88 64.48 413.88 64.48 425.48 41.34 435.41 41.34 430.74 50.28 423.02 50.28 421.29 53.74 426.62 64.48 467.35 64.48 462.12 53.93"/><polygon class="cls-2" points="158.54 130.25 146.75 130.25 145.38 132.92 152.46 132.92 154.99 138.04 139.27 138.04 147.11 122.27 149.15 126.34 156.58 126.34 150.88 114.97 142.72 114.97 130.29 139.87 124.97 129.28 133.52 129.28 140.65 114.97 115.26 114.97 109.42 126.6 101.4 126.6 107.23 114.97 99.26 114.97 86.28 140.8 94.28 140.8 100.06 129.28 108.09 129.28 102.3 140.8 110.3 140.8 121.9 117.66 131.83 117.66 127.17 126.6 119.44 126.6 117.71 130.06 123.04 140.8 163.77 140.8 158.54 130.25"/><polygon class="cls-6" points="311.67 130.25 299.88 130.25 298.51 132.92 305.59 132.92 308.12 138.04 292.4 138.04 300.24 122.27 302.28 126.34 309.71 126.34 304.01 114.97 295.85 114.97 283.42 139.87 278.11 129.28 286.65 129.28 293.78 114.97 268.39 114.97 262.55 126.6 254.53 126.6 260.36 114.97 252.39 114.97 239.42 140.8 247.42 140.8 253.19 129.28 261.22 129.28 255.43 140.8 263.43 140.8 275.03 117.66 284.96 117.66 280.3 126.6 272.57 126.6 270.84 130.06 276.17 140.8 316.9 140.8 311.67 130.25"/><polygon class="cls-5" points="462.12 130.25 450.33 130.25 448.96 132.92 456.04 132.92 458.57 138.04 442.85 138.04 450.69 122.27 452.72 126.34 460.16 126.34 454.45 114.97 446.3 114.97 433.87 139.87 428.55 129.28 437.1 129.28 444.23 114.97 418.84 114.97 413 126.6 404.98 126.6 410.81 114.97 402.84 114.97 389.86 140.8 397.86 140.8 403.64 129.28 411.67 129.28 405.88 140.8 413.88 140.8 425.48 117.66 435.41 117.66 430.74 126.6 423.02 126.6 421.29 130.06 426.62 140.8 467.35 140.8 462.12 130.25"/><polygon class="cls-2" points="158.54 206.93 146.75 206.93 145.38 209.6 152.46 209.6 154.99 214.72 139.27 214.72 147.11 198.95 149.15 203.01 156.58 203.01 150.88 191.65 142.72 191.65 130.29 216.55 124.97 205.96 133.52 205.96 140.65 191.65 115.26 191.65 109.42 203.28 101.4 203.28 107.23 191.65 99.26 191.65 86.28 217.48 94.28 217.48 100.06 205.96 108.09 205.96 102.3 217.48 110.3 217.48 121.9 194.33 131.83 194.33 127.17 203.28 119.44 203.28 117.71 206.74 123.04 217.48 163.77 217.48 158.54 206.93"/><polygon class="cls-6" points="311.67 206.93 299.88 206.93 298.51 209.6 305.59 209.6 308.12 214.72 292.4 214.72 300.24 198.95 302.28 203.01 309.71 203.01 304.01 191.65 295.85 191.65 283.42 216.55 278.11 205.96 286.65 205.96 293.78 191.65 268.39 191.65 262.55 203.28 254.53 203.28 260.36 191.65 252.39 191.65 239.42 217.48 247.42 217.48 253.19 205.96 261.22 205.96 255.43 217.48 263.43 217.48 275.03 194.33 284.96 194.33 280.3 203.28 272.57 203.28 270.84 206.74 276.17 217.48 316.9 217.48 311.67 206.93"/><polygon class="cls-5" points="462.12 206.93 450.33 206.93 448.96 209.6 456.04 209.6 458.57 214.72 442.85 214.72 450.69 198.95 452.72 203.01 460.16 203.01 454.45 191.65 446.3 191.65 433.87 216.55 428.55 205.96 437.1 205.96 444.23 191.65 418.84 191.65 413 203.28 404.98 203.28 410.81 191.65 402.84 191.65 389.86 217.48 397.86 217.48 403.64 205.96 411.67 205.96 405.88 217.48 413.88 217.48 425.48 194.33 435.41 194.33 430.74 203.28 423.02 203.28 421.29 206.74 426.62 217.48 467.35 217.48 462.12 206.93"/><line class="cls-7" x1="58.78" y1="79.43" x2="197.64" y2="25.36"/><line class="cls-7" x1="210.42" y1="80.52" x2="349.28" y2="26.45"/><text class="cls-4" transform="translate(0 55.96)">标准色</text><text class="cls-4" transform="translate(0 133.53)">专色金</text><text class="cls-4" transform="translate(0 210.83)">专色金</text><line class="cls-8" x1="202.67" y1="18.44" x2="202.67" y2="262.16"/><line class="cls-8" x1="357.96" y1="18.44" x2="357.96" y2="262.16"/></g></g></svg>