<svg xmlns="http://www.w3.org/2000/svg" viewBox="0 0 385.31 83.67"><defs><style>.cls-1{fill:#3e3a39;}.cls-2{fill:#595757;}.cls-3{fill:#1e5199;}</style></defs><title>hitrobot_nobody_blue_white</title><g id="图层_2" data-name="图层 2"><g id="图层_1-2" data-name="图层 1"><path class="cls-1" d="M100.54,13.81H112.9L129,35.35V13.81H141.5V52.74H129L113,31.37V52.74H100.54Z"/><path class="cls-1" d="M148.63,33.3q0-9.53,5.84-14.84t16.27-5.31q10.69,0,16.47,5.22T193,33a22.15,22.15,0,0,1-2.53,11.2,17.24,17.24,0,0,1-7.3,6.8,26.11,26.11,0,0,1-11.91,2.43,29.76,29.76,0,0,1-12-2.1,17.45,17.45,0,0,1-7.7-6.64A20.44,20.44,0,0,1,148.63,33.3Zm13.23.05q0,5.9,2.41,8.47a9.77,9.77,0,0,0,13.16.05q2.34-2.52,2.34-9.06,0-5.5-2.44-8a8.76,8.76,0,0,0-6.62-2.54,8.42,8.42,0,0,0-6.43,2.58Q161.86,27.41,161.86,33.36Z"/><path class="cls-1" d="M200.16,13.81h24.77q6.19,0,9.51,2.79a8.68,8.68,0,0,1,3.32,6.9,8.25,8.25,0,0,1-2.37,5.92,10.73,10.73,0,0,1-4.62,2.6,12.31,12.31,0,0,1,6.79,3.47,9,9,0,0,1,2.18,6.17,9.87,9.87,0,0,1-1.55,5.44A10.94,10.94,0,0,1,234,50.94a15,15,0,0,1-5,1.27q-4.47.53-5.93.53H200.16Zm13.35,15.27h5.75q3.1,0,4.31-1a3.38,3.38,0,0,0,1.21-2.8,3.19,3.19,0,0,0-1.21-2.65q-1.22-1-4.22-1h-5.84Zm0,15.3h6.75q3.42,0,4.82-1.1a3.58,3.58,0,0,0,1.4-3,3.31,3.31,0,0,0-1.39-2.78q-1.39-1-4.86-1h-6.72Z"/><path class="cls-1" d="M245,33.3q0-9.53,5.84-14.84t16.27-5.31q10.69,0,16.48,5.22T289.37,33a22.15,22.15,0,0,1-2.53,11.2,17.25,17.25,0,0,1-7.3,6.8,26.1,26.1,0,0,1-11.9,2.43,29.78,29.78,0,0,1-12-2.1,17.46,17.46,0,0,1-7.7-6.64A20.46,20.46,0,0,1,245,33.3Zm13.23.05q0,5.9,2.41,8.47a9.77,9.77,0,0,0,13.16.05q2.34-2.52,2.34-9.06,0-5.5-2.44-8a8.75,8.75,0,0,0-6.62-2.54,8.41,8.41,0,0,0-6.43,2.58Q258.23,27.41,258.23,33.36Z"/><path class="cls-1" d="M296.68,13.81h19.66a25.7,25.7,0,0,1,9.39,1.43,15.2,15.2,0,0,1,5.92,4.12A16.47,16.47,0,0,1,335,25.6a26.47,26.47,0,0,1,1.05,7.54q0,6.24-1.56,9.68a16,16,0,0,1-4.34,5.76,14.59,14.59,0,0,1-6,3.09,33.63,33.63,0,0,1-7.89,1.06H296.68Zm13.23,8.82V43.9h3.24a14.88,14.88,0,0,0,5.9-.84,5.87,5.87,0,0,0,2.75-2.92q1-2.08,1-6.76,0-6.19-2.22-8.47t-7.36-2.28Z"/><path class="cls-1" d="M338.71,13.81h14.7L362,26.95l8.65-13.13h14.62L368.66,36.44V52.74H355.39V36.44Z"/><path class="cls-2" d="M109.89,59.57h2.44V74h-2.44V67.58h-7V74h-2.37V59.57h2.37v5.92h7Z"/><path class="cls-2" d="M122.27,59.57h2.37V74h-2.37Z"/><path class="cls-2" d="M145.51,61.66h-4.8V74h-2.37V61.66h-4.88V59.57h12Z"/><path class="cls-2" d="M179,74h-3.2L171,67.86H168V74h-2.37V59.5h6.75q4.88.14,5.08,4.11,0,3.55-3.83,4.11ZM168,61.66v4h4c2.09,0,3.11-.72,3.06-2.16Q175,61.73,172,61.66Z"/><path class="cls-2" d="M194,59.29q6.61.42,7.1,7.45-.21,7.24-7.24,7.45-6.83-.35-7.1-7.38Q187.1,59.64,194,59.29Zm-.21,13q4.67-.21,4.8-5.43-.35-5-4.66-5.43-4.46.35-4.74,5.43Q189.39,71.9,193.78,72.24Z"/><path class="cls-2" d="M216.67,74h-6.55V59.57h6.2q4.6.21,4.87,3.76a3.25,3.25,0,0,1-1.81,3,3.75,3.75,0,0,1,2.44,3.55Q221.83,74,216.67,74Zm-4.25-12.33v3.83H216q2.72-.07,2.79-2-.14-1.74-2.72-1.81Zm3.83,5.92h-3.83V72h4q2.93,0,2.93-2.23T216.26,67.58Z"/><path class="cls-2" d="M237.69,59.29q6.61.42,7.1,7.45-.21,7.24-7.24,7.45-6.83-.35-7.1-7.38Q230.79,59.64,237.69,59.29Zm-.21,13q4.67-.21,4.8-5.43-.35-5-4.67-5.43-4.46.35-4.73,5.43Q233.09,71.9,237.48,72.24Z"/><path class="cls-2" d="M264.76,61.66H260V74h-2.37V61.66h-4.87V59.57h12Z"/><path class="cls-2" d="M291.32,66.12h6.89v5.5q-2,2.58-6.41,2.58-7.17-.28-7.45-7.38.28-7.24,7.17-7.52,4.88.07,6.55,4.25l-2.51.7a4,4,0,0,0-4.11-2.79q-4.32.35-4.6,5.36.28,5,4.88,5.36a5.15,5.15,0,0,0,4.11-1.46V68.21h-4.53Z"/><path class="cls-2" d="M321,74h-3.2l-4.87-6.13H310V74H307.6V59.5h6.76q4.88.14,5.08,4.11,0,3.55-3.83,4.11ZM310,61.66v4h4q3.13,0,3.06-2.16-.07-1.81-3.06-1.88Z"/><path class="cls-2" d="M335.92,59.29q6.61.42,7.1,7.45-.21,7.24-7.24,7.45-6.82-.35-7.11-7.38Q329,59.64,335.92,59.29Zm-.21,13q4.67-.21,4.81-5.43-.35-5-4.67-5.43-4.46.35-4.74,5.43Q331.32,71.9,335.71,72.24Z"/><path class="cls-2" d="M361.6,59.57H364v8.35q.21,6.55-6.06,6.27-6,.21-5.85-6.27V59.57h2.37v8.35q-.07,4.39,3.48,4.25,3.83.14,3.69-4.25Z"/><path class="cls-2" d="M380,68.41h-3.9V74H373.7V59.5h6.48q4.73.21,5.08,4.39Q385.19,68.35,380,68.41Zm-.21-6.75h-3.69v4.67h3.69q3,0,3-2.44Q382.68,61.73,379.83,61.66Z"/><circle class="cls-3" cx="41.17" cy="41.13" r="3.8"/><path class="cls-3" d="M74.8,16.1V37.25c-1.92,6.08-4.79,8.69-7.9,9.33V8.34A41.84,41.84,0,0,0,9.6,68.5V47c1.58-7.55,4.61-10.74,7.9-11.68V75.85A41.82,41.82,0,0,0,74.8,16.1ZM41,58.24A17.11,17.11,0,0,1,25.3,34.42C20.87,31.2,12.84,27.89,9.6,42.79V35.6C9.6,23,20.52,18.69,32.36,26.41A17.09,17.09,0,0,1,58.15,41.13a17.23,17.23,0,0,1-.24,2.76l-5.6-3.82a11.35,11.35,0,1,0-10,12.31l5.91,4.27A17,17,0,0,1,41,58.24ZM74.8,47.05c0,11.36-7.61,21.73-31.06,1.92a8.25,8.25,0,1,1,5.68-7.84c0,.18,0,.35,0,.53,8.68,6.68,19.68,14.86,25.4-.69Z"/></g></g></svg>