<svg xmlns="http://www.w3.org/2000/svg" viewBox="0 0 283.29 58.51"><defs><style>.cls-1{font-size:7.52px;font-family:FZHTJW--GB1-0, FZHTJW -GB1-0-GBpc-EUC-H;}.cls-1,.cls-3{fill:#10386b;}.cls-2{fill:#231815;font-size:8.12px;}</style></defs><title>hitrobot_hrg_English_chinese_transverse_logo_blue</title><g id="图层_2" data-name="图层 2"><g id="图层_1-2" data-name="图层 1"><text class="cls-1" transform="translate(121.99 56.21) scale(0.95 1)">■<tspan class="cls-2" x="7.52" y="0" xml:space="preserve"> 标准字体</tspan></text><path class="cls-3" d="M0,4.23H8.56v23H6.23V24.94H2.32v2.78H0ZM6.23,22.71V6.46H2.32V22.71ZM21.64.45l-.55.87q3.81,7,9.43,9.85-.94,1.13-1.78,2.26a28.58,28.58,0,0,1-9-9.95A30.74,30.74,0,0,1,10.6,13.6a23.4,23.4,0,0,0-1.68-2A26.44,26.44,0,0,0,18.61.45ZM11.85,18.83H27.14V32.21H24.68V30.27H14.31v1.94H11.85Zm1.26-6.49H26.17V14.6H13.11ZM24.68,28V21.1H14.31V28Z"/><path class="cls-3" d="M35.2,27.2H49.34V5.65H37V3.07H64.56V5.65H52.19V27.2H66.37v2.52H35.2Z"/><path class="cls-3" d="M71.1,29.46q13.33-5.93,14.38-17.8H71.68V9.14H85.59q.08-4.35.08-8.76h2.81q0,4.35-.08,8.76h14.33v2.52H88.35q2.29,12.91,15.06,17A26.87,26.87,0,0,0,101,31.3,22.39,22.39,0,0,1,87.2,16.23Q84.69,26,73.1,32C72.67,31.37,72,30.54,71.1,29.46Z"/><path class="cls-3" d="M107.46,20.45a36.36,36.36,0,0,0,5.15-11.63h-4.83V6.62h5V.26h2.32V6.62h4.52v2.2h-4.52v5.36l1.29-1.29q2.49,2.26,3.91,3.68l-1.74,1.78q-2-2.2-3.46-3.65V31.76h-2.32V14.44a29,29,0,0,1-4.3,8.85Q108,21.84,107.46,20.45Zm17-15.67V15.47q0,11.57-5.78,16.77-.91-1.1-1.91-2.2,5.11-4.49,5.1-14V2.33h12V26.62q0,1.62,1.13,1.62h.74c.69,0,1.13-.6,1.32-1.81q.33-2.49.45-5.36a26.26,26.26,0,0,0,2.45,1q-.28,3.2-.58,5.23-.52,3.42-3.29,3.42h-1.71q-3.1,0-3.1-3.68V4.78Z"/><path class="cls-3" d="M145,13.8h13a9.63,9.63,0,0,0,.65-2.81l2.32.32a14.48,14.48,0,0,1-.56,2.49h7q-1.29-.94-2.73-1.84l1.32-1.46q2.13,1.26,3.84,2.52l-.73.78h6v2.13H162.74q3.73,3.65,13.25,3.46c-.52.88-1,1.71-1.32,2.49L173,21.73V31.6h-2.26V29.82h-6.91v1.75h-2.26v-10h10.29q-9.24-1.25-11.81-5.66h-.58q-1.81,3.84-11.73,5.66h10.34v10h-2.26V29.82H149V31.6h-2.26V21.77L145,22.1q-.49-1-1.26-2.29,10.79-1.39,13-3.88H145ZM146.72,2h11.34v9.4H155.8v-1H149v1.32h-2.26Zm9.08,2H149V8.43h6.82Zm0,19.55H149v4.23h6.82ZM161.55,2H173v9.53h-2.26V10.43h-6.91v1h-2.26Zm9.18,2h-6.91V8.43h6.91Zm0,19.55h-6.91v4.23h6.91Z"/><path class="cls-3" d="M180.33,29.27Q194.42,21.13,195.22.71h2.84a61.79,61.79,0,0,1-.68,6.59q4,16.16,15.06,21.26-1.36,1.49-2.39,2.81-9.6-5.43-13.68-19.21-3.54,13.31-14,19.56A27.36,27.36,0,0,0,180.33,29.27Z"/><path class="cls-3" d="M217.69,21.81h13.92v-2.2h2.26v2.2h13.89v2.06H236.39A32.92,32.92,0,0,0,249,29.27q-.87,1.36-1.51,2.39a35.25,35.25,0,0,1-13.57-7.22V32h-2.26V24.41A39.18,39.18,0,0,1,218,31.73q-.68-1-1.52-2A34.16,34.16,0,0,0,229,23.87H217.69ZM232,1.16,233.91,0a21.19,21.19,0,0,1,2.49,3.29l-1.49.94h12.37v2H235V8.53h10.83V10.4H235v2.29h10.83v1.88H235v2.36h12.34v2H223.83v1.23h-2.26V8.66a37.58,37.58,0,0,1-3.39,3.49A13.26,13.26,0,0,0,216.62,10,34.39,34.39,0,0,0,224.54.39l2.23,1c-.6,1-1.22,1.94-1.84,2.84h9.14A35.28,35.28,0,0,0,232,1.16Zm-8.18,7.37h8.95V6.23h-8.95Zm0,4.17h8.95V10.4h-8.95Zm0,4.23h8.95V14.57h-8.95Z"/><path class="cls-3" d="M255,1.87h28.27V32h-2.46V30.43H257.47V32H255Zm25.81,2.26H257.47v24h23.36ZM259.06,9.85h12.08V5.2h2.39V9.85h6.21V12h-6.21V21.9q0,4.69-4.46,4.69-1.81,0-3.75-.07-.2-1.13-.52-2.55a31.93,31.93,0,0,0,3.68.26q2.65,0,2.65-3V13.66a35.45,35.45,0,0,1-11.6,10.79,11.81,11.81,0,0,0-1.65-2.17A33.45,33.45,0,0,0,269.59,12H259.06Z"/></g></g></svg>