<svg xmlns="http://www.w3.org/2000/svg" viewBox="0 0 455.42 123.41"><defs><style>.cls-1{fill:#fff;stroke:#231815;stroke-width:0.24px;}.cls-2{fill:#231815;}</style></defs><title>hitrobot_nobody_white_left_right</title><g id="图层_2" data-name="图层 2"><g id="图层_1-2" data-name="图层 1"><rect class="cls-1" x="0.12" y="0.12" width="455.18" height="123.18"/><path class="cls-2" d="M117.75,49.21h8l10.42,13.92V49.21h8.06V74.37h-8.06L125.79,60.55V74.37h-8Z"/><path class="cls-2" d="M148.83,61.81q0-6.16,3.77-9.59t10.52-3.43q6.91,0,10.65,3.37t3.74,9.45a14.32,14.32,0,0,1-1.63,7.24,11.16,11.16,0,0,1-4.72,4.39,16.88,16.88,0,0,1-7.69,1.57,19.22,19.22,0,0,1-7.75-1.36,11.29,11.29,0,0,1-5-4.29A13.22,13.22,0,0,1,148.83,61.81Zm8.55,0q0,3.81,1.56,5.48a6.31,6.31,0,0,0,8.5,0q1.51-1.63,1.51-5.85,0-3.55-1.58-5.19a5.65,5.65,0,0,0-4.28-1.64,5.44,5.44,0,0,0-4.15,1.66Q157.38,58,157.38,61.84Z"/><path class="cls-2" d="M182.13,49.21h16a9.3,9.3,0,0,1,6.15,1.8,5.61,5.61,0,0,1,2.14,4.46,5.33,5.33,0,0,1-1.53,3.83,6.91,6.91,0,0,1-3,1.68,8,8,0,0,1,4.39,2.24,5.8,5.8,0,0,1,1.41,4,6.39,6.39,0,0,1-1,3.52A7.09,7.09,0,0,1,204,73.2a9.78,9.78,0,0,1-3.25.82q-2.89.34-3.83.34H182.13Zm8.63,9.87h3.72a4.59,4.59,0,0,0,2.79-.63,2.18,2.18,0,0,0,.78-1.81,2.06,2.06,0,0,0-.78-1.72,4.53,4.53,0,0,0-2.73-.62h-3.78Zm0,9.89h4.36a5.16,5.16,0,0,0,3.12-.71,2.31,2.31,0,0,0,.9-1.91,2.13,2.13,0,0,0-.9-1.79,5.4,5.4,0,0,0-3.14-.68h-4.34Z"/><path class="cls-2" d="M211.11,61.81q0-6.16,3.78-9.59t10.52-3.43q6.91,0,10.65,3.37t3.74,9.45a14.31,14.31,0,0,1-1.63,7.24,11.13,11.13,0,0,1-4.72,4.39,16.88,16.88,0,0,1-7.69,1.57A19.23,19.23,0,0,1,218,73.44a11.28,11.28,0,0,1-5-4.29A13.21,13.21,0,0,1,211.11,61.81Zm8.55,0q0,3.81,1.56,5.48a6.31,6.31,0,0,0,8.5,0q1.51-1.63,1.51-5.85,0-3.55-1.58-5.19a5.66,5.66,0,0,0-4.28-1.64,5.44,5.44,0,0,0-4.15,1.66Q219.66,58,219.66,61.84Z"/><path class="cls-2" d="M244.51,49.21h12.71a16.66,16.66,0,0,1,6.07.93,9.83,9.83,0,0,1,3.82,2.66,10.67,10.67,0,0,1,2.19,4A17.11,17.11,0,0,1,270,61.7,15.52,15.52,0,0,1,269,68a10.36,10.36,0,0,1-2.8,3.72,9.38,9.38,0,0,1-3.85,2,21.67,21.67,0,0,1-5.1.68H244.51Zm8.55,5.7V68.66h2.1a9.59,9.59,0,0,0,3.81-.54,3.79,3.79,0,0,0,1.77-1.89,10.82,10.82,0,0,0,.64-4.37q0-4-1.43-5.47t-4.76-1.48Z"/><path class="cls-2" d="M271.67,49.21h9.5l5.58,8.49,5.59-8.49h9.45L291,63.83V74.37h-8.57V63.83Z"/><path class="cls-2" d="M316.36,49.38h1.76V59.8h-1.76V55.17h-5.09V59.8h-1.71V49.38h1.71v4.28h5.09Z"/><path class="cls-2" d="M321.31,49.38H323V59.8h-1.71Z"/><path class="cls-2" d="M334.12,50.89h-3.47V59.8h-1.71V50.89h-3.52V49.38h8.71Z"/><path class="cls-2" d="M350.36,59.8H348l-3.52-4.43h-2.12V59.8H340.7V49.33h4.88q3.52.1,3.67,3,0,2.57-2.77,3Zm-8-8.91v2.92h2.87q2.27,0,2.22-1.56-.05-1.31-2.22-1.36Z"/><path class="cls-2" d="M357.18,49.18q4.78.3,5.13,5.38-.15,5.24-5.24,5.39-4.93-.25-5.13-5.34Q352.19,49.43,357.18,49.18ZM357,58.54q3.37-.15,3.47-3.93-.25-3.62-3.37-3.93-3.22.26-3.42,3.93Q353.86,58.29,357,58.54Z"/><path class="cls-2" d="M369.58,59.8h-4.73V49.38h4.48q3.32.15,3.52,2.72a2.35,2.35,0,0,1-1.31,2.17,2.71,2.71,0,0,1,1.76,2.57Q373.3,59.8,369.58,59.8Zm-3.07-8.91v2.77h2.57q2,0,2-1.46-.1-1.26-2-1.31Zm2.77,4.28h-2.77v3.17h2.92q2.11,0,2.11-1.61T369.28,55.17Z"/><path class="cls-2" d="M380.77,49.18q4.78.3,5.13,5.38-.15,5.24-5.23,5.39-4.93-.25-5.14-5.34Q375.79,49.43,380.77,49.18Zm-.15,9.36q3.37-.15,3.47-3.93-.25-3.62-3.37-3.93-3.22.26-3.42,3.93Q377.45,58.29,380.62,58.54Z"/><path class="cls-2" d="M396.35,50.89h-3.47V59.8h-1.71V50.89h-3.53V49.38h8.71Z"/><path class="cls-2" d="M314.2,68.57h5v4q-1.41,1.86-4.63,1.86-5.19-.2-5.39-5.34.2-5.24,5.18-5.44a4.71,4.71,0,0,1,4.73,3.07l-1.81.5a2.92,2.92,0,0,0-3-2q-3.12.25-3.32,3.88.2,3.62,3.52,3.88a3.72,3.72,0,0,0,3-1.06V70.08H314.2Z"/><path class="cls-2" d="M331.63,74.26h-2.31l-3.53-4.43h-2.11v4.43H322V63.79h4.88q3.52.1,3.67,3,0,2.57-2.77,3Zm-8-8.91v2.92h2.87q2.26,0,2.21-1.56,0-1.31-2.21-1.36Z"/><path class="cls-2" d="M338.45,63.64q4.78.3,5.13,5.39-.15,5.24-5.23,5.39-4.94-.25-5.14-5.34Q333.46,63.89,338.45,63.64ZM338.29,73q3.37-.15,3.47-3.93-.25-3.63-3.37-3.93-3.22.25-3.42,3.93Q335.12,72.75,338.29,73Z"/><path class="cls-2" d="M353,63.84h1.71v6q.15,4.73-4.38,4.53-4.33.15-4.23-4.53v-6h1.71v6q0,3.17,2.52,3.07,2.77.1,2.67-3.07Z"/><path class="cls-2" d="M362.34,70.23h-2.82v4h-1.76V63.79h4.68q3.42.15,3.68,3.17Q366.07,70.19,362.34,70.23Zm-.15-4.88h-2.67v3.37h2.67q2.16,0,2.16-1.76Q364.26,65.4,362.19,65.35Z"/><circle class="cls-2" cx="79.39" cy="60.46" r="2.43"/><path class="cls-2" d="M100.9,44.45V58c-1.23,3.89-3.06,5.56-5.05,6V39.49A26.76,26.76,0,0,0,59.19,78V64.23c1-4.83,2.95-6.87,5.05-7.47V82.68A26.76,26.76,0,0,0,100.9,44.45Zm-21.6,27A10.95,10.95,0,0,1,69.24,56.17c-2.84-2.06-8-4.18-10,5.35v-4.6c0-8.08,7-10.82,14.56-5.88A10.9,10.9,0,0,1,90.1,62.23l-3.58-2.44a7.24,7.24,0,1,0-7.21,7.92,7.44,7.44,0,0,0,.8,0l3.78,2.73A10.88,10.88,0,0,1,79.3,71.41Zm21.6-7.16c0,7.27-4.87,13.9-19.87,1.23a5.28,5.28,0,1,1,3.63-5c0,.11,0,.23,0,.34,5.55,4.27,12.59,9.51,16.25-.44Z"/></g></g></svg>