<svg xmlns="http://www.w3.org/2000/svg" viewBox="0 0 286.78 155.05"><defs><style>.cls-1{fill:#fff;stroke:#231815;stroke-width:0.29px;}.cls-2{fill:#231815;}</style></defs><title>hitrobot_sign_black_1</title><g id="图层_2" data-name="图层 2"><g id="图层_1-2" data-name="图层 1"><rect class="cls-1" x="0.14" y="0.14" width="286.49" height="154.76"/><path class="cls-2" d="M29.81,82.43A16.48,16.48,0,0,0,27.54,87,30.76,30.76,0,0,0,38.42,99.26,41.7,41.7,0,0,1,29.81,82.43Z"/><path class="cls-2" d="M27.48,86.9l-.06-.13Z"/><path class="cls-2" d="M26.84,85.52l-.06-.13Z"/><path class="cls-2" d="M40.61,100.55l-.3-.16Z"/><path class="cls-2" d="M39.21,99.76l-.12-.07Z"/><path class="cls-2" d="M85.46,71.73l0-.32h-.32c-4-.17-8.29-.26-12.64-.27h-.24a230.88,230.88,0,0,0-23.84,1.06V69.11C51,67.84,60.38,65.5,72,65.44h.61a90.84,90.84,0,0,1,11.46.79l.53.07-.14-.51A30.11,30.11,0,0,0,83,61.55L83,61.36l-.2,0a74.26,74.26,0,0,0-10.13-.74h-.59c-11.31.06-20.61,2.6-23.67,5.14V63c2.29-4.64,12.25-8,23.76-8.07h.4a57,57,0,0,1,6.08.35l.86.09L79,54.69a30.13,30.13,0,0,0-4-4.19l-.09-.08h-.12c-.64,0-1.29,0-1.94,0H72c-10.33,0-20.12,3.73-23.66,8.75V56.7c1.26-5.39,7.5-9.74,16.31-11.36l1.36-.25-1.31-.44A30.54,30.54,0,0,0,26,83.18a13.78,13.78,0,0,1,3.1-3.78,57.56,57.56,0,0,1-1.21-11.78,44.34,44.34,0,0,1,1.58-10.14,49.88,49.88,0,0,0-1,10.14,39.64,39.64,0,0,0,1.64,11,43,43,0,0,1,18-8s-11.08,3.15-17.2,10.54A54.36,54.36,0,0,0,44.7,102.36a30.6,30.6,0,0,0,20,.21l1.32-.44-1.37-.25c-8.9-1.65-15-5.89-16.24-11.34V88.12c3.54,5,13.33,8.71,23.65,8.75h.61c.65,0,1.35,0,2.05-.06h.12l.09-.08a30.85,30.85,0,0,0,4-4.18l.53-.68-.85.1a57.1,57.1,0,0,1-6.05.34h-.4c-11.51,0-21.47-3.43-23.76-8.07V81.49c3.05,2.54,12.35,5.08,23.67,5.14h.59a73.72,73.72,0,0,0,10.11-.74l.2,0,.08-.19a30.63,30.63,0,0,0,1.46-4.23l.13-.52L84.1,81a90.75,90.75,0,0,1-11.44.79H72c-11.66-.06-21.09-2.4-23.66-3.67V75a230.31,230.31,0,0,0,23.84,1.06h.24c4.38,0,8.63-.11,12.64-.27h.32l0-.32c0-.65.06-1.29.06-1.9S85.5,72.35,85.46,71.73Z"/><path class="cls-2" d="M44.56,102.32l-.24-.09Z"/><path class="cls-2" d="M43.18,101.78l-.15-.06Z"/><path class="cls-2" d="M41.77,101.14l-.17-.08Z"/><path class="cls-2" d="M104,77.85V59.38h13.36v2.18H106.4v5.66h10.22v2.17H106.4v6.29h11.34v2.18Z"/><path class="cls-2" d="M126.4,77.85l-7.16-18.48h2.65l4.8,13.42q.58,1.61,1,3,.43-1.51,1-3l5-13.42h2.5l-7.24,18.48Z"/><path class="cls-2" d="M138.38,77.85V59.38h13.36v2.18H140.83v5.66H151v2.17H140.83v6.29h11.34v2.18Z"/><path class="cls-2" d="M155.59,77.85V59.38h8.19a10.9,10.9,0,0,1,3.76.5,4.1,4.1,0,0,1,2.05,1.76,5.25,5.25,0,0,1,.77,2.79,4.65,4.65,0,0,1-1.27,3.32,6.45,6.45,0,0,1-3.93,1.71,6.32,6.32,0,0,1,1.47.92,12.69,12.69,0,0,1,2,2.46l3.21,5h-3.07L166.35,74q-1.07-1.66-1.76-2.55a5.61,5.61,0,0,0-1.24-1.23,3.68,3.68,0,0,0-1.12-.49,7.37,7.37,0,0,0-1.36-.09H158v8.21ZM158,67.53h5.25a7.91,7.91,0,0,0,2.62-.35,2.81,2.81,0,0,0,1.44-1.11,3,3,0,0,0,.49-1.66,2.75,2.75,0,0,0-1-2.15,4.45,4.45,0,0,0-3-.84H158Z"/><path class="cls-2" d="M179.39,77.85V70l-7.12-10.65h3l3.64,5.57q1,1.56,1.88,3.13.83-1.45,2-3.26l3.58-5.43h2.85L181.84,70v7.83Z"/><path class="cls-2" d="M191.3,77.85V59.38h6.93a8.59,8.59,0,0,1,3.4.56,4.39,4.39,0,0,1,2,1.73,4.57,4.57,0,0,1,.72,2.44,4.19,4.19,0,0,1-.64,2.23A4.6,4.6,0,0,1,201.78,68a4.81,4.81,0,0,1,2.58,1.68,4.49,4.49,0,0,1,.9,2.8,5.42,5.42,0,0,1-.55,2.41,4.68,4.68,0,0,1-1.36,1.72,5.69,5.69,0,0,1-2,.91,12.37,12.37,0,0,1-3,.31Zm2.45-10.71h4a9,9,0,0,0,2.33-.21,2.6,2.6,0,0,0,1.4-.92,2.66,2.66,0,0,0,.47-1.61,3,3,0,0,0-.44-1.62,2.24,2.24,0,0,0-1.26-1,10.53,10.53,0,0,0-2.81-.26h-3.69Zm0,8.53h4.6a10.32,10.32,0,0,0,1.66-.09,4,4,0,0,0,1.41-.5,2.69,2.69,0,0,0,.93-1,3.23,3.23,0,0,0,.37-1.56,3.07,3.07,0,0,0-.53-1.79,2.8,2.8,0,0,0-1.47-1.07,9.12,9.12,0,0,0-2.7-.31h-4.27Z"/><path class="cls-2" d="M207.88,68.85a10,10,0,0,1,2.47-7.2,8.4,8.4,0,0,1,6.38-2.6,8.83,8.83,0,0,1,4.61,1.22,8,8,0,0,1,3.13,3.41,11.09,11.09,0,0,1,1.08,5,10.9,10.9,0,0,1-1.13,5A7.74,7.74,0,0,1,221.2,77a9.19,9.19,0,0,1-4.49,1.14A8.74,8.74,0,0,1,212,76.91a8.1,8.1,0,0,1-3.11-3.44A10.43,10.43,0,0,1,207.88,68.85Zm2.52,0a7.41,7.41,0,0,0,1.8,5.26,6.27,6.27,0,0,0,9,0A7.85,7.85,0,0,0,223,68.63a9.46,9.46,0,0,0-.76-3.94A5.87,5.87,0,0,0,220,62.08a6,6,0,0,0-3.3-.93,6.26,6.26,0,0,0-4.47,1.78Q210.4,64.72,210.4,68.89Z"/><path class="cls-2" d="M228.7,77.85V59.38h6.36a15.34,15.34,0,0,1,3.29.27A6.27,6.27,0,0,1,241.06,61a7.52,7.52,0,0,1,2.19,3.16,12.41,12.41,0,0,1,.72,4.39,12.91,12.91,0,0,1-.49,3.73,9.09,9.09,0,0,1-1.26,2.69,6.67,6.67,0,0,1-1.68,1.68,6.88,6.88,0,0,1-2.2.93,12.67,12.67,0,0,1-3,.31Zm2.44-2.18h3.95a9.58,9.58,0,0,0,2.87-.34,4.09,4.09,0,0,0,1.66-1A5.84,5.84,0,0,0,241,72a11.44,11.44,0,0,0,.49-3.56,8.6,8.6,0,0,0-1-4.46,4.8,4.8,0,0,0-2.31-2.09,9.55,9.55,0,0,0-3.16-.38h-3.88Z"/><path class="cls-2" d="M252.54,77.85V70l-7.12-10.65h3L252,64.95q1,1.56,1.88,3.13.83-1.45,2-3.26l3.58-5.43h2.85L255,70v7.83Z"/><path class="cls-2" d="M109.29,84.46H110v7.7h-.67V88.48h-4.62v3.67H104v-7.7h.71v3.44h4.62Z"/><path class="cls-2" d="M116.1,84.46h.67v7.7h-.67Z"/><path class="cls-2" d="M128.35,84.46v.63h-2.68v7.07H125V85.09h-2.68v-.63Z"/><path class="cls-2" d="M147.14,92.16h-.95l-2.73-3.55h-2.25v3.55h-.71v-7.7h3.59q2.41.12,2.57,2.05,0,2-2.45,2.13ZM141.22,85v3h2.69q2,0,2-1.54t-2-1.42Z"/><path class="cls-2" d="M155.85,92.28q-3.51-.16-3.67-3.79.16-3.95,3.79-4.14,3.4.23,3.63,4.07Q159.44,92.16,155.85,92.28Zm0-7.34q-2.72.28-3,3.47.16,3.12,2.92,3.36,2.84-.16,3-3.36Q158.57,85.21,155.89,84.93Z"/><path class="cls-2" d="M168.78,88.13q1.93.35,2.05,2-.12,2-2.53,2h-3.2v-7.7h3q2.25.12,2.41,1.9A2,2,0,0,1,168.78,88.13ZM167.91,85h-2.17v2.84h2.17c1.13-.05,1.75-.55,1.86-1.5Q169.68,85.09,167.91,85Zm.12,3.44h-2.29v3.16h2.45q1.93,0,1.93-1.62Q170,88.6,168,88.48Z"/><path class="cls-2" d="M179.89,92.28q-3.52-.16-3.67-3.79.16-3.95,3.79-4.14,3.4.23,3.63,4.07Q183.48,92.16,179.89,92.28Zm0-7.34q-2.72.28-3,3.47.16,3.12,2.92,3.36,2.84-.16,3-3.36Q182.62,85.21,179.93,84.93Z"/><path class="cls-2" d="M194.68,84.46v.63H192v7.07h-.71V85.09h-2.68v-.63Z"/><path class="cls-2" d="M210.47,88.29h3.2v2.77a3.9,3.9,0,0,1-3.28,1.22q-3.63-.16-3.83-3.83.16-3.95,3.67-4.11a3.27,3.27,0,0,1,3.36,2.17l-.79.2a2.6,2.6,0,0,0-2.64-1.78q-2.61.28-2.84,3.47.2,3.12,3,3.36a3.32,3.32,0,0,0,2.68-1v-1.9h-2.53Z"/><path class="cls-2" d="M226,92.16h-.95l-2.72-3.55h-2.25v3.55h-.71v-7.7H223q2.41.12,2.57,2.05,0,2-2.45,2.13ZM220.12,85v3h2.69q2,0,2-1.54t-2-1.42Z"/><path class="cls-2" d="M234.75,92.28q-3.51-.16-3.67-3.79.16-3.95,3.79-4.14,3.4.23,3.63,4.07Q238.34,92.16,234.75,92.28Zm0-7.34q-2.73.28-3,3.47.16,3.12,2.92,3.36,2.84-.16,3-3.36Q237.47,85.21,234.79,84.93Z"/><path class="cls-2" d="M250.08,84.46V89q0,3.32-3,3.28T244,89V84.46h.71V89q0,2.92,2.29,2.8,2.45.12,2.37-2.8v-4.5Z"/><path class="cls-2" d="M259.34,89h-2.57v3.2h-.67v-7.7h3.32a2.35,2.35,0,0,1,2.53,2.25Q261.91,88.92,259.34,89ZM259.18,85h-2.41v3.32h2.41q2,0,2-1.7T259.18,85Z"/></g></g></svg>