<svg xmlns="http://www.w3.org/2000/svg" viewBox="0 0 219.31 219.31"><defs><style>.cls-1{fill:#231815;}.cls-2{fill:#fff;}</style></defs><title>hitrobot_sign_black_top_down</title><g id="图层_2" data-name="图层 2"><g id="图层_1-2" data-name="图层 1"><rect class="cls-1" width="219.31" height="219.31"/><path class="cls-2" d="M83.79,129.23h0Z"/><path class="cls-2" d="M70.78,105.18a22.88,22.88,0,0,0-3.15,6.39,42.82,42.82,0,0,0,15.15,17C77.52,122.69,73.32,114.56,70.78,105.18Z"/><path class="cls-2" d="M148.25,90.27l0-.45-.45,0c-5.62-.23-11.53-.36-17.6-.38h-.34c-16.16.06-28.74.88-33.18,1.48V86.63c3.57-1.76,16.7-5,32.93-5.11h.84a126.68,126.68,0,0,1,15.95,1.09l.74.1-.19-.71a41.91,41.91,0,0,0-2-5.89l-.11-.26-.28,0a103.17,103.17,0,0,0-14.1-1h-.82c-15.75.08-28.69,3.62-32.94,7.15V78.11c3.19-6.46,17.05-11.18,33.07-11.24h.56a79.38,79.38,0,0,1,8.47.48l1.19.13-.74-.94a42.18,42.18,0,0,0-5.56-5.82l-.13-.11h-.17c-.89,0-1.8-.07-2.71-.07h-1c-14.38.05-28,5.19-32.93,12.18V69.35c1.75-7.51,10.44-13.55,22.7-15.81l1.9-.34-1.83-.62a42.51,42.51,0,0,0-54,53.63,19.14,19.14,0,0,1,4.31-5.27,80.18,80.18,0,0,1-1.68-16.39,61.42,61.42,0,0,1,2.2-14.11,69.11,69.11,0,0,0-1.45,14.11A55.17,55.17,0,0,0,71.1,99.82c6.15-5,15.77-9.47,25.06-11.21,0,0-15.44,4.39-24,14.68a75.71,75.71,0,0,0,19.31,29.62,42.57,42.57,0,0,0,27.81.29l1.83-.61-1.9-.35c-12.38-2.3-20.83-8.2-22.6-15.79v-3.36c4.93,7,18.55,12.13,32.92,12.18h.85c.91,0,1.88,0,2.86-.08h.17l.13-.11a43.16,43.16,0,0,0,5.57-5.81l.74-.95-1.19.13a80.36,80.36,0,0,1-8.42.48h-.56c-16-.06-29.88-4.78-33.07-11.24v-3.82c4.25,3.53,17.19,7.07,32.94,7.15h.82a101.89,101.89,0,0,0,14.07-1l.28,0,.11-.26a42.33,42.33,0,0,0,2-5.89l.19-.72-.74.1a126,126,0,0,1-15.93,1.09h-.84c-16.23-.09-29.35-3.35-32.93-5.11V94.89c4.43.61,17,1.42,33.18,1.48h.34c6.1,0,12-.15,17.6-.38l.45,0,0-.45c.06-.91.09-1.8.09-2.65S148.3,91.14,148.25,90.27Z"/><path class="cls-2" d="M91.21,132.81h0Z"/><path class="cls-2" d="M44.38,164.21V149h11v1.79h-9v4.67h8.42v1.79H46.4v5.18h9.35v1.8Z"/><path class="cls-2" d="M62.88,164.21,57,149h2.18l4,11.06q.48,1.33.8,2.5c.24-.83.51-1.66.82-2.5L68.85,149h2.06l-6,15.23Z"/><path class="cls-2" d="M72.76,164.21V149h11v1.79h-9v4.67H83.2v1.79H74.77v5.18h9.35v1.8Z"/><path class="cls-2" d="M86.94,164.21V149h6.75a9,9,0,0,1,3.1.41,3.39,3.39,0,0,1,1.69,1.45,4.32,4.32,0,0,1,.63,2.29,3.84,3.84,0,0,1-1,2.73,5.32,5.32,0,0,1-3.24,1.41A5.19,5.19,0,0,1,96,158a10.41,10.41,0,0,1,1.67,2l2.65,4.14H97.82l-2-3.17q-.88-1.37-1.45-2.1a4.61,4.61,0,0,0-1-1,3.14,3.14,0,0,0-.92-.4,6,6,0,0,0-1.12-.07H89v6.76Zm2-8.51h4.33a6.48,6.48,0,0,0,2.16-.29,2.28,2.28,0,0,0,1.18-.91,2.46,2.46,0,0,0,.41-1.37,2.28,2.28,0,0,0-.79-1.78,3.67,3.67,0,0,0-2.48-.7H89Z"/><path class="cls-2" d="M106.56,164.21v-6.45L100.69,149h2.45l3,4.59q.83,1.29,1.55,2.58.69-1.19,1.66-2.69L112.3,149h2.35l-6.08,8.78v6.45Z"/><path class="cls-2" d="M116.37,164.21V149h5.71a7.1,7.1,0,0,1,2.8.46,3.6,3.6,0,0,1,1.65,1.42,3.76,3.76,0,0,1,.6,2,3.43,3.43,0,0,1-.53,1.84,3.79,3.79,0,0,1-1.6,1.39,4,4,0,0,1,2.13,1.38,3.72,3.72,0,0,1,.74,2.31,4.44,4.44,0,0,1-.45,2,3.85,3.85,0,0,1-1.12,1.42,4.69,4.69,0,0,1-1.67.75,10.13,10.13,0,0,1-2.46.25Zm2-8.83h3.29a7.36,7.36,0,0,0,1.92-.18,2.14,2.14,0,0,0,1.16-.76,2.19,2.19,0,0,0,.39-1.33,2.45,2.45,0,0,0-.36-1.33,1.84,1.84,0,0,0-1-.79,8.63,8.63,0,0,0-2.32-.21h-3Zm0,7h3.79a8.9,8.9,0,0,0,1.37-.07,3.33,3.33,0,0,0,1.16-.41,2.2,2.2,0,0,0,.77-.85,2.63,2.63,0,0,0,.3-1.28,2.54,2.54,0,0,0-.44-1.48,2.31,2.31,0,0,0-1.21-.88,7.49,7.49,0,0,0-2.23-.25h-3.52Z"/><path class="cls-2" d="M130,156.8a8.27,8.27,0,0,1,2-5.94,6.93,6.93,0,0,1,5.26-2.14,7.29,7.29,0,0,1,3.8,1,6.58,6.58,0,0,1,2.58,2.81,9.14,9.14,0,0,1,.89,4.09,9,9,0,0,1-.94,4.14,6.38,6.38,0,0,1-2.65,2.77,7.59,7.59,0,0,1-3.7.94,7.21,7.21,0,0,1-3.84-1,6.67,6.67,0,0,1-2.57-2.84A8.58,8.58,0,0,1,130,156.8Zm2.08,0a6.11,6.11,0,0,0,1.48,4.34,5.17,5.17,0,0,0,7.46,0,6.47,6.47,0,0,0,1.47-4.54,7.76,7.76,0,0,0-.63-3.24,4.84,4.84,0,0,0-1.84-2.15,5,5,0,0,0-2.72-.76,5.16,5.16,0,0,0-3.68,1.47Q132.11,153.39,132.11,156.83Z"/><path class="cls-2" d="M147.19,164.21V149h5.25a12.8,12.8,0,0,1,2.71.22,5.16,5.16,0,0,1,2.23,1.09,6.2,6.2,0,0,1,1.8,2.6,10.2,10.2,0,0,1,.6,3.62,10.65,10.65,0,0,1-.41,3.07,7.51,7.51,0,0,1-1,2.22,5.53,5.53,0,0,1-1.39,1.38,5.67,5.67,0,0,1-1.82.76,10.44,10.44,0,0,1-2.45.26Zm2-1.8h3.25a7.86,7.86,0,0,0,2.36-.28,3.37,3.37,0,0,0,1.37-.79,4.79,4.79,0,0,0,1.11-1.92,9.41,9.41,0,0,0,.4-2.94,7.08,7.08,0,0,0-.79-3.67,4,4,0,0,0-1.9-1.72,7.9,7.9,0,0,0-2.61-.31h-3.2Z"/><path class="cls-2" d="M166.84,164.21v-6.45L161,149h2.45l3,4.59q.83,1.29,1.55,2.58.68-1.19,1.66-2.69l2.95-4.48h2.35l-6.08,8.78v6.45Z"/><path class="cls-2" d="M48.78,168.32h.55v6.35h-.55v-3H45v3h-.59v-6.35H45v2.83h3.81Z"/><path class="cls-2" d="M54.39,168.32h.55v6.35h-.55Z"/><path class="cls-2" d="M64.49,168.32v.52H62.28v5.82h-.59v-5.82H59.48v-.52Z"/><path class="cls-2" d="M80,174.66H79.2L77,171.74H75.1v2.93h-.59v-6.35h3c1.32.06,2,.63,2.12,1.69s-.67,1.67-2,1.76Zm-4.88-5.86v2.44h2.21Q79,171.22,79,170t-1.66-1.17Z"/><path class="cls-2" d="M87.15,174.76a2.88,2.88,0,0,1-3-3.12q.13-3.25,3.13-3.42,2.8.2,3,3.35Q90.12,174.66,87.15,174.76Zm0-6.06q-2.24.23-2.47,2.87.13,2.57,2.41,2.77,2.35-.13,2.47-2.77Q89.4,168.94,87.18,168.71Z"/><path class="cls-2" d="M97.81,171.34q1.6.3,1.69,1.66-.1,1.63-2.08,1.66H94.78v-6.35h2.47q1.86.1,2,1.56A1.62,1.62,0,0,1,97.81,171.34Zm-.72-2.54H95.3v2.34h1.79q1.4-.06,1.53-1.24C98.58,169.2,98.07,168.83,97.09,168.81Zm.1,2.83H95.3v2.6h2q1.6,0,1.6-1.33C98.85,172.13,98.27,171.7,97.19,171.64Z"/><path class="cls-2" d="M107,174.76a2.88,2.88,0,0,1-3-3.12q.13-3.25,3.12-3.42,2.8.2,3,3.35Q109.93,174.66,107,174.76Zm0-6.06q-2.25.23-2.47,2.87.13,2.57,2.41,2.77,2.34-.13,2.47-2.77Q109.21,168.94,107,168.71Z"/><path class="cls-2" d="M119.15,168.32v.52h-2.21v5.82h-.59v-5.82h-2.21v-.52Z"/><path class="cls-2" d="M132.17,171.47h2.64v2.28a3.21,3.21,0,0,1-2.7,1,3,3,0,0,1-3.16-3.16q.13-3.25,3-3.38a2.7,2.7,0,0,1,2.77,1.79l-.65.16a2.15,2.15,0,0,0-2.18-1.46q-2.15.23-2.34,2.87.16,2.57,2.47,2.77a2.74,2.74,0,0,0,2.21-.81V172h-2.08Z"/><path class="cls-2" d="M145,174.66h-.78L142,171.74h-1.85v2.93h-.59v-6.35h3c1.32.06,2,.63,2.12,1.69s-.67,1.67-2,1.76Zm-4.88-5.86v2.44h2.21q1.66,0,1.66-1.27t-1.66-1.17Z"/><path class="cls-2" d="M152.18,174.76a2.88,2.88,0,0,1-3-3.12q.13-3.25,3.12-3.42,2.8.2,3,3.35Q155.14,174.66,152.18,174.76Zm0-6.06q-2.25.23-2.47,2.87.13,2.57,2.41,2.77,2.34-.13,2.47-2.77Q154.42,168.94,152.21,168.71Z"/><path class="cls-2" d="M164.82,168.32v3.74q0,2.74-2.51,2.7t-2.47-2.7v-3.74h.58V172c0,1.61.61,2.38,1.89,2.31s2-.71,2-2.31v-3.71Z"/><path class="cls-2" d="M172.45,172h-2.12v2.64h-.55v-6.35h2.74a1.94,1.94,0,0,1,2.08,1.85Q174.56,172,172.45,172Zm-.13-3.22h-2v2.73h2q1.63,0,1.66-1.4T172.32,168.81Z"/></g></g></svg>