<svg xmlns="http://www.w3.org/2000/svg" viewBox="0 0 455.18 123.18"><defs><style>.cls-1{fill:#231815;}.cls-2{fill:#fff;}.cls-3{fill:#040000;}</style></defs><title>hitrobot_hrg_zhongdao_white_route</title><g id="图层_2" data-name="图层 2"><g id="图层_1-2" data-name="图层 1"><rect class="cls-1" width="455.18" height="123.18"/><polygon class="cls-2" points="171.79 52.63 151.05 52.63 148.65 57.31 161.1 57.31 165.54 66.3 137.91 66.3 151.69 38.62 155.27 45.76 168.34 45.76 158.31 25.81 143.97 25.81 122.12 69.52 112.78 50.93 127.81 50.93 140.33 25.81 95.7 25.81 85.44 46.22 71.34 46.22 81.58 25.81 67.57 25.81 44.76 71.16 58.83 71.16 68.97 50.93 83.09 50.93 72.92 71.16 86.98 71.16 107.37 30.52 124.83 30.52 116.63 46.22 103.05 46.22 100.01 52.3 109.37 71.16 180.98 71.16 171.79 52.63"/><path class="cls-3" d="M55,64.88l2.73-2a3.41,3.41,0,1,1-2.73-1.36Z"/><circle class="cls-3" cx="56.98" cy="60.79" r="0.49" transform="translate(-24.98 75.82) rotate(-57.24)"/><circle class="cls-3" cx="61.03" cy="52.63" r="0.49" transform="translate(-16.25 75.48) rotate(-57.24)"/><circle class="cls-3" cx="59.01" cy="56.71" r="0.49" transform="translate(-20.59 75.72) rotate(-57.3)"/><circle class="cls-3" cx="91.38" cy="48.54" r="0.49" transform="translate(1.11 99.11) rotate(-57.23)"/><circle class="cls-3" cx="101.58" cy="28.11" r="0.49" transform="translate(22.98 98.33) rotate(-57.25)"/><circle class="cls-3" cx="107.75" cy="28.11" r="0.49" transform="translate(25.84 103.55) rotate(-57.27)"/><circle class="cls-3" cx="113.92" cy="28.11" r="0.49" transform="translate(28.68 108.74) rotate(-57.27)"/><circle class="cls-3" cx="120.09" cy="28.11" r="0.49" transform="translate(31.55 113.97) rotate(-57.29)"/><circle class="cls-3" cx="126.26" cy="28.11" r="0.49" transform="translate(34.35 119.12) rotate(-57.27)"/><circle class="cls-3" cx="99.54" cy="32.2" r="0.49" transform="translate(18.64 98.53) rotate(-57.28)"/><circle class="cls-3" cx="97.5" cy="36.28" r="0.49" transform="translate(14.18 98.57) rotate(-57.19)"/><circle class="cls-3" cx="95.46" cy="40.37" r="0.49" transform="translate(9.92 98.89) rotate(-57.3)"/><circle class="cls-3" cx="93.42" cy="44.46" r="0.49" transform="translate(5.47 98.94) rotate(-57.23)"/><circle class="cls-3" cx="132.43" cy="28.11" r="0.49" transform="translate(36.91 124.04) rotate(-57.11)"/><circle class="cls-3" cx="128.38" cy="36.27" r="0.49" transform="translate(28.42 124.62) rotate(-57.25)"/><circle class="cls-3" cx="126.35" cy="40.35" r="0.49" transform="translate(24.01 124.73) rotate(-57.22)"/><circle class="cls-3" cx="130.41" cy="32.19" r="0.49" transform="matrix(0.54, -0.84, 0.84, 0.54, 32.61, 124.27)"/><circle class="cls-3" cx="124.33" cy="44.44" r="0.49" transform="translate(19.62 124.87) rotate(-57.2)"/><circle class="cls-3" cx="122.3" cy="48.52" r="0.49" transform="translate(15.22 124.98) rotate(-57.17)"/><circle class="cls-3" cx="115.81" cy="48.52" r="0.49" transform="translate(12.26 119.53) rotate(-57.17)"/><circle class="cls-3" cx="109.33" cy="48.52" r="0.49" transform="translate(9.32 114.13) rotate(-57.2)"/><circle class="cls-3" cx="107.26" cy="52.77" r="0.49" transform="translate(4.77 114.29) rotate(-57.17)"/><circle class="cls-3" cx="109.45" cy="57.05" r="0.49" transform="translate(2.2 118.15) rotate(-57.2)"/><circle class="cls-3" cx="111.64" cy="61.34" r="0.49" transform="translate(-0.37 122) rotate(-57.23)"/><circle class="cls-3" cx="113.83" cy="65.62" r="0.49" transform="translate(-2.95 125.85) rotate(-57.25)"/><circle class="cls-3" cx="116.01" cy="69.91" r="0.49" transform="translate(-5.57 129.61) rotate(-57.23)"/><circle class="cls-3" cx="120.43" cy="69.91" r="0.49" transform="translate(-1.45 137.25) rotate(-59.06)"/><circle class="cls-3" cx="124.85" cy="69.91" r="0.49" transform="translate(0.69 141.04) rotate(-59.06)"/><circle class="cls-3" cx="129.27" cy="69.91" r="0.49" transform="translate(2.75 144.68) rotate(-58.99)"/><circle class="cls-3" cx="149.62" cy="28.11" r="0.49" transform="translate(47.25 140.79) rotate(-58.39)"/><circle class="cls-3" cx="147.58" cy="32.29" r="0.49" transform="translate(42.93 141.24) rotate(-58.49)"/><circle class="cls-3" cx="145.55" cy="36.47" r="0.49" transform="translate(38.43 141.55) rotate(-58.52)"/><circle class="cls-3" cx="141.48" cy="44.83" r="0.49" transform="translate(29.21 141.89) rotate(-58.43)"/><circle class="cls-3" cx="139.44" cy="49.01" r="0.49" transform="translate(24.79 142.28) rotate(-58.49)"/><circle class="cls-3" cx="137.41" cy="53.19" r="0.49" transform="translate(20.15 142.42) rotate(-58.43)"/><circle class="cls-3" cx="133.34" cy="61.55" r="0.49" transform="translate(11.13 142.99) rotate(-58.46)"/><circle class="cls-3" cx="131.3" cy="65.73" r="0.49" transform="translate(6.54 143.15) rotate(-58.41)"/><circle class="cls-3" cx="135.37" cy="57.37" r="0.49" transform="translate(15.7 142.78) rotate(-58.48)"/><circle class="cls-3" cx="143.51" cy="40.65" r="0.49" transform="translate(33.76 141.66) rotate(-58.44)"/><circle class="cls-3" cx="153.55" cy="28.11" r="0.49" transform="translate(50.28 145.17) rotate(-58.95)"/><circle class="cls-3" cx="155.45" cy="32.29" r="0.49" transform="translate(52.01 152.74) rotate(-61.08)"/><circle class="cls-3" cx="158.86" cy="39.89" r="3.41"/><polygon class="cls-3" points="155.71 37.48 156.22 34.01 159.18 35.82 156.98 35.69 155.71 37.48"/><circle class="cls-3" cx="63.06" cy="48.54" r="0.49" transform="translate(-11.88 75.32) rotate(-57.25)"/><circle class="cls-3" cx="68.72" cy="48.54" r="0.49" transform="translate(-9.28 80.09) rotate(-57.25)"/><circle class="cls-3" cx="80.05" cy="48.54" r="0.49" transform="translate(-4.07 89.62) rotate(-57.26)"/><circle class="cls-3" cx="85.71" cy="48.54" r="0.49" transform="translate(-1.49 94.35) rotate(-57.23)"/><circle class="cls-3" cx="74.39" cy="48.54" r="0.49" transform="translate(-6.69 84.82) rotate(-57.23)"/><path class="cls-2" d="M194.64,28.72H201v17h-1.72V44h-2.89v2.06h-1.72Zm4.61,13.68v-12h-2.89v12Zm11.41-16.48-.41.64a16.6,16.6,0,0,0,7,7.29c-.46.56-.9,1.11-1.32,1.67a21.12,21.12,0,0,1-6.67-7.37,22.74,22.74,0,0,1-6.77,7.49,18.08,18.08,0,0,0-1.25-1.51,19.57,19.57,0,0,0,7.18-8.22Zm-7.25,13.61h11.31v9.9h-1.82V48h-7.68v1.43h-1.82Zm.93-4.81H214V36.4h-9.66Zm8.56,11.6V41.21h-7.68v5.12Z"/><path class="cls-2" d="M220.69,45.72h10.47v-16h-9.11V27.86h20.38v1.91h-9.16v16h10.5v1.87H220.69Z"/><path class="cls-2" d="M247.27,47.4q9.86-4.39,10.64-13.17H247.7V32.36H258q.06-3.21.06-6.48h2.08q0,3.22-.06,6.48h10.6v1.87H260q1.7,9.55,11.14,12.6a20.21,20.21,0,0,0-1.82,1.94,16.58,16.58,0,0,1-10.18-11.15q-1.86,7.25-10.44,11.63C248.43,48.81,247.94,48.2,247.27,47.4Z"/><path class="cls-2" d="M274.18,40.73A27,27,0,0,0,278,32.12h-3.58V30.49h3.73V25.78h1.72v4.71h3.35v1.62h-3.35v4l1-1q1.84,1.67,2.89,2.72l-1.29,1.32q-1.47-1.63-2.56-2.7V49.1h-1.72V36.28A21.48,21.48,0,0,1,275,42.83Q274.59,41.76,274.18,40.73Zm12.6-11.6V37q0,8.56-4.28,12.41c-.45-.54-.92-1.09-1.41-1.62q3.78-3.33,3.78-10.36V27.31h8.9v18c0,.8.28,1.2.84,1.2h.55c.51,0,.84-.45,1-1.34.16-1.23.27-2.55.34-4a18.39,18.39,0,0,0,1.81.77q-.21,2.37-.43,3.88-.38,2.54-2.44,2.54h-1.27c-1.53,0-2.3-.91-2.3-2.73V29.13Z"/><path class="cls-2" d="M301.95,35.8h9.66a7.17,7.17,0,0,0,.48-2.08l1.72.24a10.83,10.83,0,0,1-.42,1.84h5.21q-1-.69-2-1.36l1-1.07c1,.62,2,1.24,2.84,1.86l-.53.57h4.46v1.58H315.1q2.76,2.71,9.81,2.56-.57,1-1,1.84l-1.22-.11V49H321V47.66h-5.12V49h-1.67V41.56h7.62q-6.84-.92-8.74-4.19h-.43q-1.34,2.85-8.68,4.19h7.65V49H310V47.66h-5V49h-1.67V41.71l-1.31.24q-.36-.72-.93-1.7,8-1,9.59-2.87h-8.66Zm1.29-8.71h8.39v7H310v-.74h-5v1h-1.67ZM310,28.58h-5v3.25h5ZM310,43h-5v3.13h5Zm4.23-16h8.47v7.06H321v-.84h-5.12v.74h-1.67ZM321,28.58h-5.12v3.25H321ZM321,43h-5.12v3.13H321Z"/><path class="cls-2" d="M328.12,47.26q10.43-6,11-21.14h2.1a44.26,44.26,0,0,1-.5,4.88q3,12,11.15,15.74-1,1.1-1.77,2.08-7.1-4-10.13-14.22-2.62,9.85-10.37,14.48A19.72,19.72,0,0,0,328.12,47.26Z"/><path class="cls-2" d="M355.78,41.73h10.31V40.1h1.67v1.63H378v1.53h-8.42a24.39,24.39,0,0,0,9.3,4L377.8,49a26.11,26.11,0,0,1-10-5.34v5.61h-1.67V43.66a29,29,0,0,1-10,5.42c-.33-.5-.71-1-1.12-1.51a25.28,25.28,0,0,0,9.23-4.3h-8.37Zm10.59-15.28,1.41-.86A15.77,15.77,0,0,1,369.62,28l-1.1.69h9.16V30.2h-9.06v1.7h8v1.38h-8V35h8v1.39h-8v1.75h9.13V39.6H360.32v.91h-1.68V32a27.67,27.67,0,0,1-2.51,2.59A9.82,9.82,0,0,0,355,33a25.49,25.49,0,0,0,5.86-7.13l1.65.74c-.44.74-.9,1.44-1.36,2.11h6.77A25.8,25.8,0,0,0,366.37,26.45Zm-6,5.46h6.63V30.2h-6.63Zm0,3.08h6.63v-1.7h-6.63Zm0,3.13h6.63V36.38h-6.63Z"/><path class="cls-2" d="M383.41,27h20.92V49.29h-1.82V48.12H385.22v1.2h-1.82Zm19.11,1.67H385.22V46.44h17.29Zm-16.12,4.23h8.95V29.44h1.77v3.44h4.59v1.63h-4.59V41.8q0,3.47-3.3,3.47-1.34,0-2.78,0c-.09-.56-.22-1.19-.38-1.89a23.72,23.72,0,0,0,2.73.19c1.31,0,2-.74,2-2.22V35.71a26.33,26.33,0,0,1-8.59,8,8.58,8.58,0,0,0-1.22-1.61,24.72,24.72,0,0,0,8.66-7.58h-7.8Z"/><path class="cls-2" d="M202.79,59.85H204V71.16h-1.24V65.9h-6.33v5.26h-1.3V59.85h1.3v4.92h6.33Z"/><path class="cls-2" d="M211.38,59.85h1.24V71.16h-1.24Z"/><path class="cls-2" d="M228,59.85v1.07h-3.84V71.16h-1.3V60.92h-3.85V59.85Z"/><path class="cls-2" d="M252.8,71.16H251l-3.9-5.09h-3v5.09h-1.3V59.85h5.26q3.62.17,3.85,3.05,0,2.94-3.39,3.17ZM244.15,61v4h3.67c1.84,0,2.77-.74,2.77-2.09Q250.54,61,247.83,61Z"/><path class="cls-2" d="M263.77,71.33q-5.15-.29-5.37-5.6.22-5.76,5.54-6,5,.34,5.37,5.93Q269.07,71.1,263.77,71.33Zm.05-10.52q-3.73.33-4.12,4.8.22,4.35,4,4.69,4-.23,4.18-4.69Q267.55,61.15,263.82,60.81Z"/><path class="cls-2" d="M280.44,71.16h-4.69V59.85h4.41q3.4.17,3.62,2.83a2.52,2.52,0,0,1-2.26,2.49v.06a2.87,2.87,0,0,1,2.71,2.89Q284.06,71,280.44,71.16ZM279.87,61h-2.94v3.79h2.94q2.32-.11,2.55-2C282.34,61.6,281.49,61,279.87,61ZM280,65.9h-3.11v4.24h3.33q2.66,0,2.66-2.2Q282.75,66,280,65.9Z"/><path class="cls-2" d="M295.87,71.33q-5.15-.29-5.37-5.6.22-5.76,5.54-6,5,.34,5.37,5.93Q301.18,71.1,295.87,71.33Zm.05-10.52q-3.73.33-4.12,4.8.22,4.35,4,4.69,4-.23,4.18-4.69Q299.65,61.15,295.92,60.81Z"/><path class="cls-2" d="M316,59.85v1.07H312.2V71.16h-1.3V60.92H307V59.85Z"/><path class="cls-2" d="M336,65.33h4.86v4.13q-1.41,1.87-4.86,1.87-5.31-.29-5.6-5.66.22-5.77,5.37-6a5,5,0,0,1,5,3.33l-1.42.34a3.64,3.64,0,0,0-3.67-2.54q-3.62.33-4,4.8.28,4.35,4.18,4.69A4.52,4.52,0,0,0,339.66,69V66.41H336Z"/><path class="cls-2" d="M357.63,71.16h-1.75L352,66.07h-3v5.09h-1.3V59.85h5.26q3.62.17,3.85,3.05,0,2.94-3.39,3.17ZM349,61v4h3.68q2.77-.06,2.77-2.09Q355.37,61,352.66,61Z"/><path class="cls-2" d="M368.6,71.33q-5.15-.29-5.37-5.6.23-5.76,5.54-6,5,.34,5.37,5.93Q373.91,71.1,368.6,71.33Zm.05-10.52q-3.73.33-4.12,4.8.22,4.35,4,4.69,4-.23,4.19-4.69Q372.39,61.15,368.65,60.81Z"/><path class="cls-2" d="M389.56,59.85v6.61q.06,4.92-4.52,4.86t-4.41-4.86V59.85h1.3v6.56q-.05,4,3.11,3.9,3.4.11,3.28-3.9V59.85Z"/><path class="cls-2" d="M401.49,66.58H398v4.58h-1.24V59.85h4.86q3.45.17,3.79,3.34Q405.33,66.52,401.49,66.58Zm-.23-5.6H398v4.47h3.28c1.8,0,2.73-.81,2.77-2.32S403,61,401.27,61Z"/><rect class="cls-2" x="193.69" y="54.09" width="211.63" height="0.47"/><path class="cls-2" d="M45.34,84.6h6.43V81H53.2V84.6H59.7v7.61H58.33v-.9H53.2v6.21H51.77V91.31H46.71v.9H45.34Zm1.37,5.47h5.06V85.84H46.71Zm11.62-4.24H53.2v4.24h5.12Z"/><path class="cls-2" d="M78.71,91.28H90.36V90.06h1.35v1.22h3.61v1.18H91.71v2.72q0,2-2.17,2l-2.67,0c-.06-.41-.14-.89-.25-1.44q1.53.12,2.54.12,1.2,0,1.2-1V92.46H78.71Zm4.42-2.87h8.75q1.35,0,1.55-.85a14.68,14.68,0,0,0,.37-1.85q.55.25,1.32.52-.25,1.13-.47,1.85-.43,1.5-2.45,1.5H82.87a1.93,1.93,0,0,1-2.22-2.15V81.82h12v5.07H91.35v-.57H81.93v1Q81.93,88.41,83.14,88.41Zm-1.29,5,.82-.87Q84.52,94,85.44,94.8l-1,1Q82.94,94.31,81.85,93.38ZM81.93,83v2.2h9.41V83Z"/><path class="cls-2" d="M113.2,91.46a18.74,18.74,0,0,0,2.66-6h-2.5V84.32H116V81h1.2v3.29h2.34v1.13h-2.34v2.77l.67-.67q1.29,1.17,2,1.9l-.9.92q-1-1.13-1.79-1.88V97.3H116V88.36a15,15,0,0,1-2.22,4.57Q113.49,92.18,113.2,91.46Zm8.8-8.09v5.52q0,6-3,8.66-.47-.57-1-1.13,2.64-2.32,2.64-7.23V82.1h6.21V94.65q0,.83.58.83h.38q.53,0,.68-.93.17-1.29.23-2.77a13.19,13.19,0,0,0,1.27.53q-.15,1.65-.3,2.7-.27,1.77-1.7,1.77h-.89q-1.6,0-1.6-1.9V83.37Z"/><path class="cls-2" d="M148.31,88h6.74a5,5,0,0,0,.33-1.45l1.2.17a7.67,7.67,0,0,1-.29,1.28h3.64q-.67-.48-1.41-1l.68-.75a23.61,23.61,0,0,1,2,1.3l-.38.4h3.11v1.1h-6.44q1.93,1.89,6.84,1.78-.4.69-.68,1.29l-.85-.08v5.1h-1.17V96.3h-3.57v.9h-1.17V92h5.32q-4.77-.64-6.1-2.92h-.3q-.93,2-6.06,2.92h5.34V97.2h-1.17v-.9h-3.52v.92h-1.17V92.15l-.92.17q-.25-.5-.65-1.18,5.57-.72,6.69-2h-6Zm.9-6.07h5.86v4.86H153.9v-.52h-3.52V87h-1.17Zm4.69,1h-3.52v2.27h3.52Zm0,10.1h-3.52v2.19h3.52Zm3-11.13h5.91v4.92h-1.17v-.58H158v.52h-1.17Zm4.74,1H158v2.27h3.57Zm0,10.1h-3.57v2.19h3.57Z"/><path class="cls-2" d="M182.29,96q7.28-4.21,7.69-14.75h1.47a32.13,32.13,0,0,1-.35,3.4q2.07,8.35,7.78,11-.7.76-1.23,1.45-5-2.8-7.07-9.92a16,16,0,0,1-7.23,10.1A14.79,14.79,0,0,0,182.29,96Z"/><path class="cls-2" d="M216.75,92.88a18.64,18.64,0,0,0,2.87-5.69H217V86h2.74V83.55l-2.42.23a8.42,8.42,0,0,0-.33-1.24q3.24-.23,6.43-.73l.43,1.24q-1.5.2-2.85.35V86h2.65v1.18H221v1.89l.73-.67q1.2,1,2.22,2l-.93,1q-1.07-1.2-2-2.09v8.18h-1.25V89.94a17.64,17.64,0,0,1-2.34,4.36C217.19,93.84,217,93.37,216.75,92.88Zm6-.88,6.54-.58V81.1h1.29v10.2l2.64-.25.1,1.2-2.74.25v5h-1.29V92.61l-6.41.58Zm1-4.29.8-.85q1.9,1.49,2.87,2.37l-.87,1Q225.79,89.43,223.78,87.71Zm1-4,.77-.83q1.85,1.42,3,2.49l-.87,1A36.71,36.71,0,0,0,224.76,83.7Z"/><path class="cls-2" d="M251.27,89.84l2.44-.71v-3.6h-2.22V84.39h2.22V81.15H255v3.24h2v1.15h-2v3.2l1.87-.61c0,.53,0,1,0,1.3L255,90v5.38q0,1.77-1.67,1.79-.67,0-1.6,0-.1-.7-.22-1.42,1,.1,1.49.1.72,0,.72-.75V90.46l-2.27.77Zm6.19-1.23v-1.1h4.29V85H257.4V83.73h4.35V81h1.34v2.69h4.54V85h-4.54v2.55h3.55v1a13.54,13.54,0,0,1-3.35,5.41,13.15,13.15,0,0,0,4.65,2.25q-.63.74-1.07,1.29a17.23,17.23,0,0,1-4.6-2.68,21.74,21.74,0,0,1-5.13,2.81,14.07,14.07,0,0,0-.88-1.18,18.11,18.11,0,0,0,5.09-2.5,12.85,12.85,0,0,1-2.78-5.29Zm7.73,0h-5.33a10.39,10.39,0,0,0,2.5,4.46A10.67,10.67,0,0,0,265.19,88.61Z"/><path class="cls-2" d="M290.55,97.39h-1.32V88.75a28.72,28.72,0,0,1-2.67,2.71c-.23-.39-.5-.8-.8-1.22a21.17,21.17,0,0,0,5-6h-4.56V83h5.19a18.07,18.07,0,0,0,.82-2.14l1.38.32q-.33.93-.73,1.82h9.43v1.24h-10q-.52,1-1.13,1.92h9.15V95.1a1.81,1.81,0,0,1-2,2.07l-2.69,0c-.06-.38-.14-.83-.25-1.37q1.53.12,2.47.12A1,1,0,0,0,299,94.8V93.62h-8.41Zm8.41-10h-8.41v2H299Zm-8.41,5.12H299v-2h-8.41Z"/><path class="cls-2" d="M326.19,90.93q.48,3.19-1.58,3.57a5.28,5.28,0,0,1-1.69,0,11.83,11.83,0,0,0-.37-1.4,4.25,4.25,0,0,0,1.53.13q1.14-.22.77-2.39a7.21,7.21,0,0,0-1.52-3q.6-1.82,1.57-4.86h-2.47V97.59h-1.25V81.85h5.06V83q-.82,2.35-1.57,4.64A7.34,7.34,0,0,1,326.19,90.93Zm1.07-9h7.91v8.31h-1.23v-.45h-2.82a9.77,9.77,0,0,0,1.42,2.7,29.46,29.46,0,0,0,3.17-2.35l.88,1.05q-1.84,1.28-3.27,2.2A10.63,10.63,0,0,0,337,95.72a9.68,9.68,0,0,0-1.07,1.22,11.37,11.37,0,0,1-6-7.18h-1.44v5.67q1.12-.5,2.92-1.47a12.94,12.94,0,0,0,.08,1.32q-1.49.72-2.89,1.55a5.38,5.38,0,0,0-.9.7l-1-1.25a1.4,1.4,0,0,0,.5-1.1ZM333.93,83h-5.44v2.22h5.44Zm0,5.59V86.37h-5.44v2.25Z"/><path class="cls-2" d="M354.84,88.89a19.35,19.35,0,0,0,5.56-7.16l1.32.55A22.67,22.67,0,0,1,355.9,90,6.8,6.8,0,0,0,354.84,88.89ZM365.7,91q2.4,3.12,4.06,5.68l-1.27.83q-.47-.77-1-1.59-5.51.27-9,.54a12,12,0,0,0-1.54.28l-.73-1.42a4.25,4.25,0,0,0,1.39-.92,35.15,35.15,0,0,0,4.24-6.66l1.44.65A64.58,64.58,0,0,1,358.91,95q3.45-.11,7.8-.31-.95-1.44-2.09-3Zm-1.44-9,1.24-.49a13.19,13.19,0,0,0,6,6.91,11,11,0,0,0-1,1.3A15.8,15.8,0,0,1,364.26,82Z"/><path class="cls-2" d="M389.64,85.15h12.72v1.23H389.64Zm1-2V81.88H405v13q0,2.37-2.14,2.37l-3.29,0a8.75,8.75,0,0,0-.28-1.44q2,.12,3.19.12t1.15-1.34V83.12Zm.7,5.24h8.76v5.91h-7.44v1.22h-1.32Zm7.44,4.71v-3.5h-6.13v3.5Z"/></g></g></svg>