<svg xmlns="http://www.w3.org/2000/svg" viewBox="0 0 286.78 155.05"><defs><style>.cls-1{fill:#fff;stroke:#231815;stroke-width:0.29px;}.cls-2{fill:#231815;}</style></defs><title>hitrobot_logo_black</title><g id="图层_2" data-name="图层 2"><g id="图层_1-2" data-name="图层 1"><rect class="cls-1" x="0.14" y="0.14" width="286.49" height="154.76"/><polygon class="cls-2" points="224.85 81.66 198.43 81.66 195.36 87.63 211.23 87.63 216.9 99.1 181.68 99.1 199.24 63.76 203.8 72.88 220.46 72.88 207.68 47.42 189.4 47.42 161.54 103.21 149.64 79.48 168.79 79.48 184.76 47.42 127.88 47.42 114.79 73.47 96.81 73.47 109.87 47.42 92.02 47.42 62.94 105.3 80.87 105.3 93.81 79.48 111.8 79.48 98.83 105.3 116.75 105.3 142.75 53.43 165 53.43 154.55 73.47 137.24 73.47 133.37 81.23 145.3 105.3 236.57 105.3 224.85 81.66"/></g></g></svg>