<svg xmlns="http://www.w3.org/2000/svg" viewBox="0 0 351.63 90.21"><defs><style>.cls-1{fill:#0d509b;}.cls-2{font-size:38.11px;fill:#2f2725;font-family:ArialMT, Arial;}.cls-3{font-size:14.93px;fill:#595757;font-family:FZLTXHK--GBK1-0, FZLTXHK -GBK1-0-GBpc-EUC-H;letter-spacing:0.4em;}</style></defs><title>hitrobot_sign</title><g id="图层_2" data-name="图层 2"><g id="图层_1-2" data-name="图层 1"><path class="cls-1" d="M24,84.93l-.52-.28Z"/><path class="cls-1" d="M21.88,83.75l-.24-.14Z"/><path class="cls-1" d="M8,58.14a24.37,24.37,0,0,0-3.35,6.79A45.42,45.42,0,0,0,20.68,83C15.09,76.74,10.65,68.1,8,58.14Z"/><path class="cls-1" d="M3.59,62.73l-.1-.25Z"/><path class="cls-1" d="M4.51,64.74l-.08-.17Z"/><path class="cls-1" d="M29.76,87.52l-.42-.16Z"/><path class="cls-1" d="M90.12,42.34l0-.47-.47,0c-6-.25-12.24-.38-18.67-.4h-.36c-17.14.06-30.49.93-35.2,1.57V38.48c3.79-1.87,17.71-5.33,34.93-5.42h.89a134.05,134.05,0,0,1,16.92,1.16l.78.1-.2-.76a44.53,44.53,0,0,0-2.15-6.24L86.45,27l-.29,0a109.66,109.66,0,0,0-15-1.09h-.87C53.63,26,39.9,29.75,35.39,33.49V29.44c3.38-6.85,18.09-11.86,35.08-11.92h.6a84.4,84.4,0,0,1,9,.51l1.26.14-.79-1A44.58,44.58,0,0,0,74.62,11l-.13-.12H74.3c-.95,0-1.91-.07-2.87-.07H70.32c-15.25.06-29.7,5.5-34.93,12.93V20.15c1.86-8,11.08-14.38,24.08-16.77l2-.37-1.94-.65A45.09,45.09,0,0,0,2.29,59.26a20.32,20.32,0,0,1,4.58-5.59A85,85,0,0,1,5.09,36.28a65.36,65.36,0,0,1,2.33-15,73.51,73.51,0,0,0-1.54,15,58.56,58.56,0,0,0,2.4,16.19c6.53-5.29,16.73-10,26.59-11.89,0,0-16.38,4.65-25.41,15.57A80.29,80.29,0,0,0,29.94,87.58a45.15,45.15,0,0,0,29.5.3l1.95-.65-2-.37c-13.14-2.44-22.1-8.7-24-16.75V66.55C40.62,74,55.07,79.41,70.31,79.47h.9c1,0,2,0,3-.08h.18l.13-.12a45.54,45.54,0,0,0,5.91-6.17l.79-1L80,72.23a84.34,84.34,0,0,1-8.94.51h-.59c-17-.06-31.7-5.07-35.08-11.92V56.76c4.51,3.75,18.24,7.5,34.95,7.59h.87a108.38,108.38,0,0,0,14.93-1.09l.29,0,.12-.27A45.29,45.29,0,0,0,88.7,56.7l.2-.76-.78.11a134,134,0,0,1-16.9,1.16h-.89c-17.21-.1-31.14-3.55-34.93-5.42V47.24c4.71.64,18.05,1.51,35.2,1.57h.36c6.47,0,12.75-.16,18.67-.4l.48,0,0-.48c.06-1,.09-1.91.09-2.81S90.18,43.27,90.12,42.34Z"/><path class="cls-1" d="M27.74,86.73l-.31-.13Z"/><path class="cls-1" d="M25.65,85.79l-.37-.18Z"/><text class="cls-2" transform="translate(114.42 51.39)">EVERYBODY</text><text class="cls-3" transform="translate(116.16 72.16)">HIT ROBOT GROUP</text></g></g></svg>