<svg xmlns="http://www.w3.org/2000/svg" viewBox="0 0 332.01 50.44"><defs><style>.cls-1{font-size:7.52px;font-family:FZHTJW--GB1-0, FZHTJW -GB1-0-GBpc-EUC-H;}.cls-1,.cls-3{fill:#10386b;}.cls-2{fill:#231815;font-size:7.44px;}</style></defs><title>hitrobot_hrg_English_transverse_logo_blue</title><g id="图层_2" data-name="图层 2"><g id="图层_1-2" data-name="图层 1"><text class="cls-1" transform="translate(144.36 48.31) scale(0.95 1)">■<tspan class="cls-2" x="7.52" y="0" xml:space="preserve"> 标准字体</tspan></text><path class="cls-3" d="M12.05.27h2V18.12h-2V9.82h-10v8.3H0V.27H2.05V8h10Z"/><path class="cls-3" d="M25.62.27h2V18.12h-2Z"/><path class="cls-3" d="M51.95.27V2H45.88V18.12H43.82V2H37.75V.27Z"/><path class="cls-3" d="M91,18.12H88.27l-6.16-8H77.38v8H75.32V.27h8.3q5.71.27,6.07,4.82,0,4.64-5.36,5ZM77.38,2.05V8.3h5.8q4.37-.08,4.38-3.3-.09-2.86-4.37-2.95Z"/><path class="cls-3" d="M108.35,18.39q-8.13-.45-8.48-8.84Q100.22.44,108.62,0q7.95.53,8.48,9.38Q116.74,18,108.35,18.39Zm.09-16.61q-5.89.53-6.52,7.59.36,6.87,6.34,7.41,6.25-.36,6.61-7.41Q114.33,2.32,108.44,1.79Z"/><path class="cls-3" d="M134.68,18.12h-7.41V.27h7q5.36.27,5.71,4.46a4,4,0,0,1-3.57,3.93v.09q4,.63,4.29,4.55Q140.39,17.95,134.68,18.12Zm-.89-16.07h-4.64V8h4.64q3.66-.18,4-3.21Q137.62,2.14,133.79,2.05Zm.27,7.77h-4.91v6.69h5.27q4.19,0,4.19-3.48Q138.34,10,134.05,9.82Z"/><path class="cls-3" d="M159,18.39q-8.12-.45-8.48-8.84Q150.92.44,159.31,0q7.94.53,8.48,9.38Q167.43,18,159,18.39Zm.09-16.61q-5.89.53-6.52,7.59.35,6.87,6.34,7.41,6.24-.36,6.6-7.41Q165,2.32,159.13,1.79Z"/><path class="cls-3" d="M190.9.27V2h-6.07V18.12h-2.05V2h-6.07V.27Z"/><path class="cls-3" d="M222.49,8.93h7.68v6.51q-2.23,2.95-7.68,2.95-8.39-.45-8.84-8.93Q214,.36,222.14,0q6,.09,7.95,5.27l-2.23.54a5.76,5.76,0,0,0-5.8-4q-5.72.53-6.25,7.59.45,6.87,6.61,7.41,4,0,5.8-2.14v-4h-5.71Z"/><path class="cls-3" d="M256.59,18.12h-2.77l-6.16-8h-4.73v8h-2.05V.27h8.3q5.71.27,6.07,4.82,0,4.64-5.36,5ZM242.93,2.05V8.3h5.8q4.37-.08,4.38-3.3-.09-2.86-4.38-2.95Z"/><path class="cls-3" d="M273.9,18.39q-8.12-.45-8.48-8.84Q265.78.44,274.17,0q7.94.53,8.48,9.38Q282.3,18,273.9,18.39ZM274,1.79q-5.89.53-6.51,7.59.35,6.87,6.34,7.41,6.25-.36,6.61-7.41Q279.89,2.32,274,1.79Z"/><path class="cls-3" d="M307,.27V10.71q.09,7.77-7.14,7.68-7.05.09-7-7.68V.27H295V10.62q-.09,6.34,4.91,6.16,5.36.18,5.18-6.16V.27Z"/><path class="cls-3" d="M325.85,10.89h-5.54v7.23h-2V.27H326q5.44.27,6,5.27Q331.92,10.8,325.85,10.89Zm-.36-8.84h-5.18V9.11h5.18q4.29-.09,4.38-3.66Q329.69,2.15,325.49,2.05Z"/></g></g></svg>