<svg xmlns="http://www.w3.org/2000/svg" viewBox="0 0 264.13 169.84"><defs><style>.cls-1{fill:#b6b6b6;}.cls-2,.cls-3{font-size:8px;}.cls-2{fill:#595757;font-family:MicrosoftYaHei, Microsoft YaHei;}.cls-3{fill:#fff;font-family:ArialMT, Arial;}.cls-4{letter-spacing:-0.07em;}.cls-5{letter-spacing:-0.02em;}</style></defs><title>hitrobot_logo_silvery</title><g id="图层_2" data-name="图层 2"><g id="图层_1-2" data-name="图层 1"><rect class="cls-1" y="100.38" width="264.13" height="53.71"/><polygon class="cls-1" points="207.62 31.57 183.25 31.57 180.43 37.08 195.06 37.08 200.28 47.65 167.81 47.65 184.01 15.07 188.21 23.48 203.56 23.48 191.79 0 174.93 0 149.25 51.44 138.27 29.56 155.94 29.56 170.65 0 118.21 0 106.15 24.02 89.58 24.02 101.61 0 85.15 0 58.35 53.37 74.88 53.37 86.8 29.56 103.39 29.56 91.44 53.37 107.95 53.37 131.92 5.54 152.44 5.54 142.8 24.02 126.84 24.02 123.28 31.17 134.28 53.37 218.42 53.37 207.62 31.57"/><text class="cls-2" transform="translate(0.7 167.8) scale(0.95 1)">专色银</text><text class="cls-3" transform="translate(14.96 116.08)"><tspan class="cls-4">P</tspan><tspan x="4.74" y="0">AN</tspan><tspan class="cls-5" x="15.86" y="0">T</tspan><tspan x="20.6" y="0" xml:space="preserve">ONE  877C</tspan></text></g></g></svg>