<svg xmlns="http://www.w3.org/2000/svg" viewBox="0 0 598.97 291.33"><defs><style>.cls-1{font-size:7.52px;font-family:FZHTJW--GB1-0, FZHTJW -GB1-0-GBpc-EUC-H;}.cls-1,.cls-11{fill:#10386b;}.cls-2{fill:#c4d82d;}.cls-3,.cls-5,.cls-8{fill:#231815;}.cls-3{letter-spacing:0em;}.cls-4{fill:#e60012;}.cls-5{letter-spacing:0em;}.cls-6{fill:#6a0d2c;}.cls-12,.cls-13,.cls-7{fill:none;}.cls-12,.cls-7{stroke:#231815;}.cls-7{stroke-width:0.27px;}.cls-9{fill:#00a29a;}.cls-10{fill:#173269;}.cls-12{stroke-width:0.27px;}.cls-13{stroke:#727171;stroke-width:0.71px;}</style></defs><title>hitrobot_hrg_Error_combination</title><g id="图层_2" data-name="图层 2"><g id="图层_1-2" data-name="图层 1"><text class="cls-1" transform="translate(0 115.49) scale(0.95 1)">■<tspan class="cls-2" x="7.52" y="0"> </tspan><tspan class="cls-3" x="9.21" y="0">字体变形</tspan></text><text class="cls-1" transform="translate(216.81 115.49) scale(0.95 1)">■<tspan class="cls-2" x="7.52" y="0"> </tspan><tspan class="cls-4" x="9.21" y="0"> </tspan><tspan class="cls-5" x="10.89" y="0">颜色混用</tspan></text><text class="cls-1" transform="translate(430.64 115.49) scale(0.95 1)">■<tspan class="cls-2" x="7.52" y="0"> </tspan><tspan class="cls-6" x="9.21" y="0"> </tspan><tspan class="cls-5" x="10.89" y="0">错误组合</tspan></text><rect class="cls-7" x="1" y="12.37" width="164.67" height="89.58"/><text class="cls-1" transform="translate(0 289.2) scale(0.95 1)">■<tspan class="cls-2" x="7.52" y="0"> </tspan><tspan class="cls-3" x="9.21" y="0">标志变形</tspan></text><text class="cls-1" transform="translate(216.81 289.2) scale(0.95 1)">■<tspan class="cls-2" x="7.52" y="0"> </tspan><tspan class="cls-8" x="9.21" y="0" xml:space="preserve"> 位置颠倒</tspan></text><text class="cls-1" transform="translate(430.64 289.2) scale(0.95 1)">■<tspan class="cls-2" x="7.52" y="0"> </tspan><tspan class="cls-6" x="9.21" y="0"> </tspan><tspan class="cls-5" x="10.89" y="0">字体错用</tspan></text><rect class="cls-7" x="219.11" y="12.37" width="164.67" height="89.58"/><polygon class="cls-9" points="334.19 44.73 322.98 44.73 321.68 47.27 328.41 47.27 330.82 52.13 315.87 52.13 323.32 37.14 325.26 41.01 332.33 41.01 326.91 30.2 319.15 30.2 307.32 53.88 302.27 43.81 310.4 43.81 317.18 30.2 293.04 30.2 287.48 41.26 279.86 41.26 285.4 30.2 277.82 30.2 265.48 54.77 273.09 54.77 278.58 43.81 286.22 43.81 280.71 54.77 288.32 54.77 299.35 32.75 308.79 32.75 304.36 41.26 297.01 41.26 295.37 44.55 300.43 54.77 339.17 54.77 334.19 44.73"/><path class="cls-10" d="M248.26,62.55h3.21v8.61h-.87v-.85h-1.47v1h-.87Zm2.34,6.93V63.38h-1.47v6.09Zm5.78-8.35-.21.33a8.41,8.41,0,0,0,3.54,3.69q-.35.42-.67.85a10.71,10.71,0,0,1-3.38-3.73,11.52,11.52,0,0,1-3.43,3.79,8.83,8.83,0,0,0-.63-.76,9.92,9.92,0,0,0,3.63-4.17ZM252.7,68h5.73v5h-.92v-.73h-3.89V73h-.92Zm.47-2.43h4.89v.85h-4.89Zm4.34,5.87V68.87h-3.89v2.59Z"/><path class="cls-10" d="M261.45,71.16h5.3V63.08h-4.61v-1h10.32v1h-4.64v8.08h5.32v.95H261.45Z"/><path class="cls-10" d="M274.91,72q5-2.22,5.39-6.67h-5.17v-.95h5.21q0-1.63,0-3.28h1.05q0,1.63,0,3.28h5.37v.95h-5.39A7.72,7.72,0,0,0,287,71.71a10,10,0,0,0-.92,1A8.39,8.39,0,0,1,280.95,67q-.94,3.68-5.29,5.89Q275.42,72.61,274.91,72Z"/><path class="cls-10" d="M288.54,68.63a13.61,13.61,0,0,0,1.93-4.36h-1.81v-.82h1.89V61.06h.87v2.39h1.7v.82h-1.7v2l.48-.48q.93.85,1.47,1.38l-.65.67q-.74-.82-1.3-1.37v6.39h-.87V66.37a10.85,10.85,0,0,1-1.61,3.32Q288.75,69.15,288.54,68.63Zm6.38-5.87v4q0,4.34-2.17,6.29-.34-.41-.71-.82Q294,70.54,294,67V61.83h4.5v9.11c0,.4.14.61.42.61h.28c.26,0,.42-.23.5-.68q.12-.93.17-2a9.57,9.57,0,0,0,.92.39q-.11,1.2-.22,2-.19,1.28-1.23,1.28h-.64q-1.16,0-1.16-1.38V62.75Z"/><path class="cls-10" d="M302.6,66.13h4.89a3.64,3.64,0,0,0,.24-1.05l.87.12a5.49,5.49,0,0,1-.21.93H311q-.48-.35-1-.69l.5-.55a17.12,17.12,0,0,1,1.44.94l-.27.29h2.26v.8h-4.67q1.4,1.37,5,1.3c-.19.33-.36.64-.5.93l-.62-.05v3.7h-.85v-.67h-2.59v.66h-.85V69.05h3.86q-3.46-.47-4.43-2.12H308q-.68,1.44-4.4,2.12h3.88v3.74h-.85v-.66h-2.56v.67h-.85V69.12l-.67.12q-.18-.36-.47-.86,4-.52,4.86-1.45H302.6Zm.65-4.41h4.25v3.52h-.85v-.38H304.1v.5h-.85Zm3.4.75H304.1v1.65h2.56Zm0,7.33h-2.56v1.59h2.56Zm2.14-8.08h4.29V65.3h-.85v-.42h-2.59v.38h-.85Zm3.44.75h-2.59v1.65h2.59Zm0,7.33h-2.59v1.59h2.59Z"/><path class="cls-10" d="M315.86,71.93q5.28-3,5.58-10.7h1.07a22.91,22.91,0,0,1-.25,2.47q1.5,6.06,5.64,8-.51.56-.9,1.05-3.6-2-5.13-7.2a11.57,11.57,0,0,1-5.25,7.33A10.56,10.56,0,0,0,315.86,71.93Z"/><path class="cls-10" d="M329.86,69.14h5.22v-.82h.85v.82h5.21v.77h-4.26a12.32,12.32,0,0,0,4.71,2l-.57.9a13.23,13.23,0,0,1-5.09-2.71V73h-.85V70.11A14.69,14.69,0,0,1,330,72.85q-.25-.37-.57-.76a12.81,12.81,0,0,0,4.67-2.18h-4.24Zm5.37-7.74.71-.44a8,8,0,0,1,.93,1.23l-.56.35H341v.75h-4.59v.86h4.06v.7h-4.06v.86h4.06v.7h-4.06v.88H341v.75h-8.83v.46h-.85V64.21A14.27,14.27,0,0,1,330,65.52a4.92,4.92,0,0,0-.58-.8,12.87,12.87,0,0,0,3-3.61l.84.38q-.34.56-.69,1.07H336A13.23,13.23,0,0,0,335.23,61.4Zm-3.06,2.76h3.35V63.3h-3.35Zm0,1.56h3.35v-.86h-3.35Zm0,1.59h3.35v-.88h-3.35Z"/><path class="cls-10" d="M343.85,61.66h10.6V73h-.92v-.59h-8.76V73h-.92Zm9.68.85h-8.76v9h8.76Zm-8.16,2.14h4.53V62.91h.9v1.74h2.33v.82h-2.33v3.69q0,1.76-1.67,1.76l-1.4,0c0-.28-.11-.6-.19-1a12,12,0,0,0,1.38.1q1,0,1-1.13V66.08a13.3,13.3,0,0,1-4.35,4,4.45,4.45,0,0,0-.62-.81,12.55,12.55,0,0,0,4.38-3.84h-3.95Z"/><path class="cls-10" d="M252.38,78.31H253V84h-.63V81.38h-3.21V84h-.66V78.31h.66V80.8h3.21Z"/><path class="cls-10" d="M256.73,78.31h.63V84h-.63Z"/><path class="cls-10" d="M265.18,78.31v.54h-1.95V84h-.66V78.86h-1.95v-.54Z"/><path class="cls-10" d="M277.71,84h-.89l-2-2.58h-1.52V84h-.66V78.31h2.66q1.83.08,1.95,1.55t-1.72,1.6Zm-4.38-5.15v2h1.86q1.4,0,1.4-1.06t-1.4-.95Z"/><path class="cls-10" d="M283.26,84.12a2.61,2.61,0,0,1-2.72-2.83q.11-2.92,2.81-3.06,2.55.17,2.72,3A2.66,2.66,0,0,1,283.26,84.12Zm0-5.33q-1.89.17-2.09,2.43.11,2.21,2,2.38,2-.11,2.12-2.38Q285.18,79,283.29,78.8Z"/><path class="cls-10" d="M291.71,84h-2.38V78.31h2.23q1.72.08,1.83,1.43A1.28,1.28,0,0,1,292.25,81v0a1.46,1.46,0,0,1,1.37,1.46Q293.54,84,291.71,84Zm-.29-5.15h-1.49V80.8h1.49q1.17-.06,1.29-1Q292.65,78.91,291.42,78.88Zm.09,2.49h-1.57v2.15h1.69q1.34,0,1.34-1.12T291.51,81.38Z"/><path class="cls-10" d="M299.52,84.12a2.61,2.61,0,0,1-2.72-2.83q.11-2.92,2.81-3.06,2.55.17,2.72,3A2.65,2.65,0,0,1,299.52,84.12Zm0-5.33q-1.89.17-2.09,2.43.11,2.21,2,2.38,2-.11,2.12-2.38Q301.44,79,299.55,78.8Z"/><path class="cls-10" d="M309.74,78.31v.54h-1.95V84h-.66V78.86h-1.95v-.54Z"/><path class="cls-10" d="M319.87,81.09h2.46v2.09a2.9,2.9,0,0,1-2.46.94A2.69,2.69,0,0,1,317,81.26q.11-2.92,2.72-3a2.51,2.51,0,0,1,2.55,1.69l-.72.17a1.85,1.85,0,0,0-1.86-1.29q-1.83.17-2,2.43a2.2,2.2,0,0,0,2.12,2.38,2.29,2.29,0,0,0,1.86-.69V81.63h-1.83Z"/><path class="cls-10" d="M330.8,84h-.89l-2-2.58h-1.52V84h-.66V78.31h2.66q1.83.08,1.95,1.55t-1.72,1.6Zm-4.38-5.15v2h1.86q1.4,0,1.4-1.06t-1.4-.95Z"/><path class="cls-10" d="M336.35,84.12a2.61,2.61,0,0,1-2.72-2.83q.11-2.92,2.81-3.06,2.55.17,2.72,3A2.65,2.65,0,0,1,336.35,84.12Zm0-5.33q-1.89.17-2.09,2.43.11,2.21,2,2.38,2-.11,2.12-2.38Q338.27,79,336.38,78.8Z"/><path class="cls-10" d="M347,78.31v3.35q0,2.49-2.29,2.46t-2.23-2.46V78.31h.66v3.32q0,2,1.58,2t1.66-2V78.31Z"/><path class="cls-10" d="M353,81.72h-1.78V84h-.63V78.31h2.46A1.77,1.77,0,0,1,355,80Q355,81.69,353,81.72Zm-.11-2.83h-1.66v2.26h1.66q1.37,0,1.4-1.17T352.9,78.88Z"/><rect class="cls-10" x="247.78" y="75.39" width="107.18" height="0.24"/><rect class="cls-7" x="434.17" y="12.37" width="164.67" height="89.58"/><polygon class="cls-11" points="549.06 44.02 537.85 44.02 536.55 46.56 543.28 46.56 545.69 51.43 530.74 51.43 538.19 36.43 540.13 40.3 547.2 40.3 541.77 29.49 534.02 29.49 522.19 53.17 517.14 43.1 525.27 43.1 532.05 29.49 507.91 29.49 502.35 40.55 494.72 40.55 500.27 29.49 492.69 29.49 480.35 54.06 487.96 54.06 493.45 43.1 501.08 43.1 495.58 54.06 503.19 54.06 514.22 32.04 523.66 32.04 519.23 40.55 511.88 40.55 510.24 43.84 515.3 54.06 554.04 54.06 549.06 44.02"/><path class="cls-11" d="M463.41,71.13h3.21v8.61h-.87V78.9h-1.47v1h-.87Zm2.34,6.93V72h-1.47v6.09Zm5.78-8.35-.21.33a8.41,8.41,0,0,0,3.54,3.69q-.35.42-.67.85a10.71,10.71,0,0,1-3.38-3.73,11.52,11.52,0,0,1-3.43,3.79,8.82,8.82,0,0,0-.63-.76,9.92,9.92,0,0,0,3.63-4.17Zm-3.67,6.89h5.73v5h-.92V80.9h-3.89v.73h-.92Zm.47-2.43h4.89V75h-4.89ZM472.66,80V77.46h-3.89V80Z"/><path class="cls-11" d="M476.6,79.74h5.3V71.67h-4.61v-1h10.32v1H483v8.08h5.32v.95H476.6Z"/><path class="cls-11" d="M490.06,80.59q5-2.22,5.39-6.67h-5.17V73h5.21q0-1.63,0-3.28h1.05q0,1.63,0,3.28h5.37v.95h-5.39a7.72,7.72,0,0,0,5.64,6.38,10,10,0,0,0-.92,1,8.39,8.39,0,0,1-5.15-5.65q-.94,3.68-5.29,5.89Q490.57,81.2,490.06,80.59Z"/><path class="cls-11" d="M503.69,77.21a13.6,13.6,0,0,0,1.93-4.36h-1.81V72h1.89V69.64h.87V72h1.7v.82h-1.7v2l.48-.48q.93.85,1.47,1.38l-.65.67q-.74-.82-1.3-1.37v6.39h-.87V75a10.86,10.86,0,0,1-1.61,3.32Q503.89,77.73,503.69,77.21Zm6.38-5.87v4q0,4.34-2.17,6.29-.34-.41-.71-.82,1.91-1.68,1.91-5.24V70.42h4.5v9.11c0,.4.14.61.42.61h.28q.39,0,.5-.68.12-.93.17-2a9.57,9.57,0,0,0,.92.39q-.11,1.2-.22,2-.19,1.28-1.23,1.28h-.64q-1.16,0-1.16-1.38V71.34Z"/><path class="cls-11" d="M517.75,74.72h4.89a3.64,3.64,0,0,0,.24-1.05l.87.12a5.49,5.49,0,0,1-.21.93h2.64q-.48-.35-1-.69l.5-.55a17.08,17.08,0,0,1,1.44.94l-.27.29h2.26v.8h-4.67q1.4,1.37,5,1.3c-.19.33-.36.64-.5.93l-.62-.05v3.7h-.85v-.67h-2.59v.66H524V77.64h3.86q-3.46-.47-4.43-2.12h-.22q-.68,1.44-4.4,2.12h3.88v3.74h-.85v-.66h-2.56v.67h-.85V77.71l-.67.12q-.18-.36-.47-.86,4-.52,4.86-1.45h-4.38Zm.66-4.41h4.25v3.52h-.85v-.38h-2.56V74h-.85Zm3.4.75h-2.56v1.65h2.56Zm0,7.33h-2.56V80h2.56ZM524,70.31h4.29v3.57h-.85v-.42h-2.59v.38H524Zm3.44.75h-2.59v1.65h2.59Zm0,7.33h-2.59V80h2.59Z"/><path class="cls-11" d="M531,80.52q5.28-3,5.58-10.71h1.07a22.88,22.88,0,0,1-.25,2.47q1.5,6.06,5.64,8-.51.56-.9,1.05-3.6-2-5.13-7.2a11.57,11.57,0,0,1-5.25,7.33A10.57,10.57,0,0,0,531,80.52Z"/><path class="cls-11" d="M545,77.72h5.22V76.9h.85v.82h5.21v.77H552a12.32,12.32,0,0,0,4.71,2l-.57.9a13.23,13.23,0,0,1-5.09-2.71v2.84h-.85V78.7a14.68,14.68,0,0,1-5.09,2.74q-.25-.37-.57-.76a12.8,12.8,0,0,0,4.67-2.18H545ZM550.38,70l.71-.44a7.89,7.89,0,0,1,.93,1.23l-.56.35h4.64v.75h-4.59v.86h4.06v.7h-4.06v.86h4.06V75h-4.06v.88h4.63v.75h-8.83v.46h-.85V72.79a14.24,14.24,0,0,1-1.27,1.31,4.93,4.93,0,0,0-.58-.8,12.87,12.87,0,0,0,3-3.61l.84.38q-.34.56-.69,1.07h3.43A13.22,13.22,0,0,0,550.38,70Zm-3.06,2.76h3.35v-.86h-3.35Zm0,1.56h3.35v-.86h-3.35Zm0,1.59h3.35V75h-3.35Z"/><path class="cls-11" d="M559,70.25h10.6v11.3h-.92V81h-8.76v.61H559Zm9.68.85h-8.76v9h8.76Zm-8.16,2.14H565V71.5h.9v1.74h2.33v.82h-2.33v3.69q0,1.76-1.67,1.76l-1.4,0q-.07-.42-.19-1a12,12,0,0,0,1.38.1q1,0,1-1.13V74.67a13.3,13.3,0,0,1-4.35,4,4.45,4.45,0,0,0-.62-.81,12.55,12.55,0,0,0,4.38-3.84h-3.95Z"/><path class="cls-11" d="M467.45,60.59h.63v5.73h-.63V63.65h-3.21v2.66h-.66V60.59h.66v2.49h3.21Z"/><path class="cls-11" d="M471.8,60.59h.63v5.73h-.63Z"/><path class="cls-11" d="M480.24,60.59v.54h-1.95v5.18h-.66V61.13h-1.95v-.54Z"/><path class="cls-11" d="M492.78,66.32h-.89l-2-2.58h-1.52v2.58h-.66V60.59h2.66q1.83.09,1.95,1.55t-1.72,1.6Zm-4.38-5.15v2h1.86q1.4,0,1.4-1.06t-1.4-.94Z"/><path class="cls-11" d="M498.33,66.4a2.61,2.61,0,0,1-2.72-2.83q.11-2.92,2.81-3.06,2.55.17,2.72,3A2.65,2.65,0,0,1,498.33,66.4Zm0-5.32q-1.89.17-2.09,2.43.11,2.2,2,2.38,2-.12,2.12-2.38Q500.25,61.25,498.36,61.08Z"/><path class="cls-11" d="M506.77,66.32h-2.38V60.59h2.23q1.72.09,1.83,1.43a1.28,1.28,0,0,1-1.14,1.26v0a1.46,1.46,0,0,1,1.37,1.46Q508.6,66.26,506.77,66.32Zm-.29-5.15H505v1.92h1.49q1.17-.06,1.29-1Q507.71,61.19,506.48,61.16Zm.09,2.49H505V65.8h1.69q1.34,0,1.35-1.12T506.57,63.65Z"/><path class="cls-11" d="M514.58,66.4a2.61,2.61,0,0,1-2.72-2.83q.11-2.92,2.81-3.06,2.55.17,2.72,3A2.65,2.65,0,0,1,514.58,66.4Zm0-5.32q-1.89.17-2.09,2.43.11,2.2,2,2.38,2-.12,2.12-2.38Q516.5,61.25,514.61,61.08Z"/><path class="cls-11" d="M524.8,60.59v.54h-1.95v5.18h-.66V61.13h-1.95v-.54Z"/><path class="cls-11" d="M534.93,63.37h2.46v2.09a2.9,2.9,0,0,1-2.46.95,2.69,2.69,0,0,1-2.83-2.86q.11-2.92,2.72-3a2.51,2.51,0,0,1,2.55,1.69l-.72.17a1.85,1.85,0,0,0-1.86-1.29q-1.83.17-2,2.43a2.2,2.2,0,0,0,2.12,2.38,2.29,2.29,0,0,0,1.86-.69V63.91h-1.83Z"/><path class="cls-11" d="M545.86,66.32H545l-2-2.58h-1.52v2.58h-.66V60.59h2.66q1.83.09,1.95,1.55t-1.72,1.6Zm-4.38-5.15v2h1.86q1.4,0,1.4-1.06t-1.4-.94Z"/><path class="cls-11" d="M551.42,66.4a2.61,2.61,0,0,1-2.72-2.83q.11-2.92,2.81-3.06,2.55.17,2.72,3A2.65,2.65,0,0,1,551.42,66.4Zm0-5.32q-1.89.17-2.09,2.43.11,2.2,2,2.38,2-.12,2.12-2.38Q553.33,61.25,551.44,61.08Z"/><path class="cls-11" d="M562,60.59v3.35q0,2.49-2.29,2.46t-2.23-2.46V60.59h.66v3.32q0,2,1.58,2t1.66-2V60.59Z"/><path class="cls-11" d="M568.07,64H566.3v2.32h-.63V60.59h2.46a1.77,1.77,0,0,1,1.92,1.69Q570,64,568.07,64ZM568,61.16H566.3v2.26H568q1.37,0,1.4-1.17T568,61.16Z"/><rect class="cls-11" x="462.84" y="68.45" width="107.18" height="0.24"/><rect class="cls-12" x="1" y="189.58" width="164.67" height="85.65"/><polygon class="cls-11" points="105.96 219.97 98.31 219.97 97.42 222.5 102.02 222.5 103.66 227.37 93.46 227.37 98.55 212.37 99.87 216.24 104.69 216.24 100.99 205.44 95.7 205.44 87.63 229.11 84.18 219.04 89.73 219.04 94.35 205.44 77.88 205.44 74.09 216.5 68.89 216.5 72.67 205.44 67.5 205.44 59.08 230 64.27 230 68.02 219.04 73.23 219.04 69.47 230 74.66 230 82.19 207.99 88.63 207.99 85.61 216.5 80.59 216.5 79.47 219.79 82.93 230 109.36 230 105.96 219.97"/><path class="cls-11" d="M30.15,237.78h3.21v8.61h-.87v-.85H31v1h-.87Zm2.34,6.93v-6.09H31v6.09Zm5.78-8.34-.21.33a8.4,8.4,0,0,0,3.54,3.69c-.23.28-.46.56-.67.85a10.7,10.7,0,0,1-3.38-3.73,11.54,11.54,0,0,1-3.43,3.79,9,9,0,0,0-.63-.76,9.91,9.91,0,0,0,3.63-4.17Zm-3.67,6.89h5.73v5H39.4v-.73H35.52v.73H34.6Zm.47-2.43H40v.85H35.07Zm4.34,5.87v-2.59H35.52v2.59Z"/><path class="cls-11" d="M43.34,246.4h5.3v-8.08H44v-1H54.35v1H49.72v8.08H55v.94H43.34Z"/><path class="cls-11" d="M56.8,247.24q5-2.22,5.39-6.67H57v-.94h5.21q0-1.63,0-3.28h1.05q0,1.63,0,3.28h5.37v.94H63.27A7.72,7.72,0,0,0,68.91,247a10.16,10.16,0,0,0-.92,1,8.39,8.39,0,0,1-5.15-5.65q-.94,3.67-5.29,5.89C57.39,248,57.14,247.65,56.8,247.24Z"/><path class="cls-11" d="M70.43,243.86a13.62,13.62,0,0,0,1.93-4.36H70.56v-.82h1.89v-2.39h.87v2.39H75v.82h-1.7v2l.48-.48q.93.85,1.47,1.38l-.65.67q-.74-.82-1.3-1.37v6.39h-.87v-6.49a10.86,10.86,0,0,1-1.61,3.32Q70.64,244.38,70.43,243.86ZM76.82,238v4q0,4.34-2.17,6.29-.34-.41-.71-.82,1.91-1.68,1.91-5.24v-5.15h4.5v9.11c0,.4.14.61.42.61h.28q.39,0,.5-.68c.08-.62.14-1.29.17-2a9.83,9.83,0,0,0,.92.39q-.11,1.2-.22,2-.19,1.28-1.23,1.28h-.64q-1.16,0-1.16-1.38V238Z"/><path class="cls-11" d="M84.5,241.37h4.89a3.66,3.66,0,0,0,.24-1.05l.87.12a5.53,5.53,0,0,1-.21.93h2.64c-.32-.24-.66-.46-1-.69l.5-.54a17.1,17.1,0,0,1,1.44.95l-.27.29h2.26v.8H91.16q1.4,1.37,5,1.29-.29.5-.5.93l-.62-.05V248h-.85v-.67H91.57V248h-.85v-3.74h3.86q-3.46-.47-4.43-2.12h-.22q-.68,1.44-4.4,2.12h3.88V248h-.85v-.65H86V248h-.85v-3.68l-.67.12q-.18-.36-.47-.86,4-.52,4.86-1.45H84.5Zm.65-4.41H89.4v3.52h-.85v-.38H86v.5h-.85Zm3.4.75H86v1.65h2.56Zm0,7.33H86v1.59h2.56ZM90.71,237H95v3.57h-.85v-.42H91.56v.38h-.85Zm3.44.75H91.56v1.65h2.59Zm0,7.33H91.57v1.59h2.59Z"/><path class="cls-11" d="M97.75,247.17q5.28-3.05,5.58-10.71h1.07a22.83,22.83,0,0,1-.25,2.47q1.5,6.06,5.64,8-.51.56-.9,1.05-3.6-2-5.13-7.2a11.58,11.58,0,0,1-5.25,7.33A10.41,10.41,0,0,0,97.75,247.17Z"/><path class="cls-11" d="M111.76,244.37H117v-.82h.85v.82H123v.77h-4.26a12.32,12.32,0,0,0,4.71,2l-.57.89a13.23,13.23,0,0,1-5.09-2.71v2.84H117v-2.85a14.66,14.66,0,0,1-5.09,2.74q-.25-.37-.57-.76a12.82,12.82,0,0,0,4.67-2.18h-4.24Zm5.37-7.74.71-.44a8,8,0,0,1,.93,1.23l-.56.35h4.64v.75h-4.59v.86h4.06v.7h-4.06V241h4.06v.7h-4.06v.88h4.63v.75h-8.83v.46h-.85v-4.31a14.13,14.13,0,0,1-1.27,1.31,4.93,4.93,0,0,0-.58-.8,12.89,12.89,0,0,0,3-3.61l.84.38c-.23.37-.46.73-.69,1.07h3.43A13.37,13.37,0,0,0,117.12,236.63Zm-3.06,2.76h3.35v-.86h-3.35Zm0,1.56h3.35v-.86h-3.35Zm0,1.59h3.35v-.88h-3.35Z"/><path class="cls-11" d="M125.75,236.9h10.6v11.3h-.92v-.59h-8.76v.61h-.92Zm9.68.85h-8.76v9h8.76Zm-8.16,2.14h4.53v-1.74h.9v1.74H135v.82h-2.33v3.69q0,1.76-1.67,1.76l-1.4,0q-.07-.42-.19-1a12,12,0,0,0,1.38.1q1,0,1-1.13v-2.83a13.31,13.31,0,0,1-4.35,4,4.43,4.43,0,0,0-.62-.81,12.56,12.56,0,0,0,4.38-3.84h-3.95Z"/><path class="cls-11" d="M34.28,253.55h.63v5.73h-.63v-2.66H31.07v2.66h-.66v-5.73h.66V256h3.21Z"/><path class="cls-11" d="M38.63,253.55h.63v5.73h-.63Z"/><path class="cls-11" d="M47.07,253.55v.54H45.13v5.18h-.66v-5.18H42.52v-.54Z"/><path class="cls-11" d="M59.61,259.27h-.89l-2-2.58H55.23v2.58h-.66v-5.73h2.66q1.83.09,1.95,1.55t-1.72,1.6Zm-4.38-5.15v2h1.86q1.4,0,1.4-1.06t-1.4-.94Z"/><path class="cls-11" d="M65.16,259.36a2.61,2.61,0,0,1-2.72-2.83q.11-2.92,2.81-3.06,2.55.17,2.72,3A2.65,2.65,0,0,1,65.16,259.36Zm0-5.32q-1.89.17-2.09,2.43.11,2.2,2,2.38,2-.12,2.12-2.38Q67.08,254.21,65.19,254Z"/><path class="cls-11" d="M73.6,259.27H71.23v-5.73h2.23q1.72.09,1.83,1.43a1.28,1.28,0,0,1-1.14,1.26v0a1.46,1.46,0,0,1,1.37,1.46Q75.43,259.22,73.6,259.27Zm-.29-5.15H71.83V256h1.49q1.17-.06,1.29-1Q74.55,254.15,73.32,254.12Zm.09,2.49H71.83v2.15h1.69q1.34,0,1.34-1.12T73.4,256.61Z"/><path class="cls-11" d="M81.42,259.36a2.61,2.61,0,0,1-2.72-2.83q.11-2.92,2.81-3.06,2.55.17,2.72,3A2.65,2.65,0,0,1,81.42,259.36Zm0-5.32q-1.89.17-2.09,2.43.11,2.2,2,2.38,2-.12,2.12-2.38Q83.33,254.21,81.44,254Z"/><path class="cls-11" d="M91.63,253.55v.54H89.69v5.18H89v-5.18H87.08v-.54Z"/><path class="cls-11" d="M101.76,256.33h2.46v2.09a2.9,2.9,0,0,1-2.46.95,2.69,2.69,0,0,1-2.83-2.86q.11-2.92,2.72-3a2.51,2.51,0,0,1,2.55,1.69l-.72.17a1.85,1.85,0,0,0-1.86-1.29q-1.83.17-2,2.43a2.2,2.2,0,0,0,2.12,2.38,2.29,2.29,0,0,0,1.86-.69v-1.29h-1.83Z"/><path class="cls-11" d="M112.7,259.27h-.89l-2-2.58h-1.52v2.58h-.66v-5.73h2.66q1.83.09,1.95,1.55t-1.72,1.6Zm-4.38-5.15v2h1.86q1.4,0,1.4-1.06t-1.4-.94Z"/><path class="cls-11" d="M118.25,259.36a2.61,2.61,0,0,1-2.72-2.83q.11-2.92,2.81-3.06,2.55.17,2.72,3A2.65,2.65,0,0,1,118.25,259.36Zm0-5.32q-1.89.17-2.09,2.43.11,2.2,2,2.38,2-.12,2.12-2.38Q120.17,254.21,118.28,254Z"/><path class="cls-11" d="M128.87,253.55v3.35q0,2.49-2.29,2.46t-2.23-2.46v-3.35H125v3.32q0,2,1.58,2t1.66-2v-3.32Z"/><path class="cls-11" d="M134.91,257h-1.78v2.32h-.63v-5.73H135a1.77,1.77,0,0,1,1.92,1.69Q136.85,256.93,134.91,257Zm-.11-2.83h-1.66v2.26h1.66q1.37,0,1.4-1.17T134.79,254.12Z"/><rect class="cls-11" x="29.67" y="250.63" width="107.18" height="0.24"/><rect class="cls-12" x="219.11" y="189.58" width="164.67" height="85.65"/><polygon class="cls-11" points="334.19 248.58 322.98 248.58 321.68 251.12 328.41 251.12 330.82 255.99 315.87 255.99 323.32 240.99 325.26 244.86 332.33 244.86 326.91 234.05 319.15 234.05 307.32 257.73 302.27 247.66 310.4 247.66 317.18 234.05 293.04 234.05 287.48 245.11 279.86 245.11 285.4 234.05 277.82 234.05 265.48 258.62 273.09 258.62 278.58 247.66 286.22 247.66 280.71 258.62 288.32 258.62 299.35 236.6 308.79 236.6 304.36 245.11 297.01 245.11 295.37 248.4 300.43 258.62 339.17 258.62 334.19 248.58"/><path class="cls-11" d="M248.26,207h3.21v8.61h-.87v-.85h-1.47v1h-.87Zm2.34,6.93v-6.09h-1.47v6.09Zm5.78-8.35-.21.33a8.4,8.4,0,0,0,3.54,3.69q-.35.42-.67.85a10.71,10.71,0,0,1-3.38-3.73,11.52,11.52,0,0,1-3.43,3.79,8.82,8.82,0,0,0-.63-.76,9.92,9.92,0,0,0,3.63-4.17Zm-3.67,6.89h5.73v5h-.92v-.73h-3.89v.73h-.92Zm.47-2.43h4.89v.85h-4.89Zm4.34,5.87v-2.59h-3.89v2.59Z"/><path class="cls-11" d="M261.45,215.58h5.3V207.5h-4.61v-1h10.32v1h-4.64v8.08h5.32v.95H261.45Z"/><path class="cls-11" d="M274.91,216.43q5-2.22,5.39-6.67h-5.17v-.95h5.21q0-1.63,0-3.28h1.05q0,1.63,0,3.28h5.37v.95h-5.39a7.72,7.72,0,0,0,5.64,6.38,10,10,0,0,0-.92,1,8.39,8.39,0,0,1-5.15-5.65q-.94,3.68-5.29,5.89Q275.42,217,274.91,216.43Z"/><path class="cls-11" d="M288.54,213a13.61,13.61,0,0,0,1.93-4.36h-1.81v-.82h1.89v-2.39h.87v2.39h1.7v.82h-1.7v2l.48-.48q.93.85,1.47,1.38l-.65.67q-.74-.82-1.3-1.37v6.39h-.87V210.8a10.86,10.86,0,0,1-1.61,3.32Q288.75,213.57,288.54,213Zm6.38-5.87v4q0,4.34-2.17,6.29-.34-.41-.71-.82Q294,215,294,211.4v-5.15h4.5v9.11c0,.4.14.61.42.61h.28q.39,0,.5-.68.12-.93.17-2a9.57,9.57,0,0,0,.92.39q-.11,1.2-.22,2-.19,1.28-1.23,1.28h-.64q-1.16,0-1.16-1.38v-8.36Z"/><path class="cls-11" d="M302.6,210.56h4.89a3.64,3.64,0,0,0,.24-1.05l.87.12a5.49,5.49,0,0,1-.21.93H311q-.48-.35-1-.69l.5-.55a17.1,17.1,0,0,1,1.44.94l-.27.29h2.26v.8h-4.67q1.4,1.37,5,1.3c-.19.33-.36.64-.5.93l-.62-.05v3.7h-.85v-.67h-2.59v.66h-.85v-3.74h3.86q-3.46-.47-4.43-2.12H308q-.68,1.44-4.4,2.12h3.88v3.74h-.85v-.66h-2.56v.67h-.85v-3.68l-.67.12q-.18-.36-.47-.86,4-.52,4.86-1.45H302.6Zm.65-4.41h4.25v3.52h-.85v-.38H304.1v.5h-.85Zm3.4.75H304.1v1.65h2.56Zm0,7.33h-2.56v1.59h2.56Zm2.14-8.08h4.29v3.57h-.85v-.42h-2.59v.38h-.85Zm3.44.75h-2.59v1.65h2.59Zm0,7.33h-2.59v1.59h2.59Z"/><path class="cls-11" d="M315.86,216.36q5.28-3,5.58-10.71h1.07a22.91,22.91,0,0,1-.25,2.47q1.5,6.06,5.64,8-.51.56-.9,1.05-3.6-2-5.13-7.2a11.57,11.57,0,0,1-5.25,7.33A10.57,10.57,0,0,0,315.86,216.36Z"/><path class="cls-11" d="M329.86,213.56h5.22v-.82h.85v.82h5.21v.77h-4.26a12.32,12.32,0,0,0,4.71,2l-.57.9a13.23,13.23,0,0,1-5.09-2.71v2.84h-.85v-2.85a14.68,14.68,0,0,1-5.09,2.74q-.25-.37-.57-.76a12.81,12.81,0,0,0,4.67-2.18h-4.24Zm5.37-7.74.71-.44a8,8,0,0,1,.93,1.23l-.56.35H341v.75h-4.59v.86h4.06v.7h-4.06v.86h4.06v.7h-4.06v.88H341v.75h-8.83v.46h-.85v-4.31a14.26,14.26,0,0,1-1.27,1.31,4.92,4.92,0,0,0-.58-.8,12.87,12.87,0,0,0,3-3.61l.84.38q-.34.56-.69,1.07H336A13.23,13.23,0,0,0,335.23,205.82Zm-3.06,2.76h3.35v-.86h-3.35Zm0,1.56h3.35v-.86h-3.35Zm0,1.59h3.35v-.88h-3.35Z"/><path class="cls-11" d="M343.85,206.09h10.6v11.3h-.92v-.59h-8.76v.61h-.92Zm9.68.85h-8.76v9h8.76Zm-8.16,2.14h4.53v-1.74h.9v1.74h2.33v.82h-2.33v3.69q0,1.76-1.67,1.76l-1.4,0q-.07-.42-.19-1a12,12,0,0,0,1.38.1q1,0,1-1.13v-2.83a13.3,13.3,0,0,1-4.35,4,4.45,4.45,0,0,0-.62-.81,12.55,12.55,0,0,0,4.38-3.84h-3.95Z"/><path class="cls-11" d="M252.38,222.73H253v5.73h-.63V225.8h-3.21v2.66h-.66v-5.73h.66v2.49h3.21Z"/><path class="cls-11" d="M256.73,222.73h.63v5.73h-.63Z"/><path class="cls-11" d="M265.18,222.73v.54h-1.95v5.18h-.66v-5.18h-1.95v-.54Z"/><path class="cls-11" d="M277.71,228.46h-.89l-2-2.58h-1.52v2.58h-.66v-5.73h2.66q1.83.08,1.95,1.55t-1.72,1.6Zm-4.38-5.15v2h1.86q1.4,0,1.4-1.06t-1.4-.95Z"/><path class="cls-11" d="M283.26,228.55a2.61,2.61,0,0,1-2.72-2.83q.11-2.92,2.81-3.06,2.55.17,2.72,3A2.66,2.66,0,0,1,283.26,228.55Zm0-5.33q-1.89.17-2.09,2.43.11,2.21,2,2.38,2-.11,2.12-2.38Q285.18,223.39,283.29,223.22Z"/><path class="cls-11" d="M291.71,228.46h-2.38v-5.73h2.23q1.72.08,1.83,1.43a1.28,1.28,0,0,1-1.14,1.26v0a1.46,1.46,0,0,1,1.37,1.46Q293.54,228.4,291.71,228.46Zm-.29-5.15h-1.49v1.92h1.49q1.17-.06,1.29-1Q292.65,223.33,291.42,223.31Zm.09,2.49h-1.57v2.15h1.69q1.34,0,1.34-1.12T291.51,225.8Z"/><path class="cls-11" d="M299.52,228.55a2.61,2.61,0,0,1-2.72-2.83q.11-2.92,2.81-3.06,2.55.17,2.72,3A2.65,2.65,0,0,1,299.52,228.55Zm0-5.33q-1.89.17-2.09,2.43.11,2.21,2,2.38,2-.11,2.12-2.38Q301.44,223.39,299.55,223.22Z"/><path class="cls-11" d="M309.74,222.73v.54h-1.95v5.18h-.66v-5.18h-1.95v-.54Z"/><path class="cls-11" d="M319.87,225.51h2.46v2.09a2.9,2.9,0,0,1-2.46.94,2.69,2.69,0,0,1-2.83-2.86q.11-2.92,2.72-3a2.51,2.51,0,0,1,2.55,1.69l-.72.17a1.85,1.85,0,0,0-1.86-1.29q-1.83.17-2,2.43a2.2,2.2,0,0,0,2.12,2.38,2.29,2.29,0,0,0,1.86-.69v-1.29h-1.83Z"/><path class="cls-11" d="M330.8,228.46h-.89l-2-2.58h-1.52v2.58h-.66v-5.73h2.66q1.83.08,1.95,1.55t-1.72,1.6Zm-4.38-5.15v2h1.86q1.4,0,1.4-1.06t-1.4-.95Z"/><path class="cls-11" d="M336.35,228.55a2.61,2.61,0,0,1-2.72-2.83q.11-2.92,2.81-3.06,2.55.17,2.72,3A2.65,2.65,0,0,1,336.35,228.55Zm0-5.33q-1.89.17-2.09,2.43.11,2.21,2,2.38,2-.11,2.12-2.38Q338.27,223.39,336.38,223.22Z"/><path class="cls-11" d="M347,222.73v3.35q0,2.49-2.29,2.46t-2.23-2.46v-3.35h.66v3.32q0,2,1.58,2t1.66-2v-3.32Z"/><path class="cls-11" d="M353,226.14h-1.78v2.32h-.63v-5.73h2.46a1.77,1.77,0,0,1,1.92,1.69Q355,226.11,353,226.14Zm-.11-2.83h-1.66v2.26h1.66q1.37,0,1.4-1.17T352.9,223.31Z"/><rect class="cls-11" x="247.78" y="219.82" width="107.18" height="0.24"/><polygon class="cls-11" points="116.78 44.73 105.56 44.73 104.26 47.27 111 47.27 113.4 52.13 98.46 52.13 105.91 37.14 107.84 41.01 114.91 41.01 109.49 30.2 101.73 30.2 89.91 53.88 84.86 43.81 92.99 43.81 99.76 30.2 75.62 30.2 70.07 41.26 62.44 41.26 67.98 30.2 60.4 30.2 48.06 54.77 55.67 54.77 61.16 43.81 68.8 43.81 63.3 54.77 70.9 54.77 81.93 32.75 91.38 32.75 86.94 41.26 79.59 41.26 77.95 44.55 83.02 54.77 121.75 54.77 116.78 44.73"/><path class="cls-11" d="M19.05,64.52H23v6.91H21.91v-.68H20.12v.84H19.05Zm2.86,5.56V65.19H20.12v4.89ZM29,63.39l-.25.26a9.23,9.23,0,0,0,4.32,3c-.29.23-.56.45-.81.68a11.41,11.41,0,0,1-4.13-3,12.16,12.16,0,0,1-4.19,3,9.28,9.28,0,0,0-.77-.61,10.21,10.21,0,0,0,4.44-3.34Zm-4.48,5.53h7v4H30.36v-.58H25.61v.58H24.48Zm.58-2h6v.68h-6Zm5.3,4.71V69.6H25.61v2.08Z"/><path class="cls-11" d="M35.17,71.43h6.48V65H36v-.78H48.62V65H43v6.48h6.5v.76H35.17Z"/><path class="cls-11" d="M51.62,72.11q6.11-1.78,6.59-5.35H51.89V66h6.37q0-1.31,0-2.63h1.29q0,1.31,0,2.63h6.56v.76H59.52q1,3.88,6.9,5.12a10.82,10.82,0,0,0-1.12.79q-4.82-1.27-6.3-4.53-1.15,3-6.46,4.73Q52.24,72.6,51.62,72.11Z"/><path class="cls-11" d="M68.27,69.4a9.63,9.63,0,0,0,2.36-3.5H68.42v-.66h2.31V63.33H71.8v1.91h2.07v.66H71.8v1.61l.59-.39q1.14.68,1.79,1.11l-.8.54q-.91-.66-1.58-1.1V72.8H70.73V67.59a8.07,8.07,0,0,1-2,2.66Q68.52,69.82,68.27,69.4Zm7.8-4.71V67.9a5.42,5.42,0,0,1-2.65,5q-.41-.33-.87-.66a4.52,4.52,0,0,0,2.34-4.21V63.95h5.5v7.31c0,.32.17.49.52.49h.34c.31,0,.52-.18.61-.54a13,13,0,0,0,.21-1.61c.34.11.72.21,1.12.31-.09.64-.18,1.17-.27,1.57a1.34,1.34,0,0,1-1.51,1h-.78q-1.42,0-1.42-1.11V64.69Z"/><path class="cls-11" d="M85.46,67.4h6a2.14,2.14,0,0,0,.3-.85l1.06.1a3.19,3.19,0,0,1-.26.75h3.23c-.39-.19-.81-.37-1.25-.55l.61-.44q1,.38,1.76.76l-.33.23h2.76V68H93.6q1.71,1.1,6.07,1-.35.4-.61.75l-.75,0v3h-1v-.54H94.1v.53h-1v-3h4.71q-4.23-.37-5.41-1.7H92.1q-.83,1.16-5.37,1.7h4.74v3h-1v-.53H87.31v.54h-1v-3l-.81.1c-.15-.19-.34-.42-.58-.69q4.95-.42,5.94-1.17H85.46Zm.8-3.54h5.19v2.83h-1v-.3H87.29v.4h-1Zm4.16.6H87.29v1.32h3.12Zm0,5.88H87.31v1.27h3.12ZM93,63.86h5.24v2.87h-1v-.34H94.09v.3H93Zm4.2.6H94.09v1.32h3.17Zm0,5.88H94.1v1.27h3.17Z"/><path class="cls-11" d="M101.65,72.05q6.45-2.45,6.82-8.59h1.3a12.26,12.26,0,0,1-.31,2,10.13,10.13,0,0,0,6.9,6.39q-.62.45-1.09.85A10.65,10.65,0,0,1,109,66.91a10.65,10.65,0,0,1-6.42,5.88A10.52,10.52,0,0,0,101.65,72.05Z"/><path class="cls-11" d="M118.77,69.81h6.38v-.66h1v.66h6.36v.62h-5.21a19.84,19.84,0,0,0,5.76,1.62l-.7.72a20,20,0,0,1-6.22-2.17v2.28h-1V70.59a22.12,22.12,0,0,1-6.21,2.2q-.31-.3-.7-.61a20.18,20.18,0,0,0,5.71-1.75h-5.18Zm6.56-6.21.87-.35a7.59,7.59,0,0,1,1.14,1l-.68.28h5.67v.6h-5.61v.69h5v.56h-5v.69h5v.56h-5v.71h5.65v.6H121.58v.37h-1V65.85a15.8,15.8,0,0,1-1.55,1,4.54,4.54,0,0,0-.71-.64,12.86,12.86,0,0,0,3.63-2.9l1,.3c-.28.3-.56.58-.84.86h4.19A11.64,11.64,0,0,0,125.32,63.6Zm-3.75,2.22h4.1v-.69h-4.1Zm0,1.25h4.1v-.69h-4.1Zm0,1.27h4.1v-.71h-4.1Z"/><path class="cls-11" d="M135.87,63.81h12.95v9.07h-1.13V72.4H137v.49h-1.12Zm11.82.68H137v7.23h10.7Zm-10,1.72h5.53v-1.4h1.1v1.4h2.84v.66h-2.84v3q0,1.41-2,1.41l-1.72,0c-.06-.23-.14-.48-.24-.77q1,.08,1.69.08,1.21,0,1.21-.9V67.36a15.49,15.49,0,0,1-5.31,3.25,4.21,4.21,0,0,0-.75-.65,15.14,15.14,0,0,0,5.36-3.08h-4.82Z"/><path class="cls-11" d="M24.09,77.17h.77v4.59h-.77V79.63H20.18v2.14h-.8V77.17h.8v2h3.92Z"/><path class="cls-11" d="M29.41,77.17h.77v4.59h-.77Z"/><path class="cls-11" d="M39.73,77.17v.44H37.35v4.16h-.8V77.61H34.16v-.44Z"/><path class="cls-11" d="M55,81.77H54L51.55,79.7H49.69v2.07h-.8V77.17h3.25q2.24.07,2.38,1.24t-2.1,1.29Zm-5.35-4.13v1.61H52q1.71,0,1.71-.85T52,77.63Z"/><path class="cls-11" d="M61.83,81.84q-3.18-.12-3.32-2.27.14-2.34,3.43-2.46,3.12.14,3.33,2.41Q65.12,81.74,61.83,81.84Zm0-4.27q-2.31.14-2.55,2,.14,1.77,2.48,1.91,2.45-.09,2.59-1.91Q64.17,77.7,61.86,77.56Z"/><path class="cls-11" d="M72.15,81.77h-2.9V77.17H72q2.1.07,2.24,1.15c-.07.57-.54.9-1.4,1v0q1.57.16,1.68,1.17Q74.38,81.72,72.15,81.77Zm-.35-4.13H70v1.54H71.8q1.43,0,1.58-.83C73.32,77.88,72.8,77.65,71.8,77.63Zm.11,2H70v1.72H72q1.64,0,1.64-.9T71.9,79.63Z"/><path class="cls-11" d="M81.69,81.84q-3.18-.12-3.32-2.27.14-2.34,3.43-2.46,3.11.14,3.32,2.41Q85,81.74,81.69,81.84Zm0-4.27q-2.31.14-2.55,2,.14,1.77,2.48,1.91,2.45-.09,2.59-1.91Q84,77.7,81.73,77.56Z"/><path class="cls-11" d="M94.18,77.17v.44H91.8v4.16H91V77.61H88.61v-.44Z"/><path class="cls-11" d="M106.56,79.4h3v1.68a4.63,4.63,0,0,1-3,.76q-3.29-.12-3.46-2.3.14-2.34,3.32-2.44,2.34,0,3.11,1.36l-.87.14a2.41,2.41,0,0,0-2.27-1q-2.24.14-2.45,2,.17,1.77,2.59,1.91a3.71,3.71,0,0,0,2.28-.55v-1h-2.24Z"/><path class="cls-11" d="M119.92,81.77h-1.08l-2.41-2.07h-1.85v2.07h-.8V77.17H117q2.24.07,2.38,1.24t-2.1,1.29Zm-5.35-4.13v1.61h2.27q1.71,0,1.71-.85t-1.71-.76Z"/><path class="cls-11" d="M126.7,81.84q-3.18-.12-3.32-2.27.14-2.34,3.43-2.46,3.11.14,3.32,2.41Q130,81.74,126.7,81.84Zm0-4.27q-2.31.14-2.55,2,.14,1.77,2.48,1.91,2.45-.09,2.59-1.91Q129,77.7,126.73,77.56Z"/><path class="cls-11" d="M139.68,77.17v2.69q0,2-2.8,2t-2.73-2V77.17h.8v2.67q0,1.63,1.92,1.58t2-1.58V77.17Z"/><path class="cls-11" d="M147.06,79.91h-2.17v1.86h-.77V77.17h3q2.14.07,2.34,1.36Q149.43,79.88,147.06,79.91Zm-.14-2.27h-2v1.82h2q1.68,0,1.71-.94T146.92,77.63Z"/><rect class="cls-11" x="18.47" y="74.83" width="130.97" height="0.19"/><rect class="cls-12" x="434.17" y="189.58" width="164.67" height="85.65"/><polygon class="cls-11" points="549.26 219.97 538.04 219.97 536.74 222.5 543.47 222.5 545.88 227.37 530.93 227.37 538.39 212.37 540.32 216.24 547.39 216.24 541.97 205.44 534.21 205.44 522.39 229.11 517.33 219.04 525.46 219.04 532.24 205.44 508.1 205.44 502.55 216.5 494.92 216.5 500.46 205.44 492.88 205.44 480.54 230 488.15 230 493.64 219.04 501.28 219.04 495.77 230 503.38 230 514.41 207.99 523.85 207.99 519.42 216.5 512.07 216.5 510.43 219.79 515.5 230 554.23 230 549.26 219.97"/><path class="cls-11" d="M463.32,237.78h3.21v8.61h-.87v-.85h-1.47v1h-.87Zm2.34,6.93v-6.09h-1.47v6.09Zm5.78-8.34-.21.33a8.4,8.4,0,0,0,3.54,3.69c-.23.28-.46.56-.67.85a10.7,10.7,0,0,1-3.38-3.73,11.54,11.54,0,0,1-3.43,3.79,9,9,0,0,0-.63-.76,9.91,9.91,0,0,0,3.63-4.17Zm-3.67,6.89h5.73v5h-.92v-.73h-3.89v.73h-.92Zm.47-2.43h4.89v.85h-4.89Zm4.34,5.87v-2.59h-3.89v2.59Z"/><path class="cls-11" d="M476.51,246.4h5.3v-8.08H477.2v-1h10.32v1h-4.64v8.08h5.32v.94H476.51Z"/><path class="cls-11" d="M490,247.24q5-2.22,5.39-6.67h-5.17v-.94h5.21q0-1.63,0-3.28h1.05q0,1.63,0,3.28h5.37v.94h-5.39a7.72,7.72,0,0,0,5.64,6.38,10.18,10.18,0,0,0-.92,1,8.39,8.39,0,0,1-5.15-5.65q-.94,3.67-5.29,5.89C490.56,248,490.31,247.65,490,247.24Z"/><path class="cls-11" d="M503.6,243.86a13.62,13.62,0,0,0,1.93-4.36h-1.81v-.82h1.89v-2.39h.87v2.39h1.7v.82h-1.7v2L507,241q.93.85,1.47,1.38l-.65.67q-.75-.82-1.3-1.37v6.39h-.87v-6.49a10.86,10.86,0,0,1-1.61,3.32Q503.81,244.38,503.6,243.86ZM510,238v4q0,4.34-2.17,6.29-.34-.41-.71-.82,1.91-1.68,1.91-5.24v-5.15h4.5v9.11c0,.4.14.61.42.61h.28q.39,0,.5-.68c.08-.62.14-1.29.17-2a9.83,9.83,0,0,0,.92.39q-.11,1.2-.22,2-.19,1.28-1.23,1.28h-.64q-1.16,0-1.16-1.38V238Z"/><path class="cls-11" d="M517.66,241.37h4.89a3.66,3.66,0,0,0,.24-1.05l.87.12a5.54,5.54,0,0,1-.21.93h2.64c-.32-.24-.66-.46-1-.69l.5-.54a17.12,17.12,0,0,1,1.44.95l-.27.29H529v.8h-4.67q1.4,1.37,5,1.29-.29.5-.5.93l-.62-.05V248h-.85v-.67h-2.59V248h-.85v-3.74h3.86q-3.46-.47-4.43-2.12h-.22q-.68,1.44-4.4,2.12h3.88V248h-.85v-.65h-2.56V248h-.85v-3.68l-.67.12q-.18-.36-.47-.86,4-.52,4.86-1.45h-4.38Zm.65-4.41h4.25v3.52h-.85v-.38h-2.56v.5h-.85Zm3.4.75h-2.56v1.65h2.56Zm0,7.33h-2.56v1.59h2.56Zm2.14-8.08h4.29v3.57h-.85v-.42h-2.59v.38h-.85Zm3.44.75h-2.59v1.65h2.59Zm0,7.33h-2.59v1.59h2.59Z"/><path class="cls-11" d="M530.92,247.17q5.28-3.05,5.58-10.71h1.07a22.86,22.86,0,0,1-.25,2.47q1.5,6.06,5.64,8-.51.56-.9,1.05-3.6-2-5.13-7.2a11.58,11.58,0,0,1-5.25,7.33A10.39,10.39,0,0,0,530.92,247.17Z"/><path class="cls-11" d="M544.92,244.37h5.22v-.82H551v.82h5.21v.77h-4.26a12.32,12.32,0,0,0,4.71,2l-.57.89a13.23,13.23,0,0,1-5.09-2.71v2.84h-.85v-2.85a14.66,14.66,0,0,1-5.09,2.74q-.25-.37-.57-.76a12.82,12.82,0,0,0,4.67-2.18h-4.24Zm5.37-7.74.71-.44a8,8,0,0,1,.93,1.23l-.56.35H556v.75h-4.59v.86h4.06v.7h-4.06V241h4.06v.7h-4.06v.88h4.63v.75h-8.83v.46h-.85v-4.31a14.14,14.14,0,0,1-1.27,1.31,4.92,4.92,0,0,0-.58-.8,12.89,12.89,0,0,0,3-3.61l.84.38c-.23.37-.46.73-.69,1.07h3.43A13.39,13.39,0,0,0,550.29,236.63Zm-3.06,2.76h3.35v-.86h-3.35Zm0,1.56h3.35v-.86h-3.35Zm0,1.59h3.35v-.88h-3.35Z"/><path class="cls-11" d="M558.92,236.9h10.6v11.3h-.92v-.59h-8.76v.61h-.92Zm9.68.85h-8.76v9h8.76Zm-8.16,2.14H565v-1.74h.9v1.74h2.33v.82h-2.33v3.69q0,1.76-1.67,1.76l-1.4,0q-.07-.42-.2-1a11.94,11.94,0,0,0,1.38.1q1,0,1-1.13v-2.83a13.31,13.31,0,0,1-4.35,4,4.42,4.42,0,0,0-.62-.81,12.56,12.56,0,0,0,4.38-3.84h-3.95Z"/><path class="cls-11" d="M467.45,253.55h.63v5.73h-.63v-2.66h-3.21v2.66h-.66v-5.73h.66V256h3.21Z"/><path class="cls-11" d="M471.8,253.55h.63v5.73h-.63Z"/><path class="cls-11" d="M480.24,253.55v.54h-1.95v5.18h-.66v-5.18h-1.95v-.54Z"/><path class="cls-11" d="M492.78,259.27h-.89l-2-2.58h-1.52v2.58h-.66v-5.73h2.66q1.83.09,1.95,1.55t-1.72,1.6Zm-4.38-5.15v2h1.86q1.4,0,1.4-1.06t-1.4-.94Z"/><path class="cls-11" d="M498.33,259.36a2.61,2.61,0,0,1-2.72-2.83q.11-2.92,2.81-3.06,2.55.17,2.72,3A2.65,2.65,0,0,1,498.33,259.36Zm0-5.32q-1.89.17-2.09,2.43.11,2.2,2,2.38,2-.12,2.12-2.38Q500.25,254.21,498.36,254Z"/><path class="cls-11" d="M506.77,259.27h-2.38v-5.73h2.23q1.72.09,1.83,1.43a1.28,1.28,0,0,1-1.14,1.26v0a1.46,1.46,0,0,1,1.37,1.46Q508.6,259.22,506.77,259.27Zm-.29-5.15H505V256h1.49q1.17-.06,1.29-1Q507.71,254.15,506.48,254.12Zm.09,2.49H505v2.15h1.69q1.34,0,1.35-1.12T506.57,256.61Z"/><path class="cls-11" d="M514.58,259.36a2.61,2.61,0,0,1-2.72-2.83q.11-2.92,2.81-3.06,2.55.17,2.72,3A2.65,2.65,0,0,1,514.58,259.36Zm0-5.32q-1.89.17-2.09,2.43.11,2.2,2,2.38,2-.12,2.12-2.38Q516.5,254.21,514.61,254Z"/><path class="cls-11" d="M524.8,253.55v.54h-1.95v5.18h-.66v-5.18h-1.95v-.54Z"/><path class="cls-11" d="M534.93,256.33h2.46v2.09a2.9,2.9,0,0,1-2.46.95,2.69,2.69,0,0,1-2.83-2.86q.11-2.92,2.72-3a2.51,2.51,0,0,1,2.55,1.69l-.72.17a1.85,1.85,0,0,0-1.86-1.29q-1.83.17-2,2.43a2.2,2.2,0,0,0,2.12,2.38,2.29,2.29,0,0,0,1.86-.69v-1.29h-1.83Z"/><path class="cls-11" d="M545.86,259.27H545l-2-2.58h-1.52v2.58h-.66v-5.73h2.66q1.83.09,1.95,1.55t-1.72,1.6Zm-4.38-5.15v2h1.86q1.4,0,1.4-1.06t-1.4-.94Z"/><path class="cls-11" d="M551.42,259.36a2.61,2.61,0,0,1-2.72-2.83q.11-2.92,2.81-3.06,2.55.17,2.72,3A2.65,2.65,0,0,1,551.42,259.36Zm0-5.32q-1.89.17-2.09,2.43.11,2.2,2,2.38,2-.12,2.12-2.38Q553.33,254.21,551.44,254Z"/><path class="cls-11" d="M562,253.55v3.35q0,2.49-2.29,2.46t-2.23-2.46v-3.35h.66v3.32q0,2,1.58,2t1.66-2v-3.32Z"/><path class="cls-11" d="M568.07,257H566.3v2.32h-.63v-5.73h2.46a1.77,1.77,0,0,1,1.92,1.69Q570,256.93,568.07,257Zm-.11-2.83H566.3v2.26H568q1.37,0,1.4-1.17T568,254.12Z"/><rect class="cls-11" x="462.84" y="250.63" width="107.18" height="0.24"/><line class="cls-13" x1="0.76" y1="0.29" x2="165.94" y2="114.03"/><line class="cls-13" x1="216.97" y1="0.29" x2="382.15" y2="114.03"/><line class="cls-13" x1="433.31" y1="0.29" x2="598.48" y2="114.03"/><line class="cls-13" x1="0.76" y1="175.53" x2="165.94" y2="289.27"/><line class="cls-13" x1="216.97" y1="175.53" x2="382.15" y2="289.27"/><line class="cls-13" x1="433.31" y1="175.53" x2="598.48" y2="289.27"/></g></g></svg>