<svg xmlns="http://www.w3.org/2000/svg" viewBox="0 0 286.49 154.76"><defs><style>.cls-1{fill:#231815;}.cls-2{fill:#fff;}</style></defs><title>hitrobot_sign_white_1</title><g id="图层_2" data-name="图层 2"><g id="图层_1-2" data-name="图层 1"><rect class="cls-1" width="286.49" height="154.76"/><path class="cls-2" d="M29.66,82.29a16.48,16.48,0,0,0-2.27,4.6A30.76,30.76,0,0,0,38.28,99.11,41.7,41.7,0,0,1,29.66,82.29Z"/><path class="cls-2" d="M85.31,71.58l0-.32H85c-4-.17-8.29-.26-12.64-.27h-.24A230.88,230.88,0,0,0,48.24,72V69c2.57-1.27,12-3.61,23.66-3.67h.61A90.84,90.84,0,0,1,84,66.08l.53.07-.14-.51a30.12,30.12,0,0,0-1.46-4.23l-.08-.19-.2,0a74.26,74.26,0,0,0-10.13-.74h-.59c-11.31.06-20.61,2.6-23.67,5.14V62.85c2.29-4.64,12.25-8,23.76-8.07h.4a57,57,0,0,1,6.08.35l.86.09-.53-.67a30.13,30.13,0,0,0-4-4.19l-.09-.08H74.6c-.64,0-1.29,0-1.94,0H71.9c-10.33,0-20.12,3.73-23.66,8.75V56.56c1.26-5.39,7.5-9.74,16.31-11.36l1.36-.25-1.31-.44A30.54,30.54,0,0,0,25.83,83a13.78,13.78,0,0,1,3.1-3.78,57.57,57.57,0,0,1-1.21-11.78A44.33,44.33,0,0,1,29.3,57.34a49.88,49.88,0,0,0-1,10.14,39.64,39.64,0,0,0,1.64,11,43,43,0,0,1,18-8S36.8,73.54,30.69,80.93a54.35,54.35,0,0,0,13.87,21.29,30.6,30.6,0,0,0,20,.21l1.32-.44-1.37-.25c-8.9-1.65-15-5.89-16.24-11.34V88c3.54,5,13.33,8.71,23.65,8.75h.61c.65,0,1.35,0,2.05-.06h.12l.09-.08a30.84,30.84,0,0,0,4-4.18l.53-.68-.85.1a57.1,57.1,0,0,1-6.05.34H72c-11.51,0-21.47-3.43-23.76-8.07V81.35c3.05,2.54,12.35,5.08,23.67,5.14h.59a73.72,73.72,0,0,0,10.11-.74l.2,0,.08-.19a30.63,30.63,0,0,0,1.46-4.23l.13-.52-.53.07a90.75,90.75,0,0,1-11.44.79H71.9c-11.66-.06-21.09-2.4-23.66-3.67V74.9A230.31,230.31,0,0,0,72.08,76h.24c4.38,0,8.63-.11,12.64-.27h.32l0-.32c0-.65.06-1.29.06-1.9S85.35,72.21,85.31,71.58Z"/><path class="cls-2" d="M103.81,77.71V59.23h13.36v2.18H106.25v5.66h10.22v2.17H106.25v6.29H117.6v2.18Z"/><path class="cls-2" d="M126.25,77.71,119.1,59.23h2.65l4.8,13.42q.58,1.61,1,3,.43-1.51,1-3l5-13.42H136l-7.24,18.48Z"/><path class="cls-2" d="M138.24,77.71V59.23H151.6v2.18H140.69v5.66h10.22v2.17H140.69v6.29H152v2.18Z"/><path class="cls-2" d="M155.44,77.71V59.23h8.19a10.9,10.9,0,0,1,3.76.5,4.1,4.1,0,0,1,2.05,1.76,5.25,5.25,0,0,1,.77,2.79,4.65,4.65,0,0,1-1.27,3.32A6.45,6.45,0,0,1,165,69.3a6.32,6.32,0,0,1,1.47.92,12.69,12.69,0,0,1,2,2.46l3.21,5h-3.07l-2.45-3.84q-1.07-1.66-1.76-2.55a5.61,5.61,0,0,0-1.24-1.23,3.68,3.68,0,0,0-1.12-.49,7.37,7.37,0,0,0-1.36-.09h-2.84v8.21Zm2.45-10.32h5.25a7.91,7.91,0,0,0,2.62-.35,2.81,2.81,0,0,0,1.44-1.11,3,3,0,0,0,.49-1.66,2.75,2.75,0,0,0-1-2.15,4.45,4.45,0,0,0-3-.84h-5.85Z"/><path class="cls-2" d="M179.25,77.71V69.88l-7.12-10.65h3l3.64,5.57q1,1.56,1.88,3.13.83-1.45,2-3.26l3.58-5.43h2.85L181.7,69.88v7.83Z"/><path class="cls-2" d="M191.16,77.71V59.23h6.93a8.59,8.59,0,0,1,3.4.56,4.39,4.39,0,0,1,2,1.73,4.57,4.57,0,0,1,.72,2.44,4.19,4.19,0,0,1-.64,2.23,4.6,4.6,0,0,1-1.94,1.69,4.81,4.81,0,0,1,2.58,1.68,4.49,4.49,0,0,1,.9,2.8,5.42,5.42,0,0,1-.55,2.41,4.68,4.68,0,0,1-1.36,1.72,5.69,5.69,0,0,1-2,.91,12.36,12.36,0,0,1-3,.31ZM193.6,67h4a9,9,0,0,0,2.33-.21,2.6,2.6,0,0,0,1.4-.92,2.66,2.66,0,0,0,.47-1.61,3,3,0,0,0-.44-1.62,2.24,2.24,0,0,0-1.26-1,10.53,10.53,0,0,0-2.81-.26H193.6Zm0,8.53h4.6a10.32,10.32,0,0,0,1.66-.09,4,4,0,0,0,1.41-.5,2.69,2.69,0,0,0,.93-1,3.23,3.23,0,0,0,.37-1.56,3.07,3.07,0,0,0-.53-1.79,2.8,2.8,0,0,0-1.47-1.07,9.12,9.12,0,0,0-2.7-.31H193.6Z"/><path class="cls-2" d="M207.73,68.71a10,10,0,0,1,2.47-7.2,8.4,8.4,0,0,1,6.38-2.6,8.83,8.83,0,0,1,4.61,1.22,8,8,0,0,1,3.13,3.41,11.09,11.09,0,0,1,1.08,5,10.9,10.9,0,0,1-1.13,5,7.74,7.74,0,0,1-3.21,3.36A9.19,9.19,0,0,1,216.57,78a8.74,8.74,0,0,1-4.66-1.26,8.1,8.1,0,0,1-3.11-3.44A10.43,10.43,0,0,1,207.73,68.71Zm2.52,0A7.41,7.41,0,0,0,212,74a6.27,6.27,0,0,0,9,0,7.85,7.85,0,0,0,1.78-5.51,9.46,9.46,0,0,0-.76-3.94,5.87,5.87,0,0,0-2.23-2.61,6,6,0,0,0-3.3-.93,6.26,6.26,0,0,0-4.47,1.78Q210.25,64.58,210.25,68.75Z"/><path class="cls-2" d="M228.55,77.71V59.23h6.36a15.34,15.34,0,0,1,3.29.27,6.27,6.27,0,0,1,2.71,1.32A7.52,7.52,0,0,1,243.1,64a12.41,12.41,0,0,1,.72,4.39,12.9,12.9,0,0,1-.49,3.73,9.09,9.09,0,0,1-1.26,2.69,6.67,6.67,0,0,1-1.68,1.68,6.88,6.88,0,0,1-2.2.93,12.67,12.67,0,0,1-3,.31ZM231,75.53h3.95a9.58,9.58,0,0,0,2.87-.34,4.09,4.09,0,0,0,1.66-1,5.84,5.84,0,0,0,1.35-2.34,11.44,11.44,0,0,0,.49-3.56,8.6,8.6,0,0,0-1-4.46A4.8,4.8,0,0,0,238,61.79a9.55,9.55,0,0,0-3.16-.38H231Z"/><path class="cls-2" d="M252.4,77.71V69.88l-7.12-10.65h3l3.64,5.57q1,1.56,1.88,3.13.83-1.45,2-3.26l3.58-5.43h2.85l-7.37,10.65v7.83Z"/><path class="cls-2" d="M109.14,84.31h.67V92h-.67V88.34h-4.62V92h-.71v-7.7h.71v3.44h4.62Z"/><path class="cls-2" d="M116,84.31h.67V92H116Z"/><path class="cls-2" d="M128.21,84.31v.63h-2.68V92h-.71V84.95h-2.68v-.63Z"/><path class="cls-2" d="M147,92h-.95l-2.73-3.55h-2.25V92h-.71v-7.7H144q2.41.12,2.57,2.05,0,2-2.45,2.13Zm-5.92-7.11v3h2.69q2,0,2-1.54t-2-1.42Z"/><path class="cls-2" d="M155.7,92.13Q152.19,92,152,88.34q.16-3.95,3.79-4.14,3.4.23,3.63,4.07Q159.3,92,155.7,92.13Zm0-7.34q-2.72.28-3,3.47.16,3.12,2.92,3.36,2.84-.16,3-3.36Q158.43,85.06,155.74,84.79Z"/><path class="cls-2" d="M168.63,88q1.93.35,2.05,2-.12,2-2.53,2H165v-7.7h3q2.25.12,2.41,1.9A2,2,0,0,1,168.63,88Zm-.87-3.08h-2.17v2.84h2.17c1.13-.05,1.75-.55,1.86-1.5Q169.54,84.95,167.76,84.91Zm.12,3.44h-2.29V91.5H168q1.93,0,1.93-1.62Q169.86,88.46,167.88,88.34Z"/><path class="cls-2" d="M179.75,92.13q-3.52-.16-3.67-3.79.16-3.95,3.79-4.14,3.4.23,3.63,4.07Q183.34,92,179.75,92.13Zm0-7.34q-2.72.28-3,3.47.16,3.12,2.92,3.36,2.84-.16,3-3.36Q182.47,85.06,179.79,84.79Z"/><path class="cls-2" d="M194.53,84.31v.63h-2.69V92h-.71V84.95h-2.68v-.63Z"/><path class="cls-2" d="M210.32,88.14h3.2v2.77a3.9,3.9,0,0,1-3.28,1.22q-3.63-.16-3.83-3.83.16-3.95,3.67-4.11a3.27,3.27,0,0,1,3.36,2.17l-.79.2A2.6,2.6,0,0,0,210,84.79q-2.61.28-2.84,3.47.2,3.12,3,3.36a3.32,3.32,0,0,0,2.68-1v-1.9h-2.53Z"/><path class="cls-2" d="M225.9,92h-.95l-2.72-3.55H220V92h-.71v-7.7h3.59q2.41.12,2.57,2.05,0,2-2.45,2.13ZM220,84.91v3h2.69q2,0,2-1.54t-2-1.42Z"/><path class="cls-2" d="M234.6,92.13q-3.51-.16-3.67-3.79.16-3.95,3.79-4.14,3.4.23,3.63,4.07Q238.2,92,234.6,92.13Zm0-7.34q-2.73.28-3,3.47.16,3.12,2.92,3.36,2.84-.16,3-3.36Q237.33,85.06,234.64,84.79Z"/><path class="cls-2" d="M249.94,84.31v4.54q0,3.32-3,3.28t-3-3.28V84.31h.71v4.5q0,2.92,2.29,2.8,2.45.12,2.37-2.8v-4.5Z"/><path class="cls-2" d="M259.2,88.82h-2.57V92H256v-7.7h3.32a2.35,2.35,0,0,1,2.53,2.25Q261.77,88.78,259.2,88.82ZM259,84.91h-2.41v3.32H259q2,0,2-1.7T259,84.91Z"/></g></g></svg>