<svg xmlns="http://www.w3.org/2000/svg" viewBox="0 0 62.47 334.3"><defs><style>.cls-1,.cls-2{fill:#10386b;}.cls-2{font-size:7.52px;font-family:FZHTJW--GB1-0, FZHTJW -GB1-0-GBpc-EUC-H;}.cls-3{fill:#231815;font-size:8.12px;}</style></defs><title>资源 10</title><g id="图层_2" data-name="图层 2"><g id="图层_1-2" data-name="图层 1"><rect class="cls-1" x="24.22" y="3.4" width="0.61" height="271.05"/><path class="cls-1" d="M33.77,3.52h8V24.88H39.57v-2.1H35.94v2.58H33.77Zm5.8,17.19V5.59H35.94V20.7ZM53.9,0l-.51.81Q56.94,7.36,62.16,10q-.87,1.05-1.65,2.1a26.57,26.57,0,0,1-8.38-9.25,28.57,28.57,0,0,1-8.5,9.4,21.17,21.17,0,0,0-1.56-1.89A24.58,24.58,0,0,0,51.08,0ZM44.8,17.1H59V29.53H56.73v-1.8H47.08v1.8H44.8Zm1.17-6H58.11v2.1H46ZM56.73,25.63V19.2H47.08v6.43Z"/><path class="cls-1" d="M32.66,59.95H45.82v-20H34.37v-2.4H60v2.4H48.46v20H61.65v2.34h-29Z"/><path class="cls-1" d="M32.21,97.13Q44.6,91.61,45.58,80.57H32.75V78.23H45.68q.08-4,.08-8.14h2.61q0,4-.07,8.14H61.62v2.34H48.25q2.14,12,14,15.83A24.91,24.91,0,0,0,60,98.84a20.82,20.82,0,0,1-12.79-14q-2.34,9.12-13.11,14.62Q33.47,98.63,32.21,97.13Z"/><path class="cls-1" d="M32.18,123.81A33.77,33.77,0,0,0,37,113H32.48v-2h4.69V105h2.16V111h4.2v2h-4.2v5l1.2-1.2q2.31,2.1,3.63,3.43l-1.62,1.65q-1.85-2-3.21-3.4v15.86H37.17v-16.1a26.86,26.86,0,0,1-4,8.23Q32.69,125.11,32.18,123.81ZM48,109.24v9.95q0,10.75-5.38,15.59-.84-1-1.77-2,4.75-4.17,4.75-13V107H56.79v22.59q0,1.5,1.05,1.5h.69q1,0,1.23-1.68.3-2.31.42-5a24.71,24.71,0,0,0,2.29,1q-.27,3-.54,4.87-.48,3.18-3.06,3.19H57.27q-2.88,0-2.88-3.43V109.24Z"/><path class="cls-1" d="M33.23,152.7H45.37a9,9,0,0,0,.6-2.62l2.16.3a13.63,13.63,0,0,1-.53,2.31h6.55q-1.2-.87-2.54-1.71l1.23-1.35A42.73,42.73,0,0,1,56.43,152l-.68.72h5.6v2H49.76q3.47,3.4,12.32,3.21-.72,1.23-1.23,2.31l-1.53-.13v9.18h-2.1V167.6H50.78v1.62h-2.1v-9.28h9.57q-8.59-1.16-11-5.26h-.54q-1.68,3.57-10.91,5.26h9.62v9.28h-2.1V167.6H37v1.65h-2.1v-9.13l-1.65.3q-.45-.9-1.17-2.13,10-1.29,12-3.61H33.23Zm1.62-10.94H45.4v8.74H43.3v-.93H37v1.23h-2.1Zm8.44,1.86H37v4.09H43.3Zm0,18.18H37v3.94h6.34Zm5.32-20H59.28v8.86h-2.1v-1.05H50.75v.93h-2.1Zm8.53,1.86H50.75v4.09h6.43Zm0,18.18H50.78v3.94h6.43Z"/><path class="cls-1" d="M32.27,202.16q13.1-7.57,13.85-26.56h2.64a57.42,57.42,0,0,1-.63,6.13q3.73,15,14,19.77-1.26,1.38-2.22,2.61-8.92-5-12.72-17.86-3.29,12.38-13,18.19A25.85,25.85,0,0,0,32.27,202.16Z"/><path class="cls-1" d="M33.17,230.3H46.12v-2h2.1v2H61.14v1.92H50.57a30.63,30.63,0,0,0,11.69,5q-.81,1.26-1.41,2.22a32.84,32.84,0,0,1-12.62-6.71v7h-2.1v-7.07a36.46,36.46,0,0,1-12.62,6.8q-.63-.93-1.41-1.89a31.83,31.83,0,0,0,11.6-5.41H33.17Zm13.31-19.2L48.25,210a19.86,19.86,0,0,1,2.31,3.06l-1.38.87H60.69v1.86H49.31v2.13H59.37v1.74H49.31v2.13H59.37v1.74H49.31v2.19H60.78v1.86H38.88v1.14h-2.1v-10.7a34.47,34.47,0,0,1-3.15,3.25,12.06,12.06,0,0,0-1.44-2,32.07,32.07,0,0,0,7.36-9l2.07.93q-.84,1.38-1.71,2.64h8.5A32.26,32.26,0,0,0,46.48,211.1Zm-7.6,6.85H47.2v-2.13H38.88Zm0,3.88H47.2v-2.13H38.88Zm0,3.94H47.2v-2.19H38.88Z"/><path class="cls-1" d="M34,246.83H60.33v28H58v-1.47H36.33v1.5H34Zm24,2.1H36.33v22.35H58ZM37.8,254.25H49v-4.33h2.22v4.33H57v2H51.26v9.16q0,4.36-4.15,4.36-1.68,0-3.48-.06c-.12-.7-.28-1.49-.48-2.37a29.63,29.63,0,0,0,3.43.24q2.46,0,2.46-2.79v-7a33,33,0,0,1-10.79,10,11,11,0,0,0-1.53-2,31.19,31.19,0,0,0,10.87-9.52H37.8Z"/><text class="cls-2" transform="translate(17.05 332) scale(0.95 1)">■<tspan class="cls-3" x="7.52" y="0" xml:space="preserve"> 标准字体</tspan></text><path class="cls-1" d="M14.81,13.23v1.61H.22V13.23H7V5.06H.22V3.38H14.81V5.06H8.46v8.17Z"/><path class="cls-1" d="M14.81,24.31v1.6H.22v-1.6Z"/><path class="cls-1" d="M14.81,45.81H13.42v-5H.22V39.18h13.2v-5h1.39Z"/><path class="cls-1" d="M.22,77.74V75.48l6.56-5V66.58H.22V64.91H14.81v6.78q-.22,4.67-3.94,5-3.79,0-4.08-4.37ZM13.35,66.58H8.24v4.74q.07,3.57,2.7,3.57,2.33-.07,2.41-3.57Z"/><path class="cls-1" d="M0,91.88Q.37,85.25,7.22,85q7.44.29,7.8,7.15Q14.59,98.59,7.37,99,.29,98.73,0,91.88ZM13.57,92q-.44-4.81-6.2-5.32-5.61.29-6.05,5.18.29,5.1,6.05,5.4Q13.13,96.77,13.57,92Z"/><path class="cls-1" d="M.22,113.39v-6.05H14.81V113q-.22,4.38-3.65,4.67A3.25,3.25,0,0,1,8,114.77H7.88a3.71,3.71,0,0,1-3.72,3.5Q.37,118.05.22,113.39Zm13.12-.73v-3.79H8.46v3.79q.14,3,2.62,3.28C12.55,115.84,13.3,114.75,13.35,112.66ZM7,112.88v-4H1.53v4.3q0,3.42,2.84,3.43Q6.86,116.38,7,112.88Z"/><path class="cls-1" d="M0,133.29q.37-6.64,7.22-6.93,7.44.29,7.8,7.14-.44,6.49-7.66,6.92Q.29,140.14,0,133.29Zm13.56.07q-.44-4.81-6.2-5.32-5.61.29-6.05,5.18.29,5.1,6.05,5.39Q13.13,138.17,13.57,133.36Z"/><path class="cls-1" d="M14.81,159.31H13.42v-5H.22v-1.68h13.2v-5h1.39Z"/><path class="cls-1" d="M7.73,185.11v6.27H2.41Q0,189.56,0,185.11q.37-6.85,7.29-7.22,7.44.29,7.73,6.93-.07,4.89-4.3,6.49l-.44-1.82a4.7,4.7,0,0,0,3.28-4.74q-.44-4.67-6.2-5.1Q1.75,180,1.31,185q0,3.28,1.75,4.74H6.35v-4.67Z"/><path class="cls-1" d="M.22,213V210.7l6.56-5V201.8H.22v-1.68H14.81v6.78q-.22,4.66-3.94,5-3.79,0-4.08-4.37ZM13.35,201.8H8.24v4.74q.07,3.57,2.7,3.58,2.33-.07,2.41-3.58Z"/><path class="cls-1" d="M0,227.1q.37-6.64,7.22-6.93,7.44.29,7.8,7.15-.44,6.48-7.66,6.93Q.29,234,0,227.1Zm13.56.07q-.44-4.81-6.2-5.32-5.61.29-6.05,5.18.29,5.1,6.05,5.39Q13.13,232,13.57,227.17Z"/><path class="cls-1" d="M14.81,254.15H6.27q-6.35.07-6.27-5.84t6.27-5.69h8.53v1.68H6.35q-5.18-.07-5,4-.15,4.38,5,4.23h8.46Z"/><path class="cls-1" d="M6.13,269.53V265H.22V263.4H14.81v6.27q-.22,4.45-4.3,4.89Q6.2,274.49,6.13,269.53Zm7.22-.29V265H7.58v4.23q.07,3.5,3,3.57Q13.27,272.66,13.35,269.24Z"/></g></g></svg>