<?xml version="1.0" encoding="utf-8"?>
<!-- Generator: Adobe Illustrator 21.1.0, SVG Export Plug-In . SVG Version: 6.00 Build 0)  -->
<svg version="1.1" id="图层_1" xmlns="http://www.w3.org/2000/svg" xmlns:xlink="http://www.w3.org/1999/xlink" x="0px" y="0px"
	 viewBox="0 0 212 378.2" style="enable-background:new 0 0 212 378.2;" xml:space="preserve">
<style type="text/css">
	.st0{fill:#10386B;}
	.st1{font-family:'ArialMT';}
	.st2{font-size:7.52px;}
	.st3{fill:#231815;}
	.st4{font-size:5px;}
	.st5{font-family:'AdobeSongStd-Light-GBpc-EUC-H';}
	.st6{fill:#898989;}
	.st7{fill:#D3D3D4;}
	.st8{fill:none;stroke:#231815;stroke-width:0.44;}
	.st9{fill:none;stroke:#231815;stroke-width:0.31;stroke-miterlimit:3.86;}
	.st10{fill:none;stroke:#231815;stroke-width:0.19;}
	.st11{fill:none;stroke:#231815;stroke-width:0.42;stroke-miterlimit:3.86;}
	.st12{fill:#FFFFFF;}
	.st13{font-size:4px;}
	.st14{font-size:6.41px;}
</style>
<title>hitrobot_hrg_English_chinese_logo_ash</title>
<g id="图层_2">
	<g id="图层_1-2">
		<text transform="matrix(0.95 0 0 1 53.0462 376.2206)" class="st0 st1 st2">■</text>
		<text transform="matrix(0.95 0 0 1 93.6572 376.2201)" class="st3 st1 st4"> </text>
		<text transform="matrix(0.95 0 0 1 76.3206 375.8034)" class="st3 st5 st4">标准字体制图</text>
		<path class="st6" d="M86.6,69.3h7.5v20.2H92v-2h-3.4v2.4h-2V69.3z M92,85.5V71.2h-3.4v14.3H92z M105.5,66l-0.5,0.8
			c2.2,4.1,5,7,8.3,8.6c-0.5,0.7-1.1,1.3-1.6,2c-3.3-2.2-6-5.2-7.9-8.7c-2,3.5-4.7,6.5-8,8.9c-0.5-0.6-0.9-1.2-1.5-1.8
			c3.7-2.4,6.6-5.8,8.5-9.8H105.5z M97,82.1h13.4v11.7h-2.2v-1.7h-9.1v1.7H97V82.1z M98.1,76.4h11.4v2H98.1V76.4z M108.2,90.1V84
			h-9.1v6.1H108.2z"/>
		<path class="st6" d="M85.5,122.5h12.4v-18.9H87.1v-2.3h24.1v2.3h-10.8v18.9h12.4v2.2H85.5V122.5z"/>
		<path class="st6" d="M85.1,157.5c7.8-3.5,12-8.7,12.6-15.6H85.6v-2.2h12.2c0-2.5,0.1-5.1,0.1-7.7h2.5c0,2.5,0,5.1-0.1,7.7h12.6
			v2.2h-12.6c1.3,7.5,5.7,12.5,13.2,14.9c-0.8,0.7-1.5,1.5-2.2,2.3c-5.9-2.2-10.4-7.1-12.1-13.2c-1.5,5.7-5.6,10.3-12.4,13.8
			C86.5,159.2,85.9,158.5,85.1,157.5z"/>
		<path class="st6" d="M85.1,182.7c2.1-3.1,3.6-6.6,4.5-10.2h-4.2v-1.9h4.4V165h2v5.6h4v1.9h-4v4.7l1.1-1.1c1.5,1.3,2.6,2.4,3.4,3.2
			l-1.5,1.6c-1.2-1.3-2.2-2.4-3-3.2v15h-2v-15.2c-0.8,2.8-2.1,5.4-3.8,7.8C85.7,184.4,85.4,183.5,85.1,182.7z M100,169v9.4
			c0,6.8-1.7,11.7-5.1,14.7c-0.5-0.7-1.1-1.3-1.7-1.9c3-2.6,4.5-6.7,4.5-12.3v-12h10.5v21.3c0,0.9,0.3,1.4,1,1.4h0.7
			c0.6,0,1-0.5,1.2-1.6c0.2-1.5,0.3-3,0.4-4.7c0.7,0.3,1.4,0.6,2.2,0.9c-0.2,1.9-0.3,3.4-0.5,4.6c-0.3,2-1.3,3-2.9,3h-1.5
			c-1.8,0-2.7-1.1-2.7-3.2V169H100z"/>
		<path class="st6" d="M86,210h11.5c0.3-0.8,0.5-1.6,0.6-2.5l2,0.3c-0.1,0.7-0.3,1.5-0.5,2.2h6.2c-0.8-0.5-1.5-1.1-2.4-1.6l1.2-1.3
			c1.2,0.7,2.3,1.4,3.4,2.2l-0.6,0.7h5.3v1.9h-10.9c2.2,2.1,6.1,3.1,11.6,3c-0.5,0.8-0.8,1.5-1.2,2.2l-1.4-0.1v8.6h-2V224h-6.1v1.5
			h-2v-8.8h9c-5.4-0.7-8.9-2.4-10.4-5h-0.5c-1.1,2.2-4.5,3.9-10.3,5h9.1v8.8h-2V224h-6v1.6h-2V217l-1.6,0.3c-0.3-0.6-0.7-1.2-1.1-2
			c6.3-0.8,10.1-1.9,11.4-3.4H86V210z M87.5,199.7h9.9v8.3h-2v-1h-6v1.2h-2L87.5,199.7z M95.5,201.4h-6v3.9h6V201.4z M95.5,218.6h-6
			v3.7h6V218.6z M100.5,199.7h10v8.3h-2v-1h-6.1v0.9h-2L100.5,199.7z M108.5,201.4h-6.1v3.9h6.1V201.4z M108.5,218.6h-6.1v3.7h6.1
			V218.6z"/>
		<path class="st6" d="M85.1,256.6c8.2-4.8,12.6-13.1,13.1-25h2.5c-0.1,1.9-0.3,3.9-0.6,5.8c2.3,9.4,6.7,15.7,13.2,18.6
			c-0.8,0.9-1.5,1.7-2.1,2.5c-5.6-3.2-9.6-8.8-12-16.8c-2.1,7.8-6.2,13.5-12.3,17.2C86.4,258,85.8,257.3,85.1,256.6z"/>
		<path class="st6" d="M86,283.1h12.2v-1.9h2v1.9h12.2v1.8h-10c3.3,2.3,7,3.9,11,4.7c-0.5,0.8-1,1.5-1.3,2.1
			c-4.4-1.2-8.4-3.4-11.9-6.3v6.6h-2v-6.7c-3.5,2.9-7.5,5.1-11.9,6.4c-0.4-0.6-0.8-1.2-1.3-1.8c4-0.9,7.7-2.7,10.9-5.1H86V283.1z
			 M98.5,265l1.7-1c0.8,0.9,1.5,1.9,2.2,2.9l-1.3,0.8h10.8v1.8h-10.7v2h9.5v1.6h-9.5v2h9.5v1.6h-9.5v2.1H112v1.8H91.4v1.1h-2v-10.1
			c-0.9,1.1-1.9,2.1-3,3.1c-0.4-0.7-0.8-1.3-1.4-1.9c2.8-2.4,5.2-5.2,7-8.4l2,0.9c-0.5,0.9-1.1,1.7-1.6,2.5h8
			C99.8,266.8,99.2,265.9,98.5,265z M91.4,271.5h7.8v-2h-7.8V271.5z M91.4,275.1h7.8v-2h-7.8V275.1z M91.4,278.8h7.8v-2.1h-7.8
			V278.8z"/>
		<path class="st6" d="M86.8,298.7h24.8v26.4h-2.2v-1.4H89v1.4h-2.2V298.7z M109.4,300.7H89v21.1h20.5L109.4,300.7z M90.3,305.7
			h10.6v-4.1h2.1v4.1h5.4v1.9H103v8.6c0,2.7-1.3,4.1-3.9,4.1c-1.1,0-2.2,0-3.3-0.1c-0.1-0.7-0.3-1.4-0.5-2.2
			c1.1,0.1,2.1,0.2,3.2,0.2c1.5,0,2.3-0.9,2.3-2.6V309c-2.6,3.9-6.1,7.1-10.2,9.5c-0.4-0.7-0.9-1.3-1.4-1.9c4.1-2.2,7.6-5.2,10.3-9
			h-9.2V305.7z"/>
		<rect x="14.7" y="28.4" class="st7" width="23" height="23.3"/>
		<path class="st3" d="M23.5,40.2l-0.9,2.5h-1.2l3.2-8.6H26l3.1,8.6h-1.2L27,40.2H23.5z M26.6,39.2l-1.3-3.8l0,0L24,39.2H26.6z"/>
		<rect x="14.4" y="28.3" class="st8" width="165" height="329.8"/>
		<line class="st9" x1="37.9" y1="28.3" x2="37.9" y2="358.1"/>
		<line class="st9" x1="61.6" y1="28.3" x2="61.6" y2="358.1"/>
		<line class="st9" x1="85.1" y1="28.3" x2="85.1" y2="358.1"/>
		<line class="st9" x1="108.6" y1="28.3" x2="108.6" y2="358.1"/>
		<line class="st9" x1="132.2" y1="28.3" x2="132.2" y2="358.1"/>
		<line class="st9" x1="155.8" y1="28.3" x2="155.8" y2="358.1"/>
		<line class="st9" x1="179.3" y1="334.5" x2="14.2" y2="334.5"/>
		<line class="st9" x1="179.3" y1="311" x2="14.2" y2="311"/>
		<line class="st9" x1="179.3" y1="287.4" x2="14.2" y2="287.4"/>
		<line class="st9" x1="179.3" y1="263.9" x2="14.2" y2="263.9"/>
		<line class="st9" x1="179.3" y1="240.3" x2="14.2" y2="240.3"/>
		<line class="st9" x1="179.3" y1="216.8" x2="14.2" y2="216.8"/>
		<line class="st9" x1="179.3" y1="193.2" x2="14.2" y2="193.2"/>
		<line class="st9" x1="179.3" y1="169.6" x2="14.2" y2="169.6"/>
		<line class="st9" x1="179.3" y1="146.1" x2="14.2" y2="146.1"/>
		<line class="st9" x1="179.3" y1="122.5" x2="14.2" y2="122.5"/>
		<line class="st9" x1="179.3" y1="99" x2="14.2" y2="99"/>
		<line class="st9" x1="179.3" y1="75.4" x2="14.2" y2="75.4"/>
		<line class="st9" x1="179.3" y1="51.9" x2="14.2" y2="51.9"/>
		<line class="st10" x1="136.9" y1="51.8" x2="136.9" y2="334.5"/>
		<line class="st10" x1="141.6" y1="51.8" x2="141.6" y2="334.5"/>
		<line class="st10" x1="146.4" y1="51.8" x2="146.4" y2="334.5"/>
		<line class="st10" x1="151.1" y1="51.8" x2="151.1" y2="334.5"/>
		<line class="st10" x1="155.8" y1="329.8" x2="132.2" y2="329.8"/>
		<line class="st10" x1="155.8" y1="325" x2="132.2" y2="325"/>
		<line class="st10" x1="155.8" y1="320.3" x2="132.2" y2="320.3"/>
		<line class="st10" x1="155.8" y1="315.6" x2="132.2" y2="315.6"/>
		<line class="st10" x1="155.8" y1="306.2" x2="132.2" y2="306.2"/>
		<line class="st10" x1="155.8" y1="301.5" x2="132.2" y2="301.5"/>
		<line class="st10" x1="155.8" y1="296.8" x2="132.2" y2="296.8"/>
		<line class="st10" x1="155.8" y1="292.1" x2="132.2" y2="292.1"/>
		<line class="st10" x1="155.8" y1="282.6" x2="132.2" y2="282.6"/>
		<line class="st10" x1="155.8" y1="278" x2="132.2" y2="278"/>
		<line class="st10" x1="155.8" y1="273.3" x2="132.2" y2="273.3"/>
		<line class="st10" x1="155.8" y1="268.5" x2="132.2" y2="268.5"/>
		<line class="st10" x1="155.8" y1="259.1" x2="132.2" y2="259.1"/>
		<line class="st10" x1="155.8" y1="254.3" x2="132.2" y2="254.3"/>
		<line class="st10" x1="155.8" y1="249.7" x2="132.2" y2="249.7"/>
		<line class="st10" x1="155.8" y1="245" x2="132.2" y2="245"/>
		<line class="st10" x1="155.8" y1="235.5" x2="132.2" y2="235.5"/>
		<line class="st10" x1="155.8" y1="230.8" x2="132.2" y2="230.8"/>
		<line class="st10" x1="155.8" y1="226.1" x2="132.2" y2="226.1"/>
		<line class="st10" x1="155.8" y1="221.4" x2="132.2" y2="221.4"/>
		<line class="st10" x1="155.8" y1="212" x2="132.2" y2="212"/>
		<line class="st10" x1="155.8" y1="207.3" x2="132.2" y2="207.3"/>
		<line class="st10" x1="155.8" y1="202.6" x2="132.2" y2="202.6"/>
		<line class="st10" x1="155.8" y1="197.8" x2="132.2" y2="197.8"/>
		<line class="st10" x1="155.8" y1="188.4" x2="132.2" y2="188.4"/>
		<line class="st10" x1="155.8" y1="183.7" x2="132.2" y2="183.7"/>
		<line class="st10" x1="155.8" y1="179" x2="132.2" y2="179"/>
		<line class="st10" x1="155.8" y1="174.3" x2="132.2" y2="174.3"/>
		<line class="st10" x1="155.8" y1="164.8" x2="132.2" y2="164.8"/>
		<line class="st10" x1="155.8" y1="160.1" x2="132.2" y2="160.1"/>
		<line class="st10" x1="155.8" y1="155.5" x2="132.2" y2="155.5"/>
		<line class="st10" x1="155.8" y1="150.8" x2="132.2" y2="150.8"/>
		<path class="st10" d="M132.2,146"/>
		<path class="st10" d="M155.8,146"/>
		<line class="st10" x1="155.8" y1="141.3" x2="132.2" y2="141.3"/>
		<line class="st10" x1="155.8" y1="136.6" x2="132.2" y2="136.6"/>
		<line class="st10" x1="155.8" y1="131.9" x2="132.2" y2="131.9"/>
		<line class="st10" x1="155.8" y1="127.2" x2="132.2" y2="127.2"/>
		<line class="st10" x1="155.8" y1="117.8" x2="132.2" y2="117.8"/>
		<line class="st10" x1="155.8" y1="113" x2="132.2" y2="113"/>
		<line class="st10" x1="155.8" y1="108.3" x2="132.2" y2="108.3"/>
		<line class="st10" x1="155.8" y1="103.6" x2="132.2" y2="103.6"/>
		<line class="st10" x1="155.8" y1="94.2" x2="132.2" y2="94.2"/>
		<line class="st10" x1="155.8" y1="89.5" x2="132.2" y2="89.5"/>
		<line class="st10" x1="155.8" y1="84.8" x2="132.2" y2="84.8"/>
		<line class="st10" x1="155.8" y1="80.1" x2="132.2" y2="80.1"/>
		<line class="st10" x1="155.8" y1="70.6" x2="132.2" y2="70.6"/>
		<line class="st10" x1="155.8" y1="66" x2="132.2" y2="66"/>
		<line class="st10" x1="155.8" y1="61.3" x2="132.2" y2="61.3"/>
		<line class="st10" x1="155.8" y1="56.5" x2="132.2" y2="56.5"/>
		<line class="st10" x1="113.3" y1="51.8" x2="113.3" y2="334.5"/>
		<line class="st10" x1="118" y1="51.8" x2="118" y2="334.5"/>
		<line class="st10" x1="122.8" y1="51.8" x2="122.8" y2="334.5"/>
		<line class="st10" x1="127.5" y1="51.8" x2="127.5" y2="334.5"/>
		<line class="st10" x1="132.2" y1="329.8" x2="108.6" y2="329.8"/>
		<line class="st10" x1="132.2" y1="325" x2="108.6" y2="325"/>
		<line class="st10" x1="132.2" y1="320.3" x2="108.6" y2="320.3"/>
		<line class="st10" x1="132.2" y1="315.6" x2="108.6" y2="315.6"/>
		<line class="st10" x1="132.2" y1="306.2" x2="108.6" y2="306.2"/>
		<line class="st10" x1="132.2" y1="301.5" x2="108.6" y2="301.5"/>
		<line class="st10" x1="132.2" y1="296.8" x2="108.6" y2="296.8"/>
		<line class="st10" x1="132.2" y1="292.1" x2="108.6" y2="292.1"/>
		<line class="st10" x1="132.2" y1="282.6" x2="108.6" y2="282.6"/>
		<line class="st10" x1="132.2" y1="278" x2="108.6" y2="278"/>
		<line class="st10" x1="132.2" y1="273.3" x2="108.6" y2="273.3"/>
		<line class="st10" x1="132.2" y1="268.5" x2="108.6" y2="268.5"/>
		<line class="st10" x1="132.2" y1="259.1" x2="108.6" y2="259.1"/>
		<line class="st10" x1="132.2" y1="254.3" x2="108.6" y2="254.3"/>
		<line class="st10" x1="132.2" y1="249.7" x2="108.6" y2="249.7"/>
		<line class="st10" x1="132.2" y1="245" x2="108.6" y2="245"/>
		<line class="st10" x1="132.2" y1="235.5" x2="108.6" y2="235.5"/>
		<line class="st10" x1="132.2" y1="230.8" x2="108.6" y2="230.8"/>
		<line class="st10" x1="132.2" y1="226.1" x2="108.6" y2="226.1"/>
		<line class="st10" x1="132.2" y1="221.4" x2="108.6" y2="221.4"/>
		<line class="st10" x1="132.2" y1="212" x2="108.6" y2="212"/>
		<line class="st10" x1="132.2" y1="207.3" x2="108.6" y2="207.3"/>
		<line class="st10" x1="132.2" y1="202.6" x2="108.6" y2="202.6"/>
		<line class="st10" x1="132.2" y1="197.8" x2="108.6" y2="197.8"/>
		<line class="st10" x1="132.2" y1="188.4" x2="108.6" y2="188.4"/>
		<line class="st10" x1="132.2" y1="183.7" x2="108.6" y2="183.7"/>
		<line class="st10" x1="132.2" y1="179" x2="108.6" y2="179"/>
		<line class="st10" x1="132.2" y1="174.3" x2="108.6" y2="174.3"/>
		<line class="st10" x1="132.2" y1="164.8" x2="108.6" y2="164.8"/>
		<line class="st10" x1="132.2" y1="160.1" x2="108.6" y2="160.1"/>
		<line class="st10" x1="132.2" y1="155.5" x2="108.6" y2="155.5"/>
		<line class="st10" x1="132.2" y1="150.8" x2="108.6" y2="150.8"/>
		<line class="st10" x1="132.2" y1="141.3" x2="108.6" y2="141.3"/>
		<line class="st10" x1="132.2" y1="136.6" x2="108.6" y2="136.6"/>
		<line class="st10" x1="132.2" y1="131.9" x2="108.6" y2="131.9"/>
		<line class="st10" x1="132.2" y1="127.2" x2="108.6" y2="127.2"/>
		<line class="st10" x1="132.2" y1="117.8" x2="108.6" y2="117.8"/>
		<line class="st10" x1="132.2" y1="113" x2="108.6" y2="113"/>
		<line class="st10" x1="132.2" y1="108.3" x2="108.6" y2="108.3"/>
		<line class="st10" x1="132.2" y1="103.6" x2="108.6" y2="103.6"/>
		<line class="st10" x1="132.2" y1="94.2" x2="108.6" y2="94.2"/>
		<line class="st10" x1="132.2" y1="89.5" x2="108.6" y2="89.5"/>
		<line class="st10" x1="132.2" y1="84.8" x2="108.6" y2="84.8"/>
		<line class="st10" x1="132.2" y1="80.1" x2="108.6" y2="80.1"/>
		<line class="st10" x1="132.2" y1="70.6" x2="108.6" y2="70.6"/>
		<line class="st10" x1="132.2" y1="66" x2="108.6" y2="66"/>
		<line class="st10" x1="132.2" y1="61.3" x2="108.6" y2="61.3"/>
		<line class="st10" x1="132.2" y1="56.5" x2="108.6" y2="56.5"/>
		<line class="st10" x1="89.8" y1="51.8" x2="89.8" y2="334.5"/>
		<line class="st10" x1="94.5" y1="51.8" x2="94.5" y2="334.5"/>
		<line class="st10" x1="99.2" y1="51.8" x2="99.2" y2="334.5"/>
		<line class="st10" x1="104" y1="51.8" x2="104" y2="334.5"/>
		<line class="st10" x1="108.7" y1="329.8" x2="85" y2="329.8"/>
		<line class="st10" x1="108.7" y1="325" x2="85" y2="325"/>
		<line class="st10" x1="108.7" y1="320.3" x2="85" y2="320.3"/>
		<line class="st10" x1="108.7" y1="315.6" x2="85" y2="315.6"/>
		<line class="st10" x1="108.7" y1="306.2" x2="85" y2="306.2"/>
		<line class="st10" x1="108.7" y1="301.5" x2="85" y2="301.5"/>
		<line class="st10" x1="108.7" y1="296.8" x2="85" y2="296.8"/>
		<line class="st10" x1="108.7" y1="292.1" x2="85" y2="292.1"/>
		<line class="st10" x1="108.7" y1="282.6" x2="85" y2="282.6"/>
		<line class="st10" x1="108.7" y1="278" x2="85" y2="278"/>
		<line class="st10" x1="108.7" y1="273.3" x2="85" y2="273.3"/>
		<line class="st10" x1="108.7" y1="268.5" x2="85" y2="268.5"/>
		<line class="st10" x1="108.7" y1="259.1" x2="85" y2="259.1"/>
		<line class="st10" x1="108.7" y1="254.3" x2="85" y2="254.3"/>
		<line class="st10" x1="108.7" y1="249.7" x2="85" y2="249.7"/>
		<line class="st10" x1="108.7" y1="245" x2="85" y2="245"/>
		<line class="st10" x1="108.7" y1="235.5" x2="85" y2="235.5"/>
		<line class="st10" x1="108.7" y1="230.8" x2="85" y2="230.8"/>
		<line class="st10" x1="108.7" y1="226.1" x2="85" y2="226.1"/>
		<line class="st10" x1="108.7" y1="221.4" x2="85" y2="221.4"/>
		<line class="st10" x1="108.7" y1="212" x2="85" y2="212"/>
		<line class="st10" x1="108.7" y1="207.3" x2="85" y2="207.3"/>
		<line class="st10" x1="108.7" y1="202.6" x2="85" y2="202.6"/>
		<line class="st10" x1="108.7" y1="197.8" x2="85" y2="197.8"/>
		<line class="st10" x1="108.7" y1="188.4" x2="85" y2="188.4"/>
		<line class="st10" x1="108.7" y1="183.7" x2="85" y2="183.7"/>
		<line class="st10" x1="108.7" y1="179" x2="85" y2="179"/>
		<line class="st10" x1="108.7" y1="174.3" x2="85" y2="174.3"/>
		<line class="st10" x1="108.7" y1="164.8" x2="85" y2="164.8"/>
		<line class="st10" x1="108.7" y1="160.1" x2="85" y2="160.1"/>
		<line class="st10" x1="108.7" y1="155.5" x2="85" y2="155.5"/>
		<line class="st10" x1="108.7" y1="150.8" x2="85" y2="150.8"/>
		<line class="st10" x1="108.7" y1="141.3" x2="85" y2="141.3"/>
		<line class="st10" x1="108.7" y1="136.6" x2="85" y2="136.6"/>
		<line class="st10" x1="108.7" y1="131.9" x2="85" y2="131.9"/>
		<line class="st10" x1="108.7" y1="127.2" x2="85" y2="127.2"/>
		<line class="st10" x1="108.7" y1="117.8" x2="85" y2="117.8"/>
		<line class="st10" x1="108.7" y1="113" x2="85" y2="113"/>
		<line class="st10" x1="108.7" y1="108.3" x2="85" y2="108.3"/>
		<line class="st10" x1="108.7" y1="103.6" x2="85" y2="103.6"/>
		<line class="st10" x1="108.7" y1="94.2" x2="85" y2="94.2"/>
		<line class="st10" x1="108.7" y1="89.5" x2="85" y2="89.5"/>
		<line class="st10" x1="108.7" y1="84.8" x2="85" y2="84.8"/>
		<line class="st10" x1="108.7" y1="80.1" x2="85" y2="80.1"/>
		<line class="st10" x1="108.7" y1="70.6" x2="85" y2="70.6"/>
		<line class="st10" x1="108.7" y1="66" x2="85" y2="66"/>
		<line class="st10" x1="108.7" y1="61.3" x2="85" y2="61.3"/>
		<line class="st10" x1="108.7" y1="56.5" x2="85" y2="56.5"/>
		<line class="st10" x1="66.3" y1="51.8" x2="66.3" y2="334.5"/>
		<line class="st10" x1="71" y1="51.8" x2="71" y2="334.5"/>
		<line class="st10" x1="75.7" y1="51.8" x2="75.7" y2="334.5"/>
		<line class="st10" x1="80.4" y1="51.8" x2="80.4" y2="334.5"/>
		<line class="st10" x1="85.2" y1="329.8" x2="61.5" y2="329.8"/>
		<line class="st10" x1="85.2" y1="325" x2="61.5" y2="325"/>
		<line class="st10" x1="85.2" y1="320.3" x2="61.5" y2="320.3"/>
		<line class="st10" x1="85.2" y1="315.6" x2="61.5" y2="315.6"/>
		<line class="st10" x1="85.2" y1="306.2" x2="61.5" y2="306.2"/>
		<line class="st10" x1="85.2" y1="301.5" x2="61.5" y2="301.5"/>
		<line class="st10" x1="85.2" y1="296.8" x2="61.5" y2="296.8"/>
		<line class="st10" x1="85.2" y1="292.1" x2="61.5" y2="292.1"/>
		<line class="st10" x1="85.2" y1="282.6" x2="61.5" y2="282.6"/>
		<line class="st10" x1="85.2" y1="278" x2="61.5" y2="278"/>
		<line class="st10" x1="85.2" y1="273.3" x2="61.5" y2="273.3"/>
		<line class="st10" x1="85.2" y1="268.5" x2="61.5" y2="268.5"/>
		<line class="st10" x1="85.2" y1="259.1" x2="61.5" y2="259.1"/>
		<line class="st10" x1="85.2" y1="254.3" x2="61.5" y2="254.3"/>
		<line class="st10" x1="85.2" y1="249.7" x2="61.5" y2="249.7"/>
		<line class="st10" x1="85.2" y1="245" x2="61.5" y2="245"/>
		<line class="st10" x1="85.2" y1="235.5" x2="61.5" y2="235.5"/>
		<line class="st10" x1="85.2" y1="230.8" x2="61.5" y2="230.8"/>
		<line class="st10" x1="85.2" y1="226.1" x2="61.5" y2="226.1"/>
		<line class="st10" x1="85.2" y1="221.4" x2="61.5" y2="221.4"/>
		<line class="st10" x1="85.2" y1="212" x2="61.5" y2="212"/>
		<line class="st10" x1="85.2" y1="207.3" x2="61.5" y2="207.3"/>
		<line class="st10" x1="85.2" y1="202.6" x2="61.5" y2="202.6"/>
		<line class="st10" x1="85.2" y1="197.8" x2="61.5" y2="197.8"/>
		<line class="st10" x1="85.2" y1="188.4" x2="61.5" y2="188.4"/>
		<line class="st10" x1="85.2" y1="183.7" x2="61.5" y2="183.7"/>
		<line class="st10" x1="85.2" y1="179" x2="61.5" y2="179"/>
		<line class="st10" x1="85.2" y1="174.3" x2="61.5" y2="174.3"/>
		<line class="st10" x1="85.2" y1="164.8" x2="61.5" y2="164.8"/>
		<line class="st10" x1="85.2" y1="160.1" x2="61.5" y2="160.1"/>
		<line class="st10" x1="85.2" y1="155.5" x2="61.5" y2="155.5"/>
		<line class="st10" x1="85.2" y1="150.8" x2="61.5" y2="150.8"/>
		<line class="st10" x1="85.2" y1="141.3" x2="61.5" y2="141.3"/>
		<line class="st10" x1="85.2" y1="136.6" x2="61.5" y2="136.6"/>
		<line class="st10" x1="85.2" y1="131.9" x2="61.5" y2="131.9"/>
		<line class="st10" x1="85.2" y1="127.2" x2="61.5" y2="127.2"/>
		<line class="st10" x1="85.2" y1="117.8" x2="61.5" y2="117.8"/>
		<line class="st10" x1="85.2" y1="113" x2="61.5" y2="113"/>
		<line class="st10" x1="85.2" y1="108.3" x2="61.5" y2="108.3"/>
		<line class="st10" x1="85.2" y1="103.6" x2="61.5" y2="103.6"/>
		<line class="st10" x1="85.2" y1="94.2" x2="61.5" y2="94.2"/>
		<line class="st10" x1="85.2" y1="89.5" x2="61.5" y2="89.5"/>
		<line class="st10" x1="85.2" y1="84.8" x2="61.5" y2="84.8"/>
		<line class="st10" x1="85.2" y1="80.1" x2="61.5" y2="80.1"/>
		<line class="st10" x1="85.2" y1="70.6" x2="61.5" y2="70.6"/>
		<line class="st10" x1="85.2" y1="66" x2="61.5" y2="66"/>
		<line class="st10" x1="85.2" y1="61.3" x2="61.5" y2="61.3"/>
		<line class="st10" x1="85.2" y1="56.5" x2="61.5" y2="56.5"/>
		<line class="st10" x1="42.7" y1="51.8" x2="42.7" y2="334.5"/>
		<line class="st10" x1="47.4" y1="51.8" x2="47.4" y2="334.5"/>
		<line class="st10" x1="52.2" y1="51.8" x2="52.2" y2="334.5"/>
		<line class="st10" x1="56.9" y1="51.8" x2="56.9" y2="334.5"/>
		<line class="st10" x1="61.6" y1="329.8" x2="38" y2="329.8"/>
		<line class="st10" x1="61.6" y1="325" x2="38" y2="325"/>
		<line class="st10" x1="61.6" y1="320.3" x2="38" y2="320.3"/>
		<line class="st10" x1="61.6" y1="315.6" x2="38" y2="315.6"/>
		<line class="st10" x1="61.6" y1="306.2" x2="38" y2="306.2"/>
		<line class="st10" x1="61.6" y1="301.5" x2="38" y2="301.5"/>
		<line class="st10" x1="61.6" y1="296.8" x2="38" y2="296.8"/>
		<line class="st10" x1="61.6" y1="292.1" x2="38" y2="292.1"/>
		<line class="st10" x1="61.6" y1="282.6" x2="38" y2="282.6"/>
		<line class="st10" x1="61.6" y1="278" x2="38" y2="278"/>
		<line class="st10" x1="61.6" y1="273.3" x2="38" y2="273.3"/>
		<line class="st10" x1="61.6" y1="268.5" x2="38" y2="268.5"/>
		<line class="st10" x1="61.6" y1="259.1" x2="38" y2="259.1"/>
		<line class="st10" x1="61.6" y1="254.3" x2="38" y2="254.3"/>
		<line class="st10" x1="61.6" y1="249.7" x2="38" y2="249.7"/>
		<line class="st10" x1="61.6" y1="245" x2="38" y2="245"/>
		<line class="st10" x1="61.6" y1="235.5" x2="38" y2="235.5"/>
		<line class="st10" x1="61.6" y1="230.8" x2="38" y2="230.8"/>
		<line class="st10" x1="61.6" y1="226.1" x2="38" y2="226.1"/>
		<line class="st10" x1="61.6" y1="221.4" x2="38" y2="221.4"/>
		<line class="st10" x1="61.6" y1="212" x2="38" y2="212"/>
		<line class="st10" x1="61.6" y1="207.3" x2="38" y2="207.3"/>
		<line class="st10" x1="61.6" y1="202.6" x2="38" y2="202.6"/>
		<line class="st10" x1="61.6" y1="197.8" x2="38" y2="197.8"/>
		<line class="st10" x1="61.6" y1="188.4" x2="38" y2="188.4"/>
		<line class="st10" x1="61.6" y1="183.7" x2="38" y2="183.7"/>
		<line class="st10" x1="61.6" y1="179" x2="38" y2="179"/>
		<line class="st10" x1="61.6" y1="174.3" x2="38" y2="174.3"/>
		<line class="st10" x1="61.6" y1="164.8" x2="38" y2="164.8"/>
		<line class="st10" x1="61.6" y1="160.1" x2="38" y2="160.1"/>
		<line class="st10" x1="61.6" y1="155.5" x2="38" y2="155.5"/>
		<line class="st10" x1="61.6" y1="150.8" x2="38" y2="150.8"/>
		<line class="st10" x1="61.6" y1="141.3" x2="38" y2="141.3"/>
		<line class="st10" x1="61.6" y1="136.6" x2="38" y2="136.6"/>
		<line class="st10" x1="61.6" y1="131.9" x2="38" y2="131.9"/>
		<line class="st10" x1="61.6" y1="127.2" x2="38" y2="127.2"/>
		<line class="st10" x1="61.6" y1="117.8" x2="38" y2="117.8"/>
		<line class="st10" x1="61.6" y1="113" x2="38" y2="113"/>
		<line class="st10" x1="61.6" y1="108.3" x2="38" y2="108.3"/>
		<line class="st10" x1="61.6" y1="103.6" x2="38" y2="103.6"/>
		<line class="st10" x1="61.6" y1="94.2" x2="38" y2="94.2"/>
		<line class="st10" x1="61.6" y1="89.5" x2="38" y2="89.5"/>
		<line class="st10" x1="61.6" y1="84.8" x2="38" y2="84.8"/>
		<line class="st10" x1="61.6" y1="80.1" x2="38" y2="80.1"/>
		<line class="st10" x1="61.6" y1="70.6" x2="38" y2="70.6"/>
		<line class="st10" x1="61.6" y1="66" x2="38" y2="66"/>
		<line class="st10" x1="61.6" y1="61.3" x2="38" y2="61.3"/>
		<line class="st10" x1="61.6" y1="56.5" x2="38" y2="56.5"/>
		<line class="st11" x1="113.3" y1="21.7" x2="85.2" y2="21.7"/>
		<line class="st11" x1="113.3" y1="26.3" x2="113.3" y2="16.5"/>
		<line class="st11" x1="85.2" y1="26.5" x2="85.2" y2="16.7"/>
		<line class="st11" x1="203.6" y1="66" x2="203.6" y2="324.5"/>
		<line class="st11" x1="212" y1="325.5" x2="181" y2="325.5"/>
		<line class="st11" x1="212" y1="66" x2="181" y2="66"/>
		<rect x="194.3" y="161.5" class="st12" width="17.3" height="44.6"/>
		<text transform="matrix(6.123234e-17 1 -1 6.123234e-17 202 170.22)" class="st3 st1 st13">10.5A</text>
		<text transform="matrix(6.123234e-17 1 -1 6.123234e-17 2.0801 60.18)" class="st3 st1 st14">0</text>
		<text transform="matrix(6.123234e-17 1 -1 6.123234e-17 2.0801 178.38)" class="st3 st1 st14">5</text>
		<text transform="matrix(6.123234e-17 1 -1 6.123234e-17 2.0801 293.99)" class="st3 st1 st14">10</text>
		<text transform="matrix(1 0 0 1 87.99 9.5)" class="st3 st1 st4">1.1A</text>
	</g>
</g>
</svg>
