<svg xmlns="http://www.w3.org/2000/svg" viewBox="0 0 277.45 92.49"><defs><style>.cls-1{fill:#0f3567;}.cls-2{fill:#fff;}</style></defs><title>hitrobot_hrg_route_blue</title><g id="图层_2" data-name="图层 2"><g id="图层_1-2" data-name="图层 1"><polygon class="cls-1" points="258.72 54.71 216.49 54.71 211.59 64.26 236.94 64.26 246 82.58 189.73 82.58 217.8 26.12 225.09 40.69 251.69 40.69 231.28 0 202.06 0 157.56 89.15 138.53 51.23 169.14 51.23 194.65 0 103.76 0 82.85 41.64 54.13 41.64 74.99 0 46.46 0 0 92.49 28.65 92.49 49.32 51.23 78.08 51.23 57.35 92.49 85.98 92.49 127.52 9.61 163.08 9.61 146.38 41.64 118.72 41.64 112.53 54.03 131.6 92.49 277.45 92.49 258.72 54.71"/><path class="cls-2" d="M20.76,79.68l5.55-4.17a6.95,6.95,0,1,1-5.57-2.77Z"/><circle class="cls-2" cx="24.89" cy="71.35" r="0.99" transform="translate(-48.59 53.7) rotate(-57.26)"/><circle class="cls-2" cx="33.14" cy="54.69" r="0.99" transform="translate(-30.79 53) rotate(-57.27)"/><circle class="cls-2" cx="29.02" cy="63.02" r="0.99" transform="translate(-39.69 53.35) rotate(-57.26)"/><circle class="cls-2" cx="94.94" cy="46.36" r="0.99" transform="translate(4.63 101.21) rotate(-57.3)"/><circle class="cls-2" cx="115.73" cy="4.69" r="0.99" transform="translate(49.24 99.53) rotate(-57.29)"/><circle class="cls-2" cx="128.29" cy="4.69" r="0.99" transform="matrix(0.54, -0.84, 0.84, 0.54, 55.06, 110.13)"/><circle class="cls-2" cx="140.86" cy="4.69" r="0.99" transform="translate(60.84 120.71) rotate(-57.31)"/><circle class="cls-2" cx="153.43" cy="4.69" r="0.99" transform="translate(66.62 131.29) rotate(-57.31)"/><circle class="cls-2" cx="166" cy="4.69" r="0.99" transform="translate(72.4 141.87) rotate(-57.31)"/><circle class="cls-2" cx="111.57" cy="13.03" r="0.99" transform="translate(40.32 99.86) rotate(-57.29)"/><circle class="cls-2" cx="107.41" cy="21.36" r="0.99" transform="translate(31.39 100.19) rotate(-57.29)"/><circle class="cls-2" cx="103.26" cy="29.7" r="0.99" transform="translate(22.47 100.53) rotate(-57.29)"/><circle class="cls-2" cx="99.1" cy="38.03" r="0.99" transform="translate(13.52 100.82) rotate(-57.26)"/><circle class="cls-2" cx="178.57" cy="4.69" r="0.99" transform="translate(77.96 152.29) rotate(-57.23)"/><circle class="cls-2" cx="170.31" cy="21.34" r="0.99" transform="translate(60.14 152.96) rotate(-57.21)"/><circle class="cls-2" cx="166.18" cy="29.67" r="0.99" transform="translate(51.28 153.34) rotate(-57.23)"/><circle class="cls-2" cx="174.44" cy="13.02" r="0.99" transform="translate(69.1 152.67) rotate(-57.24)"/><circle class="cls-2" cx="162.05" cy="37.99" r="0.99" transform="translate(42.39 153.68) rotate(-57.23)"/><circle class="cls-2" cx="157.92" cy="46.32" r="0.99" transform="translate(33.52 154.06) rotate(-57.24)"/><circle class="cls-2" cx="144.72" cy="46.32" r="0.99" transform="translate(27.46 142.95) rotate(-57.24)"/><circle class="cls-2" cx="131.51" cy="46.32" r="0.99" transform="translate(21.4 131.85) rotate(-57.24)"/><circle class="cls-2" cx="127.3" cy="54.98" r="0.99" transform="translate(12.18 132.29) rotate(-57.24)"/><circle class="cls-2" cx="131.76" cy="63.72" r="0.99" transform="matrix(0.54, -0.84, 0.84, 0.54, 6.87, 140.05)"/><circle class="cls-2" cx="136.21" cy="72.46" r="0.99" transform="matrix(0.54, -0.84, 0.84, 0.54, 1.57, 147.81)"/><circle class="cls-2" cx="140.67" cy="81.21" r="0.99" transform="translate(-3.68 155.68) rotate(-57.29)"/><circle class="cls-2" cx="145.12" cy="89.95" r="0.99" transform="translate(-9.06 163.27) rotate(-57.22)"/><circle class="cls-2" cx="154.12" cy="89.95" r="0.99" transform="translate(-2.22 175.97) rotate(-59.09)"/><circle class="cls-2" cx="163.12" cy="89.95" r="0.99" transform="translate(2.16 183.7) rotate(-59.09)"/><circle class="cls-2" cx="172.12" cy="89.95" r="0.99" transform="matrix(0.52, -0.86, 0.86, 0.52, 6.38, 191.16)"/><path class="cls-2" d="M214.09,3.85a1,1,0,1,1-1.37.33A1,1,0,0,1,214.09,3.85Z"/><path class="cls-2" d="M209.95,12.37a1,1,0,1,1-1.37.33A1,1,0,0,1,209.95,12.37Z"/><path class="cls-2" d="M205.8,20.9a1,1,0,1,1-1.37.33A1,1,0,0,1,205.8,20.9Z"/><path class="cls-2" d="M197.51,37.95a1,1,0,1,1-1.37.33A1,1,0,0,1,197.51,37.95Z"/><path class="cls-2" d="M193.37,46.47a1,1,0,1,1-1.37.33A1,1,0,0,1,193.37,46.47Z"/><path class="cls-2" d="M189.22,55a1,1,0,1,1-1.37.33A1,1,0,0,1,189.22,55Z"/><path class="cls-2" d="M180.93,72a1,1,0,1,1-1.37.33A1,1,0,0,1,180.93,72Z"/><path class="cls-2" d="M176.78,80.57a1,1,0,1,1-1.37.33A1,1,0,0,1,176.78,80.57Z"/><path class="cls-2" d="M185.07,63.52a1,1,0,1,1-1.37.33A1,1,0,0,1,185.07,63.52Z"/><path class="cls-2" d="M201.66,29.42a1,1,0,1,1-1.37.33A1,1,0,0,1,201.66,29.42Z"/><circle class="cls-2" cx="221.58" cy="4.69" r="0.99" transform="translate(103.49 192.23) rotate(-59.02)"/><circle class="cls-2" cx="225.45" cy="13.22" r="0.99" transform="translate(104.66 204.04) rotate(-61.02)"/><circle class="cls-2" cx="232.39" cy="28.71" r="6.94"/><polygon class="cls-2" points="225.97 23.81 227.01 16.72 233.04 20.43 228.55 20.15 225.97 23.81"/><circle class="cls-2" cx="37.27" cy="46.36" r="0.99" transform="translate(-21.88 52.64) rotate(-57.26)"/><circle class="cls-2" cx="48.81" cy="46.36" r="0.99" transform="matrix(0.54, -0.84, 0.84, 0.54, -16.59, 62.32)"/><circle class="cls-2" cx="71.87" cy="46.36" r="0.99" transform="translate(-5.99 81.75) rotate(-57.26)"/><circle class="cls-2" cx="83.41" cy="46.36" r="0.99" transform="translate(-0.72 91.42) rotate(-57.24)"/><circle class="cls-2" cx="60.34" cy="46.36" r="0.99" transform="translate(-11.29 72.05) rotate(-57.27)"/></g></g></svg>