<?xml version="1.0" encoding="utf-8"?>
<!-- Generator: Adobe Illustrator 21.1.0, SVG Export Plug-In . SVG Version: 6.00 Build 0)  -->
<svg version="1.1" id="图层_1" xmlns="http://www.w3.org/2000/svg" xmlns:xlink="http://www.w3.org/1999/xlink" x="0px" y="0px"
	 viewBox="0 0 350.2 215" style="enable-background:new 0 0 350.2 215;" xml:space="preserve">
<style type="text/css">
	.st0{fill:#898989;}
	.st1{fill:#10386B;}
	.st2{font-family:'ArialMT';}
	.st3{font-size:7.52px;}
	.st4{fill:#231815;}
	.st5{font-family:'AdobeSongStd-Light-GBpc-EUC-H';}
	.st6{font-size:7.44px;}
	.st7{fill:none;stroke:#231815;stroke-width:0.42;stroke-miterlimit:3.86;}
	.st8{fill:#FFFFFF;}
	.st9{fill:#D3D3D4;}
	.st10{fill:none;stroke:#231815;stroke-width:0.44;}
	.st11{fill:none;stroke:#231815;stroke-width:0.31;stroke-miterlimit:3.86;}
	.st12{fill:none;stroke:#231815;stroke-width:0.19;}
	.st13{font-size:5px;}
	.st14{font-size:6.41px;}
</style>
<title>hitrobot_hrg_English_transverse_logo_ash</title>
<g id="图层_2">
	<g id="图层_1-2">
		<path class="st0" d="M42.8,80h1.6v14.2h-1.6v-6.6h-7.9v6.6h-1.6V80h1.6v6.2h7.9V80z"/>
		<path class="st0" d="M53.5,80h1.6v14.2h-1.6V80z"/>
		<path class="st0" d="M74.4,80v1.3h-4.8v12.9H68V81.4h-4.8V80H74.4z"/>
		<path class="st0" d="M105.5,94.2h-2.2l-4.9-6.4h-3.8v6.4H93V80h6.6c3,0.1,4.6,1.4,4.8,3.8c0,2.5-1.4,3.8-4.3,4L105.5,94.2z
			 M94.6,81.5v5h4.6c2.3,0,3.5-0.9,3.5-2.6c0-1.5-1.2-2.3-3.5-2.3L94.6,81.5z"/>
		<path class="st0" d="M119.2,94.4c-4.3-0.2-6.5-2.6-6.7-7c0.2-4.8,2.5-7.3,6.9-7.6c4.2,0.3,6.5,2.8,6.7,7.4
			C126,91.9,123.7,94.2,119.2,94.4z M119.3,81.3c-3.1,0.3-4.8,2.3-5.2,6c0.2,3.6,1.9,5.6,5,5.9c3.3-0.2,5.1-2.1,5.3-5.9
			C124.1,83.5,122.4,81.5,119.3,81.3L119.3,81.3z"/>
		<path class="st0" d="M140.1,94.2h-5.9V80h5.5c2.8,0.1,4.3,1.3,4.5,3.5c0,1.6-1.2,3-2.8,3.1v0.1c1.9,0.1,3.4,1.7,3.4,3.6
			C144.7,92.8,143.1,94.1,140.1,94.2z M139.4,81.5h-3.7v4.8h3.7c1.9-0.1,3-0.9,3.2-2.6C142.5,82.2,141.4,81.5,139.4,81.5L139.4,81.5
			z M139.6,87.6h-3.9v5.3h4.2c2.2,0,3.3-0.9,3.3-2.8C143.1,88.6,141.9,87.7,139.6,87.6L139.6,87.6z"/>
		<path class="st0" d="M159.5,94.4c-4.3-0.2-6.5-2.6-6.7-7c0.2-4.8,2.5-7.3,6.9-7.6c4.2,0.3,6.4,2.8,6.7,7.4
			C166.2,91.9,163.9,94.2,159.5,94.4z M159.5,81.3c-3.1,0.3-4.8,2.3-5.2,6c0.2,3.6,1.9,5.6,5,5.9c3.3-0.2,5.1-2.1,5.2-5.9
			C164.3,83.5,162.6,81.5,159.5,81.3L159.5,81.3z"/>
		<path class="st0" d="M184.8,80v1.3H180v12.9h-1.6V81.4h-4.8V80H184.8z"/>
		<path class="st0" d="M209.8,86.9h6.1v5.2c-1.2,1.6-3.2,2.3-6.1,2.3c-4.4-0.2-6.8-2.6-7-7.1c0.2-4.8,2.4-7.3,6.7-7.5
			c3.2,0,5.3,1.4,6.3,4.2l-1.8,0.4c-0.6-2-2.5-3.3-4.6-3.2c-3,0.3-4.7,2.3-5,6c0.2,3.6,2,5.6,5.2,5.9c2.1,0,3.7-0.6,4.6-1.7v-3.2
			h-4.5L209.8,86.9z"/>
		<path class="st0" d="M236.9,94.2h-2.2l-4.9-6.4H226v6.4h-1.6V80h6.6c3,0.1,4.6,1.4,4.8,3.8c0,2.5-1.4,3.8-4.3,4L236.9,94.2z
			 M226.1,81.5v5h4.6c2.3,0,3.5-0.9,3.5-2.6c0-1.5-1.2-2.3-3.5-2.3L226.1,81.5z"/>
		<path class="st0" d="M250.6,94.4c-4.3-0.2-6.5-2.6-6.7-7c0.2-4.8,2.5-7.3,6.9-7.6c4.2,0.3,6.5,2.8,6.7,7.4
			C257.4,91.9,255.1,94.2,250.6,94.4z M250.7,81.3c-3.1,0.3-4.8,2.3-5.2,6c0.2,3.6,1.9,5.6,5,5.9c3.3-0.2,5.1-2.1,5.2-5.9
			C255.5,83.5,253.8,81.5,250.7,81.3L250.7,81.3z"/>
		<path class="st0" d="M276.9,80v8.3c0,4.1-1.8,6.1-5.7,6.1c-3.8,0-5.7-2.1-5.5-6.1V80h1.6v8.2c0,3.3,1.3,5,3.9,4.9
			c2.8,0.1,4.2-1.5,4.1-4.9V80H276.9z"/>
		<path class="st0" d="M291.9,88.5h-4.4v5.7h-1.6V80h6.1c2.9,0.1,4.5,1.5,4.8,4.2C296.7,87,295.1,88.4,291.9,88.5z M291.6,81.5h-4.1
			v5.6h4.1c2.3,0,3.4-1,3.5-2.9C295,82.4,293.8,81.5,291.6,81.5L291.6,81.5z"/>
		<text transform="matrix(0.95 0 0 1 130.7998 212.9115)" class="st1 st2 st3">■ </text>
		<text transform="matrix(0.95 0 0 1 147.9243 212.9115)" class="st4 st5 st6">标准字体制图</text>
		<line class="st7" x1="341.4" y1="47.8" x2="341.4" y2="118.4"/>
		<line class="st7" x1="348.9" y1="47.8" x2="333.1" y2="47.8"/>
		<line class="st7" x1="349.4" y1="118.3" x2="333.6" y2="118.3"/>
		<rect x="332.9" y="68.8" class="st8" width="17.3" height="28.4"/>
		<line class="st7" x1="23.3" y1="195.1" x2="306.7" y2="195.1"/>
		<line class="st7" x1="306.7" y1="203.5" x2="306.7" y2="172.5"/>
		<line class="st7" x1="23.3" y1="203.5" x2="23.3" y2="172.5"/>
		<rect x="14.7" y="171" class="st8" width="16.2" height="15.9"/>
		<rect x="137.1" y="185.8" class="st8" width="53.8" height="17.3"/>
		<rect x="0.4" y="141.9" class="st9" width="23.3" height="23.1"/>
		<path class="st4" d="M10.6,155.1l-0.9,2.5H8.5l3.2-8.6H13l3.1,8.6h-1.3l-0.9-2.5H10.6z M13.6,154.1l-1.3-3.8l0,0l-1.4,3.8H13.6z"
			/>
		<rect x="0.2" y="0.2" class="st10" width="330" height="165.1"/>
		<line class="st11" x1="0.2" y1="141.7" x2="330.2" y2="141.7"/>
		<line class="st11" x1="0.2" y1="118" x2="330.2" y2="118"/>
		<line class="st11" x1="0.2" y1="94.5" x2="330.2" y2="94.5"/>
		<line class="st11" x1="0.2" y1="71" x2="330.2" y2="71"/>
		<line class="st11" x1="0.2" y1="47.4" x2="330.2" y2="47.4"/>
		<line class="st11" x1="0.2" y1="23.7" x2="330.2" y2="23.7"/>
		<line class="st11" x1="306.6" y1="0.2" x2="306.6" y2="165.4"/>
		<line class="st11" x1="283.1" y1="0.2" x2="283.1" y2="165.4"/>
		<line class="st11" x1="259.5" y1="0.2" x2="259.5" y2="165.4"/>
		<line class="st11" x1="236" y1="0.2" x2="236" y2="165.4"/>
		<line class="st11" x1="212.4" y1="0.2" x2="212.4" y2="165.4"/>
		<line class="st11" x1="188.8" y1="0.2" x2="188.8" y2="165.4"/>
		<line class="st11" x1="165.2" y1="0.2" x2="165.2" y2="165.4"/>
		<line class="st11" x1="141.6" y1="0.2" x2="141.6" y2="165.4"/>
		<line class="st11" x1="118.1" y1="0.2" x2="118.1" y2="165.4"/>
		<line class="st11" x1="94.5" y1="0.2" x2="94.5" y2="165.4"/>
		<line class="st11" x1="71" y1="0.2" x2="71" y2="165.4"/>
		<line class="st11" x1="47.3" y1="0.2" x2="47.3" y2="165.4"/>
		<line class="st11" x1="23.8" y1="0.2" x2="23.8" y2="165.4"/>
		<line class="st12" x1="23.7" y1="42.7" x2="306.5" y2="42.7"/>
		<line class="st12" x1="23.7" y1="37.9" x2="306.5" y2="37.9"/>
		<line class="st12" x1="23.7" y1="33.2" x2="306.5" y2="33.2"/>
		<line class="st12" x1="23.7" y1="28.5" x2="306.5" y2="28.5"/>
		<line class="st12" x1="301.9" y1="23.7" x2="301.9" y2="47.4"/>
		<line class="st12" x1="297.1" y1="23.7" x2="297.1" y2="47.4"/>
		<line class="st12" x1="292.4" y1="23.7" x2="292.4" y2="47.4"/>
		<line class="st12" x1="287.7" y1="23.7" x2="287.7" y2="47.4"/>
		<line class="st12" x1="278.2" y1="23.7" x2="278.2" y2="47.4"/>
		<line class="st12" x1="273.5" y1="23.7" x2="273.5" y2="47.4"/>
		<line class="st12" x1="268.9" y1="23.7" x2="268.9" y2="47.4"/>
		<line class="st12" x1="264.1" y1="23.7" x2="264.1" y2="47.4"/>
		<line class="st12" x1="254.7" y1="23.7" x2="254.7" y2="47.4"/>
		<line class="st12" x1="250" y1="23.7" x2="250" y2="47.4"/>
		<line class="st12" x1="245.3" y1="23.7" x2="245.3" y2="47.4"/>
		<line class="st12" x1="240.5" y1="23.7" x2="240.5" y2="47.4"/>
		<line class="st12" x1="231.1" y1="23.7" x2="231.1" y2="47.4"/>
		<line class="st12" x1="226.4" y1="23.7" x2="226.4" y2="47.4"/>
		<line class="st12" x1="221.7" y1="23.7" x2="221.7" y2="47.4"/>
		<line class="st12" x1="217" y1="23.7" x2="217" y2="47.4"/>
		<line class="st12" x1="207.5" y1="23.7" x2="207.5" y2="47.4"/>
		<line class="st12" x1="202.8" y1="23.7" x2="202.8" y2="47.4"/>
		<line class="st12" x1="198.1" y1="23.7" x2="198.1" y2="47.4"/>
		<line class="st12" x1="193.4" y1="23.7" x2="193.4" y2="47.4"/>
		<line class="st12" x1="184" y1="23.7" x2="184" y2="47.4"/>
		<line class="st12" x1="179.3" y1="23.7" x2="179.3" y2="47.4"/>
		<line class="st12" x1="174.6" y1="23.7" x2="174.6" y2="47.4"/>
		<line class="st12" x1="169.8" y1="23.7" x2="169.8" y2="47.4"/>
		<line class="st12" x1="160.4" y1="23.7" x2="160.4" y2="47.4"/>
		<line class="st12" x1="155.7" y1="23.7" x2="155.7" y2="47.4"/>
		<line class="st12" x1="151" y1="23.7" x2="151" y2="47.4"/>
		<line class="st12" x1="146.3" y1="23.7" x2="146.3" y2="47.4"/>
		<line class="st12" x1="136.8" y1="23.7" x2="136.8" y2="47.4"/>
		<line class="st12" x1="132.1" y1="23.7" x2="132.1" y2="47.4"/>
		<line class="st12" x1="127.4" y1="23.7" x2="127.4" y2="47.4"/>
		<line class="st12" x1="122.8" y1="23.7" x2="122.8" y2="47.4"/>
		<path class="st12" d="M118,47.4"/>
		<path class="st12" d="M118,23.7"/>
		<line class="st12" x1="113.3" y1="23.7" x2="113.3" y2="47.4"/>
		<line class="st12" x1="108.6" y1="23.7" x2="108.6" y2="47.4"/>
		<line class="st12" x1="103.9" y1="23.7" x2="103.9" y2="47.4"/>
		<line class="st12" x1="99.1" y1="23.7" x2="99.1" y2="47.4"/>
		<line class="st12" x1="89.8" y1="23.7" x2="89.8" y2="47.4"/>
		<line class="st12" x1="85" y1="23.7" x2="85" y2="47.4"/>
		<line class="st12" x1="80.3" y1="23.7" x2="80.3" y2="47.4"/>
		<line class="st12" x1="75.6" y1="23.7" x2="75.6" y2="47.4"/>
		<line class="st12" x1="66.1" y1="23.7" x2="66.1" y2="47.4"/>
		<line class="st12" x1="61.4" y1="23.7" x2="61.4" y2="47.4"/>
		<line class="st12" x1="56.8" y1="23.7" x2="56.8" y2="47.4"/>
		<line class="st12" x1="52" y1="23.7" x2="52" y2="47.4"/>
		<line class="st12" x1="42.6" y1="23.7" x2="42.6" y2="47.4"/>
		<line class="st12" x1="37.9" y1="23.7" x2="37.9" y2="47.4"/>
		<line class="st12" x1="33.2" y1="23.7" x2="33.2" y2="47.4"/>
		<line class="st12" x1="28.4" y1="23.7" x2="28.4" y2="47.4"/>
		<line class="st12" x1="23.7" y1="66.3" x2="306.5" y2="66.3"/>
		<line class="st12" x1="23.7" y1="61.6" x2="306.5" y2="61.6"/>
		<line class="st12" x1="23.7" y1="56.8" x2="306.5" y2="56.8"/>
		<line class="st12" x1="23.7" y1="52.1" x2="306.5" y2="52.1"/>
		<line class="st12" x1="301.9" y1="47.4" x2="301.9" y2="71"/>
		<line class="st12" x1="297.1" y1="47.4" x2="297.1" y2="71"/>
		<line class="st12" x1="292.4" y1="47.4" x2="292.4" y2="71"/>
		<line class="st12" x1="287.7" y1="47.4" x2="287.7" y2="71"/>
		<line class="st12" x1="278.2" y1="47.4" x2="278.2" y2="71"/>
		<line class="st12" x1="273.5" y1="47.4" x2="273.5" y2="71"/>
		<line class="st12" x1="268.9" y1="47.4" x2="268.9" y2="71"/>
		<line class="st12" x1="264.1" y1="47.4" x2="264.1" y2="71"/>
		<line class="st12" x1="254.7" y1="47.4" x2="254.7" y2="71"/>
		<line class="st12" x1="250" y1="47.4" x2="250" y2="71"/>
		<line class="st12" x1="245.3" y1="47.4" x2="245.3" y2="71"/>
		<line class="st12" x1="240.5" y1="47.4" x2="240.5" y2="71"/>
		<line class="st12" x1="231.1" y1="47.4" x2="231.1" y2="71"/>
		<line class="st12" x1="226.4" y1="47.4" x2="226.4" y2="71"/>
		<line class="st12" x1="221.7" y1="47.4" x2="221.7" y2="71"/>
		<line class="st12" x1="217" y1="47.4" x2="217" y2="71"/>
		<line class="st12" x1="207.5" y1="47.4" x2="207.5" y2="71"/>
		<line class="st12" x1="202.8" y1="47.4" x2="202.8" y2="71"/>
		<line class="st12" x1="198.1" y1="47.4" x2="198.1" y2="71"/>
		<line class="st12" x1="193.4" y1="47.4" x2="193.4" y2="71"/>
		<line class="st12" x1="184" y1="47.4" x2="184" y2="71"/>
		<line class="st12" x1="179.3" y1="47.4" x2="179.3" y2="71"/>
		<line class="st12" x1="174.6" y1="47.4" x2="174.6" y2="71"/>
		<line class="st12" x1="169.8" y1="47.4" x2="169.8" y2="71"/>
		<line class="st12" x1="160.4" y1="47.4" x2="160.4" y2="71"/>
		<line class="st12" x1="155.7" y1="47.4" x2="155.7" y2="71"/>
		<line class="st12" x1="151" y1="47.4" x2="151" y2="71"/>
		<line class="st12" x1="146.3" y1="47.4" x2="146.3" y2="71"/>
		<line class="st12" x1="136.8" y1="47.4" x2="136.8" y2="71"/>
		<line class="st12" x1="132.1" y1="47.4" x2="132.1" y2="71"/>
		<line class="st12" x1="127.4" y1="47.4" x2="127.4" y2="71"/>
		<line class="st12" x1="122.8" y1="47.4" x2="122.8" y2="71"/>
		<line class="st12" x1="113.3" y1="47.4" x2="113.3" y2="71"/>
		<line class="st12" x1="108.6" y1="47.4" x2="108.6" y2="71"/>
		<line class="st12" x1="103.9" y1="47.4" x2="103.9" y2="71"/>
		<line class="st12" x1="99.1" y1="47.4" x2="99.1" y2="71"/>
		<line class="st12" x1="89.8" y1="47.4" x2="89.8" y2="71"/>
		<line class="st12" x1="85" y1="47.4" x2="85" y2="71"/>
		<line class="st12" x1="80.3" y1="47.4" x2="80.3" y2="71"/>
		<line class="st12" x1="75.6" y1="47.4" x2="75.6" y2="71"/>
		<line class="st12" x1="66.1" y1="47.4" x2="66.1" y2="71"/>
		<line class="st12" x1="61.4" y1="47.4" x2="61.4" y2="71"/>
		<line class="st12" x1="56.8" y1="47.4" x2="56.8" y2="71"/>
		<line class="st12" x1="52" y1="47.4" x2="52" y2="71"/>
		<line class="st12" x1="42.6" y1="47.4" x2="42.6" y2="71"/>
		<line class="st12" x1="37.9" y1="47.4" x2="37.9" y2="71"/>
		<line class="st12" x1="33.2" y1="47.4" x2="33.2" y2="71"/>
		<line class="st12" x1="28.4" y1="47.4" x2="28.4" y2="71"/>
		<line class="st12" x1="23.7" y1="89.8" x2="306.5" y2="89.8"/>
		<line class="st12" x1="23.7" y1="85.1" x2="306.5" y2="85.1"/>
		<line class="st12" x1="23.7" y1="80.4" x2="306.5" y2="80.4"/>
		<line class="st12" x1="23.7" y1="75.6" x2="306.5" y2="75.6"/>
		<line class="st12" x1="301.9" y1="70.9" x2="301.9" y2="94.6"/>
		<line class="st12" x1="297.1" y1="70.9" x2="297.1" y2="94.6"/>
		<line class="st12" x1="292.4" y1="70.9" x2="292.4" y2="94.6"/>
		<line class="st12" x1="287.7" y1="70.9" x2="287.7" y2="94.6"/>
		<line class="st12" x1="278.2" y1="70.9" x2="278.2" y2="94.6"/>
		<line class="st12" x1="273.5" y1="70.9" x2="273.5" y2="94.6"/>
		<line class="st12" x1="268.9" y1="70.9" x2="268.9" y2="94.6"/>
		<line class="st12" x1="264.1" y1="70.9" x2="264.1" y2="94.6"/>
		<line class="st12" x1="254.7" y1="70.9" x2="254.7" y2="94.6"/>
		<line class="st12" x1="250" y1="70.9" x2="250" y2="94.6"/>
		<line class="st12" x1="245.3" y1="70.9" x2="245.3" y2="94.6"/>
		<line class="st12" x1="240.5" y1="70.9" x2="240.5" y2="94.6"/>
		<line class="st12" x1="231.1" y1="70.9" x2="231.1" y2="94.6"/>
		<line class="st12" x1="226.4" y1="70.9" x2="226.4" y2="94.6"/>
		<line class="st12" x1="221.7" y1="70.9" x2="221.7" y2="94.6"/>
		<line class="st12" x1="217" y1="70.9" x2="217" y2="94.6"/>
		<line class="st12" x1="207.5" y1="70.9" x2="207.5" y2="94.6"/>
		<line class="st12" x1="202.8" y1="70.9" x2="202.8" y2="94.6"/>
		<line class="st12" x1="198.1" y1="70.9" x2="198.1" y2="94.6"/>
		<line class="st12" x1="193.4" y1="70.9" x2="193.4" y2="94.6"/>
		<line class="st12" x1="184" y1="70.9" x2="184" y2="94.6"/>
		<line class="st12" x1="179.3" y1="70.9" x2="179.3" y2="94.6"/>
		<line class="st12" x1="174.6" y1="70.9" x2="174.6" y2="94.6"/>
		<line class="st12" x1="169.8" y1="70.9" x2="169.8" y2="94.6"/>
		<line class="st12" x1="160.4" y1="70.9" x2="160.4" y2="94.6"/>
		<line class="st12" x1="155.7" y1="70.9" x2="155.7" y2="94.6"/>
		<line class="st12" x1="151" y1="70.9" x2="151" y2="94.6"/>
		<line class="st12" x1="146.3" y1="70.9" x2="146.3" y2="94.6"/>
		<line class="st12" x1="136.8" y1="70.9" x2="136.8" y2="94.6"/>
		<line class="st12" x1="132.1" y1="70.9" x2="132.1" y2="94.6"/>
		<line class="st12" x1="127.4" y1="70.9" x2="127.4" y2="94.6"/>
		<line class="st12" x1="122.8" y1="70.9" x2="122.8" y2="94.6"/>
		<line class="st12" x1="113.3" y1="70.9" x2="113.3" y2="94.6"/>
		<line class="st12" x1="108.6" y1="70.9" x2="108.6" y2="94.6"/>
		<line class="st12" x1="103.9" y1="70.9" x2="103.9" y2="94.6"/>
		<line class="st12" x1="99.1" y1="70.9" x2="99.1" y2="94.6"/>
		<line class="st12" x1="89.8" y1="70.9" x2="89.8" y2="94.6"/>
		<line class="st12" x1="85" y1="70.9" x2="85" y2="94.6"/>
		<line class="st12" x1="80.3" y1="70.9" x2="80.3" y2="94.6"/>
		<line class="st12" x1="75.6" y1="70.9" x2="75.6" y2="94.6"/>
		<line class="st12" x1="66.1" y1="70.9" x2="66.1" y2="94.6"/>
		<line class="st12" x1="61.4" y1="70.9" x2="61.4" y2="94.6"/>
		<line class="st12" x1="56.8" y1="70.9" x2="56.8" y2="94.6"/>
		<line class="st12" x1="52" y1="70.9" x2="52" y2="94.6"/>
		<line class="st12" x1="42.6" y1="70.9" x2="42.6" y2="94.6"/>
		<line class="st12" x1="37.9" y1="70.9" x2="37.9" y2="94.6"/>
		<line class="st12" x1="33.2" y1="70.9" x2="33.2" y2="94.6"/>
		<line class="st12" x1="28.4" y1="70.9" x2="28.4" y2="94.6"/>
		<line class="st12" x1="23.7" y1="113.4" x2="306.5" y2="113.4"/>
		<line class="st12" x1="23.7" y1="108.6" x2="306.5" y2="108.6"/>
		<line class="st12" x1="23.7" y1="103.9" x2="306.5" y2="103.9"/>
		<line class="st12" x1="23.7" y1="99.2" x2="306.5" y2="99.2"/>
		<line class="st12" x1="301.9" y1="94.4" x2="301.9" y2="118.1"/>
		<line class="st12" x1="297.1" y1="94.4" x2="297.1" y2="118.1"/>
		<line class="st12" x1="292.4" y1="94.4" x2="292.4" y2="118.1"/>
		<line class="st12" x1="287.7" y1="94.4" x2="287.7" y2="118.1"/>
		<line class="st12" x1="278.2" y1="94.4" x2="278.2" y2="118.1"/>
		<line class="st12" x1="273.5" y1="94.4" x2="273.5" y2="118.1"/>
		<line class="st12" x1="268.9" y1="94.4" x2="268.9" y2="118.1"/>
		<line class="st12" x1="264.1" y1="94.4" x2="264.1" y2="118.1"/>
		<line class="st12" x1="254.7" y1="94.4" x2="254.7" y2="118.1"/>
		<line class="st12" x1="250" y1="94.4" x2="250" y2="118.1"/>
		<line class="st12" x1="245.3" y1="94.4" x2="245.3" y2="118.1"/>
		<line class="st12" x1="240.5" y1="94.4" x2="240.5" y2="118.1"/>
		<line class="st12" x1="231.1" y1="94.4" x2="231.1" y2="118.1"/>
		<line class="st12" x1="226.4" y1="94.4" x2="226.4" y2="118.1"/>
		<line class="st12" x1="221.7" y1="94.4" x2="221.7" y2="118.1"/>
		<line class="st12" x1="217" y1="94.4" x2="217" y2="118.1"/>
		<line class="st12" x1="207.5" y1="94.4" x2="207.5" y2="118.1"/>
		<line class="st12" x1="202.8" y1="94.4" x2="202.8" y2="118.1"/>
		<line class="st12" x1="198.1" y1="94.4" x2="198.1" y2="118.1"/>
		<line class="st12" x1="193.4" y1="94.4" x2="193.4" y2="118.1"/>
		<line class="st12" x1="184" y1="94.4" x2="184" y2="118.1"/>
		<line class="st12" x1="179.3" y1="94.4" x2="179.3" y2="118.1"/>
		<line class="st12" x1="174.6" y1="94.4" x2="174.6" y2="118.1"/>
		<line class="st12" x1="169.8" y1="94.4" x2="169.8" y2="118.1"/>
		<line class="st12" x1="160.4" y1="94.4" x2="160.4" y2="118.1"/>
		<line class="st12" x1="155.7" y1="94.4" x2="155.7" y2="118.1"/>
		<line class="st12" x1="151" y1="94.4" x2="151" y2="118.1"/>
		<line class="st12" x1="146.3" y1="94.4" x2="146.3" y2="118.1"/>
		<line class="st12" x1="136.8" y1="94.4" x2="136.8" y2="118.1"/>
		<line class="st12" x1="132.1" y1="94.4" x2="132.1" y2="118.1"/>
		<line class="st12" x1="127.4" y1="94.4" x2="127.4" y2="118.1"/>
		<line class="st12" x1="122.8" y1="94.4" x2="122.8" y2="118.1"/>
		<line class="st12" x1="113.3" y1="94.4" x2="113.3" y2="118.1"/>
		<line class="st12" x1="108.6" y1="94.4" x2="108.6" y2="118.1"/>
		<line class="st12" x1="103.9" y1="94.4" x2="103.9" y2="118.1"/>
		<line class="st12" x1="99.1" y1="94.4" x2="99.1" y2="118.1"/>
		<line class="st12" x1="89.8" y1="94.4" x2="89.8" y2="118.1"/>
		<line class="st12" x1="85" y1="94.4" x2="85" y2="118.1"/>
		<line class="st12" x1="80.3" y1="94.4" x2="80.3" y2="118.1"/>
		<line class="st12" x1="75.6" y1="94.4" x2="75.6" y2="118.1"/>
		<line class="st12" x1="66.1" y1="94.4" x2="66.1" y2="118.1"/>
		<line class="st12" x1="61.4" y1="94.4" x2="61.4" y2="118.1"/>
		<line class="st12" x1="56.8" y1="94.4" x2="56.8" y2="118.1"/>
		<line class="st12" x1="52" y1="94.4" x2="52" y2="118.1"/>
		<line class="st12" x1="42.6" y1="94.4" x2="42.6" y2="118.1"/>
		<line class="st12" x1="37.9" y1="94.4" x2="37.9" y2="118.1"/>
		<line class="st12" x1="33.2" y1="94.4" x2="33.2" y2="118.1"/>
		<line class="st12" x1="28.4" y1="94.4" x2="28.4" y2="118.1"/>
		<line class="st12" x1="23.7" y1="136.9" x2="306.5" y2="136.9"/>
		<line class="st12" x1="23.7" y1="132.2" x2="306.5" y2="132.2"/>
		<line class="st12" x1="23.7" y1="127.5" x2="306.5" y2="127.5"/>
		<line class="st12" x1="23.7" y1="122.8" x2="306.5" y2="122.8"/>
		<line class="st12" x1="301.9" y1="118" x2="301.9" y2="141.7"/>
		<line class="st12" x1="297.1" y1="118" x2="297.1" y2="141.7"/>
		<line class="st12" x1="292.4" y1="118" x2="292.4" y2="141.7"/>
		<line class="st12" x1="287.7" y1="118" x2="287.7" y2="141.7"/>
		<line class="st12" x1="278.2" y1="118" x2="278.2" y2="141.7"/>
		<line class="st12" x1="273.5" y1="118" x2="273.5" y2="141.7"/>
		<line class="st12" x1="268.9" y1="118" x2="268.9" y2="141.7"/>
		<line class="st12" x1="264.1" y1="118" x2="264.1" y2="141.7"/>
		<line class="st12" x1="254.7" y1="118" x2="254.7" y2="141.7"/>
		<line class="st12" x1="250" y1="118" x2="250" y2="141.7"/>
		<line class="st12" x1="245.3" y1="118" x2="245.3" y2="141.7"/>
		<line class="st12" x1="240.5" y1="118" x2="240.5" y2="141.7"/>
		<line class="st12" x1="231.1" y1="118" x2="231.1" y2="141.7"/>
		<line class="st12" x1="226.4" y1="118" x2="226.4" y2="141.7"/>
		<line class="st12" x1="221.7" y1="118" x2="221.7" y2="141.7"/>
		<line class="st12" x1="217" y1="118" x2="217" y2="141.7"/>
		<line class="st12" x1="207.5" y1="118" x2="207.5" y2="141.7"/>
		<line class="st12" x1="202.8" y1="118" x2="202.8" y2="141.7"/>
		<line class="st12" x1="198.1" y1="118" x2="198.1" y2="141.7"/>
		<line class="st12" x1="193.4" y1="118" x2="193.4" y2="141.7"/>
		<line class="st12" x1="184" y1="118" x2="184" y2="141.7"/>
		<line class="st12" x1="179.3" y1="118" x2="179.3" y2="141.7"/>
		<line class="st12" x1="174.6" y1="118" x2="174.6" y2="141.7"/>
		<line class="st12" x1="169.8" y1="118" x2="169.8" y2="141.7"/>
		<line class="st12" x1="160.4" y1="118" x2="160.4" y2="141.7"/>
		<line class="st12" x1="155.7" y1="118" x2="155.7" y2="141.7"/>
		<line class="st12" x1="151" y1="118" x2="151" y2="141.7"/>
		<line class="st12" x1="146.3" y1="118" x2="146.3" y2="141.7"/>
		<line class="st12" x1="136.8" y1="118" x2="136.8" y2="141.7"/>
		<line class="st12" x1="132.1" y1="118" x2="132.1" y2="141.7"/>
		<line class="st12" x1="127.4" y1="118" x2="127.4" y2="141.7"/>
		<line class="st12" x1="122.8" y1="118" x2="122.8" y2="141.7"/>
		<line class="st12" x1="113.3" y1="118" x2="113.3" y2="141.7"/>
		<line class="st12" x1="108.6" y1="118" x2="108.6" y2="141.7"/>
		<line class="st12" x1="103.9" y1="118" x2="103.9" y2="141.7"/>
		<line class="st12" x1="99.1" y1="118" x2="99.1" y2="141.7"/>
		<line class="st12" x1="89.8" y1="118" x2="89.8" y2="141.7"/>
		<line class="st12" x1="85" y1="118" x2="85" y2="141.7"/>
		<line class="st12" x1="80.3" y1="118" x2="80.3" y2="141.7"/>
		<line class="st12" x1="75.6" y1="118" x2="75.6" y2="141.7"/>
		<line class="st12" x1="66.1" y1="118" x2="66.1" y2="141.7"/>
		<line class="st12" x1="61.4" y1="118" x2="61.4" y2="141.7"/>
		<line class="st12" x1="56.8" y1="118" x2="56.8" y2="141.7"/>
		<line class="st12" x1="52" y1="118" x2="52" y2="141.7"/>
		<line class="st12" x1="42.6" y1="118" x2="42.6" y2="141.7"/>
		<line class="st12" x1="37.9" y1="118" x2="37.9" y2="141.7"/>
		<line class="st12" x1="33.2" y1="118" x2="33.2" y2="141.7"/>
		<line class="st12" x1="28.4" y1="118" x2="28.4" y2="141.7"/>
		<text transform="matrix(1 0 0 1 156.13 197.7)" class="st4 st2 st13">12A</text>
		<text transform="matrix(1 0 0 1 21.5 183.6)" class="st4 st2 st14">0</text>
		<text transform="matrix(1 0 0 1 139.76 183.6)" class="st4 st2 st14">5</text>
		<text transform="matrix(1 0 0 1 255.42 183.6)" class="st4 st2 st14">10</text>
		<text transform="matrix(4.837355e-17 0.79 -1 6.123234e-17 338.9707 79.8802)" class="st4 st2 st14">3A</text>
	</g>
</g>
</svg>
