<svg xmlns="http://www.w3.org/2000/svg" viewBox="0 0 498.8 184.41"><defs><style>.cls-1{fill:#0d509b;}.cls-2{fill:#fff;}.cls-3{font-size:20.9px;fill:#2f2725;font-family:ArialMT, Arial;}.cls-4{font-size:8.19px;font-family:FZLTXHK--GBK1-0, FZLTXHK -GBK1-0-GBpc-EUC-H;letter-spacing:0.4em;}.cls-4,.cls-6{fill:#595757;}.cls-5{fill:#3e3a39;}.cls-7{fill:#1e5199;}.cls-8,.cls-9{fill:#00a0e9;}.cls-8{fill-rule:evenodd;}.cls-10{fill:#f08300;}.cls-11{fill:#b0b0b0;}</style></defs><title>hitrobot_aggregate</title><g id="图层_2" data-name="图层 2"><g id="图层_1-2" data-name="图层 1"><path class="cls-1" d="M24.74,49.48A24.74,24.74,0,1,1,32.66,1.3l1.06.36-1.1.2c-7.13,1.31-12.19,4.83-13.21,9.2v2C22.28,8.94,30.2,5.95,38.57,5.92h.61c.53,0,1.05,0,1.57,0h.1l.07.07a24.56,24.56,0,0,1,3.24,3.39l.43.54-.69-.08A45.71,45.71,0,0,0,39,9.61h-.33c-9.32,0-17.39,2.78-19.24,6.54v2.22c2.47-2.05,10-4.11,19.17-4.16h.48a60,60,0,0,1,8.2.6l.16,0,.07.15a24.4,24.4,0,0,1,1.18,3.42l.11.42-.43-.06a73.79,73.79,0,0,0-9.28-.64h-.49c-9.44.05-17.08,1.95-19.16,3v2.49a187.23,187.23,0,0,1,19.3-.86h.2c3.53,0,7,.09,10.24.22h.26l0,.26c0,.51,0,1,0,1.51s0,1-.05,1.54l0,.26h-.26c-3.25.14-6.69.21-10.24.22h-.2a186,186,0,0,1-19.3-.86V28.4c2.08,1,9.72,2.92,19.16,3h.49a73.67,73.67,0,0,0,9.27-.64l.43-.06-.11.42a24.73,24.73,0,0,1-1.18,3.42l-.06.15-.16,0a60,60,0,0,1-8.19.6h-.48c-9.17,0-16.69-2.11-19.17-4.16v2.22c1.85,3.76,9.92,6.51,19.24,6.54H39a46.4,46.4,0,0,0,4.9-.28l.69-.08-.43.55a25,25,0,0,1-3.24,3.38l-.07.07h-.1c-.57,0-1.13,0-1.66,0h-.5c-8.36,0-16.29-3-19.15-7.09v2c1,4.42,5.94,7.85,13.15,9.19l1.11.2-1.07.36a24.7,24.7,0,0,1-7.86,1.28Z"/><path class="cls-2" d="M16.43,48C9.65,41.79,3.22,30.86,3.22,19.9a40.31,40.31,0,0,1,.85-8.21A35.85,35.85,0,0,0,2.79,19.9c0,10.42,3.41,19.87,8.57,25.64A24.92,24.92,0,0,0,16.43,48Z"/><path class="cls-2" d="M19.12,22.26C11.43,23.69,3.36,28.36,1.25,32.51a24.28,24.28,0,0,0,1.27,3.11C5.4,26.15,19.12,22.26,19.12,22.26Z"/><text class="cls-3" transform="translate(62.76 28.19)">EVERYBODY</text><text class="cls-4" transform="translate(63.71 39.58)">HIT ROBOT GROUP</text><path class="cls-5" d="M333,10.71h6.84l8.93,11.93V10.71h6.91V32.26h-6.91l-8.88-11.84V32.26H333Z"/><path class="cls-5" d="M359.59,21.5q0-5.28,3.23-8.22t9-2.94q5.92,0,9.12,2.89t3.2,8.1a12.27,12.27,0,0,1-1.4,6.2,9.55,9.55,0,0,1-4,3.76,14.47,14.47,0,0,1-6.59,1.34,16.48,16.48,0,0,1-6.64-1.16,9.67,9.67,0,0,1-4.26-3.68A11.32,11.32,0,0,1,359.59,21.5Zm7.33,0q0,3.27,1.33,4.69a5.41,5.41,0,0,0,7.29,0q1.29-1.4,1.29-5a6.25,6.25,0,0,0-1.35-4.45,4.85,4.85,0,0,0-3.66-1.4,4.66,4.66,0,0,0-3.56,1.43Q366.92,18.23,366.92,21.53Z"/><path class="cls-5" d="M388.12,10.71h13.72a8,8,0,0,1,5.26,1.54,4.8,4.8,0,0,1,1.84,3.82,4.57,4.57,0,0,1-1.31,3.28,5.93,5.93,0,0,1-2.56,1.44,6.82,6.82,0,0,1,3.76,1.92A5,5,0,0,1,410,26.13a5.47,5.47,0,0,1-.86,3,6.05,6.05,0,0,1-2.35,2.12,8.31,8.31,0,0,1-2.78.71q-2.47.3-3.28.29H388.12Zm7.39,8.46h3.19a3.94,3.94,0,0,0,2.39-.54,1.87,1.87,0,0,0,.67-1.55,1.76,1.76,0,0,0-.67-1.47,3.87,3.87,0,0,0-2.34-.53h-3.23Zm0,8.47h3.74a4.42,4.42,0,0,0,2.67-.61,2,2,0,0,0,.78-1.64,1.84,1.84,0,0,0-.77-1.54,4.63,4.63,0,0,0-2.69-.58h-3.72Z"/><path class="cls-5" d="M413,21.5q0-5.28,3.24-8.22t9-2.94q5.92,0,9.12,2.89t3.2,8.1a12.26,12.26,0,0,1-1.4,6.2,9.55,9.55,0,0,1-4,3.76,14.46,14.46,0,0,1-6.59,1.34,16.49,16.49,0,0,1-6.64-1.16,9.68,9.68,0,0,1-4.26-3.68A11.33,11.33,0,0,1,413,21.5Zm7.33,0q0,3.27,1.33,4.69a5.41,5.41,0,0,0,7.29,0q1.29-1.4,1.29-5a6.24,6.24,0,0,0-1.35-4.45,4.85,4.85,0,0,0-3.66-1.4,4.66,4.66,0,0,0-3.56,1.43Q420.28,18.23,420.28,21.53Z"/><path class="cls-5" d="M441.56,10.71h10.89a14.21,14.21,0,0,1,5.2.79,8.42,8.42,0,0,1,3.28,2.28,9.12,9.12,0,0,1,1.88,3.46,14.65,14.65,0,0,1,.58,4.18,13.28,13.28,0,0,1-.87,5.36,8.88,8.88,0,0,1-2.4,3.19,8.12,8.12,0,0,1-3.3,1.71,18.67,18.67,0,0,1-4.37.59H441.56Zm7.33,4.88V27.36h1.79A8.25,8.25,0,0,0,454,26.9a3.25,3.25,0,0,0,1.52-1.62,9.3,9.3,0,0,0,.55-3.74q0-3.42-1.23-4.69a5.52,5.52,0,0,0-4.08-1.26Z"/><path class="cls-5" d="M464.84,10.71H473L477.76,18l4.79-7.27h8.09l-9.22,12.53v9h-7.34v-9Z"/><path class="cls-6" d="M338.14,36h1.35v8h-1.35V40.48h-3.89V44h-1.31V36h1.31v3.28h3.89Z"/><path class="cls-6" d="M345,36h1.31v8H345Z"/><path class="cls-6" d="M357.86,37.2H355.2V44h-1.31V37.2h-2.7V36h6.67Z"/><path class="cls-6" d="M376.43,44h-1.77L372,40.63h-1.62V44H369V36h3.74q2.7.08,2.81,2.28a2.14,2.14,0,0,1-2.12,2.28Zm-6.09-6.83v2.24h2.2q1.74,0,1.7-1.2,0-1-1.7-1Z"/><path class="cls-6" d="M384.71,35.89q3.66.23,3.93,4.13-.11,4-4,4.13-3.78-.19-3.93-4.09Q380.89,36.08,384.71,35.89Zm-.12,7.17q2.58-.11,2.66-3-.19-2.78-2.58-3-2.47.19-2.62,3Q382.16,42.87,384.59,43.06Z"/><path class="cls-6" d="M397.27,44h-3.62V36h3.43q2.54.11,2.7,2.08a1.79,1.79,0,0,1-1,1.66,2.08,2.08,0,0,1,1.35,2Q400.12,44,397.27,44Zm-2.35-6.83v2.12h2q1.51,0,1.54-1.12t-1.5-1ZM397,40.48h-2.12v2.43h2.24q1.62,0,1.62-1.23T397,40.48Z"/><path class="cls-6" d="M408.9,35.89q3.66.23,3.93,4.13-.11,4-4,4.13-3.78-.19-3.93-4.09Q405.08,36.08,408.9,35.89Zm-.12,7.17q2.58-.11,2.66-3-.19-2.78-2.58-3-2.47.19-2.62,3Q406.36,42.87,408.79,43.06Z"/><path class="cls-6" d="M423.89,37.2h-2.66V44h-1.31V37.2h-2.7V36h6.67Z"/><path class="cls-6" d="M438.6,39.67h3.82v3a4.16,4.16,0,0,1-3.55,1.43q-4-.16-4.13-4.09.15-4,4-4.17a3.61,3.61,0,0,1,3.63,2.35l-1.39.38a2.24,2.24,0,0,0-2.27-1.54c-1.59.13-2.44,1.12-2.54,3q.15,2.78,2.7,3a2.85,2.85,0,0,0,2.28-.81V40.82H438.6Z"/><path class="cls-6" d="M455,44h-1.77l-2.7-3.39h-1.62V44h-1.31V36h3.74q2.7.08,2.81,2.28A2.14,2.14,0,0,1,452,40.55Zm-6.09-6.83v2.24h2.2q1.73,0,1.7-1.2,0-1-1.7-1Z"/><path class="cls-6" d="M463.29,35.89q3.66.23,3.93,4.13-.12,4-4,4.13-3.78-.19-3.93-4.09Q459.48,36.08,463.29,35.89Zm-.12,7.17q2.58-.11,2.66-3-.2-2.78-2.58-3-2.47.19-2.62,3Q460.75,42.87,463.18,43.06Z"/><path class="cls-6" d="M477.51,36h1.31v4.63q.12,3.63-3.35,3.47-3.32.11-3.24-3.47V36h1.31v4.63c0,1.62.62,2.4,1.93,2.35s2.09-.73,2-2.35Z"/><path class="cls-6" d="M487.72,40.94h-2.16V44h-1.35V36h3.59q2.62.11,2.82,2.43Q490.57,40.9,487.72,40.94Zm-.11-3.74h-2v2.58h2q1.66,0,1.66-1.35Q489.18,37.24,487.6,37.2Z"/><circle class="cls-7" cx="300.09" cy="25.83" r="2.1"/><path class="cls-7" d="M318.71,12V23.68c-1.06,3.36-2.65,4.81-4.37,5.17V7.68A23.16,23.16,0,0,0,282.61,41V29.09c.88-4.18,2.55-5.95,4.37-6.47V45.06A23.16,23.16,0,0,0,318.71,12ZM300,35.3a9.48,9.48,0,0,1-8.71-13.19c-2.46-1.79-6.9-3.62-8.7,4.63v-4c0-7,6-9.36,12.6-5.09a9.46,9.46,0,0,1,14.28,8.15,9.53,9.53,0,0,1-.13,1.53l-3.1-2.11A6.27,6.27,0,1,0,300,32.1a6.18,6.18,0,0,0,.69,0L304,34.43A9.43,9.43,0,0,1,300,35.3Zm18.69-6.19c0,6.29-4.21,12-17.2,1.06a4.57,4.57,0,1,1,3.15-4.34c0,.1,0,.2,0,.29,4.81,3.7,10.9,8.23,14.06-.38Z"/><path class="cls-8" d="M8.82,159.3V148.88A22.9,22.9,0,0,1,0,140.54c5.75.92,7.59-1.67,10.6-4.23,1.79-1.52,3.91-3.64,6-4.64a12.22,12.22,0,0,1,8.37-.9,8.61,8.61,0,0,0-2.66-5c4.37,1.79,11.56,9.7,11.56,15.63a9.76,9.76,0,0,1-3.52,7.84,12.06,12.06,0,0,1-1.72,1.1c2.56.37,4,1.72,4.23,4.05l.3,2.21a9,9,0,0,0,.15,1.33,17.59,17.59,0,0,1,.29,2.51q-.14,2.8-4,2.94-4.29,0-4.72-3.39l-.45-3.54q-.44-3-3.83-3H17.22v5.75q0,4.13-4.28,4.13-4,0-4.12-4.13Zm12.79-22.07a5,5,0,1,0,0,10,5,5,0,1,0,0-10Z"/><path class="cls-9" d="M78.25,147.21h4.12a2.57,2.57,0,0,0,2.65-2.5c0-1.67-.88-2.51-2.65-2.51H78.25v5Zm-8.55,10.91v-16.8c-.1-3.54,1.57-5.26,5-5.16h9q9.43,0,9.58,6.79.14,4.72-3.84,5.59v.15q4.87,1,5,6.63-.44,7.67-10.17,8H74.71q-5.16,0-5-5.16Zm8.55-.88h4.27c2.26-.1,3.44-1,3.53-2.66-.09-1.67-1.27-2.55-3.53-2.65H78.25Z"/><path class="cls-10" d="M117.17,149.72q-.15-7.38-5.46-7.52-5.15.15-5.3,7.52.14,7.22,5.3,7.37,5.31-.15,5.46-7.37Zm-19.46,0q.58-13.27,14-14.3,13.57.89,14.15,14.3-.43,13.41-14.15,13.85Q98.16,163,97.71,149.72Z"/><path class="cls-9" d="M147.24,145.45v-5.16c.1-3.05,1.57-4.62,4.42-4.72,2.75.1,4.17,1.67,4.28,4.72v18.87c-.1,2.75-1.52,4.18-4.28,4.27-2.85-.09-4.32-1.52-4.42-4.27v-6.34h-8.4v6.34q-.14,4.12-4.42,4.27-4.13-.14-4.28-4.27V140.29q.15-4.58,4.28-4.72,4.27.14,4.42,4.72v5.16Z"/><path class="cls-9" d="M161.69,159.15V140.29q.14-4.58,4.42-4.72,4.12.14,4.28,4.72v18.87q-.15,4.12-4.28,4.27Q161.84,163.28,161.69,159.15Z"/><path class="cls-9" d="M182.62,143.09h-5.31q-3.54,0-3.54-3.54t3.83-3.4h18.57q4,0,4,3.4t-3.69,3.54h-5.16v16.07c-.09,2.75-1.57,4.18-4.42,4.27-2.75-.09-4.18-1.52-4.27-4.27Z"/><path class="cls-10" d="M50.69,171.32a3.28,3.28,0,0,1-.48-4.64,3.35,3.35,0,0,1,4.69-.48q14.35,11.59,27.74,11.59t26.15-11.48a3.36,3.36,0,0,1,4.72.25,3.28,3.28,0,0,1-.25,4.67Q98.47,184.4,82.63,184.41T50.69,171.32Z"/><path class="cls-10" d="M56.58,149.72q-.15-7.38-5.46-7.52-5.15.15-5.3,7.52.14,7.22,5.3,7.37,5.31-.15,5.46-7.37Zm-19.46,0q.59-13.27,14-14.3,13.57.89,14.15,14.3-.43,13.41-14.15,13.85Q37.57,163,37.12,149.72Z"/><rect class="cls-11" x="352.79" y="137.68" width="6.7" height="19.82"/><path class="cls-11" d="M303.25,143.29H280.73v-5.47h22.52Zm.54,8.49H280.3v5.47h23.49Zm-3.49-6.65h-9.95l-10.06,6.65,5,3.79Z"/><path class="cls-11" d="M483.56,156.79H478v-19h5.54Zm6.18-19H484.2v19h5.54Zm-11.72,0h-9.38V143H478Zm20.78,0h-9.05V143h9.05Z"/><path class="cls-11" d="M311.78,156.44a.75.75,0,0,1-.68.81h-4.85a.75.75,0,0,1-.68-.81V138.87a.75.75,0,0,1,.68-.81h4.85a.75.75,0,0,1,.68.81Z"/><path class="cls-11" d="M328.69,137.9h6.6a.62.62,0,0,1,.54.38l3.27,12.16s.28.25.5,0l4.25-12.12a.66.66,0,0,1,.62-.52h6.38a.48.48,0,0,1,.4.58l-6.6,16.89a5.72,5.72,0,0,1-4,2.47,7.34,7.34,0,0,1-5.25-1.25s-.88-.66-1-1.16l-2.24-7.92h0l-3.43-9.51m0,0a.62.62,0,0,0-.54.38l-3.27,12.16s-.28.25-.5,0l-4.25-12.12a.67.67,0,0,0-.62-.52h-6.38a.48.48,0,0,0-.4.58l6.6,16.89a5.7,5.7,0,0,0,4,2.47,7.32,7.32,0,0,0,5.24-1.25s.88-.66,1-1.16l2.24-7.92s.12-.38.26,0l-3.43-9.51"/><path class="cls-11" d="M367.91,157.51h-6.54v-7.1h6.54Zm-7-19.71.34,4.68a1.11,1.11,0,0,0,1.15.79H379s1.29.68-.07,1.35H361.36v5.79h12a.69.69,0,0,1,.64.24l8.48,8.76H390s.57-.21.09-.72l-7.48-8.42s3.86-.33,3.88-4v-4.56a3.83,3.83,0,0,0-3.3-3.88Z"/><path class="cls-11" d="M414.2,150.56a6.76,6.76,0,0,1-6.7,6.81H394.27a6.75,6.75,0,0,1-6.7-6.81v-6.28a6.75,6.75,0,0,1,6.7-6.81H407.5a6.76,6.76,0,0,1,6.7,6.81Zm-6.55-5.79a1.47,1.47,0,0,0-1.44-1.51H395.8a1.47,1.47,0,0,0-1.44,1.51v5.36a1.47,1.47,0,0,0,1.44,1.51h10.41a1.47,1.47,0,0,0,1.44-1.51Z"/><path class="cls-11" d="M467.64,150.44a6.76,6.76,0,0,1-6.7,6.81H447.72a6.75,6.75,0,0,1-6.7-6.81v-6.28a6.75,6.75,0,0,1,6.7-6.81h13.23a6.76,6.76,0,0,1,6.7,6.81Zm-6.55-5.79a1.47,1.47,0,0,0-1.43-1.51H449.24a1.47,1.47,0,0,0-1.43,1.51V150a1.47,1.47,0,0,0,1.43,1.51h10.42a1.47,1.47,0,0,0,1.43-1.51Z"/><path class="cls-11" d="M432,145a1.14,1.14,0,0,0,.92-1.16.9.9,0,0,0-.92-.92H416.21a.79.79,0,0,1-.76-.8v-3.95s0-.44.8-.48h19.3s3.47.52,3.51,3.47v3.55a2.33,2.33,0,0,1-1.55,2.27,3.89,3.89,0,0,1,2.47,3.83V154s.24,3.15-2.51,3.29h-22V145Zm-10.09,7h11.25c1.18-1,0-1.61,0-1.61H421.92Z"/></g></g></svg>