<svg xmlns="http://www.w3.org/2000/svg" viewBox="0 0 286.49 154.76"><defs><style>.cls-1{fill:#231815;}.cls-2{fill:#fff;}</style></defs><title>hitrobot_logo_white</title><g id="图层_2" data-name="图层 2"><g id="图层_1-2" data-name="图层 1"><rect class="cls-1" width="286.49" height="154.76"/><polygon class="cls-2" points="222.76 81.51 196.33 81.51 193.27 87.49 209.13 87.49 214.8 98.96 179.58 98.96 197.15 63.62 201.71 72.74 218.36 72.74 205.59 47.27 187.3 47.27 159.45 103.07 147.54 79.34 166.7 79.34 182.66 47.27 125.78 47.27 112.69 73.33 94.72 73.33 107.78 47.27 89.92 47.27 60.85 105.16 78.78 105.16 91.71 79.34 109.71 79.34 96.74 105.16 114.66 105.16 140.65 53.29 162.9 53.29 152.45 73.33 135.14 73.33 131.27 81.09 143.21 105.16 234.48 105.16 222.76 81.51"/></g></g></svg>