<svg xmlns="http://www.w3.org/2000/svg" viewBox="0 0 494.59 77.12"><defs><style>.cls-1{fill:#3e3a39;}.cls-2{fill:#595757;}.cls-3{fill:#1e5199;}</style></defs><title>hitrobot_nobody_blue</title><g id="图层_2" data-name="图层 2"><g id="图层_1-2" data-name="图层 1"><path class="cls-1" d="M93.22,21.7h11.5l15,20.06V21.7h11.61V57.95H119.74L104.8,38v19.9H93.22Z"/><path class="cls-1" d="M138,39.84Q138,31,143.43,26t15.15-4.95q10,0,15.34,4.86t5.39,13.61A20.62,20.62,0,0,1,177,50a16,16,0,0,1-6.8,6.33,24.29,24.29,0,0,1-11.08,2.26,27.7,27.7,0,0,1-11.16-2,16.25,16.25,0,0,1-7.17-6.18A19,19,0,0,1,138,39.84Zm12.32,0q0,5.49,2.24,7.89a9.09,9.09,0,0,0,12.25,0Q167,45.48,167,39.4q0-5.12-2.27-7.48a8.15,8.15,0,0,0-6.16-2.36,7.83,7.83,0,0,0-6,2.4Q150.31,34.36,150.31,39.89Z"/><path class="cls-1" d="M186,21.7H209q5.77,0,8.86,2.6A8.08,8.08,0,0,1,221,30.72a7.69,7.69,0,0,1-2.2,5.51,10,10,0,0,1-4.3,2.42,11.47,11.47,0,0,1,6.32,3.23,8.35,8.35,0,0,1,2,5.75,9.19,9.19,0,0,1-1.44,5.07,10.21,10.21,0,0,1-3.94,3.56,14.09,14.09,0,0,1-4.68,1.19q-4.16.5-5.52.49H186ZM198.4,35.91h5.36a6.62,6.62,0,0,0,4-.9,3.15,3.15,0,0,0,1.13-2.61,3,3,0,0,0-1.13-2.47,6.53,6.53,0,0,0-3.93-.89H198.4Zm0,14.24h6.28q3.18,0,4.49-1a3.33,3.33,0,0,0,1.3-2.76,3.08,3.08,0,0,0-1.29-2.58q-1.29-1-4.53-1H198.4Z"/><path class="cls-1" d="M227.72,39.84q0-8.88,5.44-13.82t15.15-4.95q10,0,15.34,4.86T269,39.55A20.61,20.61,0,0,1,266.68,50a16,16,0,0,1-6.8,6.33,24.29,24.29,0,0,1-11.08,2.26,27.71,27.71,0,0,1-11.16-2,16.26,16.26,0,0,1-7.17-6.18A19,19,0,0,1,227.72,39.84Zm12.32,0q0,5.49,2.24,7.89a9.09,9.09,0,0,0,12.25,0q2.18-2.35,2.18-8.43,0-5.12-2.27-7.48a8.15,8.15,0,0,0-6.16-2.36,7.83,7.83,0,0,0-6,2.4Q240,34.36,240,39.89Z"/><path class="cls-1" d="M275.83,21.7h18.31A23.94,23.94,0,0,1,302.89,23a14.14,14.14,0,0,1,5.51,3.83,15.33,15.33,0,0,1,3.16,5.81,24.68,24.68,0,0,1,1,7,22.38,22.38,0,0,1-1.46,9,15,15,0,0,1-4,5.37A13.56,13.56,0,0,1,301.48,57a31.26,31.26,0,0,1-7.34,1H275.83Zm12.32,8.21V49.71h3a13.82,13.82,0,0,0,5.5-.78,5.46,5.46,0,0,0,2.56-2.72,15.63,15.63,0,0,0,.93-6.29q0-5.76-2.07-7.89t-6.86-2.13Z"/><path class="cls-1" d="M315,21.7h13.69l8,12.23,8.05-12.23h13.61l-15.5,21.07V57.95H330.51V42.76Z"/><path class="cls-2" d="M379.36,21.94h2.54V37h-2.54V30.28H372V37h-2.46v-15H372v6.17h7.33Z"/><path class="cls-2" d="M386.49,21.94H389V37h-2.47Z"/><path class="cls-2" d="M404.94,24.12h-5V37h-2.46V24.12h-5.08V21.94h12.54Z"/><path class="cls-2" d="M428.34,37H425l-5.07-6.38h-3V37h-2.47V21.87h7q5.07.15,5.29,4.28,0,3.7-4,4.28ZM416.88,24.12v4.21H421q3.26,0,3.19-2.25-.07-1.88-3.19-2Z"/><path class="cls-2" d="M438.16,21.65q6.89.43,7.4,7.76Q445.34,37,438,37.17q-7.11-.36-7.4-7.69Q431,22,438.16,21.65Zm-.22,13.49q4.86-.22,5-5.66-.36-5.22-4.86-5.66-4.64.36-4.93,5.66Q433.37,34.78,437.94,35.14Z"/><path class="cls-2" d="M456,37h-6.82v-15h6.46q4.78.22,5.08,3.92A3.38,3.38,0,0,1,458.85,29a3.9,3.9,0,0,1,2.54,3.7Q461.39,37,456,37ZM451.6,24.12v4h3.7q2.83-.07,2.9-2.1-.15-1.81-2.83-1.88Zm4,6.16h-4v4.57h4.21q3,0,3-2.32T455.59,30.28Z"/><path class="cls-2" d="M472.15,21.65q6.89.43,7.4,7.76Q479.33,37,472,37.17q-7.11-.36-7.4-7.69Q465,22,472.15,21.65Zm-.22,13.49q4.86-.22,5-5.66-.36-5.22-4.86-5.66-4.64.36-4.93,5.66Q467.37,34.78,471.94,35.14Z"/><path class="cls-2" d="M494.59,24.12h-5V37h-2.47V24.12H482V21.94h12.55Z"/><path class="cls-2" d="M376.24,49.59h7.18v5.73q-2,2.68-6.67,2.68-7.47-.29-7.76-7.69.29-7.54,7.47-7.83,5.08.08,6.82,4.43l-2.61.72a4.21,4.21,0,0,0-4.28-2.9q-4.5.36-4.79,5.58.29,5.22,5.08,5.59,3,0,4.28-1.52V51.77h-4.71Z"/><path class="cls-2" d="M401.36,57.79H398l-5.08-6.38h-3v6.38h-2.47V42.7h7q5.07.15,5.29,4.28,0,3.7-4,4.28ZM389.9,45v4.21H394q3.27,0,3.19-2.25Q397.15,45,394,45Z"/><path class="cls-2" d="M411.17,42.48q6.89.44,7.4,7.76Q418.35,57.79,411,58q-7.11-.36-7.4-7.69Q404,42.85,411.17,42.48ZM411,56q4.86-.22,5-5.66-.37-5.22-4.86-5.66-4.64.37-4.93,5.66Q406.39,55.61,411,56Z"/><path class="cls-2" d="M432.16,42.78h2.47v8.7q.22,6.82-6.31,6.53-6.24.22-6.09-6.53v-8.7h2.47v8.7q-.07,4.57,3.63,4.42,4,.15,3.84-4.42Z"/><path class="cls-2" d="M445.6,52h-4.06v5.8H439V42.7h6.75q4.93.22,5.29,4.57Q451,51.92,445.6,52Zm-.22-7h-3.84v4.86h3.84q3.12,0,3.12-2.54Q448.36,45,445.39,45Z"/><circle class="cls-3" cx="37.95" cy="37.91" r="3.5"/><path class="cls-3" d="M68.94,14.84v19.5c-1.77,5.6-4.41,8-7.28,8.6V7.69A38.56,38.56,0,0,0,8.85,63.14V43.34c1.46-7,4.25-9.9,7.28-10.76V69.91A38.55,38.55,0,0,0,68.94,14.84ZM37.83,53.68a15.77,15.77,0,0,1-14.51-22c-4.09-3-11.49-6-14.47,7.71V32.81c0-11.64,10.07-15.59,21-8.47A15.7,15.7,0,0,1,53.37,40.45l-5.16-3.52A10.43,10.43,0,1,0,37.83,48.35,10.62,10.62,0,0,0,39,48.28l5.45,3.94A15.67,15.67,0,0,1,37.83,53.68ZM68.94,43.37c0,10.47-7,20-28.62,1.77a7.61,7.61,0,1,1,5.24-7.23c0,.17,0,.33,0,.49,8,6.15,18.14,13.7,23.41-.63Z"/></g></g></svg>