<svg xmlns="http://www.w3.org/2000/svg" viewBox="0 0 481.88 87.81"><defs><style>.cls-1{fill:#0d509b;}.cls-2{font-size:42.04px;fill:#2f2725;font-family:ArialMT, Arial;}.cls-3{font-size:15.2px;fill:#595757;font-family:FZLTXHK--GBK1-0, FZLTXHK -GBK1-0-GBpc-EUC-H;letter-spacing:0.18em;}</style></defs><title>hitrobot_everybody_hitrobot</title><g id="图层_2" data-name="图层 2"><g id="图层_1-2" data-name="图层 1"><path class="cls-1" d="M7.74,56.6a23.7,23.7,0,0,0-3.26,6.61A44.2,44.2,0,0,0,20.13,80.79C14.69,74.7,10.37,66.29,7.74,56.6Z"/><path class="cls-1" d="M21.29,81.52l-.21-.13Z"/><path class="cls-1" d="M4.39,63l-.08-.17Z"/><path class="cls-1" d="M3.5,61.08l-.11-.27Z"/><path class="cls-1" d="M26.95,84.4l-.2-.09Z"/><path class="cls-1" d="M87.72,41.22l0-.46-.46,0c-5.8-.24-11.91-.37-18.17-.39h-.35c-16.69.06-29.68.9-34.26,1.53V37.46c3.69-1.82,17.24-5.19,34-5.28h.87a130.58,130.58,0,0,1,16.47,1.13l.76.1-.2-.74a43.27,43.27,0,0,0-2.09-6.08l-.12-.27-.28,0a106.74,106.74,0,0,0-14.56-1.06h-.84c-16.26.09-29.63,3.74-34,7.38V28.66C37.74,22,52.06,17.12,68.6,17.05h.58a82,82,0,0,1,8.74.5l1.23.13-.77-1a43.4,43.4,0,0,0-5.74-6l-.13-.12h-.18c-.92,0-1.86-.07-2.8-.07H68.45c-14.85.05-28.91,5.36-34,12.58V19.62c1.81-7.75,10.79-14,23.44-16.33l2-.36L58,2.3A43.89,43.89,0,0,0,2.23,57.68a19.77,19.77,0,0,1,4.46-5.44A82.64,82.64,0,0,1,5,35.32,63.53,63.53,0,0,1,7.22,20.75a71.44,71.44,0,0,0-1.5,14.57A57,57,0,0,0,8.06,51.08c6.35-5.15,16.29-9.78,25.88-11.57C33.94,39.5,18,44,9.2,54.66A78.14,78.14,0,0,0,29.14,85.25a44,44,0,0,0,28.72.3l1.89-.63-2-.36C45,82.18,36.28,76.08,34.45,68.24V64.78C39.54,72,53.6,77.3,68.44,77.35h.88c.94,0,1.93,0,2.95-.08h.18l.13-.12a44.22,44.22,0,0,0,5.76-6l.77-1-1.23.14a81.93,81.93,0,0,1-8.7.49H68.6c-16.54-.06-30.86-4.94-34.15-11.61V55.25c4.39,3.65,17.75,7.3,34,7.38h.84a105.42,105.42,0,0,0,14.53-1.06l.29,0,.12-.27a43.63,43.63,0,0,0,2.1-6.08l.2-.74-.76.1a130.17,130.17,0,0,1-16.45,1.13h-.87c-16.76-.09-30.31-3.46-34-5.27V46C39,46.62,52,47.45,68.71,47.51h.35c6.3,0,12.41-.15,18.17-.39l.46,0,0-.46c.06-.94.09-1.86.09-2.74S87.78,42.12,87.72,41.22Z"/><path class="cls-1" d="M23.27,82.65l-.43-.23Z"/><path class="cls-1" d="M28.93,85.18l-.3-.11Z"/><path class="cls-1" d="M24.94,83.5l-.24-.12Z"/><text class="cls-2" transform="translate(111.63 58.18)">EVERYBODY</text><text class="cls-3" transform="translate(382.24 39.25)">HIT ROBOT<tspan x="0" y="18.24">GROUP</tspan></text></g></g></svg>