<svg xmlns="http://www.w3.org/2000/svg" xmlns:xlink="http://www.w3.org/1999/xlink" viewBox="0 0 455.3 162.98"><defs><style>.cls-1{fill:#231815;}.cls-2{fill:#3e3a39;}.cls-3{fill:#595757;}.cls-4{fill:#727171;}.cls-5{fill:#898989;}.cls-6{fill:#9fa0a0;}.cls-7{fill:#b5b5b6;}.cls-8{fill:#c9caca;}.cls-9{fill:#dcdddd;}.cls-10{fill:#efefef;}.cls-11,.cls-12{font-size:9.44px;}.cls-11,.cls-16{fill:#fff;}.cls-11{font-family:Myriad-Roman, Myriad Roman;}.cls-12{fill:#4c4948;font-family:FZXH1JW--GB1-0, FZXH1JW -GB1-0-GBpc-EUC-H;}.cls-13{fill:url(#linear-gradient);}.cls-14,.cls-15{fill:none;}.cls-14{stroke:#231815;stroke-width:0.24px;stroke-dasharray:3.8 2.85;}.cls-15{stroke:#fff;stroke-width:0.5px;stroke-dasharray:4 3;}.cls-17{fill:#10386b;}</style><linearGradient id="linear-gradient" y1="117.1" x2="454.9" y2="117.1" gradientUnits="userSpaceOnUse"><stop offset="0" stop-color="#231815"/><stop offset="1" stop-color="#fff"/></linearGradient></defs><title>hitrobot_hrg_logo_Standard_color_black</title><g id="图层_2" data-name="图层 2"><g id="图层_1-2" data-name="图层 1"><rect class="cls-1" y="19.9" width="45.46" height="45.46"/><rect class="cls-2" x="45.46" y="19.9" width="45.46" height="45.46"/><rect class="cls-3" x="90.92" y="19.9" width="45.46" height="45.46"/><rect class="cls-4" x="136.38" y="19.9" width="45.46" height="45.46"/><rect class="cls-5" x="181.84" y="19.9" width="45.46" height="45.46"/><rect class="cls-6" x="227.3" y="19.9" width="45.46" height="45.46"/><rect class="cls-7" x="272.76" y="19.9" width="45.46" height="45.46"/><rect class="cls-8" x="318.22" y="19.9" width="45.46" height="45.46"/><rect class="cls-9" x="363.68" y="19.9" width="45.46" height="45.46"/><rect class="cls-10" x="409.15" y="19.9" width="45.46" height="45.46"/><text class="cls-11" transform="translate(11.37 45.5)">100%</text><text class="cls-11" transform="translate(332.84 45.5)">30%</text><text class="cls-11" transform="translate(287.81 45.5)">54%</text><text class="cls-12" transform="translate(0 8.31)">黑色/CMYK C0 M0 Y0 K100</text><rect class="cls-13" y="84.66" width="454.9" height="64.87"/><line class="cls-14" x1="455.18" y1="79.07" x2="455.18" y2="157.18"/><line class="cls-15" x1="318.21" y1="73.99" x2="318.21" y2="162.98"/><polygon class="cls-16" points="160.33 118.13 148.54 118.13 147.17 120.8 154.25 120.8 156.78 125.92 141.07 125.92 148.9 110.15 150.94 114.22 158.37 114.22 152.67 102.85 144.51 102.85 132.08 127.75 126.77 117.16 135.32 117.16 142.44 102.85 117.06 102.85 111.22 114.48 103.19 114.48 109.02 102.85 101.05 102.85 88.08 128.68 96.08 128.68 101.85 117.16 109.88 117.16 104.1 128.68 112.09 128.68 123.69 105.54 133.62 105.54 128.96 114.48 121.23 114.48 119.51 117.94 124.83 128.68 165.57 128.68 160.33 118.13"/><polygon class="cls-17" points="420.23 118.13 408.44 118.13 407.07 120.8 414.15 120.8 416.69 125.92 400.97 125.92 408.81 110.15 410.84 114.22 418.27 114.22 412.57 102.85 404.41 102.85 391.98 127.75 386.67 117.16 395.22 117.16 402.34 102.85 376.96 102.85 371.12 114.48 363.1 114.48 368.92 102.85 360.95 102.85 347.98 128.68 355.98 128.68 361.75 117.16 369.78 117.16 364 128.68 371.99 128.68 383.59 105.54 393.52 105.54 388.86 114.48 381.13 114.48 379.41 117.94 384.73 128.68 425.46 128.68 420.23 118.13"/></g></g></svg>