<svg xmlns="http://www.w3.org/2000/svg" viewBox="0 0 334.11 97.8"><defs><style>.cls-1,.cls-2{fill:#00a0e9;}.cls-1{fill-rule:evenodd;}.cls-3{fill:#f08300;}</style></defs><title>hitrobot_robot</title><g id="图层_2" data-name="图层 2"><g id="图层_1-2" data-name="图层 1"><path class="cls-1" d="M14.73,55.9V38.5C7.93,35,3.75,30.26,0,24.59c9.6,1.53,12.67-2.79,17.7-7.06,3-2.54,6.52-6.07,10-7.75,4.07-2,9.55-2.83,14-1.5-.86-3.51-1.79-5.9-4.43-8.28,7.29,3,19.29,16.18,19.29,26.1,0,5.12-2,10.09-5.88,13.09A20.55,20.55,0,0,1,47.76,41c4.26.62,6.62,2.87,7.07,6.76l.5,3.69a15,15,0,0,0,.25,2.22,29.47,29.47,0,0,1,.48,4.19q-.24,4.67-6.63,4.91-7.15,0-7.88-5.66l-.74-5.9q-.74-4.93-6.4-4.92H28.75v9.6q0,6.9-7.14,6.89-6.64,0-6.88-6.89ZM36.07,19.05c-4.95,0-9,3.74-9,8.34s4,8.34,9,8.34S45,32,45,27.4,41,19.05,36.07,19.05Z"/><path class="cls-2" d="M130.62,35.72h6.88a4.3,4.3,0,0,0,4.43-4.18c0-2.79-1.47-4.19-4.43-4.19h-6.88v8.37ZM116.35,53.93v-28q-.26-8.87,8.36-8.62h15q15.75,0,16,11.33.23,7.87-6.41,9.34v.25q8.13,1.72,8.37,11.07-.74,12.8-17,13.29h-16q-8.61,0-8.36-8.61Zm14.27-1.48h7.13c3.77-.17,5.74-1.64,5.9-4.43-.15-2.78-2.13-4.26-5.9-4.43h-7.13Z"/><path class="cls-3" d="M195.58,39.91q-.26-12.32-9.11-12.56-8.6.25-8.85,12.56.23,12,8.85,12.3,8.87-.25,9.11-12.3Zm-32.48,0q1-22.16,23.37-23.87,22.64,1.48,23.62,23.87Q209.37,62.3,186.47,63,163.84,62,163.1,39.91Z"/><path class="cls-2" d="M245.77,32.77V24.16c.17-5.09,2.63-7.71,7.39-7.87,4.6.16,7,2.78,7.14,7.88v31.5c-.17,4.59-2.54,7-7.14,7.13-4.76-.16-7.21-2.54-7.39-7.13V45.07h-14V55.66q-.24,6.88-7.38,7.13-6.89-.24-7.14-7.13V24.16q.25-7.64,7.14-7.87,7.13.24,7.38,7.88v8.61Z"/><path class="cls-2" d="M269.89,55.66V24.16q.24-7.64,7.38-7.87,6.88.24,7.14,7.88v31.5q-.26,6.88-7.14,7.13Q270.14,62.55,269.89,55.66Z"/><path class="cls-2" d="M304.83,28.84H296q-5.91,0-5.91-5.9,0-5.67,6.4-5.67h31q6.65,0,6.65,5.67,0,5.9-6.16,5.9h-8.62V55.66c-.16,4.59-2.62,7-7.38,7.13-4.59-.16-7-2.54-7.13-7.13Z"/><path class="cls-3" d="M84.61,76a5.47,5.47,0,0,1-.81-7.75,5.6,5.6,0,0,1,7.82-.8q24,19.34,46.31,19.34,22.16,0,43.65-19.17a5.61,5.61,0,0,1,7.87.41,5.48,5.48,0,0,1-.42,7.79q-24.68,22-51.11,22Q111.66,97.8,84.61,76Z"/><path class="cls-3" d="M94.44,39.91Q94.2,27.6,85.33,27.35q-8.6.25-8.85,12.56.23,12,8.85,12.3,8.87-.25,9.11-12.3ZM62,39.91q1-22.16,23.37-23.87Q108,17.52,109,39.91,108.23,62.3,85.33,63,62.71,62,62,39.91Z"/></g></g></svg>