<svg xmlns="http://www.w3.org/2000/svg" viewBox="0 0 455.42 123.41"><defs><style>.cls-1{fill:#fff;stroke:#231815;stroke-width:0.24px;}.cls-2{fill:#231815;}</style></defs><title>hitrobot_sign_white_left_down</title><g id="图层_2" data-name="图层 2"><g id="图层_1-2" data-name="图层 1"><rect class="cls-1" x="0.12" y="0.12" width="455.18" height="123.18"/><path class="cls-2" d="M65.33,70.7a16.17,16.17,0,0,0-2.22,4.51,30.17,30.17,0,0,0,10.68,12A40.92,40.92,0,0,1,65.33,70.7Z"/><path class="cls-2" d="M79.81,90.22l-.25-.09Z"/><path class="cls-2" d="M119.92,60.21l0-.32h-.31c-4-.16-8.13-.25-12.4-.27h-.24a226.38,226.38,0,0,0-23.38,1v-3c2.52-1.24,11.77-3.54,23.21-3.6h.59a89.17,89.17,0,0,1,11.24.77l.52.07-.13-.51a29.84,29.84,0,0,0-1.43-4.15l-.08-.18-.19,0a72.72,72.72,0,0,0-9.94-.72h-.58c-11.1.06-20.22,2.55-23.21,5V51.64c2.25-4.55,12-7.88,23.3-7.92h.39a55.85,55.85,0,0,1,6,.34l.84.09-.53-.66a29.56,29.56,0,0,0-3.92-4.1l-.09-.08h-.12c-.63,0-1.27,0-1.91,0h-.74c-10.13,0-19.73,3.66-23.2,8.59V45.47c1.23-5.29,7.36-9.55,16-11.14l1.34-.24-1.29-.43a30,30,0,0,0-38,37.8,13.48,13.48,0,0,1,3-3.71,56.38,56.38,0,0,1-1.19-11.55A43.42,43.42,0,0,1,65,46.24a48.75,48.75,0,0,0-1,9.95,38.85,38.85,0,0,0,1.6,10.75A42.2,42.2,0,0,1,83.21,59S72.33,62.13,66.33,69.38A53.34,53.34,0,0,0,79.94,90.26a30,30,0,0,0,19.6.2l1.29-.43-1.34-.25C90.76,88.16,84.81,84,83.56,78.65V76.29c3.47,4.93,13.07,8.54,23.2,8.58h.6c.64,0,1.32,0,2-.06h.12l.09-.08a30.38,30.38,0,0,0,3.93-4.1L114,80l-.84.09a56,56,0,0,1-5.94.34h-.39c-11.29,0-21.06-3.37-23.31-7.92V69.79c3,2.49,12.12,5,23.22,5h.57a71.51,71.51,0,0,0,9.92-.73l.2,0,.08-.18A29.86,29.86,0,0,0,119,69.74l.13-.5-.52.07a88.83,88.83,0,0,1-11.23.77h-.59c-11.44-.06-20.69-2.36-23.2-3.6v-3a225.45,225.45,0,0,0,23.38,1h.24c4.3,0,8.47-.11,12.4-.27h.32l0-.32c0-.64.06-1.27.06-1.87S120,60.82,119.92,60.21Z"/><path class="cls-2" d="M138.51,71.78V51.24h14.85v2.42H141.23V60h11.36v2.41H141.23v7h12.61v2.42Z"/><path class="cls-2" d="M163.46,71.78l-8-20.54h2.94l5.34,14.92c.43,1.2.79,2.31,1.08,3.36.32-1.12.69-2.24,1.11-3.36l5.55-14.92h2.77l-8,20.54Z"/><path class="cls-2" d="M176.78,71.78V51.24h14.85v2.42H179.5V60h11.36v2.41H179.5v7h12.61v2.42Z"/><path class="cls-2" d="M195.91,71.78V51.24H205a12.11,12.11,0,0,1,4.17.55,4.57,4.57,0,0,1,2.28,2,5.84,5.84,0,0,1,.86,3.1,5.17,5.17,0,0,1-1.41,3.68,7.17,7.17,0,0,1-4.37,1.91,7.05,7.05,0,0,1,1.64,1,14.15,14.15,0,0,1,2.25,2.73L214,71.78h-3.42l-2.72-4.27q-1.19-1.85-2-2.83a6.2,6.2,0,0,0-1.38-1.37,4.16,4.16,0,0,0-1.24-.55,8.3,8.3,0,0,0-1.51-.1h-3.15v9.12Zm2.72-11.47h5.84a8.78,8.78,0,0,0,2.91-.39,3.1,3.1,0,0,0,1.6-1.23,3.33,3.33,0,0,0,.55-1.84,3.07,3.07,0,0,0-1.06-2.4,5,5,0,0,0-3.34-.94h-6.5Z"/><path class="cls-2" d="M222.37,71.78v-8.7l-7.92-11.84h3.31l4,6.19q1.12,1.74,2.09,3.47.92-1.61,2.24-3.63l4-6h3.16l-8.2,11.84v8.7Z"/><path class="cls-2" d="M235.61,71.78V51.24h7.71a9.57,9.57,0,0,1,3.78.62,4.86,4.86,0,0,1,2.23,1.92,5.06,5.06,0,0,1,.8,2.71,4.65,4.65,0,0,1-.71,2.48,5.08,5.08,0,0,1-2.16,1.88,5.36,5.36,0,0,1,2.86,1.86,5,5,0,0,1,1,3.11,6,6,0,0,1-.61,2.68A5.18,5.18,0,0,1,249,70.42a6.25,6.25,0,0,1-2.25,1,13.58,13.58,0,0,1-3.31.34Zm2.72-11.91h4.44a9.92,9.92,0,0,0,2.59-.24,2.89,2.89,0,0,0,1.56-1,3,3,0,0,0,.52-1.79A3.29,3.29,0,0,0,247,55a2.47,2.47,0,0,0-1.4-1.07,11.79,11.79,0,0,0-3.12-.29h-4.1Zm0,9.48h5.11a11.87,11.87,0,0,0,1.85-.1,4.45,4.45,0,0,0,1.57-.56,3,3,0,0,0,1-1.14,3.56,3.56,0,0,0,.41-1.73,3.41,3.41,0,0,0-.59-2,3.1,3.1,0,0,0-1.63-1.19,10.07,10.07,0,0,0-3-.34h-4.75Z"/><path class="cls-2" d="M254,61.78q0-5.12,2.75-8a9.33,9.33,0,0,1,7.09-2.89A9.82,9.82,0,0,1,269,52.24,8.87,8.87,0,0,1,272.48,56a12.29,12.29,0,0,1,1.2,5.51,12.11,12.11,0,0,1-1.26,5.59,8.62,8.62,0,0,1-3.57,3.73,10.21,10.21,0,0,1-5,1.27,9.71,9.71,0,0,1-5.19-1.4,9,9,0,0,1-3.46-3.82A11.58,11.58,0,0,1,254,61.78Zm2.8,0a8.24,8.24,0,0,0,2,5.85,7,7,0,0,0,10.06,0,8.72,8.72,0,0,0,2-6.12,10.56,10.56,0,0,0-.85-4.38,6.52,6.52,0,0,0-2.48-2.9,6.73,6.73,0,0,0-3.66-1,7,7,0,0,0-5,2Q256.84,57.18,256.84,61.82Z"/><path class="cls-2" d="M277.18,71.78V51.24h7.08a17.07,17.07,0,0,1,3.66.29,7,7,0,0,1,3,1.47,8.36,8.36,0,0,1,2.43,3.51,13.73,13.73,0,0,1,.81,4.88,14.42,14.42,0,0,1-.55,4.15,10.15,10.15,0,0,1-1.4,3,7.47,7.47,0,0,1-1.87,1.86,7.65,7.65,0,0,1-2.45,1,14.06,14.06,0,0,1-3.3.35Zm2.72-2.42h4.39a10.74,10.74,0,0,0,3.19-.38,4.58,4.58,0,0,0,1.84-1.06,6.49,6.49,0,0,0,1.51-2.6,12.7,12.7,0,0,0,.54-4,9.57,9.57,0,0,0-1.06-5,5.33,5.33,0,0,0-2.57-2.32,10.66,10.66,0,0,0-3.52-.42H279.9Z"/><path class="cls-2" d="M303.69,71.78v-8.7l-7.92-11.84h3.31l4,6.19q1.12,1.74,2.09,3.47.93-1.61,2.24-3.63l4-6h3.17l-8.2,11.84v8.7Z"/><path class="cls-2" d="M327.28,51.2H328v7.9h-.69V55.34h-4.74v3.77h-.73V51.2h.73v3.53h4.74Z"/><path class="cls-2" d="M332,51.2h.69v7.9H332Z"/><path class="cls-2" d="M342.28,51.2v.65h-2.76v7.25h-.73V51.85H336V51.2Z"/><path class="cls-2" d="M357,59.11h-1l-2.8-3.65h-2.31v3.65h-.73V51.2h3.69q2.47.12,2.63,2.11,0,2-2.51,2.19Zm-6.08-7.3v3h2.76q2.07,0,2.07-1.58c0-.95-.71-1.43-2.07-1.46Z"/><path class="cls-2" d="M363.65,59.23q-3.6-.16-3.77-3.89.16-4.05,3.89-4.26,3.49.24,3.73,4.17Q367.34,59.11,363.65,59.23Zm0-7.54q-2.8.28-3.08,3.57.16,3.2,3,3.44,2.92-.16,3.08-3.44Q366.45,52,363.69,51.69Z"/><path class="cls-2" d="M374.64,55q2,.37,2.11,2.07-.12,2-2.59,2.07h-3.28V51.2h3.08q2.31.12,2.47,1.95A2,2,0,0,1,374.64,55Zm-.89-3.16h-2.23v2.92h2.23q1.74-.08,1.9-1.54C375.6,52.3,375,51.84,373.75,51.81Zm.12,3.53h-2.35v3.24H374q2,0,2-1.66Q375.9,55.46,373.87,55.34Z"/><path class="cls-2" d="M383.76,59.23q-3.61-.16-3.77-3.89.16-4.05,3.89-4.26,3.48.24,3.73,4.17Q387.45,59.11,383.76,59.23Zm0-7.54q-2.8.28-3.08,3.57.16,3.2,3,3.44,2.92-.16,3.08-3.44Q386.56,52,383.8,51.69Z"/><path class="cls-2" d="M396.65,51.2v.65H393.9v7.25h-.73V51.85h-2.76V51.2Z"/><path class="cls-2" d="M325.54,67.58h3.28v2.84a4,4,0,0,1-3.36,1.26q-3.73-.16-3.93-3.93.16-4.05,3.77-4.21a3.36,3.36,0,0,1,3.45,2.23l-.81.2a2.67,2.67,0,0,0-2.71-1.82q-2.67.28-2.92,3.57.2,3.2,3.08,3.44a3.39,3.39,0,0,0,2.75-1V68.19h-2.59Z"/><path class="cls-2" d="M339.24,71.56h-1l-2.79-3.65h-2.31v3.65h-.73v-7.9h3.69q2.47.12,2.63,2.11,0,2-2.51,2.19Zm-6.08-7.29v3h2.76q2.07,0,2.07-1.58t-2.07-1.46Z"/><path class="cls-2" d="M345.89,71.68q-3.61-.16-3.77-3.89.16-4.05,3.89-4.26,3.49.24,3.73,4.18Q349.58,71.56,345.89,71.68Zm0-7.54q-2.79.28-3.08,3.57.16,3.2,3,3.44,2.92-.16,3.08-3.44Q348.69,64.43,345.93,64.14Z"/><path class="cls-2" d="M359.35,63.65v4.66q0,3.4-3.12,3.36t-3.08-3.36V63.65h.73v4.62q0,3,2.35,2.88,2.51.12,2.43-2.88V63.65Z"/><path class="cls-2" d="M366.57,68.27h-2.63v3.28h-.69v-7.9h3.41A2.42,2.42,0,0,1,369.24,66Q369.2,68.24,366.57,68.27Zm-.16-4h-2.47v3.4h2.47q2,0,2.07-1.74T366.4,64.26Z"/></g></g></svg>