<?xml version="1.0" encoding="utf-8"?>
<!-- Generator: Adobe Illustrator 21.1.0, SVG Export Plug-In . SVG Version: 6.00 Build 0)  -->
<svg version="1.1" id="图层_1" xmlns="http://www.w3.org/2000/svg" xmlns:xlink="http://www.w3.org/1999/xlink" x="0px" y="0px"
	 viewBox="0 0 527.1 106.2" style="enable-background:new 0 0 527.1 106.2;" xml:space="preserve">
<style type="text/css">
	.st0{fill:#0F3567;}
	.st1{fill:#FFFFFF;}
	.st2{fill:#10386C;}
	.st3{fill:#5A5858;}
	.st4{font-family:'MicrosoftYaHei';}
	.st5{font-size:25.0557px;}
</style>
<title>hrg_zd</title>
<polygon class="st0" points="186.1,39.9 155.7,39.8 152.2,46.6 170.4,46.7 176.9,59.9 136.4,59.7 156.7,19.2 161.9,29.7 181.1,29.8 
	166.5,0.5 145.5,0.4 113.3,64.4 99.7,37.1 121.7,37.1 140.2,0.4 74.8,0.1 59.7,30 39,30 54.1,0.1 33.6,0 0,66.4 20.6,66.4 
	35.6,36.8 56.2,36.9 41.2,66.5 61.8,66.6 91.9,7.1 117.4,7.2 105.3,30.2 85.5,30.1 81,39 94.6,66.7 199.4,67.1 "/>
<path class="st1" d="M15,57.2l4-3c1.7,2.2,1.2,5.3-1,7s-5.3,1.2-7-1c-1.7-2.2-1.2-5.3,1-7c0.9-0.6,1.9-1,3-1V57.2z"/>
<ellipse transform="matrix(0.5438 -0.8392 0.8392 0.5438 -34.8048 38.4405)" class="st1" cx="18" cy="51.2" rx="0.7" ry="0.7"/>
<ellipse transform="matrix(0.5436 -0.8393 0.8393 0.5436 -22.0565 38.0068)" class="st1" cx="23.9" cy="39.3" rx="0.7" ry="0.7"/>
<ellipse transform="matrix(0.5436 -0.8393 0.8393 0.5436 -28.4306 38.2252)" class="st1" cx="20.9" cy="45.3" rx="0.7" ry="0.7"/>
<ellipse transform="matrix(0.5432 -0.8396 0.8396 0.5432 3.1548 72.6783)" class="st1" cx="68.4" cy="33.4" rx="0.7" ry="0.7"/>
<ellipse transform="matrix(0.5433 -0.8395 0.8395 0.5433 35.1191 71.6376)" class="st1" cx="83.4" cy="3.5" rx="0.7" ry="0.7"/>
<ellipse transform="matrix(0.543 -0.8397 0.8397 0.543 39.2398 79.2618)" class="st1" cx="92.4" cy="3.6" rx="0.7" ry="0.7"/>
<ellipse transform="matrix(0.543 -0.8397 0.8397 0.543 43.3412 86.8767)" class="st1" cx="101.5" cy="3.6" rx="0.7" ry="0.7"/>
<ellipse transform="matrix(0.543 -0.8397 0.8397 0.543 47.4484 94.4743)" class="st1" cx="110.5" cy="3.6" rx="0.7" ry="0.7"/>
<ellipse transform="matrix(0.543 -0.8397 0.8397 0.543 51.546 102.0713)" class="st1" cx="119.6" cy="3.7" rx="0.7" ry="0.7"/>
<ellipse transform="matrix(0.5433 -0.8395 0.8395 0.5433 28.7213 71.8485)" class="st1" cx="80.4" cy="9.5" rx="0.7" ry="0.7"/>
<ellipse transform="matrix(0.5433 -0.8395 0.8395 0.5433 22.3182 72.0605)" class="st1" cx="77.4" cy="15.5" rx="0.7" ry="0.7"/>
<ellipse transform="matrix(0.5433 -0.8395 0.8395 0.5433 15.9338 72.2592)" class="st1" cx="74.4" cy="21.5" rx="0.7" ry="0.7"/>
<ellipse transform="matrix(0.5436 -0.8393 0.8393 0.5436 9.5275 72.4427)" class="st1" cx="71.4" cy="27.5" rx="0.7" ry="0.7"/>
<ellipse transform="matrix(0.5442 -0.839 0.839 0.5442 55.5144 109.5596)" class="st1" cx="128.6" cy="3.7" rx="0.7" ry="0.7"/>
<ellipse transform="matrix(0.5408 -0.8412 0.8412 0.5408 43.1429 109.6839)" class="st1" cx="122" cy="15.3" rx="0.7" ry="0.7"/>
<ellipse transform="matrix(0.5442 -0.839 0.839 0.5442 36.3867 110.2077)" class="st1" cx="119.6" cy="21.6" rx="0.7" ry="0.7"/>
<ellipse transform="matrix(0.5441 -0.8391 0.8391 0.5441 49.1453 109.7967)" class="st1" cx="125.6" cy="9.7" rx="0.7" ry="0.7"/>
<ellipse transform="matrix(0.5442 -0.839 0.839 0.5442 30.0044 110.426)" class="st1" cx="116.6" cy="27.6" rx="0.7" ry="0.7"/>
<ellipse transform="matrix(0.5441 -0.8391 0.8391 0.5441 23.639 110.6549)" class="st1" cx="113.6" cy="33.6" rx="0.7" ry="0.7"/>
<ellipse transform="matrix(0.5441 -0.8391 0.8391 0.5441 19.3412 102.6784)" class="st1" cx="104.1" cy="33.5" rx="0.7" ry="0.7"/>
<ellipse transform="matrix(0.5441 -0.8391 0.8391 0.5441 15.0338 94.7011)" class="st1" cx="94.7" cy="33.5" rx="0.7" ry="0.7"/>
<ellipse transform="matrix(0.5441 -0.8391 0.8391 0.5441 8.4355 94.9882)" class="st1" cx="91.6" cy="39.7" rx="0.7" ry="0.7"/>
<ellipse transform="matrix(0.5441 -0.8391 0.8391 0.5441 4.6035 100.5241)" class="st1" cx="94.8" cy="46" rx="0.7" ry="0.7"/>
<ellipse transform="matrix(0.5441 -0.8391 0.8391 0.5441 0.7715 106.0601)" class="st1" cx="98" cy="52.3" rx="0.7" ry="0.7"/>
<ellipse transform="matrix(0.5433 -0.8395 0.8395 0.5433 -3.0179 111.6845)" class="st1" cx="101.1" cy="58.6" rx="0.7" ry="0.7"/>
<ellipse transform="matrix(0.5442 -0.839 0.839 0.5442 -6.8934 117.1067)" class="st1" cx="104.3" cy="64.9" rx="0.7" ry="0.7"/>
<ellipse transform="matrix(0.5167 -0.8562 0.8562 0.5167 -2.0385 126.2469)" class="st1" cx="110.8" cy="64.9" rx="0.7" ry="0.7"/>
<ellipse transform="matrix(0.5174 -0.8557 0.8557 0.5174 1.5909 132.2407)" class="st1" cx="118" cy="64.7" rx="0.7" ry="0.7"/>
<ellipse transform="matrix(0.5174 -0.8557 0.8557 0.5174 4.8609 137.5717)" class="st1" cx="124.4" cy="64.5" rx="0.7" ry="0.7"/>
<ellipse transform="matrix(0.5258 -0.8506 0.8506 0.5258 69.6949 132.5832)" class="st1" cx="153.8" cy="3.8" rx="0.7" ry="0.7"/>
<ellipse transform="matrix(0.5258 -0.8506 0.8506 0.5258 63.066 132.9322)" class="st1" cx="150.8" cy="9.9" rx="0.7" ry="0.7"/>
<ellipse transform="matrix(0.5258 -0.8506 0.8506 0.5258 56.4376 133.2714)" class="st1" cx="147.7" cy="16" rx="0.7" ry="0.7"/>
<ellipse transform="matrix(0.5291 -0.8486 0.8486 0.5291 42.8181 134.2853)" class="st1" cx="142.4" cy="28.6" rx="0.7" ry="0.7"/>
<ellipse transform="matrix(0.5291 -0.8486 0.8486 0.5291 36.1724 134.657)" class="st1" cx="139.4" cy="34.7" rx="0.7" ry="0.7"/>
<ellipse transform="matrix(0.5253 -0.8509 0.8509 0.5253 29.9685 134.737)" class="st1" cx="135.7" cy="40.5" rx="0.7" ry="0.7"/>
<ellipse transform="matrix(0.5253 -0.8509 0.8509 0.5253 16.7065 135.4239)" class="st1" cx="129.7" cy="52.7" rx="0.7" ry="0.7"/>
<ellipse transform="matrix(0.5253 -0.8509 0.8509 0.5253 10.0862 135.7717)" class="st1" cx="126.7" cy="58.8" rx="0.7" ry="0.7"/>
<ellipse transform="matrix(0.5258 -0.8506 0.8506 0.5258 23.2929 135.0328)" class="st1" cx="132.8" cy="46.6" rx="0.7" ry="0.7"/>
<ellipse transform="matrix(0.5291 -0.8486 0.8486 0.5291 49.4537 133.9585)" class="st1" cx="145.4" cy="22.4" rx="0.7" ry="0.7"/>
<ellipse transform="matrix(0.5177 -0.8555 0.8555 0.5177 73.6623 138.2952)" class="st1" cx="159.5" cy="3.8" rx="0.7" ry="0.7"/>
<ellipse transform="matrix(0.4876 -0.8731 0.8731 0.4876 74.4702 146.7912)" class="st1" cx="162.3" cy="10" rx="0.7" ry="0.7"/>
<ellipse transform="matrix(3.490598e-03 -1 1 3.490598e-03 145.5323 188.2553)" class="st1" cx="167.2" cy="21.1" rx="5" ry="5"/>
<polygon class="st1" points="162.6,17.6 163.4,12.5 167.7,15.2 164.5,14.9 "/>
<ellipse transform="matrix(0.5436 -0.8393 0.8393 0.5436 -15.6664 37.7887)" class="st1" cx="26.9" cy="33.3" rx="0.7" ry="0.7"/>
<ellipse transform="matrix(0.5441 -0.8391 0.8391 0.5441 -11.9265 44.735)" class="st1" cx="35.2" cy="33.3" rx="0.7" ry="0.7"/>
<ellipse transform="matrix(0.5436 -0.8393 0.8393 0.5436 -4.3924 58.7011)" class="st1" cx="51.8" cy="33.4" rx="0.7" ry="0.7"/>
<ellipse transform="matrix(0.5441 -0.8391 0.8391 0.5441 -0.6518 65.6499)" class="st1" cx="60.1" cy="33.4" rx="0.7" ry="0.7"/>
<ellipse transform="matrix(0.5436 -0.8393 0.8393 0.5436 -8.153 51.7286)" class="st1" cx="43.5" cy="33.4" rx="0.7" ry="0.7"/>
<path class="st2" d="M219.4,4.9h9.3l-0.1,24.8h-2.5v-2.4h-4.2v3h-2.5L219.4,4.9z M226.1,24.9l0.1-17.6h-4.2l-0.1,17.6H226.1z
	 M242.9,0.9l-0.6,0.9c2.7,5.1,6.1,8.7,10.2,10.7c-0.7,0.8-1.3,1.6-1.9,2.4c-4-2.8-7.4-6.5-9.7-10.8c-2.4,4.3-5.8,8.1-9.9,10.9
	c-0.6-0.8-1.1-1.5-1.8-2.2c4.6-2.9,8.2-7.1,10.5-12L242.9,0.9z M232.2,20.7l16.5,0.1l0,14.4H246v-2.1h-11.2v2.1h-2.6L232.2,20.7z
	 M233.6,13.7h14.1v2.5h-14.1L233.6,13.7z M246,30.7l0-7.5h-11.2v7.5L246,30.7z"/>
<path class="st2" d="M257.4,29.9l15.3,0l0.1-23.3h-13.3V3.8l29.8,0.1v2.8h-13.4L275.8,30l15.3,0v2.7l-33.7-0.1V29.9z"/>
<path class="st2" d="M296.2,32.4c9.6-4.2,14.8-10.6,15.6-19.2h-14.9v-2.8l15,0c0.1-3.1,0.1-6.3,0.1-9.5h3c0,3.1,0,6.3-0.1,9.5
	l15.5,0v2.7l-15.5-0.1c1.6,9.3,7,15.5,16.2,18.5c-0.9,0.9-1.8,1.8-2.7,2.8c-7.3-2.7-12.8-8.8-14.8-16.3c-1.8,7.1-6.9,12.7-15.3,16.9
	C297.9,34.5,297.2,33.6,296.2,32.4z"/>
<path class="st2" d="M335.6,22.8c2.6-3.8,4.5-8.1,5.6-12.6H336V7.9h5.5V1h2.5v6.9h4.9v2.4h-4.9v5.8l1.4-1.4c1.8,1.6,3.2,3,4.2,4
	l-1.9,1.9c-1.4-1.6-2.7-2.9-3.7-4L343.9,35h-2.5l0.1-18.7c-1,3.4-2.6,6.7-4.7,9.5C336.3,24.9,336,23.8,335.6,22.8z M354,6v11.6
	c0,8.3-2.1,14.4-6.3,18.1c-0.6-0.8-1.3-1.6-2-2.4c3.7-3.2,5.6-8.3,5.6-15.1l0-14.9h13l-0.1,26.3c0,1.2,0.4,1.8,1.2,1.8h0.8
	c0.7,0,1.2-0.7,1.4-2c0.2-1.8,0.4-3.7,0.5-5.8c0.9,0.4,1.7,0.8,2.6,1.1c-0.2,2.3-0.4,4.2-0.6,5.7c-0.4,2.5-1.6,3.7-3.6,3.7h-1.9
	c-2.2,0-3.4-1.3-3.3-4l0.1-24.1L354,6z"/>
<path class="st2" d="M376.2,15.8h14.1c0.4-1,0.6-2,0.7-3l2.5,0.4c-0.1,0.9-0.3,1.8-0.6,2.7h7.6c-0.9-0.7-1.9-1.3-2.9-2l1.4-1.6
	c1.5,0.9,2.9,1.8,4.1,2.7l-0.8,0.8h6.5v2.4h-13.5c2.7,2.7,7.4,3.9,14.3,3.8c-0.6,1-1,1.8-1.4,2.7c-0.6,0-1.2-0.1-1.8-0.2v10.7H404
	v-2h-7.5v1.9h-2.5V24.2h11.1c-6.7-0.9-10.9-3-12.7-6.2h-0.6c-1.3,2.8-5.6,4.8-12.7,6.1h11.2v10.8h-2.5v-1.8h-7.4v1.9h-2.4V24.5
	l-1.9,0.3c-0.3-0.7-0.8-1.5-1.4-2.5c7.8-1,12.4-2.4,14-4.1h-12.6L376.2,15.8z M378.1,3.1h12.3v10.2h-2.5v-1h-7.4v1.4h-2.4V3.1z
	 M387.9,5.3h-7.4V10h7.4V5.3z M387.9,26.4h-7.4V31h7.4V26.4z M394.1,3.1h12.4v10.3H404v-1.2h-7.5v1.1h-2.4V3.1z M404,5.3h-7.5v4.8
	h7.5V5.3z M404,26.5h-7.5V31h7.5V26.5z"/>
<path class="st2" d="M414.3,32.7c10.2-5.8,15.6-16.1,16.2-30.8h3.1c-0.1,2.4-0.4,4.8-0.8,7.1c2.8,11.7,8.2,19.3,16.2,23.1
	c-1,1.1-1.8,2.1-2.6,3c-6.9-3.9-11.9-10.8-14.8-20.8c-2.6,9.6-7.7,16.6-15.2,21.1C415.8,34.4,415.1,33.5,414.3,32.7z"/>
<path class="st2" d="M454.8,24.7l15,0v-2.4h2.4v2.4l15,0V27h-12.3c4.1,2.9,8.7,4.9,13.6,5.9c-0.6,1-1.2,1.8-1.6,2.6
	c-5.4-1.5-10.4-4.2-14.6-7.9v8.2h-2.4v-8.2c-4.3,3.6-9.3,6.2-14.7,7.9c-0.5-0.7-1-1.5-1.6-2.2c4.9-1.1,9.5-3.3,13.5-6.2h-12.2V24.7z
	 M470.3,2.5l2.1-1.2c1,1.1,1.9,2.3,2.7,3.5l-1.6,1h13.4v2.2h-13.2v2.5h11.7v2h-11.7v2.5h11.7v2h-11.7v2.5H487v2.2l-25.5-0.1v1.3
	h-2.5V10.4c-1.2,1.3-2.4,2.6-3.7,3.8c-0.5-0.8-1-1.6-1.7-2.3c3.5-2.9,6.4-6.4,8.6-10.4l2.4,1.1c-0.6,1.1-1.3,2.1-2,3.1h9.9
	C471.8,4.6,471.1,3.5,470.3,2.5z M461.4,10.4h9.7V7.9h-9.7V10.4z M461.4,14.9h9.7v-2.5h-9.7V14.9z M461.4,19.5h9.7V17h-9.7V19.5z"/>
<path class="st2" d="M495.2,3.3l30.6,0.1L525.6,36H523v-1.8h-25.3V36h-2.6L495.2,3.3z M523.1,5.8l-25.3-0.1l-0.1,26l25.3,0.1
	L523.1,5.8z M499.5,11.9h13.1v-5h2.6v5h6.7v2.4h-6.7V25c0,3.4-1.6,5.1-4.8,5c-1.3,0-2.7,0-4.1-0.1c-0.1-0.8-0.3-1.7-0.5-2.8
	c1.3,0.2,2.7,0.3,4,0.3c1.9,0,2.9-1.1,2.9-3.2v-8.2c-3.3,4.8-7.6,8.8-12.6,11.7c-0.5-0.9-1.1-1.6-1.8-2.3c5-2.6,9.4-6.4,12.7-11
	h-11.4L499.5,11.9z"/>
<path class="st2" d="M231.2,50.4h1.8L233,66.9h-1.9v-7.7h-9.3v7.7h-1.9l0.1-16.6h1.9v7.2h9.3L231.2,50.4z"/>
<path class="st2" d="M243.7,50.5h1.8L245.5,67h-1.8L243.7,50.5z"/>
<path class="st2" d="M268.1,50.5v1.6h-5.6l0,14.9h-1.9l0-14.9H255v-1.6L268.1,50.5z"/>
<path class="st2" d="M304.2,67.2h-2.6l-5.7-7.4h-4.4v7.4h-1.9l0.1-16.5h7.7c3.5,0.2,5.4,1.7,5.6,4.5c0,2.9-1.7,4.4-5,4.6L304.2,67.2
	z M291.6,52.2V58h5.4c2.7,0,4-1.1,4.1-3c-0.1-1.8-1.4-2.7-4-2.7L291.6,52.2z"/>
<path class="st2" d="M320.2,67.5c-5-0.3-7.6-3-7.8-8.2c0.2-5.6,2.9-8.5,8.1-8.8c4.9,0.3,7.5,3.2,7.8,8.7
	C328.1,64.5,325.4,67.3,320.2,67.5z M320.3,52.1c-3.6,0.3-5.6,2.6-6,7c0.2,4.2,2.2,6.5,5.8,6.9c3.9-0.2,5.9-2.5,6.1-6.8
	C326,54.8,324,52.5,320.3,52.1z"/>
<path class="st2" d="M344.6,67.3h-6.9l0.1-16.5h6.4c3.3,0.2,5.1,1.6,5.3,4.2c0,1.9-1.4,3.4-3.3,3.6v0.1c2.2,0.1,3.9,2,3.9,4.2
	C349.9,65.7,348.1,67.2,344.6,67.3z M343.8,52.4h-4.3V58h4.3c2.3-0.1,3.5-1.1,3.7-3C347.4,53.4,346.1,52.5,343.8,52.4L343.8,52.4z
	 M344,59.6h-4.5v6.2h4.9c2.6,0,3.9-1.1,3.9-3.2C348.1,60.7,346.7,59.8,344,59.6z"/>
<path class="st2" d="M367.1,67.6c-5-0.3-7.6-3-7.8-8.2c0.2-5.6,2.9-8.5,8.1-8.8c4.9,0.3,7.5,3.2,7.8,8.7
	C375,64.7,372.3,67.4,367.1,67.6z M367.2,52.3c-3.6,0.3-5.6,2.6-6,7c0.2,4.2,2.2,6.5,5.8,6.9c3.9-0.2,5.9-2.5,6.1-6.8
	C372.8,55,370.9,52.6,367.2,52.3L367.2,52.3z"/>
<path class="st2" d="M396.6,51v1.6H391l0,14.9h-1.9v-15h-5.6v-1.6L396.6,51z"/>
<path class="st2" d="M425.8,59.1h7.1v6c-1.4,1.8-3.8,2.7-7.1,2.7c-5.2-0.3-7.9-3.1-8.1-8.3c0.2-5.6,2.9-8.5,7.9-8.7
	c3.7,0.1,6.1,1.7,7.3,4.9l-2.1,0.5c-0.7-2.3-2.9-3.9-5.4-3.7c-3.5,0.3-5.5,2.6-5.8,7c0.3,4.2,2.3,6.5,6.1,6.9c2.5,0,4.3-0.7,5.4-2
	v-3.6h-5.3L425.8,59.1z"/>
<path class="st2" d="M457.3,67.7h-2.6l-5.7-7.5h-4.4v7.4h-1.9l0.1-16.5h7.7c3.5,0.2,5.4,1.7,5.6,4.5c0,2.9-1.7,4.4-5,4.6L457.3,67.7
	z M444.7,52.8v5.8h5.4c2.7,0,4-1,4-3c-0.1-1.8-1.4-2.7-4-2.7L444.7,52.8z"/>
<path class="st2" d="M473.3,68c-5-0.3-7.6-3-7.8-8.2c0.2-5.6,2.9-8.5,8.1-8.8c4.9,0.3,7.5,3.2,7.8,8.7C481.2,65,478.5,67.8,473.3,68
	z M473.5,52.7c-3.6,0.3-5.6,2.6-6,7c0.2,4.2,2.2,6.5,5.8,6.9c3.9-0.2,5.9-2.5,6.1-6.8C479.1,55.3,477.1,53,473.5,52.7z"/>
<path class="st2" d="M504,51.4V61c0,4.8-2.2,7.1-6.6,7.1c-4.3,0-6.5-2.3-6.4-7.1v-9.7h1.9v9.6c-0.1,3.9,1.4,5.8,4.5,5.7
	c3.3,0.1,4.9-1.8,4.8-5.7v-9.6L504,51.4z"/>
<path class="st2" d="M521.4,61.2h-5.1v6.7h-1.8l0.1-16.5h7.1c3.3,0.2,5.2,1.8,5.5,4.9C527,59.6,525.1,61.2,521.4,61.2z M521.1,53.1
	h-4.8v6.5h4.8c2.6,0,4-1.2,4-3.4C525,54.2,523.7,53.1,521.1,53.1L521.1,53.1z"/>
<rect x="372.2" y="-111.7" transform="matrix(3.490598e-03 -1 1 3.490598e-03 328.3852 415.1917)" class="st2" width="0.7" height="309.1"/>
<path class="st3" d="M49.8,95.7l17,0.1V94h2v1.8h5.3v1.7h-5.3v4c0,1.9-1.1,2.9-3.2,2.9h-3.9c-0.1-0.6-0.2-1.3-0.4-2.1
	c1.5,0.1,2.7,0.2,3.7,0.2c1.2,0,1.8-0.5,1.8-1.5v-3.4l-17-0.1L49.8,95.7z M56.3,91.5h12.8c1.3,0,2.1-0.4,2.3-1.2
	c0.2-0.9,0.4-1.8,0.6-2.7c0.5,0.2,1.2,0.5,1.9,0.8c-0.2,1.1-0.5,2-0.7,2.7c-0.4,1.5-1.6,2.2-3.6,2.2H55.9c-2.2,0-3.2-1.1-3.2-3.2
	v-8.2l17.5,0.1v7.4h-1.9v-0.8H54.5v1.4C54.5,91,55.1,91.5,56.3,91.5z M54.4,98.8l1.2-1.3c1.8,1.4,3.1,2.5,4,3.3l-1.4,1.4
	C56.7,100.9,55.4,99.7,54.4,98.8z M54.5,83.6v3.2h13.8v-3.2H54.5z"/>
<path class="st3" d="M100.2,96.1c1.8-2.7,3.1-5.6,3.9-8.8h-3.6v-1.7h3.8v-4.8h1.8v4.8h3.4v1.7H106v4l1-1c1.2,1.1,2.2,2.1,2.9,2.8
	l-1.3,1.3c-1-1.1-1.9-2-2.6-2.8v12.9h-1.8V91.5c-0.7,2.4-1.8,4.6-3.3,6.7C100.7,97.5,100.5,96.8,100.2,96.1z M113.1,84.4v8.1
	c0,5.8-1.5,10-4.4,12.6c-0.5-0.6-0.9-1.1-1.4-1.7c2.6-2.3,3.9-5.8,3.9-10.5V82.5h9.1l-0.1,18.4c0,0.8,0.3,1.2,0.9,1.2h0.6
	c0.5,0,0.9-0.5,1-1.4c0.2-1.3,0.3-2.6,0.4-4c0.6,0.3,1.2,0.6,1.9,0.8c-0.2,1.6-0.3,2.9-0.4,3.9c-0.3,1.7-1.1,2.6-2.5,2.6h-1.3
	c-1.6,0-2.3-0.9-2.3-2.8l0.1-16.8L113.1,84.4z"/>
<path class="st3" d="M151.5,91.3h9.9c0.3-0.7,0.4-1.4,0.5-2.1l1.8,0.3c-0.1,0.6-0.2,1.3-0.4,1.9h5.3c-0.7-0.5-1.4-0.9-2.1-1.4l1-1.1
	c1,0.6,2,1.2,2.9,1.9l-0.6,0.6h4.6v1.6h-9.4c1.9,1.8,5.2,2.7,10,2.6c-0.4,0.7-0.7,1.3-1,1.9l-1.2-0.1v7.4h-1.7v-1.3h-5.2v1.3H164
	v-7.5h7.8c-4.7-0.7-7.6-2.1-8.9-4.3h-0.4c-0.9,1.9-3.9,3.3-8.9,4.2h7.8v7.5h-1.7v-1.3h-5.1v1.3h-1.7v-7.4l-1.3,0.2
	c-0.2-0.5-0.6-1.1-0.9-1.7c5.4-0.7,8.7-1.6,9.8-2.9h-8.8L151.5,91.3z M152.8,82.4h8.6v7.1h-1.7v-0.8h-5.1v1h-1.7L152.8,82.4z
	 M159.7,84h-5.1v3.3h5.1V84z M159.7,98.7h-5.1v3.2h5.1V98.7z M164.1,82.5h8.6v7.2H171v-0.8h-5.2v0.8H164L164.1,82.5z M171,84h-5.2
	v3.3h5.2V84z M171,98.8h-5.2v3.2h5.2V98.8z"/>
<path class="st3" d="M201.1,103.1c7.1-4.1,10.9-11.2,11.3-21.5h2.1c-0.1,1.7-0.3,3.3-0.5,5c2,8.1,5.8,13.5,11.3,16.1
	c-0.7,0.7-1.3,1.5-1.8,2.1c-4.8-2.7-8.2-7.6-10.3-14.5c-1.8,6.7-5.3,11.6-10.6,14.7C202.1,104.3,201.6,103.7,201.1,103.1z"/>
<path class="st3" d="M251.4,98.7c1.9-2.5,3.3-5.3,4.2-8.3h-3.8v-1.7h4v-3.6l-3.5,0.3c-0.1-0.6-0.3-1.2-0.5-1.8
	c3.2-0.2,6.3-0.5,9.4-1l0.6,1.8c-1.5,0.2-2.9,0.4-4.2,0.5v3.8h3.9v1.7h-3.9v2.8l1.1-1c1.2,1,2.2,2,3.2,3l-1.4,1.4
	c-1-1.2-2-2.2-2.9-3.1v11.9h-1.8v-11c-0.8,2.3-2,4.4-3.4,6.3C252.1,100.1,251.8,99.4,251.4,98.7z M260.2,97.5l9.6-0.8l0-15.1h1.9
	l0,14.9l3.9-0.3l0.1,1.8l-4,0.3v7.3h-1.9v-7.1l-9.4,0.8L260.2,97.5z M261.7,91.2l1.2-1.2c1.8,1.5,3.2,2.6,4.2,3.5l-1.3,1.5
	C265,94.1,263.7,92.9,261.7,91.2L261.7,91.2z M263.2,85.4l1.1-1.2c1.8,1.4,3.3,2.6,4.4,3.7l-1.3,1.4
	C266.1,87.9,264.6,86.6,263.2,85.4L263.2,85.4z"/>
<path class="st3" d="M301.9,94.5l3.6-1v-5.3h-3.2v-1.7h3.2v-4.7h1.9v4.7h2.9v1.7h-2.9v4.7L310,92c0,0.8,0,1.4,0,1.9l-2.8,0.9v7.9
	c0,1.7-0.8,2.6-2.5,2.6c-0.7,0-1.4,0-2.3,0c-0.1-0.7-0.2-1.4-0.3-2.1c1,0.1,1.7,0.2,2.2,0.2c0.7,0,1-0.4,1-1.1v-6.8l-3.3,1.1
	L301.9,94.5z M310.9,92.7v-1.6h6.3v-3.7h-6.4v-1.8h6.4v-3.9h2v3.9h6.6v1.8h-6.6v3.7h5.2v1.5c-1,3-2.7,5.7-4.9,7.9
	c2,1.5,4.3,2.7,6.8,3.3c-0.6,0.7-1.1,1.3-1.6,1.9c-2.4-1-4.7-2.3-6.7-3.9c-2.3,1.7-4.8,3.1-7.5,4.1c-0.4-0.6-0.8-1.2-1.3-1.7
	c2.7-0.8,5.2-2,7.5-3.6c-1.9-2.2-3.3-4.9-4-7.7L310.9,92.7z M322.2,92.7h-7.8c0.7,2.5,1.9,4.7,3.7,6.5
	C320,97.4,321.4,95.2,322.2,92.7L322.2,92.7z"/>
<path class="st3" d="M359.2,105.7h-1.9V93.1c-1.2,1.4-2.5,2.7-3.9,3.9c-0.3-0.6-0.7-1.2-1.2-1.8c3-2.4,5.5-5.4,7.4-8.7h-6.7v-1.8
	h7.6c0.5-1,0.9-2.1,1.2-3.1l2,0.5c-0.3,0.9-0.7,1.8-1.1,2.7h13.8v1.8l-14.6-0.1c-0.5,1-1.1,1.9-1.7,2.8h13.4v13c0,2-1,3-3,3
	c-0.9,0-2.2,0-3.9,0c-0.1-0.6-0.2-1.2-0.4-2c1.5,0.1,2.7,0.2,3.6,0.2c0.8,0.1,1.6-0.4,1.7-1.2c0-0.1,0-0.3,0-0.4v-1.6h-12.3
	L359.2,105.7z M371.5,91.1h-12.3V94h12.3V91.1z M359.2,98.5h12.3v-2.9h-12.3V98.5z"/>
<path class="st3" d="M411.3,96.4c0.5,3.1-0.3,4.8-2.3,5.2c-0.8,0.1-1.6,0.1-2.5,0c-0.1-0.7-0.3-1.3-0.5-2c0.7,0.2,1.5,0.3,2.2,0.2
	c1.1-0.2,1.5-1.4,1.1-3.5c-0.4-1.6-1.1-3.1-2.2-4.4c0.6-1.8,1.4-4.1,2.3-7.1h-3.6l-0.1,21.3H404l0.1-23h7.4v1.7
	c-0.8,2.3-1.6,4.5-2.3,6.8C410.2,93,411,94.7,411.3,96.4z M412.9,83.2h11.5v12.1h-1.8v-0.7h-4.1c0.5,1.4,1.2,2.8,2.1,4
	c1.6-1.1,3.2-2.2,4.6-3.5l1.3,1.5c-1.8,1.2-3.4,2.3-4.8,3.2c1.5,1.5,3.3,2.7,5.3,3.4c-0.6,0.5-1.1,1.1-1.6,1.8
	c-4.3-2.1-7.4-5.9-8.7-10.5h-2.1v8.3c1.1-0.5,2.5-1.2,4.3-2.1c0,0.6,0,1.3,0.1,1.9c-1.4,0.7-2.9,1.4-4.2,2.3c-0.5,0.3-0.9,0.6-1.3,1
	l-1.4-1.8c0.5-0.4,0.8-1,0.7-1.6L412.9,83.2z M422.6,84.9h-8v3.2h8V84.9z M422.6,93.1v-3.3h-8v3.3H422.6z"/>
<path class="st3" d="M453.1,93.6c3.5-2.8,6.3-6.4,8.1-10.4l1.9,0.8c-2,4.3-4.9,8.1-8.5,11.2C454.2,94.6,453.7,94.1,453.1,93.6z
	 M469,96.7c2.3,3,4.3,5.8,5.9,8.3l-1.9,1.3c-0.5-0.7-0.9-1.5-1.4-2.3c-5.3,0.2-9.7,0.5-13.1,0.8c-0.8,0.1-1.5,0.2-2.2,0.4l-1.1-2.1
	c0.7-0.3,1.4-0.8,2-1.3c2.4-3,4.5-6.2,6.2-9.7l2.1,1c-2,3.4-4.1,6.6-6.5,9.7c3.3-0.1,7.1-0.2,11.4-0.4c-0.9-1.4-1.9-2.9-3-4.5
	L469,96.7z M466.9,83.6l1.8-0.7c1.6,4.3,4.7,7.9,8.8,10.1c-0.6,0.6-1.1,1.2-1.5,1.9C471.9,92.2,468.7,88.2,466.9,83.6z"/>
<path class="st3" d="M504,88.3l18.6,0.1v1.8L504,90.1V88.3z M505.4,85.3v-1.8l21.1,0.1l-0.1,19c0,2.3-1,3.5-3.1,3.4h-4.8
	c-0.1-0.7-0.2-1.4-0.4-2.1c2,0.1,3.6,0.2,4.7,0.2s1.7-0.6,1.7-1.9l0.1-16.7L505.4,85.3z M506.4,93h12.8v8.6h-10.9v1.8h-1.9V93z
	 M517.3,99.9v-5.1h-9v5.1H517.3z"/>
<text transform="matrix(1 0 0 1 4.3335 101.2786)" class="st3 st4 st5">众</text>
</svg>
