<svg xmlns="http://www.w3.org/2000/svg" xmlns:xlink="http://www.w3.org/1999/xlink" id="body_10" preserveAspectRatio="xMinYMin meet" viewBox="0 0 2205 3117"><defs><clipPath id="1"><path d="M0 2338L0 0L0 0L1654 0L1654 0L1654 2338L1654 2338L0 2338z" /></clipPath><clipPath id="2"><path d="M1494.16 17.01001L1642.66 17.01001L1642.66 17.01001L1642.66 7.109863L1642.66 7.109863L1494.16 7.109863z" /></clipPath></defs><g transform="matrix(1.333333 0 0 1.333333 0 0)"><g><g clip-path="url(#1)"><g transform="matrix(1 0 0 1 0 0)"><g transform="matrix(1 0 0 1 0 0)"><image x="0" y="0" xlink:href="img_28.png" width="1654" height="1266" /></g></g><g transform="matrix(1 0 0 1 0 1266)"><g transform="matrix(1 0 0 1 0 0)"><image x="0" y="0" xlink:href="img_29.png" width="1654" height="1072" /></g></g><g clip-path="url(#2)"></g></g></g></g></svg>