<svg xmlns="http://www.w3.org/2000/svg" xmlns:xlink="http://www.w3.org/1999/xlink" id="body_4" preserveAspectRatio="xMinYMin meet" viewBox="0 0 2213 3115"><defs><clipPath id="1"><path d="M0 2336L0 0L0 0L1660 0L1660 0L1660 2336L1660 2336L0 2336z" /></clipPath><clipPath id="2"><path d="M1500.16 17.01001L1648.66 17.01001L1648.66 17.01001L1648.66 7.109863L1648.66 7.109863L1500.16 7.109863z" /></clipPath></defs><g transform="matrix(1.333333 0 0 1.333333 0 0)"><g><g clip-path="url(#1)"><g transform="matrix(1 0 0 1 0 0)"><g transform="matrix(1 0 0 1 0 0)"><image x="0" y="0" xlink:href="img_10.png" width="1660" height="1260" /></g></g><g transform="matrix(1 0 0 1 0 1260)"><g transform="matrix(1 0 0 1 0 0)"><image x="0" y="0" xlink:href="img_11.png" width="1660" height="1076" /></g></g><g clip-path="url(#2)"></g></g></g></g></svg>